M48
; DRILL file {KiCad 7.0.6-0} date 2023 August 01, Tuesday 13:26:08
; FORMAT={-:-/ absolute / inch / decimal}
; #@! TF.CreationDate,2023-08-01T13:26:08+08:00
; #@! TF.GenerationSoftware,Kicad,Pcbnew,7.0.6-0
; #@! TF.FileFunction,Plated,1,2,PTH
FMAT,2
INCH
; #@! TA.AperFunction,Plated,PTH,ComponentDrill
T1C0.0118
; #@! TA.AperFunction,Plated,PTH,ViaDrill
T2C0.0157
; #@! TA.AperFunction,Plated,PTH,ComponentDrill
T3C0.0394
; #@! TA.AperFunction,Plated,PTH,ComponentDrill
T4C0.0430
; #@! TA.AperFunction,Plated,PTH,ComponentDrill
T5C0.0500
; #@! TA.AperFunction,Plated,PTH,ComponentDrill
T6C0.0670
%
G90
G05
T1
X-0.3258Y-0.1476
X0.1289Y-0.2343
X0.5797Y1.6909
X0.5797Y1.0217
X0.5797Y0.3524
X1.0344Y1.6043
X1.0344Y0.935
X1.0344Y0.2657
X1.2884Y1.9272
X1.2884Y1.2579
X1.2884Y0.5886
X1.7431Y1.8406
X1.7431Y1.1713
X1.7431Y0.502
X1.997Y1.8091
X1.997Y1.1398
X1.997Y0.4705
X2.4518Y1.7224
X2.4518Y1.0531
X2.4518Y0.3839
X2.5089Y0.7579
X2.5089Y0.0886
X2.5089Y-0.5807
X2.9636Y0.6713
X2.9636Y0.002
X2.9636Y-0.6673
T2
X-0.3465Y1.4134
X-0.3228Y0.1102
X-0.189Y1.2563
X-0.0827Y0.7638
X-0.0039Y0.1102
X0.0709Y0.5551
X0.1102Y1.5354
X0.1181Y1.1811
X0.1181Y0.8701
X0.1181Y0.7756
X0.3661Y1.2677
X0.378Y0.5748
X0.3819Y-0.126
X0.4961Y0.9449
X0.5866Y1.0984
X0.5906Y0.748
X0.5984Y-0.0669
X0.6142Y0.6732
X0.6142Y0.4567
X0.6457Y0.2165
X0.6535Y0.9055
X1.1496Y1.1772
X1.1969Y0.6299
X1.2008Y1.4685
X1.2008Y0.7205
X1.5Y0.4134
X1.5354Y1.622
X1.5354Y0.8071
X1.5364Y1.1378
X1.5394Y0.7598
X1.5709Y1.3819
X1.5709Y0.8504
X1.5748Y1.2795
X1.5866Y0.9843
X1.7716Y0.8858
X1.7717Y0.4026
X1.8976Y1.7323
X2.063Y0.5945
X2.2441Y0.7559
X2.2992Y1.4094
X2.378Y0.8228
X2.3819Y1.3504
X2.4252Y0.1024
X2.5354Y1.8071
X2.5384Y1.4213
X2.7244Y0.9724
X2.748Y0.1339
X2.9055Y0.7992
X2.9449Y1.6457
X2.9449Y-0.4961
X2.9567Y0.2992
X3.0591Y1.4567
X3.0591Y0.3071
T3
X2.7346Y1.8457
X2.7346Y1.2748
X2.8331Y1.2748
X2.9315Y1.8457
X2.9315Y1.2748
T4
X-0.3Y1.4752
X-0.3Y1.3752
X-0.3Y1.2752
X-0.3Y1.1752
X-0.3Y1.0752
X-0.3Y0.9752
X-0.3Y0.8752
X-0.3Y0.7752
X-0.3Y0.6752
X-0.3Y0.5752
X-0.3Y0.4752
X-0.3Y0.3752
X0.3Y1.4752
X0.3Y1.3752
X0.3Y1.2752
X0.3Y1.1752
X0.3Y1.0752
X0.3Y0.9752
X0.3Y0.8752
X0.3Y0.7752
X0.3Y0.6752
X0.3Y0.5752
X0.3Y0.4752
X0.3Y0.3752
T5
X-0.1969Y1.189
X-0.1969Y0.5197
X0.0Y1.1063
X0.0Y0.437
X2.8346Y1.8071
X3.0315Y1.7244
T6
X2.6181Y1.5748
X3.0512Y1.5748
T0
M30
