0
SECTION
2
HEADER
9
$INSUNITS
70
4
0
ENDSEC
0
SECTION
2
TABLES
0
TABLE
2
LTYPE
0
LTYPE
72
65
70
64
2
CONTINUOUS
3
______
73
0
40
0
0
ENDTAB
0
TABLE
2
LAYER
0
ENDTAB
0
ENDSEC
0
SECTION
2
ENTITIES
0
LINE
8
0
10
8
20
25
11
15
21
25
0
LINE
8
0
10
15
20
25
11
15
21
32
0
LINE
8
0
10
15
20
32
11
8
21
32
0
LINE
8
0
10
8
20
32
11
8
21
25
0
LINE
8
0
10
9.95
20
26.95
11
13.05
21
26.95
0
LINE
8
0
10
13.05
20
26.95
11
13.05
21
30.05
0
LINE
8
0
10
13.05
20
30.05
11
9.95
21
30.05
0
LINE
8
0
10
9.95
20
30.05
11
9.95
21
26.95
0
LINE
8
0
10
41.5
20
31
11
48.5
21
31
0
LINE
8
0
10
48.5
20
31
11
48.5
21
38
0
LINE
8
0
10
48.5
20
38
11
41.5
21
38
0
LINE
8
0
10
41.5
20
38
11
41.5
21
31
0
LINE
8
0
10
43.45
20
32.95
11
46.55
21
32.95
0
LINE
8
0
10
46.55
20
32.95
11
46.55
21
36.05
0
LINE
8
0
10
46.55
20
36.05
11
43.45
21
36.05
0
LINE
8
0
10
43.45
20
36.05
11
43.45
21
32.95
0
LINE
8
0
10
41.5
20
-3
11
48.5
21
-3
0
LINE
8
0
10
48.5
20
-3
11
48.5
21
4
0
LINE
8
0
10
48.5
20
4
11
41.5
21
4
0
LINE
8
0
10
41.5
20
4
11
41.5
21
-3
0
LINE
8
0
10
43.45
20
-1.05
11
46.55
21
-1.05
0
LINE
8
0
10
46.55
20
-1.05
11
46.55
21
2.05
0
LINE
8
0
10
46.55
20
2.05
11
43.45
21
2.05
0
LINE
8
0
10
43.45
20
2.05
11
43.45
21
-1.05
0
LINE
8
0
10
59.5
20
28
11
66.5
21
28
0
LINE
8
0
10
66.5
20
28
11
66.5
21
35
0
LINE
8
0
10
66.5
20
35
11
59.5
21
35
0
LINE
8
0
10
59.5
20
35
11
59.5
21
28
0
LINE
8
0
10
61.45
20
29.95
11
64.55
21
29.95
0
LINE
8
0
10
64.55
20
29.95
11
64.55
21
33.05
0
LINE
8
0
10
64.55
20
33.05
11
61.45
21
33.05
0
LINE
8
0
10
61.45
20
33.05
11
61.45
21
29.95
0
LINE
8
0
10
59.5
20
-6
11
66.5
21
-6
0
LINE
8
0
10
66.5
20
-6
11
66.5
21
1
0
LINE
8
0
10
66.5
20
1
11
59.5
21
1
0
LINE
8
0
10
59.5
20
1
11
59.5
21
-6
0
LINE
8
0
10
61.45
20
-4.05
11
64.55
21
-4.05
0
LINE
8
0
10
64.55
20
-4.05
11
64.55
21
-0.95
0
LINE
8
0
10
64.55
20
-0.95
11
61.45
21
-0.95
0
LINE
8
0
10
61.45
20
-0.95
11
61.45
21
-4.05
0
ENDSEC
0
EOF