%TF.GenerationSoftware,KiCad,Pcbnew,7.0.6-0*%
%TF.CreationDate,2023-08-01T13:26:10+08:00*%
%TF.ProjectId,right,72696768-742e-46b6-9963-61645f706362,v1.0.0*%
%TF.SameCoordinates,Original*%
%TF.FileFunction,Copper,L2,Bot*%
%TF.FilePolarity,Positive*%
%FSLAX46Y46*%
G04 Gerber Fmt 4.6, Leading zero omitted, Abs format (unit mm)*
G04 Created by KiCad (PCBNEW 7.0.6-0) date 2023-08-01 13:26:10*
%MOMM*%
%LPD*%
G01*
G04 APERTURE LIST*
G04 Aperture macros list*
%AMRoundRect*
0 Rectangle with rounded corners*
0 $1 Rounding radius*
0 $2 $3 $4 $5 $6 $7 $8 $9 X,Y pos of 4 corners*
0 Add a 4 corners polygon primitive as box body*
4,1,4,$2,$3,$4,$5,$6,$7,$8,$9,$2,$3,0*
0 Add four circle primitives for the rounded corners*
1,1,$1+$1,$2,$3*
1,1,$1+$1,$4,$5*
1,1,$1+$1,$6,$7*
1,1,$1+$1,$8,$9*
0 Add four rect primitives between the rounded corners*
20,1,$1+$1,$2,$3,$4,$5,0*
20,1,$1+$1,$4,$5,$6,$7,0*
20,1,$1+$1,$6,$7,$8,$9,0*
20,1,$1+$1,$8,$9,$2,$3,0*%
G04 Aperture macros list end*
%TA.AperFunction,ComponentPad*%
%ADD10C,2.032000*%
%TD*%
%TA.AperFunction,SMDPad,CuDef*%
%ADD11R,0.600000X0.700000*%
%TD*%
%TA.AperFunction,ComponentPad*%
%ADD12R,2.000000X2.000000*%
%TD*%
%TA.AperFunction,ComponentPad*%
%ADD13C,2.000000*%
%TD*%
%TA.AperFunction,ComponentPad*%
%ADD14C,1.500000*%
%TD*%
%TA.AperFunction,ComponentPad*%
%ADD15C,2.701800*%
%TD*%
%TA.AperFunction,SMDPad,CuDef*%
%ADD16R,1.200000X1.800000*%
%TD*%
%TA.AperFunction,SMDPad,CuDef*%
%ADD17RoundRect,0.381000X0.381000X-0.619000X0.381000X0.619000X-0.381000X0.619000X-0.381000X-0.619000X0*%
%TD*%
%TA.AperFunction,SMDPad,CuDef*%
%ADD18RoundRect,0.378000X0.378000X-0.622000X0.378000X0.622000X-0.378000X0.622000X-0.378000X-0.622000X0*%
%TD*%
%TA.AperFunction,ComponentPad*%
%ADD19R,1.752600X1.752600*%
%TD*%
%TA.AperFunction,ComponentPad*%
%ADD20C,1.752600*%
%TD*%
%TA.AperFunction,SMDPad,CuDef*%
%ADD21RoundRect,0.150000X0.625000X-0.150000X0.625000X0.150000X-0.625000X0.150000X-0.625000X-0.150000X0*%
%TD*%
%TA.AperFunction,SMDPad,CuDef*%
%ADD22RoundRect,0.250000X0.650000X-0.350000X0.650000X0.350000X-0.650000X0.350000X-0.650000X-0.350000X0*%
%TD*%
%TA.AperFunction,SMDPad,CuDef*%
%ADD23R,2.600000X2.600000*%
%TD*%
%TA.AperFunction,ComponentPad*%
%ADD24C,0.600000*%
%TD*%
%TA.AperFunction,ViaPad*%
%ADD25C,0.800000*%
%TD*%
%TA.AperFunction,Conductor*%
%ADD26C,0.250000*%
%TD*%
G04 APERTURE END LIST*
D10*
%TO.P,S1,1*%
%TO.N,C4_R0D*%
X-5000000Y30200000D03*
%TO.P,S1,2*%
%TO.N,C4*%
X0Y28100000D03*
%TD*%
D11*
%TO.P,D1,1*%
%TO.N,R0*%
X2900000Y31400000D03*
%TO.P,D1,2*%
%TO.N,C4_R0D*%
X4300000Y31400000D03*
%TD*%
D10*
%TO.P,S2,1*%
%TO.N,C4_R1D*%
X-5000000Y13200000D03*
%TO.P,S2,2*%
%TO.N,C4*%
X0Y11100000D03*
%TD*%
D11*
%TO.P,D2,1*%
%TO.N,R1*%
X2900000Y14400000D03*
%TO.P,D2,2*%
%TO.N,C4_R1D*%
X4300000Y14400000D03*
%TD*%
D12*
%TO.P,ROT1,A*%
%TO.N,P2*%
X69460000Y32380000D03*
D13*
%TO.P,ROT1,C*%
%TO.N,GND*%
X71960000Y32380000D03*
%TO.P,ROT1,B*%
%TO.N,P3*%
X74460000Y32380000D03*
D14*
%TO.P,ROT1,1*%
%TO.N,C0*%
X69460000Y46880000D03*
%TO.P,ROT1,2*%
%TO.N,C0_R3D*%
X74460000Y46880000D03*
D15*
%TO.P,ROT1,*%
%TO.N,*%
X77500000Y40000000D03*
X66500000Y40000000D03*
D10*
%TO.P,ROT1,1*%
%TO.N,C0_R3D*%
X77000000Y43800000D03*
%TO.P,ROT1,2*%
%TO.N,C0*%
X72000000Y45900000D03*
%TD*%
D11*
%TO.P,D3,1*%
%TO.N,R3*%
X76700000Y37000000D03*
%TO.P,D3,2*%
%TO.N,C0_R3D*%
X75300000Y37000000D03*
%TD*%
D16*
%TO.P,SS1,1*%
%TO.N,RAW*%
X54000000Y15250000D03*
%TO.P,SS1,2*%
%TO.N,BSLI*%
X51500000Y21250000D03*
%TO.P,SS1,3*%
%TO.N,three*%
X49000000Y15250000D03*
%TD*%
D17*
%TO.P,SB1,1*%
%TO.N,GND*%
X58500000Y15750000D03*
D18*
%TO.P,SB1,2*%
%TO.N,RST*%
X58500000Y19250000D03*
%TD*%
D19*
%TO.P,MCU1,1*%
%TO.N,RAW*%
X-7620000Y37470000D03*
D20*
%TO.P,MCU1,2*%
%TO.N,GND*%
X-7620000Y34930000D03*
%TO.P,MCU1,3*%
%TO.N,RST*%
X-7620000Y32390000D03*
%TO.P,MCU1,4*%
%TO.N,VCC*%
X-7620000Y29850000D03*
%TO.P,MCU1,5*%
%TO.N,C0*%
X-7620000Y27310000D03*
%TO.P,MCU1,6*%
%TO.N,C1*%
X-7620000Y24770000D03*
%TO.P,MCU1,7*%
%TO.N,C2*%
X-7620000Y22230000D03*
%TO.P,MCU1,8*%
%TO.N,C3*%
X-7620000Y19690000D03*
%TO.P,MCU1,9*%
%TO.N,C4*%
X-7620000Y17150000D03*
%TO.P,MCU1,10*%
%TO.N,C5*%
X-7620000Y14610000D03*
%TO.P,MCU1,11*%
%TO.N,C6*%
X-7620000Y12070000D03*
%TO.P,MCU1,12*%
%TO.N,P10*%
X-7620000Y9530000D03*
%TO.P,MCU1,13*%
%TO.N,P1*%
X7620000Y37470000D03*
%TO.P,MCU1,14*%
%TO.N,P0*%
X7620000Y34930000D03*
%TO.P,MCU1,15*%
%TO.N,GND*%
X7620000Y32390000D03*
%TO.P,MCU1,16*%
X7620000Y29850000D03*
%TO.P,MCU1,17*%
%TO.N,P2*%
X7620000Y27310000D03*
%TO.P,MCU1,18*%
%TO.N,P3*%
X7620000Y24770000D03*
%TO.P,MCU1,19*%
%TO.N,R0*%
X7620000Y22230000D03*
%TO.P,MCU1,20*%
%TO.N,R1*%
X7620000Y19690000D03*
%TO.P,MCU1,21*%
%TO.N,R2*%
X7620000Y17150000D03*
%TO.P,MCU1,22*%
%TO.N,R3*%
X7620000Y14610000D03*
%TO.P,MCU1,23*%
%TO.N,P8*%
X7620000Y12070000D03*
%TO.P,MCU1,24*%
%TO.N,P9*%
X7620000Y9530000D03*
%TD*%
D21*
%TO.P,JB1,2*%
%TO.N,BSLI*%
X60000000Y2500000D03*
%TO.P,JB1,1*%
%TO.N,GND*%
X60000000Y1500000D03*
D22*
%TO.P,JB1,MP*%
%TO.N,N/C*%
X56125000Y3800000D03*
X56125000Y200000D03*
%TD*%
D21*
%TO.P,JC1,5*%
%TO.N,R2*%
X42000000Y22500000D03*
%TO.P,JC1,4*%
%TO.N,R1*%
X42000000Y21500000D03*
%TO.P,JC1,3*%
%TO.N,R0*%
X42000000Y20500000D03*
%TO.P,JC1,2*%
%TO.N,C6*%
X42000000Y19500000D03*
%TO.P,JC1,1*%
%TO.N,C5*%
X42000000Y18500000D03*
D22*
%TO.P,JC1,MP*%
%TO.N,N/C*%
X38125000Y17200000D03*
X38125000Y23800000D03*
%TD*%
D23*
%TO.P,S3,1*%
%TO.N,C0_R0D*%
X75275000Y17050000D03*
%TO.P,S3,2*%
%TO.N,C0*%
X63725000Y19250000D03*
D24*
%TO.P,S3,3*%
%TO.N,C0_R0D*%
X75275000Y17050000D03*
%TO.P,S3,4*%
%TO.N,C0*%
X63725000Y19250000D03*
%TD*%
D11*
%TO.P,D4,1*%
%TO.N,R0*%
X74900000Y20400000D03*
%TO.P,D4,2*%
%TO.N,C0_R0D*%
X76300000Y20400000D03*
%TD*%
D23*
%TO.P,S4,1*%
%TO.N,C0_R1D*%
X75275000Y50000D03*
%TO.P,S4,2*%
%TO.N,C0*%
X63725000Y2250000D03*
D24*
%TO.P,S4,3*%
%TO.N,C0_R1D*%
X75275000Y50000D03*
%TO.P,S4,4*%
%TO.N,C0*%
X63725000Y2250000D03*
%TD*%
D11*
%TO.P,D5,1*%
%TO.N,R1*%
X74900000Y3400000D03*
%TO.P,D5,2*%
%TO.N,C0_R1D*%
X76300000Y3400000D03*
%TD*%
D23*
%TO.P,S5,1*%
%TO.N,C0_R2D*%
X75275000Y-16950000D03*
%TO.P,S5,2*%
%TO.N,C0*%
X63725000Y-14750000D03*
D24*
%TO.P,S5,3*%
%TO.N,C0_R2D*%
X75275000Y-16950000D03*
%TO.P,S5,4*%
%TO.N,C0*%
X63725000Y-14750000D03*
%TD*%
D11*
%TO.P,D6,1*%
%TO.N,R2*%
X74900000Y-13600000D03*
%TO.P,D6,2*%
%TO.N,C0_R2D*%
X76300000Y-13600000D03*
%TD*%
D23*
%TO.P,S6,1*%
%TO.N,C1_R0D*%
X50725000Y45950000D03*
%TO.P,S6,2*%
%TO.N,C1*%
X62275000Y43750000D03*
D24*
%TO.P,S6,3*%
%TO.N,C1_R0D*%
X50725000Y45950000D03*
%TO.P,S6,4*%
%TO.N,C1*%
X62275000Y43750000D03*
%TD*%
D11*
%TO.P,D7,1*%
%TO.N,R0*%
X51100000Y42600000D03*
%TO.P,D7,2*%
%TO.N,C1_R0D*%
X49700000Y42600000D03*
%TD*%
D23*
%TO.P,S7,1*%
%TO.N,C1_R1D*%
X50725000Y28950000D03*
%TO.P,S7,2*%
%TO.N,C1*%
X62275000Y26750000D03*
D24*
%TO.P,S7,3*%
%TO.N,C1_R1D*%
X50725000Y28950000D03*
%TO.P,S7,4*%
%TO.N,C1*%
X62275000Y26750000D03*
%TD*%
D11*
%TO.P,D8,1*%
%TO.N,R1*%
X51100000Y25600000D03*
%TO.P,D8,2*%
%TO.N,C1_R1D*%
X49700000Y25600000D03*
%TD*%
D23*
%TO.P,S8,1*%
%TO.N,C1_R2D*%
X50725000Y11950000D03*
%TO.P,S8,2*%
%TO.N,C1*%
X62275000Y9750000D03*
D24*
%TO.P,S8,3*%
%TO.N,C1_R2D*%
X50725000Y11950000D03*
%TO.P,S8,4*%
%TO.N,C1*%
X62275000Y9750000D03*
%TD*%
D11*
%TO.P,D9,1*%
%TO.N,R2*%
X51100000Y8600000D03*
%TO.P,D9,2*%
%TO.N,C1_R2D*%
X49700000Y8600000D03*
%TD*%
D23*
%TO.P,S9,1*%
%TO.N,C2_R0D*%
X32725000Y48950000D03*
%TO.P,S9,2*%
%TO.N,C2*%
X44275000Y46750000D03*
D24*
%TO.P,S9,3*%
%TO.N,C2_R0D*%
X32725000Y48950000D03*
%TO.P,S9,4*%
%TO.N,C2*%
X44275000Y46750000D03*
%TD*%
D11*
%TO.P,D10,1*%
%TO.N,R0*%
X33100000Y45600000D03*
%TO.P,D10,2*%
%TO.N,C2_R0D*%
X31700000Y45600000D03*
%TD*%
D23*
%TO.P,S10,1*%
%TO.N,C2_R1D*%
X32725000Y31950000D03*
%TO.P,S10,2*%
%TO.N,C2*%
X44275000Y29750000D03*
D24*
%TO.P,S10,3*%
%TO.N,C2_R1D*%
X32725000Y31950000D03*
%TO.P,S10,4*%
%TO.N,C2*%
X44275000Y29750000D03*
%TD*%
D11*
%TO.P,D11,1*%
%TO.N,R1*%
X33100000Y28600000D03*
%TO.P,D11,2*%
%TO.N,C2_R1D*%
X31700000Y28600000D03*
%TD*%
D23*
%TO.P,S11,1*%
%TO.N,C2_R2D*%
X32725000Y14950000D03*
%TO.P,S11,2*%
%TO.N,C2*%
X44275000Y12750000D03*
D24*
%TO.P,S11,3*%
%TO.N,C2_R2D*%
X32725000Y14950000D03*
%TO.P,S11,4*%
%TO.N,C2*%
X44275000Y12750000D03*
%TD*%
D11*
%TO.P,D12,1*%
%TO.N,R2*%
X33100000Y11600000D03*
%TO.P,D12,2*%
%TO.N,C2_R2D*%
X31700000Y11600000D03*
%TD*%
D23*
%TO.P,S12,1*%
%TO.N,C3_R0D*%
X14725000Y42950000D03*
%TO.P,S12,2*%
%TO.N,C3*%
X26275000Y40750000D03*
D24*
%TO.P,S12,3*%
%TO.N,C3_R0D*%
X14725000Y42950000D03*
%TO.P,S12,4*%
%TO.N,C3*%
X26275000Y40750000D03*
%TD*%
D11*
%TO.P,D13,1*%
%TO.N,R0*%
X15100000Y39600000D03*
%TO.P,D13,2*%
%TO.N,C3_R0D*%
X13700000Y39600000D03*
%TD*%
D23*
%TO.P,S13,1*%
%TO.N,C3_R1D*%
X14725000Y25950000D03*
%TO.P,S13,2*%
%TO.N,C3*%
X26275000Y23750000D03*
D24*
%TO.P,S13,3*%
%TO.N,C3_R1D*%
X14725000Y25950000D03*
%TO.P,S13,4*%
%TO.N,C3*%
X26275000Y23750000D03*
%TD*%
D11*
%TO.P,D14,1*%
%TO.N,R1*%
X15100000Y22600000D03*
%TO.P,D14,2*%
%TO.N,C3_R1D*%
X13700000Y22600000D03*
%TD*%
D23*
%TO.P,S14,1*%
%TO.N,C3_R2D*%
X14725000Y8950000D03*
%TO.P,S14,2*%
%TO.N,C3*%
X26275000Y6750000D03*
D24*
%TO.P,S14,3*%
%TO.N,C3_R2D*%
X14725000Y8950000D03*
%TO.P,S14,4*%
%TO.N,C3*%
X26275000Y6750000D03*
%TD*%
D11*
%TO.P,D15,1*%
%TO.N,R2*%
X15100000Y5600000D03*
%TO.P,D15,2*%
%TO.N,C3_R2D*%
X13700000Y5600000D03*
%TD*%
D23*
%TO.P,S15,1*%
%TO.N,C4_R2D*%
X3275000Y-5950000D03*
%TO.P,S15,2*%
%TO.N,C4*%
X-8275000Y-3750000D03*
D24*
%TO.P,S15,3*%
%TO.N,C4_R2D*%
X3275000Y-5950000D03*
%TO.P,S15,4*%
%TO.N,C4*%
X-8275000Y-3750000D03*
%TD*%
D11*
%TO.P,D16,1*%
%TO.N,R2*%
X2900000Y-2600000D03*
%TO.P,D16,2*%
%TO.N,C4_R2D*%
X4300000Y-2600000D03*
%TD*%
D25*
%TO.N,C4*%
X-2100000Y19400000D03*
X-100000Y2800000D03*
X-8200000Y2800000D03*
%TO.N,R0*%
X2800000Y39000000D03*
X73800000Y20300000D03*
X39000000Y41200000D03*
X39000000Y20500000D03*
X74800000Y41800000D03*
X3000000Y22100000D03*
X3000000Y30000000D03*
%TO.N,R1*%
X1800000Y14100000D03*
X39024500Y28900000D03*
X40300000Y25000000D03*
X69800000Y3400000D03*
X15000000Y19000000D03*
X3000000Y19700000D03*
X16600000Y23000000D03*
X39900000Y21600000D03*
X69200000Y24700000D03*
%TO.N,C0*%
X64475000Y36100000D03*
X64400000Y45900000D03*
X-8800000Y35900000D03*
%TO.N,P2*%
X30500000Y37300000D03*
X29200000Y29900000D03*
%TO.N,P3*%
X40000000Y32500000D03*
X9300000Y32200000D03*
X39900000Y35100000D03*
%TO.N,R3*%
X9700000Y-3200000D03*
X9600000Y14600000D03*
X77700000Y37000000D03*
X77700000Y7800000D03*
%TO.N,RAW*%
X48200000Y44000000D03*
X52400000Y15100000D03*
%TO.N,BSLI*%
X61600000Y2600000D03*
X60400000Y20900000D03*
%TO.N,RST*%
X57000000Y19200000D03*
X58400000Y35800000D03*
%TO.N,C1*%
X60500000Y34300000D03*
X-4800000Y31910500D03*
%TO.N,C2*%
X12600000Y24000000D03*
X14900000Y27900000D03*
%TO.N,C5*%
X30400000Y16000000D03*
X30500000Y18300000D03*
%TO.N,C6*%
X38100000Y10500000D03*
X39100000Y19300000D03*
%TO.N,R2*%
X15600000Y17100000D03*
X44999500Y22500000D03*
X15600000Y11600000D03*
X74800000Y-12600000D03*
X15200000Y-1700000D03*
X75100000Y7600000D03*
X45000000Y10225900D03*
X16400000Y5500000D03*
%TD*%
D26*
%TO.N,C1*%
X52388046Y31750000D02*
X46161396Y31750000D01*
X1500000Y31400000D02*
X-4289500Y31400000D01*
X59000000Y32800000D02*
X53438046Y32800000D01*
X46161396Y31750000D02*
X46086396Y31825000D01*
X60500000Y34300000D02*
X59000000Y32800000D01*
X2400000Y32300000D02*
X1500000Y31400000D01*
X53438046Y32800000D02*
X52388046Y31750000D01*
X6011105Y32300000D02*
X2400000Y32300000D01*
X43675000Y31825000D02*
X41675000Y33825000D01*
X7122405Y31188700D02*
X6011105Y32300000D01*
X29275000Y31750000D02*
X9875305Y31750000D01*
X41675000Y33825000D02*
X31350000Y33825000D01*
X9875305Y31750000D02*
X9314005Y31188700D01*
X46086396Y31825000D02*
X43675000Y31825000D01*
X31350000Y33825000D02*
X29275000Y31750000D01*
X9314005Y31188700D02*
X7122405Y31188700D01*
X-4289500Y31400000D02*
X-4800000Y31910500D01*
%TO.N,C4*%
X-2100000Y19400000D02*
X-5370000Y19400000D01*
X-5370000Y19400000D02*
X-7620000Y17150000D01*
X-100000Y2800000D02*
X-8200000Y2800000D01*
%TO.N,C4_R0D*%
X825000Y29275000D02*
X-100000Y30200000D01*
X-100000Y30200000D02*
X-5000000Y30200000D01*
X4300000Y29900000D02*
X3675000Y29275000D01*
X3675000Y29275000D02*
X825000Y29275000D01*
X4300000Y31400000D02*
X4300000Y29900000D01*
%TO.N,R0*%
X47966316Y41200000D02*
X39000000Y41200000D01*
X31819101Y44225900D02*
X33100000Y42945001D01*
X57498350Y42600000D02*
X58223350Y41875000D01*
X2900000Y31400000D02*
X2900000Y30100000D01*
X14425000Y38925000D02*
X2875000Y38925000D01*
X73800000Y20300000D02*
X74800000Y20300000D01*
X70920001Y41875000D02*
X71134501Y42089500D01*
X19198350Y39600000D02*
X23824250Y44225900D01*
X33100000Y42945001D02*
X35134501Y40910500D01*
X74800000Y20300000D02*
X74900000Y20400000D01*
X2875000Y38925000D02*
X2800000Y39000000D01*
X15100000Y39600000D02*
X19198350Y39600000D01*
X51100000Y42600000D02*
X50425000Y41925000D01*
X48691316Y41925000D02*
X47966316Y41200000D01*
X35134501Y40910500D02*
X38710500Y40910500D01*
X15100000Y39600000D02*
X14425000Y38925000D01*
X51100000Y42600000D02*
X57498350Y42600000D01*
X58223350Y41875000D02*
X70920001Y41875000D01*
X71134501Y42089500D02*
X74510500Y42089500D01*
X23824250Y44225900D02*
X31819101Y44225900D01*
X38710500Y40910500D02*
X39000000Y41200000D01*
X33100000Y45600000D02*
X33100000Y42945001D01*
X2900000Y30100000D02*
X3000000Y30000000D01*
X74510500Y42089500D02*
X74800000Y41800000D01*
X39000000Y20500000D02*
X42000000Y20500000D01*
X3000000Y22100000D02*
X3130000Y22230000D01*
X50425000Y41925000D02*
X48691316Y41925000D01*
X3130000Y22230000D02*
X7620000Y22230000D01*
%TO.N,C4_R1D*%
X3100000Y13200000D02*
X4300000Y14400000D01*
X-5000000Y13200000D02*
X3100000Y13200000D01*
%TO.N,R1*%
X16600000Y23000000D02*
X19598350Y23000000D01*
X54354999Y25600000D02*
X51100000Y25600000D01*
X7620000Y19690000D02*
X8535900Y18774100D01*
X38724500Y28600000D02*
X33100000Y28600000D01*
X40525900Y24774100D02*
X40300000Y25000000D01*
X33400000Y27000000D02*
X33400000Y25645001D01*
X14774100Y18774100D02*
X15000000Y19000000D01*
X8535900Y18774100D02*
X14774100Y18774100D01*
X41900000Y21600000D02*
X42000000Y21500000D01*
X19598350Y23000000D02*
X23824250Y27225900D01*
X23824250Y27225900D02*
X33174100Y27225900D01*
X7620000Y19690000D02*
X3010000Y19690000D01*
X69200000Y24700000D02*
X55254999Y24700000D01*
X51100000Y25600000D02*
X50274100Y24774100D01*
X15100000Y22600000D02*
X16200000Y22600000D01*
X1800000Y14100000D02*
X2600000Y14100000D01*
X37445001Y21600000D02*
X39900000Y21600000D01*
X16200000Y22600000D02*
X16600000Y23000000D01*
X50274100Y24774100D02*
X40525900Y24774100D01*
X39900000Y21600000D02*
X41900000Y21600000D01*
X33400000Y25645001D02*
X37445001Y21600000D01*
X39024500Y28900000D02*
X38724500Y28600000D01*
X3010000Y19690000D02*
X3000000Y19700000D01*
X55254999Y24700000D02*
X54354999Y25600000D01*
X74900000Y3400000D02*
X69800000Y3400000D01*
X2600000Y14100000D02*
X2900000Y14400000D01*
X33174100Y27225900D02*
X33400000Y27000000D01*
%TO.N,C0*%
X55691395Y38100000D02*
X55051895Y37460500D01*
X72000000Y45900000D02*
X64400000Y45900000D01*
X55051895Y37460500D02*
X52948105Y37460500D01*
X69460000Y46880000D02*
X71020000Y46880000D01*
X52308605Y38100000D02*
X43000000Y38100000D01*
X-8568700Y36131300D02*
X-8800000Y35900000D01*
X41400000Y36500000D02*
X24733684Y36500000D01*
X64475000Y36100000D02*
X62475000Y38100000D01*
X62475000Y38100000D02*
X55691395Y38100000D01*
X23144184Y34910500D02*
X9338395Y34910500D01*
X71020000Y46880000D02*
X72000000Y45900000D01*
X8117595Y36131300D02*
X-8568700Y36131300D01*
X24733684Y36500000D02*
X23144184Y34910500D01*
X52948105Y37460500D02*
X52308605Y38100000D01*
X43000000Y38100000D02*
X41400000Y36500000D01*
X9338395Y34910500D02*
X8117595Y36131300D01*
%TO.N,C0_R3D*%
X74460000Y46880000D02*
X77000000Y44340000D01*
X77000000Y44340000D02*
X77000000Y43800000D01*
X77000000Y41870081D02*
X77000000Y43800000D01*
X75300000Y40170081D02*
X77000000Y41870081D01*
X75300000Y37000000D02*
X75300000Y40170081D01*
%TO.N,P2*%
X27800000Y31300000D02*
X29200000Y29900000D01*
X31800000Y38600000D02*
X52445001Y38600000D01*
X8117595Y28648700D02*
X8821300Y29352405D01*
X7620000Y27310000D02*
X7620000Y28620000D01*
X55554999Y38600000D02*
X63240000Y38600000D01*
X53134501Y37910500D02*
X54865499Y37910500D01*
X7620000Y28620000D02*
X7648700Y28648700D01*
X8821300Y29352405D02*
X8821300Y29821300D01*
X54865499Y37910500D02*
X55554999Y38600000D01*
X52445001Y38600000D02*
X53134501Y37910500D01*
X7648700Y28648700D02*
X8117595Y28648700D01*
X8821300Y29821300D02*
X10300000Y31300000D01*
X30500000Y37300000D02*
X31800000Y38600000D01*
X63240000Y38600000D02*
X69460000Y32380000D01*
X10300000Y31300000D02*
X27800000Y31300000D01*
%TO.N,P3*%
X45975000Y31300000D02*
X45900000Y31375000D01*
X31336396Y35100000D02*
X28436396Y32200000D01*
X70705000Y28625000D02*
X56976650Y28625000D01*
X28436396Y32200000D02*
X9300000Y32200000D01*
X40901650Y32500000D02*
X40000000Y32500000D01*
X74460000Y32380000D02*
X70705000Y28625000D01*
X42026650Y31375000D02*
X40901650Y32500000D01*
X39900000Y35100000D02*
X31336396Y35100000D01*
X56976650Y28625000D02*
X54301650Y31300000D01*
X45900000Y31375000D02*
X42026650Y31375000D01*
X54301650Y31300000D02*
X45975000Y31300000D01*
%TO.N,R3*%
X77700000Y37000000D02*
X76700000Y37000000D01*
X60253249Y4200000D02*
X70845001Y4200000D01*
X31300000Y3300000D02*
X54811827Y3300000D01*
X9590000Y14610000D02*
X9600000Y14600000D01*
X58928249Y2875000D02*
X60253249Y4200000D01*
X77566316Y7800000D02*
X77700000Y7800000D01*
X7620000Y14610000D02*
X9590000Y14610000D01*
X71134501Y3910500D02*
X73676816Y3910500D01*
X70845001Y4200000D02*
X71134501Y3910500D01*
X54811827Y3300000D02*
X55236827Y2875000D01*
X55236827Y2875000D02*
X58928249Y2875000D01*
X73676816Y3910500D02*
X77566316Y7800000D01*
X24800000Y-3200000D02*
X31300000Y3300000D01*
X9700000Y-3200000D02*
X24800000Y-3200000D01*
%TO.N,RAW*%
X35679999Y46275000D02*
X37729099Y44225900D01*
X37729099Y44225900D02*
X47974100Y44225900D01*
X52400000Y15100000D02*
X53850000Y15100000D01*
X32475000Y44925000D02*
X32475000Y46275000D01*
X47974100Y44225900D02*
X48200000Y44000000D01*
X-7620000Y37470000D02*
X-5365000Y39725000D01*
X-5365000Y39725000D02*
X8250000Y39725000D01*
X53850000Y15100000D02*
X54000000Y15250000D01*
X8250000Y39725000D02*
X13450000Y44925000D01*
X32475000Y46275000D02*
X35679999Y46275000D01*
X13450000Y44925000D02*
X32475000Y44925000D01*
%TO.N,BSLI*%
X61600000Y2600000D02*
X60100000Y2600000D01*
X51850000Y20900000D02*
X60400000Y20900000D01*
X51500000Y21250000D02*
X51850000Y20900000D01*
X60100000Y2600000D02*
X60000000Y2500000D01*
%TO.N,RST*%
X58450000Y19200000D02*
X58500000Y19250000D01*
X1374104Y31910500D02*
X2237704Y32774100D01*
X43300000Y37600000D02*
X52172209Y37600000D01*
X-7374500Y32635500D02*
X-1590499Y32635500D01*
X-7620000Y32390000D02*
X-7374500Y32635500D01*
X31650000Y36050000D02*
X41750000Y36050000D01*
X6274100Y32774100D02*
X7100000Y33600000D01*
X52761709Y37010500D02*
X55238291Y37010500D01*
X29200000Y33600000D02*
X31650000Y36050000D01*
X41750000Y36050000D02*
X43300000Y37600000D01*
X52172209Y37600000D02*
X52761709Y37010500D01*
X7100000Y33600000D02*
X29200000Y33600000D01*
X-865499Y31910500D02*
X1374104Y31910500D01*
X55238291Y37010500D02*
X55827791Y37600000D01*
X57000000Y19200000D02*
X58450000Y19200000D01*
X55827791Y37600000D02*
X56600000Y37600000D01*
X56600000Y37600000D02*
X58400000Y35800000D01*
X-1590499Y32635500D02*
X-865499Y31910500D01*
X2237704Y32774100D02*
X6274100Y32774100D01*
%TO.N,C2*%
X14900000Y27900000D02*
X34945001Y27900000D01*
X34945001Y27900000D02*
X35145001Y28100000D01*
X-6281300Y23568700D02*
X9093700Y23568700D01*
X40223350Y27875000D02*
X42400000Y27875000D01*
X42400000Y27875000D02*
X44275000Y29750000D01*
X9093700Y23568700D02*
X12168700Y23568700D01*
X39998350Y28100000D02*
X40223350Y27875000D01*
X12168700Y23568700D02*
X12600000Y24000000D01*
X35145001Y28100000D02*
X39998350Y28100000D01*
X-7620000Y22230000D02*
X-6281300Y23568700D01*
%TO.N,C3*%
X22008850Y22089500D02*
X22223350Y21875000D01*
X-7620000Y19690000D02*
X-6418700Y20891300D01*
X17134501Y22089500D02*
X22008850Y22089500D01*
X-6418700Y20891300D02*
X11008700Y20891300D01*
X22223350Y21875000D02*
X24400000Y21875000D01*
X11008700Y20891300D02*
X11844900Y21727500D01*
X11844900Y21727500D02*
X16772501Y21727500D01*
X16772501Y21727500D02*
X17134501Y22089500D01*
X24400000Y21875000D02*
X26275000Y23750000D01*
%TO.N,C5*%
X30211300Y15811300D02*
X30400000Y16000000D01*
X-7405000Y14825000D02*
X1825000Y14825000D01*
X30500000Y18300000D02*
X41800000Y18300000D01*
X5456105Y15075000D02*
X6192405Y15811300D01*
X-7620000Y14610000D02*
X-7405000Y14825000D01*
X41800000Y18300000D02*
X42000000Y18500000D01*
X1825000Y14825000D02*
X2075000Y15075000D01*
X6192405Y15811300D02*
X30211300Y15811300D01*
X2075000Y15075000D02*
X5456105Y15075000D01*
%TO.N,C6*%
X41800000Y19300000D02*
X42000000Y19500000D01*
X6125000Y10825000D02*
X5059000Y9759000D01*
X34952101Y11089500D02*
X33962601Y10100000D01*
X37510500Y11089500D02*
X34952101Y11089500D01*
X-5309000Y9759000D02*
X-7620000Y12070000D01*
X39100000Y19300000D02*
X41800000Y19300000D01*
X5059000Y9759000D02*
X-5309000Y9759000D01*
X33962601Y10100000D02*
X31133684Y10100000D01*
X30408684Y10825000D02*
X6125000Y10825000D01*
X31133684Y10100000D02*
X30408684Y10825000D01*
X38100000Y10500000D02*
X37510500Y11089500D01*
%TO.N,R2*%
X45000000Y10225900D02*
X46774100Y10225900D01*
X15550000Y17150000D02*
X15600000Y17100000D01*
X16400000Y5500000D02*
X15200000Y5500000D01*
X7620000Y17150000D02*
X15550000Y17150000D01*
X30400000Y11600000D02*
X15600000Y11600000D01*
X54354999Y8600000D02*
X55127499Y7827500D01*
X46774100Y10225900D02*
X49075000Y7925000D01*
X51100000Y8600000D02*
X54354999Y8600000D01*
X55127499Y7827500D02*
X70872501Y7827500D01*
X74800000Y-13500000D02*
X74900000Y-13600000D01*
X74800000Y-12600000D02*
X74800000Y-13500000D01*
X15200000Y5500000D02*
X15100000Y5600000D01*
X33100000Y11600000D02*
X39498350Y11600000D01*
X40872450Y10225900D02*
X45000000Y10225900D01*
X32425000Y10925000D02*
X31075000Y10925000D01*
X70872501Y7827500D02*
X71134501Y8089500D01*
X31075000Y10925000D02*
X30400000Y11600000D01*
X39498350Y11600000D02*
X40872450Y10225900D01*
X49075000Y7925000D02*
X50425000Y7925000D01*
X74610500Y8089500D02*
X75100000Y7600000D01*
X3800000Y-1700000D02*
X15200000Y-1700000D01*
X33100000Y11600000D02*
X32425000Y10925000D01*
X2900000Y-2600000D02*
X3800000Y-1700000D01*
X42000000Y22500000D02*
X44999500Y22500000D01*
X71134501Y8089500D02*
X74610500Y8089500D01*
X50425000Y7925000D02*
X51100000Y8600000D01*
%TO.N,C0_R0D*%
X76300000Y20400000D02*
X76300000Y18075000D01*
X76300000Y18075000D02*
X75275000Y17050000D01*
%TO.N,C0_R1D*%
X76300000Y3400000D02*
X76300000Y1075000D01*
X76300000Y1075000D02*
X75275000Y50000D01*
%TO.N,C0_R2D*%
X75275000Y-14625000D02*
X76300000Y-13600000D01*
X75275000Y-16950000D02*
X75275000Y-14625000D01*
%TO.N,C1_R0D*%
X49700000Y42600000D02*
X49700000Y44925000D01*
X49700000Y44925000D02*
X50725000Y45950000D01*
%TO.N,C1_R1D*%
X49700000Y25600000D02*
X49700000Y27925000D01*
X49700000Y27925000D02*
X50725000Y28950000D01*
%TO.N,C1_R2D*%
X49700000Y10925000D02*
X50725000Y11950000D01*
X49700000Y8600000D02*
X49700000Y10925000D01*
%TO.N,C2_R0D*%
X31700000Y45600000D02*
X31700000Y47925000D01*
X31700000Y47925000D02*
X32725000Y48950000D01*
%TO.N,C2_R1D*%
X31700000Y30925000D02*
X32725000Y31950000D01*
X31700000Y28600000D02*
X31700000Y30925000D01*
%TO.N,C2_R2D*%
X31700000Y11600000D02*
X31700000Y13925000D01*
X31700000Y13925000D02*
X32725000Y14950000D01*
%TO.N,C3_R0D*%
X13700000Y41925000D02*
X14725000Y42950000D01*
X13700000Y39600000D02*
X13700000Y41925000D01*
%TO.N,C3_R1D*%
X13700000Y22600000D02*
X13700000Y24925000D01*
X13700000Y24925000D02*
X14725000Y25950000D01*
%TO.N,C3_R2D*%
X13700000Y5600000D02*
X13700000Y7925000D01*
X13700000Y7925000D02*
X14725000Y8950000D01*
%TO.N,C4_R2D*%
X3275000Y-3625000D02*
X4300000Y-2600000D01*
X3275000Y-5950000D02*
X3275000Y-3625000D01*
%TD*%
%TA.AperFunction,Conductor*%
%TO.N,GND*%
G36*
X12821273Y45404815D02*
G01*
X12867028Y45352011D01*
X12876972Y45282853D01*
X12847947Y45219297D01*
X12841915Y45212819D01*
X10422586Y42793491D01*
X8023914Y40394819D01*
X7962591Y40361334D01*
X7936233Y40358500D01*
X-5281368Y40358500D01*
X-5297119Y40360239D01*
X-5297145Y40359968D01*
X-5304901Y40360700D01*
X-5304908Y40360702D01*
X-5374971Y40358500D01*
X-5404857Y40358500D01*
X-5405875Y40358371D01*
X-5411858Y40357614D01*
X-5417674Y40357157D01*
X-5464889Y40355674D01*
X-5484505Y40349974D01*
X-5503533Y40346033D01*
X-5523797Y40343474D01*
X-5567713Y40326086D01*
X-5573227Y40324199D01*
X-5587283Y40320115D01*
X-5618593Y40311019D01*
X-5636176Y40300619D01*
X-5653639Y40292065D01*
X-5672617Y40284552D01*
X-5710847Y40256775D01*
X-5715687Y40253596D01*
X-5756362Y40229542D01*
X-5770803Y40215099D01*
X-5785586Y40202474D01*
X-5802107Y40190472D01*
X-5832222Y40154067D01*
X-5836126Y40149776D01*
X-6945457Y39040448D01*
X-7094786Y38891119D01*
X-7156109Y38857634D01*
X-7182467Y38854800D01*
X-8544938Y38854800D01*
X-8544954Y38854799D01*
X-8571992Y38851891D01*
X-8605501Y38848289D01*
X-8742504Y38797189D01*
X-8859561Y38709561D01*
X-8947189Y38592504D01*
X-8998289Y38455501D01*
X-9000840Y38431773D01*
X-9004799Y38394954D01*
X-9004800Y38394937D01*
X-9004800Y36883820D01*
X-9024485Y36816781D01*
X-9077289Y36771026D01*
X-9078365Y36770540D01*
X-9082285Y36768794D01*
X-9082288Y36768794D01*
X-9256752Y36691118D01*
X-9411253Y36578866D01*
X-9539040Y36436944D01*
X-9634527Y36271556D01*
X-9693542Y36089928D01*
X-9713504Y35900000D01*
X-9693542Y35710072D01*
X-9634527Y35528444D01*
X-9539040Y35363056D01*
X-9411253Y35221134D01*
X-9256752Y35108882D01*
X-9082288Y35031206D01*
X-9082286Y35031205D01*
X-8895487Y34991500D01*
X-8704513Y34991500D01*
X-8517714Y35031205D01*
X-8363200Y35099999D01*
X-8343248Y35108882D01*
X-8343247Y35108882D01*
X-8343246Y35108883D01*
X-8188745Y35221135D01*
X-8060959Y35363057D01*
X-8018961Y35435800D01*
X-7968394Y35484016D01*
X-7911574Y35497800D01*
X-1580380Y35497800D01*
X-1513341Y35478115D01*
X-1467586Y35425311D01*
X-1457642Y35356153D01*
X-1486191Y35293637D01*
X-1486187Y35293634D01*
X-1486201Y35293614D01*
X-1486665Y35292600D01*
X-1488841Y35290088D01*
X-1657285Y35065073D01*
X-1791992Y34818375D01*
X-1890219Y34555018D01*
X-1949967Y34280363D01*
X-1970019Y34000000D01*
X-1949967Y33719637D01*
X-1899839Y33489202D01*
X-1890220Y33444987D01*
X-1890220Y33444985D01*
X-1886992Y33436330D01*
X-1882010Y33366639D01*
X-1915496Y33305316D01*
X-1976820Y33271833D01*
X-2003175Y33269000D01*
X-4435481Y33269000D01*
X-4502520Y33288685D01*
X-4548275Y33341489D01*
X-4558219Y33410647D01*
X-4542868Y33455000D01*
X-4493574Y33540379D01*
X-4424779Y33739148D01*
X-4424778Y33739155D01*
X-4424188Y33743260D01*
X-4394843Y33947355D01*
X-4404852Y34157459D01*
X-4454442Y34361871D01*
X-4531675Y34530989D01*
X-4541820Y34553204D01*
X-4541824Y34553210D01*
X-4663826Y34724539D01*
X-4663832Y34724545D01*
X-4816060Y34869694D01*
X-4816063Y34869697D01*
X-4993014Y34983416D01*
X-5188288Y35061593D01*
X-5343193Y35091448D01*
X-5394828Y35101400D01*
X-5394829Y35101400D01*
X-5552468Y35101400D01*
X-5709389Y35086416D01*
X-5911211Y35027156D01*
X-6098170Y34930771D01*
X-6263510Y34800747D01*
X-6401255Y34641781D01*
X-6506426Y34459619D01*
X-6575222Y34260846D01*
X-6605157Y34052645D01*
X-6595148Y33842541D01*
X-6545558Y33638129D01*
X-6522072Y33586703D01*
X-6512130Y33517546D01*
X-6541155Y33453991D01*
X-6599934Y33416217D01*
X-6669803Y33416217D01*
X-6711029Y33437340D01*
X-6834137Y33533159D01*
X-6859987Y33553279D01*
X-6859992Y33553282D01*
X-6954040Y33604178D01*
X-7061826Y33662509D01*
X-7278887Y33737026D01*
X-7505252Y33774800D01*
X-7734748Y33774800D01*
X-7961113Y33737026D01*
X-8178174Y33662509D01*
X-8380010Y33553281D01*
X-8561114Y33412322D01*
X-8716547Y33243477D01*
X-8842069Y33051351D01*
X-8934257Y32841185D01*
X-8990594Y32618712D01*
X-8994502Y32571549D01*
X-9009546Y32390005D01*
X-9009546Y32389994D01*
X-8999596Y32269927D01*
X-8990594Y32161288D01*
X-8934257Y31938815D01*
X-8863329Y31777117D01*
X-8842069Y31728649D01*
X-8716549Y31536525D01*
X-8716547Y31536523D01*
X-8561114Y31367678D01*
X-8503933Y31323172D01*
X-8380012Y31226720D01*
X-8375718Y31223915D01*
X-8377095Y31221805D01*
X-8334861Y31180063D01*
X-8319609Y31111879D01*
X-8343642Y31046272D01*
X-8376716Y31017613D01*
X-8375718Y31016085D01*
X-8380003Y31013284D01*
X-8380010Y31013281D01*
X-8561114Y30872322D01*
X-8716547Y30703477D01*
X-8842069Y30511351D01*
X-8934257Y30301185D01*
X-8990594Y30078712D01*
X-8994868Y30027134D01*
X-9009546Y29850005D01*
X-9009546Y29849994D01*
X-8998927Y29721855D01*
X-8990594Y29621288D01*
X-8934257Y29398815D01*
X-8858730Y29226632D01*
X-8842069Y29188649D01*
X-8716549Y28996525D01*
X-8715439Y28995319D01*
X-8561114Y28827678D01*
X-8547242Y28816881D01*
X-8380012Y28686720D01*
X-8375718Y28683915D01*
X-8377095Y28681805D01*
X-8334861Y28640063D01*
X-8319609Y28571879D01*
X-8343642Y28506272D01*
X-8376716Y28477613D01*
X-8375718Y28476085D01*
X-8380003Y28473285D01*
X-8380010Y28473281D01*
X-8561114Y28332322D01*
X-8716547Y28163477D01*
X-8842069Y27971351D01*
X-8934257Y27761185D01*
X-8990594Y27538712D01*
X-8998209Y27446815D01*
X-9009546Y27310005D01*
X-9009546Y27309994D01*
X-8997525Y27164936D01*
X-8990594Y27081288D01*
X-8934257Y26858815D01*
X-8842069Y26648649D01*
X-8716549Y26456525D01*
X-8716547Y26456523D01*
X-8561114Y26287678D01*
X-8516797Y26253185D01*
X-8380012Y26146720D01*
X-8375718Y26143915D01*
X-8377095Y26141805D01*
X-8334861Y26100063D01*
X-8319609Y26031879D01*
X-8343642Y25966272D01*
X-8376716Y25937613D01*
X-8375718Y25936085D01*
X-8380003Y25933284D01*
X-8380010Y25933281D01*
X-8561114Y25792322D01*
X-8716547Y25623477D01*
X-8842069Y25431351D01*
X-8934257Y25221185D01*
X-8990594Y24998712D01*
X-8994894Y24946815D01*
X-9009546Y24770005D01*
X-9009546Y24769994D01*
X-9000696Y24663200D01*
X-8990594Y24541288D01*
X-8934257Y24318815D01*
X-8865935Y24163057D01*
X-8842069Y24108649D01*
X-8716549Y23916525D01*
X-8716547Y23916523D01*
X-8561114Y23747678D01*
X-8531391Y23724544D01*
X-8380012Y23606720D01*
X-8375718Y23603915D01*
X-8377095Y23601805D01*
X-8334861Y23560063D01*
X-8319609Y23491879D01*
X-8343642Y23426272D01*
X-8376716Y23397613D01*
X-8375718Y23396085D01*
X-8380003Y23393284D01*
X-8380010Y23393281D01*
X-8561114Y23252322D01*
X-8716547Y23083477D01*
X-8842069Y22891351D01*
X-8934257Y22681185D01*
X-8990594Y22458712D01*
X-8993971Y22417961D01*
X-9009546Y22230005D01*
X-9009546Y22229994D01*
X-9001285Y22130305D01*
X-8990594Y22001288D01*
X-8934257Y21778815D01*
X-8884967Y21666447D01*
X-8842069Y21568649D01*
X-8716549Y21376525D01*
X-8710964Y21370458D01*
X-8561114Y21207678D01*
X-8542227Y21192978D01*
X-8380012Y21066720D01*
X-8375718Y21063915D01*
X-8377095Y21061805D01*
X-8334861Y21020063D01*
X-8319609Y20951879D01*
X-8343642Y20886272D01*
X-8376716Y20857613D01*
X-8375718Y20856085D01*
X-8380003Y20853284D01*
X-8380010Y20853281D01*
X-8561114Y20712322D01*
X-8716547Y20543477D01*
X-8842069Y20351351D01*
X-8934257Y20141185D01*
X-8990594Y19918712D01*
X-8996746Y19844469D01*
X-9009546Y19690005D01*
X-9009546Y19689994D01*
X-9002967Y19610608D01*
X-8990594Y19461288D01*
X-8934257Y19238815D01*
X-8869470Y19091116D01*
X-8842069Y19028649D01*
X-8716549Y18836525D01*
X-8709115Y18828450D01*
X-8561114Y18667678D01*
X-8510714Y18628450D01*
X-8380012Y18526720D01*
X-8375718Y18523915D01*
X-8377095Y18521805D01*
X-8334861Y18480063D01*
X-8319609Y18411879D01*
X-8343642Y18346272D01*
X-8376716Y18317613D01*
X-8375718Y18316085D01*
X-8380003Y18313284D01*
X-8380010Y18313281D01*
X-8561114Y18172322D01*
X-8716547Y18003477D01*
X-8842069Y17811351D01*
X-8934257Y17601185D01*
X-8990594Y17378712D01*
X-9009546Y17150000D01*
X-8990594Y16921288D01*
X-8934257Y16698815D01*
X-8891302Y16600889D01*
X-8842069Y16488649D01*
X-8716549Y16296525D01*
X-8716547Y16296523D01*
X-8561114Y16127678D01*
X-8498382Y16078852D01*
X-8380012Y15986720D01*
X-8375718Y15983915D01*
X-8377095Y15981805D01*
X-8334861Y15940063D01*
X-8319609Y15871879D01*
X-8343642Y15806272D01*
X-8376716Y15777613D01*
X-8375718Y15776085D01*
X-8380003Y15773284D01*
X-8380010Y15773281D01*
X-8561114Y15632322D01*
X-8716547Y15463477D01*
X-8842069Y15271351D01*
X-8934257Y15061185D01*
X-8990594Y14838712D01*
X-8992243Y14818812D01*
X-9009546Y14610005D01*
X-9009546Y14609994D01*
X-8998269Y14473914D01*
X-8990594Y14381288D01*
X-8934257Y14158815D01*
X-8865191Y14001362D01*
X-8842069Y13948649D01*
X-8716549Y13756525D01*
X-8716547Y13756523D01*
X-8561114Y13587678D01*
X-8500884Y13540799D01*
X-8380012Y13446720D01*
X-8375718Y13443915D01*
X-8377095Y13441805D01*
X-8334861Y13400063D01*
X-8319609Y13331879D01*
X-8343642Y13266272D01*
X-8376716Y13237613D01*
X-8375718Y13236085D01*
X-8380003Y13233284D01*
X-8380010Y13233281D01*
X-8561114Y13092322D01*
X-8716547Y12923477D01*
X-8842069Y12731351D01*
X-8934257Y12521185D01*
X-8990594Y12298712D01*
X-8998353Y12205077D01*
X-9009546Y12070005D01*
X-9009546Y12069994D01*
X-9000666Y11962840D01*
X-8990594Y11841288D01*
X-8934257Y11618815D01*
X-8871483Y11475706D01*
X-8842069Y11408649D01*
X-8716549Y11216525D01*
X-8716547Y11216523D01*
X-8561114Y11047678D01*
X-8499215Y10999500D01*
X-8380012Y10906720D01*
X-8375718Y10903915D01*
X-8377095Y10901805D01*
X-8334861Y10860063D01*
X-8319609Y10791879D01*
X-8343642Y10726272D01*
X-8376716Y10697613D01*
X-8375718Y10696085D01*
X-8380003Y10693284D01*
X-8380010Y10693281D01*
X-8561114Y10552322D01*
X-8716547Y10383477D01*
X-8842069Y10191351D01*
X-8934257Y9981185D01*
X-8990594Y9758712D01*
X-8991894Y9743023D01*
X-9009546Y9530005D01*
X-9009546Y9529994D01*
X-8998300Y9394288D01*
X-8990594Y9301288D01*
X-8934257Y9078815D01*
X-8899685Y9000000D01*
X-8842069Y8868649D01*
X-8716549Y8676525D01*
X-8716547Y8676523D01*
X-8561114Y8507678D01*
X-8526433Y8480685D01*
X-8380012Y8366720D01*
X-8380007Y8366717D01*
X-8211367Y8275454D01*
X-8178174Y8257491D01*
X-8178171Y8257490D01*
X-8178169Y8257489D01*
X-7961115Y8182974D01*
X-7818669Y8159204D01*
X-7734748Y8145200D01*
X-7734747Y8145200D01*
X-7505253Y8145200D01*
X-7505252Y8145200D01*
X-7421331Y8159204D01*
X-7278884Y8182974D01*
X-7061830Y8257489D01*
X-7061819Y8257494D01*
X-6859992Y8366717D01*
X-6859987Y8366720D01*
X-6678888Y8507676D01*
X-6523450Y8676525D01*
X-6397930Y8868649D01*
X-6305743Y9078814D01*
X-6249405Y9301291D01*
X-6233066Y9498464D01*
X-6207913Y9563649D01*
X-6151510Y9604887D01*
X-6081767Y9609085D01*
X-6021809Y9575905D01*
X-5816089Y9370185D01*
X-5806178Y9357815D01*
X-5805969Y9357989D01*
X-5800999Y9351980D01*
X-5749905Y9304001D01*
X-5728767Y9282863D01*
X-5723190Y9278537D01*
X-5718748Y9274743D01*
X-5684321Y9242414D01*
X-5684318Y9242412D01*
X-5684319Y9242412D01*
X-5666426Y9232575D01*
X-5650170Y9221897D01*
X-5642336Y9215821D01*
X-5634040Y9209386D01*
X-5634036Y9209384D01*
X-5634034Y9209383D01*
X-5624083Y9205077D01*
X-5590688Y9190625D01*
X-5585450Y9188059D01*
X-5544059Y9165304D01*
X-5544055Y9165303D01*
X-5524277Y9160224D01*
X-5505881Y9153926D01*
X-5487145Y9145819D01*
X-5487140Y9145818D01*
X-5440496Y9138430D01*
X-5434781Y9137246D01*
X-5414612Y9132068D01*
X-5389032Y9125500D01*
X-5389030Y9125500D01*
X-5368616Y9125500D01*
X-5349217Y9123973D01*
X-5329058Y9120780D01*
X-5329057Y9120780D01*
X-5282034Y9125225D01*
X-5276196Y9125500D01*
X4975366Y9125500D01*
X4991113Y9123761D01*
X4991139Y9124032D01*
X4998905Y9123298D01*
X4998908Y9123298D01*
X4998909Y9123298D01*
X5068958Y9125500D01*
X5098856Y9125500D01*
X5098859Y9125500D01*
X5105856Y9126384D01*
X5111679Y9126842D01*
X5158889Y9128326D01*
X5158891Y9128327D01*
X5178495Y9134022D01*
X5197542Y9137967D01*
X5201206Y9138430D01*
X5217797Y9140526D01*
X5217800Y9140527D01*
X5217803Y9140528D01*
X5261716Y9157914D01*
X5267244Y9159806D01*
X5312592Y9172981D01*
X5330162Y9183372D01*
X5347635Y9191932D01*
X5366617Y9199447D01*
X5404827Y9227209D01*
X5409712Y9230418D01*
X5450359Y9254456D01*
X5450362Y9254458D01*
X5464793Y9268889D01*
X5479589Y9281527D01*
X5496107Y9293528D01*
X5496109Y9293530D01*
X5512427Y9313256D01*
X5526222Y9329931D01*
X5530135Y9334231D01*
X6036848Y9840944D01*
X6098171Y9874429D01*
X6167863Y9869445D01*
X6223796Y9827573D01*
X6248213Y9762109D01*
X6248105Y9743023D01*
X6230454Y9530005D01*
X6230454Y9529994D01*
X6249405Y9301291D01*
X6305743Y9078814D01*
X6397930Y8868649D01*
X6523450Y8676525D01*
X6678888Y8507676D01*
X6859987Y8366720D01*
X6859992Y8366717D01*
X7061819Y8257494D01*
X7061830Y8257489D01*
X7278884Y8182974D01*
X7421331Y8159204D01*
X7505252Y8145200D01*
X7505253Y8145200D01*
X7734747Y8145200D01*
X7734748Y8145200D01*
X7818669Y8159204D01*
X7961115Y8182974D01*
X8178169Y8257489D01*
X8178171Y8257490D01*
X8178174Y8257491D01*
X8211367Y8275454D01*
X8380007Y8366717D01*
X8380012Y8366720D01*
X8526433Y8480685D01*
X8561114Y8507678D01*
X8716547Y8676523D01*
X8716549Y8676525D01*
X8842069Y8868649D01*
X8899685Y9000000D01*
X8934257Y9078815D01*
X8990594Y9301288D01*
X8998300Y9394288D01*
X9009546Y9529994D01*
X9009546Y9530005D01*
X8991894Y9743023D01*
X8990594Y9758712D01*
X8934257Y9981185D01*
X8918244Y10017688D01*
X8909341Y10086989D01*
X8939317Y10150101D01*
X8998656Y10186988D01*
X9031800Y10191500D01*
X12792500Y10191500D01*
X12859539Y10171815D01*
X12905294Y10119011D01*
X12916500Y10067500D01*
X12916500Y7601345D01*
X12923011Y7540797D01*
X12923011Y7540795D01*
X12974112Y7403793D01*
X13041767Y7313417D01*
X13066184Y7247953D01*
X13066500Y7239107D01*
X13066500Y6394288D01*
X13046815Y6327249D01*
X13041767Y6319977D01*
X13036739Y6313261D01*
X13000000Y6264183D01*
X12949111Y6196204D01*
X12898011Y6059204D01*
X12898011Y6059202D01*
X12891500Y5998654D01*
X12891500Y5201345D01*
X12898011Y5140797D01*
X12898011Y5140795D01*
X12949111Y5003795D01*
X13036739Y4886739D01*
X13153795Y4799111D01*
X13290796Y4748011D01*
X13351345Y4741500D01*
X13351362Y4741500D01*
X14048654Y4741500D01*
X14109202Y4748011D01*
X14109204Y4748011D01*
X14246204Y4799111D01*
X14303650Y4842115D01*
X14325689Y4858613D01*
X14391154Y4883030D01*
X14459427Y4868178D01*
X14474311Y4858613D01*
X14553795Y4799111D01*
X14690796Y4748011D01*
X14751345Y4741500D01*
X14751362Y4741500D01*
X15448654Y4741500D01*
X15509202Y4748011D01*
X15509204Y4748011D01*
X15646204Y4799111D01*
X15658129Y4808038D01*
X15723594Y4832455D01*
X15791867Y4817603D01*
X15805321Y4809091D01*
X15837080Y4786018D01*
X15943246Y4708883D01*
X15943247Y4708882D01*
X15943248Y4708882D01*
X15985415Y4690108D01*
X16117714Y4631205D01*
X16117713Y4631205D01*
X16304513Y4591500D01*
X16495485Y4591500D01*
X16495487Y4591500D01*
X16495488Y4591500D01*
X16501565Y4592139D01*
X16570294Y4579569D01*
X16621318Y4531837D01*
X16638436Y4464097D01*
X16616214Y4397856D01*
X16602207Y4381137D01*
X16511168Y4290098D01*
X16511152Y4290080D01*
X16342716Y4065075D01*
X16342711Y4065067D01*
X16208010Y3818380D01*
X16208008Y3818376D01*
X16192751Y3777469D01*
X16109781Y3555018D01*
X16109780Y3555014D01*
X16109779Y3555011D01*
X16050034Y3280371D01*
X16050033Y3280364D01*
X16029981Y3000001D01*
X16029981Y2999998D01*
X16050033Y2719635D01*
X16050034Y2719628D01*
X16109779Y2444988D01*
X16109780Y2444983D01*
X16109781Y2444982D01*
X16115950Y2428443D01*
X16208008Y2181623D01*
X16208010Y2181619D01*
X16342711Y1934932D01*
X16342716Y1934924D01*
X16511152Y1709919D01*
X16511168Y1709901D01*
X16709901Y1511168D01*
X16709919Y1511152D01*
X16934924Y1342716D01*
X16934932Y1342711D01*
X17181619Y1208010D01*
X17181623Y1208008D01*
X17351953Y1144479D01*
X17444982Y1109781D01*
X17444983Y1109780D01*
X17444988Y1109779D01*
X17719628Y1050034D01*
X17719635Y1050033D01*
X17929825Y1035000D01*
X18070175Y1035000D01*
X18280364Y1050033D01*
X18280371Y1050034D01*
X18555011Y1109779D01*
X18555014Y1109780D01*
X18555018Y1109781D01*
X18737475Y1177834D01*
X18818376Y1208008D01*
X18818380Y1208010D01*
X19065067Y1342711D01*
X19065075Y1342716D01*
X19290080Y1511152D01*
X19290098Y1511168D01*
X19488831Y1709901D01*
X19488847Y1709919D01*
X19657283Y1934924D01*
X19657288Y1934932D01*
X19791989Y2181619D01*
X19791991Y2181623D01*
X19791992Y2181625D01*
X19890219Y2444982D01*
X19949967Y2719637D01*
X19970019Y3000000D01*
X19966254Y3052645D01*
X22394843Y3052645D01*
X22404852Y2842541D01*
X22454442Y2638129D01*
X22472261Y2599111D01*
X22541820Y2446795D01*
X22541824Y2446789D01*
X22663826Y2275460D01*
X22663832Y2275454D01*
X22816060Y2130305D01*
X22816061Y2130304D01*
X22816063Y2130303D01*
X22843980Y2112362D01*
X22993015Y2016583D01*
X23188278Y1938410D01*
X23188291Y1938406D01*
X23394828Y1898600D01*
X23394829Y1898600D01*
X23552461Y1898600D01*
X23552468Y1898600D01*
X23709389Y1913584D01*
X23911211Y1972844D01*
X24098170Y2069229D01*
X24225054Y2169011D01*
X24263509Y2199252D01*
X24263510Y2199253D01*
X24317724Y2261819D01*
X24401255Y2358219D01*
X24401257Y2358222D01*
X24401259Y2358225D01*
X24506425Y2540379D01*
X24509067Y2548011D01*
X24575222Y2739154D01*
X24605157Y2947355D01*
X24595148Y3157459D01*
X24545558Y3361871D01*
X24458179Y3553205D01*
X24395101Y3641785D01*
X24336173Y3724539D01*
X24336171Y3724540D01*
X24336169Y3724544D01*
X24183937Y3869697D01*
X24006986Y3983416D01*
X23811712Y4061593D01*
X23646479Y4093438D01*
X23605172Y4101400D01*
X23605171Y4101400D01*
X23447532Y4101400D01*
X23290611Y4086416D01*
X23088789Y4027156D01*
X22901830Y3930771D01*
X22758912Y3818380D01*
X22736490Y3800747D01*
X22736489Y3800746D01*
X22721288Y3783203D01*
X22598745Y3641781D01*
X22598743Y3641777D01*
X22598740Y3641774D01*
X22493574Y3459620D01*
X22424779Y3260851D01*
X22424778Y3260847D01*
X22424778Y3260846D01*
X22394843Y3052645D01*
X19966254Y3052645D01*
X19949967Y3280363D01*
X19890219Y3555018D01*
X19791992Y3818375D01*
X19657285Y4065073D01*
X19488841Y4290088D01*
X19290088Y4488841D01*
X19065073Y4657285D01*
X18818375Y4791992D01*
X18555018Y4890219D01*
X18280363Y4949967D01*
X18070175Y4965000D01*
X17929825Y4965000D01*
X17719637Y4949967D01*
X17444982Y4890219D01*
X17332172Y4848143D01*
X17324673Y4845346D01*
X17254982Y4840362D01*
X17193658Y4873847D01*
X17160174Y4935170D01*
X17165158Y5004862D01*
X17173950Y5023522D01*
X17234527Y5128444D01*
X17293542Y5310072D01*
X17313504Y5500000D01*
X17293542Y5689928D01*
X17234527Y5871556D01*
X17139040Y6036944D01*
X17011253Y6178866D01*
X16856752Y6291118D01*
X16682288Y6368794D01*
X16495487Y6408500D01*
X16304513Y6408500D01*
X16117712Y6368794D01*
X15943248Y6291118D01*
X15943244Y6291115D01*
X15936298Y6286069D01*
X15870492Y6262590D01*
X15802438Y6278416D01*
X15769725Y6307175D01*
X15769536Y6306986D01*
X15766591Y6309930D01*
X15764144Y6312082D01*
X15763264Y6313257D01*
X15763263Y6313257D01*
X15763261Y6313261D01*
X15646204Y6400889D01*
X15509201Y6451989D01*
X15477623Y6455383D01*
X15448654Y6458499D01*
X15448638Y6458500D01*
X14751362Y6458500D01*
X14751345Y6458499D01*
X14720270Y6455157D01*
X14690799Y6451989D01*
X14690796Y6451988D01*
X14690795Y6451988D01*
X14630564Y6429522D01*
X14553796Y6400889D01*
X14553795Y6400888D01*
X14531811Y6384431D01*
X14466347Y6360014D01*
X14398074Y6374865D01*
X14348668Y6424271D01*
X14333500Y6483698D01*
X14333500Y6618812D01*
X21249500Y6618812D01*
X21264072Y6522139D01*
X21288604Y6359385D01*
X21288605Y6359382D01*
X21288606Y6359376D01*
X21365938Y6108673D01*
X21479767Y5872303D01*
X21479768Y5872302D01*
X21627567Y5655520D01*
X21806014Y5463198D01*
X22011143Y5299614D01*
X22238356Y5168432D01*
X22482578Y5072582D01*
X22482597Y5072576D01*
X22738374Y5014197D01*
X22738379Y5014196D01*
X22934500Y4999500D01*
X22934506Y4999500D01*
X23065500Y4999500D01*
X23261620Y5014196D01*
X23261625Y5014197D01*
X23261629Y5014197D01*
X23261630Y5014198D01*
X23302507Y5023528D01*
X23517402Y5072576D01*
X23517411Y5072578D01*
X23517416Y5072580D01*
X23761643Y5168432D01*
X23988857Y5299614D01*
X24193981Y5463195D01*
X24193984Y5463198D01*
X24193987Y5463200D01*
X24193990Y5463203D01*
X24251602Y5525294D01*
X24311630Y5561049D01*
X24381459Y5558674D01*
X24438919Y5518923D01*
X24465767Y5454418D01*
X24466500Y5440953D01*
X24466500Y5401345D01*
X24473011Y5340797D01*
X24473011Y5340795D01*
X24524111Y5203795D01*
X24611739Y5086739D01*
X24728795Y4999111D01*
X24865796Y4948011D01*
X24926345Y4941500D01*
X24926362Y4941500D01*
X27623654Y4941500D01*
X27684202Y4948011D01*
X27684204Y4948011D01*
X27821204Y4999111D01*
X27866116Y5032732D01*
X27938261Y5086739D01*
X28025889Y5203796D01*
X28065527Y5310068D01*
X28076988Y5340795D01*
X28076988Y5340797D01*
X28076989Y5340799D01*
X28080157Y5370270D01*
X28083499Y5401345D01*
X28083500Y5401362D01*
X28083500Y6052645D01*
X47394843Y6052645D01*
X47404852Y5842541D01*
X47454442Y5638130D01*
X47541820Y5446795D01*
X47541824Y5446789D01*
X47663826Y5275460D01*
X47663832Y5275454D01*
X47816060Y5130305D01*
X47816061Y5130304D01*
X47816063Y5130303D01*
X47875779Y5091926D01*
X47993015Y5016583D01*
X48188278Y4938410D01*
X48188291Y4938406D01*
X48394828Y4898600D01*
X48394829Y4898600D01*
X48552461Y4898600D01*
X48552468Y4898600D01*
X48709389Y4913584D01*
X48884497Y4965000D01*
X48911208Y4972843D01*
X48911211Y4972844D01*
X49098170Y5069229D01*
X49226257Y5169957D01*
X49263509Y5199252D01*
X49263510Y5199253D01*
X49306436Y5248792D01*
X49401255Y5358219D01*
X49401257Y5358222D01*
X49401259Y5358225D01*
X49506425Y5540379D01*
X49575220Y5739148D01*
X49575222Y5739154D01*
X49605157Y5947355D01*
X49595148Y6157459D01*
X49545558Y6361871D01*
X49458179Y6553205D01*
X49355030Y6698058D01*
X49336173Y6724539D01*
X49336171Y6724540D01*
X49336169Y6724544D01*
X49183937Y6869697D01*
X49006986Y6983416D01*
X48811712Y7061593D01*
X48646479Y7093438D01*
X48605172Y7101400D01*
X48605171Y7101400D01*
X48447532Y7101400D01*
X48290611Y7086416D01*
X48088789Y7027156D01*
X47901830Y6930771D01*
X47736490Y6800747D01*
X47598745Y6641781D01*
X47598743Y6641777D01*
X47598740Y6641774D01*
X47493574Y6459620D01*
X47424779Y6260851D01*
X47424778Y6260847D01*
X47424778Y6260846D01*
X47394843Y6052645D01*
X28083500Y6052645D01*
X28083500Y8098637D01*
X28083499Y8098654D01*
X28080096Y8130304D01*
X28076989Y8159201D01*
X28025889Y8296204D01*
X27938261Y8413261D01*
X27821204Y8500889D01*
X27684201Y8551989D01*
X27652623Y8555383D01*
X27623654Y8558499D01*
X27623638Y8558500D01*
X24926362Y8558500D01*
X24926345Y8558499D01*
X24895270Y8555157D01*
X24865799Y8551989D01*
X24865796Y8551988D01*
X24865795Y8551988D01*
X24816199Y8533489D01*
X24728796Y8500889D01*
X24611739Y8413261D01*
X24533448Y8308677D01*
X24524111Y8296204D01*
X24473011Y8159204D01*
X24473011Y8159202D01*
X24466500Y8098654D01*
X24466500Y8059046D01*
X24446815Y7992007D01*
X24394011Y7946252D01*
X24324853Y7936308D01*
X24261297Y7965333D01*
X24251601Y7974705D01*
X24193985Y8036801D01*
X24193983Y8036801D01*
X24193981Y8036805D01*
X23988857Y8200386D01*
X23761643Y8331568D01*
X23517416Y8427420D01*
X23261630Y8485802D01*
X23261622Y8485802D01*
X23261620Y8485803D01*
X23065500Y8500500D01*
X23065494Y8500500D01*
X22934506Y8500500D01*
X22934500Y8500500D01*
X22738379Y8485803D01*
X22738376Y8485802D01*
X22738370Y8485802D01*
X22482584Y8427420D01*
X22238357Y8331568D01*
X22011143Y8200386D01*
X21806019Y8036805D01*
X21806014Y8036801D01*
X21627566Y7844479D01*
X21627567Y7844479D01*
X21479772Y7627704D01*
X21479770Y7627700D01*
X21479768Y7627697D01*
X21479767Y7627696D01*
X21365938Y7391326D01*
X21302660Y7186182D01*
X21288604Y7140615D01*
X21270196Y7018488D01*
X21249500Y6881187D01*
X21249500Y6618812D01*
X14333500Y6618812D01*
X14333500Y7017500D01*
X14353185Y7084539D01*
X14405989Y7130294D01*
X14457500Y7141500D01*
X16073654Y7141500D01*
X16134202Y7148011D01*
X16134204Y7148011D01*
X16271204Y7199111D01*
X16356624Y7263056D01*
X16388261Y7286739D01*
X16475889Y7403796D01*
X16507606Y7488831D01*
X16526988Y7540795D01*
X16526988Y7540797D01*
X16526989Y7540799D01*
X16533354Y7600000D01*
X16533499Y7601345D01*
X16533500Y7601362D01*
X16533500Y7640953D01*
X16553185Y7707992D01*
X16605989Y7753747D01*
X16675147Y7763691D01*
X16738703Y7734666D01*
X16748398Y7725294D01*
X16806009Y7663203D01*
X16806012Y7663200D01*
X17011143Y7499614D01*
X17238356Y7368432D01*
X17482578Y7272582D01*
X17482597Y7272576D01*
X17738374Y7214197D01*
X17738379Y7214196D01*
X17934500Y7199500D01*
X17934506Y7199500D01*
X18065500Y7199500D01*
X18261620Y7214196D01*
X18261625Y7214197D01*
X18261629Y7214197D01*
X18261630Y7214198D01*
X18324041Y7228443D01*
X18517402Y7272576D01*
X18517411Y7272578D01*
X18517416Y7272580D01*
X18761643Y7368432D01*
X18988857Y7499614D01*
X19193981Y7663195D01*
X19193985Y7663198D01*
X19372432Y7855520D01*
X19393717Y7886739D01*
X19520228Y8072296D01*
X19520231Y8072302D01*
X19520232Y8072303D01*
X19634061Y8308673D01*
X19634063Y8308677D01*
X19711396Y8559385D01*
X19750500Y8818818D01*
X19750500Y9081182D01*
X19711396Y9340615D01*
X19634063Y9591323D01*
X19524569Y9818690D01*
X19520232Y9827696D01*
X19520231Y9827697D01*
X19520228Y9827704D01*
X19404360Y9997650D01*
X19382861Y10064128D01*
X19400715Y10131678D01*
X19452255Y10178852D01*
X19506815Y10191500D01*
X29896438Y10191500D01*
X29963477Y10171815D01*
X30009232Y10119011D01*
X30019176Y10049853D01*
X29990151Y9986297D01*
X29953258Y9957284D01*
X29901830Y9930771D01*
X29736490Y9800747D01*
X29598745Y9641781D01*
X29598743Y9641777D01*
X29598740Y9641774D01*
X29493574Y9459620D01*
X29424779Y9260851D01*
X29424778Y9260847D01*
X29424778Y9260846D01*
X29394843Y9052645D01*
X29404852Y8842541D01*
X29454442Y8638129D01*
X29469076Y8606085D01*
X29541820Y8446795D01*
X29541824Y8446789D01*
X29663826Y8275460D01*
X29663832Y8275454D01*
X29816060Y8130305D01*
X29816061Y8130304D01*
X29816063Y8130303D01*
X29904538Y8073443D01*
X29993015Y8016583D01*
X30188278Y7938410D01*
X30188291Y7938406D01*
X30394828Y7898600D01*
X30394829Y7898600D01*
X30552461Y7898600D01*
X30552468Y7898600D01*
X30709389Y7913584D01*
X30885631Y7965333D01*
X30911208Y7972843D01*
X30911211Y7972844D01*
X31098170Y8069229D01*
X31228290Y8171556D01*
X31263509Y8199252D01*
X31263510Y8199253D01*
X31313972Y8257489D01*
X31401255Y8358219D01*
X31401257Y8358222D01*
X31401259Y8358225D01*
X31506425Y8540379D01*
X31507019Y8542093D01*
X31564430Y8707972D01*
X31575220Y8739148D01*
X31575222Y8739154D01*
X31605157Y8947355D01*
X31595148Y9157459D01*
X31557349Y9313267D01*
X31560674Y9383056D01*
X31601202Y9439971D01*
X31666067Y9465939D01*
X31677854Y9466500D01*
X33878967Y9466500D01*
X33894714Y9464761D01*
X33894740Y9465032D01*
X33902508Y9464297D01*
X33932494Y9465240D01*
X34000119Y9447670D01*
X34047509Y9396329D01*
X34059619Y9327517D01*
X34057555Y9314945D01*
X34050033Y9280365D01*
X34029981Y9000001D01*
X34029981Y8999998D01*
X34050033Y8719635D01*
X34050034Y8719628D01*
X34109779Y8444988D01*
X34109780Y8444983D01*
X34109781Y8444982D01*
X34121612Y8413261D01*
X34208008Y8181623D01*
X34208010Y8181619D01*
X34342711Y7934932D01*
X34342716Y7934924D01*
X34511152Y7709919D01*
X34511168Y7709901D01*
X34709901Y7511168D01*
X34709919Y7511152D01*
X34934924Y7342716D01*
X34934932Y7342711D01*
X35181619Y7208010D01*
X35181623Y7208008D01*
X35333925Y7151203D01*
X35444982Y7109781D01*
X35444983Y7109780D01*
X35444988Y7109779D01*
X35719628Y7050034D01*
X35719635Y7050033D01*
X35929825Y7035000D01*
X36070175Y7035000D01*
X36280364Y7050033D01*
X36280371Y7050034D01*
X36555011Y7109779D01*
X36555014Y7109780D01*
X36555018Y7109781D01*
X36718532Y7170768D01*
X36818376Y7208008D01*
X36818380Y7208010D01*
X37065067Y7342711D01*
X37065075Y7342716D01*
X37290080Y7511152D01*
X37290098Y7511168D01*
X37488831Y7709901D01*
X37488847Y7709919D01*
X37657283Y7934924D01*
X37657288Y7934932D01*
X37791989Y8181619D01*
X37791991Y8181623D01*
X37792495Y8182974D01*
X37890219Y8444982D01*
X37949967Y8719637D01*
X37970019Y9000000D01*
X37949967Y9280363D01*
X37936860Y9340615D01*
X37914992Y9441142D01*
X37919976Y9510833D01*
X37961847Y9566767D01*
X38027312Y9591184D01*
X38036158Y9591500D01*
X38195487Y9591500D01*
X38382285Y9631205D01*
X38382286Y9631205D01*
X38382288Y9631206D01*
X38556752Y9708882D01*
X38711253Y9821134D01*
X38839040Y9963056D01*
X38934527Y10128444D01*
X38993542Y10310072D01*
X39013504Y10500000D01*
X38993542Y10689928D01*
X38959640Y10794268D01*
X38956419Y10804182D01*
X38954424Y10874023D01*
X38990505Y10933856D01*
X39053206Y10964684D01*
X39074350Y10966500D01*
X39184584Y10966500D01*
X39251623Y10946815D01*
X39272265Y10930181D01*
X40365364Y9837079D01*
X40375268Y9824720D01*
X40375477Y9824893D01*
X40380449Y9818883D01*
X40380450Y9818882D01*
X40399762Y9800747D01*
X40431529Y9770915D01*
X40452672Y9749772D01*
X40452689Y9749757D01*
X40458264Y9745431D01*
X40462694Y9741647D01*
X40497121Y9709319D01*
X40503437Y9704732D01*
X40501892Y9702606D01*
X40542186Y9662048D01*
X40556813Y9593726D01*
X40540546Y9540978D01*
X40493574Y9459620D01*
X40424779Y9260851D01*
X40424778Y9260847D01*
X40424778Y9260846D01*
X40394843Y9052645D01*
X40404852Y8842541D01*
X40454442Y8638129D01*
X40469076Y8606085D01*
X40541820Y8446795D01*
X40541824Y8446789D01*
X40663826Y8275460D01*
X40663832Y8275454D01*
X40816060Y8130305D01*
X40816061Y8130304D01*
X40816063Y8130303D01*
X40904538Y8073443D01*
X40993015Y8016583D01*
X41188278Y7938410D01*
X41188291Y7938406D01*
X41394828Y7898600D01*
X41394829Y7898600D01*
X41552461Y7898600D01*
X41552468Y7898600D01*
X41709389Y7913584D01*
X41885631Y7965333D01*
X41911208Y7972843D01*
X41911211Y7972844D01*
X42098170Y8069229D01*
X42228290Y8171556D01*
X42263509Y8199252D01*
X42263510Y8199253D01*
X42313972Y8257489D01*
X42401255Y8358219D01*
X42401257Y8358222D01*
X42401259Y8358225D01*
X42506425Y8540379D01*
X42507019Y8542093D01*
X42564430Y8707972D01*
X42575220Y8739148D01*
X42575222Y8739154D01*
X42605157Y8947355D01*
X42595148Y9157459D01*
X42545558Y9361871D01*
X42520432Y9416890D01*
X42510489Y9486048D01*
X42539515Y9549604D01*
X42598293Y9587377D01*
X42633227Y9592400D01*
X44292691Y9592400D01*
X44359730Y9572715D01*
X44384840Y9551373D01*
X44388745Y9547035D01*
X44543246Y9434783D01*
X44717714Y9357105D01*
X44717713Y9357105D01*
X44904513Y9317400D01*
X45095487Y9317400D01*
X45282285Y9357105D01*
X45282286Y9357105D01*
X45282288Y9357106D01*
X45456752Y9434782D01*
X45611253Y9547034D01*
X45615160Y9551373D01*
X45674646Y9588021D01*
X45707309Y9592400D01*
X46460334Y9592400D01*
X46527373Y9572715D01*
X46548015Y9556081D01*
X48567914Y7536179D01*
X48577818Y7523820D01*
X48578027Y7523993D01*
X48582999Y7517983D01*
X48634078Y7470016D01*
X48655222Y7448872D01*
X48655239Y7448857D01*
X48660814Y7444531D01*
X48665244Y7440747D01*
X48699671Y7408419D01*
X48699681Y7408412D01*
X48717567Y7398579D01*
X48733820Y7387903D01*
X48749957Y7375386D01*
X48749959Y7375385D01*
X48793310Y7356625D01*
X48798556Y7354055D01*
X48839942Y7331303D01*
X48859720Y7326225D01*
X48878122Y7319925D01*
X48896857Y7311818D01*
X48943495Y7304431D01*
X48949216Y7303246D01*
X48994965Y7291500D01*
X48994970Y7291500D01*
X49015384Y7291500D01*
X49034783Y7289973D01*
X49054941Y7286780D01*
X49054942Y7286780D01*
X49054943Y7286780D01*
X49101966Y7291225D01*
X49107804Y7291500D01*
X50341366Y7291500D01*
X50357113Y7289761D01*
X50357139Y7290032D01*
X50364905Y7289298D01*
X50364908Y7289298D01*
X50364909Y7289298D01*
X50434958Y7291500D01*
X50464856Y7291500D01*
X50464859Y7291500D01*
X50471856Y7292384D01*
X50477679Y7292842D01*
X50524889Y7294326D01*
X50524891Y7294327D01*
X50544495Y7300022D01*
X50563542Y7303967D01*
X50567214Y7304431D01*
X50583797Y7306526D01*
X50583800Y7306527D01*
X50583803Y7306528D01*
X50627716Y7323914D01*
X50633244Y7325806D01*
X50678592Y7338981D01*
X50696162Y7349372D01*
X50713635Y7357932D01*
X50732617Y7365447D01*
X50770827Y7393209D01*
X50775712Y7396418D01*
X50816359Y7420456D01*
X50816362Y7420458D01*
X50830793Y7434889D01*
X50845589Y7447527D01*
X50862107Y7459528D01*
X50862109Y7459530D01*
X50886348Y7488831D01*
X50892222Y7495931D01*
X50896135Y7500231D01*
X51101085Y7705181D01*
X51162408Y7738666D01*
X51188766Y7741500D01*
X51448654Y7741500D01*
X51509202Y7748011D01*
X51509204Y7748011D01*
X51646204Y7799111D01*
X51721557Y7855520D01*
X51763261Y7886739D01*
X51785771Y7916809D01*
X51841704Y7958681D01*
X51885039Y7966500D01*
X53015384Y7966500D01*
X53082423Y7946815D01*
X53128178Y7894011D01*
X53138122Y7824853D01*
X53109097Y7761297D01*
X53074811Y7733668D01*
X52934932Y7657288D01*
X52934924Y7657283D01*
X52709919Y7488847D01*
X52709901Y7488831D01*
X52511168Y7290098D01*
X52511152Y7290080D01*
X52342716Y7065075D01*
X52342711Y7065067D01*
X52208010Y6818380D01*
X52208008Y6818376D01*
X52175496Y6731206D01*
X52109781Y6555018D01*
X52109780Y6555014D01*
X52109779Y6555011D01*
X52050034Y6280371D01*
X52050033Y6280364D01*
X52029981Y6000001D01*
X52029981Y5999998D01*
X52050033Y5719635D01*
X52050034Y5719628D01*
X52109779Y5444988D01*
X52208008Y5181623D01*
X52208010Y5181619D01*
X52342711Y4934932D01*
X52342716Y4934924D01*
X52511152Y4709919D01*
X52511168Y4709901D01*
X52709901Y4511168D01*
X52709919Y4511152D01*
X52934924Y4342716D01*
X52934932Y4342711D01*
X53181619Y4208010D01*
X53181618Y4208010D01*
X53231984Y4189224D01*
X53273659Y4173680D01*
X53329591Y4131810D01*
X53354008Y4066346D01*
X53339156Y3998073D01*
X53289751Y3948668D01*
X53230324Y3933500D01*
X31383634Y3933500D01*
X31367886Y3935238D01*
X31367861Y3934968D01*
X31360096Y3935700D01*
X31360091Y3935702D01*
X31290042Y3933500D01*
X31260144Y3933500D01*
X31253136Y3932614D01*
X31247315Y3932156D01*
X31200110Y3930673D01*
X31180508Y3924977D01*
X31161457Y3921032D01*
X31141203Y3918474D01*
X31097288Y3901086D01*
X31091757Y3899193D01*
X31072501Y3893598D01*
X31046407Y3886018D01*
X31028832Y3875624D01*
X31011356Y3867064D01*
X30992388Y3859554D01*
X30992387Y3859554D01*
X30992385Y3859553D01*
X30992383Y3859552D01*
X30954176Y3831792D01*
X30949297Y3828587D01*
X30908637Y3804542D01*
X30908634Y3804539D01*
X30894201Y3790106D01*
X30879407Y3777470D01*
X30862893Y3765472D01*
X30834057Y3730616D01*
X30832790Y3729084D01*
X30828857Y3724762D01*
X24573914Y-2530181D01*
X24512591Y-2563666D01*
X24486233Y-2566500D01*
X15920815Y-2566500D01*
X15853776Y-2546815D01*
X15808021Y-2494011D01*
X15798077Y-2424853D01*
X15827102Y-2361297D01*
X15828665Y-2359528D01*
X15842011Y-2344706D01*
X15939040Y-2236944D01*
X16034527Y-2071556D01*
X16093542Y-1889928D01*
X16113504Y-1700000D01*
X16093542Y-1510072D01*
X16034527Y-1328444D01*
X15939040Y-1163056D01*
X15811253Y-1021134D01*
X15656752Y-908882D01*
X15482288Y-831206D01*
X15482286Y-831205D01*
X15295487Y-791500D01*
X15104513Y-791500D01*
X14917714Y-831205D01*
X14917711Y-831206D01*
X14917712Y-831206D01*
X14744111Y-908498D01*
X14743246Y-908883D01*
X14588745Y-1021135D01*
X14584840Y-1025473D01*
X14525354Y-1062121D01*
X14492691Y-1066500D01*
X6283851Y-1066500D01*
X6216812Y-1046815D01*
X6171057Y-994011D01*
X6161113Y-924853D01*
X6190138Y-861297D01*
X6207197Y-845031D01*
X6263510Y-800747D01*
X6401255Y-641781D01*
X6506426Y-459619D01*
X6575222Y-260846D01*
X6605157Y-52645D01*
X6595148Y157459D01*
X6545558Y361871D01*
X6458179Y553205D01*
X6359826Y691323D01*
X6336173Y724539D01*
X6336171Y724540D01*
X6336169Y724544D01*
X6183937Y869697D01*
X6006986Y983416D01*
X5811712Y1061593D01*
X5646479Y1093438D01*
X5605172Y1101400D01*
X5605171Y1101400D01*
X5447532Y1101400D01*
X5290611Y1086416D01*
X5088789Y1027156D01*
X4901830Y930771D01*
X4736490Y800747D01*
X4598745Y641781D01*
X4598743Y641777D01*
X4598740Y641774D01*
X4493574Y459620D01*
X4424779Y260851D01*
X4424778Y260847D01*
X4424778Y260846D01*
X4409914Y157461D01*
X4394843Y52642D01*
X4395620Y36337D01*
X4404852Y-157459D01*
X4454442Y-361871D01*
X4458795Y-371402D01*
X4541820Y-553204D01*
X4541824Y-553210D01*
X4663826Y-724539D01*
X4663832Y-724545D01*
X4798297Y-852757D01*
X4833232Y-913266D01*
X4829907Y-983056D01*
X4789379Y-1039971D01*
X4724514Y-1065939D01*
X4712727Y-1066500D01*
X3883634Y-1066500D01*
X3867886Y-1064761D01*
X3867861Y-1065032D01*
X3860094Y-1064298D01*
X3860091Y-1064298D01*
X3790042Y-1066500D01*
X3760137Y-1066500D01*
X3753143Y-1067384D01*
X3747320Y-1067842D01*
X3700111Y-1069326D01*
X3700108Y-1069327D01*
X3680505Y-1075022D01*
X3661459Y-1078966D01*
X3641203Y-1081526D01*
X3641201Y-1081526D01*
X3641199Y-1081527D01*
X3597282Y-1098914D01*
X3591756Y-1100806D01*
X3546406Y-1113982D01*
X3528833Y-1124374D01*
X3511370Y-1132929D01*
X3492385Y-1140446D01*
X3492383Y-1140447D01*
X3454179Y-1168204D01*
X3449296Y-1171412D01*
X3408637Y-1195458D01*
X3394196Y-1209898D01*
X3379408Y-1222527D01*
X3362897Y-1234523D01*
X3362892Y-1234528D01*
X3332790Y-1270914D01*
X3328858Y-1275235D01*
X2898914Y-1705181D01*
X2837591Y-1738666D01*
X2811233Y-1741500D01*
X2551345Y-1741500D01*
X2490797Y-1748011D01*
X2490795Y-1748011D01*
X2353795Y-1799111D01*
X2236739Y-1886739D01*
X2149111Y-2003795D01*
X2098011Y-2140795D01*
X2098011Y-2140797D01*
X2091500Y-2201345D01*
X2091500Y-2998654D01*
X2098011Y-3059202D01*
X2098011Y-3059204D01*
X2135077Y-3158578D01*
X2149111Y-3196204D01*
X2236739Y-3313261D01*
X2353796Y-3400889D01*
X2423185Y-3426770D01*
X2490792Y-3451987D01*
X2490794Y-3451987D01*
X2490799Y-3451989D01*
X2528546Y-3456047D01*
X2593095Y-3482784D01*
X2632943Y-3540177D01*
X2637764Y-3598726D01*
X2636780Y-3604941D01*
X2636780Y-3604942D01*
X2641225Y-3651966D01*
X2641500Y-3657804D01*
X2641500Y-4017500D01*
X2621815Y-4084539D01*
X2569011Y-4130294D01*
X2517500Y-4141500D01*
X1926345Y-4141500D01*
X1865797Y-4148011D01*
X1865795Y-4148011D01*
X1728795Y-4199111D01*
X1611739Y-4286739D01*
X1524111Y-4403795D01*
X1473011Y-4540795D01*
X1473011Y-4540797D01*
X1466500Y-4601345D01*
X1466500Y-4640953D01*
X1446815Y-4707992D01*
X1394011Y-4753747D01*
X1324853Y-4763691D01*
X1261297Y-4734666D01*
X1251602Y-4725294D01*
X1193990Y-4663203D01*
X1193987Y-4663200D01*
X1166090Y-4640953D01*
X988857Y-4499614D01*
X761643Y-4368432D01*
X517416Y-4272580D01*
X517411Y-4272578D01*
X517402Y-4272576D01*
X299818Y-4222914D01*
X261630Y-4214198D01*
X261629Y-4214197D01*
X261625Y-4214197D01*
X261620Y-4214196D01*
X65500Y-4199500D01*
X65494Y-4199500D01*
X-65494Y-4199500D01*
X-65500Y-4199500D01*
X-261620Y-4214196D01*
X-261625Y-4214197D01*
X-261629Y-4214197D01*
X-261630Y-4214198D01*
X-299818Y-4222914D01*
X-517402Y-4272576D01*
X-517411Y-4272578D01*
X-517416Y-4272580D01*
X-761643Y-4368432D01*
X-988857Y-4499614D01*
X-1116445Y-4601362D01*
X-1193985Y-4663198D01*
X-1359351Y-4841422D01*
X-1372433Y-4855521D01*
X-1520228Y-5072296D01*
X-1520230Y-5072301D01*
X-1520231Y-5072302D01*
X-1520232Y-5072303D01*
X-1581913Y-5200386D01*
X-1634063Y-5308677D01*
X-1711396Y-5559385D01*
X-1750500Y-5818818D01*
X-1750500Y-6081182D01*
X-1711396Y-6340615D01*
X-1634063Y-6591323D01*
X-1520228Y-6827704D01*
X-1372433Y-7044479D01*
X-1284777Y-7138950D01*
X-1208137Y-7221549D01*
X-1193981Y-7236805D01*
X-988857Y-7400386D01*
X-761643Y-7531568D01*
X-517416Y-7627420D01*
X-261630Y-7685802D01*
X-261622Y-7685802D01*
X-261620Y-7685803D01*
X-65500Y-7700500D01*
X-65494Y-7700500D01*
X65500Y-7700500D01*
X261620Y-7685803D01*
X261622Y-7685802D01*
X261630Y-7685802D01*
X517416Y-7627420D01*
X761643Y-7531568D01*
X988857Y-7400386D01*
X1193981Y-7236805D01*
X1208137Y-7221549D01*
X1251601Y-7174705D01*
X1311629Y-7138950D01*
X1381458Y-7141325D01*
X1438919Y-7181075D01*
X1465767Y-7245580D01*
X1466500Y-7259046D01*
X1466500Y-7298654D01*
X1473011Y-7359202D01*
X1473011Y-7359204D01*
X1509161Y-7456123D01*
X1524111Y-7496204D01*
X1611739Y-7613261D01*
X1728796Y-7700889D01*
X1865799Y-7751989D01*
X1893050Y-7754918D01*
X1926345Y-7758499D01*
X1926362Y-7758500D01*
X4623638Y-7758500D01*
X4623654Y-7758499D01*
X4650692Y-7755591D01*
X4684201Y-7751989D01*
X4821204Y-7700889D01*
X4938261Y-7613261D01*
X5025889Y-7496204D01*
X5076989Y-7359201D01*
X5080591Y-7325692D01*
X5083499Y-7298654D01*
X5083500Y-7298637D01*
X5083500Y-4601362D01*
X5083499Y-4601345D01*
X5078890Y-4558484D01*
X5076989Y-4540799D01*
X5025889Y-4403796D01*
X4938261Y-4286739D01*
X4821204Y-4199111D01*
X4684203Y-4148011D01*
X4623654Y-4141500D01*
X4623638Y-4141500D01*
X4032500Y-4141500D01*
X3965461Y-4121815D01*
X3919706Y-4069011D01*
X3908500Y-4017500D01*
X3908500Y-3938766D01*
X3928185Y-3871727D01*
X3944819Y-3851085D01*
X4301086Y-3494819D01*
X4362409Y-3461334D01*
X4388767Y-3458500D01*
X4648638Y-3458500D01*
X4648654Y-3458499D01*
X4675692Y-3455591D01*
X4709201Y-3451989D01*
X4709207Y-3451987D01*
X4737288Y-3441513D01*
X4846204Y-3400889D01*
X4963261Y-3313261D01*
X5050889Y-3196204D01*
X5101989Y-3059201D01*
X5107271Y-3010072D01*
X5108499Y-2998654D01*
X5108500Y-2998637D01*
X5108500Y-2457500D01*
X5128185Y-2390461D01*
X5180989Y-2344706D01*
X5232500Y-2333500D01*
X8979185Y-2333500D01*
X9046224Y-2353185D01*
X9091979Y-2405989D01*
X9101923Y-2475147D01*
X9072898Y-2538703D01*
X9071335Y-2540472D01*
X8960959Y-2663057D01*
X8865473Y-2828443D01*
X8865470Y-2828450D01*
X8810173Y-2998637D01*
X8806458Y-3010072D01*
X8786496Y-3200000D01*
X8806458Y-3389928D01*
X8806459Y-3389931D01*
X8865470Y-3571549D01*
X8865473Y-3571556D01*
X8960960Y-3736944D01*
X9088747Y-3878866D01*
X9243248Y-3991118D01*
X9417712Y-4068794D01*
X9604513Y-4108500D01*
X9795487Y-4108500D01*
X9982288Y-4068794D01*
X10156752Y-3991118D01*
X10311253Y-3878866D01*
X10315159Y-3874527D01*
X10374646Y-3837879D01*
X10407309Y-3833500D01*
X24716366Y-3833500D01*
X24732113Y-3835238D01*
X24732139Y-3834968D01*
X24739905Y-3835701D01*
X24739909Y-3835702D01*
X24809958Y-3833500D01*
X24839856Y-3833500D01*
X24839857Y-3833500D01*
X24841222Y-3833327D01*
X24846862Y-3832614D01*
X24852685Y-3832156D01*
X24878708Y-3831338D01*
X24899890Y-3830673D01*
X24909681Y-3827827D01*
X24919481Y-3824980D01*
X24938538Y-3821032D01*
X24958797Y-3818474D01*
X25002721Y-3801082D01*
X25008221Y-3799199D01*
X25053593Y-3786018D01*
X25071165Y-3775625D01*
X25088632Y-3767068D01*
X25107617Y-3759552D01*
X25145826Y-3731790D01*
X25150704Y-3728585D01*
X25191362Y-3704542D01*
X25205802Y-3690100D01*
X25220592Y-3677470D01*
X25237107Y-3665472D01*
X25267222Y-3629067D01*
X25271126Y-3624776D01*
X31526085Y2630181D01*
X31587408Y2663666D01*
X31613766Y2666500D01*
X54498060Y2666500D01*
X54565099Y2646815D01*
X54585740Y2630182D01*
X54640196Y2575726D01*
X54729743Y2486178D01*
X54739642Y2473821D01*
X54739852Y2473994D01*
X54744823Y2467985D01*
X54795906Y2420015D01*
X54817049Y2398872D01*
X54817066Y2398857D01*
X54822641Y2394531D01*
X54827071Y2390747D01*
X54861498Y2358419D01*
X54861508Y2358412D01*
X54879394Y2348579D01*
X54895647Y2337903D01*
X54911784Y2325386D01*
X54911786Y2325385D01*
X54955137Y2306625D01*
X54960383Y2304055D01*
X55001769Y2281303D01*
X55021547Y2276225D01*
X55039949Y2269925D01*
X55058684Y2261818D01*
X55105322Y2254431D01*
X55111043Y2253246D01*
X55156792Y2241500D01*
X55156797Y2241500D01*
X55177211Y2241500D01*
X55196610Y2239973D01*
X55216768Y2236780D01*
X55216769Y2236780D01*
X55216770Y2236780D01*
X55263793Y2241225D01*
X55269631Y2241500D01*
X58627692Y2241500D01*
X58694731Y2221815D01*
X58740486Y2169011D01*
X58746768Y2152095D01*
X58765853Y2086403D01*
X58765854Y2086400D01*
X58850544Y1943196D01*
X58850551Y1943187D01*
X58968187Y1825551D01*
X58968196Y1825544D01*
X59111398Y1740855D01*
X59111403Y1740853D01*
X59271164Y1694438D01*
X59271170Y1694437D01*
X59308495Y1691500D01*
X59308498Y1691500D01*
X60691505Y1691500D01*
X60728829Y1694437D01*
X60728835Y1694438D01*
X60888596Y1740853D01*
X60888601Y1740855D01*
X60898041Y1746438D01*
X61010486Y1812938D01*
X61078210Y1830121D01*
X61136713Y1810555D01*
X61137622Y1812130D01*
X61143247Y1808881D01*
X61317714Y1731205D01*
X61317713Y1731205D01*
X61504513Y1691500D01*
X61695483Y1691500D01*
X61695487Y1691500D01*
X61766719Y1706641D01*
X61836386Y1701324D01*
X61892119Y1659186D01*
X61916224Y1593606D01*
X61916499Y1585350D01*
X61916499Y901362D01*
X61916500Y901345D01*
X61923011Y840797D01*
X61923011Y840795D01*
X61974111Y703795D01*
X62061739Y586739D01*
X62178795Y499111D01*
X62315796Y448011D01*
X62376345Y441500D01*
X62376362Y441500D01*
X65073654Y441500D01*
X65134202Y448011D01*
X65134204Y448011D01*
X65271204Y499111D01*
X65291358Y514198D01*
X65388261Y586739D01*
X65475889Y703796D01*
X65512050Y800747D01*
X65526988Y840795D01*
X65526988Y840797D01*
X65526989Y840799D01*
X65530423Y872740D01*
X65533499Y901345D01*
X65533498Y901352D01*
X65533500Y901362D01*
X65533499Y940953D01*
X65553182Y1007990D01*
X65605985Y1053746D01*
X65675143Y1063691D01*
X65738700Y1034668D01*
X65748397Y1025295D01*
X65806014Y963199D01*
X65806018Y963195D01*
X65806019Y963195D01*
X65959499Y840799D01*
X66011143Y799614D01*
X66238356Y668432D01*
X66482578Y572582D01*
X66482597Y572576D01*
X66738374Y514197D01*
X66738379Y514196D01*
X66934500Y499500D01*
X66934506Y499500D01*
X67065500Y499500D01*
X67261620Y514196D01*
X67261625Y514197D01*
X67261629Y514197D01*
X67261630Y514198D01*
X67299818Y522914D01*
X67517402Y572576D01*
X67517411Y572578D01*
X67517416Y572580D01*
X67761643Y668432D01*
X67988857Y799614D01*
X68193981Y963195D01*
X68193985Y963198D01*
X68372432Y1155520D01*
X68372433Y1155521D01*
X68520228Y1372296D01*
X68520231Y1372302D01*
X68520232Y1372303D01*
X68634061Y1608673D01*
X68634063Y1608677D01*
X68711396Y1859385D01*
X68750500Y2118818D01*
X68750500Y2381182D01*
X68711396Y2640615D01*
X68634063Y2891323D01*
X68520228Y3127704D01*
X68372433Y3344479D01*
X68359739Y3358159D01*
X68328571Y3420690D01*
X68336158Y3490147D01*
X68380091Y3544476D01*
X68446422Y3566428D01*
X68450638Y3566500D01*
X68766280Y3566500D01*
X68833319Y3546815D01*
X68879074Y3494011D01*
X68889600Y3429539D01*
X68886496Y3400000D01*
X68906458Y3210072D01*
X68906458Y3210069D01*
X68906459Y3210068D01*
X68965470Y3028450D01*
X68965473Y3028443D01*
X69060959Y2863057D01*
X69188745Y2721135D01*
X69343246Y2608883D01*
X69517714Y2531205D01*
X69517713Y2531205D01*
X69704513Y2491500D01*
X69895487Y2491500D01*
X70082285Y2531205D01*
X70082286Y2531205D01*
X70082288Y2531206D01*
X70256752Y2608882D01*
X70411253Y2721134D01*
X70415160Y2725473D01*
X70474646Y2762121D01*
X70507309Y2766500D01*
X74114961Y2766500D01*
X74182000Y2746815D01*
X74214229Y2716809D01*
X74236735Y2686743D01*
X74236738Y2686740D01*
X74353795Y2599111D01*
X74490796Y2548011D01*
X74551345Y2541500D01*
X74551362Y2541500D01*
X75248654Y2541500D01*
X75309202Y2548011D01*
X75309204Y2548011D01*
X75446206Y2599111D01*
X75446206Y2599112D01*
X75468191Y2615569D01*
X75533656Y2639985D01*
X75601929Y2625132D01*
X75651333Y2575726D01*
X75666500Y2516301D01*
X75666500Y1982500D01*
X75646815Y1915461D01*
X75594011Y1869706D01*
X75542500Y1858500D01*
X73926362Y1858500D01*
X73926345Y1858499D01*
X73895270Y1855157D01*
X73865799Y1851989D01*
X73865796Y1851988D01*
X73865795Y1851988D01*
X73807169Y1830121D01*
X73728796Y1800889D01*
X73611739Y1713261D01*
X73533448Y1608677D01*
X73524111Y1596204D01*
X73473011Y1459204D01*
X73473011Y1459202D01*
X73466500Y1398654D01*
X73466500Y1359046D01*
X73446815Y1292007D01*
X73394011Y1246252D01*
X73324853Y1236308D01*
X73261297Y1265333D01*
X73251601Y1274705D01*
X73230091Y1297887D01*
X73193981Y1336805D01*
X72988857Y1500386D01*
X72761643Y1631568D01*
X72517416Y1727420D01*
X72261630Y1785802D01*
X72261622Y1785802D01*
X72261620Y1785803D01*
X72065500Y1800500D01*
X72065494Y1800500D01*
X71934506Y1800500D01*
X71934500Y1800500D01*
X71738379Y1785803D01*
X71738376Y1785802D01*
X71738370Y1785802D01*
X71482584Y1727420D01*
X71238357Y1631568D01*
X71011143Y1500386D01*
X70813431Y1342716D01*
X70806014Y1336801D01*
X70631790Y1149030D01*
X70627567Y1144479D01*
X70479772Y927704D01*
X70479770Y927700D01*
X70479768Y927697D01*
X70479767Y927696D01*
X70365938Y691326D01*
X70300920Y480542D01*
X70288604Y440615D01*
X70276735Y361871D01*
X70249500Y181187D01*
X70249500Y-81187D01*
X70264068Y-177834D01*
X70288604Y-340615D01*
X70288605Y-340617D01*
X70288606Y-340623D01*
X70365938Y-591326D01*
X70479767Y-827696D01*
X70479768Y-827697D01*
X70479770Y-827700D01*
X70479772Y-827704D01*
X70627566Y-1044479D01*
X70627567Y-1044479D01*
X70806014Y-1236801D01*
X70806018Y-1236804D01*
X70806019Y-1236805D01*
X71011143Y-1400386D01*
X71238357Y-1531568D01*
X71482584Y-1627420D01*
X71738370Y-1685802D01*
X71738376Y-1685802D01*
X71738379Y-1685803D01*
X71934500Y-1700500D01*
X71934506Y-1700500D01*
X72065500Y-1700500D01*
X72261620Y-1685803D01*
X72261622Y-1685802D01*
X72261630Y-1685802D01*
X72517416Y-1627420D01*
X72761643Y-1531568D01*
X72988857Y-1400386D01*
X73193981Y-1236805D01*
X73196099Y-1234523D01*
X73251601Y-1174705D01*
X73311629Y-1138950D01*
X73381458Y-1141325D01*
X73438919Y-1181075D01*
X73465767Y-1245580D01*
X73466500Y-1259046D01*
X73466500Y-1298654D01*
X73473011Y-1359202D01*
X73473011Y-1359204D01*
X73509161Y-1456123D01*
X73524111Y-1496204D01*
X73611739Y-1613261D01*
X73728796Y-1700889D01*
X73865799Y-1751989D01*
X73893050Y-1754918D01*
X73926345Y-1758499D01*
X73926362Y-1758500D01*
X76623638Y-1758500D01*
X76623654Y-1758499D01*
X76650692Y-1755591D01*
X76684201Y-1751989D01*
X76821204Y-1700889D01*
X76938261Y-1613261D01*
X77025889Y-1496204D01*
X77076989Y-1359201D01*
X77080591Y-1325692D01*
X77083499Y-1298654D01*
X77083500Y-1298637D01*
X77083500Y1398637D01*
X77083499Y1398654D01*
X77080591Y1425692D01*
X77076989Y1459201D01*
X77065937Y1488831D01*
X77047414Y1538494D01*
X77025889Y1596204D01*
X76958233Y1686580D01*
X76933816Y1752044D01*
X76933500Y1760891D01*
X76933500Y2605712D01*
X76953185Y2672751D01*
X76958233Y2680023D01*
X76963262Y2686740D01*
X77050889Y2803796D01*
X77101989Y2940799D01*
X77107271Y2989928D01*
X77108499Y3001345D01*
X77108500Y3001362D01*
X77108500Y3798637D01*
X77108499Y3798654D01*
X77104936Y3831792D01*
X77101989Y3859201D01*
X77050889Y3996204D01*
X76963261Y4113261D01*
X76846204Y4200889D01*
X76709201Y4251989D01*
X76677623Y4255383D01*
X76648654Y4258499D01*
X76648638Y4258500D01*
X75951362Y4258500D01*
X75951345Y4258499D01*
X75920270Y4255157D01*
X75890799Y4251989D01*
X75890796Y4251988D01*
X75890795Y4251988D01*
X75753793Y4200888D01*
X75753792Y4200887D01*
X75674311Y4141387D01*
X75608847Y4116969D01*
X75540574Y4131820D01*
X75525689Y4141387D01*
X75446207Y4200887D01*
X75446206Y4200888D01*
X75446204Y4200888D01*
X75446204Y4200889D01*
X75309201Y4251989D01*
X75277623Y4255383D01*
X75248654Y4258499D01*
X75248638Y4258500D01*
X75220082Y4258500D01*
X75153043Y4278185D01*
X75107288Y4330989D01*
X75097344Y4400147D01*
X75126369Y4463703D01*
X75132401Y4470181D01*
X76279847Y5617627D01*
X76341170Y5651112D01*
X76410862Y5646128D01*
X76466795Y5604256D01*
X76480322Y5581458D01*
X76541818Y5446800D01*
X76541824Y5446789D01*
X76663826Y5275460D01*
X76663832Y5275454D01*
X76816060Y5130305D01*
X76816061Y5130304D01*
X76816063Y5130303D01*
X76875779Y5091926D01*
X76993015Y5016583D01*
X77188278Y4938410D01*
X77188291Y4938406D01*
X77394828Y4898600D01*
X77394829Y4898600D01*
X77552461Y4898600D01*
X77552468Y4898600D01*
X77709389Y4913584D01*
X77884497Y4965000D01*
X77911208Y4972843D01*
X77911211Y4972844D01*
X78098170Y5069229D01*
X78226257Y5169957D01*
X78263509Y5199252D01*
X78263510Y5199253D01*
X78306436Y5248792D01*
X78401255Y5358219D01*
X78401257Y5358222D01*
X78401259Y5358225D01*
X78506425Y5540379D01*
X78575220Y5739148D01*
X78575222Y5739154D01*
X78605157Y5947355D01*
X78595148Y6157459D01*
X78545558Y6361871D01*
X78458179Y6553205D01*
X78355030Y6698058D01*
X78336173Y6724539D01*
X78336171Y6724541D01*
X78336169Y6724544D01*
X78196977Y6857262D01*
X78162043Y6917770D01*
X78165367Y6987561D01*
X78205895Y7044475D01*
X78209661Y7047323D01*
X78213391Y7050033D01*
X78311253Y7121134D01*
X78311593Y7121511D01*
X78372339Y7188977D01*
X78439040Y7263056D01*
X78534527Y7428444D01*
X78593542Y7610072D01*
X78613504Y7800000D01*
X78593542Y7989928D01*
X78534527Y8171556D01*
X78439040Y8336944D01*
X78311253Y8478866D01*
X78156752Y8591118D01*
X77982288Y8668794D01*
X77795487Y8708500D01*
X77604513Y8708500D01*
X77417712Y8668794D01*
X77243248Y8591118D01*
X77088747Y8478866D01*
X76960960Y8336944D01*
X76915088Y8257491D01*
X76865473Y8171556D01*
X76865470Y8171549D01*
X76806459Y7989932D01*
X76806457Y7989923D01*
X76804718Y7973381D01*
X76778131Y7908767D01*
X76769079Y7898667D01*
X76207444Y7337032D01*
X76146121Y7303547D01*
X76076429Y7308531D01*
X76020496Y7350403D01*
X75996079Y7415867D01*
X75996441Y7437661D01*
X76013504Y7600000D01*
X75993542Y7789928D01*
X75934527Y7971556D01*
X75839040Y8136944D01*
X75711253Y8278866D01*
X75556752Y8391118D01*
X75382288Y8468794D01*
X75195487Y8508500D01*
X75138834Y8508500D01*
X75071795Y8528185D01*
X75053966Y8542093D01*
X75051427Y8544477D01*
X75040932Y8554972D01*
X75030270Y8565635D01*
X75024692Y8569961D01*
X75020255Y8573750D01*
X74985821Y8606086D01*
X74967932Y8615919D01*
X74951669Y8626602D01*
X74935541Y8639114D01*
X74892191Y8657871D01*
X74886947Y8660441D01*
X74845564Y8683193D01*
X74845563Y8683193D01*
X74845560Y8683195D01*
X74825773Y8688274D01*
X74807385Y8694570D01*
X74788645Y8702681D01*
X74749512Y8708878D01*
X74741997Y8710069D01*
X74736286Y8711251D01*
X74690530Y8723000D01*
X74690528Y8723000D01*
X74670116Y8723000D01*
X74650717Y8724527D01*
X74649378Y8724739D01*
X74630557Y8727720D01*
X74584293Y8723346D01*
X74583534Y8723275D01*
X74577696Y8723000D01*
X71218132Y8723000D01*
X71202380Y8724739D01*
X71202355Y8724468D01*
X71194599Y8725200D01*
X71194592Y8725202D01*
X71124529Y8723000D01*
X71094645Y8723000D01*
X71087642Y8722114D01*
X71081825Y8721657D01*
X71034612Y8720174D01*
X71015000Y8714476D01*
X70995967Y8710533D01*
X70975704Y8707974D01*
X70931787Y8690585D01*
X70926267Y8688696D01*
X70880908Y8675518D01*
X70863336Y8665126D01*
X70845866Y8656567D01*
X70826884Y8649052D01*
X70795992Y8626607D01*
X70788682Y8621296D01*
X70783797Y8618087D01*
X70767372Y8608373D01*
X70743139Y8594042D01*
X70743137Y8594040D01*
X70743131Y8594035D01*
X70728703Y8579607D01*
X70713906Y8566969D01*
X70697394Y8554972D01*
X70697393Y8554972D01*
X70667287Y8518579D01*
X70663364Y8514267D01*
X70649986Y8500889D01*
X70646416Y8497319D01*
X70585093Y8463834D01*
X70558735Y8461000D01*
X64207500Y8461000D01*
X64140461Y8480685D01*
X64094706Y8533489D01*
X64083500Y8585000D01*
X64083500Y11098637D01*
X64083499Y11098654D01*
X64080591Y11125692D01*
X64076989Y11159201D01*
X64025889Y11296204D01*
X63938261Y11413261D01*
X63821204Y11500889D01*
X63684201Y11551989D01*
X63652623Y11555383D01*
X63623654Y11558499D01*
X63623638Y11558500D01*
X60926362Y11558500D01*
X60926345Y11558499D01*
X60895270Y11555157D01*
X60865799Y11551989D01*
X60865796Y11551988D01*
X60865795Y11551988D01*
X60809496Y11530989D01*
X60728796Y11500889D01*
X60611739Y11413261D01*
X60533448Y11308677D01*
X60524111Y11296204D01*
X60473011Y11159204D01*
X60473011Y11159202D01*
X60466500Y11098654D01*
X60466500Y11059046D01*
X60446815Y10992007D01*
X60394011Y10946252D01*
X60324853Y10936308D01*
X60261297Y10965333D01*
X60251601Y10974705D01*
X60193985Y11036801D01*
X60193983Y11036801D01*
X60193981Y11036805D01*
X59988857Y11200386D01*
X59761643Y11331568D01*
X59517416Y11427420D01*
X59261630Y11485802D01*
X59261622Y11485802D01*
X59261620Y11485803D01*
X59065500Y11500500D01*
X59065494Y11500500D01*
X58934506Y11500500D01*
X58934500Y11500500D01*
X58738379Y11485803D01*
X58738376Y11485802D01*
X58738370Y11485802D01*
X58482584Y11427420D01*
X58238357Y11331568D01*
X58011143Y11200386D01*
X57819653Y11047678D01*
X57806014Y11036801D01*
X57630513Y10847654D01*
X57627567Y10844479D01*
X57479772Y10627704D01*
X57479770Y10627700D01*
X57479768Y10627697D01*
X57479767Y10627696D01*
X57365938Y10391326D01*
X57300399Y10178852D01*
X57288604Y10140615D01*
X57270075Y10017688D01*
X57249500Y9881187D01*
X57249500Y9618812D01*
X57262887Y9530000D01*
X57288604Y9359385D01*
X57288605Y9359382D01*
X57288606Y9359376D01*
X57365938Y9108673D01*
X57479767Y8872303D01*
X57479768Y8872302D01*
X57479771Y8872296D01*
X57479772Y8872296D01*
X57627567Y8655521D01*
X57627570Y8655517D01*
X57628024Y8654852D01*
X57649524Y8588372D01*
X57631670Y8520822D01*
X57580130Y8473648D01*
X57525570Y8461000D01*
X55441265Y8461000D01*
X55374226Y8480685D01*
X55353584Y8497319D01*
X55231331Y8619572D01*
X54862088Y8988813D01*
X54852185Y9001177D01*
X54851975Y9001003D01*
X54847001Y9007015D01*
X54847000Y9007015D01*
X54846999Y9007018D01*
X54795919Y9054984D01*
X54774769Y9076135D01*
X54769191Y9080461D01*
X54764754Y9084250D01*
X54730320Y9116586D01*
X54712431Y9126419D01*
X54696168Y9137102D01*
X54680040Y9149614D01*
X54636690Y9168371D01*
X54631446Y9170941D01*
X54627735Y9172981D01*
X54617985Y9178341D01*
X54590063Y9193693D01*
X54590062Y9193693D01*
X54590059Y9193695D01*
X54570272Y9198774D01*
X54551884Y9205070D01*
X54533144Y9213181D01*
X54494011Y9219378D01*
X54486496Y9220569D01*
X54480785Y9221751D01*
X54435029Y9233500D01*
X54435027Y9233500D01*
X54414615Y9233500D01*
X54395216Y9235027D01*
X54394739Y9235102D01*
X54375056Y9238220D01*
X54328792Y9233846D01*
X54328033Y9233775D01*
X54322195Y9233500D01*
X51885039Y9233500D01*
X51818000Y9253185D01*
X51785771Y9283191D01*
X51778031Y9293530D01*
X51763261Y9313261D01*
X51646204Y9400889D01*
X51509201Y9451989D01*
X51477623Y9455383D01*
X51448654Y9458499D01*
X51448638Y9458500D01*
X50751362Y9458500D01*
X50751345Y9458499D01*
X50720270Y9455157D01*
X50690799Y9451989D01*
X50690796Y9451988D01*
X50690795Y9451988D01*
X50630564Y9429522D01*
X50553796Y9400889D01*
X50553795Y9400888D01*
X50531811Y9384431D01*
X50466347Y9360014D01*
X50398074Y9374865D01*
X50348668Y9424271D01*
X50333500Y9483698D01*
X50333500Y10017500D01*
X50353185Y10084539D01*
X50405989Y10130294D01*
X50457500Y10141500D01*
X52073654Y10141500D01*
X52134202Y10148011D01*
X52134204Y10148011D01*
X52271204Y10199111D01*
X52369341Y10272576D01*
X52388261Y10286739D01*
X52475889Y10403796D01*
X52526989Y10540799D01*
X52530157Y10570270D01*
X52533499Y10601345D01*
X52533498Y10601352D01*
X52533500Y10601362D01*
X52533499Y10640953D01*
X52553182Y10707990D01*
X52605985Y10753746D01*
X52675143Y10763691D01*
X52738700Y10734668D01*
X52748397Y10725295D01*
X52806014Y10663199D01*
X53011143Y10499614D01*
X53238356Y10368432D01*
X53482578Y10272582D01*
X53482597Y10272576D01*
X53738374Y10214197D01*
X53738379Y10214196D01*
X53934500Y10199500D01*
X53934506Y10199500D01*
X54065500Y10199500D01*
X54261620Y10214196D01*
X54261625Y10214197D01*
X54261629Y10214197D01*
X54261630Y10214198D01*
X54299818Y10222914D01*
X54517402Y10272576D01*
X54517411Y10272578D01*
X54517416Y10272580D01*
X54761643Y10368432D01*
X54988857Y10499614D01*
X55193981Y10663195D01*
X55193985Y10663198D01*
X55364458Y10846926D01*
X55372433Y10855521D01*
X55520228Y11072296D01*
X55520231Y11072302D01*
X55520232Y11072303D01*
X55634061Y11308673D01*
X55634063Y11308677D01*
X55711396Y11559385D01*
X55750500Y11818818D01*
X55750500Y12081182D01*
X55711396Y12340615D01*
X55634063Y12591323D01*
X55520228Y12827704D01*
X55372433Y13044479D01*
X55194649Y13236085D01*
X55193985Y13236801D01*
X55193983Y13236801D01*
X55193981Y13236805D01*
X54988857Y13400386D01*
X54761643Y13531568D01*
X54582002Y13602072D01*
X54526788Y13644888D01*
X54503487Y13710758D01*
X54519498Y13778768D01*
X54569736Y13827327D01*
X54627304Y13841500D01*
X54648654Y13841500D01*
X54709202Y13848011D01*
X54709204Y13848011D01*
X54846204Y13899111D01*
X54875623Y13921134D01*
X54963261Y13986739D01*
X55050889Y14103796D01*
X55086916Y14200386D01*
X55101988Y14240795D01*
X55101988Y14240797D01*
X55101989Y14240799D01*
X55105189Y14270567D01*
X55108499Y14301345D01*
X55108500Y14301362D01*
X55108500Y16198637D01*
X55108499Y16198654D01*
X55104397Y16236801D01*
X55101989Y16259201D01*
X55050889Y16396204D01*
X54963261Y16513261D01*
X54846204Y16600889D01*
X54709201Y16651989D01*
X54677623Y16655383D01*
X54648654Y16658499D01*
X54648638Y16658500D01*
X53351362Y16658500D01*
X53351345Y16658499D01*
X53320270Y16655157D01*
X53290799Y16651989D01*
X53290796Y16651988D01*
X53290795Y16651988D01*
X53253639Y16638129D01*
X53153796Y16600889D01*
X53036739Y16513261D01*
X52958448Y16408677D01*
X52949111Y16396204D01*
X52898011Y16259204D01*
X52898011Y16259202D01*
X52891500Y16198654D01*
X52891500Y16066590D01*
X52871815Y15999551D01*
X52819011Y15953796D01*
X52749853Y15943852D01*
X52717067Y15953309D01*
X52682288Y15968794D01*
X52495487Y16008500D01*
X52304513Y16008500D01*
X52117712Y15968794D01*
X51943248Y15891118D01*
X51788747Y15778866D01*
X51660960Y15636944D01*
X51634622Y15591326D01*
X51565473Y15471556D01*
X51565470Y15471549D01*
X51514343Y15314196D01*
X51506458Y15289928D01*
X51486496Y15100000D01*
X51506458Y14910072D01*
X51506458Y14910069D01*
X51506459Y14910068D01*
X51565470Y14728450D01*
X51565473Y14728443D01*
X51660959Y14563057D01*
X51788745Y14421135D01*
X51943246Y14308883D01*
X51943247Y14308882D01*
X51943248Y14308882D01*
X52029305Y14270567D01*
X52117714Y14231205D01*
X52117713Y14231205D01*
X52304513Y14191500D01*
X52495487Y14191500D01*
X52682285Y14231205D01*
X52682286Y14231205D01*
X52682288Y14231206D01*
X52749842Y14261283D01*
X52819092Y14270567D01*
X52882369Y14240938D01*
X52916458Y14191338D01*
X52949111Y14103795D01*
X53036739Y13986739D01*
X53153795Y13899111D01*
X53290796Y13848011D01*
X53351345Y13841500D01*
X53372696Y13841500D01*
X53439735Y13821815D01*
X53485490Y13769011D01*
X53495434Y13699853D01*
X53466409Y13636297D01*
X53417998Y13602072D01*
X53238357Y13531568D01*
X53011143Y13400386D01*
X52806019Y13236805D01*
X52806017Y13236803D01*
X52806012Y13236799D01*
X52806009Y13236796D01*
X52748397Y13174705D01*
X52688369Y13138950D01*
X52618540Y13141325D01*
X52561080Y13181076D01*
X52534232Y13245581D01*
X52533499Y13259032D01*
X52533500Y13298638D01*
X52533498Y13298647D01*
X52533499Y13298654D01*
X52528180Y13348121D01*
X52526989Y13359201D01*
X52475889Y13496204D01*
X52388261Y13613261D01*
X52271204Y13700889D01*
X52134201Y13751989D01*
X52102623Y13755383D01*
X52073654Y13758499D01*
X52073638Y13758500D01*
X50030929Y13758500D01*
X49963890Y13778185D01*
X49918135Y13830989D01*
X49908191Y13900147D01*
X49937216Y13963703D01*
X49956612Y13981762D01*
X49963261Y13986739D01*
X50050889Y14103796D01*
X50086916Y14200386D01*
X50101988Y14240795D01*
X50101988Y14240797D01*
X50101989Y14240799D01*
X50105189Y14270567D01*
X50108499Y14301345D01*
X50108500Y14301362D01*
X50108500Y16198637D01*
X50108499Y16198654D01*
X50104397Y16236801D01*
X50101989Y16259201D01*
X50050889Y16396204D01*
X49963261Y16513261D01*
X49846204Y16600889D01*
X49709201Y16651989D01*
X49677623Y16655383D01*
X49648654Y16658499D01*
X49648638Y16658500D01*
X48351362Y16658500D01*
X48351345Y16658499D01*
X48320270Y16655157D01*
X48290799Y16651989D01*
X48290796Y16651988D01*
X48290795Y16651988D01*
X48253639Y16638129D01*
X48153796Y16600889D01*
X48036739Y16513261D01*
X47958448Y16408677D01*
X47949111Y16396204D01*
X47898011Y16259204D01*
X47898011Y16259202D01*
X47891500Y16198654D01*
X47891500Y14301345D01*
X47898011Y14240797D01*
X47898011Y14240795D01*
X47949111Y14103795D01*
X48036739Y13986739D01*
X48153795Y13899111D01*
X48290796Y13848011D01*
X48351345Y13841500D01*
X48994071Y13841500D01*
X49061110Y13821815D01*
X49106865Y13769011D01*
X49116809Y13699853D01*
X49087784Y13636297D01*
X49068387Y13618237D01*
X49061739Y13613261D01*
X48998836Y13529232D01*
X48974111Y13496204D01*
X48923011Y13359204D01*
X48923011Y13359202D01*
X48916500Y13298654D01*
X48916500Y10601345D01*
X48923011Y10540797D01*
X48923011Y10540795D01*
X48974112Y10403793D01*
X49041767Y10313417D01*
X49066184Y10247953D01*
X49066500Y10239107D01*
X49066500Y9394288D01*
X49046815Y9327249D01*
X49041767Y9319977D01*
X49036739Y9313261D01*
X49000000Y9264183D01*
X48951539Y9199447D01*
X48949111Y9196204D01*
X48948784Y9195327D01*
X48948222Y9194577D01*
X48944863Y9188424D01*
X48943978Y9188907D01*
X48906915Y9139395D01*
X48841451Y9114977D01*
X48773178Y9129828D01*
X48744926Y9150976D01*
X47281186Y10614716D01*
X47271285Y10627078D01*
X47271075Y10626904D01*
X47266102Y10632913D01*
X47266100Y10632918D01*
X47215021Y10680883D01*
X47193870Y10702035D01*
X47188292Y10706361D01*
X47183855Y10710150D01*
X47149421Y10742486D01*
X47131532Y10752319D01*
X47115269Y10763002D01*
X47099141Y10775514D01*
X47055791Y10794271D01*
X47050547Y10796841D01*
X47009164Y10819593D01*
X47009163Y10819593D01*
X47009160Y10819595D01*
X46989373Y10824674D01*
X46970985Y10830970D01*
X46952245Y10839081D01*
X46913112Y10845278D01*
X46905597Y10846469D01*
X46899886Y10847651D01*
X46854130Y10859400D01*
X46854128Y10859400D01*
X46833716Y10859400D01*
X46814317Y10860927D01*
X46813840Y10861002D01*
X46794157Y10864120D01*
X46747893Y10859746D01*
X46747134Y10859675D01*
X46741296Y10859400D01*
X46007132Y10859400D01*
X45940093Y10879085D01*
X45894338Y10931889D01*
X45884394Y11001047D01*
X45913419Y11064603D01*
X45932814Y11082661D01*
X45938261Y11086739D01*
X46025889Y11203796D01*
X46062692Y11302468D01*
X46076988Y11340795D01*
X46076988Y11340797D01*
X46076989Y11340799D01*
X46081693Y11384552D01*
X46083499Y11401345D01*
X46083500Y11401362D01*
X46083500Y14098637D01*
X46083499Y14098654D01*
X46079402Y14136758D01*
X46076989Y14159201D01*
X46025889Y14296204D01*
X45938261Y14413261D01*
X45821204Y14500889D01*
X45684201Y14551989D01*
X45652623Y14555383D01*
X45623654Y14558499D01*
X45623638Y14558500D01*
X42926362Y14558500D01*
X42926345Y14558499D01*
X42895270Y14555157D01*
X42865799Y14551989D01*
X42865796Y14551988D01*
X42865795Y14551988D01*
X42805564Y14529522D01*
X42728796Y14500889D01*
X42611739Y14413261D01*
X42540053Y14317500D01*
X42524111Y14296204D01*
X42473011Y14159204D01*
X42473011Y14159202D01*
X42466500Y14098654D01*
X42466500Y14059046D01*
X42446815Y13992007D01*
X42394011Y13946252D01*
X42324853Y13936308D01*
X42261297Y13965333D01*
X42251601Y13974705D01*
X42193985Y14036801D01*
X42193983Y14036801D01*
X42193981Y14036805D01*
X41988857Y14200386D01*
X41761643Y14331568D01*
X41517416Y14427420D01*
X41261630Y14485802D01*
X41261622Y14485802D01*
X41261620Y14485803D01*
X41065500Y14500500D01*
X41065494Y14500500D01*
X40934506Y14500500D01*
X40934500Y14500500D01*
X40738379Y14485803D01*
X40738376Y14485802D01*
X40738370Y14485802D01*
X40482584Y14427420D01*
X40238357Y14331568D01*
X40011143Y14200386D01*
X39806019Y14036805D01*
X39806014Y14036801D01*
X39635645Y13853185D01*
X39627567Y13844479D01*
X39479772Y13627704D01*
X39479770Y13627700D01*
X39479768Y13627697D01*
X39479767Y13627696D01*
X39365938Y13391326D01*
X39301085Y13181076D01*
X39288604Y13140615D01*
X39281325Y13092323D01*
X39249500Y12881187D01*
X39249500Y12618812D01*
X39264143Y12521671D01*
X39286102Y12375979D01*
X39276630Y12306758D01*
X39231236Y12253643D01*
X39164332Y12233503D01*
X39163488Y12233500D01*
X33885039Y12233500D01*
X33818000Y12253185D01*
X33785771Y12283191D01*
X33774152Y12298712D01*
X33763261Y12313261D01*
X33646204Y12400889D01*
X33509201Y12451989D01*
X33477623Y12455383D01*
X33448654Y12458499D01*
X33448638Y12458500D01*
X32751362Y12458500D01*
X32751345Y12458499D01*
X32720270Y12455157D01*
X32690799Y12451989D01*
X32690796Y12451988D01*
X32690795Y12451988D01*
X32630564Y12429522D01*
X32553796Y12400889D01*
X32531811Y12384431D01*
X32466347Y12360014D01*
X32398074Y12374865D01*
X32348668Y12424271D01*
X32333500Y12483698D01*
X32333500Y13017500D01*
X32353185Y13084539D01*
X32405989Y13130294D01*
X32457500Y13141500D01*
X34073654Y13141500D01*
X34134202Y13148011D01*
X34134204Y13148011D01*
X34271204Y13199111D01*
X34316847Y13233279D01*
X34388261Y13286739D01*
X34475889Y13403796D01*
X34523546Y13531568D01*
X34526988Y13540795D01*
X34526988Y13540797D01*
X34526989Y13540799D01*
X34532415Y13591268D01*
X34533499Y13601345D01*
X34533500Y13601362D01*
X34533500Y13640953D01*
X34553185Y13707992D01*
X34605989Y13753747D01*
X34675147Y13763691D01*
X34738703Y13734666D01*
X34748398Y13725294D01*
X34806009Y13663203D01*
X34806012Y13663200D01*
X35011143Y13499614D01*
X35238356Y13368432D01*
X35482578Y13272582D01*
X35482597Y13272576D01*
X35738374Y13214197D01*
X35738379Y13214196D01*
X35934500Y13199500D01*
X35934506Y13199500D01*
X36065500Y13199500D01*
X36261620Y13214196D01*
X36261625Y13214197D01*
X36261629Y13214197D01*
X36261630Y13214198D01*
X36345229Y13233279D01*
X36517402Y13272576D01*
X36517411Y13272578D01*
X36517416Y13272580D01*
X36761643Y13368432D01*
X36988857Y13499614D01*
X37193981Y13663195D01*
X37193985Y13663198D01*
X37367967Y13850708D01*
X37372433Y13855521D01*
X37520228Y14072296D01*
X37520231Y14072302D01*
X37520232Y14072303D01*
X37634061Y14308673D01*
X37634063Y14308677D01*
X37711396Y14559385D01*
X37750500Y14818818D01*
X37750500Y15081182D01*
X37711396Y15340615D01*
X37634063Y15591323D01*
X37520228Y15827704D01*
X37472539Y15897650D01*
X37451040Y15964128D01*
X37468894Y16031678D01*
X37520434Y16078852D01*
X37574994Y16091500D01*
X38825537Y16091500D01*
X38825553Y16091501D01*
X38929427Y16102113D01*
X39097735Y16157884D01*
X39097738Y16157885D01*
X39125008Y16174705D01*
X39164806Y16199253D01*
X39248652Y16250970D01*
X39374030Y16376348D01*
X39467115Y16527262D01*
X39522887Y16695574D01*
X39533500Y16799455D01*
X39533500Y16918812D01*
X70249500Y16918812D01*
X70268748Y16791118D01*
X70288604Y16659385D01*
X70288605Y16659382D01*
X70288606Y16659376D01*
X70365938Y16408673D01*
X70479767Y16172303D01*
X70479768Y16172302D01*
X70627567Y15955520D01*
X70806014Y15763198D01*
X71011143Y15599614D01*
X71238356Y15468432D01*
X71482578Y15372582D01*
X71482597Y15372576D01*
X71738374Y15314197D01*
X71738379Y15314196D01*
X71934500Y15299500D01*
X71934506Y15299500D01*
X72065500Y15299500D01*
X72261620Y15314196D01*
X72261625Y15314197D01*
X72261629Y15314197D01*
X72261630Y15314198D01*
X72299818Y15322914D01*
X72517402Y15372576D01*
X72517411Y15372578D01*
X72517416Y15372580D01*
X72761643Y15468432D01*
X72988857Y15599614D01*
X73193981Y15763195D01*
X73193984Y15763198D01*
X73193987Y15763200D01*
X73193990Y15763203D01*
X73251602Y15825294D01*
X73311630Y15861049D01*
X73381459Y15858674D01*
X73438919Y15818923D01*
X73465767Y15754418D01*
X73466500Y15740953D01*
X73466500Y15701345D01*
X73473011Y15640797D01*
X73473011Y15640795D01*
X73524111Y15503795D01*
X73611739Y15386739D01*
X73728795Y15299111D01*
X73865796Y15248011D01*
X73926345Y15241500D01*
X73926362Y15241500D01*
X76623654Y15241500D01*
X76684202Y15248011D01*
X76684204Y15248011D01*
X76821204Y15299111D01*
X76841358Y15314198D01*
X76938261Y15386739D01*
X77025889Y15503796D01*
X77056328Y15585405D01*
X77076988Y15640795D01*
X77076988Y15640797D01*
X77076989Y15640799D01*
X77080157Y15670270D01*
X77083499Y15701345D01*
X77083500Y15701362D01*
X77083500Y18398637D01*
X77083499Y18398654D01*
X77080591Y18425692D01*
X77076989Y18459201D01*
X77065937Y18488831D01*
X77053639Y18521805D01*
X77025889Y18596204D01*
X77016398Y18608882D01*
X76975843Y18663057D01*
X76958233Y18686580D01*
X76933816Y18752044D01*
X76933500Y18760891D01*
X76933500Y19605712D01*
X76953185Y19672751D01*
X76958233Y19680023D01*
X76965698Y19689994D01*
X77050889Y19803796D01*
X77088466Y19904542D01*
X77101988Y19940795D01*
X77101988Y19940797D01*
X77101989Y19940799D01*
X77106928Y19986739D01*
X77108499Y20001345D01*
X77108500Y20001362D01*
X77108500Y20798637D01*
X77108499Y20798654D01*
X77104382Y20836944D01*
X77101989Y20859201D01*
X77050889Y20996204D01*
X76963261Y21113261D01*
X76846204Y21200889D01*
X76709201Y21251989D01*
X76677623Y21255383D01*
X76648654Y21258499D01*
X76648638Y21258500D01*
X75951362Y21258500D01*
X75951345Y21258499D01*
X75920270Y21255157D01*
X75890799Y21251989D01*
X75890796Y21251988D01*
X75890795Y21251988D01*
X75753793Y21200888D01*
X75753792Y21200887D01*
X75674311Y21141387D01*
X75608847Y21116969D01*
X75540574Y21131820D01*
X75525689Y21141387D01*
X75446207Y21200887D01*
X75446206Y21200888D01*
X75446204Y21200888D01*
X75446204Y21200889D01*
X75309201Y21251989D01*
X75277623Y21255383D01*
X75248654Y21258499D01*
X75248638Y21258500D01*
X74551362Y21258500D01*
X74551345Y21258499D01*
X74520270Y21255157D01*
X74490799Y21251989D01*
X74490796Y21251988D01*
X74490795Y21251988D01*
X74353793Y21200888D01*
X74353793Y21200887D01*
X74283914Y21148577D01*
X74218450Y21124160D01*
X74159168Y21134565D01*
X74082292Y21168792D01*
X74082288Y21168794D01*
X73895487Y21208500D01*
X73704513Y21208500D01*
X73517712Y21168794D01*
X73343248Y21091118D01*
X73188747Y20978866D01*
X73060960Y20836944D01*
X72996066Y20724545D01*
X72965473Y20671556D01*
X72965470Y20671549D01*
X72941780Y20598638D01*
X72906458Y20489928D01*
X72886496Y20300000D01*
X72906458Y20110072D01*
X72906458Y20110069D01*
X72906459Y20110068D01*
X72965470Y19928450D01*
X72965473Y19928443D01*
X73060959Y19763057D01*
X73188745Y19621135D01*
X73343246Y19508883D01*
X73343247Y19508882D01*
X73343248Y19508882D01*
X73430480Y19470043D01*
X73517714Y19431205D01*
X73517713Y19431205D01*
X73704513Y19391500D01*
X73895487Y19391500D01*
X74082285Y19431205D01*
X74082286Y19431205D01*
X74082288Y19431206D01*
X74149854Y19461288D01*
X74256750Y19508880D01*
X74300104Y19540379D01*
X74317880Y19553294D01*
X74383685Y19576774D01*
X74434097Y19569158D01*
X74490791Y19548013D01*
X74490802Y19548010D01*
X74551345Y19541500D01*
X74551362Y19541500D01*
X75248654Y19541500D01*
X75309202Y19548011D01*
X75309204Y19548011D01*
X75446206Y19599111D01*
X75446206Y19599112D01*
X75468191Y19615569D01*
X75533656Y19639985D01*
X75601929Y19625132D01*
X75651333Y19575726D01*
X75666500Y19516301D01*
X75666500Y18982500D01*
X75646815Y18915461D01*
X75594011Y18869706D01*
X75542500Y18858500D01*
X73926362Y18858500D01*
X73926345Y18858499D01*
X73895270Y18855157D01*
X73865799Y18851989D01*
X73865796Y18851988D01*
X73865795Y18851988D01*
X73805564Y18829522D01*
X73728796Y18800889D01*
X73611739Y18713261D01*
X73548250Y18628450D01*
X73524111Y18596204D01*
X73473011Y18459204D01*
X73473011Y18459202D01*
X73466500Y18398654D01*
X73466500Y18359046D01*
X73446815Y18292007D01*
X73394011Y18246252D01*
X73324853Y18236308D01*
X73261297Y18265333D01*
X73251601Y18274705D01*
X73243442Y18283498D01*
X73213201Y18316091D01*
X73193985Y18336801D01*
X73193983Y18336801D01*
X73193981Y18336805D01*
X72988857Y18500386D01*
X72761643Y18631568D01*
X72517416Y18727420D01*
X72261630Y18785802D01*
X72261622Y18785802D01*
X72261620Y18785803D01*
X72065500Y18800500D01*
X72065494Y18800500D01*
X71934506Y18800500D01*
X71934500Y18800500D01*
X71738379Y18785803D01*
X71738376Y18785802D01*
X71738370Y18785802D01*
X71482584Y18727420D01*
X71238357Y18631568D01*
X71011143Y18500386D01*
X70817890Y18346272D01*
X70806014Y18336801D01*
X70632826Y18150147D01*
X70627567Y18144479D01*
X70479772Y17927704D01*
X70479770Y17927700D01*
X70479768Y17927697D01*
X70479767Y17927696D01*
X70365938Y17691326D01*
X70298146Y17471549D01*
X70288604Y17440615D01*
X70279273Y17378708D01*
X70249500Y17181187D01*
X70249500Y16918812D01*
X39533500Y16918812D01*
X39533499Y17542500D01*
X39553183Y17609539D01*
X39605987Y17655294D01*
X39657499Y17666500D01*
X41716366Y17666500D01*
X41732113Y17664761D01*
X41732139Y17665032D01*
X41739905Y17664298D01*
X41739908Y17664298D01*
X41739909Y17664298D01*
X41809958Y17666500D01*
X41839856Y17666500D01*
X41839859Y17666500D01*
X41846856Y17667384D01*
X41852679Y17667842D01*
X41899889Y17669326D01*
X41899891Y17669327D01*
X41919495Y17675022D01*
X41938542Y17678967D01*
X41958797Y17681526D01*
X41961994Y17682792D01*
X42007643Y17691500D01*
X42691505Y17691500D01*
X42728829Y17694437D01*
X42728835Y17694438D01*
X42888596Y17740853D01*
X42888601Y17740855D01*
X43031803Y17825544D01*
X43031812Y17825551D01*
X43149448Y17943187D01*
X43149455Y17943196D01*
X43187774Y18007990D01*
X43234145Y18086399D01*
X43259563Y18173889D01*
X43280561Y18246164D01*
X43280562Y18246170D01*
X43280569Y18246252D01*
X43283500Y18283498D01*
X43283500Y18716502D01*
X43283135Y18721134D01*
X43280562Y18753829D01*
X43280562Y18753831D01*
X43234145Y18913601D01*
X43220378Y18936878D01*
X43203195Y19004600D01*
X43220379Y19063123D01*
X43223990Y19069228D01*
X43234145Y19086399D01*
X43280562Y19246169D01*
X43282867Y19275456D01*
X43283500Y19283495D01*
X43283500Y19716505D01*
X43280562Y19753829D01*
X43280562Y19753831D01*
X43234145Y19913601D01*
X43220378Y19936878D01*
X43203195Y20004600D01*
X43220379Y20063123D01*
X43223733Y20068794D01*
X43234145Y20086399D01*
X43280562Y20246169D01*
X43282162Y20266500D01*
X43283500Y20283495D01*
X43283500Y20716505D01*
X43280562Y20753829D01*
X43280562Y20753831D01*
X43234145Y20913601D01*
X43220378Y20936878D01*
X43203195Y21004600D01*
X43220379Y21063123D01*
X43234145Y21086399D01*
X43280562Y21246169D01*
X43283327Y21281303D01*
X43283500Y21283495D01*
X43283500Y21716507D01*
X43282220Y21732774D01*
X43296586Y21801151D01*
X43345638Y21850906D01*
X43405838Y21866500D01*
X44292191Y21866500D01*
X44359230Y21846815D01*
X44384340Y21825473D01*
X44388245Y21821135D01*
X44542746Y21708883D01*
X44542747Y21708882D01*
X44542748Y21708882D01*
X44582647Y21691118D01*
X44717214Y21631205D01*
X44717213Y21631205D01*
X44904013Y21591500D01*
X45094987Y21591500D01*
X45281785Y21631205D01*
X45281786Y21631205D01*
X45281788Y21631206D01*
X45456252Y21708882D01*
X45610753Y21821134D01*
X45738540Y21963056D01*
X45834027Y22128444D01*
X45893042Y22310072D01*
X45913004Y22500000D01*
X45893042Y22689928D01*
X45834027Y22871556D01*
X45738540Y23036944D01*
X45610753Y23178866D01*
X45456252Y23291118D01*
X45281788Y23368794D01*
X45094987Y23408500D01*
X44904013Y23408500D01*
X44717212Y23368794D01*
X44542748Y23291118D01*
X44388247Y23178866D01*
X44388245Y23178864D01*
X44384340Y23174527D01*
X44324854Y23137879D01*
X44292191Y23133500D01*
X43124123Y23133500D01*
X43057084Y23153185D01*
X43036442Y23169819D01*
X43031812Y23174448D01*
X43031807Y23174453D01*
X42888601Y23259145D01*
X42763210Y23295574D01*
X42728835Y23305561D01*
X42728833Y23305561D01*
X42728831Y23305562D01*
X42713899Y23306737D01*
X42691505Y23308500D01*
X42691502Y23308500D01*
X41308498Y23308500D01*
X41308495Y23308500D01*
X41280501Y23306296D01*
X41271169Y23305562D01*
X41271167Y23305561D01*
X41271164Y23305561D01*
X41153530Y23271385D01*
X41111399Y23259145D01*
X41019165Y23204598D01*
X40968196Y23174455D01*
X40968187Y23174448D01*
X40850551Y23056812D01*
X40850544Y23056803D01*
X40765855Y22913601D01*
X40765853Y22913596D01*
X40719438Y22753835D01*
X40719437Y22753829D01*
X40716500Y22716505D01*
X40716499Y22372569D01*
X40696814Y22305529D01*
X40644010Y22259774D01*
X40574852Y22249831D01*
X40517289Y22276118D01*
X40516510Y22275046D01*
X40511254Y22278864D01*
X40511253Y22278866D01*
X40356752Y22391118D01*
X40182288Y22468794D01*
X39995487Y22508500D01*
X39804513Y22508500D01*
X39617712Y22468794D01*
X39443248Y22391118D01*
X39288747Y22278866D01*
X39288745Y22278864D01*
X39284840Y22274527D01*
X39225354Y22237879D01*
X39192691Y22233500D01*
X37758768Y22233500D01*
X37691729Y22253185D01*
X37671087Y22269819D01*
X37568337Y22372569D01*
X37461085Y22479820D01*
X37427601Y22541142D01*
X37432585Y22610833D01*
X37474456Y22666767D01*
X37539921Y22691184D01*
X37548767Y22691500D01*
X38825537Y22691500D01*
X38825553Y22691501D01*
X38929427Y22702113D01*
X39097735Y22757884D01*
X39097738Y22757885D01*
X39103421Y22761390D01*
X39217670Y22831860D01*
X39248652Y22850970D01*
X39374030Y22976348D01*
X39467115Y23127262D01*
X39522887Y23295574D01*
X39533500Y23399455D01*
X39533499Y24190564D01*
X39553183Y24257603D01*
X39605987Y24303358D01*
X39675146Y24313302D01*
X39730384Y24290882D01*
X39843243Y24208884D01*
X40017714Y24131205D01*
X40017713Y24131205D01*
X40204513Y24091500D01*
X40395487Y24091500D01*
X40582287Y24131205D01*
X40588472Y24133215D01*
X40588893Y24131916D01*
X40629745Y24140600D01*
X47810375Y24140600D01*
X47877414Y24120915D01*
X47923169Y24068111D01*
X47933113Y23998953D01*
X47904088Y23935397D01*
X47887026Y23919129D01*
X47736490Y23800747D01*
X47598745Y23641781D01*
X47598743Y23641777D01*
X47598740Y23641774D01*
X47493574Y23459620D01*
X47424779Y23260851D01*
X47424778Y23260847D01*
X47424778Y23260846D01*
X47394843Y23052645D01*
X47404852Y22842541D01*
X47454442Y22638129D01*
X47477935Y22586687D01*
X47541820Y22446795D01*
X47541824Y22446789D01*
X47663826Y22275460D01*
X47663832Y22275454D01*
X47816060Y22130305D01*
X47816061Y22130304D01*
X47816063Y22130303D01*
X47863216Y22100000D01*
X47993015Y22016583D01*
X48188278Y21938410D01*
X48188291Y21938406D01*
X48394828Y21898600D01*
X48394829Y21898600D01*
X48552461Y21898600D01*
X48552468Y21898600D01*
X48709389Y21913584D01*
X48877876Y21963056D01*
X48911208Y21972843D01*
X48911211Y21972844D01*
X49098170Y22069229D01*
X49218600Y22163936D01*
X49263509Y22199252D01*
X49263510Y22199253D01*
X49329185Y22275046D01*
X49401255Y22358219D01*
X49401257Y22358222D01*
X49401259Y22358225D01*
X49506425Y22540379D01*
X49522453Y22586687D01*
X49569656Y22723073D01*
X49575220Y22739148D01*
X49575222Y22739154D01*
X49605157Y22947355D01*
X49595148Y23157459D01*
X49545558Y23361871D01*
X49458179Y23553205D01*
X49336169Y23724544D01*
X49183937Y23869697D01*
X49117667Y23912285D01*
X49071914Y23965088D01*
X49061970Y24034247D01*
X49090995Y24097803D01*
X49149773Y24135577D01*
X49184708Y24140600D01*
X50190466Y24140600D01*
X50206213Y24138861D01*
X50206239Y24139132D01*
X50214005Y24138398D01*
X50214008Y24138398D01*
X50214009Y24138398D01*
X50284058Y24140600D01*
X50313956Y24140600D01*
X50313959Y24140600D01*
X50320956Y24141484D01*
X50326779Y24141942D01*
X50373989Y24143426D01*
X50373991Y24143427D01*
X50393595Y24149122D01*
X50412642Y24153067D01*
X50415433Y24153419D01*
X50432897Y24155626D01*
X50432900Y24155627D01*
X50432903Y24155628D01*
X50476816Y24173014D01*
X50482344Y24174906D01*
X50527692Y24188081D01*
X50545262Y24198472D01*
X50562735Y24207032D01*
X50581717Y24214547D01*
X50619927Y24242309D01*
X50624812Y24245518D01*
X50665459Y24269556D01*
X50665462Y24269558D01*
X50679893Y24283989D01*
X50694689Y24296627D01*
X50703954Y24303358D01*
X50711207Y24308628D01*
X50711210Y24308631D01*
X50741313Y24345020D01*
X50745235Y24349331D01*
X51101086Y24705181D01*
X51162409Y24738666D01*
X51188767Y24741500D01*
X51448654Y24741500D01*
X51509202Y24748011D01*
X51509204Y24748011D01*
X51646204Y24799111D01*
X51721557Y24855520D01*
X51763261Y24886739D01*
X51785771Y24916809D01*
X51841704Y24958681D01*
X51885039Y24966500D01*
X53015384Y24966500D01*
X53082423Y24946815D01*
X53128178Y24894011D01*
X53138122Y24824853D01*
X53109097Y24761297D01*
X53074811Y24733668D01*
X52934932Y24657288D01*
X52934924Y24657283D01*
X52709919Y24488847D01*
X52709901Y24488831D01*
X52511168Y24290098D01*
X52511152Y24290080D01*
X52342716Y24065075D01*
X52342711Y24065067D01*
X52208010Y23818380D01*
X52208008Y23818376D01*
X52197841Y23791116D01*
X52109781Y23555018D01*
X52109780Y23555014D01*
X52109779Y23555011D01*
X52050034Y23280371D01*
X52050033Y23280364D01*
X52029981Y23000001D01*
X52029981Y22999998D01*
X52044904Y22791346D01*
X52030052Y22723073D01*
X51980647Y22673668D01*
X51921220Y22658500D01*
X50851362Y22658500D01*
X50851345Y22658499D01*
X50820270Y22655157D01*
X50790799Y22651989D01*
X50790796Y22651988D01*
X50790795Y22651988D01*
X50730564Y22629522D01*
X50653796Y22600889D01*
X50536739Y22513261D01*
X50485626Y22444982D01*
X50449111Y22396204D01*
X50398011Y22259204D01*
X50398011Y22259202D01*
X50391500Y22198654D01*
X50391500Y20301345D01*
X50398011Y20240797D01*
X50398011Y20240795D01*
X50449111Y20103795D01*
X50536739Y19986739D01*
X50653795Y19899111D01*
X50790796Y19848011D01*
X50851345Y19841500D01*
X50851362Y19841500D01*
X52148654Y19841500D01*
X52209202Y19848011D01*
X52209204Y19848011D01*
X52346204Y19899111D01*
X52385396Y19928450D01*
X52463261Y19986739D01*
X52550889Y20103796D01*
X52565112Y20141930D01*
X52581489Y20185835D01*
X52623361Y20241768D01*
X52688826Y20266184D01*
X52697670Y20266500D01*
X56578393Y20266500D01*
X56645432Y20246815D01*
X56691187Y20194011D01*
X56701131Y20124853D01*
X56672106Y20061297D01*
X56628829Y20029221D01*
X56543248Y19991118D01*
X56388747Y19878866D01*
X56260960Y19736944D01*
X56181382Y19599111D01*
X56165473Y19571556D01*
X56165470Y19571549D01*
X56145108Y19508880D01*
X56106458Y19389928D01*
X56086496Y19200000D01*
X56106458Y19010072D01*
X56106458Y19010069D01*
X56106459Y19010068D01*
X56165470Y18828450D01*
X56165473Y18828443D01*
X56260959Y18663057D01*
X56388745Y18521135D01*
X56543246Y18408883D01*
X56717714Y18331205D01*
X56717713Y18331205D01*
X56904513Y18291500D01*
X57095487Y18291500D01*
X57185603Y18310654D01*
X57255270Y18305339D01*
X57311004Y18263202D01*
X57321869Y18245660D01*
X57374422Y18142519D01*
X57491697Y17997697D01*
X57636519Y17880422D01*
X57802558Y17795821D01*
X57982558Y17747590D01*
X58059951Y17741500D01*
X58059952Y17741500D01*
X58059953Y17741500D01*
X58500096Y17741500D01*
X58940048Y17741501D01*
X58940047Y17741501D01*
X59017441Y17747590D01*
X59197441Y17795821D01*
X59255790Y17825551D01*
X59363482Y17880423D01*
X59389318Y17901345D01*
X61916500Y17901345D01*
X61923011Y17840797D01*
X61923011Y17840795D01*
X61974111Y17703795D01*
X62061739Y17586739D01*
X62178795Y17499111D01*
X62315796Y17448011D01*
X62376345Y17441500D01*
X62376362Y17441500D01*
X65073654Y17441500D01*
X65134202Y17448011D01*
X65134204Y17448011D01*
X65271204Y17499111D01*
X65291358Y17514198D01*
X65388261Y17586739D01*
X65475889Y17703796D01*
X65512960Y17803185D01*
X65526988Y17840795D01*
X65526988Y17840797D01*
X65526989Y17840799D01*
X65531249Y17880423D01*
X65533499Y17901345D01*
X65533498Y17901352D01*
X65533500Y17901362D01*
X65533499Y17940953D01*
X65553182Y18007990D01*
X65605985Y18053746D01*
X65675143Y18063691D01*
X65738700Y18034668D01*
X65748397Y18025295D01*
X65806014Y17963199D01*
X65806018Y17963195D01*
X65806019Y17963195D01*
X65923271Y17869690D01*
X66011143Y17799614D01*
X66238356Y17668432D01*
X66482578Y17572582D01*
X66482597Y17572576D01*
X66738374Y17514197D01*
X66738379Y17514196D01*
X66934500Y17499500D01*
X66934506Y17499500D01*
X67065500Y17499500D01*
X67261620Y17514196D01*
X67261625Y17514197D01*
X67261629Y17514197D01*
X67261630Y17514198D01*
X67299818Y17522914D01*
X67517402Y17572576D01*
X67517411Y17572578D01*
X67517416Y17572580D01*
X67761643Y17668432D01*
X67988857Y17799614D01*
X68193981Y17963195D01*
X68193985Y17963198D01*
X68372432Y18155520D01*
X68372433Y18155521D01*
X68520228Y18372296D01*
X68520231Y18372302D01*
X68520232Y18372303D01*
X68634061Y18608673D01*
X68634063Y18608677D01*
X68711396Y18859385D01*
X68750500Y19118818D01*
X68750500Y19381182D01*
X68711396Y19640615D01*
X68634063Y19891323D01*
X68540119Y20086399D01*
X68520232Y20127696D01*
X68520231Y20127697D01*
X68520228Y20127704D01*
X68372433Y20344479D01*
X68201739Y20528444D01*
X68193985Y20536801D01*
X68193983Y20536801D01*
X68193981Y20536805D01*
X67988857Y20700386D01*
X67761643Y20831568D01*
X67517416Y20927420D01*
X67261630Y20985802D01*
X67261622Y20985802D01*
X67261620Y20985803D01*
X67065500Y21000500D01*
X67065494Y21000500D01*
X66934506Y21000500D01*
X66934500Y21000500D01*
X66738379Y20985803D01*
X66738376Y20985802D01*
X66738370Y20985802D01*
X66482584Y20927420D01*
X66238357Y20831568D01*
X66011143Y20700386D01*
X65806019Y20536805D01*
X65806017Y20536803D01*
X65806012Y20536799D01*
X65806009Y20536796D01*
X65748397Y20474705D01*
X65688369Y20438950D01*
X65618540Y20441325D01*
X65561080Y20481076D01*
X65534232Y20545581D01*
X65533499Y20559032D01*
X65533500Y20598638D01*
X65533498Y20598647D01*
X65533499Y20598654D01*
X65530591Y20625692D01*
X65526989Y20659201D01*
X65475889Y20796204D01*
X65388261Y20913261D01*
X65271204Y21000889D01*
X65134201Y21051989D01*
X65102623Y21055383D01*
X65073654Y21058499D01*
X65073638Y21058500D01*
X62376362Y21058500D01*
X62376345Y21058499D01*
X62345270Y21055157D01*
X62315799Y21051989D01*
X62315796Y21051988D01*
X62315795Y21051988D01*
X62270250Y21035000D01*
X62178796Y21000889D01*
X62061739Y20913261D01*
X61990712Y20818380D01*
X61974111Y20796204D01*
X61923011Y20659204D01*
X61923011Y20659202D01*
X61916500Y20598654D01*
X61916500Y17901345D01*
X59389318Y17901345D01*
X59508303Y17997697D01*
X59625577Y18142518D01*
X59710178Y18308557D01*
X59758409Y18488557D01*
X59764500Y18565953D01*
X59764499Y19934046D01*
X59760067Y19990361D01*
X59774431Y20058735D01*
X59823483Y20108492D01*
X59891648Y20123831D01*
X59936718Y20110195D01*
X59937311Y20111526D01*
X59943245Y20108883D01*
X59943248Y20108882D01*
X60093000Y20042208D01*
X60117714Y20031205D01*
X60117713Y20031205D01*
X60304513Y19991500D01*
X60495487Y19991500D01*
X60682285Y20031205D01*
X60682286Y20031205D01*
X60682288Y20031206D01*
X60856752Y20108882D01*
X61011253Y20221134D01*
X61139040Y20363056D01*
X61234527Y20528444D01*
X61293542Y20710072D01*
X61313504Y20900000D01*
X61293542Y21089928D01*
X61234527Y21271556D01*
X61139040Y21436944D01*
X61011253Y21578866D01*
X60856752Y21691118D01*
X60682288Y21768794D01*
X60495487Y21808500D01*
X60304513Y21808500D01*
X60117712Y21768794D01*
X59943248Y21691118D01*
X59788747Y21578866D01*
X59788745Y21578864D01*
X59784840Y21574527D01*
X59725354Y21537879D01*
X59692691Y21533500D01*
X55604501Y21533500D01*
X55537462Y21553185D01*
X55491707Y21605989D01*
X55481763Y21675147D01*
X55505234Y21731810D01*
X55657283Y21934924D01*
X55657288Y21934932D01*
X55791989Y22181619D01*
X55791991Y22181623D01*
X55796224Y22192972D01*
X55890219Y22444982D01*
X55949967Y22719637D01*
X55969182Y22988291D01*
X55970019Y22999998D01*
X55970019Y23000001D01*
X55964049Y23083474D01*
X55949967Y23280363D01*
X55890219Y23555018D01*
X55791992Y23818375D01*
X55791989Y23818381D01*
X55756665Y23883073D01*
X55741813Y23951346D01*
X55766230Y24016811D01*
X55822164Y24058682D01*
X55865497Y24066500D01*
X58716149Y24066500D01*
X58783188Y24046815D01*
X58828943Y23994011D01*
X58838887Y23924853D01*
X58809862Y23861297D01*
X58792802Y23845031D01*
X58736490Y23800747D01*
X58598745Y23641781D01*
X58598743Y23641777D01*
X58598740Y23641774D01*
X58493574Y23459620D01*
X58424779Y23260851D01*
X58424778Y23260847D01*
X58424778Y23260846D01*
X58394843Y23052645D01*
X58404852Y22842541D01*
X58454442Y22638129D01*
X58477935Y22586687D01*
X58541820Y22446795D01*
X58541824Y22446789D01*
X58663826Y22275460D01*
X58663832Y22275454D01*
X58816060Y22130305D01*
X58816061Y22130304D01*
X58816063Y22130303D01*
X58863216Y22100000D01*
X58993015Y22016583D01*
X59188278Y21938410D01*
X59188291Y21938406D01*
X59394828Y21898600D01*
X59394829Y21898600D01*
X59552461Y21898600D01*
X59552468Y21898600D01*
X59709389Y21913584D01*
X59877876Y21963056D01*
X59911208Y21972843D01*
X59911211Y21972844D01*
X60098170Y22069229D01*
X60218600Y22163936D01*
X60263509Y22199252D01*
X60263510Y22199253D01*
X60329185Y22275046D01*
X60401255Y22358219D01*
X60401257Y22358222D01*
X60401259Y22358225D01*
X60506425Y22540379D01*
X60522453Y22586687D01*
X60569656Y22723073D01*
X60575220Y22739148D01*
X60575222Y22739154D01*
X60605157Y22947355D01*
X60595148Y23157459D01*
X60545558Y23361871D01*
X60458179Y23553205D01*
X60336169Y23724544D01*
X60201702Y23852757D01*
X60166768Y23913266D01*
X60170093Y23983056D01*
X60210621Y24039971D01*
X60275486Y24065939D01*
X60287273Y24066500D01*
X65716149Y24066500D01*
X65783188Y24046815D01*
X65828943Y23994011D01*
X65838887Y23924853D01*
X65809862Y23861297D01*
X65792802Y23845031D01*
X65736490Y23800747D01*
X65598745Y23641781D01*
X65598743Y23641777D01*
X65598740Y23641774D01*
X65493574Y23459620D01*
X65424779Y23260851D01*
X65424778Y23260847D01*
X65424778Y23260846D01*
X65394843Y23052645D01*
X65404852Y22842541D01*
X65454442Y22638129D01*
X65477935Y22586687D01*
X65541820Y22446795D01*
X65541824Y22446789D01*
X65663826Y22275460D01*
X65663832Y22275454D01*
X65816060Y22130305D01*
X65816061Y22130304D01*
X65816063Y22130303D01*
X65863216Y22100000D01*
X65993015Y22016583D01*
X66188278Y21938410D01*
X66188291Y21938406D01*
X66394828Y21898600D01*
X66394829Y21898600D01*
X66552461Y21898600D01*
X66552468Y21898600D01*
X66709389Y21913584D01*
X66877876Y21963056D01*
X66911208Y21972843D01*
X66911211Y21972844D01*
X67098170Y22069229D01*
X67218600Y22163936D01*
X67263509Y22199252D01*
X67263510Y22199253D01*
X67329185Y22275046D01*
X67401255Y22358219D01*
X67401257Y22358222D01*
X67401259Y22358225D01*
X67506425Y22540379D01*
X67522453Y22586687D01*
X67569656Y22723073D01*
X67575220Y22739148D01*
X67575222Y22739154D01*
X67605157Y22947355D01*
X67602649Y22999998D01*
X70029981Y22999998D01*
X70050033Y22719635D01*
X70050034Y22719628D01*
X70109779Y22444988D01*
X70208008Y22181623D01*
X70208010Y22181619D01*
X70342711Y21934932D01*
X70342716Y21934924D01*
X70511152Y21709919D01*
X70511168Y21709901D01*
X70709901Y21511168D01*
X70709919Y21511152D01*
X70934924Y21342716D01*
X70934932Y21342711D01*
X71181619Y21208010D01*
X71181623Y21208008D01*
X71350553Y21145001D01*
X71444982Y21109781D01*
X71444983Y21109780D01*
X71444988Y21109779D01*
X71719628Y21050034D01*
X71719635Y21050033D01*
X71929825Y21035000D01*
X72070175Y21035000D01*
X72280364Y21050033D01*
X72280371Y21050034D01*
X72555011Y21109779D01*
X72555014Y21109780D01*
X72555018Y21109781D01*
X72741945Y21179501D01*
X72818376Y21208008D01*
X72818380Y21208010D01*
X73065067Y21342711D01*
X73065075Y21342716D01*
X73290080Y21511152D01*
X73290098Y21511168D01*
X73488831Y21709901D01*
X73488847Y21709919D01*
X73657283Y21934924D01*
X73657288Y21934932D01*
X73791989Y22181619D01*
X73791991Y22181623D01*
X73796224Y22192972D01*
X73890219Y22444982D01*
X73949967Y22719637D01*
X73969182Y22988291D01*
X73970019Y22999998D01*
X73970019Y23000001D01*
X73966254Y23052645D01*
X76394843Y23052645D01*
X76404852Y22842541D01*
X76454442Y22638129D01*
X76477935Y22586687D01*
X76541820Y22446795D01*
X76541824Y22446789D01*
X76663826Y22275460D01*
X76663832Y22275454D01*
X76816060Y22130305D01*
X76816061Y22130304D01*
X76816063Y22130303D01*
X76863216Y22100000D01*
X76993015Y22016583D01*
X77188278Y21938410D01*
X77188291Y21938406D01*
X77394828Y21898600D01*
X77394829Y21898600D01*
X77552461Y21898600D01*
X77552468Y21898600D01*
X77709389Y21913584D01*
X77877876Y21963056D01*
X77911208Y21972843D01*
X77911211Y21972844D01*
X78098170Y22069229D01*
X78218600Y22163936D01*
X78263509Y22199252D01*
X78263510Y22199253D01*
X78329185Y22275046D01*
X78401255Y22358219D01*
X78401257Y22358222D01*
X78401259Y22358225D01*
X78506425Y22540379D01*
X78522453Y22586687D01*
X78569656Y22723073D01*
X78575220Y22739148D01*
X78575222Y22739154D01*
X78605157Y22947355D01*
X78595148Y23157459D01*
X78545558Y23361871D01*
X78458179Y23553205D01*
X78336169Y23724544D01*
X78183937Y23869697D01*
X78006986Y23983416D01*
X77811712Y24061593D01*
X77646479Y24093438D01*
X77605172Y24101400D01*
X77605171Y24101400D01*
X77447532Y24101400D01*
X77290611Y24086416D01*
X77088789Y24027156D01*
X76901830Y23930771D01*
X76736490Y23800747D01*
X76598745Y23641781D01*
X76598743Y23641777D01*
X76598740Y23641774D01*
X76493574Y23459620D01*
X76424779Y23260851D01*
X76424778Y23260847D01*
X76424778Y23260846D01*
X76394843Y23052645D01*
X73966254Y23052645D01*
X73964049Y23083474D01*
X73949967Y23280363D01*
X73890219Y23555018D01*
X73791992Y23818375D01*
X73657285Y24065073D01*
X73488841Y24290088D01*
X73290088Y24488841D01*
X73065073Y24657285D01*
X72818375Y24791992D01*
X72555018Y24890219D01*
X72280363Y24949967D01*
X72070175Y24965000D01*
X71929825Y24965000D01*
X71719637Y24949967D01*
X71444982Y24890219D01*
X71181625Y24791992D01*
X71181623Y24791991D01*
X71181619Y24791989D01*
X70934932Y24657288D01*
X70934924Y24657283D01*
X70709919Y24488847D01*
X70709901Y24488831D01*
X70511168Y24290098D01*
X70511152Y24290080D01*
X70342716Y24065075D01*
X70342711Y24065067D01*
X70208010Y23818380D01*
X70208008Y23818376D01*
X70197841Y23791116D01*
X70109781Y23555018D01*
X70109780Y23555014D01*
X70109779Y23555011D01*
X70050034Y23280371D01*
X70050033Y23280364D01*
X70029981Y23000001D01*
X70029981Y22999998D01*
X67602649Y22999998D01*
X67595148Y23157459D01*
X67545558Y23361871D01*
X67458179Y23553205D01*
X67336169Y23724544D01*
X67201702Y23852757D01*
X67166768Y23913266D01*
X67170093Y23983056D01*
X67210621Y24039971D01*
X67275486Y24065939D01*
X67287273Y24066500D01*
X68492691Y24066500D01*
X68559730Y24046815D01*
X68584840Y24025473D01*
X68588745Y24021135D01*
X68743246Y23908883D01*
X68743247Y23908882D01*
X68743248Y23908882D01*
X68801216Y23883073D01*
X68917714Y23831205D01*
X68917713Y23831205D01*
X69104513Y23791500D01*
X69295487Y23791500D01*
X69482285Y23831205D01*
X69482286Y23831205D01*
X69482288Y23831206D01*
X69656752Y23908882D01*
X69811253Y24021134D01*
X69939040Y24163056D01*
X70034527Y24328444D01*
X70093542Y24510072D01*
X70113504Y24700000D01*
X70093542Y24889928D01*
X70034527Y25071556D01*
X69939040Y25236944D01*
X69811253Y25378866D01*
X69656752Y25491118D01*
X69482288Y25568794D01*
X69295487Y25608500D01*
X69104513Y25608500D01*
X68917712Y25568794D01*
X68743248Y25491118D01*
X68588747Y25378866D01*
X68588745Y25378864D01*
X68584840Y25374527D01*
X68525354Y25337879D01*
X68492691Y25333500D01*
X64207500Y25333500D01*
X64140461Y25353185D01*
X64094706Y25405989D01*
X64083500Y25457500D01*
X64083500Y27867500D01*
X64103185Y27934539D01*
X64155989Y27980294D01*
X64207500Y27991500D01*
X70621366Y27991500D01*
X70637113Y27989761D01*
X70637139Y27990032D01*
X70644905Y27989298D01*
X70644908Y27989298D01*
X70644909Y27989298D01*
X70714958Y27991500D01*
X70744856Y27991500D01*
X70744859Y27991500D01*
X70751856Y27992384D01*
X70757679Y27992842D01*
X70804889Y27994326D01*
X70804891Y27994327D01*
X70824495Y28000022D01*
X70843542Y28003967D01*
X70847214Y28004431D01*
X70863797Y28006526D01*
X70863800Y28006527D01*
X70863803Y28006528D01*
X70907716Y28023914D01*
X70913244Y28025806D01*
X70958592Y28038981D01*
X70976162Y28049372D01*
X70993635Y28057932D01*
X71012617Y28065447D01*
X71050827Y28093209D01*
X71055712Y28096418D01*
X71059365Y28098578D01*
X71096362Y28120458D01*
X71110793Y28134889D01*
X71125589Y28147527D01*
X71127438Y28148870D01*
X71142107Y28159528D01*
X71145372Y28163474D01*
X71154052Y28173967D01*
X71172222Y28195931D01*
X71176135Y28200231D01*
X73882333Y30906428D01*
X73943656Y30939913D01*
X73998961Y30939321D01*
X74223285Y30885465D01*
X74460000Y30866835D01*
X74696714Y30885465D01*
X74927595Y30940895D01*
X74927597Y30940895D01*
X75146959Y31031757D01*
X75146962Y31031759D01*
X75349410Y31155820D01*
X75349413Y31155821D01*
X75424471Y31219927D01*
X75529969Y31310031D01*
X75680973Y31486834D01*
X75684178Y31490586D01*
X75684179Y31490589D01*
X75689946Y31499999D01*
X75808240Y31693037D01*
X75808242Y31693040D01*
X75899104Y31912402D01*
X75899104Y31912404D01*
X75899105Y31912406D01*
X75954535Y32143289D01*
X75973165Y32380000D01*
X75954535Y32616711D01*
X75899105Y32847594D01*
X75899104Y32847597D01*
X75808242Y33066959D01*
X75808240Y33066962D01*
X75808240Y33066963D01*
X75684176Y33269416D01*
X75529969Y33449969D01*
X75349416Y33604176D01*
X75146963Y33728240D01*
X75146960Y33728241D01*
X75146959Y33728242D01*
X74927596Y33819104D01*
X74927594Y33819105D01*
X74696711Y33874535D01*
X74460000Y33893165D01*
X74223289Y33874535D01*
X73992406Y33819105D01*
X73992404Y33819104D01*
X73992402Y33819104D01*
X73773040Y33728242D01*
X73773037Y33728240D01*
X73598259Y33621135D01*
X73570589Y33604179D01*
X73570586Y33604178D01*
X73570584Y33604176D01*
X73390031Y33449969D01*
X73313291Y33360118D01*
X73235821Y33269413D01*
X73235820Y33269410D01*
X73111759Y33066962D01*
X73111757Y33066959D01*
X73020895Y32847597D01*
X73020895Y32847595D01*
X72965465Y32616714D01*
X72953385Y32463220D01*
X72947111Y32383500D01*
X72946835Y32379999D01*
X72965465Y32143285D01*
X73019321Y31918960D01*
X73015830Y31849177D01*
X72986428Y31802332D01*
X71727191Y30543096D01*
X70478914Y29294819D01*
X70417591Y29261334D01*
X70391233Y29258500D01*
X57290417Y29258500D01*
X57223378Y29278185D01*
X57202736Y29294819D01*
X56608164Y29889391D01*
X54997554Y31499999D01*
X61644341Y31499999D01*
X61664936Y31264596D01*
X61664938Y31264586D01*
X61726094Y31036344D01*
X61726098Y31036335D01*
X61825964Y30822171D01*
X61825965Y30822169D01*
X61961505Y30628597D01*
X62128597Y30461505D01*
X62322169Y30325965D01*
X62322171Y30325964D01*
X62536335Y30226098D01*
X62536344Y30226094D01*
X62764586Y30164938D01*
X62764596Y30164936D01*
X62941034Y30149500D01*
X63058966Y30149500D01*
X63235403Y30164936D01*
X63235413Y30164938D01*
X63463655Y30226094D01*
X63463659Y30226096D01*
X63463663Y30226097D01*
X63624689Y30301185D01*
X63677828Y30325964D01*
X63677830Y30325965D01*
X63871402Y30461505D01*
X64038493Y30628597D01*
X64038495Y30628599D01*
X64117736Y30741767D01*
X64174032Y30822165D01*
X64174034Y30822169D01*
X64174035Y30822170D01*
X64273903Y31036337D01*
X64274029Y31036805D01*
X64295619Y31117384D01*
X64335063Y31264592D01*
X64355659Y31500000D01*
X64335063Y31735408D01*
X64273903Y31963663D01*
X64174035Y32177829D01*
X64038495Y32371401D01*
X63871401Y32538495D01*
X63677829Y32674035D01*
X63463663Y32773903D01*
X63235408Y32835063D01*
X63058966Y32850500D01*
X62941034Y32850500D01*
X62764592Y32835063D01*
X62536337Y32773903D01*
X62322171Y32674035D01*
X62322169Y32674034D01*
X62128597Y32538494D01*
X61961506Y32371402D01*
X61961501Y32371395D01*
X61825967Y32177834D01*
X61825965Y32177830D01*
X61726097Y31963663D01*
X61726096Y31963659D01*
X61726094Y31963655D01*
X61664938Y31735413D01*
X61664936Y31735403D01*
X61644341Y31500000D01*
X61644341Y31499999D01*
X54997554Y31499999D01*
X54808736Y31688817D01*
X54798835Y31701178D01*
X54798625Y31701004D01*
X54793652Y31707013D01*
X54793650Y31707018D01*
X54742571Y31754983D01*
X54721420Y31776135D01*
X54715842Y31780461D01*
X54711405Y31784250D01*
X54676971Y31816586D01*
X54659082Y31826419D01*
X54642819Y31837102D01*
X54626691Y31849614D01*
X54583341Y31868371D01*
X54578097Y31870941D01*
X54536714Y31893693D01*
X54536713Y31893693D01*
X54536710Y31893695D01*
X54516923Y31898774D01*
X54498535Y31905070D01*
X54479795Y31913181D01*
X54479790Y31913181D01*
X54479790Y31913182D01*
X54479791Y31913182D01*
X54436573Y31920027D01*
X54373438Y31949956D01*
X54336506Y32009267D01*
X54337504Y32079130D01*
X54376113Y32137363D01*
X54440077Y32165477D01*
X54455970Y32166500D01*
X58916366Y32166500D01*
X58932113Y32164761D01*
X58932139Y32165032D01*
X58939905Y32164298D01*
X58939908Y32164298D01*
X58939909Y32164298D01*
X59009958Y32166500D01*
X59039856Y32166500D01*
X59039859Y32166500D01*
X59046856Y32167384D01*
X59052679Y32167842D01*
X59099889Y32169326D01*
X59099891Y32169327D01*
X59119495Y32175022D01*
X59138542Y32178967D01*
X59141333Y32179319D01*
X59158797Y32181526D01*
X59158800Y32181527D01*
X59158803Y32181528D01*
X59202716Y32198914D01*
X59208244Y32200806D01*
X59253592Y32213981D01*
X59271162Y32224372D01*
X59288635Y32232932D01*
X59307617Y32240447D01*
X59345827Y32268209D01*
X59350712Y32271418D01*
X59391359Y32295456D01*
X59391362Y32295458D01*
X59405793Y32309889D01*
X59420589Y32322527D01*
X59437107Y32334528D01*
X59437109Y32334530D01*
X59444900Y32343948D01*
X59467222Y32370931D01*
X59471135Y32375231D01*
X60451085Y33355181D01*
X60512408Y33388666D01*
X60538766Y33391500D01*
X60595487Y33391500D01*
X60782285Y33431205D01*
X60782286Y33431205D01*
X60782288Y33431206D01*
X60956752Y33508882D01*
X61111253Y33621134D01*
X61239040Y33763056D01*
X61334527Y33928444D01*
X61393542Y34110072D01*
X61413504Y34300000D01*
X61393542Y34489928D01*
X61334527Y34671556D01*
X61239040Y34836944D01*
X61111253Y34978866D01*
X60956752Y35091118D01*
X60782288Y35168794D01*
X60595487Y35208500D01*
X60404513Y35208500D01*
X60217712Y35168794D01*
X60043248Y35091118D01*
X59888747Y34978866D01*
X59760960Y34836944D01*
X59760959Y34836942D01*
X59665473Y34671556D01*
X59665470Y34671549D01*
X59609731Y34500000D01*
X59606458Y34489928D01*
X59589069Y34324482D01*
X59589019Y34324003D01*
X59562434Y34259389D01*
X59553379Y34249284D01*
X58773914Y33469819D01*
X58712591Y33436334D01*
X58686233Y33433500D01*
X53521680Y33433500D01*
X53505932Y33435238D01*
X53505907Y33434968D01*
X53498142Y33435700D01*
X53498137Y33435702D01*
X53428088Y33433500D01*
X53398190Y33433500D01*
X53391182Y33432614D01*
X53385361Y33432156D01*
X53338156Y33430673D01*
X53318554Y33424977D01*
X53299503Y33421032D01*
X53279249Y33418474D01*
X53244646Y33404773D01*
X53235334Y33401086D01*
X53229803Y33399193D01*
X53215818Y33395130D01*
X53184453Y33386018D01*
X53166878Y33375624D01*
X53149402Y33367064D01*
X53130434Y33359554D01*
X53130433Y33359554D01*
X53130431Y33359553D01*
X53130429Y33359552D01*
X53094782Y33333652D01*
X53092222Y33331792D01*
X53087343Y33328587D01*
X53058464Y33311509D01*
X53047992Y33305316D01*
X53046683Y33304542D01*
X53046680Y33304539D01*
X53032247Y33290106D01*
X53017453Y33277470D01*
X53000939Y33265472D01*
X52990237Y33252535D01*
X52970836Y33229084D01*
X52966903Y33224762D01*
X52161960Y32419819D01*
X52100637Y32386334D01*
X52074279Y32383500D01*
X46417312Y32383500D01*
X46357573Y32398839D01*
X46335627Y32410903D01*
X46321456Y32418695D01*
X46301669Y32423774D01*
X46283281Y32430070D01*
X46264541Y32438181D01*
X46225408Y32444378D01*
X46217893Y32445569D01*
X46212182Y32446751D01*
X46166426Y32458500D01*
X46166424Y32458500D01*
X46146012Y32458500D01*
X46126613Y32460027D01*
X46126136Y32460102D01*
X46106453Y32463220D01*
X46060189Y32458846D01*
X46059430Y32458775D01*
X46053592Y32458500D01*
X43988766Y32458500D01*
X43921727Y32478185D01*
X43901085Y32494819D01*
X43051145Y33344759D01*
X42182086Y34213817D01*
X42172185Y34226178D01*
X42171975Y34226004D01*
X42167002Y34232013D01*
X42167000Y34232018D01*
X42115920Y34279984D01*
X42094770Y34301135D01*
X42089192Y34305461D01*
X42084755Y34309250D01*
X42050321Y34341586D01*
X42032432Y34351419D01*
X42016169Y34362102D01*
X42000041Y34374614D01*
X41956691Y34393371D01*
X41951447Y34395941D01*
X41910064Y34418693D01*
X41910063Y34418693D01*
X41910060Y34418695D01*
X41890273Y34423774D01*
X41871885Y34430070D01*
X41853145Y34438181D01*
X41809912Y34445028D01*
X41806497Y34445569D01*
X41800786Y34446751D01*
X41755030Y34458500D01*
X41755028Y34458500D01*
X41734616Y34458500D01*
X41715217Y34460027D01*
X41714740Y34460102D01*
X41695057Y34463220D01*
X41648793Y34458846D01*
X41648034Y34458775D01*
X41642196Y34458500D01*
X40793449Y34458500D01*
X40726410Y34478185D01*
X40707508Y34499999D01*
X43644341Y34499999D01*
X43664936Y34264596D01*
X43664938Y34264586D01*
X43726094Y34036344D01*
X43726098Y34036335D01*
X43825964Y33822171D01*
X43825965Y33822169D01*
X43961505Y33628597D01*
X44128597Y33461505D01*
X44322169Y33325965D01*
X44322171Y33325964D01*
X44536335Y33226098D01*
X44536344Y33226094D01*
X44764586Y33164938D01*
X44764596Y33164936D01*
X44941034Y33149500D01*
X45058966Y33149500D01*
X45235403Y33164936D01*
X45235413Y33164938D01*
X45463655Y33226094D01*
X45463659Y33226096D01*
X45463663Y33226097D01*
X45586126Y33283203D01*
X45677828Y33325964D01*
X45677830Y33325965D01*
X45871402Y33461505D01*
X46038493Y33628597D01*
X46038495Y33628599D01*
X46114416Y33737025D01*
X46174032Y33822165D01*
X46174034Y33822169D01*
X46174035Y33822170D01*
X46273903Y34036337D01*
X46335063Y34264592D01*
X46354033Y34481420D01*
X46355659Y34499999D01*
X46355659Y34500000D01*
X46343254Y34641785D01*
X46335063Y34735408D01*
X46273903Y34963663D01*
X46174035Y35177829D01*
X46038495Y35371401D01*
X45871401Y35538495D01*
X45677829Y35674035D01*
X45463663Y35773903D01*
X45235408Y35835063D01*
X45058966Y35850500D01*
X44941034Y35850500D01*
X44764592Y35835063D01*
X44536337Y35773903D01*
X44347073Y35685647D01*
X44322171Y35674035D01*
X44322169Y35674034D01*
X44128597Y35538494D01*
X44040910Y35450806D01*
X43961505Y35371401D01*
X43934281Y35332521D01*
X43825967Y35177834D01*
X43825965Y35177830D01*
X43726097Y34963663D01*
X43726096Y34963659D01*
X43726094Y34963655D01*
X43664938Y34735413D01*
X43664936Y34735403D01*
X43644341Y34500000D01*
X43644341Y34499999D01*
X40707508Y34499999D01*
X40680655Y34530989D01*
X40670711Y34600147D01*
X40686062Y34644500D01*
X40734526Y34728443D01*
X40734527Y34728444D01*
X40793542Y34910072D01*
X40813504Y35100000D01*
X40794633Y35279541D01*
X40807202Y35348268D01*
X40854934Y35399292D01*
X40917954Y35416500D01*
X41666366Y35416500D01*
X41682113Y35414761D01*
X41682139Y35415032D01*
X41689905Y35414298D01*
X41689908Y35414298D01*
X41689909Y35414298D01*
X41759958Y35416500D01*
X41789856Y35416500D01*
X41789859Y35416500D01*
X41796856Y35417384D01*
X41802679Y35417842D01*
X41849889Y35419326D01*
X41849891Y35419327D01*
X41869495Y35425022D01*
X41888542Y35428967D01*
X41891333Y35429319D01*
X41908797Y35431526D01*
X41908800Y35431527D01*
X41908803Y35431528D01*
X41952716Y35448914D01*
X41958244Y35450806D01*
X42003592Y35463981D01*
X42021162Y35474372D01*
X42038635Y35482932D01*
X42057617Y35490447D01*
X42095827Y35518209D01*
X42100712Y35521418D01*
X42141359Y35545456D01*
X42141362Y35545458D01*
X42155793Y35559889D01*
X42170589Y35572527D01*
X42187107Y35584528D01*
X42187109Y35584530D01*
X42194900Y35593948D01*
X42217222Y35620931D01*
X42221135Y35625231D01*
X43526086Y36930181D01*
X43587409Y36963666D01*
X43613767Y36966500D01*
X51858443Y36966500D01*
X51925482Y36946815D01*
X51946118Y36930185D01*
X52207509Y36668794D01*
X52254623Y36621680D01*
X52264526Y36609321D01*
X52264734Y36609494D01*
X52269705Y36603485D01*
X52320788Y36555515D01*
X52341931Y36534372D01*
X52341948Y36534357D01*
X52347523Y36530031D01*
X52351953Y36526247D01*
X52386380Y36493919D01*
X52386390Y36493912D01*
X52404276Y36484079D01*
X52420529Y36473403D01*
X52436666Y36460886D01*
X52436668Y36460885D01*
X52480019Y36442125D01*
X52485265Y36439555D01*
X52526651Y36416803D01*
X52546429Y36411725D01*
X52564831Y36405425D01*
X52583566Y36397318D01*
X52630204Y36389931D01*
X52635925Y36388746D01*
X52681674Y36377000D01*
X52681679Y36377000D01*
X52702093Y36377000D01*
X52721492Y36375473D01*
X52741650Y36372280D01*
X52741651Y36372280D01*
X52741652Y36372280D01*
X52788675Y36376725D01*
X52794513Y36377000D01*
X55154657Y36377000D01*
X55170404Y36375261D01*
X55170430Y36375532D01*
X55178196Y36374798D01*
X55178199Y36374798D01*
X55178200Y36374798D01*
X55248249Y36377000D01*
X55278147Y36377000D01*
X55278150Y36377000D01*
X55285147Y36377884D01*
X55290970Y36378342D01*
X55338180Y36379826D01*
X55338182Y36379827D01*
X55357786Y36385522D01*
X55376833Y36389467D01*
X55380505Y36389931D01*
X55397088Y36392026D01*
X55397091Y36392027D01*
X55397094Y36392028D01*
X55441007Y36409414D01*
X55446535Y36411306D01*
X55491883Y36424481D01*
X55509453Y36434872D01*
X55526926Y36443432D01*
X55545908Y36450947D01*
X55584118Y36478709D01*
X55589003Y36481918D01*
X55629650Y36505956D01*
X55629653Y36505958D01*
X55644084Y36520389D01*
X55658880Y36533027D01*
X55675398Y36545028D01*
X55675401Y36545031D01*
X55705504Y36581420D01*
X55709426Y36585731D01*
X56053877Y36930181D01*
X56115200Y36963666D01*
X56141558Y36966500D01*
X56286234Y36966500D01*
X56353273Y36946815D01*
X56373915Y36930181D01*
X57453379Y35850715D01*
X57486864Y35789392D01*
X57489018Y35775997D01*
X57506458Y35610072D01*
X57506458Y35610069D01*
X57506459Y35610068D01*
X57565470Y35428450D01*
X57565473Y35428443D01*
X57660959Y35263057D01*
X57788745Y35121135D01*
X57943246Y35008883D01*
X58117714Y34931205D01*
X58117713Y34931205D01*
X58304513Y34891500D01*
X58495487Y34891500D01*
X58682285Y34931205D01*
X58682286Y34931205D01*
X58682288Y34931206D01*
X58856752Y35008882D01*
X59011253Y35121134D01*
X59139040Y35263056D01*
X59234527Y35428444D01*
X59293542Y35610072D01*
X59313504Y35800000D01*
X59293542Y35989928D01*
X59234527Y36171556D01*
X59139040Y36336944D01*
X59011253Y36478866D01*
X58856752Y36591118D01*
X58682288Y36668794D01*
X58495487Y36708500D01*
X58438767Y36708500D01*
X58371728Y36728185D01*
X58351086Y36744819D01*
X57841086Y37254819D01*
X57807601Y37316142D01*
X57812585Y37385834D01*
X57854457Y37441767D01*
X57919921Y37466184D01*
X57928767Y37466500D01*
X62161234Y37466500D01*
X62228273Y37446815D01*
X62248915Y37430181D01*
X63528379Y36150714D01*
X63561864Y36089391D01*
X63564018Y36075995D01*
X63581458Y35910072D01*
X63581458Y35910069D01*
X63581459Y35910068D01*
X63640470Y35728450D01*
X63640473Y35728443D01*
X63735959Y35563057D01*
X63863745Y35421135D01*
X64018246Y35308883D01*
X64192714Y35231205D01*
X64192713Y35231205D01*
X64379513Y35191500D01*
X64570487Y35191500D01*
X64757285Y35231205D01*
X64757286Y35231205D01*
X64757288Y35231206D01*
X64931752Y35308882D01*
X65086253Y35421134D01*
X65124833Y35463981D01*
X65205729Y35553825D01*
X65265216Y35590474D01*
X65335073Y35589143D01*
X65385560Y35558534D01*
X67915181Y33028914D01*
X67948666Y32967591D01*
X67951500Y32941233D01*
X67951500Y31331345D01*
X67958011Y31270797D01*
X67958011Y31270795D01*
X68009111Y31133795D01*
X68096739Y31016739D01*
X68213795Y30929111D01*
X68350796Y30878011D01*
X68411345Y30871500D01*
X68411362Y30871500D01*
X70508654Y30871500D01*
X70569202Y30878011D01*
X70569204Y30878011D01*
X70706204Y30929111D01*
X70719843Y30939321D01*
X70823261Y31016739D01*
X70910889Y31133796D01*
X70945548Y31226720D01*
X70961988Y31270795D01*
X70961988Y31270797D01*
X70961989Y31270799D01*
X70966207Y31310031D01*
X70968499Y31331345D01*
X70968500Y31331362D01*
X70968500Y33428637D01*
X70968499Y33428654D01*
X70965591Y33455692D01*
X70961989Y33489201D01*
X70910889Y33626204D01*
X70823261Y33743261D01*
X70706204Y33830889D01*
X70569201Y33881989D01*
X70537623Y33885383D01*
X70508654Y33888499D01*
X70508638Y33888500D01*
X68898767Y33888500D01*
X68831728Y33908185D01*
X68811086Y33924819D01*
X67558071Y35177834D01*
X63747086Y38988817D01*
X63737185Y39001178D01*
X63736975Y39001004D01*
X63732002Y39007013D01*
X63732000Y39007018D01*
X63680921Y39054983D01*
X63659770Y39076135D01*
X63654192Y39080461D01*
X63649755Y39084250D01*
X63615321Y39116586D01*
X63597432Y39126419D01*
X63581169Y39137102D01*
X63565041Y39149614D01*
X63521691Y39168371D01*
X63516447Y39170941D01*
X63475064Y39193693D01*
X63475063Y39193693D01*
X63475060Y39193695D01*
X63455273Y39198774D01*
X63436885Y39205070D01*
X63418145Y39213181D01*
X63379012Y39219378D01*
X63371497Y39220569D01*
X63365786Y39221751D01*
X63320030Y39233500D01*
X63320028Y39233500D01*
X63299616Y39233500D01*
X63280217Y39235027D01*
X63278878Y39235239D01*
X63260057Y39238220D01*
X63213793Y39233846D01*
X63213034Y39233775D01*
X63207196Y39233500D01*
X60544023Y39233500D01*
X60476984Y39253185D01*
X60431229Y39305989D01*
X60421285Y39375147D01*
X60436636Y39419500D01*
X60506425Y39540379D01*
X60575220Y39739148D01*
X60575222Y39739154D01*
X60605157Y39947355D01*
X60595148Y40157459D01*
X60545558Y40361871D01*
X60458179Y40553205D01*
X60336169Y40724544D01*
X60183937Y40869697D01*
X60006986Y40983416D01*
X59970809Y40997899D01*
X59959610Y41002383D01*
X59904689Y41045574D01*
X59881837Y41111601D01*
X59898310Y41179501D01*
X59948878Y41227716D01*
X60005697Y41241500D01*
X64858975Y41241500D01*
X64926014Y41221815D01*
X64971769Y41169011D01*
X64981713Y41099853D01*
X64958243Y41043191D01*
X64932561Y41008882D01*
X64931773Y41007830D01*
X64804312Y40774402D01*
X64769034Y40679819D01*
X64712227Y40527512D01*
X64711358Y40525183D01*
X64654824Y40265301D01*
X64635850Y40000001D01*
X64635850Y39999998D01*
X64654824Y39734698D01*
X64711358Y39474816D01*
X64804312Y39225597D01*
X64931773Y38992169D01*
X64931778Y38992161D01*
X65091162Y38779248D01*
X65091178Y38779230D01*
X65279230Y38591178D01*
X65279248Y38591162D01*
X65492161Y38431778D01*
X65492169Y38431773D01*
X65725597Y38304312D01*
X65974816Y38211358D01*
X66234698Y38154824D01*
X66499999Y38135850D01*
X66500000Y38135850D01*
X66500001Y38135850D01*
X66765301Y38154824D01*
X67025183Y38211358D01*
X67025189Y38211360D01*
X67025192Y38211361D01*
X67235389Y38289761D01*
X67274402Y38304312D01*
X67507830Y38431773D01*
X67507838Y38431778D01*
X67720751Y38591162D01*
X67720769Y38591178D01*
X67908821Y38779230D01*
X67908837Y38779248D01*
X68068221Y38992161D01*
X68068226Y38992169D01*
X68195687Y39225597D01*
X68198635Y39233500D01*
X68288639Y39474808D01*
X68309283Y39569706D01*
X68345175Y39734698D01*
X68345175Y39734700D01*
X68345176Y39734704D01*
X68364150Y40000000D01*
X68345176Y40265296D01*
X68336446Y40305425D01*
X68288641Y40525183D01*
X68288640Y40525183D01*
X68288639Y40525192D01*
X68195690Y40774396D01*
X68181301Y40800747D01*
X68073724Y40997762D01*
X68068223Y41007836D01*
X68041756Y41043190D01*
X68017341Y41108655D01*
X68032193Y41176928D01*
X68081599Y41226333D01*
X68141025Y41241500D01*
X70230060Y41241500D01*
X70297099Y41221815D01*
X70342854Y41169011D01*
X70352798Y41099853D01*
X70338892Y41058073D01*
X70208010Y40818380D01*
X70208008Y40818376D01*
X70184462Y40755246D01*
X70109781Y40555018D01*
X70109780Y40555014D01*
X70109779Y40555011D01*
X70050034Y40280371D01*
X70050033Y40280364D01*
X70029981Y40000001D01*
X70029981Y39999998D01*
X70050033Y39719635D01*
X70050034Y39719628D01*
X70109779Y39444988D01*
X70208008Y39181623D01*
X70208010Y39181619D01*
X70342711Y38934932D01*
X70342716Y38934924D01*
X70511152Y38709919D01*
X70511168Y38709901D01*
X70709901Y38511168D01*
X70709919Y38511152D01*
X70934924Y38342716D01*
X70934932Y38342711D01*
X71181619Y38208010D01*
X71181623Y38208008D01*
X71381309Y38133529D01*
X71444982Y38109781D01*
X71444983Y38109780D01*
X71444988Y38109779D01*
X71719628Y38050034D01*
X71719635Y38050033D01*
X71929825Y38035000D01*
X72070175Y38035000D01*
X72280364Y38050033D01*
X72280371Y38050034D01*
X72555011Y38109779D01*
X72555014Y38109780D01*
X72555018Y38109781D01*
X72762024Y38186990D01*
X72818376Y38208008D01*
X72818380Y38208010D01*
X73065067Y38342711D01*
X73065075Y38342716D01*
X73290080Y38511152D01*
X73290098Y38511168D01*
X73488831Y38709901D01*
X73488847Y38709919D01*
X73657283Y38934924D01*
X73657288Y38934932D01*
X73791989Y39181619D01*
X73791991Y39181623D01*
X73798386Y39198768D01*
X73890219Y39444982D01*
X73949967Y39719637D01*
X73970019Y40000000D01*
X73949967Y40280363D01*
X73890219Y40555018D01*
X73791992Y40818375D01*
X73657285Y41065073D01*
X73540149Y41221549D01*
X73513094Y41257690D01*
X73488677Y41323154D01*
X73503529Y41391427D01*
X73552934Y41440832D01*
X73612361Y41456000D01*
X73877972Y41456000D01*
X73945011Y41436315D01*
X73985359Y41394000D01*
X74060958Y41263057D01*
X74188745Y41121135D01*
X74343246Y41008883D01*
X74343247Y41008882D01*
X74343248Y41008882D01*
X74400446Y40983416D01*
X74517714Y40931205D01*
X74517713Y40931205D01*
X74704513Y40891500D01*
X74826152Y40891500D01*
X74893191Y40871815D01*
X74938946Y40819011D01*
X74948890Y40749853D01*
X74919865Y40686297D01*
X74913833Y40679819D01*
X74911183Y40677169D01*
X74898823Y40667268D01*
X74898998Y40667058D01*
X74892986Y40662083D01*
X74892982Y40662081D01*
X74873923Y40641785D01*
X74845015Y40611002D01*
X74831188Y40597174D01*
X74823865Y40589851D01*
X74819531Y40584264D01*
X74815744Y40579831D01*
X74783414Y40545402D01*
X74783412Y40545400D01*
X74773578Y40527512D01*
X74762897Y40511251D01*
X74750384Y40495120D01*
X74731627Y40451774D01*
X74729056Y40446526D01*
X74719006Y40428244D01*
X74706305Y40405141D01*
X74706304Y40405137D01*
X74701228Y40385368D01*
X74694926Y40366962D01*
X74686818Y40348226D01*
X74679430Y40301577D01*
X74678246Y40295862D01*
X74676605Y40289467D01*
X74666500Y40250113D01*
X74666500Y40229696D01*
X74664973Y40210295D01*
X74661780Y40190138D01*
X74666225Y40143114D01*
X74666500Y40137276D01*
X74666500Y37794288D01*
X74646815Y37727249D01*
X74641767Y37719977D01*
X74636739Y37713261D01*
X74549110Y37596204D01*
X74549111Y37596204D01*
X74498011Y37459204D01*
X74498011Y37459202D01*
X74491500Y37398654D01*
X74491500Y36601345D01*
X74498011Y36540797D01*
X74498011Y36540795D01*
X74549111Y36403795D01*
X74636739Y36286739D01*
X74753795Y36199111D01*
X74890796Y36148011D01*
X74951345Y36141500D01*
X74951362Y36141500D01*
X75648654Y36141500D01*
X75709202Y36148011D01*
X75709204Y36148011D01*
X75846204Y36199111D01*
X75925689Y36258613D01*
X75991154Y36283030D01*
X76059427Y36268178D01*
X76074311Y36258613D01*
X76153795Y36199111D01*
X76290796Y36148011D01*
X76351345Y36141500D01*
X76351362Y36141500D01*
X77048654Y36141500D01*
X77109201Y36148010D01*
X77209059Y36185256D01*
X77278751Y36190240D01*
X77302827Y36182354D01*
X77417710Y36131206D01*
X77417713Y36131205D01*
X77604513Y36091500D01*
X77795487Y36091500D01*
X77982285Y36131205D01*
X77982286Y36131205D01*
X77982288Y36131206D01*
X78156752Y36208882D01*
X78311253Y36321134D01*
X78439040Y36463056D01*
X78534527Y36628444D01*
X78593542Y36810072D01*
X78613504Y37000000D01*
X78593542Y37189928D01*
X78534527Y37371556D01*
X78439040Y37536944D01*
X78311253Y37678866D01*
X78156752Y37791118D01*
X77982288Y37868794D01*
X77795487Y37908500D01*
X77785824Y37908500D01*
X77718785Y37928185D01*
X77673030Y37980989D01*
X77663086Y38050147D01*
X77692111Y38113703D01*
X77750889Y38151477D01*
X77761013Y38153679D01*
X77760969Y38153882D01*
X78025183Y38211358D01*
X78025189Y38211360D01*
X78025192Y38211361D01*
X78235389Y38289761D01*
X78274402Y38304312D01*
X78507830Y38431773D01*
X78507838Y38431778D01*
X78724305Y38593823D01*
X78725214Y38592607D01*
X78782866Y38618929D01*
X78852024Y38608978D01*
X78904823Y38563217D01*
X78924500Y38496189D01*
X78924500Y-18007559D01*
X78924309Y-18012426D01*
X78907850Y-18221549D01*
X78904806Y-18240767D01*
X78857546Y-18437618D01*
X78851533Y-18456123D01*
X78774064Y-18643152D01*
X78765230Y-18660490D01*
X78659455Y-18833099D01*
X78648018Y-18848841D01*
X78516540Y-19002782D01*
X78502782Y-19016540D01*
X78348841Y-19148018D01*
X78333099Y-19159455D01*
X78160490Y-19265230D01*
X78143152Y-19274064D01*
X77956123Y-19351533D01*
X77937618Y-19357546D01*
X77740767Y-19404806D01*
X77721549Y-19407850D01*
X77512427Y-19424309D01*
X77507560Y-19424500D01*
X62492440Y-19424500D01*
X62487573Y-19424309D01*
X62278450Y-19407850D01*
X62259232Y-19404806D01*
X62062381Y-19357546D01*
X62043876Y-19351533D01*
X61856847Y-19274064D01*
X61839509Y-19265230D01*
X61666900Y-19159455D01*
X61651158Y-19148018D01*
X61618122Y-19119803D01*
X61497217Y-19016540D01*
X61483459Y-19002782D01*
X61351981Y-18848841D01*
X61340548Y-18833104D01*
X61234766Y-18660485D01*
X61225938Y-18643158D01*
X61148464Y-18456119D01*
X61142453Y-18437618D01*
X61133514Y-18400386D01*
X61095192Y-18240762D01*
X61092149Y-18221549D01*
X61088462Y-18174705D01*
X61075691Y-18012425D01*
X61075500Y-18007559D01*
X61075500Y-17081187D01*
X70249500Y-17081187D01*
X70269794Y-17215823D01*
X70288604Y-17340615D01*
X70288605Y-17340617D01*
X70288606Y-17340623D01*
X70365938Y-17591326D01*
X70479767Y-17827696D01*
X70479768Y-17827697D01*
X70479770Y-17827700D01*
X70479772Y-17827704D01*
X70533500Y-17906508D01*
X70627567Y-18044479D01*
X70806014Y-18236801D01*
X70806018Y-18236804D01*
X70806019Y-18236805D01*
X71011143Y-18400386D01*
X71238357Y-18531568D01*
X71482584Y-18627420D01*
X71738370Y-18685802D01*
X71738376Y-18685802D01*
X71738379Y-18685803D01*
X71934500Y-18700500D01*
X71934506Y-18700500D01*
X72065500Y-18700500D01*
X72261620Y-18685803D01*
X72261622Y-18685802D01*
X72261630Y-18685802D01*
X72517416Y-18627420D01*
X72761643Y-18531568D01*
X72988857Y-18400386D01*
X73193981Y-18236805D01*
X73208137Y-18221549D01*
X73251601Y-18174705D01*
X73311629Y-18138950D01*
X73381458Y-18141325D01*
X73438919Y-18181075D01*
X73465767Y-18245580D01*
X73466500Y-18259046D01*
X73466500Y-18298654D01*
X73473011Y-18359202D01*
X73473011Y-18359204D01*
X73509161Y-18456123D01*
X73524111Y-18496204D01*
X73611739Y-18613261D01*
X73728796Y-18700889D01*
X73865799Y-18751989D01*
X73893050Y-18754918D01*
X73926345Y-18758499D01*
X73926362Y-18758500D01*
X76623638Y-18758500D01*
X76623654Y-18758499D01*
X76650692Y-18755591D01*
X76684201Y-18751989D01*
X76821204Y-18700889D01*
X76938261Y-18613261D01*
X77025889Y-18496204D01*
X77076989Y-18359201D01*
X77080591Y-18325692D01*
X77083499Y-18298654D01*
X77083500Y-18298637D01*
X77083500Y-15601362D01*
X77083499Y-15601345D01*
X77080157Y-15570270D01*
X77076989Y-15540799D01*
X77025889Y-15403796D01*
X76938261Y-15286739D01*
X76821204Y-15199111D01*
X76684203Y-15148011D01*
X76623654Y-15141500D01*
X76623638Y-15141500D01*
X76032500Y-15141500D01*
X75965461Y-15121815D01*
X75919706Y-15069011D01*
X75908500Y-15017500D01*
X75908500Y-14938766D01*
X75928185Y-14871727D01*
X75944819Y-14851085D01*
X76301086Y-14494819D01*
X76362409Y-14461334D01*
X76388767Y-14458500D01*
X76648638Y-14458500D01*
X76648654Y-14458499D01*
X76675692Y-14455591D01*
X76709201Y-14451989D01*
X76709207Y-14451987D01*
X76723768Y-14446555D01*
X76846204Y-14400889D01*
X76963261Y-14313261D01*
X77050889Y-14196204D01*
X77101989Y-14059201D01*
X77105591Y-14025692D01*
X77108499Y-13998654D01*
X77108500Y-13998637D01*
X77108500Y-13201362D01*
X77108499Y-13201345D01*
X77104960Y-13168432D01*
X77101989Y-13140799D01*
X77100551Y-13136944D01*
X77076543Y-13072576D01*
X77050889Y-13003796D01*
X76963261Y-12886739D01*
X76846204Y-12799111D01*
X76709203Y-12748011D01*
X76648654Y-12741500D01*
X76648638Y-12741500D01*
X75951362Y-12741500D01*
X75951345Y-12741500D01*
X75890797Y-12748011D01*
X75877657Y-12752912D01*
X75807966Y-12757895D01*
X75746643Y-12724409D01*
X75713159Y-12663085D01*
X75711006Y-12623765D01*
X75713504Y-12600000D01*
X75693542Y-12410072D01*
X75634527Y-12228444D01*
X75539040Y-12063056D01*
X75411253Y-11921134D01*
X75256752Y-11808882D01*
X75082288Y-11731206D01*
X75082286Y-11731205D01*
X74895487Y-11691500D01*
X74704513Y-11691500D01*
X74517714Y-11731205D01*
X74343246Y-11808883D01*
X74188745Y-11921135D01*
X74060959Y-12063057D01*
X73965473Y-12228443D01*
X73965470Y-12228450D01*
X73906459Y-12410068D01*
X73906458Y-12410072D01*
X73886496Y-12600000D01*
X73906458Y-12789928D01*
X73906459Y-12789931D01*
X73965470Y-12971549D01*
X73965473Y-12971556D01*
X74060959Y-13136943D01*
X74064778Y-13142199D01*
X74063363Y-13143227D01*
X74089880Y-13198480D01*
X74091500Y-13218461D01*
X74091500Y-13998654D01*
X74098011Y-14059202D01*
X74098011Y-14059204D01*
X74149110Y-14196203D01*
X74149111Y-14196204D01*
X74236739Y-14313261D01*
X74353796Y-14400889D01*
X74423185Y-14426770D01*
X74490792Y-14451987D01*
X74490794Y-14451987D01*
X74490799Y-14451989D01*
X74528546Y-14456047D01*
X74593095Y-14482784D01*
X74632943Y-14540177D01*
X74637764Y-14598726D01*
X74636780Y-14604941D01*
X74636780Y-14604943D01*
X74638092Y-14618818D01*
X74641225Y-14651966D01*
X74641500Y-14657804D01*
X74641500Y-15017500D01*
X74621815Y-15084539D01*
X74569011Y-15130294D01*
X74517500Y-15141500D01*
X73926345Y-15141500D01*
X73865797Y-15148011D01*
X73865795Y-15148011D01*
X73728795Y-15199111D01*
X73611739Y-15286739D01*
X73524111Y-15403795D01*
X73473011Y-15540795D01*
X73473011Y-15540797D01*
X73466500Y-15601345D01*
X73466500Y-15640953D01*
X73446815Y-15707992D01*
X73394011Y-15753747D01*
X73324853Y-15763691D01*
X73261297Y-15734666D01*
X73251602Y-15725294D01*
X73193990Y-15663203D01*
X73193987Y-15663200D01*
X73166090Y-15640953D01*
X72988857Y-15499614D01*
X72761643Y-15368432D01*
X72517416Y-15272580D01*
X72517411Y-15272578D01*
X72517402Y-15272576D01*
X72299818Y-15222914D01*
X72261630Y-15214198D01*
X72261629Y-15214197D01*
X72261625Y-15214197D01*
X72261620Y-15214196D01*
X72065500Y-15199500D01*
X72065494Y-15199500D01*
X71934506Y-15199500D01*
X71934500Y-15199500D01*
X71738379Y-15214196D01*
X71738374Y-15214197D01*
X71482597Y-15272576D01*
X71482578Y-15272582D01*
X71238356Y-15368432D01*
X71011143Y-15499614D01*
X70806014Y-15663198D01*
X70627567Y-15855520D01*
X70479768Y-16072302D01*
X70479767Y-16072303D01*
X70365938Y-16308673D01*
X70288606Y-16559376D01*
X70288605Y-16559381D01*
X70288604Y-16559385D01*
X70273853Y-16657247D01*
X70249500Y-16818812D01*
X70249500Y-17081187D01*
X61075500Y-17081187D01*
X61075500Y-16098654D01*
X61916500Y-16098654D01*
X61923011Y-16159202D01*
X61923011Y-16159204D01*
X61938372Y-16200386D01*
X61974111Y-16296204D01*
X62061739Y-16413261D01*
X62178796Y-16500889D01*
X62315799Y-16551989D01*
X62343050Y-16554918D01*
X62376345Y-16558499D01*
X62376362Y-16558500D01*
X65073638Y-16558500D01*
X65073654Y-16558499D01*
X65100692Y-16555591D01*
X65134201Y-16551989D01*
X65271204Y-16500889D01*
X65388261Y-16413261D01*
X65475889Y-16296204D01*
X65526989Y-16159201D01*
X65530591Y-16125692D01*
X65533499Y-16098654D01*
X65533498Y-16098647D01*
X65533500Y-16098638D01*
X65533499Y-16059045D01*
X65553182Y-15992009D01*
X65605985Y-15946253D01*
X65675143Y-15936308D01*
X65738700Y-15965331D01*
X65748397Y-15974705D01*
X65806009Y-16036796D01*
X65806012Y-16036799D01*
X65806015Y-16036801D01*
X65806019Y-16036805D01*
X66011143Y-16200386D01*
X66238357Y-16331568D01*
X66482584Y-16427420D01*
X66738370Y-16485802D01*
X66738376Y-16485802D01*
X66738379Y-16485803D01*
X66934500Y-16500500D01*
X66934506Y-16500500D01*
X67065500Y-16500500D01*
X67261620Y-16485803D01*
X67261622Y-16485802D01*
X67261630Y-16485802D01*
X67517416Y-16427420D01*
X67761643Y-16331568D01*
X67988857Y-16200386D01*
X68193981Y-16036805D01*
X68193990Y-16036796D01*
X68234170Y-15993491D01*
X68372433Y-15844479D01*
X68520228Y-15627704D01*
X68634063Y-15391323D01*
X68711396Y-15140615D01*
X68750500Y-14881182D01*
X68750500Y-14618818D01*
X68711396Y-14359385D01*
X68634063Y-14108677D01*
X68581071Y-13998637D01*
X68520232Y-13872303D01*
X68520231Y-13872302D01*
X68520230Y-13872301D01*
X68520228Y-13872296D01*
X68372433Y-13655521D01*
X68362441Y-13644753D01*
X68193985Y-13463198D01*
X68116445Y-13401362D01*
X67988857Y-13299614D01*
X67761643Y-13168432D01*
X67517416Y-13072580D01*
X67517411Y-13072578D01*
X67517402Y-13072576D01*
X67299818Y-13022914D01*
X67261630Y-13014198D01*
X67261629Y-13014197D01*
X67261625Y-13014197D01*
X67261620Y-13014196D01*
X67065500Y-12999500D01*
X67065494Y-12999500D01*
X66934506Y-12999500D01*
X66934500Y-12999500D01*
X66738379Y-13014196D01*
X66738374Y-13014197D01*
X66482597Y-13072576D01*
X66482578Y-13072582D01*
X66238356Y-13168432D01*
X66011143Y-13299614D01*
X65806014Y-13463199D01*
X65748397Y-13525295D01*
X65688368Y-13561049D01*
X65618539Y-13558674D01*
X65561079Y-13518922D01*
X65534232Y-13454417D01*
X65533499Y-13440966D01*
X65533500Y-13401362D01*
X65533498Y-13401352D01*
X65533499Y-13401345D01*
X65530157Y-13370270D01*
X65526989Y-13340799D01*
X65475889Y-13203796D01*
X65388261Y-13086739D01*
X65271204Y-12999111D01*
X65134203Y-12948011D01*
X65073654Y-12941500D01*
X65073638Y-12941500D01*
X62376362Y-12941500D01*
X62376345Y-12941500D01*
X62315797Y-12948011D01*
X62315795Y-12948011D01*
X62178795Y-12999111D01*
X62061739Y-13086739D01*
X61974111Y-13203795D01*
X61923011Y-13340795D01*
X61923011Y-13340797D01*
X61916500Y-13401345D01*
X61916500Y-16098654D01*
X61075500Y-16098654D01*
X61075500Y-10947355D01*
X65394843Y-10947355D01*
X65404852Y-11157459D01*
X65454442Y-11361871D01*
X65499082Y-11459619D01*
X65541820Y-11553204D01*
X65541824Y-11553210D01*
X65663826Y-11724539D01*
X65663831Y-11724544D01*
X65816063Y-11869697D01*
X65993014Y-11983416D01*
X66188288Y-12061593D01*
X66317084Y-12086416D01*
X66394828Y-12101400D01*
X66394829Y-12101400D01*
X66552461Y-12101400D01*
X66552468Y-12101400D01*
X66709389Y-12086416D01*
X66911211Y-12027156D01*
X67098170Y-11930771D01*
X67263510Y-11800747D01*
X67401255Y-11641781D01*
X67506426Y-11459619D01*
X67575222Y-11260846D01*
X67605157Y-11052645D01*
X67602649Y-11000001D01*
X70029981Y-11000001D01*
X70050033Y-11280364D01*
X70050034Y-11280371D01*
X70109779Y-11555011D01*
X70109781Y-11555018D01*
X70160686Y-11691500D01*
X70208008Y-11818376D01*
X70208010Y-11818380D01*
X70342711Y-12065067D01*
X70342716Y-12065075D01*
X70511152Y-12290080D01*
X70511168Y-12290098D01*
X70709901Y-12488831D01*
X70709919Y-12488847D01*
X70934924Y-12657283D01*
X70934932Y-12657288D01*
X71181619Y-12791989D01*
X71181623Y-12791991D01*
X71181625Y-12791992D01*
X71444982Y-12890219D01*
X71719637Y-12949967D01*
X71929825Y-12965000D01*
X72070175Y-12965000D01*
X72280363Y-12949967D01*
X72555018Y-12890219D01*
X72818375Y-12791992D01*
X73065073Y-12657285D01*
X73290088Y-12488841D01*
X73488841Y-12290088D01*
X73657285Y-12065073D01*
X73791992Y-11818375D01*
X73890219Y-11555018D01*
X73949967Y-11280363D01*
X73970019Y-11000000D01*
X73966254Y-10947355D01*
X76394843Y-10947355D01*
X76404852Y-11157459D01*
X76454442Y-11361871D01*
X76499082Y-11459619D01*
X76541820Y-11553204D01*
X76541824Y-11553210D01*
X76663826Y-11724539D01*
X76663831Y-11724544D01*
X76816063Y-11869697D01*
X76993014Y-11983416D01*
X77188288Y-12061593D01*
X77317084Y-12086416D01*
X77394828Y-12101400D01*
X77394829Y-12101400D01*
X77552461Y-12101400D01*
X77552468Y-12101400D01*
X77709389Y-12086416D01*
X77911211Y-12027156D01*
X78098170Y-11930771D01*
X78263510Y-11800747D01*
X78401255Y-11641781D01*
X78506426Y-11459619D01*
X78575222Y-11260846D01*
X78605157Y-11052645D01*
X78595148Y-10842541D01*
X78545558Y-10638129D01*
X78458179Y-10446795D01*
X78458175Y-10446789D01*
X78336173Y-10275460D01*
X78336167Y-10275454D01*
X78183939Y-10130305D01*
X78183937Y-10130303D01*
X78006986Y-10016584D01*
X78006984Y-10016583D01*
X77811721Y-9938410D01*
X77811714Y-9938407D01*
X77811712Y-9938407D01*
X77811709Y-9938406D01*
X77811708Y-9938406D01*
X77605172Y-9898600D01*
X77605171Y-9898600D01*
X77447532Y-9898600D01*
X77290611Y-9913584D01*
X77290607Y-9913585D01*
X77088791Y-9972843D01*
X76901831Y-10069228D01*
X76736490Y-10199252D01*
X76736489Y-10199253D01*
X76598749Y-10358214D01*
X76598740Y-10358225D01*
X76493574Y-10540379D01*
X76424779Y-10739148D01*
X76424778Y-10739153D01*
X76424778Y-10739154D01*
X76394843Y-10947355D01*
X73966254Y-10947355D01*
X73949967Y-10719637D01*
X73890219Y-10444982D01*
X73791992Y-10181625D01*
X73730619Y-10069229D01*
X73657288Y-9934932D01*
X73657283Y-9934924D01*
X73488847Y-9709919D01*
X73488831Y-9709901D01*
X73290098Y-9511168D01*
X73290080Y-9511152D01*
X73065075Y-9342716D01*
X73065067Y-9342711D01*
X72818380Y-9208010D01*
X72818376Y-9208008D01*
X72718532Y-9170768D01*
X72555018Y-9109781D01*
X72555014Y-9109780D01*
X72555011Y-9109779D01*
X72280371Y-9050034D01*
X72280364Y-9050033D01*
X72070175Y-9035000D01*
X71929825Y-9035000D01*
X71719635Y-9050033D01*
X71719628Y-9050034D01*
X71444988Y-9109779D01*
X71444983Y-9109780D01*
X71444982Y-9109781D01*
X71381309Y-9133529D01*
X71181623Y-9208008D01*
X71181619Y-9208010D01*
X70934932Y-9342711D01*
X70934924Y-9342716D01*
X70709919Y-9511152D01*
X70709901Y-9511168D01*
X70511168Y-9709901D01*
X70511152Y-9709919D01*
X70342716Y-9934924D01*
X70342711Y-9934932D01*
X70208010Y-10181619D01*
X70208008Y-10181623D01*
X70109779Y-10444988D01*
X70050034Y-10719628D01*
X70050033Y-10719635D01*
X70029981Y-10999998D01*
X70029981Y-11000001D01*
X67602649Y-11000001D01*
X67595148Y-10842541D01*
X67545558Y-10638129D01*
X67458179Y-10446795D01*
X67458175Y-10446789D01*
X67336173Y-10275460D01*
X67336167Y-10275454D01*
X67183939Y-10130305D01*
X67183937Y-10130303D01*
X67006986Y-10016584D01*
X67006984Y-10016583D01*
X66811721Y-9938410D01*
X66811714Y-9938407D01*
X66811712Y-9938407D01*
X66811709Y-9938406D01*
X66811708Y-9938406D01*
X66605172Y-9898600D01*
X66605171Y-9898600D01*
X66447532Y-9898600D01*
X66290611Y-9913584D01*
X66290607Y-9913585D01*
X66088791Y-9972843D01*
X65901831Y-10069228D01*
X65736490Y-10199252D01*
X65736489Y-10199253D01*
X65598749Y-10358214D01*
X65598740Y-10358225D01*
X65493574Y-10540379D01*
X65424779Y-10739148D01*
X65424778Y-10739153D01*
X65424778Y-10739154D01*
X65394843Y-10947355D01*
X61075500Y-10947355D01*
X61075500Y-3878035D01*
X61075500Y-3878033D01*
X61043631Y-3656379D01*
X60980542Y-3441516D01*
X60887516Y-3237819D01*
X60887513Y-3237815D01*
X60887509Y-3237807D01*
X60766453Y-3049440D01*
X60766449Y-3049434D01*
X60619803Y-2880196D01*
X60450565Y-2733550D01*
X60450559Y-2733546D01*
X60262192Y-2612490D01*
X60262174Y-2612480D01*
X60058486Y-2519459D01*
X60058484Y-2519458D01*
X59992216Y-2500000D01*
X61644341Y-2500000D01*
X61664936Y-2735403D01*
X61664938Y-2735413D01*
X61726094Y-2963655D01*
X61726096Y-2963659D01*
X61726097Y-2963663D01*
X61742414Y-2998654D01*
X61825964Y-3177828D01*
X61825965Y-3177830D01*
X61961505Y-3371402D01*
X62128597Y-3538494D01*
X62322169Y-3674034D01*
X62322171Y-3674035D01*
X62536337Y-3773903D01*
X62764592Y-3835063D01*
X62941034Y-3850500D01*
X63058966Y-3850500D01*
X63235408Y-3835063D01*
X63463663Y-3773903D01*
X63677829Y-3674035D01*
X63871401Y-3538495D01*
X64038495Y-3371401D01*
X64174035Y-3177830D01*
X64273903Y-2963663D01*
X64335063Y-2735408D01*
X64355659Y-2500000D01*
X64335063Y-2264592D01*
X64273903Y-2036337D01*
X64174035Y-1822171D01*
X64174034Y-1822169D01*
X64038494Y-1628597D01*
X63871402Y-1461505D01*
X63677830Y-1325965D01*
X63677828Y-1325964D01*
X63559773Y-1270914D01*
X63463663Y-1226097D01*
X63463659Y-1226096D01*
X63463655Y-1226094D01*
X63235413Y-1164938D01*
X63235403Y-1164936D01*
X63058966Y-1149500D01*
X62941034Y-1149500D01*
X62764596Y-1164936D01*
X62764586Y-1164938D01*
X62536344Y-1226094D01*
X62536335Y-1226098D01*
X62322171Y-1325964D01*
X62322169Y-1325965D01*
X62128597Y-1461505D01*
X61961506Y-1628597D01*
X61961501Y-1628604D01*
X61825967Y-1822165D01*
X61825965Y-1822169D01*
X61726098Y-2036335D01*
X61726094Y-2036344D01*
X61664938Y-2264586D01*
X61664936Y-2264596D01*
X61644341Y-2499999D01*
X61644341Y-2500000D01*
X59992216Y-2500000D01*
X59951052Y-2487913D01*
X59843619Y-2456368D01*
X59685702Y-2433663D01*
X59621967Y-2424500D01*
X59621965Y-2424500D01*
X44492440Y-2424500D01*
X44487573Y-2424309D01*
X44278450Y-2407850D01*
X44259232Y-2404806D01*
X44062381Y-2357546D01*
X44043876Y-2351533D01*
X43856847Y-2274064D01*
X43839509Y-2265230D01*
X43666897Y-2159453D01*
X43651158Y-2148018D01*
X43642703Y-2140797D01*
X43561624Y-2071549D01*
X43497217Y-2016540D01*
X43483459Y-2002782D01*
X43351981Y-1848841D01*
X43340548Y-1833104D01*
X43234766Y-1660485D01*
X43225938Y-1643158D01*
X43148464Y-1456119D01*
X43142453Y-1437618D01*
X43133514Y-1400386D01*
X43095192Y-1240762D01*
X43092149Y-1221549D01*
X43088462Y-1174705D01*
X43079602Y-1062121D01*
X43075691Y-1012425D01*
X43075500Y-1007559D01*
X43075500Y-878036D01*
X43075500Y-878033D01*
X43043631Y-656379D01*
X42980542Y-441516D01*
X42906945Y-280363D01*
X42887519Y-237825D01*
X42887509Y-237807D01*
X42766453Y-49440D01*
X42766449Y-49434D01*
X42619803Y119803D01*
X42576346Y157459D01*
X42450566Y266449D01*
X42262181Y387516D01*
X42058484Y480542D01*
X41992219Y499999D01*
X43644341Y499999D01*
X43664936Y264596D01*
X43664938Y264586D01*
X43726094Y36344D01*
X43726098Y36335D01*
X43825964Y-177828D01*
X43825965Y-177830D01*
X43961505Y-371402D01*
X44128597Y-538494D01*
X44322169Y-674034D01*
X44322171Y-674035D01*
X44536337Y-773903D01*
X44764592Y-835063D01*
X44941034Y-850500D01*
X45058966Y-850500D01*
X45235408Y-835063D01*
X45463663Y-773903D01*
X45677829Y-674035D01*
X45871401Y-538495D01*
X46038495Y-371401D01*
X46158135Y-200537D01*
X54716500Y-200537D01*
X54716501Y-200553D01*
X54727113Y-304427D01*
X54739105Y-340617D01*
X54782885Y-472738D01*
X54875970Y-623652D01*
X55001348Y-749030D01*
X55152262Y-842115D01*
X55320574Y-897887D01*
X55424455Y-908500D01*
X56825544Y-908499D01*
X56929426Y-897887D01*
X57097738Y-842115D01*
X57248652Y-749030D01*
X57374030Y-623652D01*
X57467115Y-472738D01*
X57522887Y-304426D01*
X57533500Y-200545D01*
X57533499Y600544D01*
X57522887Y704426D01*
X57467115Y872738D01*
X57374030Y1023652D01*
X57248652Y1149030D01*
X57097738Y1242115D01*
X56929426Y1297887D01*
X56825545Y1308500D01*
X55424456Y1308499D01*
X55320574Y1297887D01*
X55152262Y1242115D01*
X55001348Y1149030D01*
X54875970Y1023652D01*
X54838680Y963195D01*
X54782886Y872740D01*
X54782884Y872735D01*
X54727113Y704427D01*
X54716500Y600552D01*
X54716500Y-200537D01*
X46158135Y-200537D01*
X46174035Y-177830D01*
X46273903Y36337D01*
X46335063Y264592D01*
X46355659Y500000D01*
X46335063Y735408D01*
X46273903Y963663D01*
X46174035Y1177829D01*
X46038495Y1371401D01*
X45871401Y1538495D01*
X45677829Y1674035D01*
X45463663Y1773903D01*
X45235408Y1835063D01*
X45058966Y1850500D01*
X44941034Y1850500D01*
X44764592Y1835063D01*
X44536337Y1773903D01*
X44365923Y1694437D01*
X44322171Y1674035D01*
X44322169Y1674034D01*
X44128597Y1538494D01*
X43961506Y1371402D01*
X43961501Y1371395D01*
X43825967Y1177834D01*
X43825965Y1177830D01*
X43726097Y963663D01*
X43726096Y963659D01*
X43726094Y963655D01*
X43664938Y735413D01*
X43664936Y735403D01*
X43644341Y500000D01*
X43644341Y499999D01*
X41992219Y499999D01*
X41843621Y543631D01*
X41621967Y575500D01*
X41537480Y575500D01*
X30514531Y575500D01*
X30490000Y575500D01*
X30378033Y575500D01*
X30156379Y543631D01*
X29941516Y480542D01*
X29854089Y440615D01*
X29737825Y387519D01*
X29737822Y387517D01*
X29737819Y387516D01*
X29737815Y387513D01*
X29737807Y387509D01*
X29549440Y266453D01*
X29549434Y266449D01*
X29380196Y119803D01*
X29233550Y-49434D01*
X29233546Y-49440D01*
X29112490Y-237807D01*
X29112480Y-237825D01*
X29019459Y-441513D01*
X28956368Y-656380D01*
X28924500Y-878034D01*
X28924500Y-4007559D01*
X28924309Y-4012426D01*
X28907850Y-4221549D01*
X28904806Y-4240767D01*
X28857546Y-4437618D01*
X28851533Y-4456123D01*
X28774064Y-4643152D01*
X28765230Y-4660490D01*
X28659455Y-4833099D01*
X28648018Y-4848841D01*
X28516540Y-5002782D01*
X28502782Y-5016540D01*
X28348841Y-5148018D01*
X28333099Y-5159455D01*
X28160490Y-5265230D01*
X28143152Y-5274064D01*
X27956123Y-5351533D01*
X27937618Y-5357546D01*
X27740767Y-5404806D01*
X27721549Y-5407850D01*
X27512427Y-5424309D01*
X27507560Y-5424500D01*
X12514531Y-5424500D01*
X12490000Y-5424500D01*
X12378033Y-5424500D01*
X12357745Y-5427417D01*
X12156380Y-5456368D01*
X11941513Y-5519459D01*
X11737825Y-5612480D01*
X11737807Y-5612490D01*
X11549440Y-5733546D01*
X11549434Y-5733550D01*
X11380196Y-5880196D01*
X11233550Y-6049434D01*
X11233546Y-6049440D01*
X11112490Y-6237807D01*
X11112480Y-6237825D01*
X11019459Y-6441513D01*
X10956368Y-6656380D01*
X10924500Y-6878034D01*
X10924500Y-7007559D01*
X10924309Y-7012426D01*
X10907850Y-7221549D01*
X10904806Y-7240767D01*
X10857546Y-7437618D01*
X10851533Y-7456123D01*
X10774064Y-7643152D01*
X10765230Y-7660490D01*
X10659455Y-7833099D01*
X10648018Y-7848841D01*
X10516540Y-8002782D01*
X10502782Y-8016540D01*
X10348841Y-8148018D01*
X10333099Y-8159455D01*
X10160490Y-8265230D01*
X10143152Y-8274064D01*
X9956123Y-8351533D01*
X9937618Y-8357546D01*
X9740767Y-8404806D01*
X9721549Y-8407850D01*
X9512427Y-8424309D01*
X9507560Y-8424500D01*
X-9507560Y-8424500D01*
X-9512427Y-8424309D01*
X-9721549Y-8407850D01*
X-9740767Y-8404806D01*
X-9937618Y-8357546D01*
X-9956123Y-8351533D01*
X-10143152Y-8274064D01*
X-10160490Y-8265230D01*
X-10333099Y-8159455D01*
X-10348841Y-8148018D01*
X-10502782Y-8016540D01*
X-10516540Y-8002782D01*
X-10648018Y-7848841D01*
X-10659455Y-7833099D01*
X-10765230Y-7660490D01*
X-10774064Y-7643152D01*
X-10851533Y-7456123D01*
X-10857546Y-7437618D01*
X-10904806Y-7240767D01*
X-10907850Y-7221549D01*
X-10924309Y-7012426D01*
X-10924500Y-7007559D01*
X-10924500Y-5098637D01*
X-10083500Y-5098637D01*
X-10083499Y-5098654D01*
X-10081225Y-5119803D01*
X-10076989Y-5159201D01*
X-10025889Y-5296204D01*
X-9938261Y-5413261D01*
X-9821204Y-5500889D01*
X-9684201Y-5551989D01*
X-9652623Y-5555383D01*
X-9623654Y-5558499D01*
X-9623638Y-5558500D01*
X-6926362Y-5558500D01*
X-6926345Y-5558499D01*
X-6895270Y-5555157D01*
X-6865799Y-5551989D01*
X-6865796Y-5551988D01*
X-6865795Y-5551988D01*
X-6778581Y-5519458D01*
X-6728796Y-5500889D01*
X-6611739Y-5413261D01*
X-6524111Y-5296204D01*
X-6488372Y-5200386D01*
X-6473011Y-5159204D01*
X-6473011Y-5159202D01*
X-6466500Y-5098654D01*
X-6466499Y-5098636D01*
X-6466499Y-5059043D01*
X-6446813Y-4992004D01*
X-6394008Y-4946250D01*
X-6324849Y-4936309D01*
X-6261294Y-4965335D01*
X-6251611Y-4974693D01*
X-6193981Y-5036805D01*
X-5988857Y-5200386D01*
X-5761643Y-5331568D01*
X-5517416Y-5427420D01*
X-5261630Y-5485802D01*
X-5261622Y-5485802D01*
X-5261620Y-5485803D01*
X-5065500Y-5500500D01*
X-5065494Y-5500500D01*
X-4934500Y-5500500D01*
X-4738379Y-5485803D01*
X-4738376Y-5485802D01*
X-4738370Y-5485802D01*
X-4482584Y-5427420D01*
X-4238357Y-5331568D01*
X-4011143Y-5200386D01*
X-3806019Y-5036805D01*
X-3806018Y-5036804D01*
X-3806014Y-5036801D01*
X-3627567Y-4844479D01*
X-3533500Y-4706508D01*
X-3479772Y-4627704D01*
X-3479770Y-4627700D01*
X-3479768Y-4627697D01*
X-3479767Y-4627696D01*
X-3365938Y-4391326D01*
X-3288606Y-4140623D01*
X-3288605Y-4140617D01*
X-3288604Y-4140615D01*
X-3268549Y-4007559D01*
X-3249500Y-3881187D01*
X-3249500Y-3618812D01*
X-3282348Y-3400889D01*
X-3288604Y-3359385D01*
X-3288605Y-3359381D01*
X-3288606Y-3359376D01*
X-3365938Y-3108673D01*
X-3479767Y-2872303D01*
X-3479768Y-2872302D01*
X-3627567Y-2655520D01*
X-3806014Y-2463198D01*
X-4011143Y-2299614D01*
X-4238356Y-2168432D01*
X-4482578Y-2072582D01*
X-4482597Y-2072576D01*
X-4738374Y-2014197D01*
X-4738379Y-2014196D01*
X-4934500Y-1999500D01*
X-4934506Y-1999500D01*
X-5065494Y-1999500D01*
X-5065500Y-1999500D01*
X-5261620Y-2014196D01*
X-5261625Y-2014197D01*
X-5261629Y-2014197D01*
X-5261630Y-2014198D01*
X-5299818Y-2022914D01*
X-5517402Y-2072576D01*
X-5517411Y-2072578D01*
X-5517416Y-2072580D01*
X-5761643Y-2168432D01*
X-5988857Y-2299614D01*
X-6145459Y-2424500D01*
X-6193985Y-2463198D01*
X-6251600Y-2525294D01*
X-6311628Y-2561049D01*
X-6381457Y-2558674D01*
X-6438917Y-2518924D01*
X-6465766Y-2454419D01*
X-6466499Y-2440956D01*
X-6466499Y-2401363D01*
X-6466500Y-2401345D01*
X-6473011Y-2340797D01*
X-6473011Y-2340795D01*
X-6524111Y-2203795D01*
X-6611739Y-2086739D01*
X-6728795Y-1999111D01*
X-6865796Y-1948011D01*
X-6926345Y-1941500D01*
X-6926362Y-1941500D01*
X-9623638Y-1941500D01*
X-9623654Y-1941500D01*
X-9684202Y-1948011D01*
X-9684204Y-1948011D01*
X-9821204Y-1999111D01*
X-9938261Y-2086739D01*
X-10025889Y-2203796D01*
X-10076989Y-2340799D01*
X-10080157Y-2370270D01*
X-10083499Y-2401345D01*
X-10083500Y-2401362D01*
X-10083500Y-5098637D01*
X-10924500Y-5098637D01*
X-10924500Y52645D01*
X-6605157Y52645D01*
X-6595148Y-157459D01*
X-6545558Y-361871D01*
X-6458179Y-553205D01*
X-6336169Y-724544D01*
X-6183937Y-869697D01*
X-6006986Y-983416D01*
X-5811712Y-1061593D01*
X-5646479Y-1093438D01*
X-5605172Y-1101400D01*
X-5605171Y-1101400D01*
X-5447539Y-1101400D01*
X-5447532Y-1101400D01*
X-5290611Y-1086416D01*
X-5088789Y-1027156D01*
X-4901830Y-930771D01*
X-4736490Y-800747D01*
X-4713229Y-773903D01*
X-4670455Y-724539D01*
X-4598745Y-641781D01*
X-4598743Y-641777D01*
X-4598740Y-641774D01*
X-4493574Y-459620D01*
X-4424779Y-260851D01*
X-4424778Y-260844D01*
X-4421467Y-237819D01*
X-4394843Y-52645D01*
X-4404852Y157459D01*
X-4454442Y361871D01*
X-4524006Y514196D01*
X-4541820Y553204D01*
X-4541824Y553210D01*
X-4663826Y724539D01*
X-4663832Y724545D01*
X-4762243Y818380D01*
X-4816063Y869697D01*
X-4993014Y983416D01*
X-5188288Y1061593D01*
X-5343193Y1091448D01*
X-5394828Y1101400D01*
X-5394829Y1101400D01*
X-5552468Y1101400D01*
X-5709389Y1086416D01*
X-5911211Y1027156D01*
X-6098170Y930771D01*
X-6263510Y800747D01*
X-6401255Y641781D01*
X-6506426Y459619D01*
X-6575222Y260846D01*
X-6605157Y52645D01*
X-10924500Y52645D01*
X-10924500Y2800000D01*
X-9113504Y2800000D01*
X-9093542Y2610072D01*
X-9034527Y2428444D01*
X-8939040Y2263056D01*
X-8811253Y2121134D01*
X-8656752Y2008882D01*
X-8482288Y1931206D01*
X-8482286Y1931205D01*
X-8295487Y1891500D01*
X-8104513Y1891500D01*
X-7917714Y1931205D01*
X-7743246Y2008883D01*
X-7588745Y2121135D01*
X-7584840Y2125473D01*
X-7525354Y2162121D01*
X-7492691Y2166500D01*
X-807309Y2166500D01*
X-740270Y2146815D01*
X-715160Y2125473D01*
X-711253Y2121134D01*
X-699179Y2112362D01*
X-635119Y2065819D01*
X-592454Y2010488D01*
X-586475Y1940875D01*
X-619081Y1879080D01*
X-664667Y1849321D01*
X-818375Y1791992D01*
X-1065073Y1657285D01*
X-1290088Y1488841D01*
X-1488841Y1290088D01*
X-1657285Y1065073D01*
X-1791992Y818375D01*
X-1890219Y555018D01*
X-1949967Y280363D01*
X-1970019Y0D01*
X-1949967Y-280363D01*
X-1890219Y-555018D01*
X-1791992Y-818375D01*
X-1657285Y-1065073D01*
X-1488841Y-1290088D01*
X-1290088Y-1488841D01*
X-1065073Y-1657285D01*
X-818375Y-1791992D01*
X-555018Y-1890219D01*
X-280363Y-1949967D01*
X-70175Y-1965000D01*
X70175Y-1965000D01*
X280363Y-1949967D01*
X555018Y-1890219D01*
X818375Y-1791992D01*
X1065073Y-1657285D01*
X1290088Y-1488841D01*
X1488841Y-1290088D01*
X1657285Y-1065073D01*
X1791992Y-818375D01*
X1890219Y-555018D01*
X1949967Y-280363D01*
X1970019Y0D01*
X1949967Y280363D01*
X1890219Y555018D01*
X1791992Y818375D01*
X1657285Y1065073D01*
X1488841Y1290088D01*
X1290088Y1488841D01*
X1065073Y1657285D01*
X818375Y1791992D01*
X555018Y1890219D01*
X547155Y1891929D01*
X485832Y1925413D01*
X452346Y1986736D01*
X457330Y2056428D01*
X499200Y2112362D01*
X500577Y2113377D01*
X511253Y2121134D01*
X639040Y2263056D01*
X734527Y2428444D01*
X793542Y2610072D01*
X813504Y2800000D01*
X793542Y2989928D01*
X773164Y3052645D01*
X11394843Y3052645D01*
X11404852Y2842541D01*
X11454442Y2638129D01*
X11472261Y2599111D01*
X11541820Y2446795D01*
X11541824Y2446789D01*
X11663826Y2275460D01*
X11663832Y2275454D01*
X11816060Y2130305D01*
X11816061Y2130304D01*
X11816063Y2130303D01*
X11843980Y2112362D01*
X11993015Y2016583D01*
X12188278Y1938410D01*
X12188291Y1938406D01*
X12394828Y1898600D01*
X12394829Y1898600D01*
X12552461Y1898600D01*
X12552468Y1898600D01*
X12709389Y1913584D01*
X12911211Y1972844D01*
X13098170Y2069229D01*
X13225054Y2169011D01*
X13263509Y2199252D01*
X13263510Y2199253D01*
X13317724Y2261819D01*
X13401255Y2358219D01*
X13401257Y2358222D01*
X13401259Y2358225D01*
X13506425Y2540379D01*
X13509067Y2548011D01*
X13575222Y2739154D01*
X13605157Y2947355D01*
X13595148Y3157459D01*
X13545558Y3361871D01*
X13458179Y3553205D01*
X13395101Y3641785D01*
X13336173Y3724539D01*
X13336171Y3724540D01*
X13336169Y3724544D01*
X13183937Y3869697D01*
X13006986Y3983416D01*
X12811712Y4061593D01*
X12646479Y4093438D01*
X12605172Y4101400D01*
X12605171Y4101400D01*
X12447532Y4101400D01*
X12290611Y4086416D01*
X12088789Y4027156D01*
X11901830Y3930771D01*
X11758912Y3818380D01*
X11736490Y3800747D01*
X11736489Y3800746D01*
X11721288Y3783203D01*
X11598745Y3641781D01*
X11598743Y3641777D01*
X11598740Y3641774D01*
X11493574Y3459620D01*
X11424779Y3260851D01*
X11424778Y3260847D01*
X11424778Y3260846D01*
X11394843Y3052645D01*
X773164Y3052645D01*
X734527Y3171556D01*
X639040Y3336944D01*
X511253Y3478866D01*
X356752Y3591118D01*
X182288Y3668794D01*
X-4513Y3708500D01*
X-195487Y3708500D01*
X-382288Y3668794D01*
X-556752Y3591118D01*
X-711253Y3478866D01*
X-714647Y3475096D01*
X-715160Y3474527D01*
X-774646Y3437879D01*
X-807309Y3433500D01*
X-7492691Y3433500D01*
X-7559730Y3453185D01*
X-7584840Y3474527D01*
X-7588745Y3478864D01*
X-7588747Y3478866D01*
X-7743248Y3591118D01*
X-7917712Y3668794D01*
X-8104513Y3708500D01*
X-8295487Y3708500D01*
X-8482288Y3668794D01*
X-8656752Y3591118D01*
X-8811253Y3478866D01*
X-8939040Y3336944D01*
X-9034527Y3171556D01*
X-9093542Y2989928D01*
X-9113504Y2800000D01*
X-10924500Y2800000D01*
X-10924500Y41007559D01*
X-10924309Y41012426D01*
X-10907850Y41221549D01*
X-10904806Y41240767D01*
X-10857546Y41437618D01*
X-10851533Y41456123D01*
X-10774064Y41643152D01*
X-10765230Y41660490D01*
X-10659455Y41833099D01*
X-10648018Y41848841D01*
X-10516540Y42002782D01*
X-10502782Y42016540D01*
X-10348841Y42148018D01*
X-10333099Y42159455D01*
X-10160490Y42265230D01*
X-10143152Y42274064D01*
X-9956123Y42351533D01*
X-9937618Y42357546D01*
X-9740767Y42404806D01*
X-9721549Y42407850D01*
X-9512427Y42424309D01*
X-9507560Y42424500D01*
X5621965Y42424500D01*
X5621967Y42424500D01*
X5685703Y42433663D01*
X5843619Y42456368D01*
X5977431Y42495659D01*
X6058484Y42519458D01*
X6101713Y42539200D01*
X6262174Y42612480D01*
X6262192Y42612490D01*
X6450559Y42733546D01*
X6450565Y42733550D01*
X6619803Y42880196D01*
X6766449Y43049434D01*
X6766453Y43049440D01*
X6887509Y43237807D01*
X6887519Y43237825D01*
X6921967Y43313256D01*
X6980542Y43441516D01*
X7043631Y43656379D01*
X7075500Y43878033D01*
X7075500Y43990000D01*
X7075500Y44007559D01*
X7075691Y44012425D01*
X7090414Y44199500D01*
X7092149Y44221553D01*
X7095193Y44240767D01*
X7102647Y44271815D01*
X7142454Y44437622D01*
X7148466Y44456123D01*
X7162021Y44488847D01*
X7225938Y44643158D01*
X7234766Y44660485D01*
X7340548Y44833104D01*
X7351981Y44848841D01*
X7357686Y44855520D01*
X7483459Y45002782D01*
X7497217Y45016540D01*
X7574641Y45082666D01*
X7651159Y45148019D01*
X7666900Y45159455D01*
X7671935Y45162540D01*
X7839510Y45265230D01*
X7856847Y45274064D01*
X8043876Y45351533D01*
X8062381Y45357546D01*
X8259232Y45404806D01*
X8278450Y45407850D01*
X8487573Y45424309D01*
X8492440Y45424500D01*
X8514531Y45424500D01*
X12754234Y45424500D01*
X12821273Y45404815D01*
G37*
%TD.AperFunction*%
%TA.AperFunction,Conductor*%
G36*
X5764378Y31646815D02*
G01*
X5785019Y31630181D01*
X6214814Y31200386D01*
X6615318Y30799882D01*
X6625226Y30787515D01*
X6625436Y30787689D01*
X6630408Y30781678D01*
X6649563Y30763691D01*
X6681500Y30733700D01*
X6692068Y30723132D01*
X6702637Y30712563D01*
X6702640Y30712561D01*
X6708215Y30708236D01*
X6712653Y30704445D01*
X6747079Y30672117D01*
X6747081Y30672115D01*
X6757295Y30666500D01*
X6764977Y30662276D01*
X6781228Y30651602D01*
X6797365Y30639086D01*
X6840707Y30620328D01*
X6845951Y30617759D01*
X6887345Y30595004D01*
X6887349Y30595003D01*
X6907124Y30589925D01*
X6925519Y30583627D01*
X6944257Y30575519D01*
X6990900Y30568131D01*
X6996621Y30566946D01*
X7042370Y30555200D01*
X7042375Y30555200D01*
X7062789Y30555200D01*
X7082188Y30553673D01*
X7102346Y30550480D01*
X7102347Y30550480D01*
X7102348Y30550480D01*
X7142410Y30554267D01*
X7149371Y30554925D01*
X7155209Y30555200D01*
X8359933Y30555200D01*
X8426972Y30535515D01*
X8472727Y30482711D01*
X8482671Y30413553D01*
X8453646Y30349997D01*
X8447614Y30343519D01*
X8432483Y30328388D01*
X8420123Y30318487D01*
X8420298Y30318277D01*
X8414286Y30313302D01*
X8414282Y30313300D01*
X8400529Y30298654D01*
X8366315Y30262221D01*
X8352048Y30247953D01*
X8345165Y30241070D01*
X8340831Y30235483D01*
X8337045Y30231051D01*
X8307417Y30199500D01*
X8304714Y30196621D01*
X8304712Y30196619D01*
X8294878Y30178731D01*
X8284197Y30162470D01*
X8271684Y30146339D01*
X8252927Y30102993D01*
X8250356Y30097745D01*
X8239893Y30078712D01*
X8227605Y30056360D01*
X8227604Y30056356D01*
X8222528Y30036587D01*
X8216226Y30018181D01*
X8208118Y29999445D01*
X8200730Y29952796D01*
X8199545Y29947073D01*
X8187800Y29901333D01*
X8187799Y29901323D01*
X8187799Y29880912D01*
X8186273Y29861522D01*
X8183080Y29841358D01*
X8183079Y29841355D01*
X8187524Y29794334D01*
X8187799Y29788498D01*
X8187799Y29666170D01*
X8168114Y29599131D01*
X8151480Y29578489D01*
X7891509Y29318519D01*
X7830186Y29285034D01*
X7803828Y29282200D01*
X7732331Y29282200D01*
X7716579Y29283939D01*
X7716554Y29283668D01*
X7708798Y29284400D01*
X7708791Y29284402D01*
X7638728Y29282200D01*
X7608844Y29282200D01*
X7601841Y29281314D01*
X7596024Y29280857D01*
X7548811Y29279374D01*
X7529199Y29273676D01*
X7510166Y29269733D01*
X7489903Y29267174D01*
X7445986Y29249785D01*
X7440466Y29247896D01*
X7395107Y29234718D01*
X7377535Y29224326D01*
X7360065Y29215767D01*
X7341083Y29208252D01*
X7302860Y29180481D01*
X7297995Y29177286D01*
X7257344Y29153246D01*
X7257341Y29153244D01*
X7257338Y29153242D01*
X7242899Y29138804D01*
X7228110Y29126173D01*
X7217800Y29118682D01*
X7211594Y29114173D01*
X7187453Y29084994D01*
X7184878Y29082072D01*
X7165013Y29060918D01*
X7143865Y29039770D01*
X7139531Y29034183D01*
X7135744Y29029750D01*
X7103414Y28995321D01*
X7103412Y28995319D01*
X7093578Y28977431D01*
X7082897Y28961170D01*
X7070384Y28945039D01*
X7051627Y28901693D01*
X7049056Y28896445D01*
X7034106Y28869251D01*
X7026305Y28855060D01*
X7026304Y28855056D01*
X7021228Y28835287D01*
X7014926Y28816881D01*
X7006818Y28798145D01*
X6999430Y28751496D01*
X6998246Y28745781D01*
X6995582Y28735403D01*
X6986500Y28700032D01*
X6986500Y28679615D01*
X6984973Y28660218D01*
X6982456Y28644327D01*
X6981780Y28640057D01*
X6983130Y28625774D01*
X6969841Y28557180D01*
X6921577Y28506659D01*
X6918696Y28505051D01*
X6859996Y28473285D01*
X6859990Y28473281D01*
X6678886Y28332322D01*
X6573625Y28217978D01*
X6523450Y28163474D01*
X6397930Y27971350D01*
X6342279Y27844479D01*
X6305743Y27761185D01*
X6249935Y27540799D01*
X6249405Y27538708D01*
X6230454Y27310005D01*
X6230454Y27309994D01*
X6249405Y27081291D01*
X6305743Y26858814D01*
X6397930Y26648649D01*
X6523450Y26456525D01*
X6678887Y26287677D01*
X6859993Y26146716D01*
X6864291Y26143909D01*
X6862941Y26141843D01*
X6905267Y26099830D01*
X6920372Y26031613D01*
X6896198Y25966058D01*
X6863323Y25937571D01*
X6864291Y25936091D01*
X6859993Y25933283D01*
X6859991Y25933281D01*
X6859990Y25933281D01*
X6678886Y25792322D01*
X6553362Y25655967D01*
X6523450Y25623474D01*
X6397930Y25431350D01*
X6305743Y25221185D01*
X6249405Y24998708D01*
X6230454Y24770005D01*
X6230454Y24769994D01*
X6249405Y24541291D01*
X6257311Y24510072D01*
X6293178Y24368432D01*
X6296165Y24356640D01*
X6293540Y24286820D01*
X6253583Y24229502D01*
X6188982Y24202886D01*
X6175959Y24202200D01*
X-6175959Y24202200D01*
X-6242998Y24221885D01*
X-6288753Y24274689D01*
X-6298697Y24343847D01*
X-6296165Y24356640D01*
X-6293178Y24368432D01*
X-6257311Y24510072D01*
X-6249405Y24541291D01*
X-6230454Y24769994D01*
X-6230454Y24770005D01*
X-6249405Y24998708D01*
X-6305743Y25221185D01*
X-6397930Y25431350D01*
X-6523450Y25623474D01*
X-6553362Y25655967D01*
X-6678886Y25792322D01*
X-6859990Y25933281D01*
X-6859991Y25933281D01*
X-6859993Y25933283D01*
X-6864291Y25936091D01*
X-6862941Y25938156D01*
X-6905267Y25980170D01*
X-6920372Y26048387D01*
X-6896198Y26113942D01*
X-6863323Y26142428D01*
X-6864291Y26143909D01*
X-6859993Y26146716D01*
X-6678887Y26287677D01*
X-6523450Y26456525D01*
X-6397930Y26648649D01*
X-6305743Y26858814D01*
X-6249405Y27081291D01*
X-6230454Y27309994D01*
X-6230454Y27310005D01*
X-6249405Y27538708D01*
X-6249935Y27540799D01*
X-6305743Y27761185D01*
X-6342279Y27844479D01*
X-6397930Y27971350D01*
X-6523450Y28163474D01*
X-6573625Y28217978D01*
X-6678886Y28332322D01*
X-6859990Y28473281D01*
X-6859991Y28473281D01*
X-6859993Y28473283D01*
X-6864291Y28476091D01*
X-6862941Y28478156D01*
X-6905267Y28520170D01*
X-6920372Y28588387D01*
X-6896198Y28653942D01*
X-6863323Y28682428D01*
X-6864291Y28683909D01*
X-6859993Y28686716D01*
X-6678887Y28827677D01*
X-6523450Y28996525D01*
X-6397929Y29188650D01*
X-6390203Y29206265D01*
X-6345246Y29259750D01*
X-6278510Y29280439D01*
X-6211182Y29261763D01*
X-6182358Y29236985D01*
X-6157816Y29208250D01*
X-6081318Y29118682D01*
X-6011675Y29059202D01*
X-5898851Y28962841D01*
X-5898846Y28962837D01*
X-5694248Y28837459D01*
X-5694245Y28837457D01*
X-5472553Y28745630D01*
X-5239218Y28689612D01*
X-5239219Y28689612D01*
X-5000000Y28670786D01*
X-4760780Y28689612D01*
X-4527446Y28745630D01*
X-4527445Y28745630D01*
X-4305754Y28837457D01*
X-4305751Y28837459D01*
X-4101153Y28962837D01*
X-4101148Y28962841D01*
X-3918682Y29118682D01*
X-3762841Y29301148D01*
X-3762837Y29301153D01*
X-3636516Y29507290D01*
X-3584704Y29554165D01*
X-3530789Y29566500D01*
X-964271Y29566500D01*
X-897232Y29546815D01*
X-851477Y29494011D01*
X-841533Y29424853D01*
X-870558Y29361297D01*
X-895192Y29340410D01*
X-894910Y29340022D01*
X-898844Y29337162D01*
X-898849Y29337160D01*
X-1081318Y29181318D01*
X-1233165Y29003526D01*
X-1237158Y28998851D01*
X-1237162Y28998846D01*
X-1239322Y28995321D01*
X-1362540Y28794249D01*
X-1362540Y28794248D01*
X-1362542Y28794245D01*
X-1453551Y28574527D01*
X-1454369Y28572553D01*
X-1510387Y28339222D01*
X-1529214Y28100000D01*
X-1510387Y27860778D01*
X-1477860Y27725295D01*
X-1454369Y27627446D01*
X-1454369Y27627445D01*
X-1362542Y27405754D01*
X-1362540Y27405751D01*
X-1237162Y27201153D01*
X-1237158Y27201148D01*
X-1185458Y27140615D01*
X-1081318Y27018682D01*
X-1040026Y26983416D01*
X-898851Y26862841D01*
X-898846Y26862837D01*
X-694248Y26737459D01*
X-694245Y26737457D01*
X-472553Y26645630D01*
X-239218Y26589612D01*
X-239219Y26589612D01*
X0Y26570786D01*
X239219Y26589612D01*
X472553Y26645630D01*
X472554Y26645630D01*
X694245Y26737457D01*
X694248Y26737459D01*
X898846Y26862837D01*
X898851Y26862841D01*
X1040026Y26983416D01*
X1081318Y27018682D01*
X1185458Y27140615D01*
X1237158Y27201148D01*
X1237162Y27201153D01*
X1362540Y27405751D01*
X1362542Y27405754D01*
X1454369Y27627445D01*
X1454369Y27627446D01*
X1477860Y27725295D01*
X1510387Y27860778D01*
X1529214Y28100000D01*
X1510387Y28339222D01*
X1474535Y28488555D01*
X1478026Y28558335D01*
X1518689Y28615152D01*
X1583615Y28640966D01*
X1595109Y28641500D01*
X3591366Y28641500D01*
X3607113Y28639761D01*
X3607139Y28640032D01*
X3614905Y28639298D01*
X3614908Y28639298D01*
X3614909Y28639298D01*
X3684958Y28641500D01*
X3714856Y28641500D01*
X3714859Y28641500D01*
X3721856Y28642384D01*
X3727679Y28642842D01*
X3774889Y28644326D01*
X3774891Y28644327D01*
X3794495Y28650022D01*
X3813542Y28653967D01*
X3816333Y28654319D01*
X3833797Y28656526D01*
X3833800Y28656527D01*
X3833803Y28656528D01*
X3877716Y28673914D01*
X3883244Y28675806D01*
X3928592Y28688981D01*
X3946162Y28699372D01*
X3963635Y28707932D01*
X3982617Y28715447D01*
X4020827Y28743209D01*
X4025712Y28746418D01*
X4066359Y28770456D01*
X4066362Y28770458D01*
X4080793Y28784889D01*
X4095589Y28797527D01*
X4112107Y28809528D01*
X4112109Y28809530D01*
X4127122Y28827678D01*
X4142222Y28845931D01*
X4146135Y28850231D01*
X4688814Y29392910D01*
X4701178Y29402816D01*
X4701005Y29403026D01*
X4707019Y29408001D01*
X4754999Y29459094D01*
X4776129Y29480225D01*
X4776134Y29480230D01*
X4780459Y29485805D01*
X4784249Y29490242D01*
X4816586Y29524678D01*
X4826420Y29542567D01*
X4837104Y29558833D01*
X4849613Y29574959D01*
X4868367Y29618298D01*
X4870938Y29623546D01*
X4893693Y29664937D01*
X4893695Y29664941D01*
X4894011Y29666170D01*
X4898773Y29684718D01*
X4905074Y29703121D01*
X4913180Y29721852D01*
X4913180Y29721853D01*
X4913181Y29721855D01*
X4920568Y29768497D01*
X4921753Y29774222D01*
X4923486Y29780971D01*
X4933500Y29819970D01*
X4933500Y29840390D01*
X4935027Y29859789D01*
X4938219Y29879943D01*
X4933774Y29926958D01*
X4933500Y29932795D01*
X4933500Y30605712D01*
X4953185Y30672751D01*
X4958233Y30680023D01*
X4966538Y30691116D01*
X5050889Y30803796D01*
X5093035Y30916793D01*
X5101988Y30940795D01*
X5101988Y30940797D01*
X5101989Y30940799D01*
X5107654Y30993491D01*
X5108499Y31001345D01*
X5108500Y31001362D01*
X5108500Y31542500D01*
X5128185Y31609539D01*
X5180989Y31655294D01*
X5232500Y31666500D01*
X5697339Y31666500D01*
X5764378Y31646815D01*
G37*
%TD.AperFunction*%
%TA.AperFunction,Conductor*%
G36*
X8556184Y32946815D02*
G01*
X8601939Y32894011D01*
X8611883Y32824853D01*
X8582858Y32761297D01*
X8581355Y32759596D01*
X8560960Y32736944D01*
X8560957Y32736939D01*
X8465473Y32571556D01*
X8465470Y32571549D01*
X8425614Y32448885D01*
X8406458Y32389928D01*
X8386496Y32200000D01*
X8406458Y32010072D01*
X8406458Y32010069D01*
X8406459Y32010068D01*
X8414761Y31984518D01*
X8416756Y31914677D01*
X8380676Y31854844D01*
X8317975Y31824016D01*
X8296830Y31822200D01*
X7436171Y31822200D01*
X7369132Y31841885D01*
X7348490Y31858519D01*
X6889137Y32317871D01*
X6855652Y32379194D01*
X6860636Y32448885D01*
X6889137Y32493233D01*
X7085833Y32689928D01*
X7326086Y32930181D01*
X7387409Y32963666D01*
X7413767Y32966500D01*
X8489145Y32966500D01*
X8556184Y32946815D01*
G37*
%TD.AperFunction*%
%TD*%
M02*
