%TF.GenerationSoftware,KiCad,Pcbnew,7.0.6-0*%
%TF.CreationDate,2023-08-01T13:26:10+08:00*%
%TF.ProjectId,right,72696768-742e-46b6-9963-61645f706362,v1.0.0*%
%TF.SameCoordinates,Original*%
%TF.FileFunction,Legend,Bot*%
%TF.FilePolarity,Positive*%
%FSLAX46Y46*%
G04 Gerber Fmt 4.6, Leading zero omitted, Abs format (unit mm)*
G04 Created by KiCad (PCBNEW 7.0.6-0) date 2023-08-01 13:26:10*
%MOMM*%
%LPD*%
G01*
G04 APERTURE LIST*
%ADD10C,0.150000*%
%ADD11C,0.120000*%
%ADD12C,0.254000*%
G04 APERTURE END LIST*
D10*
X-1523809Y30640419D02*
X-1571428Y30592800D01*
X-1571428Y30592800D02*
X-1714285Y30545180D01*
X-1714285Y30545180D02*
X-1809523Y30545180D01*
X-1809523Y30545180D02*
X-1952380Y30592800D01*
X-1952380Y30592800D02*
X-2047618Y30688038D01*
X-2047618Y30688038D02*
X-2095237Y30783276D01*
X-2095237Y30783276D02*
X-2142856Y30973752D01*
X-2142856Y30973752D02*
X-2142856Y31116609D01*
X-2142856Y31116609D02*
X-2095237Y31307085D01*
X-2095237Y31307085D02*
X-2047618Y31402323D01*
X-2047618Y31402323D02*
X-1952380Y31497561D01*
X-1952380Y31497561D02*
X-1809523Y31545180D01*
X-1809523Y31545180D02*
X-1714285Y31545180D01*
X-1714285Y31545180D02*
X-1571428Y31497561D01*
X-1571428Y31497561D02*
X-1523809Y31449942D01*
X-666666Y31211847D02*
X-666666Y30545180D01*
X-904761Y31592800D02*
X-1142856Y30878514D01*
X-1142856Y30878514D02*
X-523809Y30878514D01*
X-380952Y30449942D02*
X380952Y30449942D01*
X1190476Y30545180D02*
X857143Y31021371D01*
X619048Y30545180D02*
X619048Y31545180D01*
X619048Y31545180D02*
X1000000Y31545180D01*
X1000000Y31545180D02*
X1095238Y31497561D01*
X1095238Y31497561D02*
X1142857Y31449942D01*
X1142857Y31449942D02*
X1190476Y31354704D01*
X1190476Y31354704D02*
X1190476Y31211847D01*
X1190476Y31211847D02*
X1142857Y31116609D01*
X1142857Y31116609D02*
X1095238Y31068990D01*
X1095238Y31068990D02*
X1000000Y31021371D01*
X1000000Y31021371D02*
X619048Y31021371D01*
X1809524Y31545180D02*
X1904762Y31545180D01*
X1904762Y31545180D02*
X2000000Y31497561D01*
X2000000Y31497561D02*
X2047619Y31449942D01*
X2047619Y31449942D02*
X2095238Y31354704D01*
X2095238Y31354704D02*
X2142857Y31164228D01*
X2142857Y31164228D02*
X2142857Y30926133D01*
X2142857Y30926133D02*
X2095238Y30735657D01*
X2095238Y30735657D02*
X2047619Y30640419D01*
X2047619Y30640419D02*
X2000000Y30592800D01*
X2000000Y30592800D02*
X1904762Y30545180D01*
X1904762Y30545180D02*
X1809524Y30545180D01*
X1809524Y30545180D02*
X1714286Y30592800D01*
X1714286Y30592800D02*
X1666667Y30640419D01*
X1666667Y30640419D02*
X1619048Y30735657D01*
X1619048Y30735657D02*
X1571429Y30926133D01*
X1571429Y30926133D02*
X1571429Y31164228D01*
X1571429Y31164228D02*
X1619048Y31354704D01*
X1619048Y31354704D02*
X1666667Y31449942D01*
X1666667Y31449942D02*
X1714286Y31497561D01*
X1714286Y31497561D02*
X1809524Y31545180D01*
X-1523809Y13640419D02*
X-1571428Y13592800D01*
X-1571428Y13592800D02*
X-1714285Y13545180D01*
X-1714285Y13545180D02*
X-1809523Y13545180D01*
X-1809523Y13545180D02*
X-1952380Y13592800D01*
X-1952380Y13592800D02*
X-2047618Y13688038D01*
X-2047618Y13688038D02*
X-2095237Y13783276D01*
X-2095237Y13783276D02*
X-2142856Y13973752D01*
X-2142856Y13973752D02*
X-2142856Y14116609D01*
X-2142856Y14116609D02*
X-2095237Y14307085D01*
X-2095237Y14307085D02*
X-2047618Y14402323D01*
X-2047618Y14402323D02*
X-1952380Y14497561D01*
X-1952380Y14497561D02*
X-1809523Y14545180D01*
X-1809523Y14545180D02*
X-1714285Y14545180D01*
X-1714285Y14545180D02*
X-1571428Y14497561D01*
X-1571428Y14497561D02*
X-1523809Y14449942D01*
X-666666Y14211847D02*
X-666666Y13545180D01*
X-904761Y14592800D02*
X-1142856Y13878514D01*
X-1142856Y13878514D02*
X-523809Y13878514D01*
X-380952Y13449942D02*
X380952Y13449942D01*
X1190476Y13545180D02*
X857143Y14021371D01*
X619048Y13545180D02*
X619048Y14545180D01*
X619048Y14545180D02*
X1000000Y14545180D01*
X1000000Y14545180D02*
X1095238Y14497561D01*
X1095238Y14497561D02*
X1142857Y14449942D01*
X1142857Y14449942D02*
X1190476Y14354704D01*
X1190476Y14354704D02*
X1190476Y14211847D01*
X1190476Y14211847D02*
X1142857Y14116609D01*
X1142857Y14116609D02*
X1095238Y14068990D01*
X1095238Y14068990D02*
X1000000Y14021371D01*
X1000000Y14021371D02*
X619048Y14021371D01*
X2142857Y13545180D02*
X1571429Y13545180D01*
X1857143Y13545180D02*
X1857143Y14545180D01*
X1857143Y14545180D02*
X1761905Y14402323D01*
X1761905Y14402323D02*
X1666667Y14307085D01*
X1666667Y14307085D02*
X1571429Y14259466D01*
X-5833332Y27023895D02*
X-5871428Y26985800D01*
X-5871428Y26985800D02*
X-5985713Y26947704D01*
X-5985713Y26947704D02*
X-6061904Y26947704D01*
X-6061904Y26947704D02*
X-6176190Y26985800D01*
X-6176190Y26985800D02*
X-6252380Y27061990D01*
X-6252380Y27061990D02*
X-6290475Y27138180D01*
X-6290475Y27138180D02*
X-6328571Y27290561D01*
X-6328571Y27290561D02*
X-6328571Y27404847D01*
X-6328571Y27404847D02*
X-6290475Y27557228D01*
X-6290475Y27557228D02*
X-6252380Y27633419D01*
X-6252380Y27633419D02*
X-6176190Y27709609D01*
X-6176190Y27709609D02*
X-6061904Y27747704D01*
X-6061904Y27747704D02*
X-5985713Y27747704D01*
X-5985713Y27747704D02*
X-5871428Y27709609D01*
X-5871428Y27709609D02*
X-5833332Y27671514D01*
X-5338094Y27747704D02*
X-5261904Y27747704D01*
X-5261904Y27747704D02*
X-5185713Y27709609D01*
X-5185713Y27709609D02*
X-5147618Y27671514D01*
X-5147618Y27671514D02*
X-5109523Y27595323D01*
X-5109523Y27595323D02*
X-5071428Y27442942D01*
X-5071428Y27442942D02*
X-5071428Y27252466D01*
X-5071428Y27252466D02*
X-5109523Y27100085D01*
X-5109523Y27100085D02*
X-5147618Y27023895D01*
X-5147618Y27023895D02*
X-5185713Y26985800D01*
X-5185713Y26985800D02*
X-5261904Y26947704D01*
X-5261904Y26947704D02*
X-5338094Y26947704D01*
X-5338094Y26947704D02*
X-5414285Y26985800D01*
X-5414285Y26985800D02*
X-5452380Y27023895D01*
X-5452380Y27023895D02*
X-5490475Y27100085D01*
X-5490475Y27100085D02*
X-5528571Y27252466D01*
X-5528571Y27252466D02*
X-5528571Y27442942D01*
X-5528571Y27442942D02*
X-5490475Y27595323D01*
X-5490475Y27595323D02*
X-5452380Y27671514D01*
X-5452380Y27671514D02*
X-5414285Y27709609D01*
X-5414285Y27709609D02*
X-5338094Y27747704D01*
X-5833332Y24483895D02*
X-5871428Y24445800D01*
X-5871428Y24445800D02*
X-5985713Y24407704D01*
X-5985713Y24407704D02*
X-6061904Y24407704D01*
X-6061904Y24407704D02*
X-6176190Y24445800D01*
X-6176190Y24445800D02*
X-6252380Y24521990D01*
X-6252380Y24521990D02*
X-6290475Y24598180D01*
X-6290475Y24598180D02*
X-6328571Y24750561D01*
X-6328571Y24750561D02*
X-6328571Y24864847D01*
X-6328571Y24864847D02*
X-6290475Y25017228D01*
X-6290475Y25017228D02*
X-6252380Y25093419D01*
X-6252380Y25093419D02*
X-6176190Y25169609D01*
X-6176190Y25169609D02*
X-6061904Y25207704D01*
X-6061904Y25207704D02*
X-5985713Y25207704D01*
X-5985713Y25207704D02*
X-5871428Y25169609D01*
X-5871428Y25169609D02*
X-5833332Y25131514D01*
X-5071428Y24407704D02*
X-5528571Y24407704D01*
X-5299999Y24407704D02*
X-5299999Y25207704D01*
X-5299999Y25207704D02*
X-5376190Y25093419D01*
X-5376190Y25093419D02*
X-5452380Y25017228D01*
X-5452380Y25017228D02*
X-5528571Y24979133D01*
X-5833332Y21943895D02*
X-5871428Y21905800D01*
X-5871428Y21905800D02*
X-5985713Y21867704D01*
X-5985713Y21867704D02*
X-6061904Y21867704D01*
X-6061904Y21867704D02*
X-6176190Y21905800D01*
X-6176190Y21905800D02*
X-6252380Y21981990D01*
X-6252380Y21981990D02*
X-6290475Y22058180D01*
X-6290475Y22058180D02*
X-6328571Y22210561D01*
X-6328571Y22210561D02*
X-6328571Y22324847D01*
X-6328571Y22324847D02*
X-6290475Y22477228D01*
X-6290475Y22477228D02*
X-6252380Y22553419D01*
X-6252380Y22553419D02*
X-6176190Y22629609D01*
X-6176190Y22629609D02*
X-6061904Y22667704D01*
X-6061904Y22667704D02*
X-5985713Y22667704D01*
X-5985713Y22667704D02*
X-5871428Y22629609D01*
X-5871428Y22629609D02*
X-5833332Y22591514D01*
X-5528571Y22591514D02*
X-5490475Y22629609D01*
X-5490475Y22629609D02*
X-5414285Y22667704D01*
X-5414285Y22667704D02*
X-5223809Y22667704D01*
X-5223809Y22667704D02*
X-5147618Y22629609D01*
X-5147618Y22629609D02*
X-5109523Y22591514D01*
X-5109523Y22591514D02*
X-5071428Y22515323D01*
X-5071428Y22515323D02*
X-5071428Y22439133D01*
X-5071428Y22439133D02*
X-5109523Y22324847D01*
X-5109523Y22324847D02*
X-5566666Y21867704D01*
X-5566666Y21867704D02*
X-5071428Y21867704D01*
X-5833332Y19403895D02*
X-5871428Y19365800D01*
X-5871428Y19365800D02*
X-5985713Y19327704D01*
X-5985713Y19327704D02*
X-6061904Y19327704D01*
X-6061904Y19327704D02*
X-6176190Y19365800D01*
X-6176190Y19365800D02*
X-6252380Y19441990D01*
X-6252380Y19441990D02*
X-6290475Y19518180D01*
X-6290475Y19518180D02*
X-6328571Y19670561D01*
X-6328571Y19670561D02*
X-6328571Y19784847D01*
X-6328571Y19784847D02*
X-6290475Y19937228D01*
X-6290475Y19937228D02*
X-6252380Y20013419D01*
X-6252380Y20013419D02*
X-6176190Y20089609D01*
X-6176190Y20089609D02*
X-6061904Y20127704D01*
X-6061904Y20127704D02*
X-5985713Y20127704D01*
X-5985713Y20127704D02*
X-5871428Y20089609D01*
X-5871428Y20089609D02*
X-5833332Y20051514D01*
X-5566666Y20127704D02*
X-5071428Y20127704D01*
X-5071428Y20127704D02*
X-5338094Y19822942D01*
X-5338094Y19822942D02*
X-5223809Y19822942D01*
X-5223809Y19822942D02*
X-5147618Y19784847D01*
X-5147618Y19784847D02*
X-5109523Y19746752D01*
X-5109523Y19746752D02*
X-5071428Y19670561D01*
X-5071428Y19670561D02*
X-5071428Y19480085D01*
X-5071428Y19480085D02*
X-5109523Y19403895D01*
X-5109523Y19403895D02*
X-5147618Y19365800D01*
X-5147618Y19365800D02*
X-5223809Y19327704D01*
X-5223809Y19327704D02*
X-5452380Y19327704D01*
X-5452380Y19327704D02*
X-5528571Y19365800D01*
X-5528571Y19365800D02*
X-5566666Y19403895D01*
X4747619Y26947704D02*
X4480952Y27328657D01*
X4290476Y26947704D02*
X4290476Y27747704D01*
X4290476Y27747704D02*
X4595238Y27747704D01*
X4595238Y27747704D02*
X4671428Y27709609D01*
X4671428Y27709609D02*
X4709523Y27671514D01*
X4709523Y27671514D02*
X4747619Y27595323D01*
X4747619Y27595323D02*
X4747619Y27481038D01*
X4747619Y27481038D02*
X4709523Y27404847D01*
X4709523Y27404847D02*
X4671428Y27366752D01*
X4671428Y27366752D02*
X4595238Y27328657D01*
X4595238Y27328657D02*
X4290476Y27328657D01*
X5242857Y27747704D02*
X5395238Y27747704D01*
X5395238Y27747704D02*
X5471428Y27709609D01*
X5471428Y27709609D02*
X5547619Y27633419D01*
X5547619Y27633419D02*
X5585714Y27481038D01*
X5585714Y27481038D02*
X5585714Y27214371D01*
X5585714Y27214371D02*
X5547619Y27061990D01*
X5547619Y27061990D02*
X5471428Y26985800D01*
X5471428Y26985800D02*
X5395238Y26947704D01*
X5395238Y26947704D02*
X5242857Y26947704D01*
X5242857Y26947704D02*
X5166666Y26985800D01*
X5166666Y26985800D02*
X5090476Y27061990D01*
X5090476Y27061990D02*
X5052380Y27214371D01*
X5052380Y27214371D02*
X5052380Y27481038D01*
X5052380Y27481038D02*
X5090476Y27633419D01*
X5090476Y27633419D02*
X5166666Y27709609D01*
X5166666Y27709609D02*
X5242857Y27747704D01*
X5890475Y27671514D02*
X5928571Y27709609D01*
X5928571Y27709609D02*
X6004761Y27747704D01*
X6004761Y27747704D02*
X6195237Y27747704D01*
X6195237Y27747704D02*
X6271428Y27709609D01*
X6271428Y27709609D02*
X6309523Y27671514D01*
X6309523Y27671514D02*
X6347618Y27595323D01*
X6347618Y27595323D02*
X6347618Y27519133D01*
X6347618Y27519133D02*
X6309523Y27404847D01*
X6309523Y27404847D02*
X5852380Y26947704D01*
X5852380Y26947704D02*
X6347618Y26947704D01*
X4747619Y24407704D02*
X4480952Y24788657D01*
X4290476Y24407704D02*
X4290476Y25207704D01*
X4290476Y25207704D02*
X4595238Y25207704D01*
X4595238Y25207704D02*
X4671428Y25169609D01*
X4671428Y25169609D02*
X4709523Y25131514D01*
X4709523Y25131514D02*
X4747619Y25055323D01*
X4747619Y25055323D02*
X4747619Y24941038D01*
X4747619Y24941038D02*
X4709523Y24864847D01*
X4709523Y24864847D02*
X4671428Y24826752D01*
X4671428Y24826752D02*
X4595238Y24788657D01*
X4595238Y24788657D02*
X4290476Y24788657D01*
X5242857Y25207704D02*
X5395238Y25207704D01*
X5395238Y25207704D02*
X5471428Y25169609D01*
X5471428Y25169609D02*
X5547619Y25093419D01*
X5547619Y25093419D02*
X5585714Y24941038D01*
X5585714Y24941038D02*
X5585714Y24674371D01*
X5585714Y24674371D02*
X5547619Y24521990D01*
X5547619Y24521990D02*
X5471428Y24445800D01*
X5471428Y24445800D02*
X5395238Y24407704D01*
X5395238Y24407704D02*
X5242857Y24407704D01*
X5242857Y24407704D02*
X5166666Y24445800D01*
X5166666Y24445800D02*
X5090476Y24521990D01*
X5090476Y24521990D02*
X5052380Y24674371D01*
X5052380Y24674371D02*
X5052380Y24941038D01*
X5052380Y24941038D02*
X5090476Y25093419D01*
X5090476Y25093419D02*
X5166666Y25169609D01*
X5166666Y25169609D02*
X5242857Y25207704D01*
X5852380Y25207704D02*
X6347618Y25207704D01*
X6347618Y25207704D02*
X6080952Y24902942D01*
X6080952Y24902942D02*
X6195237Y24902942D01*
X6195237Y24902942D02*
X6271428Y24864847D01*
X6271428Y24864847D02*
X6309523Y24826752D01*
X6309523Y24826752D02*
X6347618Y24750561D01*
X6347618Y24750561D02*
X6347618Y24560085D01*
X6347618Y24560085D02*
X6309523Y24483895D01*
X6309523Y24483895D02*
X6271428Y24445800D01*
X6271428Y24445800D02*
X6195237Y24407704D01*
X6195237Y24407704D02*
X5966666Y24407704D01*
X5966666Y24407704D02*
X5890475Y24445800D01*
X5890475Y24445800D02*
X5852380Y24483895D01*
X5566667Y21867704D02*
X5300000Y22248657D01*
X5109524Y21867704D02*
X5109524Y22667704D01*
X5109524Y22667704D02*
X5414286Y22667704D01*
X5414286Y22667704D02*
X5490476Y22629609D01*
X5490476Y22629609D02*
X5528571Y22591514D01*
X5528571Y22591514D02*
X5566667Y22515323D01*
X5566667Y22515323D02*
X5566667Y22401038D01*
X5566667Y22401038D02*
X5528571Y22324847D01*
X5528571Y22324847D02*
X5490476Y22286752D01*
X5490476Y22286752D02*
X5414286Y22248657D01*
X5414286Y22248657D02*
X5109524Y22248657D01*
X6061905Y22667704D02*
X6138095Y22667704D01*
X6138095Y22667704D02*
X6214286Y22629609D01*
X6214286Y22629609D02*
X6252381Y22591514D01*
X6252381Y22591514D02*
X6290476Y22515323D01*
X6290476Y22515323D02*
X6328571Y22362942D01*
X6328571Y22362942D02*
X6328571Y22172466D01*
X6328571Y22172466D02*
X6290476Y22020085D01*
X6290476Y22020085D02*
X6252381Y21943895D01*
X6252381Y21943895D02*
X6214286Y21905800D01*
X6214286Y21905800D02*
X6138095Y21867704D01*
X6138095Y21867704D02*
X6061905Y21867704D01*
X6061905Y21867704D02*
X5985714Y21905800D01*
X5985714Y21905800D02*
X5947619Y21943895D01*
X5947619Y21943895D02*
X5909524Y22020085D01*
X5909524Y22020085D02*
X5871428Y22172466D01*
X5871428Y22172466D02*
X5871428Y22362942D01*
X5871428Y22362942D02*
X5909524Y22515323D01*
X5909524Y22515323D02*
X5947619Y22591514D01*
X5947619Y22591514D02*
X5985714Y22629609D01*
X5985714Y22629609D02*
X6061905Y22667704D01*
X5566667Y19327704D02*
X5300000Y19708657D01*
X5109524Y19327704D02*
X5109524Y20127704D01*
X5109524Y20127704D02*
X5414286Y20127704D01*
X5414286Y20127704D02*
X5490476Y20089609D01*
X5490476Y20089609D02*
X5528571Y20051514D01*
X5528571Y20051514D02*
X5566667Y19975323D01*
X5566667Y19975323D02*
X5566667Y19861038D01*
X5566667Y19861038D02*
X5528571Y19784847D01*
X5528571Y19784847D02*
X5490476Y19746752D01*
X5490476Y19746752D02*
X5414286Y19708657D01*
X5414286Y19708657D02*
X5109524Y19708657D01*
X6328571Y19327704D02*
X5871428Y19327704D01*
X6100000Y19327704D02*
X6100000Y20127704D01*
X6100000Y20127704D02*
X6023809Y20013419D01*
X6023809Y20013419D02*
X5947619Y19937228D01*
X5947619Y19937228D02*
X5871428Y19899133D01*
X5166667Y14247704D02*
X4900000Y14628657D01*
X4709524Y14247704D02*
X4709524Y15047704D01*
X4709524Y15047704D02*
X5014286Y15047704D01*
X5014286Y15047704D02*
X5090476Y15009609D01*
X5090476Y15009609D02*
X5128571Y14971514D01*
X5128571Y14971514D02*
X5166667Y14895323D01*
X5166667Y14895323D02*
X5166667Y14781038D01*
X5166667Y14781038D02*
X5128571Y14704847D01*
X5128571Y14704847D02*
X5090476Y14666752D01*
X5090476Y14666752D02*
X5014286Y14628657D01*
X5014286Y14628657D02*
X4709524Y14628657D01*
X5433333Y15047704D02*
X5928571Y15047704D01*
X5928571Y15047704D02*
X5661905Y14742942D01*
X5661905Y14742942D02*
X5776190Y14742942D01*
X5776190Y14742942D02*
X5852381Y14704847D01*
X5852381Y14704847D02*
X5890476Y14666752D01*
X5890476Y14666752D02*
X5928571Y14590561D01*
X5928571Y14590561D02*
X5928571Y14400085D01*
X5928571Y14400085D02*
X5890476Y14323895D01*
X5890476Y14323895D02*
X5852381Y14285800D01*
X5852381Y14285800D02*
X5776190Y14247704D01*
X5776190Y14247704D02*
X5547619Y14247704D01*
X5547619Y14247704D02*
X5471428Y14285800D01*
X5471428Y14285800D02*
X5433333Y14323895D01*
X53731009Y2652381D02*
X53778628Y2795238D01*
X53778628Y2795238D02*
X53826247Y2842857D01*
X53826247Y2842857D02*
X53921485Y2890476D01*
X53921485Y2890476D02*
X54064342Y2890476D01*
X54064342Y2890476D02*
X54159580Y2842857D01*
X54159580Y2842857D02*
X54207200Y2795238D01*
X54207200Y2795238D02*
X54254819Y2700000D01*
X54254819Y2700000D02*
X54254819Y2319048D01*
X54254819Y2319048D02*
X53254819Y2319048D01*
X53254819Y2319048D02*
X53254819Y2652381D01*
X53254819Y2652381D02*
X53302438Y2747619D01*
X53302438Y2747619D02*
X53350057Y2795238D01*
X53350057Y2795238D02*
X53445295Y2842857D01*
X53445295Y2842857D02*
X53540533Y2842857D01*
X53540533Y2842857D02*
X53635771Y2795238D01*
X53635771Y2795238D02*
X53683390Y2747619D01*
X53683390Y2747619D02*
X53731009Y2652381D01*
X53731009Y2652381D02*
X53731009Y2319048D01*
X53873866Y3319048D02*
X53873866Y4080953D01*
X54254819Y3700000D02*
X53492914Y3700000D01*
X53731009Y252381D02*
X53778628Y395238D01*
X53778628Y395238D02*
X53826247Y442857D01*
X53826247Y442857D02*
X53921485Y490476D01*
X53921485Y490476D02*
X54064342Y490476D01*
X54064342Y490476D02*
X54159580Y442857D01*
X54159580Y442857D02*
X54207200Y395238D01*
X54207200Y395238D02*
X54254819Y300000D01*
X54254819Y300000D02*
X54254819Y-80951D01*
X54254819Y-80951D02*
X53254819Y-80951D01*
X53254819Y-80951D02*
X53254819Y252381D01*
X53254819Y252381D02*
X53302438Y347619D01*
X53302438Y347619D02*
X53350057Y395238D01*
X53350057Y395238D02*
X53445295Y442857D01*
X53445295Y442857D02*
X53540533Y442857D01*
X53540533Y442857D02*
X53635771Y395238D01*
X53635771Y395238D02*
X53683390Y347619D01*
X53683390Y347619D02*
X53731009Y252381D01*
X53731009Y252381D02*
X53731009Y-80951D01*
X53873866Y919048D02*
X53873866Y1680953D01*
X35166666Y23354819D02*
X35499999Y22878628D01*
X35738094Y23354819D02*
X35738094Y22354819D01*
X35738094Y22354819D02*
X35357142Y22354819D01*
X35357142Y22354819D02*
X35261904Y22402438D01*
X35261904Y22402438D02*
X35214285Y22450057D01*
X35214285Y22450057D02*
X35166666Y22545295D01*
X35166666Y22545295D02*
X35166666Y22688152D01*
X35166666Y22688152D02*
X35214285Y22783390D01*
X35214285Y22783390D02*
X35261904Y22831009D01*
X35261904Y22831009D02*
X35357142Y22878628D01*
X35357142Y22878628D02*
X35738094Y22878628D01*
X34785713Y22450057D02*
X34738094Y22402438D01*
X34738094Y22402438D02*
X34642856Y22354819D01*
X34642856Y22354819D02*
X34404761Y22354819D01*
X34404761Y22354819D02*
X34309523Y22402438D01*
X34309523Y22402438D02*
X34261904Y22450057D01*
X34261904Y22450057D02*
X34214285Y22545295D01*
X34214285Y22545295D02*
X34214285Y22640533D01*
X34214285Y22640533D02*
X34261904Y22783390D01*
X34261904Y22783390D02*
X34833332Y23354819D01*
X34833332Y23354819D02*
X34214285Y23354819D01*
X35166666Y22154819D02*
X35499999Y21678628D01*
X35738094Y22154819D02*
X35738094Y21154819D01*
X35738094Y21154819D02*
X35357142Y21154819D01*
X35357142Y21154819D02*
X35261904Y21202438D01*
X35261904Y21202438D02*
X35214285Y21250057D01*
X35214285Y21250057D02*
X35166666Y21345295D01*
X35166666Y21345295D02*
X35166666Y21488152D01*
X35166666Y21488152D02*
X35214285Y21583390D01*
X35214285Y21583390D02*
X35261904Y21631009D01*
X35261904Y21631009D02*
X35357142Y21678628D01*
X35357142Y21678628D02*
X35738094Y21678628D01*
X34214285Y22154819D02*
X34785713Y22154819D01*
X34499999Y22154819D02*
X34499999Y21154819D01*
X34499999Y21154819D02*
X34595237Y21297676D01*
X34595237Y21297676D02*
X34690475Y21392914D01*
X34690475Y21392914D02*
X34785713Y21440533D01*
X35166666Y20954819D02*
X35499999Y20478628D01*
X35738094Y20954819D02*
X35738094Y19954819D01*
X35738094Y19954819D02*
X35357142Y19954819D01*
X35357142Y19954819D02*
X35261904Y20002438D01*
X35261904Y20002438D02*
X35214285Y20050057D01*
X35214285Y20050057D02*
X35166666Y20145295D01*
X35166666Y20145295D02*
X35166666Y20288152D01*
X35166666Y20288152D02*
X35214285Y20383390D01*
X35214285Y20383390D02*
X35261904Y20431009D01*
X35261904Y20431009D02*
X35357142Y20478628D01*
X35357142Y20478628D02*
X35738094Y20478628D01*
X34547618Y19954819D02*
X34452380Y19954819D01*
X34452380Y19954819D02*
X34357142Y20002438D01*
X34357142Y20002438D02*
X34309523Y20050057D01*
X34309523Y20050057D02*
X34261904Y20145295D01*
X34261904Y20145295D02*
X34214285Y20335771D01*
X34214285Y20335771D02*
X34214285Y20573866D01*
X34214285Y20573866D02*
X34261904Y20764342D01*
X34261904Y20764342D02*
X34309523Y20859580D01*
X34309523Y20859580D02*
X34357142Y20907200D01*
X34357142Y20907200D02*
X34452380Y20954819D01*
X34452380Y20954819D02*
X34547618Y20954819D01*
X34547618Y20954819D02*
X34642856Y20907200D01*
X34642856Y20907200D02*
X34690475Y20859580D01*
X34690475Y20859580D02*
X34738094Y20764342D01*
X34738094Y20764342D02*
X34785713Y20573866D01*
X34785713Y20573866D02*
X34785713Y20335771D01*
X34785713Y20335771D02*
X34738094Y20145295D01*
X34738094Y20145295D02*
X34690475Y20050057D01*
X34690475Y20050057D02*
X34642856Y20002438D01*
X34642856Y20002438D02*
X34547618Y19954819D01*
X35166666Y19659580D02*
X35214285Y19707200D01*
X35214285Y19707200D02*
X35357142Y19754819D01*
X35357142Y19754819D02*
X35452380Y19754819D01*
X35452380Y19754819D02*
X35595237Y19707200D01*
X35595237Y19707200D02*
X35690475Y19611961D01*
X35690475Y19611961D02*
X35738094Y19516723D01*
X35738094Y19516723D02*
X35785713Y19326247D01*
X35785713Y19326247D02*
X35785713Y19183390D01*
X35785713Y19183390D02*
X35738094Y18992914D01*
X35738094Y18992914D02*
X35690475Y18897676D01*
X35690475Y18897676D02*
X35595237Y18802438D01*
X35595237Y18802438D02*
X35452380Y18754819D01*
X35452380Y18754819D02*
X35357142Y18754819D01*
X35357142Y18754819D02*
X35214285Y18802438D01*
X35214285Y18802438D02*
X35166666Y18850057D01*
X34309523Y18754819D02*
X34499999Y18754819D01*
X34499999Y18754819D02*
X34595237Y18802438D01*
X34595237Y18802438D02*
X34642856Y18850057D01*
X34642856Y18850057D02*
X34738094Y18992914D01*
X34738094Y18992914D02*
X34785713Y19183390D01*
X34785713Y19183390D02*
X34785713Y19564342D01*
X34785713Y19564342D02*
X34738094Y19659580D01*
X34738094Y19659580D02*
X34690475Y19707200D01*
X34690475Y19707200D02*
X34595237Y19754819D01*
X34595237Y19754819D02*
X34404761Y19754819D01*
X34404761Y19754819D02*
X34309523Y19707200D01*
X34309523Y19707200D02*
X34261904Y19659580D01*
X34261904Y19659580D02*
X34214285Y19564342D01*
X34214285Y19564342D02*
X34214285Y19326247D01*
X34214285Y19326247D02*
X34261904Y19231009D01*
X34261904Y19231009D02*
X34309523Y19183390D01*
X34309523Y19183390D02*
X34404761Y19135771D01*
X34404761Y19135771D02*
X34595237Y19135771D01*
X34595237Y19135771D02*
X34690475Y19183390D01*
X34690475Y19183390D02*
X34738094Y19231009D01*
X34738094Y19231009D02*
X34785713Y19326247D01*
X35166666Y18459580D02*
X35214285Y18507200D01*
X35214285Y18507200D02*
X35357142Y18554819D01*
X35357142Y18554819D02*
X35452380Y18554819D01*
X35452380Y18554819D02*
X35595237Y18507200D01*
X35595237Y18507200D02*
X35690475Y18411961D01*
X35690475Y18411961D02*
X35738094Y18316723D01*
X35738094Y18316723D02*
X35785713Y18126247D01*
X35785713Y18126247D02*
X35785713Y17983390D01*
X35785713Y17983390D02*
X35738094Y17792914D01*
X35738094Y17792914D02*
X35690475Y17697676D01*
X35690475Y17697676D02*
X35595237Y17602438D01*
X35595237Y17602438D02*
X35452380Y17554819D01*
X35452380Y17554819D02*
X35357142Y17554819D01*
X35357142Y17554819D02*
X35214285Y17602438D01*
X35214285Y17602438D02*
X35166666Y17650057D01*
X34261904Y17554819D02*
X34738094Y17554819D01*
X34738094Y17554819D02*
X34785713Y18031009D01*
X34785713Y18031009D02*
X34738094Y17983390D01*
X34738094Y17983390D02*
X34642856Y17935771D01*
X34642856Y17935771D02*
X34404761Y17935771D01*
X34404761Y17935771D02*
X34309523Y17983390D01*
X34309523Y17983390D02*
X34261904Y18031009D01*
X34261904Y18031009D02*
X34214285Y18126247D01*
X34214285Y18126247D02*
X34214285Y18364342D01*
X34214285Y18364342D02*
X34261904Y18459580D01*
X34261904Y18459580D02*
X34309523Y18507200D01*
X34309523Y18507200D02*
X34404761Y18554819D01*
X34404761Y18554819D02*
X34642856Y18554819D01*
X34642856Y18554819D02*
X34738094Y18507200D01*
X34738094Y18507200D02*
X34785713Y18459580D01*
X70476190Y19640419D02*
X70428571Y19592800D01*
X70428571Y19592800D02*
X70285714Y19545180D01*
X70285714Y19545180D02*
X70190476Y19545180D01*
X70190476Y19545180D02*
X70047619Y19592800D01*
X70047619Y19592800D02*
X69952381Y19688038D01*
X69952381Y19688038D02*
X69904762Y19783276D01*
X69904762Y19783276D02*
X69857143Y19973752D01*
X69857143Y19973752D02*
X69857143Y20116609D01*
X69857143Y20116609D02*
X69904762Y20307085D01*
X69904762Y20307085D02*
X69952381Y20402323D01*
X69952381Y20402323D02*
X70047619Y20497561D01*
X70047619Y20497561D02*
X70190476Y20545180D01*
X70190476Y20545180D02*
X70285714Y20545180D01*
X70285714Y20545180D02*
X70428571Y20497561D01*
X70428571Y20497561D02*
X70476190Y20449942D01*
X71095238Y20545180D02*
X71190476Y20545180D01*
X71190476Y20545180D02*
X71285714Y20497561D01*
X71285714Y20497561D02*
X71333333Y20449942D01*
X71333333Y20449942D02*
X71380952Y20354704D01*
X71380952Y20354704D02*
X71428571Y20164228D01*
X71428571Y20164228D02*
X71428571Y19926133D01*
X71428571Y19926133D02*
X71380952Y19735657D01*
X71380952Y19735657D02*
X71333333Y19640419D01*
X71333333Y19640419D02*
X71285714Y19592800D01*
X71285714Y19592800D02*
X71190476Y19545180D01*
X71190476Y19545180D02*
X71095238Y19545180D01*
X71095238Y19545180D02*
X71000000Y19592800D01*
X71000000Y19592800D02*
X70952381Y19640419D01*
X70952381Y19640419D02*
X70904762Y19735657D01*
X70904762Y19735657D02*
X70857143Y19926133D01*
X70857143Y19926133D02*
X70857143Y20164228D01*
X70857143Y20164228D02*
X70904762Y20354704D01*
X70904762Y20354704D02*
X70952381Y20449942D01*
X70952381Y20449942D02*
X71000000Y20497561D01*
X71000000Y20497561D02*
X71095238Y20545180D01*
X71619048Y19449942D02*
X72380952Y19449942D01*
X73190476Y19545180D02*
X72857143Y20021371D01*
X72619048Y19545180D02*
X72619048Y20545180D01*
X72619048Y20545180D02*
X73000000Y20545180D01*
X73000000Y20545180D02*
X73095238Y20497561D01*
X73095238Y20497561D02*
X73142857Y20449942D01*
X73142857Y20449942D02*
X73190476Y20354704D01*
X73190476Y20354704D02*
X73190476Y20211847D01*
X73190476Y20211847D02*
X73142857Y20116609D01*
X73142857Y20116609D02*
X73095238Y20068990D01*
X73095238Y20068990D02*
X73000000Y20021371D01*
X73000000Y20021371D02*
X72619048Y20021371D01*
X73809524Y20545180D02*
X73904762Y20545180D01*
X73904762Y20545180D02*
X74000000Y20497561D01*
X74000000Y20497561D02*
X74047619Y20449942D01*
X74047619Y20449942D02*
X74095238Y20354704D01*
X74095238Y20354704D02*
X74142857Y20164228D01*
X74142857Y20164228D02*
X74142857Y19926133D01*
X74142857Y19926133D02*
X74095238Y19735657D01*
X74095238Y19735657D02*
X74047619Y19640419D01*
X74047619Y19640419D02*
X74000000Y19592800D01*
X74000000Y19592800D02*
X73904762Y19545180D01*
X73904762Y19545180D02*
X73809524Y19545180D01*
X73809524Y19545180D02*
X73714286Y19592800D01*
X73714286Y19592800D02*
X73666667Y19640419D01*
X73666667Y19640419D02*
X73619048Y19735657D01*
X73619048Y19735657D02*
X73571429Y19926133D01*
X73571429Y19926133D02*
X73571429Y20164228D01*
X73571429Y20164228D02*
X73619048Y20354704D01*
X73619048Y20354704D02*
X73666667Y20449942D01*
X73666667Y20449942D02*
X73714286Y20497561D01*
X73714286Y20497561D02*
X73809524Y20545180D01*
X70476190Y2640419D02*
X70428571Y2592800D01*
X70428571Y2592800D02*
X70285714Y2545180D01*
X70285714Y2545180D02*
X70190476Y2545180D01*
X70190476Y2545180D02*
X70047619Y2592800D01*
X70047619Y2592800D02*
X69952381Y2688038D01*
X69952381Y2688038D02*
X69904762Y2783276D01*
X69904762Y2783276D02*
X69857143Y2973752D01*
X69857143Y2973752D02*
X69857143Y3116609D01*
X69857143Y3116609D02*
X69904762Y3307085D01*
X69904762Y3307085D02*
X69952381Y3402323D01*
X69952381Y3402323D02*
X70047619Y3497561D01*
X70047619Y3497561D02*
X70190476Y3545180D01*
X70190476Y3545180D02*
X70285714Y3545180D01*
X70285714Y3545180D02*
X70428571Y3497561D01*
X70428571Y3497561D02*
X70476190Y3449942D01*
X71095238Y3545180D02*
X71190476Y3545180D01*
X71190476Y3545180D02*
X71285714Y3497561D01*
X71285714Y3497561D02*
X71333333Y3449942D01*
X71333333Y3449942D02*
X71380952Y3354704D01*
X71380952Y3354704D02*
X71428571Y3164228D01*
X71428571Y3164228D02*
X71428571Y2926133D01*
X71428571Y2926133D02*
X71380952Y2735657D01*
X71380952Y2735657D02*
X71333333Y2640419D01*
X71333333Y2640419D02*
X71285714Y2592800D01*
X71285714Y2592800D02*
X71190476Y2545180D01*
X71190476Y2545180D02*
X71095238Y2545180D01*
X71095238Y2545180D02*
X71000000Y2592800D01*
X71000000Y2592800D02*
X70952381Y2640419D01*
X70952381Y2640419D02*
X70904762Y2735657D01*
X70904762Y2735657D02*
X70857143Y2926133D01*
X70857143Y2926133D02*
X70857143Y3164228D01*
X70857143Y3164228D02*
X70904762Y3354704D01*
X70904762Y3354704D02*
X70952381Y3449942D01*
X70952381Y3449942D02*
X71000000Y3497561D01*
X71000000Y3497561D02*
X71095238Y3545180D01*
X71619048Y2449942D02*
X72380952Y2449942D01*
X73190476Y2545180D02*
X72857143Y3021371D01*
X72619048Y2545180D02*
X72619048Y3545180D01*
X72619048Y3545180D02*
X73000000Y3545180D01*
X73000000Y3545180D02*
X73095238Y3497561D01*
X73095238Y3497561D02*
X73142857Y3449942D01*
X73142857Y3449942D02*
X73190476Y3354704D01*
X73190476Y3354704D02*
X73190476Y3211847D01*
X73190476Y3211847D02*
X73142857Y3116609D01*
X73142857Y3116609D02*
X73095238Y3068990D01*
X73095238Y3068990D02*
X73000000Y3021371D01*
X73000000Y3021371D02*
X72619048Y3021371D01*
X74142857Y2545180D02*
X73571429Y2545180D01*
X73857143Y2545180D02*
X73857143Y3545180D01*
X73857143Y3545180D02*
X73761905Y3402323D01*
X73761905Y3402323D02*
X73666667Y3307085D01*
X73666667Y3307085D02*
X73571429Y3259466D01*
X70476190Y-14359580D02*
X70428571Y-14407200D01*
X70428571Y-14407200D02*
X70285714Y-14454819D01*
X70285714Y-14454819D02*
X70190476Y-14454819D01*
X70190476Y-14454819D02*
X70047619Y-14407200D01*
X70047619Y-14407200D02*
X69952381Y-14311961D01*
X69952381Y-14311961D02*
X69904762Y-14216723D01*
X69904762Y-14216723D02*
X69857143Y-14026247D01*
X69857143Y-14026247D02*
X69857143Y-13883390D01*
X69857143Y-13883390D02*
X69904762Y-13692914D01*
X69904762Y-13692914D02*
X69952381Y-13597676D01*
X69952381Y-13597676D02*
X70047619Y-13502438D01*
X70047619Y-13502438D02*
X70190476Y-13454819D01*
X70190476Y-13454819D02*
X70285714Y-13454819D01*
X70285714Y-13454819D02*
X70428571Y-13502438D01*
X70428571Y-13502438D02*
X70476190Y-13550057D01*
X71095238Y-13454819D02*
X71190476Y-13454819D01*
X71190476Y-13454819D02*
X71285714Y-13502438D01*
X71285714Y-13502438D02*
X71333333Y-13550057D01*
X71333333Y-13550057D02*
X71380952Y-13645295D01*
X71380952Y-13645295D02*
X71428571Y-13835771D01*
X71428571Y-13835771D02*
X71428571Y-14073866D01*
X71428571Y-14073866D02*
X71380952Y-14264342D01*
X71380952Y-14264342D02*
X71333333Y-14359580D01*
X71333333Y-14359580D02*
X71285714Y-14407200D01*
X71285714Y-14407200D02*
X71190476Y-14454819D01*
X71190476Y-14454819D02*
X71095238Y-14454819D01*
X71095238Y-14454819D02*
X71000000Y-14407200D01*
X71000000Y-14407200D02*
X70952381Y-14359580D01*
X70952381Y-14359580D02*
X70904762Y-14264342D01*
X70904762Y-14264342D02*
X70857143Y-14073866D01*
X70857143Y-14073866D02*
X70857143Y-13835771D01*
X70857143Y-13835771D02*
X70904762Y-13645295D01*
X70904762Y-13645295D02*
X70952381Y-13550057D01*
X70952381Y-13550057D02*
X71000000Y-13502438D01*
X71000000Y-13502438D02*
X71095238Y-13454819D01*
X71619048Y-14550057D02*
X72380952Y-14550057D01*
X73190476Y-14454819D02*
X72857143Y-13978628D01*
X72619048Y-14454819D02*
X72619048Y-13454819D01*
X72619048Y-13454819D02*
X73000000Y-13454819D01*
X73000000Y-13454819D02*
X73095238Y-13502438D01*
X73095238Y-13502438D02*
X73142857Y-13550057D01*
X73142857Y-13550057D02*
X73190476Y-13645295D01*
X73190476Y-13645295D02*
X73190476Y-13788152D01*
X73190476Y-13788152D02*
X73142857Y-13883390D01*
X73142857Y-13883390D02*
X73095238Y-13931009D01*
X73095238Y-13931009D02*
X73000000Y-13978628D01*
X73000000Y-13978628D02*
X72619048Y-13978628D01*
X73571429Y-13550057D02*
X73619048Y-13502438D01*
X73619048Y-13502438D02*
X73714286Y-13454819D01*
X73714286Y-13454819D02*
X73952381Y-13454819D01*
X73952381Y-13454819D02*
X74047619Y-13502438D01*
X74047619Y-13502438D02*
X74095238Y-13550057D01*
X74095238Y-13550057D02*
X74142857Y-13645295D01*
X74142857Y-13645295D02*
X74142857Y-13740533D01*
X74142857Y-13740533D02*
X74095238Y-13883390D01*
X74095238Y-13883390D02*
X73523810Y-14454819D01*
X73523810Y-14454819D02*
X74142857Y-14454819D01*
X52476190Y42640419D02*
X52428571Y42592800D01*
X52428571Y42592800D02*
X52285714Y42545180D01*
X52285714Y42545180D02*
X52190476Y42545180D01*
X52190476Y42545180D02*
X52047619Y42592800D01*
X52047619Y42592800D02*
X51952381Y42688038D01*
X51952381Y42688038D02*
X51904762Y42783276D01*
X51904762Y42783276D02*
X51857143Y42973752D01*
X51857143Y42973752D02*
X51857143Y43116609D01*
X51857143Y43116609D02*
X51904762Y43307085D01*
X51904762Y43307085D02*
X51952381Y43402323D01*
X51952381Y43402323D02*
X52047619Y43497561D01*
X52047619Y43497561D02*
X52190476Y43545180D01*
X52190476Y43545180D02*
X52285714Y43545180D01*
X52285714Y43545180D02*
X52428571Y43497561D01*
X52428571Y43497561D02*
X52476190Y43449942D01*
X53428571Y42545180D02*
X52857143Y42545180D01*
X53142857Y42545180D02*
X53142857Y43545180D01*
X53142857Y43545180D02*
X53047619Y43402323D01*
X53047619Y43402323D02*
X52952381Y43307085D01*
X52952381Y43307085D02*
X52857143Y43259466D01*
X53619048Y42449942D02*
X54380952Y42449942D01*
X55190476Y42545180D02*
X54857143Y43021371D01*
X54619048Y42545180D02*
X54619048Y43545180D01*
X54619048Y43545180D02*
X55000000Y43545180D01*
X55000000Y43545180D02*
X55095238Y43497561D01*
X55095238Y43497561D02*
X55142857Y43449942D01*
X55142857Y43449942D02*
X55190476Y43354704D01*
X55190476Y43354704D02*
X55190476Y43211847D01*
X55190476Y43211847D02*
X55142857Y43116609D01*
X55142857Y43116609D02*
X55095238Y43068990D01*
X55095238Y43068990D02*
X55000000Y43021371D01*
X55000000Y43021371D02*
X54619048Y43021371D01*
X55809524Y43545180D02*
X55904762Y43545180D01*
X55904762Y43545180D02*
X56000000Y43497561D01*
X56000000Y43497561D02*
X56047619Y43449942D01*
X56047619Y43449942D02*
X56095238Y43354704D01*
X56095238Y43354704D02*
X56142857Y43164228D01*
X56142857Y43164228D02*
X56142857Y42926133D01*
X56142857Y42926133D02*
X56095238Y42735657D01*
X56095238Y42735657D02*
X56047619Y42640419D01*
X56047619Y42640419D02*
X56000000Y42592800D01*
X56000000Y42592800D02*
X55904762Y42545180D01*
X55904762Y42545180D02*
X55809524Y42545180D01*
X55809524Y42545180D02*
X55714286Y42592800D01*
X55714286Y42592800D02*
X55666667Y42640419D01*
X55666667Y42640419D02*
X55619048Y42735657D01*
X55619048Y42735657D02*
X55571429Y42926133D01*
X55571429Y42926133D02*
X55571429Y43164228D01*
X55571429Y43164228D02*
X55619048Y43354704D01*
X55619048Y43354704D02*
X55666667Y43449942D01*
X55666667Y43449942D02*
X55714286Y43497561D01*
X55714286Y43497561D02*
X55809524Y43545180D01*
X52476190Y25640419D02*
X52428571Y25592800D01*
X52428571Y25592800D02*
X52285714Y25545180D01*
X52285714Y25545180D02*
X52190476Y25545180D01*
X52190476Y25545180D02*
X52047619Y25592800D01*
X52047619Y25592800D02*
X51952381Y25688038D01*
X51952381Y25688038D02*
X51904762Y25783276D01*
X51904762Y25783276D02*
X51857143Y25973752D01*
X51857143Y25973752D02*
X51857143Y26116609D01*
X51857143Y26116609D02*
X51904762Y26307085D01*
X51904762Y26307085D02*
X51952381Y26402323D01*
X51952381Y26402323D02*
X52047619Y26497561D01*
X52047619Y26497561D02*
X52190476Y26545180D01*
X52190476Y26545180D02*
X52285714Y26545180D01*
X52285714Y26545180D02*
X52428571Y26497561D01*
X52428571Y26497561D02*
X52476190Y26449942D01*
X53428571Y25545180D02*
X52857143Y25545180D01*
X53142857Y25545180D02*
X53142857Y26545180D01*
X53142857Y26545180D02*
X53047619Y26402323D01*
X53047619Y26402323D02*
X52952381Y26307085D01*
X52952381Y26307085D02*
X52857143Y26259466D01*
X53619048Y25449942D02*
X54380952Y25449942D01*
X55190476Y25545180D02*
X54857143Y26021371D01*
X54619048Y25545180D02*
X54619048Y26545180D01*
X54619048Y26545180D02*
X55000000Y26545180D01*
X55000000Y26545180D02*
X55095238Y26497561D01*
X55095238Y26497561D02*
X55142857Y26449942D01*
X55142857Y26449942D02*
X55190476Y26354704D01*
X55190476Y26354704D02*
X55190476Y26211847D01*
X55190476Y26211847D02*
X55142857Y26116609D01*
X55142857Y26116609D02*
X55095238Y26068990D01*
X55095238Y26068990D02*
X55000000Y26021371D01*
X55000000Y26021371D02*
X54619048Y26021371D01*
X56142857Y25545180D02*
X55571429Y25545180D01*
X55857143Y25545180D02*
X55857143Y26545180D01*
X55857143Y26545180D02*
X55761905Y26402323D01*
X55761905Y26402323D02*
X55666667Y26307085D01*
X55666667Y26307085D02*
X55571429Y26259466D01*
X52476190Y8640419D02*
X52428571Y8592800D01*
X52428571Y8592800D02*
X52285714Y8545180D01*
X52285714Y8545180D02*
X52190476Y8545180D01*
X52190476Y8545180D02*
X52047619Y8592800D01*
X52047619Y8592800D02*
X51952381Y8688038D01*
X51952381Y8688038D02*
X51904762Y8783276D01*
X51904762Y8783276D02*
X51857143Y8973752D01*
X51857143Y8973752D02*
X51857143Y9116609D01*
X51857143Y9116609D02*
X51904762Y9307085D01*
X51904762Y9307085D02*
X51952381Y9402323D01*
X51952381Y9402323D02*
X52047619Y9497561D01*
X52047619Y9497561D02*
X52190476Y9545180D01*
X52190476Y9545180D02*
X52285714Y9545180D01*
X52285714Y9545180D02*
X52428571Y9497561D01*
X52428571Y9497561D02*
X52476190Y9449942D01*
X53428571Y8545180D02*
X52857143Y8545180D01*
X53142857Y8545180D02*
X53142857Y9545180D01*
X53142857Y9545180D02*
X53047619Y9402323D01*
X53047619Y9402323D02*
X52952381Y9307085D01*
X52952381Y9307085D02*
X52857143Y9259466D01*
X53619048Y8449942D02*
X54380952Y8449942D01*
X55190476Y8545180D02*
X54857143Y9021371D01*
X54619048Y8545180D02*
X54619048Y9545180D01*
X54619048Y9545180D02*
X55000000Y9545180D01*
X55000000Y9545180D02*
X55095238Y9497561D01*
X55095238Y9497561D02*
X55142857Y9449942D01*
X55142857Y9449942D02*
X55190476Y9354704D01*
X55190476Y9354704D02*
X55190476Y9211847D01*
X55190476Y9211847D02*
X55142857Y9116609D01*
X55142857Y9116609D02*
X55095238Y9068990D01*
X55095238Y9068990D02*
X55000000Y9021371D01*
X55000000Y9021371D02*
X54619048Y9021371D01*
X55571429Y9449942D02*
X55619048Y9497561D01*
X55619048Y9497561D02*
X55714286Y9545180D01*
X55714286Y9545180D02*
X55952381Y9545180D01*
X55952381Y9545180D02*
X56047619Y9497561D01*
X56047619Y9497561D02*
X56095238Y9449942D01*
X56095238Y9449942D02*
X56142857Y9354704D01*
X56142857Y9354704D02*
X56142857Y9259466D01*
X56142857Y9259466D02*
X56095238Y9116609D01*
X56095238Y9116609D02*
X55523810Y8545180D01*
X55523810Y8545180D02*
X56142857Y8545180D01*
X34476190Y45640419D02*
X34428571Y45592800D01*
X34428571Y45592800D02*
X34285714Y45545180D01*
X34285714Y45545180D02*
X34190476Y45545180D01*
X34190476Y45545180D02*
X34047619Y45592800D01*
X34047619Y45592800D02*
X33952381Y45688038D01*
X33952381Y45688038D02*
X33904762Y45783276D01*
X33904762Y45783276D02*
X33857143Y45973752D01*
X33857143Y45973752D02*
X33857143Y46116609D01*
X33857143Y46116609D02*
X33904762Y46307085D01*
X33904762Y46307085D02*
X33952381Y46402323D01*
X33952381Y46402323D02*
X34047619Y46497561D01*
X34047619Y46497561D02*
X34190476Y46545180D01*
X34190476Y46545180D02*
X34285714Y46545180D01*
X34285714Y46545180D02*
X34428571Y46497561D01*
X34428571Y46497561D02*
X34476190Y46449942D01*
X34857143Y46449942D02*
X34904762Y46497561D01*
X34904762Y46497561D02*
X35000000Y46545180D01*
X35000000Y46545180D02*
X35238095Y46545180D01*
X35238095Y46545180D02*
X35333333Y46497561D01*
X35333333Y46497561D02*
X35380952Y46449942D01*
X35380952Y46449942D02*
X35428571Y46354704D01*
X35428571Y46354704D02*
X35428571Y46259466D01*
X35428571Y46259466D02*
X35380952Y46116609D01*
X35380952Y46116609D02*
X34809524Y45545180D01*
X34809524Y45545180D02*
X35428571Y45545180D01*
X35619048Y45449942D02*
X36380952Y45449942D01*
X37190476Y45545180D02*
X36857143Y46021371D01*
X36619048Y45545180D02*
X36619048Y46545180D01*
X36619048Y46545180D02*
X37000000Y46545180D01*
X37000000Y46545180D02*
X37095238Y46497561D01*
X37095238Y46497561D02*
X37142857Y46449942D01*
X37142857Y46449942D02*
X37190476Y46354704D01*
X37190476Y46354704D02*
X37190476Y46211847D01*
X37190476Y46211847D02*
X37142857Y46116609D01*
X37142857Y46116609D02*
X37095238Y46068990D01*
X37095238Y46068990D02*
X37000000Y46021371D01*
X37000000Y46021371D02*
X36619048Y46021371D01*
X37809524Y46545180D02*
X37904762Y46545180D01*
X37904762Y46545180D02*
X38000000Y46497561D01*
X38000000Y46497561D02*
X38047619Y46449942D01*
X38047619Y46449942D02*
X38095238Y46354704D01*
X38095238Y46354704D02*
X38142857Y46164228D01*
X38142857Y46164228D02*
X38142857Y45926133D01*
X38142857Y45926133D02*
X38095238Y45735657D01*
X38095238Y45735657D02*
X38047619Y45640419D01*
X38047619Y45640419D02*
X38000000Y45592800D01*
X38000000Y45592800D02*
X37904762Y45545180D01*
X37904762Y45545180D02*
X37809524Y45545180D01*
X37809524Y45545180D02*
X37714286Y45592800D01*
X37714286Y45592800D02*
X37666667Y45640419D01*
X37666667Y45640419D02*
X37619048Y45735657D01*
X37619048Y45735657D02*
X37571429Y45926133D01*
X37571429Y45926133D02*
X37571429Y46164228D01*
X37571429Y46164228D02*
X37619048Y46354704D01*
X37619048Y46354704D02*
X37666667Y46449942D01*
X37666667Y46449942D02*
X37714286Y46497561D01*
X37714286Y46497561D02*
X37809524Y46545180D01*
X34476190Y28640419D02*
X34428571Y28592800D01*
X34428571Y28592800D02*
X34285714Y28545180D01*
X34285714Y28545180D02*
X34190476Y28545180D01*
X34190476Y28545180D02*
X34047619Y28592800D01*
X34047619Y28592800D02*
X33952381Y28688038D01*
X33952381Y28688038D02*
X33904762Y28783276D01*
X33904762Y28783276D02*
X33857143Y28973752D01*
X33857143Y28973752D02*
X33857143Y29116609D01*
X33857143Y29116609D02*
X33904762Y29307085D01*
X33904762Y29307085D02*
X33952381Y29402323D01*
X33952381Y29402323D02*
X34047619Y29497561D01*
X34047619Y29497561D02*
X34190476Y29545180D01*
X34190476Y29545180D02*
X34285714Y29545180D01*
X34285714Y29545180D02*
X34428571Y29497561D01*
X34428571Y29497561D02*
X34476190Y29449942D01*
X34857143Y29449942D02*
X34904762Y29497561D01*
X34904762Y29497561D02*
X35000000Y29545180D01*
X35000000Y29545180D02*
X35238095Y29545180D01*
X35238095Y29545180D02*
X35333333Y29497561D01*
X35333333Y29497561D02*
X35380952Y29449942D01*
X35380952Y29449942D02*
X35428571Y29354704D01*
X35428571Y29354704D02*
X35428571Y29259466D01*
X35428571Y29259466D02*
X35380952Y29116609D01*
X35380952Y29116609D02*
X34809524Y28545180D01*
X34809524Y28545180D02*
X35428571Y28545180D01*
X35619048Y28449942D02*
X36380952Y28449942D01*
X37190476Y28545180D02*
X36857143Y29021371D01*
X36619048Y28545180D02*
X36619048Y29545180D01*
X36619048Y29545180D02*
X37000000Y29545180D01*
X37000000Y29545180D02*
X37095238Y29497561D01*
X37095238Y29497561D02*
X37142857Y29449942D01*
X37142857Y29449942D02*
X37190476Y29354704D01*
X37190476Y29354704D02*
X37190476Y29211847D01*
X37190476Y29211847D02*
X37142857Y29116609D01*
X37142857Y29116609D02*
X37095238Y29068990D01*
X37095238Y29068990D02*
X37000000Y29021371D01*
X37000000Y29021371D02*
X36619048Y29021371D01*
X38142857Y28545180D02*
X37571429Y28545180D01*
X37857143Y28545180D02*
X37857143Y29545180D01*
X37857143Y29545180D02*
X37761905Y29402323D01*
X37761905Y29402323D02*
X37666667Y29307085D01*
X37666667Y29307085D02*
X37571429Y29259466D01*
X34476190Y11640419D02*
X34428571Y11592800D01*
X34428571Y11592800D02*
X34285714Y11545180D01*
X34285714Y11545180D02*
X34190476Y11545180D01*
X34190476Y11545180D02*
X34047619Y11592800D01*
X34047619Y11592800D02*
X33952381Y11688038D01*
X33952381Y11688038D02*
X33904762Y11783276D01*
X33904762Y11783276D02*
X33857143Y11973752D01*
X33857143Y11973752D02*
X33857143Y12116609D01*
X33857143Y12116609D02*
X33904762Y12307085D01*
X33904762Y12307085D02*
X33952381Y12402323D01*
X33952381Y12402323D02*
X34047619Y12497561D01*
X34047619Y12497561D02*
X34190476Y12545180D01*
X34190476Y12545180D02*
X34285714Y12545180D01*
X34285714Y12545180D02*
X34428571Y12497561D01*
X34428571Y12497561D02*
X34476190Y12449942D01*
X34857143Y12449942D02*
X34904762Y12497561D01*
X34904762Y12497561D02*
X35000000Y12545180D01*
X35000000Y12545180D02*
X35238095Y12545180D01*
X35238095Y12545180D02*
X35333333Y12497561D01*
X35333333Y12497561D02*
X35380952Y12449942D01*
X35380952Y12449942D02*
X35428571Y12354704D01*
X35428571Y12354704D02*
X35428571Y12259466D01*
X35428571Y12259466D02*
X35380952Y12116609D01*
X35380952Y12116609D02*
X34809524Y11545180D01*
X34809524Y11545180D02*
X35428571Y11545180D01*
X35619048Y11449942D02*
X36380952Y11449942D01*
X37190476Y11545180D02*
X36857143Y12021371D01*
X36619048Y11545180D02*
X36619048Y12545180D01*
X36619048Y12545180D02*
X37000000Y12545180D01*
X37000000Y12545180D02*
X37095238Y12497561D01*
X37095238Y12497561D02*
X37142857Y12449942D01*
X37142857Y12449942D02*
X37190476Y12354704D01*
X37190476Y12354704D02*
X37190476Y12211847D01*
X37190476Y12211847D02*
X37142857Y12116609D01*
X37142857Y12116609D02*
X37095238Y12068990D01*
X37095238Y12068990D02*
X37000000Y12021371D01*
X37000000Y12021371D02*
X36619048Y12021371D01*
X37571429Y12449942D02*
X37619048Y12497561D01*
X37619048Y12497561D02*
X37714286Y12545180D01*
X37714286Y12545180D02*
X37952381Y12545180D01*
X37952381Y12545180D02*
X38047619Y12497561D01*
X38047619Y12497561D02*
X38095238Y12449942D01*
X38095238Y12449942D02*
X38142857Y12354704D01*
X38142857Y12354704D02*
X38142857Y12259466D01*
X38142857Y12259466D02*
X38095238Y12116609D01*
X38095238Y12116609D02*
X37523810Y11545180D01*
X37523810Y11545180D02*
X38142857Y11545180D01*
X16476190Y39640419D02*
X16428571Y39592800D01*
X16428571Y39592800D02*
X16285714Y39545180D01*
X16285714Y39545180D02*
X16190476Y39545180D01*
X16190476Y39545180D02*
X16047619Y39592800D01*
X16047619Y39592800D02*
X15952381Y39688038D01*
X15952381Y39688038D02*
X15904762Y39783276D01*
X15904762Y39783276D02*
X15857143Y39973752D01*
X15857143Y39973752D02*
X15857143Y40116609D01*
X15857143Y40116609D02*
X15904762Y40307085D01*
X15904762Y40307085D02*
X15952381Y40402323D01*
X15952381Y40402323D02*
X16047619Y40497561D01*
X16047619Y40497561D02*
X16190476Y40545180D01*
X16190476Y40545180D02*
X16285714Y40545180D01*
X16285714Y40545180D02*
X16428571Y40497561D01*
X16428571Y40497561D02*
X16476190Y40449942D01*
X16809524Y40545180D02*
X17428571Y40545180D01*
X17428571Y40545180D02*
X17095238Y40164228D01*
X17095238Y40164228D02*
X17238095Y40164228D01*
X17238095Y40164228D02*
X17333333Y40116609D01*
X17333333Y40116609D02*
X17380952Y40068990D01*
X17380952Y40068990D02*
X17428571Y39973752D01*
X17428571Y39973752D02*
X17428571Y39735657D01*
X17428571Y39735657D02*
X17380952Y39640419D01*
X17380952Y39640419D02*
X17333333Y39592800D01*
X17333333Y39592800D02*
X17238095Y39545180D01*
X17238095Y39545180D02*
X16952381Y39545180D01*
X16952381Y39545180D02*
X16857143Y39592800D01*
X16857143Y39592800D02*
X16809524Y39640419D01*
X17619048Y39449942D02*
X18380952Y39449942D01*
X19190476Y39545180D02*
X18857143Y40021371D01*
X18619048Y39545180D02*
X18619048Y40545180D01*
X18619048Y40545180D02*
X19000000Y40545180D01*
X19000000Y40545180D02*
X19095238Y40497561D01*
X19095238Y40497561D02*
X19142857Y40449942D01*
X19142857Y40449942D02*
X19190476Y40354704D01*
X19190476Y40354704D02*
X19190476Y40211847D01*
X19190476Y40211847D02*
X19142857Y40116609D01*
X19142857Y40116609D02*
X19095238Y40068990D01*
X19095238Y40068990D02*
X19000000Y40021371D01*
X19000000Y40021371D02*
X18619048Y40021371D01*
X19809524Y40545180D02*
X19904762Y40545180D01*
X19904762Y40545180D02*
X20000000Y40497561D01*
X20000000Y40497561D02*
X20047619Y40449942D01*
X20047619Y40449942D02*
X20095238Y40354704D01*
X20095238Y40354704D02*
X20142857Y40164228D01*
X20142857Y40164228D02*
X20142857Y39926133D01*
X20142857Y39926133D02*
X20095238Y39735657D01*
X20095238Y39735657D02*
X20047619Y39640419D01*
X20047619Y39640419D02*
X20000000Y39592800D01*
X20000000Y39592800D02*
X19904762Y39545180D01*
X19904762Y39545180D02*
X19809524Y39545180D01*
X19809524Y39545180D02*
X19714286Y39592800D01*
X19714286Y39592800D02*
X19666667Y39640419D01*
X19666667Y39640419D02*
X19619048Y39735657D01*
X19619048Y39735657D02*
X19571429Y39926133D01*
X19571429Y39926133D02*
X19571429Y40164228D01*
X19571429Y40164228D02*
X19619048Y40354704D01*
X19619048Y40354704D02*
X19666667Y40449942D01*
X19666667Y40449942D02*
X19714286Y40497561D01*
X19714286Y40497561D02*
X19809524Y40545180D01*
X16476190Y22640419D02*
X16428571Y22592800D01*
X16428571Y22592800D02*
X16285714Y22545180D01*
X16285714Y22545180D02*
X16190476Y22545180D01*
X16190476Y22545180D02*
X16047619Y22592800D01*
X16047619Y22592800D02*
X15952381Y22688038D01*
X15952381Y22688038D02*
X15904762Y22783276D01*
X15904762Y22783276D02*
X15857143Y22973752D01*
X15857143Y22973752D02*
X15857143Y23116609D01*
X15857143Y23116609D02*
X15904762Y23307085D01*
X15904762Y23307085D02*
X15952381Y23402323D01*
X15952381Y23402323D02*
X16047619Y23497561D01*
X16047619Y23497561D02*
X16190476Y23545180D01*
X16190476Y23545180D02*
X16285714Y23545180D01*
X16285714Y23545180D02*
X16428571Y23497561D01*
X16428571Y23497561D02*
X16476190Y23449942D01*
X16809524Y23545180D02*
X17428571Y23545180D01*
X17428571Y23545180D02*
X17095238Y23164228D01*
X17095238Y23164228D02*
X17238095Y23164228D01*
X17238095Y23164228D02*
X17333333Y23116609D01*
X17333333Y23116609D02*
X17380952Y23068990D01*
X17380952Y23068990D02*
X17428571Y22973752D01*
X17428571Y22973752D02*
X17428571Y22735657D01*
X17428571Y22735657D02*
X17380952Y22640419D01*
X17380952Y22640419D02*
X17333333Y22592800D01*
X17333333Y22592800D02*
X17238095Y22545180D01*
X17238095Y22545180D02*
X16952381Y22545180D01*
X16952381Y22545180D02*
X16857143Y22592800D01*
X16857143Y22592800D02*
X16809524Y22640419D01*
X17619048Y22449942D02*
X18380952Y22449942D01*
X19190476Y22545180D02*
X18857143Y23021371D01*
X18619048Y22545180D02*
X18619048Y23545180D01*
X18619048Y23545180D02*
X19000000Y23545180D01*
X19000000Y23545180D02*
X19095238Y23497561D01*
X19095238Y23497561D02*
X19142857Y23449942D01*
X19142857Y23449942D02*
X19190476Y23354704D01*
X19190476Y23354704D02*
X19190476Y23211847D01*
X19190476Y23211847D02*
X19142857Y23116609D01*
X19142857Y23116609D02*
X19095238Y23068990D01*
X19095238Y23068990D02*
X19000000Y23021371D01*
X19000000Y23021371D02*
X18619048Y23021371D01*
X20142857Y22545180D02*
X19571429Y22545180D01*
X19857143Y22545180D02*
X19857143Y23545180D01*
X19857143Y23545180D02*
X19761905Y23402323D01*
X19761905Y23402323D02*
X19666667Y23307085D01*
X19666667Y23307085D02*
X19571429Y23259466D01*
X16476190Y5640419D02*
X16428571Y5592800D01*
X16428571Y5592800D02*
X16285714Y5545180D01*
X16285714Y5545180D02*
X16190476Y5545180D01*
X16190476Y5545180D02*
X16047619Y5592800D01*
X16047619Y5592800D02*
X15952381Y5688038D01*
X15952381Y5688038D02*
X15904762Y5783276D01*
X15904762Y5783276D02*
X15857143Y5973752D01*
X15857143Y5973752D02*
X15857143Y6116609D01*
X15857143Y6116609D02*
X15904762Y6307085D01*
X15904762Y6307085D02*
X15952381Y6402323D01*
X15952381Y6402323D02*
X16047619Y6497561D01*
X16047619Y6497561D02*
X16190476Y6545180D01*
X16190476Y6545180D02*
X16285714Y6545180D01*
X16285714Y6545180D02*
X16428571Y6497561D01*
X16428571Y6497561D02*
X16476190Y6449942D01*
X16809524Y6545180D02*
X17428571Y6545180D01*
X17428571Y6545180D02*
X17095238Y6164228D01*
X17095238Y6164228D02*
X17238095Y6164228D01*
X17238095Y6164228D02*
X17333333Y6116609D01*
X17333333Y6116609D02*
X17380952Y6068990D01*
X17380952Y6068990D02*
X17428571Y5973752D01*
X17428571Y5973752D02*
X17428571Y5735657D01*
X17428571Y5735657D02*
X17380952Y5640419D01*
X17380952Y5640419D02*
X17333333Y5592800D01*
X17333333Y5592800D02*
X17238095Y5545180D01*
X17238095Y5545180D02*
X16952381Y5545180D01*
X16952381Y5545180D02*
X16857143Y5592800D01*
X16857143Y5592800D02*
X16809524Y5640419D01*
X17619048Y5449942D02*
X18380952Y5449942D01*
X19190476Y5545180D02*
X18857143Y6021371D01*
X18619048Y5545180D02*
X18619048Y6545180D01*
X18619048Y6545180D02*
X19000000Y6545180D01*
X19000000Y6545180D02*
X19095238Y6497561D01*
X19095238Y6497561D02*
X19142857Y6449942D01*
X19142857Y6449942D02*
X19190476Y6354704D01*
X19190476Y6354704D02*
X19190476Y6211847D01*
X19190476Y6211847D02*
X19142857Y6116609D01*
X19142857Y6116609D02*
X19095238Y6068990D01*
X19095238Y6068990D02*
X19000000Y6021371D01*
X19000000Y6021371D02*
X18619048Y6021371D01*
X19571429Y6449942D02*
X19619048Y6497561D01*
X19619048Y6497561D02*
X19714286Y6545180D01*
X19714286Y6545180D02*
X19952381Y6545180D01*
X19952381Y6545180D02*
X20047619Y6497561D01*
X20047619Y6497561D02*
X20095238Y6449942D01*
X20095238Y6449942D02*
X20142857Y6354704D01*
X20142857Y6354704D02*
X20142857Y6259466D01*
X20142857Y6259466D02*
X20095238Y6116609D01*
X20095238Y6116609D02*
X19523810Y5545180D01*
X19523810Y5545180D02*
X20142857Y5545180D01*
X-1523809Y-3359580D02*
X-1571428Y-3407200D01*
X-1571428Y-3407200D02*
X-1714285Y-3454819D01*
X-1714285Y-3454819D02*
X-1809523Y-3454819D01*
X-1809523Y-3454819D02*
X-1952380Y-3407200D01*
X-1952380Y-3407200D02*
X-2047618Y-3311961D01*
X-2047618Y-3311961D02*
X-2095237Y-3216723D01*
X-2095237Y-3216723D02*
X-2142856Y-3026247D01*
X-2142856Y-3026247D02*
X-2142856Y-2883390D01*
X-2142856Y-2883390D02*
X-2095237Y-2692914D01*
X-2095237Y-2692914D02*
X-2047618Y-2597676D01*
X-2047618Y-2597676D02*
X-1952380Y-2502438D01*
X-1952380Y-2502438D02*
X-1809523Y-2454819D01*
X-1809523Y-2454819D02*
X-1714285Y-2454819D01*
X-1714285Y-2454819D02*
X-1571428Y-2502438D01*
X-1571428Y-2502438D02*
X-1523809Y-2550057D01*
X-666666Y-2788152D02*
X-666666Y-3454819D01*
X-904761Y-2407200D02*
X-1142856Y-3121485D01*
X-1142856Y-3121485D02*
X-523809Y-3121485D01*
X-380952Y-3550057D02*
X380952Y-3550057D01*
X1190476Y-3454819D02*
X857143Y-2978628D01*
X619048Y-3454819D02*
X619048Y-2454819D01*
X619048Y-2454819D02*
X1000000Y-2454819D01*
X1000000Y-2454819D02*
X1095238Y-2502438D01*
X1095238Y-2502438D02*
X1142857Y-2550057D01*
X1142857Y-2550057D02*
X1190476Y-2645295D01*
X1190476Y-2645295D02*
X1190476Y-2788152D01*
X1190476Y-2788152D02*
X1142857Y-2883390D01*
X1142857Y-2883390D02*
X1095238Y-2931009D01*
X1095238Y-2931009D02*
X1000000Y-2978628D01*
X1000000Y-2978628D02*
X619048Y-2978628D01*
X1571429Y-2550057D02*
X1619048Y-2502438D01*
X1619048Y-2502438D02*
X1714286Y-2454819D01*
X1714286Y-2454819D02*
X1952381Y-2454819D01*
X1952381Y-2454819D02*
X2047619Y-2502438D01*
X2047619Y-2502438D02*
X2095238Y-2550057D01*
X2095238Y-2550057D02*
X2142857Y-2645295D01*
X2142857Y-2645295D02*
X2142857Y-2740533D01*
X2142857Y-2740533D02*
X2095238Y-2883390D01*
X2095238Y-2883390D02*
X1523810Y-3454819D01*
X1523810Y-3454819D02*
X2142857Y-3454819D01*
D11*
%TO.C,D1*%
X4300000Y30800000D02*
X2450000Y30800000D01*
X4300000Y32000000D02*
X2450000Y32000000D01*
X2450000Y32000000D02*
X2450000Y30800000D01*
%TO.C,D2*%
X4300000Y13800000D02*
X2450000Y13800000D01*
X4300000Y15000000D02*
X2450000Y15000000D01*
X2450000Y15000000D02*
X2450000Y13800000D01*
%TO.C,D3*%
X75300000Y37600000D02*
X77150000Y37600000D01*
X75300000Y36400000D02*
X77150000Y36400000D01*
X77150000Y36400000D02*
X77150000Y37600000D01*
D12*
%TO.C,SS1*%
X56050000Y16500000D02*
X46950000Y16500000D01*
X56050000Y20000000D02*
X56050000Y16500000D01*
X55543000Y16500000D02*
X55543000Y17234000D01*
X55543000Y17234000D02*
X56050000Y17234000D01*
X55500000Y19216000D02*
X56007000Y19216000D01*
X55500000Y19950000D02*
X55500000Y19216000D01*
X54040000Y17234000D02*
X48960000Y17234000D01*
X54040000Y19266000D02*
X54040000Y17234000D01*
X53659000Y17488000D02*
X51754000Y17488000D01*
X53659000Y19012000D02*
X53659000Y17488000D01*
X51754000Y17488000D02*
X51754000Y19012000D01*
X51754000Y19012000D02*
X53659000Y19012000D01*
X48960000Y17234000D02*
X48960000Y19266000D01*
X48960000Y19266000D02*
X54040000Y19266000D01*
X47500000Y16550000D02*
X47500000Y17284000D01*
X47500000Y17284000D02*
X46993000Y17284000D01*
X47500000Y19216000D02*
X46993000Y19216000D01*
X47500000Y19950000D02*
X47500000Y19216000D01*
X46950000Y16500000D02*
X46950000Y20000000D01*
X46950000Y20000000D02*
X56050000Y20000000D01*
D11*
%TO.C,D4*%
X76300000Y19800000D02*
X74450000Y19800000D01*
X76300000Y21000000D02*
X74450000Y21000000D01*
X74450000Y21000000D02*
X74450000Y19800000D01*
%TO.C,D5*%
X76300000Y2800000D02*
X74450000Y2800000D01*
X76300000Y4000000D02*
X74450000Y4000000D01*
X74450000Y4000000D02*
X74450000Y2800000D01*
%TO.C,D6*%
X76300000Y-14200000D02*
X74450000Y-14200000D01*
X76300000Y-13000000D02*
X74450000Y-13000000D01*
X74450000Y-13000000D02*
X74450000Y-14200000D01*
%TO.C,D7*%
X49700000Y43200000D02*
X51550000Y43200000D01*
X49700000Y42000000D02*
X51550000Y42000000D01*
X51550000Y42000000D02*
X51550000Y43200000D01*
%TO.C,D8*%
X49700000Y26200000D02*
X51550000Y26200000D01*
X49700000Y25000000D02*
X51550000Y25000000D01*
X51550000Y25000000D02*
X51550000Y26200000D01*
%TO.C,D9*%
X49700000Y9200000D02*
X51550000Y9200000D01*
X49700000Y8000000D02*
X51550000Y8000000D01*
X51550000Y8000000D02*
X51550000Y9200000D01*
%TO.C,D10*%
X31700000Y46200000D02*
X33550000Y46200000D01*
X31700000Y45000000D02*
X33550000Y45000000D01*
X33550000Y45000000D02*
X33550000Y46200000D01*
%TO.C,D11*%
X31700000Y29200000D02*
X33550000Y29200000D01*
X31700000Y28000000D02*
X33550000Y28000000D01*
X33550000Y28000000D02*
X33550000Y29200000D01*
%TO.C,D12*%
X31700000Y12200000D02*
X33550000Y12200000D01*
X31700000Y11000000D02*
X33550000Y11000000D01*
X33550000Y11000000D02*
X33550000Y12200000D01*
%TO.C,D13*%
X13700000Y40200000D02*
X15550000Y40200000D01*
X13700000Y39000000D02*
X15550000Y39000000D01*
X15550000Y39000000D02*
X15550000Y40200000D01*
%TO.C,D14*%
X13700000Y23200000D02*
X15550000Y23200000D01*
X13700000Y22000000D02*
X15550000Y22000000D01*
X15550000Y22000000D02*
X15550000Y23200000D01*
%TO.C,D15*%
X13700000Y6200000D02*
X15550000Y6200000D01*
X13700000Y5000000D02*
X15550000Y5000000D01*
X15550000Y5000000D02*
X15550000Y6200000D01*
%TO.C,D16*%
X4300000Y-3200000D02*
X2450000Y-3200000D01*
X4300000Y-2000000D02*
X2450000Y-2000000D01*
X2450000Y-2000000D02*
X2450000Y-3200000D01*
%TD*%
M02*
