M48
; DRILL file {KiCad 7.0.6-0} date 2023 August 01, Tuesday 13:26:08
; FORMAT={-:-/ absolute / inch / decimal}
; #@! TF.CreationDate,2023-08-01T13:26:08+08:00
; #@! TF.GenerationSoftware,Kicad,Pcbnew,7.0.6-0
; #@! TF.FileFunction,NonPlated,1,2,NPTH
FMAT,2
INCH
; #@! TA.AperFunction,NonPlated,NPTH,ComponentDrill
T1C0.0670
; #@! TA.AperFunction,NonPlated,NPTH,ComponentDrill
T2C0.0866
; #@! TA.AperFunction,NonPlated,NPTH,ComponentDrill
T3C0.1181
; #@! TA.AperFunction,NonPlated,NPTH,ComponentDrill
T4C0.1350
%
G90
G05
T1
X-0.2165Y1.3386
X-0.2165Y0.6693
X-0.2165Y0.0
X0.2165Y1.3386
X0.2165Y0.6693
X0.2165Y0.0
X0.4921Y1.4567
X0.4921Y0.7874
X0.4921Y0.1181
X0.9252Y1.4567
X0.9252Y0.7874
X0.9252Y0.1181
X1.2008Y1.6929
X1.2008Y1.0236
X1.2008Y0.3543
X1.6339Y1.6929
X1.6339Y1.0236
X1.6339Y0.3543
X1.9094Y1.5748
X1.9094Y0.9055
X1.9094Y0.2362
X2.3425Y1.5748
X2.3425Y0.9055
X2.3425Y0.2362
X2.6181Y0.9055
X2.6181Y0.2362
X2.6181Y-0.4331
X3.0512Y0.9055
X3.0512Y0.2362
X3.0512Y-0.4331
T2
X0.4528Y1.122
X1.7717Y1.3583
X1.7717Y0.0197
X2.4803Y1.2402
X2.4803Y-0.0984
T3
X-0.1969Y-0.1476
X0.0Y-0.2343
X0.7087Y1.6909
X0.7087Y1.0217
X0.7087Y0.3524
X0.9055Y1.6043
X0.9055Y0.935
X0.9055Y0.2657
X1.4173Y1.9272
X1.4173Y1.2579
X1.4173Y0.5886
X1.6142Y1.8406
X1.6142Y1.1713
X1.6142Y0.502
X2.126Y1.8091
X2.126Y1.1398
X2.126Y0.4705
X2.3228Y1.7224
X2.3228Y1.0531
X2.3228Y0.3839
X2.6378Y0.7579
X2.6378Y0.0886
X2.6378Y-0.5807
X2.8346Y0.6713
X2.8346Y0.002
X2.8346Y-0.6673
T4
X0.0Y1.3386
X0.0Y0.6693
X0.0Y0.0
X0.7087Y1.4567
X0.7087Y0.7874
X0.7087Y0.1181
X1.4173Y1.6929
X1.4173Y1.0236
X1.4173Y0.3543
X2.126Y1.5748
X2.126Y0.9055
X2.126Y0.2362
X2.8346Y1.5748
X2.8346Y0.9055
X2.8346Y0.2362
X2.8346Y-0.4331
T0
M30
