%TF.GenerationSoftware,KiCad,Pcbnew,(7.0.0-0)*%
%TF.CreationDate,2023-06-15T15:06:01+08:00*%
%TF.ProjectId,left,6c656674-2e6b-4696-9361-645f70636258,v1.0.0*%
%TF.SameCoordinates,Original*%
%TF.FileFunction,NonPlated,1,2,NPTH,Drill*%
%TF.FilePolarity,Positive*%
%FSLAX46Y46*%
G04 Gerber Fmt 4.6, Leading zero omitted, Abs format (unit mm)*
G04 Created by KiCad (PCBNEW (7.0.0-0)) date 2023-06-15 15:06:01*
%MOMM*%
%LPD*%
G01*
G04 APERTURE LIST*
%TA.AperFunction,ComponentDrill*%
%ADD10C,1.701800*%
%TD*%
%TA.AperFunction,ComponentDrill*%
%ADD11C,2.200000*%
%TD*%
%TA.AperFunction,ComponentDrill*%
%ADD12C,3.000000*%
%TD*%
%TA.AperFunction,ComponentDrill*%
%ADD13C,3.429000*%
%TD*%
G04 APERTURE END LIST*
D10*
%TO.C,S3*%
X-5500000Y34000000D03*
%TO.C,S4*%
X-5500000Y17000000D03*
%TO.C,S5*%
X-5500000Y0D03*
%TO.C,S3*%
X5500000Y34000000D03*
%TO.C,S4*%
X5500000Y17000000D03*
%TO.C,S5*%
X5500000Y0D03*
%TO.C,S6*%
X12500000Y51000000D03*
%TO.C,S7*%
X12500000Y34000000D03*
%TO.C,S8*%
X12500000Y17000000D03*
%TO.C,S6*%
X23500000Y51000000D03*
%TO.C,S7*%
X23500000Y34000000D03*
%TO.C,S8*%
X23500000Y17000000D03*
%TO.C,S9*%
X30500000Y54000000D03*
%TO.C,S10*%
X30500000Y37000000D03*
%TO.C,S11*%
X30500000Y20000000D03*
%TO.C,S9*%
X41500000Y54000000D03*
%TO.C,S10*%
X41500000Y37000000D03*
%TO.C,S11*%
X41500000Y20000000D03*
%TO.C,S12*%
X48500000Y48000000D03*
%TO.C,S13*%
X48500000Y31000000D03*
%TO.C,S14*%
X48500000Y14000000D03*
%TO.C,S12*%
X59500000Y48000000D03*
%TO.C,S13*%
X59500000Y31000000D03*
%TO.C,S14*%
X59500000Y14000000D03*
%TO.C,S1*%
X66500000Y45000000D03*
%TO.C,S2*%
X66500000Y28000000D03*
%TO.C,S15*%
X66500000Y11000000D03*
%TO.C,S1*%
X77500000Y45000000D03*
%TO.C,S2*%
X77500000Y28000000D03*
%TO.C,S15*%
X77500000Y11000000D03*
D11*
%TO.C,H4*%
X9000000Y42500000D03*
%TO.C,H5*%
X9000000Y8500000D03*
%TO.C,H2*%
X27000000Y45500000D03*
%TO.C,H3*%
X27000000Y11500000D03*
%TO.C,H1*%
X60500000Y39500000D03*
D12*
%TO.C,S3*%
X0Y39950000D03*
%TO.C,S4*%
X0Y22950000D03*
%TO.C,S5*%
X0Y5950000D03*
%TO.C,S3*%
X5000000Y37750000D03*
%TO.C,S4*%
X5000000Y20750000D03*
%TO.C,S5*%
X5000000Y3750000D03*
%TO.C,S6*%
X18000000Y56950000D03*
%TO.C,S7*%
X18000000Y39950000D03*
%TO.C,S8*%
X18000000Y22950000D03*
%TO.C,S6*%
X23000000Y54750000D03*
%TO.C,S7*%
X23000000Y37750000D03*
%TO.C,S8*%
X23000000Y20750000D03*
%TO.C,S9*%
X31000000Y50250000D03*
X36000000Y48050000D03*
%TO.C,S10*%
X36000000Y42950000D03*
%TO.C,S11*%
X36000000Y25950000D03*
%TO.C,S10*%
X41000000Y40750000D03*
%TO.C,S11*%
X41000000Y23750000D03*
%TO.C,S12*%
X49000000Y44250000D03*
%TO.C,S13*%
X49000000Y27250000D03*
%TO.C,S12*%
X54000000Y42050000D03*
%TO.C,S13*%
X54000000Y25050000D03*
%TO.C,S14*%
X54000000Y19950000D03*
X59000000Y17750000D03*
%TO.C,S15*%
X72000000Y16950000D03*
X77000000Y14750000D03*
D13*
%TO.C,ROT1*%
X0Y51000000D03*
%TO.C,S3*%
X0Y34000000D03*
%TO.C,S4*%
X0Y17000000D03*
%TO.C,S5*%
X0Y0D03*
%TO.C,S6*%
X18000000Y51000000D03*
%TO.C,S7*%
X18000000Y34000000D03*
%TO.C,S8*%
X18000000Y17000000D03*
%TO.C,S9*%
X36000000Y54000000D03*
%TO.C,S10*%
X36000000Y37000000D03*
%TO.C,S11*%
X36000000Y20000000D03*
%TO.C,S12*%
X54000000Y48000000D03*
%TO.C,S13*%
X54000000Y31000000D03*
%TO.C,S14*%
X54000000Y14000000D03*
%TO.C,S1*%
X72000000Y45000000D03*
%TO.C,S2*%
X72000000Y28000000D03*
%TO.C,S15*%
X72000000Y11000000D03*
M02*
