0
SECTION
2
HEADER
9
$INSUNITS
70
4
0
ENDSEC
0
SECTION
2
TABLES
0
TABLE
2
LTYPE
0
LTYPE
72
65
70
64
2
CONTINUOUS
3
______
73
0
40
0
0
ENDTAB
0
TABLE
2
LAYER
0
ENDTAB
0
ENDSEC
0
SECTION
2
ENTITIES
0
LINE
8
0
10
-7.26
20
-8.25
11
7.26
21
-8.25
0
LINE
8
0
10
8.75
20
-6.76
11
8.75
21
6.76
0
LINE
8
0
10
7.26
20
8.25
11
-7.26
21
8.25
0
LINE
8
0
10
-8.75
20
6.76
11
-8.75
21
-6.76
0
LINE
8
0
10
-7.26
20
8.75
11
7.26
21
8.75
0
LINE
8
0
10
8.75
20
10.24
11
8.75
21
23.76
0
LINE
8
0
10
7.26
20
25.25
11
-7.26
21
25.25
0
LINE
8
0
10
-8.75
20
23.76
11
-8.75
21
10.24
0
LINE
8
0
10
-7.26
20
25.75
11
7.26
21
25.75
0
LINE
8
0
10
8.75
20
27.24
11
8.75
21
40.76
0
LINE
8
0
10
7.26
20
42.25
11
-7.26
21
42.25
0
LINE
8
0
10
-8.75
20
40.76
11
-8.75
21
27.24
0
LINE
8
0
10
-7.26
20
42.75
11
7.26
21
42.75
0
LINE
8
0
10
8.75
20
44.24
11
8.75
21
57.76
0
LINE
8
0
10
7.26
20
59.25
11
-7.26
21
59.25
0
LINE
8
0
10
-8.75
20
57.76
11
-8.75
21
44.24
0
LINE
8
0
10
10.74
20
8.75
11
25.26
21
8.75
0
LINE
8
0
10
26.75
20
10.24
11
26.75
21
23.76
0
LINE
8
0
10
25.26
20
25.25
11
10.74
21
25.25
0
LINE
8
0
10
9.25
20
23.76
11
9.25
21
10.24
0
LINE
8
0
10
10.74
20
25.75
11
25.26
21
25.75
0
LINE
8
0
10
26.75
20
27.24
11
26.75
21
40.76
0
LINE
8
0
10
25.26
20
42.25
11
10.74
21
42.25
0
LINE
8
0
10
9.25
20
40.76
11
9.25
21
27.24
0
LINE
8
0
10
10.74
20
42.75
11
25.26
21
42.75
0
LINE
8
0
10
26.75
20
44.24
11
26.75
21
57.76
0
LINE
8
0
10
25.26
20
59.25
11
10.74
21
59.25
0
LINE
8
0
10
9.25
20
57.76
11
9.25
21
44.24
0
LINE
8
0
10
28.74
20
11.75
11
43.26
21
11.75
0
LINE
8
0
10
44.75
20
13.24
11
44.75
21
26.76
0
LINE
8
0
10
43.26
20
28.25
11
28.74
21
28.25
0
LINE
8
0
10
27.25
20
26.76
11
27.25
21
13.24
0
LINE
8
0
10
28.74
20
28.75
11
43.26
21
28.75
0
LINE
8
0
10
44.75
20
30.24
11
44.75
21
43.76
0
LINE
8
0
10
43.26
20
45.25
11
28.74
21
45.25
0
LINE
8
0
10
27.25
20
43.76
11
27.25
21
30.24
0
LINE
8
0
10
28.74
20
45.75
11
43.26
21
45.75
0
LINE
8
0
10
44.75
20
47.24
11
44.75
21
60.76
0
LINE
8
0
10
43.26
20
62.25
11
28.74
21
62.25
0
LINE
8
0
10
27.25
20
60.76
11
27.25
21
47.24
0
LINE
8
0
10
46.74
20
5.75
11
61.26
21
5.75
0
LINE
8
0
10
62.75
20
7.24
11
62.75
21
20.76
0
LINE
8
0
10
61.26
20
22.25
11
46.74
21
22.25
0
LINE
8
0
10
45.25
20
20.76
11
45.25
21
7.24
0
LINE
8
0
10
46.74
20
22.75
11
61.26
21
22.75
0
LINE
8
0
10
62.75
20
24.24
11
62.75
21
37.76
0
LINE
8
0
10
61.26
20
39.25
11
46.74
21
39.25
0
LINE
8
0
10
45.25
20
37.76
11
45.25
21
24.24
0
LINE
8
0
10
46.74
20
39.75
11
61.26
21
39.75
0
LINE
8
0
10
62.75
20
41.24
11
62.75
21
54.76
0
LINE
8
0
10
61.26
20
56.25
11
46.74
21
56.25
0
LINE
8
0
10
45.25
20
54.76
11
45.25
21
41.24
0
LINE
8
0
10
64.74
20
2.75
11
79.26
21
2.75
0
LINE
8
0
10
80.75
20
4.24
11
80.75
21
17.76
0
LINE
8
0
10
79.26
20
19.25
11
64.74
21
19.25
0
LINE
8
0
10
63.25
20
17.76
11
63.25
21
4.24
0
LINE
8
0
10
64.74
20
19.75
11
79.26
21
19.75
0
LINE
8
0
10
80.75
20
21.24
11
80.75
21
34.76
0
LINE
8
0
10
79.26
20
36.25
11
64.74
21
36.25
0
LINE
8
0
10
63.25
20
34.76
11
63.25
21
21.24
0
LINE
8
0
10
64.74
20
36.75
11
79.26
21
36.75
0
LINE
8
0
10
80.75
20
38.24
11
80.75
21
51.76
0
LINE
8
0
10
79.26
20
53.25
11
64.74
21
53.25
0
LINE
8
0
10
63.25
20
51.76
11
63.25
21
38.24
0
ARC
8
0
10
7.26
20
-6.76
40
1.49
50
270
51
0
0
ARC
8
0
10
7.26
20
6.76
40
1.49
50
0
51
90
0
ARC
8
0
10
-7.26
20
6.76
40
1.49
50
90
51
180
0
ARC
8
0
10
-7.26
20
-6.76
40
1.49
50
180
51
270
0
ARC
8
0
10
7.26
20
10.24
40
1.49
50
270
51
0
0
ARC
8
0
10
7.26
20
23.76
40
1.49
50
0
51
90
0
ARC
8
0
10
-7.26
20
23.76
40
1.49
50
90
51
180
0
ARC
8
0
10
-7.26
20
10.24
40
1.49
50
180
51
270
0
ARC
8
0
10
7.26
20
27.24
40
1.49
50
270
51
0
0
ARC
8
0
10
7.26
20
40.76
40
1.49
50
0
51
90
0
ARC
8
0
10
-7.26
20
40.76
40
1.49
50
90
51
180
0
ARC
8
0
10
-7.26
20
27.24
40
1.49
50
180
51
270
0
ARC
8
0
10
7.26
20
44.24
40
1.49
50
270
51
0
0
ARC
8
0
10
7.26
20
57.76
40
1.49
50
0
51
90
0
ARC
8
0
10
-7.26
20
57.76
40
1.49
50
90
51
180
0
ARC
8
0
10
-7.26
20
44.24
40
1.49
50
180
51
270
0
ARC
8
0
10
25.26
20
10.24
40
1.49
50
270
51
0
0
ARC
8
0
10
25.26
20
23.76
40
1.49
50
0
51
90
0
ARC
8
0
10
10.74
20
23.76
40
1.49
50
90
51
180
0
ARC
8
0
10
10.74
20
10.24
40
1.49
50
180
51
270
0
ARC
8
0
10
25.26
20
27.24
40
1.49
50
270
51
0
0
ARC
8
0
10
25.26
20
40.76
40
1.49
50
0
51
90
0
ARC
8
0
10
10.74
20
40.76
40
1.49
50
90
51
180
0
ARC
8
0
10
10.74
20
27.24
40
1.49
50
180
51
270
0
ARC
8
0
10
25.26
20
44.24
40
1.49
50
270
51
0
0
ARC
8
0
10
25.26
20
57.76
40
1.49
50
0
51
90
0
ARC
8
0
10
10.74
20
57.76
40
1.49
50
90
51
180
0
ARC
8
0
10
10.74
20
44.24
40
1.49
50
180
51
270
0
ARC
8
0
10
43.26
20
13.24
40
1.49
50
270
51
0
0
ARC
8
0
10
43.26
20
26.76
40
1.49
50
0
51
90
0
ARC
8
0
10
28.74
20
26.76
40
1.49
50
90
51
180
0
ARC
8
0
10
28.74
20
13.24
40
1.49
50
180
51
270
0
ARC
8
0
10
43.26
20
30.24
40
1.49
50
270
51
0
0
ARC
8
0
10
43.26
20
43.76
40
1.49
50
0
51
90
0
ARC
8
0
10
28.74
20
43.76
40
1.49
50
90
51
180
0
ARC
8
0
10
28.74
20
30.24
40
1.49
50
180
51
270
0
ARC
8
0
10
43.26
20
47.24
40
1.49
50
270
51
0
0
ARC
8
0
10
43.26
20
60.76
40
1.49
50
0
51
90
0
ARC
8
0
10
28.74
20
60.76
40
1.49
50
90
51
180
0
ARC
8
0
10
28.74
20
47.24
40
1.49
50
180
51
270
0
ARC
8
0
10
61.26
20
7.24
40
1.49
50
270
51
0
0
ARC
8
0
10
61.26
20
20.76
40
1.49
50
0
51
90
0
ARC
8
0
10
46.74
20
20.76
40
1.49
50
90
51
180
0
ARC
8
0
10
46.74
20
7.24
40
1.49
50
180
51
270
0
ARC
8
0
10
61.26
20
24.24
40
1.49
50
270
51
0
0
ARC
8
0
10
61.26
20
37.76
40
1.49
50
0
51
90
0
ARC
8
0
10
46.74
20
37.76
40
1.49
50
90
51
180
0
ARC
8
0
10
46.74
20
24.24
40
1.49
50
180
51
270
0
ARC
8
0
10
61.26
20
41.24
40
1.49
50
270
51
0
0
ARC
8
0
10
61.26
20
54.76
40
1.49
50
0
51
90
0
ARC
8
0
10
46.74
20
54.76
40
1.49
50
90
51
180
0
ARC
8
0
10
46.74
20
41.24
40
1.49
50
180
51
270
0
ARC
8
0
10
79.26
20
4.24
40
1.49
50
270
51
0
0
ARC
8
0
10
79.26
20
17.76
40
1.49
50
0
51
90
0
ARC
8
0
10
64.74
20
17.76
40
1.49
50
90
51
180
0
ARC
8
0
10
64.74
20
4.24
40
1.49
50
180
51
270
0
ARC
8
0
10
79.26
20
21.24
40
1.49
50
270
51
0
0
ARC
8
0
10
79.26
20
34.76
40
1.49
50
0
51
90
0
ARC
8
0
10
64.74
20
34.76
40
1.49
50
90
51
180
0
ARC
8
0
10
64.74
20
21.24
40
1.49
50
180
51
270
0
ARC
8
0
10
79.26
20
38.24
40
1.49
50
270
51
0
0
ARC
8
0
10
79.26
20
51.76
40
1.49
50
0
51
90
0
ARC
8
0
10
64.74
20
51.76
40
1.49
50
90
51
180
0
ARC
8
0
10
64.74
20
38.24
40
1.49
50
180
51
270
0
ENDSEC
0
EOF