%TF.GenerationSoftware,KiCad,Pcbnew,(7.0.0-0)*%
%TF.CreationDate,2023-06-15T15:06:03+08:00*%
%TF.ProjectId,left,6c656674-2e6b-4696-9361-645f70636258,v1.0.0*%
%TF.SameCoordinates,Original*%
%TF.FileFunction,Copper,L1,Top*%
%TF.FilePolarity,Positive*%
%FSLAX46Y46*%
G04 Gerber Fmt 4.6, Leading zero omitted, Abs format (unit mm)*
G04 Created by KiCad (PCBNEW (7.0.0-0)) date 2023-06-15 15:06:03*
%MOMM*%
%LPD*%
G01*
G04 APERTURE LIST*
%TA.AperFunction,ComponentPad*%
%ADD10C,2.032000*%
%TD*%
%TA.AperFunction,ComponentPad*%
%ADD11R,2.000000X2.000000*%
%TD*%
%TA.AperFunction,ComponentPad*%
%ADD12C,2.000000*%
%TD*%
%TA.AperFunction,ComponentPad*%
%ADD13C,1.500000*%
%TD*%
%TA.AperFunction,ComponentPad*%
%ADD14C,2.701800*%
%TD*%
%TA.AperFunction,ComponentPad*%
%ADD15R,1.752600X1.752600*%
%TD*%
%TA.AperFunction,ComponentPad*%
%ADD16C,1.752600*%
%TD*%
%TA.AperFunction,ComponentPad*%
%ADD17C,0.600000*%
%TD*%
%TA.AperFunction,ViaPad*%
%ADD18C,0.800000*%
%TD*%
%TA.AperFunction,Conductor*%
%ADD19C,0.250000*%
%TD*%
G04 APERTURE END LIST*
D10*
%TO.P,S1,1*%
%TO.N,C4_R0D*%
X67000000Y41200000D03*
%TO.P,S1,2*%
%TO.N,C4*%
X72000000Y39100000D03*
%TD*%
%TO.P,S2,1*%
%TO.N,C4_R1D*%
X67000000Y24200000D03*
%TO.P,S2,2*%
%TO.N,C4*%
X72000000Y22100000D03*
%TD*%
D11*
%TO.P,ROT1,A*%
%TO.N,P2*%
X-2539999Y43379999D03*
D12*
%TO.P,ROT1,C*%
%TO.N,GND*%
X-40000Y43380000D03*
%TO.P,ROT1,B*%
%TO.N,P3*%
X2460000Y43380000D03*
D13*
%TO.P,ROT1,1*%
%TO.N,C0*%
X-2540000Y57880000D03*
%TO.P,ROT1,2*%
%TO.N,C0_R3D*%
X2460000Y57880000D03*
D14*
%TO.P,ROT1,*%
%TO.N,*%
X5500000Y51000000D03*
X-5500000Y51000000D03*
D10*
%TO.P,ROT1,1*%
%TO.N,C0_R3D*%
X5000000Y54800000D03*
%TO.P,ROT1,2*%
%TO.N,C0*%
X0Y56900000D03*
%TD*%
D15*
%TO.P,MCU1,1*%
%TO.N,RAW*%
X64379999Y48469999D03*
D16*
%TO.P,MCU1,2*%
%TO.N,GND*%
X64380000Y45930000D03*
%TO.P,MCU1,3*%
%TO.N,RST*%
X64380000Y43390000D03*
%TO.P,MCU1,4*%
%TO.N,VCC*%
X64380000Y40850000D03*
%TO.P,MCU1,5*%
%TO.N,C0*%
X64380000Y38310000D03*
%TO.P,MCU1,6*%
%TO.N,C1*%
X64380000Y35770000D03*
%TO.P,MCU1,7*%
%TO.N,C2*%
X64380000Y33230000D03*
%TO.P,MCU1,8*%
%TO.N,C3*%
X64380000Y30690000D03*
%TO.P,MCU1,9*%
%TO.N,C4*%
X64380000Y28150000D03*
%TO.P,MCU1,10*%
%TO.N,C5*%
X64380000Y25610000D03*
%TO.P,MCU1,11*%
%TO.N,C6*%
X64380000Y23070000D03*
%TO.P,MCU1,12*%
%TO.N,P10*%
X64380000Y20530000D03*
%TO.P,MCU1,13*%
%TO.N,P1*%
X79620000Y48470000D03*
%TO.P,MCU1,14*%
%TO.N,P0*%
X79620000Y45930000D03*
%TO.P,MCU1,15*%
%TO.N,GND*%
X79620000Y43390000D03*
%TO.P,MCU1,16*%
X79620000Y40850000D03*
%TO.P,MCU1,17*%
%TO.N,P2*%
X79620000Y38310000D03*
%TO.P,MCU1,18*%
%TO.N,P3*%
X79620000Y35770000D03*
%TO.P,MCU1,19*%
%TO.N,R0*%
X79620000Y33230000D03*
%TO.P,MCU1,20*%
%TO.N,R1*%
X79620000Y30690000D03*
%TO.P,MCU1,21*%
%TO.N,R2*%
X79620000Y28150000D03*
%TO.P,MCU1,22*%
%TO.N,R3*%
X79620000Y25610000D03*
%TO.P,MCU1,23*%
%TO.N,P8*%
X79620000Y23070000D03*
%TO.P,MCU1,24*%
%TO.N,P9*%
X79620000Y20530000D03*
%TD*%
D17*
%TO.P,S3,3*%
%TO.N,C0_R0D*%
X-3275000Y39950000D03*
%TO.P,S3,4*%
%TO.N,C0*%
X8275000Y37750000D03*
%TD*%
%TO.P,S4,3*%
%TO.N,C0_R1D*%
X-3275000Y22950000D03*
%TO.P,S4,4*%
%TO.N,C0*%
X8275000Y20750000D03*
%TD*%
%TO.P,S5,3*%
%TO.N,C0_R2D*%
X-3275000Y5950000D03*
%TO.P,S5,4*%
%TO.N,C0*%
X8275000Y3750000D03*
%TD*%
%TO.P,S6,3*%
%TO.N,C1_R0D*%
X14725000Y56950000D03*
%TO.P,S6,4*%
%TO.N,C1*%
X26275000Y54750000D03*
%TD*%
%TO.P,S7,3*%
%TO.N,C1_R1D*%
X14725000Y39950000D03*
%TO.P,S7,4*%
%TO.N,C1*%
X26275000Y37750000D03*
%TD*%
%TO.P,S8,3*%
%TO.N,C1_R2D*%
X14725000Y22950000D03*
%TO.P,S8,4*%
%TO.N,C1*%
X26275000Y20750000D03*
%TD*%
%TO.P,S9,3*%
%TO.N,C2_R0D*%
X39275000Y48050000D03*
%TO.P,S9,4*%
%TO.N,C2*%
X27725000Y50250000D03*
%TD*%
%TO.P,S10,3*%
%TO.N,C2_R1D*%
X32725000Y42950000D03*
%TO.P,S10,4*%
%TO.N,C2*%
X44275000Y40750000D03*
%TD*%
%TO.P,S11,3*%
%TO.N,C2_R2D*%
X32725000Y25950000D03*
%TO.P,S11,4*%
%TO.N,C2*%
X44275000Y23750000D03*
%TD*%
%TO.P,S12,3*%
%TO.N,C3_R0D*%
X57275000Y42050000D03*
%TO.P,S12,4*%
%TO.N,C3*%
X45725000Y44250000D03*
%TD*%
%TO.P,S13,3*%
%TO.N,C3_R1D*%
X57275000Y25050000D03*
%TO.P,S13,4*%
%TO.N,C3*%
X45725000Y27250000D03*
%TD*%
%TO.P,S14,3*%
%TO.N,C3_R2D*%
X50725000Y19950000D03*
%TO.P,S14,4*%
%TO.N,C3*%
X62275000Y17750000D03*
%TD*%
%TO.P,S15,3*%
%TO.N,C4_R2D*%
X68725000Y16950000D03*
%TO.P,S15,4*%
%TO.N,C4*%
X80275000Y14750000D03*
%TD*%
D18*
%TO.N,C4*%
X70400000Y30000000D03*
X74000000Y12900000D03*
%TO.N,R0*%
X74900000Y33400000D03*
X74900000Y43600000D03*
X28200000Y31600000D03*
X-2900000Y37900000D03*
X-3500000Y53100000D03*
X29100000Y48100000D03*
X57000000Y47100000D03*
X56900000Y51800000D03*
%TO.N,R1*%
X74900000Y30600000D03*
X51200000Y29700000D03*
X51600000Y28000000D03*
X32800000Y30300000D03*
X34300000Y40100000D03*
X74800000Y26600000D03*
%TO.N,C0*%
X5357018Y44057018D03*
%TO.N,C0_R3D*%
X3300000Y49800000D03*
%TO.N,P2*%
X43500000Y49800000D03*
X78100000Y49751000D03*
X20000000Y45500000D03*
X42700000Y58124500D03*
X20900000Y58300000D03*
%TO.N,P3*%
X46000000Y50475500D03*
X81152424Y49870265D03*
X46000000Y57000000D03*
X8600000Y44900000D03*
X7687701Y58712299D03*
%TO.N,GND*%
X54900000Y45400000D03*
X60200000Y45400000D03*
X11300000Y26100000D03*
X9800000Y13700000D03*
X3200000Y27000000D03*
%TO.N,R3*%
X7500000Y48500000D03*
X82000000Y50400000D03*
X44600000Y57000000D03*
X7600000Y57600000D03*
X44800000Y51200000D03*
%TO.N,RAW*%
X19900000Y54600000D03*
X64300000Y52900000D03*
X20500000Y32300000D03*
%TO.N,BSLI*%
X20700000Y12700000D03*
X20700000Y22500000D03*
%TO.N,RST*%
X21413357Y31894063D03*
X24400000Y52950400D03*
X61900000Y52500000D03*
%TO.N,C2*%
X44275000Y33300000D03*
X30400000Y46000000D03*
%TO.N,C5*%
X62200000Y32800000D03*
%TO.N,C6*%
X40000000Y25700000D03*
X39900000Y32200000D03*
%TO.N,R2*%
X27300000Y18400000D03*
X78000000Y17100000D03*
X27400000Y29200000D03*
%TD*%
D19*
%TO.N,C4*%
X70400000Y30000000D02*
X69910500Y29510500D01*
X69910500Y29510500D02*
X69910500Y24189500D01*
X70400000Y30000000D02*
X72000000Y31600000D01*
X74000000Y12900000D02*
X74000000Y20100000D01*
X74000000Y20100000D02*
X72000000Y22100000D01*
X72000000Y31600000D02*
X72000000Y39100000D01*
X69910500Y24189500D02*
X72000000Y22100000D01*
%TO.N,R0*%
X-3900000Y50229919D02*
X-3900000Y38900000D01*
X-3900000Y38900000D02*
X-2900000Y37900000D01*
X29125000Y32525000D02*
X29125000Y48075000D01*
X74900000Y33400000D02*
X74900000Y43600000D01*
X-3500000Y53100000D02*
X-3500000Y50629919D01*
X28200000Y31600000D02*
X29125000Y32525000D01*
X57000000Y47100000D02*
X57000000Y51700000D01*
X29125000Y48075000D02*
X29100000Y48100000D01*
X57000000Y51700000D02*
X56900000Y51800000D01*
X-3500000Y50629919D02*
X-3900000Y50229919D01*
%TO.N,R1*%
X51600000Y29300000D02*
X51200000Y29700000D01*
X32800000Y38600000D02*
X34300000Y40100000D01*
X51600000Y28000000D02*
X51600000Y29300000D01*
X32800000Y30300000D02*
X32800000Y38600000D01*
X74900000Y26700000D02*
X74800000Y26600000D01*
X74900000Y30600000D02*
X74900000Y26700000D01*
%TO.N,C0*%
X2575000Y46839035D02*
X2575000Y54325000D01*
X8275000Y41139035D02*
X2575000Y46839035D01*
X8275000Y37750000D02*
X8275000Y41139035D01*
X8275000Y37750000D02*
X8275000Y20750000D01*
X7525000Y20000000D02*
X7525000Y4500000D01*
X7525000Y4500000D02*
X8275000Y3750000D01*
X8275000Y20750000D02*
X7525000Y20000000D01*
X2575000Y54325000D02*
X0Y56900000D01*
%TO.N,C0_R3D*%
X2460000Y57880000D02*
X5000000Y55340000D01*
X3300000Y53100000D02*
X5000000Y54800000D01*
X5000000Y55340000D02*
X5000000Y54800000D01*
X3300000Y49800000D02*
X3300000Y53100000D01*
%TO.N,P2*%
X78349000Y50000000D02*
X78100000Y49751000D01*
X20900000Y58300000D02*
X20900000Y56625305D01*
X19175000Y54900305D02*
X19175000Y52779999D01*
X19175000Y52779999D02*
X20089500Y51865499D01*
X20089500Y51865499D02*
X20089500Y45589500D01*
X79700000Y50000000D02*
X78349000Y50000000D01*
X20089500Y45589500D02*
X20000000Y45500000D01*
X43500000Y57324500D02*
X42700000Y58124500D01*
X79788895Y50000000D02*
X79700000Y50000000D01*
X43500000Y49800000D02*
X43500000Y57324500D01*
X20900000Y56625305D02*
X19175000Y54900305D01*
X79620000Y38310000D02*
X80852119Y39542119D01*
X80852119Y48936776D02*
X79788895Y50000000D01*
X80852119Y39542119D02*
X80852119Y48936776D01*
%TO.N,P3*%
X81500000Y49522689D02*
X81500000Y36300000D01*
X81152424Y49870265D02*
X81500000Y49522689D01*
X81500000Y36300000D02*
X80970000Y35770000D01*
X80970000Y35770000D02*
X79620000Y35770000D01*
X8600000Y44900000D02*
X8600000Y57800000D01*
X8600000Y57800000D02*
X7687701Y58712299D01*
X46000000Y57000000D02*
X46000000Y50475500D01*
%TO.N,GND*%
X73676816Y47089500D02*
X77376316Y43390000D01*
X3125000Y40215000D02*
X-40000Y43380000D01*
X3200000Y27000000D02*
X3200000Y31150500D01*
X65539500Y47089500D02*
X73676816Y47089500D01*
X9800000Y24600000D02*
X9800000Y13700000D01*
X11300000Y26100000D02*
X9800000Y24600000D01*
X3125000Y31225500D02*
X3125000Y40215000D01*
X54900000Y45400000D02*
X60200000Y45400000D01*
X3200000Y31150500D02*
X3125000Y31225500D01*
X79620000Y40850000D02*
X79620000Y43390000D01*
X64380000Y45930000D02*
X65539500Y47089500D01*
X77376316Y43390000D02*
X79620000Y43390000D01*
%TO.N,R3*%
X44600000Y57000000D02*
X44600000Y51400000D01*
X7500000Y57500000D02*
X7600000Y57600000D01*
X44600000Y51400000D02*
X44800000Y51200000D01*
X7500000Y48500000D02*
X7500000Y57500000D01*
X82000000Y27990000D02*
X79620000Y25610000D01*
X82000000Y50400000D02*
X82000000Y27990000D01*
%TO.N,RAW*%
X20800000Y38838046D02*
X20675000Y38713046D01*
X20675000Y38713046D02*
X20675000Y36786954D01*
X20800000Y32600000D02*
X20500000Y32300000D01*
X19900000Y54600000D02*
X20800000Y53700000D01*
X64380000Y52820000D02*
X64300000Y52900000D01*
X64380000Y48470000D02*
X64380000Y52820000D01*
X20800000Y36661954D02*
X20800000Y32600000D01*
X20675000Y36786954D02*
X20800000Y36661954D01*
X20800000Y53700000D02*
X20800000Y38838046D01*
%TO.N,BSLI*%
X20700000Y22500000D02*
X20700000Y12700000D01*
%TO.N,RST*%
X61900000Y45870000D02*
X64380000Y43390000D01*
X21500000Y51300000D02*
X21500000Y38901650D01*
X22425900Y52225900D02*
X21500000Y51300000D01*
X21500000Y38901650D02*
X21125000Y38526650D01*
X21413357Y36684993D02*
X21413357Y31894063D01*
X61900000Y52500000D02*
X61900000Y45870000D01*
X21125000Y36973350D02*
X21413357Y36684993D01*
X23675500Y52225900D02*
X22425900Y52225900D01*
X24400000Y52950400D02*
X23675500Y52225900D01*
X21125000Y38526650D02*
X21125000Y36973350D01*
%TO.N,C1*%
X25525000Y54000000D02*
X26275000Y54750000D01*
X25525000Y21500000D02*
X26275000Y20750000D01*
X25525000Y38500000D02*
X25525000Y54000000D01*
X26275000Y37750000D02*
X25525000Y38500000D01*
X25525000Y54000000D02*
X25525000Y21500000D01*
%TO.N,C2*%
X30400000Y47825305D02*
X30400000Y46000000D01*
X44275000Y40750000D02*
X44275000Y23750000D01*
X27725000Y50250000D02*
X27975305Y50250000D01*
X27975305Y50250000D02*
X30400000Y47825305D01*
X44275000Y33300000D02*
X44275000Y40750000D01*
%TO.N,C3*%
X62275000Y22801295D02*
X63882405Y24408700D01*
X63178700Y29488700D02*
X64380000Y30690000D01*
X45725000Y44250000D02*
X45725000Y27250000D01*
X64877595Y26811300D02*
X63988700Y26811300D01*
X65581300Y26107595D02*
X64877595Y26811300D01*
X63178700Y27621300D02*
X63178700Y29488700D01*
X64877595Y24408700D02*
X65581300Y25112405D01*
X65581300Y25112405D02*
X65581300Y26107595D01*
X63988700Y26811300D02*
X63178700Y27621300D01*
X63882405Y24408700D02*
X64877595Y24408700D01*
X62275000Y17750000D02*
X62275000Y22801295D01*
%TO.N,C5*%
X62200000Y32800000D02*
X62200000Y27790000D01*
X62200000Y27790000D02*
X64380000Y25610000D01*
%TO.N,C6*%
X40000000Y32100000D02*
X39900000Y32200000D01*
X40000000Y25700000D02*
X40000000Y32100000D01*
%TO.N,R2*%
X27300000Y18400000D02*
X27300000Y29100000D01*
X27300000Y29100000D02*
X27400000Y29200000D01*
X78000000Y17100000D02*
X78000000Y26530000D01*
X78000000Y26530000D02*
X79620000Y28150000D01*
%TD*%
M02*
