%TF.GenerationSoftware,KiCad,Pcbnew,(7.0.0-0)*%
%TF.CreationDate,2023-06-15T16:10:12+08:00*%
%TF.ProjectId,left,6c656674-2e6b-4696-9361-645f70636258,v1.0.0*%
%TF.SameCoordinates,Original*%
%TF.FileFunction,Profile,NP*%
%FSLAX46Y46*%
G04 Gerber Fmt 4.6, Leading zero omitted, Abs format (unit mm)*
G04 Created by KiCad (PCBNEW (7.0.0-0)) date 2023-06-15 16:10:12*
%MOMM*%
%LPD*%
G01*
G04 APERTURE LIST*
%TA.AperFunction,Profile*%
%ADD10C,0.150000*%
%TD*%
G04 APERTURE END LIST*
D10*
X-5510000Y-8500000D02*
X9510000Y-8500000D01*
X11000000Y-7010000D02*
X11000000Y7010000D01*
X-5510000Y59500000D02*
X23510000Y59500000D01*
X12490000Y8500000D02*
X27510000Y8500000D01*
X29000000Y9990000D02*
X29000000Y10010000D01*
X30490000Y11500000D02*
X41510000Y11500000D01*
X47000000Y57990000D02*
X47000000Y61010000D01*
X45510000Y62500000D02*
X26490000Y62500000D01*
X25000000Y61010000D02*
X25000000Y60990000D01*
X44490000Y5500000D02*
X59510000Y5500000D01*
X43000000Y10010000D02*
X43000000Y6990000D01*
X65000000Y54990000D02*
X65000000Y55010000D01*
X63510000Y56500000D02*
X48490000Y56500000D01*
X62490000Y2500000D02*
X81510000Y2500000D01*
X83000000Y3990000D02*
X83000000Y52010000D01*
X61000000Y4010000D02*
X61000000Y3990000D01*
X81510000Y53500000D02*
X66490000Y53500000D01*
X-7000000Y-7010000D02*
X-7000000Y58010000D01*
X9510000Y-8500000D02*
G75*
G03*
X11000000Y-7010000I0J1490000D01*
G01*
X12490000Y8500000D02*
G75*
G03*
X11000000Y7010000I0J-1490000D01*
G01*
X27510000Y8500000D02*
G75*
G03*
X29000000Y9990000I0J1490000D01*
G01*
X30490000Y11500000D02*
G75*
G03*
X29000000Y10010000I0J-1490000D01*
G01*
X43000000Y10010000D02*
G75*
G03*
X41510000Y11500000I-1490000J0D01*
G01*
X43000000Y6990000D02*
G75*
G03*
X44490000Y5500000I1490000J0D01*
G01*
X61000000Y4010000D02*
G75*
G03*
X59510000Y5500000I-1490000J0D01*
G01*
X61000000Y3990000D02*
G75*
G03*
X62490000Y2500000I1490000J0D01*
G01*
X81510000Y2500000D02*
G75*
G03*
X83000000Y3990000I0J1490000D01*
G01*
X83000000Y52010000D02*
G75*
G03*
X81510000Y53500000I-1490000J0D01*
G01*
X65000000Y54990000D02*
G75*
G03*
X66490000Y53500000I1490000J0D01*
G01*
X65000000Y55010000D02*
G75*
G03*
X63510000Y56500000I-1490000J0D01*
G01*
X47000000Y57990000D02*
G75*
G03*
X48490000Y56500000I1490000J0D01*
G01*
X47000000Y61010000D02*
G75*
G03*
X45510000Y62500000I-1490000J0D01*
G01*
X26490000Y62500000D02*
G75*
G03*
X25000000Y61010000I0J-1490000D01*
G01*
X23510000Y59500000D02*
G75*
G03*
X25000000Y60990000I0J1490000D01*
G01*
X-5510000Y59500000D02*
G75*
G03*
X-7000000Y58010000I0J-1490000D01*
G01*
X-7000000Y-7010000D02*
G75*
G03*
X-5510000Y-8500000I1490000J0D01*
G01*
M02*
