solid OpenSCAD_Model
  facet normal 0 0 -1
    outer loop
      vertex 36 1.5 0
      vertex 18 14.5 0
      vertex 36 49.5 0
    endloop
  endfacet
  facet normal 0 0 -1
    outer loop
      vertex 36 49.5 0
      vertex 19.0332 42.124 0
      vertex 19.0996 42.5 0
    endloop
  endfacet
  facet normal 0 0 -1
    outer loop
      vertex 18 14.5 0
      vertex 19.0332 8.87598 0
      vertex 18.8428 9.20703 0
    endloop
  endfacet
  facet normal 0 0 -1
    outer loop
      vertex 18 36.5 0
      vertex 36 49.5 0
      vertex 18 14.5 0
    endloop
  endfacet
  facet normal 0 0 -1
    outer loop
      vertex 18 14.5 0
      vertex 18.8428 9.20703 0
      vertex 18.5498 9.45215 0
    endloop
  endfacet
  facet normal 0 0 -1
    outer loop
      vertex 36 49.5 0
      vertex 18 36.5 0
      vertex 19.0332 42.124 0
    endloop
  endfacet
  facet normal 0 0 -1
    outer loop
      vertex 18 14.5 0
      vertex 18.5498 9.45215 0
      vertex 18.1914 9.58301 0
    endloop
  endfacet
  facet normal 0 0 -1
    outer loop
      vertex 19.0332 42.124 0
      vertex 18 36.5 0
      vertex 18.8428 41.793 0
    endloop
  endfacet
  facet normal 0 0 -1
    outer loop
      vertex 18.8428 41.793 0
      vertex 18 36.5 0
      vertex 18.5498 41.5479 0
    endloop
  endfacet
  facet normal 0 0 -1
    outer loop
      vertex 17.8086 9.58301 0
      vertex 18 14.5 0
      vertex 18.1914 9.58301 0
    endloop
  endfacet
  facet normal 0 0 -1
    outer loop
      vertex 17.4502 9.45215 0
      vertex 18 14.5 0
      vertex 17.8086 9.58301 0
    endloop
  endfacet
  facet normal 0 0 -1
    outer loop
      vertex 17.1572 9.20703 0
      vertex 18 14.5 0
      vertex 17.4502 9.45215 0
    endloop
  endfacet
  facet normal 0 0 -1
    outer loop
      vertex 3 14.5 0
      vertex 17.1572 9.20703 0
      vertex 16.9668 8.87598 0
    endloop
  endfacet
  facet normal 0 0 -1
    outer loop
      vertex 17.1572 9.20703 0
      vertex 3 14.5 0
      vertex 18 14.5 0
    endloop
  endfacet
  facet normal 0 0 -1
    outer loop
      vertex 3 14.5 0
      vertex 16.9668 8.87598 0
      vertex 16.9004 8.5 0
    endloop
  endfacet
  facet normal 0 0 -1
    outer loop
      vertex 34.5 0 0
      vertex 36 1.5 0
      vertex 35.9492 1.11133 0
    endloop
  endfacet
  facet normal 0 0 -1
    outer loop
      vertex 19.0332 8.87598 0
      vertex 36 1.5 0
      vertex 19.0996 8.5 0
    endloop
  endfacet
  facet normal 0 0 -1
    outer loop
      vertex 34.5 0 0
      vertex 35.9492 1.11133 0
      vertex 35.7988 0.75 0
    endloop
  endfacet
  facet normal 0 0 -1
    outer loop
      vertex 18 14.5 0
      vertex 36 1.5 0
      vertex 19.0332 8.87598 0
    endloop
  endfacet
  facet normal 0 0 -1
    outer loop
      vertex 34.5 0 0
      vertex 35.7988 0.75 0
      vertex 35.5605 0.439453 0
    endloop
  endfacet
  facet normal 0 -0 -1
    outer loop
      vertex 34.5 51 0
      vertex 36 49.5 0
      vertex 19.0996 42.5 0
    endloop
  endfacet
  facet normal 0 0 -1
    outer loop
      vertex 34.5 0 0
      vertex 35.5605 0.439453 0
      vertex 35.25 0.201172 0
    endloop
  endfacet
  facet normal 0 0 -1
    outer loop
      vertex 36 49.5 0
      vertex 34.5 51 0
      vertex 35.9492 49.8887 0
    endloop
  endfacet
  facet normal 0 0 -1
    outer loop
      vertex 34.5 0 0
      vertex 35.25 0.201172 0
      vertex 34.8887 0.0507812 0
    endloop
  endfacet
  facet normal 0 0 -1
    outer loop
      vertex 35.9492 49.8887 0
      vertex 34.5 51 0
      vertex 35.7988 50.25 0
    endloop
  endfacet
  facet normal -0 0 -1
    outer loop
      vertex 36 1.5 0
      vertex 34.5 0 0
      vertex 19.0996 8.5 0
    endloop
  endfacet
  facet normal 0 0 -1
    outer loop
      vertex 35.7988 50.25 0
      vertex 34.5 51 0
      vertex 35.5605 50.5605 0
    endloop
  endfacet
  facet normal 0 0 -1
    outer loop
      vertex 35.5605 50.5605 0
      vertex 34.5 51 0
      vertex 35.25 50.7988 0
    endloop
  endfacet
  facet normal 0 0 -1
    outer loop
      vertex 34.5 0 0
      vertex 19.0332 8.12402 0
      vertex 19.0996 8.5 0
    endloop
  endfacet
  facet normal 0 0 -1
    outer loop
      vertex 34.5 0 0
      vertex 18.8428 7.79297 0
      vertex 19.0332 8.12402 0
    endloop
  endfacet
  facet normal 0 0 -1
    outer loop
      vertex 34.5 0 0
      vertex 18.5498 7.54785 0
      vertex 18.8428 7.79297 0
    endloop
  endfacet
  facet normal 0 0 -1
    outer loop
      vertex 34.5 0 0
      vertex 18.1914 7.41699 0
      vertex 18.5498 7.54785 0
    endloop
  endfacet
  facet normal 0 0 -1
    outer loop
      vertex 34.5 0 0
      vertex 17.8086 7.41699 0
      vertex 18.1914 7.41699 0
    endloop
  endfacet
  facet normal 0 0 -1
    outer loop
      vertex 1.5 0 0
      vertex 17.8086 7.41699 0
      vertex 34.5 0 0
    endloop
  endfacet
  facet normal 0 0 -1
    outer loop
      vertex 16.9668 8.12402 0
      vertex 3 14.5 0
      vertex 16.9004 8.5 0
    endloop
  endfacet
  facet normal 0 0 -1
    outer loop
      vertex 1.5 0 0
      vertex 16.9668 8.12402 0
      vertex 17.1572 7.79297 0
    endloop
  endfacet
  facet normal 0 0 -1
    outer loop
      vertex 1.5 0 0
      vertex 17.1572 7.79297 0
      vertex 17.4502 7.54785 0
    endloop
  endfacet
  facet normal 0 0 -1
    outer loop
      vertex 0 1.5 0
      vertex 3 14.5 0
      vertex 1.5 0 0
    endloop
  endfacet
  facet normal -0 0 -1
    outer loop
      vertex 16.9668 8.12402 0
      vertex 1.5 0 0
      vertex 3 14.5 0
    endloop
  endfacet
  facet normal -0 0 -1
    outer loop
      vertex 17.8086 7.41699 0
      vertex 1.5 0 0
      vertex 17.4502 7.54785 0
    endloop
  endfacet
  facet normal 0 0 -1
    outer loop
      vertex 35.25 50.7988 0
      vertex 34.5 51 0
      vertex 34.8887 50.9492 0
    endloop
  endfacet
  facet normal 0 0 -1
    outer loop
      vertex 19.0332 42.876 0
      vertex 34.5 51 0
      vertex 19.0996 42.5 0
    endloop
  endfacet
  facet normal 0 0 -1
    outer loop
      vertex 18.8428 43.207 0
      vertex 34.5 51 0
      vertex 19.0332 42.876 0
    endloop
  endfacet
  facet normal 0 0 -1
    outer loop
      vertex 18.5498 43.4521 0
      vertex 34.5 51 0
      vertex 18.8428 43.207 0
    endloop
  endfacet
  facet normal 0 0 -1
    outer loop
      vertex 18.1914 43.583 0
      vertex 34.5 51 0
      vertex 18.5498 43.4521 0
    endloop
  endfacet
  facet normal 0 0 -1
    outer loop
      vertex 17.8086 43.583 0
      vertex 34.5 51 0
      vertex 18.1914 43.583 0
    endloop
  endfacet
  facet normal 0 0 -1
    outer loop
      vertex 1.5 51 0
      vertex 17.8086 43.583 0
      vertex 17.4502 43.4521 0
    endloop
  endfacet
  facet normal 0 0 -1
    outer loop
      vertex 3 36.5 0
      vertex 16.9668 42.876 0
      vertex 16.9004 42.5 0
    endloop
  endfacet
  facet normal 0 0 -1
    outer loop
      vertex 1.5 51 0
      vertex 16.9668 42.876 0
      vertex 3 36.5 0
    endloop
  endfacet
  facet normal 0 0 -1
    outer loop
      vertex 16.9668 42.876 0
      vertex 1.5 51 0
      vertex 17.1572 43.207 0
    endloop
  endfacet
  facet normal 0 0 -1
    outer loop
      vertex 17.8086 43.583 0
      vertex 1.5 51 0
      vertex 34.5 51 0
    endloop
  endfacet
  facet normal 0 0 -1
    outer loop
      vertex 17.1572 43.207 0
      vertex 1.5 51 0
      vertex 17.4502 43.4521 0
    endloop
  endfacet
  facet normal -0 0 -1
    outer loop
      vertex 3 14.5 0
      vertex 0 1.5 0
      vertex 3 36.5 0
    endloop
  endfacet
  facet normal 0 0 -1
    outer loop
      vertex 0 1.5 0
      vertex 1.5 0 0
      vertex 1.11133 0.0507812 0
    endloop
  endfacet
  facet normal 0 0 -1
    outer loop
      vertex 0 49.5 0
      vertex 3 36.5 0
      vertex 0 1.5 0
    endloop
  endfacet
  facet normal 0 0 -1
    outer loop
      vertex 0 1.5 0
      vertex 1.11133 0.0507812 0
      vertex 0.75 0.201172 0
    endloop
  endfacet
  facet normal 0 0 -1
    outer loop
      vertex 3 36.5 0
      vertex 0 49.5 0
      vertex 1.5 51 0
    endloop
  endfacet
  facet normal 0 0 -1
    outer loop
      vertex 0 1.5 0
      vertex 0.75 0.201172 0
      vertex 0.439453 0.439453 0
    endloop
  endfacet
  facet normal 0 0 -1
    outer loop
      vertex 1.5 51 0
      vertex 0 49.5 0
      vertex 1.11133 50.9492 0
    endloop
  endfacet
  facet normal 0 0 -1
    outer loop
      vertex 0 1.5 0
      vertex 0.439453 0.439453 0
      vertex 0.201172 0.75 0
    endloop
  endfacet
  facet normal 0 0 -1
    outer loop
      vertex 1.11133 50.9492 0
      vertex 0 49.5 0
      vertex 0.75 50.7988 0
    endloop
  endfacet
  facet normal 0 0 -1
    outer loop
      vertex 0 1.5 0
      vertex 0.201172 0.75 0
      vertex 0.0507812 1.11133 0
    endloop
  endfacet
  facet normal 0 0 -1
    outer loop
      vertex 0.75 50.7988 0
      vertex 0 49.5 0
      vertex 0.439453 50.5605 0
    endloop
  endfacet
  facet normal 0 0 -1
    outer loop
      vertex 0.439453 50.5605 0
      vertex 0 49.5 0
      vertex 0.201172 50.25 0
    endloop
  endfacet
  facet normal 0 0 -1
    outer loop
      vertex 0.201172 50.25 0
      vertex 0 49.5 0
      vertex 0.0507812 49.8887 0
    endloop
  endfacet
  facet normal 0 0 -1
    outer loop
      vertex 18.5498 41.5479 0
      vertex 18 36.5 0
      vertex 18.1914 41.417 0
    endloop
  endfacet
  facet normal 0 0 -1
    outer loop
      vertex 18 36.5 0
      vertex 17.8086 41.417 0
      vertex 18.1914 41.417 0
    endloop
  endfacet
  facet normal 0 0 -1
    outer loop
      vertex 18 36.5 0
      vertex 17.4502 41.5479 0
      vertex 17.8086 41.417 0
    endloop
  endfacet
  facet normal 0 0 -1
    outer loop
      vertex 18 36.5 0
      vertex 17.1572 41.793 0
      vertex 17.4502 41.5479 0
    endloop
  endfacet
  facet normal 0 0 -1
    outer loop
      vertex 3 36.5 0
      vertex 17.1572 41.793 0
      vertex 18 36.5 0
    endloop
  endfacet
  facet normal -0 0 -1
    outer loop
      vertex 16.9668 42.124 0
      vertex 3 36.5 0
      vertex 16.9004 42.5 0
    endloop
  endfacet
  facet normal -0 0 -1
    outer loop
      vertex 17.1572 41.793 0
      vertex 3 36.5 0
      vertex 16.9668 42.124 0
    endloop
  endfacet
  facet normal -1 0 0
    outer loop
      vertex 5 5 2.5
      vertex 5 10 20
      vertex 5 10 2.5
    endloop
  endfacet
  facet normal -1 -0 0
    outer loop
      vertex 5 10 20
      vertex 5 5 2.5
      vertex 5 5 20
    endloop
  endfacet
  facet normal 0 1 -0
    outer loop
      vertex 10 10 2.5
      vertex 5 10 20
      vertex 10 10 20
    endloop
  endfacet
  facet normal 0 1 0
    outer loop
      vertex 5 10 20
      vertex 10 10 2.5
      vertex 5 10 2.5
    endloop
  endfacet
  facet normal 1 -0 0
    outer loop
      vertex 10 5 20
      vertex 10 10 2.5
      vertex 10 10 20
    endloop
  endfacet
  facet normal 1 0 0
    outer loop
      vertex 10 10 2.5
      vertex 10 5 20
      vertex 10 5 2.5
    endloop
  endfacet
  facet normal 0 -1 0
    outer loop
      vertex 5 5 2.5
      vertex 10 5 20
      vertex 5 5 20
    endloop
  endfacet
  facet normal 0 -1 -0
    outer loop
      vertex 10 5 20
      vertex 5 5 2.5
      vertex 10 5 2.5
    endloop
  endfacet
  facet normal 0 -0.894427 0.447214
    outer loop
      vertex 7.5 7.5 25
      vertex 5 5 20
      vertex 10 5 20
    endloop
  endfacet
  facet normal -0.894427 0 0.447214
    outer loop
      vertex 5 10 20
      vertex 5 5 20
      vertex 7.5 7.5 25
    endloop
  endfacet
  facet normal 0 0.894427 0.447214
    outer loop
      vertex 10 10 20
      vertex 5 10 20
      vertex 7.5 7.5 25
    endloop
  endfacet
  facet normal 0.894427 0 0.447214
    outer loop
      vertex 10 10 20
      vertex 7.5 7.5 25
      vertex 10 5 20
    endloop
  endfacet
  facet normal -1 0 0
    outer loop
      vertex 26 5 2.5
      vertex 26 10 20
      vertex 26 10 2.5
    endloop
  endfacet
  facet normal -1 -0 0
    outer loop
      vertex 26 10 20
      vertex 26 5 2.5
      vertex 26 5 20
    endloop
  endfacet
  facet normal 0 1 -0
    outer loop
      vertex 31 10 2.5
      vertex 26 10 20
      vertex 31 10 20
    endloop
  endfacet
  facet normal 0 1 0
    outer loop
      vertex 26 10 20
      vertex 31 10 2.5
      vertex 26 10 2.5
    endloop
  endfacet
  facet normal 1 -0 0
    outer loop
      vertex 31 5 20
      vertex 31 10 2.5
      vertex 31 10 20
    endloop
  endfacet
  facet normal 1 0 0
    outer loop
      vertex 31 10 2.5
      vertex 31 5 20
      vertex 31 5 2.5
    endloop
  endfacet
  facet normal 0 -1 0
    outer loop
      vertex 26 5 2.5
      vertex 31 5 20
      vertex 26 5 20
    endloop
  endfacet
  facet normal 0 -1 -0
    outer loop
      vertex 31 5 20
      vertex 26 5 2.5
      vertex 31 5 2.5
    endloop
  endfacet
  facet normal 0 -0.894427 0.447214
    outer loop
      vertex 28.5 7.5 25
      vertex 26 5 20
      vertex 31 5 20
    endloop
  endfacet
  facet normal -0.894427 0 0.447214
    outer loop
      vertex 26 10 20
      vertex 26 5 20
      vertex 28.5 7.5 25
    endloop
  endfacet
  facet normal 0 0.894427 0.447214
    outer loop
      vertex 31 10 20
      vertex 26 10 20
      vertex 28.5 7.5 25
    endloop
  endfacet
  facet normal 0.894427 0 0.447214
    outer loop
      vertex 31 10 20
      vertex 28.5 7.5 25
      vertex 31 5 20
    endloop
  endfacet
  facet normal -1 0 0
    outer loop
      vertex 5 41 2.5
      vertex 5 46 20
      vertex 5 46 2.5
    endloop
  endfacet
  facet normal -1 -0 0
    outer loop
      vertex 5 46 20
      vertex 5 41 2.5
      vertex 5 41 20
    endloop
  endfacet
  facet normal 0 1 -0
    outer loop
      vertex 10 46 2.5
      vertex 5 46 20
      vertex 10 46 20
    endloop
  endfacet
  facet normal 0 1 0
    outer loop
      vertex 5 46 20
      vertex 10 46 2.5
      vertex 5 46 2.5
    endloop
  endfacet
  facet normal 1 -0 0
    outer loop
      vertex 10 41 20
      vertex 10 46 2.5
      vertex 10 46 20
    endloop
  endfacet
  facet normal 1 0 0
    outer loop
      vertex 10 46 2.5
      vertex 10 41 20
      vertex 10 41 2.5
    endloop
  endfacet
  facet normal 0 -1 0
    outer loop
      vertex 5 41 2.5
      vertex 10 41 20
      vertex 5 41 20
    endloop
  endfacet
  facet normal 0 -1 -0
    outer loop
      vertex 10 41 20
      vertex 5 41 2.5
      vertex 10 41 2.5
    endloop
  endfacet
  facet normal 0 -0.894427 0.447214
    outer loop
      vertex 7.5 43.5 25
      vertex 5 41 20
      vertex 10 41 20
    endloop
  endfacet
  facet normal -0.894427 0 0.447214
    outer loop
      vertex 5 46 20
      vertex 5 41 20
      vertex 7.5 43.5 25
    endloop
  endfacet
  facet normal 0 0.894427 0.447214
    outer loop
      vertex 10 46 20
      vertex 5 46 20
      vertex 7.5 43.5 25
    endloop
  endfacet
  facet normal 0.894427 0 0.447214
    outer loop
      vertex 10 46 20
      vertex 7.5 43.5 25
      vertex 10 41 20
    endloop
  endfacet
  facet normal -1 0 0
    outer loop
      vertex 26 41 2.5
      vertex 26 46 20
      vertex 26 46 2.5
    endloop
  endfacet
  facet normal -1 -0 0
    outer loop
      vertex 26 46 20
      vertex 26 41 2.5
      vertex 26 41 20
    endloop
  endfacet
  facet normal 0 1 -0
    outer loop
      vertex 31 46 2.5
      vertex 26 46 20
      vertex 31 46 20
    endloop
  endfacet
  facet normal 0 1 0
    outer loop
      vertex 26 46 20
      vertex 31 46 2.5
      vertex 26 46 2.5
    endloop
  endfacet
  facet normal 1 -0 0
    outer loop
      vertex 31 41 20
      vertex 31 46 2.5
      vertex 31 46 20
    endloop
  endfacet
  facet normal 1 0 0
    outer loop
      vertex 31 46 2.5
      vertex 31 41 20
      vertex 31 41 2.5
    endloop
  endfacet
  facet normal 0 -1 0
    outer loop
      vertex 26 41 2.5
      vertex 31 41 20
      vertex 26 41 20
    endloop
  endfacet
  facet normal 0 -1 -0
    outer loop
      vertex 31 41 20
      vertex 26 41 2.5
      vertex 31 41 2.5
    endloop
  endfacet
  facet normal 0 -0.894427 0.447214
    outer loop
      vertex 28.5 43.5 25
      vertex 26 41 20
      vertex 31 41 20
    endloop
  endfacet
  facet normal -0.894427 0 0.447214
    outer loop
      vertex 26 46 20
      vertex 26 41 20
      vertex 28.5 43.5 25
    endloop
  endfacet
  facet normal 0 0.894427 0.447214
    outer loop
      vertex 31 46 20
      vertex 26 46 20
      vertex 28.5 43.5 25
    endloop
  endfacet
  facet normal 0.894427 0 0.447214
    outer loop
      vertex 31 46 20
      vertex 28.5 43.5 25
      vertex 31 41 20
    endloop
  endfacet
  facet normal 0 0 1
    outer loop
      vertex 21.5 39 2.5
      vertex 18 36.5 2.5
      vertex 21.5 12 2.5
    endloop
  endfacet
  facet normal -0 0 1
    outer loop
      vertex 14.5 39 2.5
      vertex 18 36.5 2.5
      vertex 21.5 39 2.5
    endloop
  endfacet
  facet normal 0 0 1
    outer loop
      vertex 14.5 46 2.5
      vertex 10 41 2.5
      vertex 14.5 39 2.5
    endloop
  endfacet
  facet normal 0 0 1
    outer loop
      vertex 3 36.5 2.5
      vertex 14.5 39 2.5
      vertex 10 41 2.5
    endloop
  endfacet
  facet normal 0 0 1
    outer loop
      vertex 3 36.5 2.5
      vertex 10 41 2.5
      vertex 5 41 2.5
    endloop
  endfacet
  facet normal 0 0 1
    outer loop
      vertex 14.5 39 2.5
      vertex 3 36.5 2.5
      vertex 18 36.5 2.5
    endloop
  endfacet
  facet normal 0 0 1
    outer loop
      vertex 21.5 39 2.5
      vertex 31 41 2.5
      vertex 26 41 2.5
    endloop
  endfacet
  facet normal 0 0 1
    outer loop
      vertex 31 41 2.5
      vertex 21.5 39 2.5
      vertex 31 10 2.5
    endloop
  endfacet
  facet normal 0 0 1
    outer loop
      vertex 34.5 51 2.5
      vertex 36 49.5 2.5
      vertex 35.9492 49.8887 2.5
    endloop
  endfacet
  facet normal 0 0 1
    outer loop
      vertex 36 49.5 2.5
      vertex 31 41 2.5
      vertex 36 1.5 2.5
    endloop
  endfacet
  facet normal 0 0 1
    outer loop
      vertex 34.5 51 2.5
      vertex 35.9492 49.8887 2.5
      vertex 35.7988 50.25 2.5
    endloop
  endfacet
  facet normal -0 0 1
    outer loop
      vertex 31 10 2.5
      vertex 36 1.5 2.5
      vertex 31 41 2.5
    endloop
  endfacet
  facet normal 0 0 1
    outer loop
      vertex 34.5 51 2.5
      vertex 35.7988 50.25 2.5
      vertex 35.5605 50.5605 2.5
    endloop
  endfacet
  facet normal -0 0 1
    outer loop
      vertex 31 5 2.5
      vertex 36 1.5 2.5
      vertex 31 10 2.5
    endloop
  endfacet
  facet normal 0 0 1
    outer loop
      vertex 34.5 51 2.5
      vertex 35.5605 50.5605 2.5
      vertex 35.25 50.7988 2.5
    endloop
  endfacet
  facet normal 0 -0 1
    outer loop
      vertex 34.5 0 2.5
      vertex 36 1.5 2.5
      vertex 31 5 2.5
    endloop
  endfacet
  facet normal 0 0 1
    outer loop
      vertex 34.5 51 2.5
      vertex 35.25 50.7988 2.5
      vertex 34.8887 50.9492 2.5
    endloop
  endfacet
  facet normal 0 0 1
    outer loop
      vertex 36 1.5 2.5
      vertex 34.5 0 2.5
      vertex 35.9492 1.11133 2.5
    endloop
  endfacet
  facet normal 0 0 1
    outer loop
      vertex 36 49.5 2.5
      vertex 34.5 51 2.5
      vertex 31 46 2.5
    endloop
  endfacet
  facet normal 0 0 1
    outer loop
      vertex 35.9492 1.11133 2.5
      vertex 34.5 0 2.5
      vertex 35.7988 0.75 2.5
    endloop
  endfacet
  facet normal 0 0 1
    outer loop
      vertex 36 49.5 2.5
      vertex 31 46 2.5
      vertex 31 41 2.5
    endloop
  endfacet
  facet normal 0 0 1
    outer loop
      vertex 34.5 51 2.5
      vertex 26 46 2.5
      vertex 31 46 2.5
    endloop
  endfacet
  facet normal -0 0 1
    outer loop
      vertex 21.5 46 2.5
      vertex 26 41 2.5
      vertex 26 46 2.5
    endloop
  endfacet
  facet normal -0 0 1
    outer loop
      vertex 21.5 12 2.5
      vertex 31 10 2.5
      vertex 21.5 39 2.5
    endloop
  endfacet
  facet normal 0 0 1
    outer loop
      vertex 26 41 2.5
      vertex 21.5 46 2.5
      vertex 21.5 39 2.5
    endloop
  endfacet
  facet normal 0 0 1
    outer loop
      vertex 34.5 51 2.5
      vertex 21.5 46 2.5
      vertex 26 46 2.5
    endloop
  endfacet
  facet normal 0 0 1
    outer loop
      vertex 34.5 51 2.5
      vertex 14.5 46 2.5
      vertex 21.5 46 2.5
    endloop
  endfacet
  facet normal 0 0 1
    outer loop
      vertex 10 41 2.5
      vertex 14.5 46 2.5
      vertex 10 46 2.5
    endloop
  endfacet
  facet normal -0 0 1
    outer loop
      vertex 1.5 51 2.5
      vertex 14.5 46 2.5
      vertex 34.5 51 2.5
    endloop
  endfacet
  facet normal 0 0 1
    outer loop
      vertex 14.5 46 2.5
      vertex 1.5 51 2.5
      vertex 10 46 2.5
    endloop
  endfacet
  facet normal 0 0 1
    outer loop
      vertex 0 49.5 2.5
      vertex 5 41 2.5
      vertex 5 46 2.5
    endloop
  endfacet
  facet normal 0 0 1
    outer loop
      vertex 5 41 2.5
      vertex 0 49.5 2.5
      vertex 3 36.5 2.5
    endloop
  endfacet
  facet normal -0 0 1
    outer loop
      vertex 0 49.5 2.5
      vertex 5 46 2.5
      vertex 1.5 51 2.5
    endloop
  endfacet
  facet normal 0 0 1
    outer loop
      vertex 10 46 2.5
      vertex 1.5 51 2.5
      vertex 5 46 2.5
    endloop
  endfacet
  facet normal 0 0 1
    outer loop
      vertex 35.7988 0.75 2.5
      vertex 34.5 0 2.5
      vertex 35.5605 0.439453 2.5
    endloop
  endfacet
  facet normal 0 0 1
    outer loop
      vertex 35.5605 0.439453 2.5
      vertex 34.5 0 2.5
      vertex 35.25 0.201172 2.5
    endloop
  endfacet
  facet normal 0 0 1
    outer loop
      vertex 35.25 0.201172 2.5
      vertex 34.5 0 2.5
      vertex 34.8887 0.0507812 2.5
    endloop
  endfacet
  facet normal -0 0 1
    outer loop
      vertex 26 5 2.5
      vertex 34.5 0 2.5
      vertex 31 5 2.5
    endloop
  endfacet
  facet normal 0 0 1
    outer loop
      vertex 31 10 2.5
      vertex 21.5 12 2.5
      vertex 26 10 2.5
    endloop
  endfacet
  facet normal 0 0 1
    outer loop
      vertex 21.5 5 2.5
      vertex 26 10 2.5
      vertex 21.5 12 2.5
    endloop
  endfacet
  facet normal 0 0 1
    outer loop
      vertex 26 10 2.5
      vertex 21.5 5 2.5
      vertex 26 5 2.5
    endloop
  endfacet
  facet normal -0 0 1
    outer loop
      vertex 21.5 5 2.5
      vertex 34.5 0 2.5
      vertex 26 5 2.5
    endloop
  endfacet
  facet normal -0 0 1
    outer loop
      vertex 14.5 5 2.5
      vertex 34.5 0 2.5
      vertex 21.5 5 2.5
    endloop
  endfacet
  facet normal 0 0 1
    outer loop
      vertex 10 5 2.5
      vertex 14.5 5 2.5
      vertex 10 10 2.5
    endloop
  endfacet
  facet normal 0 0 1
    outer loop
      vertex 1.5 0 2.5
      vertex 14.5 5 2.5
      vertex 10 5 2.5
    endloop
  endfacet
  facet normal 0 0 1
    outer loop
      vertex 1.5 0 2.5
      vertex 10 5 2.5
      vertex 5 5 2.5
    endloop
  endfacet
  facet normal 0 0 1
    outer loop
      vertex 14.5 5 2.5
      vertex 1.5 0 2.5
      vertex 34.5 0 2.5
    endloop
  endfacet
  facet normal 0 0 1
    outer loop
      vertex 5 10 2.5
      vertex 1.5 0 2.5
      vertex 5 5 2.5
    endloop
  endfacet
  facet normal 0 0 1
    outer loop
      vertex 3 36.5 2.5
      vertex 0 49.5 2.5
      vertex 3 14.5 2.5
    endloop
  endfacet
  facet normal 0 0 1
    outer loop
      vertex 0 49.5 2.5
      vertex 1.5 51 2.5
      vertex 1.11133 50.9492 2.5
    endloop
  endfacet
  facet normal 0 0 1
    outer loop
      vertex 0 1.5 2.5
      vertex 3 14.5 2.5
      vertex 0 49.5 2.5
    endloop
  endfacet
  facet normal 0 0 1
    outer loop
      vertex 0 49.5 2.5
      vertex 1.11133 50.9492 2.5
      vertex 0.75 50.7988 2.5
    endloop
  endfacet
  facet normal 0 0 1
    outer loop
      vertex 5 10 2.5
      vertex 0 1.5 2.5
      vertex 1.5 0 2.5
    endloop
  endfacet
  facet normal 0 0 1
    outer loop
      vertex 0 49.5 2.5
      vertex 0.75 50.7988 2.5
      vertex 0.439453 50.5605 2.5
    endloop
  endfacet
  facet normal 0 0 1
    outer loop
      vertex 1.5 0 2.5
      vertex 0 1.5 2.5
      vertex 1.11133 0.0507812 2.5
    endloop
  endfacet
  facet normal 0 0 1
    outer loop
      vertex 0 49.5 2.5
      vertex 0.439453 50.5605 2.5
      vertex 0.201172 50.25 2.5
    endloop
  endfacet
  facet normal 0 0 1
    outer loop
      vertex 1.11133 0.0507812 2.5
      vertex 0 1.5 2.5
      vertex 0.75 0.201172 2.5
    endloop
  endfacet
  facet normal 0 0 1
    outer loop
      vertex 0 49.5 2.5
      vertex 0.201172 50.25 2.5
      vertex 0.0507812 49.8887 2.5
    endloop
  endfacet
  facet normal 0 0 1
    outer loop
      vertex 0.75 0.201172 2.5
      vertex 0 1.5 2.5
      vertex 0.439453 0.439453 2.5
    endloop
  endfacet
  facet normal 0 0 1
    outer loop
      vertex 0.439453 0.439453 2.5
      vertex 0 1.5 2.5
      vertex 0.201172 0.75 2.5
    endloop
  endfacet
  facet normal 0 0 1
    outer loop
      vertex 0.201172 0.75 2.5
      vertex 0 1.5 2.5
      vertex 0.0507812 1.11133 2.5
    endloop
  endfacet
  facet normal -0 0 1
    outer loop
      vertex 18 14.5 2.5
      vertex 21.5 12 2.5
      vertex 18 36.5 2.5
    endloop
  endfacet
  facet normal 0 0 1
    outer loop
      vertex 18 14.5 2.5
      vertex 14.5 12 2.5
      vertex 21.5 12 2.5
    endloop
  endfacet
  facet normal 0 0 1
    outer loop
      vertex 14.5 12 2.5
      vertex 10 10 2.5
      vertex 14.5 5 2.5
    endloop
  endfacet
  facet normal -0 0 1
    outer loop
      vertex 3 14.5 2.5
      vertex 14.5 12 2.5
      vertex 18 14.5 2.5
    endloop
  endfacet
  facet normal 0 0 1
    outer loop
      vertex 14.5 12 2.5
      vertex 3 14.5 2.5
      vertex 10 10 2.5
    endloop
  endfacet
  facet normal 0 0 1
    outer loop
      vertex 0 1.5 2.5
      vertex 5 10 2.5
      vertex 3 14.5 2.5
    endloop
  endfacet
  facet normal 0 0 1
    outer loop
      vertex 10 10 2.5
      vertex 3 14.5 2.5
      vertex 5 10 2.5
    endloop
  endfacet
  facet normal 0 0 1
    outer loop
      vertex 19.5498 44.0498 2.5
      vertex 19.0996 42.5 2.5
      vertex 19.5498 40.9502 2.5
    endloop
  endfacet
  facet normal 0 0 1
    outer loop
      vertex 19.5498 44.0498 2.5
      vertex 19.0332 42.876 2.5
      vertex 19.0996 42.5 2.5
    endloop
  endfacet
  facet normal 0 0 1
    outer loop
      vertex 19.5498 44.0498 2.5
      vertex 18.8428 43.207 2.5
      vertex 19.0332 42.876 2.5
    endloop
  endfacet
  facet normal 0 0 1
    outer loop
      vertex 19.5498 44.0498 2.5
      vertex 18.5498 43.4521 2.5
      vertex 18.8428 43.207 2.5
    endloop
  endfacet
  facet normal 0 0 1
    outer loop
      vertex 19.5498 44.0498 2.5
      vertex 18.1914 43.583 2.5
      vertex 18.5498 43.4521 2.5
    endloop
  endfacet
  facet normal 0 0 1
    outer loop
      vertex 19.5498 44.0498 2.5
      vertex 17.8086 43.583 2.5
      vertex 18.1914 43.583 2.5
    endloop
  endfacet
  facet normal 0 0 1
    outer loop
      vertex 16.9668 42.876 2.5
      vertex 16.4502 44.0498 2.5
      vertex 16.9004 42.5 2.5
    endloop
  endfacet
  facet normal 0 0 1
    outer loop
      vertex 17.1572 43.207 2.5
      vertex 16.4502 44.0498 2.5
      vertex 16.9668 42.876 2.5
    endloop
  endfacet
  facet normal 0 0 1
    outer loop
      vertex 17.4502 43.4521 2.5
      vertex 16.4502 44.0498 2.5
      vertex 17.1572 43.207 2.5
    endloop
  endfacet
  facet normal 0 0 1
    outer loop
      vertex 17.8086 43.583 2.5
      vertex 16.4502 44.0498 2.5
      vertex 17.4502 43.4521 2.5
    endloop
  endfacet
  facet normal -0 0 1
    outer loop
      vertex 16.4502 44.0498 2.5
      vertex 17.8086 43.583 2.5
      vertex 19.5498 44.0498 2.5
    endloop
  endfacet
  facet normal -0 0 1
    outer loop
      vertex 19.0332 42.124 2.5
      vertex 19.5498 40.9502 2.5
      vertex 19.0996 42.5 2.5
    endloop
  endfacet
  facet normal -0 0 1
    outer loop
      vertex 18.8428 41.793 2.5
      vertex 19.5498 40.9502 2.5
      vertex 19.0332 42.124 2.5
    endloop
  endfacet
  facet normal -0 0 1
    outer loop
      vertex 18.5498 41.5479 2.5
      vertex 19.5498 40.9502 2.5
      vertex 18.8428 41.793 2.5
    endloop
  endfacet
  facet normal -0 0 1
    outer loop
      vertex 18.1914 41.417 2.5
      vertex 19.5498 40.9502 2.5
      vertex 18.5498 41.5479 2.5
    endloop
  endfacet
  facet normal -0 0 1
    outer loop
      vertex 17.8086 41.417 2.5
      vertex 19.5498 40.9502 2.5
      vertex 18.1914 41.417 2.5
    endloop
  endfacet
  facet normal 0 0 1
    outer loop
      vertex 16.4502 40.9502 2.5
      vertex 16.9004 42.5 2.5
      vertex 16.4502 44.0498 2.5
    endloop
  endfacet
  facet normal 0 0 1
    outer loop
      vertex 17.8086 41.417 2.5
      vertex 16.4502 40.9502 2.5
      vertex 19.5498 40.9502 2.5
    endloop
  endfacet
  facet normal 0 0 1
    outer loop
      vertex 17.4502 41.5479 2.5
      vertex 16.4502 40.9502 2.5
      vertex 17.8086 41.417 2.5
    endloop
  endfacet
  facet normal 0 0 1
    outer loop
      vertex 17.1572 41.793 2.5
      vertex 16.4502 40.9502 2.5
      vertex 17.4502 41.5479 2.5
    endloop
  endfacet
  facet normal 0 0 1
    outer loop
      vertex 16.9668 42.124 2.5
      vertex 16.4502 40.9502 2.5
      vertex 17.1572 41.793 2.5
    endloop
  endfacet
  facet normal 0 0 1
    outer loop
      vertex 16.9004 42.5 2.5
      vertex 16.4502 40.9502 2.5
      vertex 16.9668 42.124 2.5
    endloop
  endfacet
  facet normal 0 0 1
    outer loop
      vertex 19.5498 10.0498 2.5
      vertex 19.0996 8.5 2.5
      vertex 19.5498 6.9502 2.5
    endloop
  endfacet
  facet normal 0 0 1
    outer loop
      vertex 19.5498 10.0498 2.5
      vertex 19.0332 8.87598 2.5
      vertex 19.0996 8.5 2.5
    endloop
  endfacet
  facet normal 0 0 1
    outer loop
      vertex 19.5498 10.0498 2.5
      vertex 18.8428 9.20703 2.5
      vertex 19.0332 8.87598 2.5
    endloop
  endfacet
  facet normal 0 0 1
    outer loop
      vertex 19.5498 10.0498 2.5
      vertex 18.5498 9.45215 2.5
      vertex 18.8428 9.20703 2.5
    endloop
  endfacet
  facet normal 0 0 1
    outer loop
      vertex 19.5498 10.0498 2.5
      vertex 18.1914 9.58301 2.5
      vertex 18.5498 9.45215 2.5
    endloop
  endfacet
  facet normal 0 0 1
    outer loop
      vertex 19.5498 10.0498 2.5
      vertex 17.8086 9.58301 2.5
      vertex 18.1914 9.58301 2.5
    endloop
  endfacet
  facet normal 0 0 1
    outer loop
      vertex 16.9668 8.87598 2.5
      vertex 16.4502 10.0498 2.5
      vertex 16.9004 8.5 2.5
    endloop
  endfacet
  facet normal 0 0 1
    outer loop
      vertex 17.1572 9.20703 2.5
      vertex 16.4502 10.0498 2.5
      vertex 16.9668 8.87598 2.5
    endloop
  endfacet
  facet normal 0 0 1
    outer loop
      vertex 17.4502 9.45215 2.5
      vertex 16.4502 10.0498 2.5
      vertex 17.1572 9.20703 2.5
    endloop
  endfacet
  facet normal 0 0 1
    outer loop
      vertex 17.8086 9.58301 2.5
      vertex 16.4502 10.0498 2.5
      vertex 17.4502 9.45215 2.5
    endloop
  endfacet
  facet normal -0 0 1
    outer loop
      vertex 16.4502 10.0498 2.5
      vertex 17.8086 9.58301 2.5
      vertex 19.5498 10.0498 2.5
    endloop
  endfacet
  facet normal -0 0 1
    outer loop
      vertex 19.0332 8.12402 2.5
      vertex 19.5498 6.9502 2.5
      vertex 19.0996 8.5 2.5
    endloop
  endfacet
  facet normal -0 0 1
    outer loop
      vertex 18.8428 7.79297 2.5
      vertex 19.5498 6.9502 2.5
      vertex 19.0332 8.12402 2.5
    endloop
  endfacet
  facet normal -0 0 1
    outer loop
      vertex 18.5498 7.54785 2.5
      vertex 19.5498 6.9502 2.5
      vertex 18.8428 7.79297 2.5
    endloop
  endfacet
  facet normal -0 0 1
    outer loop
      vertex 18.1914 7.41699 2.5
      vertex 19.5498 6.9502 2.5
      vertex 18.5498 7.54785 2.5
    endloop
  endfacet
  facet normal -0 0 1
    outer loop
      vertex 17.8086 7.41699 2.5
      vertex 19.5498 6.9502 2.5
      vertex 18.1914 7.41699 2.5
    endloop
  endfacet
  facet normal 0 0 1
    outer loop
      vertex 16.4502 6.9502 2.5
      vertex 16.9004 8.5 2.5
      vertex 16.4502 10.0498 2.5
    endloop
  endfacet
  facet normal 0 0 1
    outer loop
      vertex 17.8086 7.41699 2.5
      vertex 16.4502 6.9502 2.5
      vertex 19.5498 6.9502 2.5
    endloop
  endfacet
  facet normal 0 0 1
    outer loop
      vertex 17.4502 7.54785 2.5
      vertex 16.4502 6.9502 2.5
      vertex 17.8086 7.41699 2.5
    endloop
  endfacet
  facet normal 0 0 1
    outer loop
      vertex 17.1572 7.79297 2.5
      vertex 16.4502 6.9502 2.5
      vertex 17.4502 7.54785 2.5
    endloop
  endfacet
  facet normal 0 0 1
    outer loop
      vertex 16.9668 8.12402 2.5
      vertex 16.4502 6.9502 2.5
      vertex 17.1572 7.79297 2.5
    endloop
  endfacet
  facet normal 0 0 1
    outer loop
      vertex 16.9004 8.5 2.5
      vertex 16.4502 6.9502 2.5
      vertex 16.9668 8.12402 2.5
    endloop
  endfacet
  facet normal 0.384287 -0.923214 0
    outer loop
      vertex 34.8887 0.0507812 0
      vertex 35.25 0.201172 2.5
      vertex 34.8887 0.0507812 2.5
    endloop
  endfacet
  facet normal 0.384287 -0.923214 0
    outer loop
      vertex 35.25 0.201172 2.5
      vertex 34.8887 0.0507812 0
      vertex 35.25 0.201172 0
    endloop
  endfacet
  facet normal 0.608803 -0.793321 0
    outer loop
      vertex 35.25 0.201172 0
      vertex 35.5605 0.439453 2.5
      vertex 35.25 0.201172 2.5
    endloop
  endfacet
  facet normal 0.608803 -0.793321 0
    outer loop
      vertex 35.5605 0.439453 2.5
      vertex 35.25 0.201172 0
      vertex 35.5605 0.439453 0
    endloop
  endfacet
  facet normal 0.793342 -0.608776 0
    outer loop
      vertex 35.5605 0.439453 2.5
      vertex 35.7988 0.75 0
      vertex 35.7988 0.75 2.5
    endloop
  endfacet
  facet normal 0.793342 -0.608776 0
    outer loop
      vertex 35.7988 0.75 0
      vertex 35.5605 0.439453 2.5
      vertex 35.5605 0.439453 0
    endloop
  endfacet
  facet normal 0.923217 -0.38428 0
    outer loop
      vertex 35.7988 0.75 2.5
      vertex 35.9492 1.11133 0
      vertex 35.9492 1.11133 2.5
    endloop
  endfacet
  facet normal 0.923217 -0.38428 0
    outer loop
      vertex 35.9492 1.11133 0
      vertex 35.7988 0.75 2.5
      vertex 35.7988 0.75 0
    endloop
  endfacet
  facet normal 0.991566 -0.1296 0
    outer loop
      vertex 35.9492 1.11133 2.5
      vertex 36 1.5 0
      vertex 36 1.5 2.5
    endloop
  endfacet
  facet normal 0.991566 -0.1296 0
    outer loop
      vertex 36 1.5 0
      vertex 35.9492 1.11133 2.5
      vertex 35.9492 1.11133 0
    endloop
  endfacet
  facet normal 1 -0 0
    outer loop
      vertex 36 1.5 2.5
      vertex 36 49.5 0
      vertex 36 49.5 2.5
    endloop
  endfacet
  facet normal 1 0 0
    outer loop
      vertex 36 49.5 0
      vertex 36 1.5 2.5
      vertex 36 1.5 0
    endloop
  endfacet
  facet normal 0.991568 0.12959 0
    outer loop
      vertex 36 49.5 2.5
      vertex 35.9492 49.8887 0
      vertex 35.9492 49.8887 2.5
    endloop
  endfacet
  facet normal 0.991568 0.12959 0
    outer loop
      vertex 35.9492 49.8887 0
      vertex 36 49.5 2.5
      vertex 36 49.5 0
    endloop
  endfacet
  facet normal 0.923205 0.384307 0
    outer loop
      vertex 35.9492 49.8887 2.5
      vertex 35.7988 50.25 0
      vertex 35.7988 50.25 2.5
    endloop
  endfacet
  facet normal 0.923205 0.384307 0
    outer loop
      vertex 35.7988 50.25 0
      vertex 35.9492 49.8887 2.5
      vertex 35.9492 49.8887 0
    endloop
  endfacet
  facet normal 0.793298 0.608834 0
    outer loop
      vertex 35.7988 50.25 2.5
      vertex 35.5605 50.5605 0
      vertex 35.5605 50.5605 2.5
    endloop
  endfacet
  facet normal 0.793298 0.608834 0
    outer loop
      vertex 35.5605 50.5605 0
      vertex 35.7988 50.25 2.5
      vertex 35.7988 50.25 0
    endloop
  endfacet
  facet normal 0.608834 0.793298 -0
    outer loop
      vertex 35.5605 50.5605 0
      vertex 35.25 50.7988 2.5
      vertex 35.5605 50.5605 2.5
    endloop
  endfacet
  facet normal 0.608834 0.793298 0
    outer loop
      vertex 35.25 50.7988 2.5
      vertex 35.5605 50.5605 0
      vertex 35.25 50.7988 0
    endloop
  endfacet
  facet normal 0.384307 0.923205 -0
    outer loop
      vertex 35.25 50.7988 0
      vertex 34.8887 50.9492 2.5
      vertex 35.25 50.7988 2.5
    endloop
  endfacet
  facet normal 0.384307 0.923205 0
    outer loop
      vertex 34.8887 50.9492 2.5
      vertex 35.25 50.7988 0
      vertex 34.8887 50.9492 0
    endloop
  endfacet
  facet normal 0.12959 0.991568 -0
    outer loop
      vertex 34.8887 50.9492 0
      vertex 34.5 51 2.5
      vertex 34.8887 50.9492 2.5
    endloop
  endfacet
  facet normal 0.12959 0.991568 0
    outer loop
      vertex 34.5 51 2.5
      vertex 34.8887 50.9492 0
      vertex 34.5 51 0
    endloop
  endfacet
  facet normal 0 1 -0
    outer loop
      vertex 34.5 51 0
      vertex 1.5 51 2.5
      vertex 34.5 51 2.5
    endloop
  endfacet
  facet normal 0 1 0
    outer loop
      vertex 1.5 51 2.5
      vertex 34.5 51 0
      vertex 1.5 51 0
    endloop
  endfacet
  facet normal -0.1296 0.991566 0
    outer loop
      vertex 1.5 51 0
      vertex 1.11133 50.9492 2.5
      vertex 1.5 51 2.5
    endloop
  endfacet
  facet normal -0.1296 0.991566 0
    outer loop
      vertex 1.11133 50.9492 2.5
      vertex 1.5 51 0
      vertex 1.11133 50.9492 0
    endloop
  endfacet
  facet normal -0.38428 0.923217 0
    outer loop
      vertex 1.11133 50.9492 0
      vertex 0.75 50.7988 2.5
      vertex 1.11133 50.9492 2.5
    endloop
  endfacet
  facet normal -0.38428 0.923217 0
    outer loop
      vertex 0.75 50.7988 2.5
      vertex 1.11133 50.9492 0
      vertex 0.75 50.7988 0
    endloop
  endfacet
  facet normal -0.608776 0.793342 0
    outer loop
      vertex 0.75 50.7988 0
      vertex 0.439453 50.5605 2.5
      vertex 0.75 50.7988 2.5
    endloop
  endfacet
  facet normal -0.608776 0.793342 0
    outer loop
      vertex 0.439453 50.5605 2.5
      vertex 0.75 50.7988 0
      vertex 0.439453 50.5605 0
    endloop
  endfacet
  facet normal -0.793321 0.608803 0
    outer loop
      vertex 0.201172 50.25 0
      vertex 0.439453 50.5605 2.5
      vertex 0.439453 50.5605 0
    endloop
  endfacet
  facet normal -0.793321 0.608803 0
    outer loop
      vertex 0.439453 50.5605 2.5
      vertex 0.201172 50.25 0
      vertex 0.201172 50.25 2.5
    endloop
  endfacet
  facet normal -0.923214 0.384287 0
    outer loop
      vertex 0.0507812 49.8887 0
      vertex 0.201172 50.25 2.5
      vertex 0.201172 50.25 0
    endloop
  endfacet
  facet normal -0.923214 0.384287 0
    outer loop
      vertex 0.201172 50.25 2.5
      vertex 0.0507812 49.8887 0
      vertex 0.0507812 49.8887 2.5
    endloop
  endfacet
  facet normal -0.991574 0.129543 0
    outer loop
      vertex 0 49.5 0
      vertex 0.0507812 49.8887 2.5
      vertex 0.0507812 49.8887 0
    endloop
  endfacet
  facet normal -0.991574 0.129543 0
    outer loop
      vertex 0.0507812 49.8887 2.5
      vertex 0 49.5 0
      vertex 0 49.5 2.5
    endloop
  endfacet
  facet normal -1 0 0
    outer loop
      vertex 0 1.5 0
      vertex 0 49.5 2.5
      vertex 0 49.5 0
    endloop
  endfacet
  facet normal -1 -0 0
    outer loop
      vertex 0 49.5 2.5
      vertex 0 1.5 0
      vertex 0 1.5 2.5
    endloop
  endfacet
  facet normal -0.991573 -0.129553 0
    outer loop
      vertex 0.0507812 1.11133 0
      vertex 0 1.5 2.5
      vertex 0 1.5 0
    endloop
  endfacet
  facet normal -0.991573 -0.129553 0
    outer loop
      vertex 0 1.5 2.5
      vertex 0.0507812 1.11133 0
      vertex 0.0507812 1.11133 2.5
    endloop
  endfacet
  facet normal -0.923225 -0.38426 0
    outer loop
      vertex 0.201172 0.75 0
      vertex 0.0507812 1.11133 2.5
      vertex 0.0507812 1.11133 0
    endloop
  endfacet
  facet normal -0.923225 -0.38426 0
    outer loop
      vertex 0.0507812 1.11133 2.5
      vertex 0.201172 0.75 0
      vertex 0.201172 0.75 2.5
    endloop
  endfacet
  facet normal -0.793366 -0.608745 0
    outer loop
      vertex 0.439453 0.439453 0
      vertex 0.201172 0.75 2.5
      vertex 0.201172 0.75 0
    endloop
  endfacet
  facet normal -0.793366 -0.608745 0
    outer loop
      vertex 0.201172 0.75 2.5
      vertex 0.439453 0.439453 0
      vertex 0.439453 0.439453 2.5
    endloop
  endfacet
  facet normal -0.608745 -0.793366 0
    outer loop
      vertex 0.439453 0.439453 0
      vertex 0.75 0.201172 2.5
      vertex 0.439453 0.439453 2.5
    endloop
  endfacet
  facet normal -0.608745 -0.793366 -0
    outer loop
      vertex 0.75 0.201172 2.5
      vertex 0.439453 0.439453 0
      vertex 0.75 0.201172 0
    endloop
  endfacet
  facet normal -0.38426 -0.923225 0
    outer loop
      vertex 0.75 0.201172 0
      vertex 1.11133 0.0507812 2.5
      vertex 0.75 0.201172 2.5
    endloop
  endfacet
  facet normal -0.38426 -0.923225 -0
    outer loop
      vertex 1.11133 0.0507812 2.5
      vertex 0.75 0.201172 0
      vertex 1.11133 0.0507812 0
    endloop
  endfacet
  facet normal -0.129553 -0.991573 0
    outer loop
      vertex 1.11133 0.0507812 0
      vertex 1.5 0 2.5
      vertex 1.11133 0.0507812 2.5
    endloop
  endfacet
  facet normal -0.129553 -0.991573 -0
    outer loop
      vertex 1.5 0 2.5
      vertex 1.11133 0.0507812 0
      vertex 1.5 0 0
    endloop
  endfacet
  facet normal 0 -1 0
    outer loop
      vertex 1.5 0 0
      vertex 34.5 0 2.5
      vertex 1.5 0 2.5
    endloop
  endfacet
  facet normal 0 -1 -0
    outer loop
      vertex 34.5 0 2.5
      vertex 1.5 0 0
      vertex 34.5 0 0
    endloop
  endfacet
  facet normal 0.129543 -0.991574 0
    outer loop
      vertex 34.5 0 0
      vertex 34.8887 0.0507812 2.5
      vertex 34.5 0 2.5
    endloop
  endfacet
  facet normal 0.129543 -0.991574 0
    outer loop
      vertex 34.8887 0.0507812 2.5
      vertex 34.5 0 0
      vertex 34.8887 0.0507812 0
    endloop
  endfacet
  facet normal 0.343068 0.93931 -0
    outer loop
      vertex 17.8086 41.417 0
      vertex 17.4502 41.5479 2.5
      vertex 17.8086 41.417 2.5
    endloop
  endfacet
  facet normal 0.343068 0.93931 0
    outer loop
      vertex 17.4502 41.5479 2.5
      vertex 17.8086 41.417 0
      vertex 17.4502 41.5479 0
    endloop
  endfacet
  facet normal 0.641625 0.767018 -0
    outer loop
      vertex 17.4502 41.5479 0
      vertex 17.1572 41.793 2.5
      vertex 17.4502 41.5479 2.5
    endloop
  endfacet
  facet normal 0.641625 0.767018 0
    outer loop
      vertex 17.1572 41.793 2.5
      vertex 17.4502 41.5479 0
      vertex 17.1572 41.793 0
    endloop
  endfacet
  facet normal 0.866821 0.498619 0
    outer loop
      vertex 17.1572 41.793 2.5
      vertex 16.9668 42.124 0
      vertex 16.9668 42.124 2.5
    endloop
  endfacet
  facet normal 0.866821 0.498619 0
    outer loop
      vertex 16.9668 42.124 0
      vertex 17.1572 41.793 2.5
      vertex 17.1572 41.793 0
    endloop
  endfacet
  facet normal 0.984762 0.173905 0
    outer loop
      vertex 16.9668 42.124 2.5
      vertex 16.9004 42.5 0
      vertex 16.9004 42.5 2.5
    endloop
  endfacet
  facet normal 0.984762 0.173905 0
    outer loop
      vertex 16.9004 42.5 0
      vertex 16.9668 42.124 2.5
      vertex 16.9668 42.124 0
    endloop
  endfacet
  facet normal 0.984762 -0.173905 0
    outer loop
      vertex 16.9004 42.5 2.5
      vertex 16.9668 42.876 0
      vertex 16.9668 42.876 2.5
    endloop
  endfacet
  facet normal 0.984762 -0.173905 0
    outer loop
      vertex 16.9668 42.876 0
      vertex 16.9004 42.5 2.5
      vertex 16.9004 42.5 0
    endloop
  endfacet
  facet normal 0.866821 -0.498619 0
    outer loop
      vertex 16.9668 42.876 2.5
      vertex 17.1572 43.207 0
      vertex 17.1572 43.207 2.5
    endloop
  endfacet
  facet normal 0.866821 -0.498619 0
    outer loop
      vertex 17.1572 43.207 0
      vertex 16.9668 42.876 2.5
      vertex 16.9668 42.876 0
    endloop
  endfacet
  facet normal 0.641625 -0.767018 0
    outer loop
      vertex 17.1572 43.207 0
      vertex 17.4502 43.4521 2.5
      vertex 17.1572 43.207 2.5
    endloop
  endfacet
  facet normal 0.641625 -0.767018 0
    outer loop
      vertex 17.4502 43.4521 2.5
      vertex 17.1572 43.207 0
      vertex 17.4502 43.4521 0
    endloop
  endfacet
  facet normal 0.343068 -0.93931 0
    outer loop
      vertex 17.4502 43.4521 0
      vertex 17.8086 43.583 2.5
      vertex 17.4502 43.4521 2.5
    endloop
  endfacet
  facet normal 0.343068 -0.93931 0
    outer loop
      vertex 17.8086 43.583 2.5
      vertex 17.4502 43.4521 0
      vertex 17.8086 43.583 0
    endloop
  endfacet
  facet normal 0 -1 0
    outer loop
      vertex 17.8086 43.583 0
      vertex 18.1914 43.583 2.5
      vertex 17.8086 43.583 2.5
    endloop
  endfacet
  facet normal 0 -1 -0
    outer loop
      vertex 18.1914 43.583 2.5
      vertex 17.8086 43.583 0
      vertex 18.1914 43.583 0
    endloop
  endfacet
  facet normal -0.343068 -0.93931 0
    outer loop
      vertex 18.1914 43.583 0
      vertex 18.5498 43.4521 2.5
      vertex 18.1914 43.583 2.5
    endloop
  endfacet
  facet normal -0.343068 -0.93931 -0
    outer loop
      vertex 18.5498 43.4521 2.5
      vertex 18.1914 43.583 0
      vertex 18.5498 43.4521 0
    endloop
  endfacet
  facet normal -0.641625 -0.767018 0
    outer loop
      vertex 18.5498 43.4521 0
      vertex 18.8428 43.207 2.5
      vertex 18.5498 43.4521 2.5
    endloop
  endfacet
  facet normal -0.641625 -0.767018 -0
    outer loop
      vertex 18.8428 43.207 2.5
      vertex 18.5498 43.4521 0
      vertex 18.8428 43.207 0
    endloop
  endfacet
  facet normal -0.866821 -0.498619 0
    outer loop
      vertex 19.0332 42.876 0
      vertex 18.8428 43.207 2.5
      vertex 18.8428 43.207 0
    endloop
  endfacet
  facet normal -0.866821 -0.498619 0
    outer loop
      vertex 18.8428 43.207 2.5
      vertex 19.0332 42.876 0
      vertex 19.0332 42.876 2.5
    endloop
  endfacet
  facet normal -0.984762 -0.173905 0
    outer loop
      vertex 19.0996 42.5 0
      vertex 19.0332 42.876 2.5
      vertex 19.0332 42.876 0
    endloop
  endfacet
  facet normal -0.984762 -0.173905 0
    outer loop
      vertex 19.0332 42.876 2.5
      vertex 19.0996 42.5 0
      vertex 19.0996 42.5 2.5
    endloop
  endfacet
  facet normal -0.984762 0.173905 0
    outer loop
      vertex 19.0332 42.124 0
      vertex 19.0996 42.5 2.5
      vertex 19.0996 42.5 0
    endloop
  endfacet
  facet normal -0.984762 0.173905 0
    outer loop
      vertex 19.0996 42.5 2.5
      vertex 19.0332 42.124 0
      vertex 19.0332 42.124 2.5
    endloop
  endfacet
  facet normal -0.866821 0.498619 0
    outer loop
      vertex 18.8428 41.793 0
      vertex 19.0332 42.124 2.5
      vertex 19.0332 42.124 0
    endloop
  endfacet
  facet normal -0.866821 0.498619 0
    outer loop
      vertex 19.0332 42.124 2.5
      vertex 18.8428 41.793 0
      vertex 18.8428 41.793 2.5
    endloop
  endfacet
  facet normal -0.641625 0.767018 0
    outer loop
      vertex 18.8428 41.793 0
      vertex 18.5498 41.5479 2.5
      vertex 18.8428 41.793 2.5
    endloop
  endfacet
  facet normal -0.641625 0.767018 0
    outer loop
      vertex 18.5498 41.5479 2.5
      vertex 18.8428 41.793 0
      vertex 18.5498 41.5479 0
    endloop
  endfacet
  facet normal -0.343068 0.93931 0
    outer loop
      vertex 18.5498 41.5479 0
      vertex 18.1914 41.417 2.5
      vertex 18.5498 41.5479 2.5
    endloop
  endfacet
  facet normal -0.343068 0.93931 0
    outer loop
      vertex 18.1914 41.417 2.5
      vertex 18.5498 41.5479 0
      vertex 18.1914 41.417 0
    endloop
  endfacet
  facet normal 0 1 -0
    outer loop
      vertex 18.1914 41.417 0
      vertex 17.8086 41.417 2.5
      vertex 18.1914 41.417 2.5
    endloop
  endfacet
  facet normal 0 1 0
    outer loop
      vertex 17.8086 41.417 2.5
      vertex 18.1914 41.417 0
      vertex 17.8086 41.417 0
    endloop
  endfacet
  facet normal 1 -0 0
    outer loop
      vertex 3 14.5 2.5
      vertex 3 36.5 0
      vertex 3 36.5 2.5
    endloop
  endfacet
  facet normal 1 0 0
    outer loop
      vertex 3 36.5 0
      vertex 3 14.5 2.5
      vertex 3 14.5 0
    endloop
  endfacet
  facet normal 0 -1 0
    outer loop
      vertex 3 36.5 0
      vertex 18 36.5 2.5
      vertex 3 36.5 2.5
    endloop
  endfacet
  facet normal 0 -1 -0
    outer loop
      vertex 18 36.5 2.5
      vertex 3 36.5 0
      vertex 18 36.5 0
    endloop
  endfacet
  facet normal -1 0 0
    outer loop
      vertex 18 14.5 0
      vertex 18 36.5 2.5
      vertex 18 36.5 0
    endloop
  endfacet
  facet normal -1 -0 0
    outer loop
      vertex 18 36.5 2.5
      vertex 18 14.5 0
      vertex 18 14.5 2.5
    endloop
  endfacet
  facet normal 0 1 -0
    outer loop
      vertex 18 14.5 0
      vertex 3 14.5 2.5
      vertex 18 14.5 2.5
    endloop
  endfacet
  facet normal 0 1 0
    outer loop
      vertex 3 14.5 2.5
      vertex 18 14.5 0
      vertex 3 14.5 0
    endloop
  endfacet
  facet normal 0.342976 0.939344 -0
    outer loop
      vertex 17.8086 7.41699 0
      vertex 17.4502 7.54785 2.5
      vertex 17.8086 7.41699 2.5
    endloop
  endfacet
  facet normal 0.342976 0.939344 0
    outer loop
      vertex 17.4502 7.54785 2.5
      vertex 17.8086 7.41699 0
      vertex 17.4502 7.54785 0
    endloop
  endfacet
  facet normal 0.641656 0.766993 -0
    outer loop
      vertex 17.4502 7.54785 0
      vertex 17.1572 7.79297 2.5
      vertex 17.4502 7.54785 2.5
    endloop
  endfacet
  facet normal 0.641656 0.766993 0
    outer loop
      vertex 17.1572 7.79297 2.5
      vertex 17.4502 7.54785 0
      vertex 17.1572 7.79297 0
    endloop
  endfacet
  facet normal 0.866854 0.498562 0
    outer loop
      vertex 17.1572 7.79297 2.5
      vertex 16.9668 8.12402 0
      vertex 16.9668 8.12402 2.5
    endloop
  endfacet
  facet normal 0.866854 0.498562 0
    outer loop
      vertex 16.9668 8.12402 0
      vertex 17.1572 7.79297 2.5
      vertex 17.1572 7.79297 0
    endloop
  endfacet
  facet normal 0.984761 0.173914 0
    outer loop
      vertex 16.9668 8.12402 2.5
      vertex 16.9004 8.5 0
      vertex 16.9004 8.5 2.5
    endloop
  endfacet
  facet normal 0.984761 0.173914 0
    outer loop
      vertex 16.9004 8.5 0
      vertex 16.9668 8.12402 2.5
      vertex 16.9668 8.12402 0
    endloop
  endfacet
  facet normal 0.984761 -0.173914 0
    outer loop
      vertex 16.9004 8.5 2.5
      vertex 16.9668 8.87598 0
      vertex 16.9668 8.87598 2.5
    endloop
  endfacet
  facet normal 0.984761 -0.173914 0
    outer loop
      vertex 16.9668 8.87598 0
      vertex 16.9004 8.5 2.5
      vertex 16.9004 8.5 0
    endloop
  endfacet
  facet normal 0.866854 -0.498562 0
    outer loop
      vertex 16.9668 8.87598 2.5
      vertex 17.1572 9.20703 0
      vertex 17.1572 9.20703 2.5
    endloop
  endfacet
  facet normal 0.866854 -0.498562 0
    outer loop
      vertex 17.1572 9.20703 0
      vertex 16.9668 8.87598 2.5
      vertex 16.9668 8.87598 0
    endloop
  endfacet
  facet normal 0.641656 -0.766993 0
    outer loop
      vertex 17.1572 9.20703 0
      vertex 17.4502 9.45215 2.5
      vertex 17.1572 9.20703 2.5
    endloop
  endfacet
  facet normal 0.641656 -0.766993 0
    outer loop
      vertex 17.4502 9.45215 2.5
      vertex 17.1572 9.20703 0
      vertex 17.4502 9.45215 0
    endloop
  endfacet
  facet normal 0.342976 -0.939344 0
    outer loop
      vertex 17.4502 9.45215 0
      vertex 17.8086 9.58301 2.5
      vertex 17.4502 9.45215 2.5
    endloop
  endfacet
  facet normal 0.342976 -0.939344 0
    outer loop
      vertex 17.8086 9.58301 2.5
      vertex 17.4502 9.45215 0
      vertex 17.8086 9.58301 0
    endloop
  endfacet
  facet normal 0 -1 0
    outer loop
      vertex 17.8086 9.58301 0
      vertex 18.1914 9.58301 2.5
      vertex 17.8086 9.58301 2.5
    endloop
  endfacet
  facet normal 0 -1 -0
    outer loop
      vertex 18.1914 9.58301 2.5
      vertex 17.8086 9.58301 0
      vertex 18.1914 9.58301 0
    endloop
  endfacet
  facet normal -0.342976 -0.939344 0
    outer loop
      vertex 18.1914 9.58301 0
      vertex 18.5498 9.45215 2.5
      vertex 18.1914 9.58301 2.5
    endloop
  endfacet
  facet normal -0.342976 -0.939344 -0
    outer loop
      vertex 18.5498 9.45215 2.5
      vertex 18.1914 9.58301 0
      vertex 18.5498 9.45215 0
    endloop
  endfacet
  facet normal -0.641656 -0.766993 0
    outer loop
      vertex 18.5498 9.45215 0
      vertex 18.8428 9.20703 2.5
      vertex 18.5498 9.45215 2.5
    endloop
  endfacet
  facet normal -0.641656 -0.766993 -0
    outer loop
      vertex 18.8428 9.20703 2.5
      vertex 18.5498 9.45215 0
      vertex 18.8428 9.20703 0
    endloop
  endfacet
  facet normal -0.866854 -0.498562 0
    outer loop
      vertex 19.0332 8.87598 0
      vertex 18.8428 9.20703 2.5
      vertex 18.8428 9.20703 0
    endloop
  endfacet
  facet normal -0.866854 -0.498562 0
    outer loop
      vertex 18.8428 9.20703 2.5
      vertex 19.0332 8.87598 0
      vertex 19.0332 8.87598 2.5
    endloop
  endfacet
  facet normal -0.984761 -0.173914 0
    outer loop
      vertex 19.0996 8.5 0
      vertex 19.0332 8.87598 2.5
      vertex 19.0332 8.87598 0
    endloop
  endfacet
  facet normal -0.984761 -0.173914 0
    outer loop
      vertex 19.0332 8.87598 2.5
      vertex 19.0996 8.5 0
      vertex 19.0996 8.5 2.5
    endloop
  endfacet
  facet normal -0.984761 0.173914 0
    outer loop
      vertex 19.0332 8.12402 0
      vertex 19.0996 8.5 2.5
      vertex 19.0996 8.5 0
    endloop
  endfacet
  facet normal -0.984761 0.173914 0
    outer loop
      vertex 19.0996 8.5 2.5
      vertex 19.0332 8.12402 0
      vertex 19.0332 8.12402 2.5
    endloop
  endfacet
  facet normal -0.866854 0.498562 0
    outer loop
      vertex 18.8428 7.79297 0
      vertex 19.0332 8.12402 2.5
      vertex 19.0332 8.12402 0
    endloop
  endfacet
  facet normal -0.866854 0.498562 0
    outer loop
      vertex 19.0332 8.12402 2.5
      vertex 18.8428 7.79297 0
      vertex 18.8428 7.79297 2.5
    endloop
  endfacet
  facet normal -0.641656 0.766993 0
    outer loop
      vertex 18.8428 7.79297 0
      vertex 18.5498 7.54785 2.5
      vertex 18.8428 7.79297 2.5
    endloop
  endfacet
  facet normal -0.641656 0.766993 0
    outer loop
      vertex 18.5498 7.54785 2.5
      vertex 18.8428 7.79297 0
      vertex 18.5498 7.54785 0
    endloop
  endfacet
  facet normal -0.342976 0.939344 0
    outer loop
      vertex 18.5498 7.54785 0
      vertex 18.1914 7.41699 2.5
      vertex 18.5498 7.54785 2.5
    endloop
  endfacet
  facet normal -0.342976 0.939344 0
    outer loop
      vertex 18.1914 7.41699 2.5
      vertex 18.5498 7.54785 0
      vertex 18.1914 7.41699 0
    endloop
  endfacet
  facet normal 0 1 -0
    outer loop
      vertex 18.1914 7.41699 0
      vertex 17.8086 7.41699 2.5
      vertex 18.1914 7.41699 2.5
    endloop
  endfacet
  facet normal 0 1 0
    outer loop
      vertex 17.8086 7.41699 2.5
      vertex 18.1914 7.41699 0
      vertex 17.8086 7.41699 0
    endloop
  endfacet
  facet normal 0 0 1
    outer loop
      vertex 21.5 46 5
      vertex 19.5498 44.0498 5
      vertex 21.5 39 5
    endloop
  endfacet
  facet normal 0 0 1
    outer loop
      vertex 21.5 46 5
      vertex 16.4502 44.0498 5
      vertex 19.5498 44.0498 5
    endloop
  endfacet
  facet normal 0 0 1
    outer loop
      vertex 16.4502 44.0498 5
      vertex 14.5 46 5
      vertex 16.4502 40.9502 5
    endloop
  endfacet
  facet normal -0 0 1
    outer loop
      vertex 14.5 46 5
      vertex 16.4502 44.0498 5
      vertex 21.5 46 5
    endloop
  endfacet
  facet normal -0 0 1
    outer loop
      vertex 19.5498 40.9502 5
      vertex 21.5 39 5
      vertex 19.5498 44.0498 5
    endloop
  endfacet
  facet normal -0 0 1
    outer loop
      vertex 16.4502 40.9502 5
      vertex 21.5 39 5
      vertex 19.5498 40.9502 5
    endloop
  endfacet
  facet normal 0 0 1
    outer loop
      vertex 16.4502 40.9502 5
      vertex 14.5 39 5
      vertex 21.5 39 5
    endloop
  endfacet
  facet normal 0 0 1
    outer loop
      vertex 14.5 39 5
      vertex 16.4502 40.9502 5
      vertex 14.5 46 5
    endloop
  endfacet
  facet normal 0 0 1
    outer loop
      vertex 21.5 12 5
      vertex 19.5498 10.0498 5
      vertex 21.5 5 5
    endloop
  endfacet
  facet normal 0 0 1
    outer loop
      vertex 21.5 12 5
      vertex 16.4502 10.0498 5
      vertex 19.5498 10.0498 5
    endloop
  endfacet
  facet normal 0 0 1
    outer loop
      vertex 16.4502 10.0498 5
      vertex 14.5 12 5
      vertex 16.4502 6.9502 5
    endloop
  endfacet
  facet normal -0 0 1
    outer loop
      vertex 14.5 12 5
      vertex 16.4502 10.0498 5
      vertex 21.5 12 5
    endloop
  endfacet
  facet normal -0 0 1
    outer loop
      vertex 19.5498 6.9502 5
      vertex 21.5 5 5
      vertex 19.5498 10.0498 5
    endloop
  endfacet
  facet normal -0 0 1
    outer loop
      vertex 16.4502 6.9502 5
      vertex 21.5 5 5
      vertex 19.5498 6.9502 5
    endloop
  endfacet
  facet normal 0 0 1
    outer loop
      vertex 16.4502 6.9502 5
      vertex 14.5 5 5
      vertex 21.5 5 5
    endloop
  endfacet
  facet normal 0 0 1
    outer loop
      vertex 14.5 5 5
      vertex 16.4502 6.9502 5
      vertex 14.5 12 5
    endloop
  endfacet
  facet normal 0 1 -0
    outer loop
      vertex 21.5 46 2.5
      vertex 14.5 46 5
      vertex 21.5 46 5
    endloop
  endfacet
  facet normal 0 1 0
    outer loop
      vertex 14.5 46 5
      vertex 21.5 46 2.5
      vertex 14.5 46 2.5
    endloop
  endfacet
  facet normal -1 0 0
    outer loop
      vertex 14.5 39 2.5
      vertex 14.5 46 5
      vertex 14.5 46 2.5
    endloop
  endfacet
  facet normal -1 -0 0
    outer loop
      vertex 14.5 46 5
      vertex 14.5 39 2.5
      vertex 14.5 39 5
    endloop
  endfacet
  facet normal 0 -1 0
    outer loop
      vertex 14.5 39 2.5
      vertex 21.5 39 5
      vertex 14.5 39 5
    endloop
  endfacet
  facet normal 0 -1 -0
    outer loop
      vertex 21.5 39 5
      vertex 14.5 39 2.5
      vertex 21.5 39 2.5
    endloop
  endfacet
  facet normal 1 -0 0
    outer loop
      vertex 21.5 39 5
      vertex 21.5 46 2.5
      vertex 21.5 46 5
    endloop
  endfacet
  facet normal 1 0 0
    outer loop
      vertex 21.5 46 2.5
      vertex 21.5 39 5
      vertex 21.5 39 2.5
    endloop
  endfacet
  facet normal 1 -0 0
    outer loop
      vertex 16.4502 40.9502 5
      vertex 16.4502 44.0498 2.5
      vertex 16.4502 44.0498 5
    endloop
  endfacet
  facet normal 1 0 0
    outer loop
      vertex 16.4502 44.0498 2.5
      vertex 16.4502 40.9502 5
      vertex 16.4502 40.9502 2.5
    endloop
  endfacet
  facet normal 0 -1 0
    outer loop
      vertex 16.4502 44.0498 2.5
      vertex 19.5498 44.0498 5
      vertex 16.4502 44.0498 5
    endloop
  endfacet
  facet normal 0 -1 -0
    outer loop
      vertex 19.5498 44.0498 5
      vertex 16.4502 44.0498 2.5
      vertex 19.5498 44.0498 2.5
    endloop
  endfacet
  facet normal -1 0 0
    outer loop
      vertex 19.5498 40.9502 2.5
      vertex 19.5498 44.0498 5
      vertex 19.5498 44.0498 2.5
    endloop
  endfacet
  facet normal -1 -0 0
    outer loop
      vertex 19.5498 44.0498 5
      vertex 19.5498 40.9502 2.5
      vertex 19.5498 40.9502 5
    endloop
  endfacet
  facet normal 0 1 -0
    outer loop
      vertex 19.5498 40.9502 2.5
      vertex 16.4502 40.9502 5
      vertex 19.5498 40.9502 5
    endloop
  endfacet
  facet normal 0 1 0
    outer loop
      vertex 16.4502 40.9502 5
      vertex 19.5498 40.9502 2.5
      vertex 16.4502 40.9502 2.5
    endloop
  endfacet
  facet normal 0 1 -0
    outer loop
      vertex 21.5 12 2.5
      vertex 14.5 12 5
      vertex 21.5 12 5
    endloop
  endfacet
  facet normal 0 1 0
    outer loop
      vertex 14.5 12 5
      vertex 21.5 12 2.5
      vertex 14.5 12 2.5
    endloop
  endfacet
  facet normal -1 0 0
    outer loop
      vertex 14.5 5 2.5
      vertex 14.5 12 5
      vertex 14.5 12 2.5
    endloop
  endfacet
  facet normal -1 -0 0
    outer loop
      vertex 14.5 12 5
      vertex 14.5 5 2.5
      vertex 14.5 5 5
    endloop
  endfacet
  facet normal 0 -1 0
    outer loop
      vertex 14.5 5 2.5
      vertex 21.5 5 5
      vertex 14.5 5 5
    endloop
  endfacet
  facet normal 0 -1 -0
    outer loop
      vertex 21.5 5 5
      vertex 14.5 5 2.5
      vertex 21.5 5 2.5
    endloop
  endfacet
  facet normal 1 -0 0
    outer loop
      vertex 21.5 5 5
      vertex 21.5 12 2.5
      vertex 21.5 12 5
    endloop
  endfacet
  facet normal 1 0 0
    outer loop
      vertex 21.5 12 2.5
      vertex 21.5 5 5
      vertex 21.5 5 2.5
    endloop
  endfacet
  facet normal 1 -0 0
    outer loop
      vertex 16.4502 6.9502 5
      vertex 16.4502 10.0498 2.5
      vertex 16.4502 10.0498 5
    endloop
  endfacet
  facet normal 1 0 0
    outer loop
      vertex 16.4502 10.0498 2.5
      vertex 16.4502 6.9502 5
      vertex 16.4502 6.9502 2.5
    endloop
  endfacet
  facet normal 0 -1 0
    outer loop
      vertex 16.4502 10.0498 2.5
      vertex 19.5498 10.0498 5
      vertex 16.4502 10.0498 5
    endloop
  endfacet
  facet normal 0 -1 -0
    outer loop
      vertex 19.5498 10.0498 5
      vertex 16.4502 10.0498 2.5
      vertex 19.5498 10.0498 2.5
    endloop
  endfacet
  facet normal -1 0 0
    outer loop
      vertex 19.5498 6.9502 2.5
      vertex 19.5498 10.0498 5
      vertex 19.5498 10.0498 2.5
    endloop
  endfacet
  facet normal -1 -0 0
    outer loop
      vertex 19.5498 10.0498 5
      vertex 19.5498 6.9502 2.5
      vertex 19.5498 6.9502 5
    endloop
  endfacet
  facet normal 0 1 -0
    outer loop
      vertex 19.5498 6.9502 2.5
      vertex 16.4502 6.9502 5
      vertex 19.5498 6.9502 5
    endloop
  endfacet
  facet normal 0 1 0
    outer loop
      vertex 16.4502 6.9502 5
      vertex 19.5498 6.9502 2.5
      vertex 16.4502 6.9502 2.5
    endloop
  endfacet
endsolid OpenSCAD_Model
