0
SECTION
2
HEADER
9
$INSUNITS
70
4
0
ENDSEC
0
SECTION
2
TABLES
0
TABLE
2
LTYPE
0
LTYPE
72
65
70
64
2
CONTINUOUS
3
______
73
0
40
0
0
ENDTAB
0
TABLE
2
LAYER
0
ENDTAB
0
ENDSEC
0
SECTION
2
ENTITIES
0
LINE
8
0
10
57
20
36
11
64
21
36
0
LINE
8
0
10
64
20
36
11
64
21
43
0
LINE
8
0
10
64
20
43
11
57
21
43
0
LINE
8
0
10
57
20
43
11
57
21
36
0
LINE
8
0
10
58.95
20
37.95
11
62.05
21
37.95
0
LINE
8
0
10
62.05
20
37.95
11
62.05
21
41.05
0
LINE
8
0
10
62.05
20
41.05
11
58.95
21
41.05
0
LINE
8
0
10
58.95
20
41.05
11
58.95
21
37.95
0
LINE
8
0
10
23.5
20
42
11
30.5
21
42
0
LINE
8
0
10
30.5
20
42
11
30.5
21
49
0
LINE
8
0
10
30.5
20
49
11
23.5
21
49
0
LINE
8
0
10
23.5
20
49
11
23.5
21
42
0
LINE
8
0
10
25.45
20
43.95
11
28.55
21
43.95
0
LINE
8
0
10
28.55
20
43.95
11
28.55
21
47.05
0
LINE
8
0
10
28.55
20
47.05
11
25.45
21
47.05
0
LINE
8
0
10
25.45
20
47.05
11
25.45
21
43.95
0
LINE
8
0
10
23.5
20
8
11
30.5
21
8
0
LINE
8
0
10
30.5
20
8
11
30.5
21
15
0
LINE
8
0
10
30.5
20
15
11
23.5
21
15
0
LINE
8
0
10
23.5
20
15
11
23.5
21
8
0
LINE
8
0
10
25.45
20
9.95
11
28.55
21
9.95
0
LINE
8
0
10
28.55
20
9.95
11
28.55
21
13.05
0
LINE
8
0
10
28.55
20
13.05
11
25.45
21
13.05
0
LINE
8
0
10
25.45
20
13.05
11
25.45
21
9.95
0
LINE
8
0
10
5.5
20
39
11
12.5
21
39
0
LINE
8
0
10
12.5
20
39
11
12.5
21
46
0
LINE
8
0
10
12.5
20
46
11
5.5
21
46
0
LINE
8
0
10
5.5
20
46
11
5.5
21
39
0
LINE
8
0
10
7.45
20
40.95
11
10.55
21
40.95
0
LINE
8
0
10
10.55
20
40.95
11
10.55
21
44.05
0
LINE
8
0
10
10.55
20
44.05
11
7.45
21
44.05
0
LINE
8
0
10
7.45
20
44.05
11
7.45
21
40.95
0
LINE
8
0
10
5.5
20
5
11
12.5
21
5
0
LINE
8
0
10
12.5
20
5
11
12.5
21
12
0
LINE
8
0
10
12.5
20
12
11
5.5
21
12
0
LINE
8
0
10
5.5
20
12
11
5.5
21
5
0
LINE
8
0
10
7.45
20
6.95
11
10.55
21
6.95
0
LINE
8
0
10
10.55
20
6.95
11
10.55
21
10.05
0
LINE
8
0
10
10.55
20
10.05
11
7.45
21
10.05
0
LINE
8
0
10
7.45
20
10.05
11
7.45
21
6.95
0
ENDSEC
0
EOF