0
SECTION
2
HEADER
9
$INSUNITS
70
4
0
ENDSEC
0
SECTION
2
TABLES
0
TABLE
2
LTYPE
0
LTYPE
72
65
70
64
2
CONTINUOUS
3
______
73
0
40
0
0
ENDTAB
0
TABLE
2
LAYER
0
ENDTAB
0
ENDSEC
0
SECTION
2
ENTITIES
0
LINE
8
0
10
-7
20
-7
11
7
21
-7
0
LINE
8
0
10
7
20
-7
11
7
21
7
0
LINE
8
0
10
7
20
7
11
-7
21
7
0
LINE
8
0
10
-7
20
7
11
-7
21
-7
0
LINE
8
0
10
-7
20
10
11
7
21
10
0
LINE
8
0
10
7
20
10
11
7
21
24
0
LINE
8
0
10
7
20
24
11
-7
21
24
0
LINE
8
0
10
-7
20
24
11
-7
21
10
0
LINE
8
0
10
-7
20
27
11
7
21
27
0
LINE
8
0
10
7
20
27
11
7
21
41
0
LINE
8
0
10
7
20
41
11
-7
21
41
0
LINE
8
0
10
-7
20
41
11
-7
21
27
0
LINE
8
0
10
-7
20
44
11
7
21
44
0
LINE
8
0
10
7
20
44
11
7
21
58
0
LINE
8
0
10
7
20
58
11
-7
21
58
0
LINE
8
0
10
-7
20
58
11
-7
21
44
0
LINE
8
0
10
11
20
10
11
25
21
10
0
LINE
8
0
10
25
20
10
11
25
21
24
0
LINE
8
0
10
25
20
24
11
11
21
24
0
LINE
8
0
10
11
20
24
11
11
21
10
0
LINE
8
0
10
11
20
27
11
25
21
27
0
LINE
8
0
10
25
20
27
11
25
21
41
0
LINE
8
0
10
25
20
41
11
11
21
41
0
LINE
8
0
10
11
20
41
11
11
21
27
0
LINE
8
0
10
11
20
44
11
25
21
44
0
LINE
8
0
10
25
20
44
11
25
21
58
0
LINE
8
0
10
25
20
58
11
11
21
58
0
LINE
8
0
10
11
20
58
11
11
21
44
0
LINE
8
0
10
29
20
13
11
43
21
13
0
LINE
8
0
10
43
20
13
11
43
21
27
0
LINE
8
0
10
43
20
27
11
29
21
27
0
LINE
8
0
10
29
20
27
11
29
21
13
0
LINE
8
0
10
29
20
30
11
43
21
30
0
LINE
8
0
10
43
20
30
11
43
21
44
0
LINE
8
0
10
43
20
44
11
29
21
44
0
LINE
8
0
10
29
20
44
11
29
21
30
0
LINE
8
0
10
29
20
47
11
43
21
47
0
LINE
8
0
10
43
20
47
11
43
21
61
0
LINE
8
0
10
43
20
61
11
29
21
61
0
LINE
8
0
10
29
20
61
11
29
21
47
0
LINE
8
0
10
47
20
7
11
61
21
7
0
LINE
8
0
10
61
20
7
11
61
21
21
0
LINE
8
0
10
61
20
21
11
47
21
21
0
LINE
8
0
10
47
20
21
11
47
21
7
0
LINE
8
0
10
47
20
24
11
61
21
24
0
LINE
8
0
10
61
20
24
11
61
21
38
0
LINE
8
0
10
61
20
38
11
47
21
38
0
LINE
8
0
10
47
20
38
11
47
21
24
0
LINE
8
0
10
47
20
41
11
61
21
41
0
LINE
8
0
10
61
20
41
11
61
21
55
0
LINE
8
0
10
61
20
55
11
47
21
55
0
LINE
8
0
10
47
20
55
11
47
21
41
0
LINE
8
0
10
65
20
4
11
79
21
4
0
LINE
8
0
10
79
20
4
11
79
21
18
0
LINE
8
0
10
79
20
18
11
65
21
18
0
LINE
8
0
10
65
20
18
11
65
21
4
0
LINE
8
0
10
65
20
21
11
79
21
21
0
LINE
8
0
10
79
20
21
11
79
21
35
0
LINE
8
0
10
79
20
35
11
65
21
35
0
LINE
8
0
10
65
20
35
11
65
21
21
0
LINE
8
0
10
65
20
38
11
79
21
38
0
LINE
8
0
10
79
20
38
11
79
21
52
0
LINE
8
0
10
79
20
52
11
65
21
52
0
LINE
8
0
10
65
20
52
11
65
21
38
0
ENDSEC
0
EOF