%TF.GenerationSoftware,KiCad,Pcbnew,(7.0.0-0)*%
%TF.CreationDate,2023-02-22T17:50:19+08:00*%
%TF.ProjectId,left,6c656674-2e6b-4696-9361-645f70636258,v1.0.0*%
%TF.SameCoordinates,Original*%
%TF.FileFunction,Soldermask,Top*%
%TF.FilePolarity,Negative*%
%FSLAX46Y46*%
G04 Gerber Fmt 4.6, Leading zero omitted, Abs format (unit mm)*
G04 Created by KiCad (PCBNEW (7.0.0-0)) date 2023-02-22 17:50:19*
%MOMM*%
%LPD*%
G01*
G04 APERTURE LIST*
G04 Aperture macros list*
%AMRoundRect*
0 Rectangle with rounded corners*
0 $1 Rounding radius*
0 $2 $3 $4 $5 $6 $7 $8 $9 X,Y pos of 4 corners*
0 Add a 4 corners polygon primitive as box body*
4,1,4,$2,$3,$4,$5,$6,$7,$8,$9,$2,$3,0*
0 Add four circle primitives for the rounded corners*
1,1,$1+$1,$2,$3*
1,1,$1+$1,$4,$5*
1,1,$1+$1,$6,$7*
1,1,$1+$1,$8,$9*
0 Add four rect primitives between the rounded corners*
20,1,$1+$1,$2,$3,$4,$5,0*
20,1,$1+$1,$4,$5,$6,$7,0*
20,1,$1+$1,$6,$7,$8,$9,0*
20,1,$1+$1,$8,$9,$2,$3,0*%
G04 Aperture macros list end*
%ADD10C,3.529000*%
%ADD11C,1.801800*%
%ADD12C,3.100000*%
%ADD13C,2.132000*%
%ADD14RoundRect,0.050000X1.000000X-1.000000X1.000000X1.000000X-1.000000X1.000000X-1.000000X-1.000000X0*%
%ADD15C,2.100000*%
%ADD16C,1.600000*%
%ADD17RoundRect,0.050000X1.000000X-1.600000X1.000000X1.600000X-1.000000X1.600000X-1.000000X-1.600000X0*%
%ADD18C,1.000000*%
%ADD19RoundRect,0.050000X-0.876300X0.876300X-0.876300X-0.876300X0.876300X-0.876300X0.876300X0.876300X0*%
%ADD20C,1.852600*%
%ADD21C,2.300000*%
G04 APERTURE END LIST*
D10*
%TO.C,S1*%
X0Y34000000D03*
D11*
X-5500000Y34000000D03*
X5500000Y34000000D03*
D12*
X5000000Y37750000D03*
X0Y39950000D03*
%TD*%
D10*
%TO.C,S2*%
X0Y17000000D03*
D11*
X-5500000Y17000000D03*
X5500000Y17000000D03*
D12*
X5000000Y20750000D03*
X0Y22950000D03*
%TD*%
D10*
%TO.C,S3*%
X0Y0D03*
D11*
X-5500000Y0D03*
X5500000Y0D03*
D12*
X5000000Y3750000D03*
X0Y5950000D03*
%TD*%
D10*
%TO.C,S4*%
X18000000Y51000000D03*
D11*
X12500000Y51000000D03*
X23500000Y51000000D03*
D12*
X23000000Y54750000D03*
X18000000Y56950000D03*
%TD*%
D10*
%TO.C,S5*%
X18000000Y34000000D03*
D11*
X12500000Y34000000D03*
X23500000Y34000000D03*
D12*
X23000000Y37750000D03*
X18000000Y39950000D03*
%TD*%
D10*
%TO.C,S6*%
X18000000Y17000000D03*
D11*
X12500000Y17000000D03*
X23500000Y17000000D03*
D12*
X23000000Y20750000D03*
X18000000Y22950000D03*
%TD*%
D10*
%TO.C,S7*%
X36000000Y54000000D03*
D11*
X41500000Y54000000D03*
X30500000Y54000000D03*
D12*
X31000000Y50250000D03*
X36000000Y48050000D03*
%TD*%
D10*
%TO.C,S8*%
X36000000Y37000000D03*
D11*
X30500000Y37000000D03*
X41500000Y37000000D03*
D12*
X41000000Y40750000D03*
X36000000Y42950000D03*
%TD*%
D10*
%TO.C,S9*%
X36000000Y20000000D03*
D11*
X30500000Y20000000D03*
X41500000Y20000000D03*
D12*
X41000000Y23750000D03*
X36000000Y25950000D03*
%TD*%
D10*
%TO.C,S10*%
X54000000Y48000000D03*
D11*
X59500000Y48000000D03*
X48500000Y48000000D03*
D12*
X49000000Y44250000D03*
X54000000Y42050000D03*
%TD*%
D10*
%TO.C,S11*%
X54000000Y31000000D03*
D11*
X59500000Y31000000D03*
X48500000Y31000000D03*
D12*
X49000000Y27250000D03*
X54000000Y25050000D03*
%TD*%
D10*
%TO.C,S12*%
X54000000Y14000000D03*
D11*
X48500000Y14000000D03*
X59500000Y14000000D03*
D12*
X59000000Y17750000D03*
X54000000Y19950000D03*
%TD*%
D10*
%TO.C,S13*%
X72000000Y45000000D03*
D11*
X77500000Y45000000D03*
X66500000Y45000000D03*
D13*
X67000000Y41200000D03*
X72000000Y39100000D03*
%TD*%
D10*
%TO.C,S14*%
X72000000Y28000000D03*
D11*
X77500000Y28000000D03*
X66500000Y28000000D03*
D13*
X67000000Y24200000D03*
X72000000Y22100000D03*
%TD*%
D10*
%TO.C,S15*%
X72000000Y11000000D03*
D11*
X66500000Y11000000D03*
X77500000Y11000000D03*
D12*
X77000000Y14750000D03*
X72000000Y16950000D03*
%TD*%
D14*
%TO.C,ROT1*%
X-2540000Y43380000D03*
D15*
X-40000Y43380000D03*
X2460000Y43380000D03*
D16*
X-2540000Y57880000D03*
X2460000Y57880000D03*
D17*
X-5640000Y50880000D03*
X5560000Y50880000D03*
%TD*%
D18*
%TO.C,SS1*%
X19500000Y5070000D03*
X16500000Y5070000D03*
%TD*%
D19*
%TO.C,MCU1*%
X64380000Y48470000D03*
D20*
X64380000Y45930000D03*
X64380000Y43390000D03*
X64380000Y40850000D03*
X64380000Y38310000D03*
X64380000Y35770000D03*
X64380000Y33230000D03*
X64380000Y30690000D03*
X64380000Y28150000D03*
X64380000Y25610000D03*
X64380000Y23070000D03*
X64380000Y20530000D03*
X79620000Y48470000D03*
X79620000Y45930000D03*
X79620000Y43390000D03*
X79620000Y40850000D03*
X79620000Y38310000D03*
X79620000Y35770000D03*
X79620000Y33230000D03*
X79620000Y30690000D03*
X79620000Y28150000D03*
X79620000Y25610000D03*
X79620000Y23070000D03*
X79620000Y20530000D03*
%TD*%
D21*
%TO.C,H1*%
X9000000Y8500000D03*
%TD*%
%TO.C,H2*%
X9000000Y42500000D03*
%TD*%
%TO.C,H3*%
X27000000Y11500000D03*
%TD*%
%TO.C,H4*%
X27000000Y45500000D03*
%TD*%
%TO.C,H5*%
X63000000Y14000000D03*
%TD*%
%TO.C,H6*%
X60500000Y39500000D03*
%TD*%
M02*
