%TF.GenerationSoftware,KiCad,Pcbnew,(7.0.0-0)*%
%TF.CreationDate,2023-02-22T17:50:19+08:00*%
%TF.ProjectId,left,6c656674-2e6b-4696-9361-645f70636258,v1.0.0*%
%TF.SameCoordinates,Original*%
%TF.FileFunction,Soldermask,Bot*%
%TF.FilePolarity,Negative*%
%FSLAX46Y46*%
G04 Gerber Fmt 4.6, Leading zero omitted, Abs format (unit mm)*
G04 Created by KiCad (PCBNEW (7.0.0-0)) date 2023-02-22 17:50:19*
%MOMM*%
%LPD*%
G01*
G04 APERTURE LIST*
G04 Aperture macros list*
%AMRoundRect*
0 Rectangle with rounded corners*
0 $1 Rounding radius*
0 $2 $3 $4 $5 $6 $7 $8 $9 X,Y pos of 4 corners*
0 Add a 4 corners polygon primitive as box body*
4,1,4,$2,$3,$4,$5,$6,$7,$8,$9,$2,$3,0*
0 Add four circle primitives for the rounded corners*
1,1,$1+$1,$2,$3*
1,1,$1+$1,$4,$5*
1,1,$1+$1,$6,$7*
1,1,$1+$1,$8,$9*
0 Add four rect primitives between the rounded corners*
20,1,$1+$1,$2,$3,$4,$5,0*
20,1,$1+$1,$4,$5,$6,$7,0*
20,1,$1+$1,$6,$7,$8,$9,0*
20,1,$1+$1,$8,$9,$2,$3,0*%
G04 Aperture macros list end*
%ADD10C,3.529000*%
%ADD11C,1.801800*%
%ADD12C,3.100000*%
%ADD13RoundRect,0.050000X-1.300000X-1.300000X1.300000X-1.300000X1.300000X1.300000X-1.300000X1.300000X0*%
%ADD14RoundRect,0.050000X0.300000X0.350000X-0.300000X0.350000X-0.300000X-0.350000X0.300000X-0.350000X0*%
%ADD15RoundRect,0.050000X-0.300000X-0.350000X0.300000X-0.350000X0.300000X0.350000X-0.300000X0.350000X0*%
%ADD16C,2.132000*%
%ADD17RoundRect,0.050000X1.000000X-1.000000X1.000000X1.000000X-1.000000X1.000000X-1.000000X-1.000000X0*%
%ADD18C,2.100000*%
%ADD19C,1.600000*%
%ADD20RoundRect,0.050000X1.000000X-1.600000X1.000000X1.600000X-1.000000X1.600000X-1.000000X-1.600000X0*%
%ADD21C,1.000000*%
%ADD22RoundRect,0.050000X-0.300000X0.762000X-0.300000X-0.762000X0.300000X-0.762000X0.300000X0.762000X0*%
%ADD23RoundRect,0.050000X0.600000X0.350000X-0.600000X0.350000X-0.600000X-0.350000X0.600000X-0.350000X0*%
%ADD24RoundRect,0.431000X0.619000X0.381000X-0.619000X0.381000X-0.619000X-0.381000X0.619000X-0.381000X0*%
%ADD25RoundRect,0.428000X0.622000X0.378000X-0.622000X0.378000X-0.622000X-0.378000X0.622000X-0.378000X0*%
%ADD26RoundRect,0.050000X-0.876300X0.876300X-0.876300X-0.876300X0.876300X-0.876300X0.876300X0.876300X0*%
%ADD27C,1.852600*%
%ADD28RoundRect,0.200000X-0.625000X0.150000X-0.625000X-0.150000X0.625000X-0.150000X0.625000X0.150000X0*%
%ADD29RoundRect,0.300000X-0.650000X0.350000X-0.650000X-0.350000X0.650000X-0.350000X0.650000X0.350000X0*%
%ADD30C,2.300000*%
G04 APERTURE END LIST*
D10*
%TO.C,S1*%
X0Y34000000D03*
D11*
X-5500000Y34000000D03*
X5500000Y34000000D03*
D12*
X5000000Y37750000D03*
X0Y39950000D03*
D13*
X-3275000Y39950000D03*
X8275000Y37750000D03*
%TD*%
D14*
%TO.C,D1*%
X-2900000Y36600000D03*
X-4300000Y36600000D03*
%TD*%
D10*
%TO.C,S2*%
X0Y17000000D03*
D11*
X-5500000Y17000000D03*
X5500000Y17000000D03*
D12*
X5000000Y20750000D03*
X0Y22950000D03*
D13*
X-3275000Y22950000D03*
X8275000Y20750000D03*
%TD*%
D14*
%TO.C,D2*%
X-2900000Y19600000D03*
X-4300000Y19600000D03*
%TD*%
D10*
%TO.C,S3*%
X0Y0D03*
D11*
X-5500000Y0D03*
X5500000Y0D03*
D12*
X5000000Y3750000D03*
X0Y5950000D03*
D13*
X-3275000Y5950000D03*
X8275000Y3750000D03*
%TD*%
D14*
%TO.C,D3*%
X-2900000Y2600000D03*
X-4300000Y2600000D03*
%TD*%
D10*
%TO.C,S4*%
X18000000Y51000000D03*
D11*
X12500000Y51000000D03*
X23500000Y51000000D03*
D12*
X23000000Y54750000D03*
X18000000Y56950000D03*
D13*
X14725000Y56950000D03*
X26275000Y54750000D03*
%TD*%
D14*
%TO.C,D4*%
X15100000Y53600000D03*
X13700000Y53600000D03*
%TD*%
D10*
%TO.C,S5*%
X18000000Y34000000D03*
D11*
X12500000Y34000000D03*
X23500000Y34000000D03*
D12*
X23000000Y37750000D03*
X18000000Y39950000D03*
D13*
X14725000Y39950000D03*
X26275000Y37750000D03*
%TD*%
D14*
%TO.C,D5*%
X15100000Y36600000D03*
X13700000Y36600000D03*
%TD*%
D10*
%TO.C,S6*%
X18000000Y17000000D03*
D11*
X12500000Y17000000D03*
X23500000Y17000000D03*
D12*
X23000000Y20750000D03*
X18000000Y22950000D03*
D13*
X14725000Y22950000D03*
X26275000Y20750000D03*
%TD*%
D14*
%TO.C,D6*%
X15100000Y19600000D03*
X13700000Y19600000D03*
%TD*%
D10*
%TO.C,S7*%
X36000000Y54000000D03*
D11*
X41500000Y54000000D03*
X30500000Y54000000D03*
D12*
X31000000Y50250000D03*
X36000000Y48050000D03*
D13*
X39275000Y48050000D03*
X27725000Y50250000D03*
%TD*%
D15*
%TO.C,D7*%
X38900000Y51400000D03*
X40300000Y51400000D03*
%TD*%
D10*
%TO.C,S8*%
X36000000Y37000000D03*
D11*
X30500000Y37000000D03*
X41500000Y37000000D03*
D12*
X41000000Y40750000D03*
X36000000Y42950000D03*
D13*
X32725000Y42950000D03*
X44275000Y40750000D03*
%TD*%
D14*
%TO.C,D8*%
X33100000Y39600000D03*
X31700000Y39600000D03*
%TD*%
D10*
%TO.C,S9*%
X36000000Y20000000D03*
D11*
X30500000Y20000000D03*
X41500000Y20000000D03*
D12*
X41000000Y23750000D03*
X36000000Y25950000D03*
D13*
X32725000Y25950000D03*
X44275000Y23750000D03*
%TD*%
D14*
%TO.C,D9*%
X33100000Y22600000D03*
X31700000Y22600000D03*
%TD*%
D10*
%TO.C,S10*%
X54000000Y48000000D03*
D11*
X59500000Y48000000D03*
X48500000Y48000000D03*
D12*
X49000000Y44250000D03*
X54000000Y42050000D03*
D13*
X57275000Y42050000D03*
X45725000Y44250000D03*
%TD*%
D15*
%TO.C,D10*%
X56900000Y45400000D03*
X58300000Y45400000D03*
%TD*%
D10*
%TO.C,S11*%
X54000000Y31000000D03*
D11*
X59500000Y31000000D03*
X48500000Y31000000D03*
D12*
X49000000Y27250000D03*
X54000000Y25050000D03*
D13*
X57275000Y25050000D03*
X45725000Y27250000D03*
%TD*%
D15*
%TO.C,D11*%
X56900000Y28400000D03*
X58300000Y28400000D03*
%TD*%
D10*
%TO.C,S12*%
X54000000Y14000000D03*
D11*
X48500000Y14000000D03*
X59500000Y14000000D03*
D12*
X59000000Y17750000D03*
X54000000Y19950000D03*
D13*
X50725000Y19950000D03*
X62275000Y17750000D03*
%TD*%
D14*
%TO.C,D12*%
X51100000Y16600000D03*
X49700000Y16600000D03*
%TD*%
D10*
%TO.C,S13*%
X72000000Y45000000D03*
D11*
X77500000Y45000000D03*
X66500000Y45000000D03*
D16*
X67000000Y41200000D03*
X72000000Y39100000D03*
%TD*%
D15*
%TO.C,D13*%
X74900000Y42400000D03*
X76300000Y42400000D03*
%TD*%
D10*
%TO.C,S14*%
X72000000Y28000000D03*
D11*
X77500000Y28000000D03*
X66500000Y28000000D03*
D16*
X67000000Y24200000D03*
X72000000Y22100000D03*
%TD*%
D15*
%TO.C,D14*%
X74900000Y25400000D03*
X76300000Y25400000D03*
%TD*%
D10*
%TO.C,S15*%
X72000000Y11000000D03*
D11*
X66500000Y11000000D03*
X77500000Y11000000D03*
D12*
X77000000Y14750000D03*
X72000000Y16950000D03*
D13*
X68725000Y16950000D03*
X80275000Y14750000D03*
%TD*%
D14*
%TO.C,D15*%
X69100000Y13600000D03*
X67700000Y13600000D03*
%TD*%
D17*
%TO.C,ROT1*%
X-2540000Y43380000D03*
D18*
X-40000Y43380000D03*
X2460000Y43380000D03*
D19*
X-2540000Y57880000D03*
X2460000Y57880000D03*
D20*
X-5640000Y50880000D03*
X5560000Y50880000D03*
%TD*%
D14*
%TO.C,D16*%
X4700000Y55000000D03*
X3300000Y55000000D03*
%TD*%
D21*
%TO.C,SS1*%
X19500000Y5070000D03*
X16500000Y5070000D03*
D22*
X20250000Y7320000D03*
X17250000Y7320000D03*
X15750000Y7320000D03*
D23*
X21600000Y3920000D03*
X21600000Y6220000D03*
X14400000Y3920000D03*
X14400000Y6220000D03*
%TD*%
D24*
%TO.C,SB1*%
X45750000Y61000000D03*
D25*
X42250000Y61000000D03*
%TD*%
D26*
%TO.C,MCU1*%
X64380000Y48470000D03*
D27*
X64380000Y45930000D03*
X64380000Y43390000D03*
X64380000Y40850000D03*
X64380000Y38310000D03*
X64380000Y35770000D03*
X64380000Y33230000D03*
X64380000Y30690000D03*
X64380000Y28150000D03*
X64380000Y25610000D03*
X64380000Y23070000D03*
X64380000Y20530000D03*
X79620000Y48470000D03*
X79620000Y45930000D03*
X79620000Y43390000D03*
X79620000Y40850000D03*
X79620000Y38310000D03*
X79620000Y35770000D03*
X79620000Y33230000D03*
X79620000Y30690000D03*
X79620000Y28150000D03*
X79620000Y25610000D03*
X79620000Y23070000D03*
X79620000Y20530000D03*
%TD*%
D28*
%TO.C,JB1*%
X16000000Y28000000D03*
X16000000Y29000000D03*
D29*
X19875000Y26700000D03*
X19875000Y30300000D03*
%TD*%
D28*
%TO.C,JC1*%
X34000000Y10000000D03*
X34000000Y11000000D03*
X34000000Y12000000D03*
X34000000Y13000000D03*
X34000000Y14000000D03*
D29*
X37875000Y15300000D03*
X37875000Y8700000D03*
%TD*%
D30*
%TO.C,H1*%
X9000000Y8500000D03*
%TD*%
%TO.C,H2*%
X9000000Y42500000D03*
%TD*%
%TO.C,H3*%
X27000000Y11500000D03*
%TD*%
%TO.C,H4*%
X27000000Y45500000D03*
%TD*%
%TO.C,H5*%
X63000000Y14000000D03*
%TD*%
%TO.C,H6*%
X60500000Y39500000D03*
%TD*%
M02*
