0
SECTION
2
HEADER
9
$INSUNITS
70
4
0
ENDSEC
0
SECTION
2
TABLES
0
TABLE
2
LTYPE
0
LTYPE
72
65
70
64
2
CONTINUOUS
3
______
73
0
40
0
0
ENDTAB
0
TABLE
2
LAYER
0
ENDTAB
0
ENDSEC
0
SECTION
2
ENTITIES
0
LINE
8
0
10
-9.51
20
-8.5
11
9.51
21
-8.5
0
LINE
8
0
10
11
20
-7.01
11
11
21
-6.99
0
LINE
8
0
10
-11
20
-7.01
11
-11
21
41.01
0
LINE
8
0
10
-9.51
20
42.5
11
5.51
21
42.5
0
LINE
8
0
10
12.49
20
-5.5
11
27.51
21
-5.5
0
LINE
8
0
10
29
20
-4.01
11
29
21
-0.99
0
LINE
8
0
10
8.49
20
45.5
11
23.51
21
45.5
0
LINE
8
0
10
7
20
44.01
11
7
21
43.99
0
LINE
8
0
10
30.49
20
0.5
11
41.51
21
0.5
0
LINE
8
0
10
47
20
49.99
11
47
21
50.01
0
LINE
8
0
10
26.49
20
51.5
11
45.51
21
51.5
0
LINE
8
0
10
25
20
50.01
11
25
21
46.99
0
LINE
8
0
10
44.49
20
-2.5
11
59.51
21
-2.5
0
LINE
8
0
10
43
20
-0.99
11
43
21
-1.01
0
LINE
8
0
10
48.49
20
48.5
11
79.51
21
48.5
0
LINE
8
0
10
62.49
20
-19.5
11
79.51
21
-19.5
0
LINE
8
0
10
61
20
-3.99
11
61
21
-18.01
0
LINE
8
0
10
81
20
-18.01
11
81
21
47.01
0
ARC
8
0
10
9.51
20
-7.01
40
1.49
50
270
51
0
0
ARC
8
0
10
12.49
20
-6.99
40
1.49
50
90
51
180
0
ARC
8
0
10
27.51
20
-4.01
40
1.49
50
270
51
0
0
ARC
8
0
10
30.49
20
-0.99
40
1.49
50
90
51
180
0
ARC
8
0
10
41.51
20
-0.99
40
1.49
50
0
51
90
0
ARC
8
0
10
44.49
20
-1.01
40
1.49
50
180
51
270
0
ARC
8
0
10
59.51
20
-3.99
40
1.49
50
0
51
90
0
ARC
8
0
10
62.49
20
-18.01
40
1.49
50
180
51
270
0
ARC
8
0
10
79.51
20
-18.01
40
1.49
50
270
51
0
0
ARC
8
0
10
79.51
20
47.01
40
1.49
50
0
51
90
0
ARC
8
0
10
48.49
20
49.99
40
1.49
50
180
51
270
0
ARC
8
0
10
45.51
20
50.01
40
1.49
50
0
51
90
0
ARC
8
0
10
26.49
20
50.01
40
1.49
50
90
51
180
0
ARC
8
0
10
23.51
20
46.99
40
1.49
50
270
51
0
0
ARC
8
0
10
8.49
20
44.01
40
1.49
50
90
51
180
0
ARC
8
0
10
5.51
20
43.99
40
1.49
50
270
51
0
0
ARC
8
0
10
-9.51
20
41.01
40
1.49
50
90
51
180
0
ARC
8
0
10
-9.51
20
-7.01
40
1.49
50
180
51
270
0
ENDSEC
0
EOF