%TF.GenerationSoftware,KiCad,Pcbnew,(7.0.0-0)*%
%TF.CreationDate,2023-06-16T13:30:08+08:00*%
%TF.ProjectId,right,72696768-742e-46b6-9963-61645f706362,v1.0.0*%
%TF.SameCoordinates,Original*%
%TF.FileFunction,Drillmap*%
%TF.FilePolarity,Positive*%
%FSLAX45Y45*%
G04 Gerber Fmt 4.5, Leading zero omitted, Abs format (unit mm)*
G04 Created by KiCad (PCBNEW (7.0.0-0)) date 2023-06-16 13:30:08*
%MOMM*%
%LPD*%
G01*
G04 APERTURE LIST*
%ADD10C,0.150000*%
%ADD11C,0.200000*%
%ADD12C,0.170180*%
%ADD13C,0.220000*%
%ADD14C,0.300000*%
%ADD15C,0.342900*%
G04 APERTURE END LIST*
D10*
X-951000Y-850000D02*
X951000Y-850000D01*
X1100000Y-701000D02*
X1100000Y-699000D01*
X-1100000Y-701000D02*
X-1100000Y4101000D01*
X551000Y4250000D02*
X-951000Y4250000D01*
X1249000Y-550000D02*
X2751000Y-550000D01*
X2900000Y-401000D02*
X2900000Y-99000D01*
X2351000Y4550000D02*
X849000Y4550000D01*
X700000Y4401000D02*
X700000Y4399000D01*
X3049000Y50000D02*
X4151000Y50000D01*
X4700000Y4999000D02*
X4700000Y5001000D01*
X4551000Y5150000D02*
X2649000Y5150000D01*
X2500000Y5001000D02*
X2500000Y4699000D01*
X4449000Y-250000D02*
X5951000Y-250000D01*
X4300000Y-99000D02*
X4300000Y-101000D01*
X4849000Y4850000D02*
X7751000Y4850000D01*
X6249000Y-1950000D02*
X7751000Y-1950000D01*
X6100000Y-399000D02*
X6100000Y-1801000D01*
X7900000Y4701000D02*
X7900000Y-1801000D01*
X951000Y-850000D02*
G75*
G03*
X1100000Y-701000I0J149000D01*
G01*
X1249000Y-550000D02*
G75*
G03*
X1100000Y-699000I0J-149000D01*
G01*
X2751000Y-550000D02*
G75*
G03*
X2900000Y-401000I0J149000D01*
G01*
X3049000Y50000D02*
G75*
G03*
X2900000Y-99000I0J-149000D01*
G01*
X4300000Y-99000D02*
G75*
G03*
X4151000Y50000I-149000J0D01*
G01*
X4300000Y-101000D02*
G75*
G03*
X4449000Y-250000I149000J0D01*
G01*
X6100000Y-399000D02*
G75*
G03*
X5951000Y-250000I-149000J0D01*
G01*
X6100000Y-1801000D02*
G75*
G03*
X6249000Y-1950000I149000J0D01*
G01*
X7751000Y-1950000D02*
G75*
G03*
X7900000Y-1801000I0J149000D01*
G01*
X7900000Y4701000D02*
G75*
G03*
X7751000Y4850000I-149000J0D01*
G01*
X4700000Y4999000D02*
G75*
G03*
X4849000Y4850000I149000J0D01*
G01*
X4700000Y5001000D02*
G75*
G03*
X4551000Y5150000I-149000J0D01*
G01*
X2649000Y5150000D02*
G75*
G03*
X2500000Y5001000I0J-149000D01*
G01*
X2351000Y4550000D02*
G75*
G03*
X2500000Y4699000I0J149000D01*
G01*
X849000Y4550000D02*
G75*
G03*
X700000Y4401000I0J-149000D01*
G01*
X551000Y4250000D02*
G75*
G03*
X700000Y4399000I0J149000D01*
G01*
X-951000Y4250000D02*
G75*
G03*
X-1100000Y4101000I0J-149000D01*
G01*
X-1100000Y-701000D02*
G75*
G03*
X-951000Y-850000I149000J0D01*
G01*
D11*
D12*
X-635090Y3485090D02*
X-464910Y3314910D01*
X-464910Y3485090D02*
X-635090Y3314910D01*
X-635090Y1785090D02*
X-464910Y1614910D01*
X-464910Y1785090D02*
X-635090Y1614910D01*
X-635090Y85090D02*
X-464910Y-85090D01*
X-464910Y85090D02*
X-635090Y-85090D01*
X464910Y3485090D02*
X635090Y3314910D01*
X635090Y3485090D02*
X464910Y3314910D01*
X464910Y1785090D02*
X635090Y1614910D01*
X635090Y1785090D02*
X464910Y1614910D01*
X464910Y85090D02*
X635090Y-85090D01*
X635090Y85090D02*
X464910Y-85090D01*
X1164910Y3785090D02*
X1335090Y3614910D01*
X1335090Y3785090D02*
X1164910Y3614910D01*
X1164910Y2085090D02*
X1335090Y1914910D01*
X1335090Y2085090D02*
X1164910Y1914910D01*
X1164910Y385090D02*
X1335090Y214910D01*
X1335090Y385090D02*
X1164910Y214910D01*
X2264910Y3785090D02*
X2435090Y3614910D01*
X2435090Y3785090D02*
X2264910Y3614910D01*
X2264910Y2085090D02*
X2435090Y1914910D01*
X2435090Y2085090D02*
X2264910Y1914910D01*
X2264910Y385090D02*
X2435090Y214910D01*
X2435090Y385090D02*
X2264910Y214910D01*
X2964910Y4385090D02*
X3135090Y4214910D01*
X3135090Y4385090D02*
X2964910Y4214910D01*
X2964910Y2685090D02*
X3135090Y2514910D01*
X3135090Y2685090D02*
X2964910Y2514910D01*
X2964910Y985090D02*
X3135090Y814910D01*
X3135090Y985090D02*
X2964910Y814910D01*
X4064910Y4385090D02*
X4235090Y4214910D01*
X4235090Y4385090D02*
X4064910Y4214910D01*
X4064910Y2685090D02*
X4235090Y2514910D01*
X4235090Y2685090D02*
X4064910Y2514910D01*
X4064910Y985090D02*
X4235090Y814910D01*
X4235090Y985090D02*
X4064910Y814910D01*
X4764910Y4085090D02*
X4935090Y3914910D01*
X4935090Y4085090D02*
X4764910Y3914910D01*
X4764910Y2385090D02*
X4935090Y2214910D01*
X4935090Y2385090D02*
X4764910Y2214910D01*
X4764910Y685090D02*
X4935090Y514910D01*
X4935090Y685090D02*
X4764910Y514910D01*
X5864910Y4085090D02*
X6035090Y3914910D01*
X6035090Y4085090D02*
X5864910Y3914910D01*
X5864910Y2385090D02*
X6035090Y2214910D01*
X6035090Y2385090D02*
X5864910Y2214910D01*
X5864910Y685090D02*
X6035090Y514910D01*
X6035090Y685090D02*
X5864910Y514910D01*
X6564910Y2385090D02*
X6735090Y2214910D01*
X6735090Y2385090D02*
X6564910Y2214910D01*
X6564910Y685090D02*
X6735090Y514910D01*
X6735090Y685090D02*
X6564910Y514910D01*
X6564910Y-1014910D02*
X6735090Y-1185090D01*
X6735090Y-1014910D02*
X6564910Y-1185090D01*
X7664910Y2385090D02*
X7835090Y2214910D01*
X7835090Y2385090D02*
X7664910Y2214910D01*
X7664910Y685090D02*
X7835090Y514910D01*
X7835090Y685090D02*
X7664910Y514910D01*
X7664910Y-1014910D02*
X7835090Y-1185090D01*
X7835090Y-1014910D02*
X7664910Y-1185090D01*
D13*
X1260000Y2850000D02*
G75*
G03*
X1260000Y2850000I-110000J0D01*
G01*
X4610000Y3450000D02*
G75*
G03*
X4610000Y3450000I-110000J0D01*
G01*
X4610000Y50000D02*
G75*
G03*
X4610000Y50000I-110000J0D01*
G01*
X6410000Y3150000D02*
G75*
G03*
X6410000Y3150000I-110000J0D01*
G01*
X6410000Y-250000D02*
G75*
G03*
X6410000Y-250000I-110000J0D01*
G01*
D14*
X-500000Y-225000D02*
X-500000Y-525000D01*
X-650000Y-375000D02*
X-350000Y-375000D01*
X0Y-445000D02*
X0Y-745000D01*
X-150000Y-595000D02*
X150000Y-595000D01*
X1800000Y4445000D02*
X1800000Y4145000D01*
X1650000Y4295000D02*
X1950000Y4295000D01*
X1800000Y2745000D02*
X1800000Y2445000D01*
X1650000Y2595000D02*
X1950000Y2595000D01*
X1800000Y1045000D02*
X1800000Y745000D01*
X1650000Y895000D02*
X1950000Y895000D01*
X2300000Y4225000D02*
X2300000Y3925000D01*
X2150000Y4075000D02*
X2450000Y4075000D01*
X2300000Y2525000D02*
X2300000Y2225000D01*
X2150000Y2375000D02*
X2450000Y2375000D01*
X2300000Y825000D02*
X2300000Y525000D01*
X2150000Y675000D02*
X2450000Y675000D01*
X3600000Y5045000D02*
X3600000Y4745000D01*
X3450000Y4895000D02*
X3750000Y4895000D01*
X3600000Y3345000D02*
X3600000Y3045000D01*
X3450000Y3195000D02*
X3750000Y3195000D01*
X3600000Y1645000D02*
X3600000Y1345000D01*
X3450000Y1495000D02*
X3750000Y1495000D01*
X4100000Y4825000D02*
X4100000Y4525000D01*
X3950000Y4675000D02*
X4250000Y4675000D01*
X4100000Y3125000D02*
X4100000Y2825000D01*
X3950000Y2975000D02*
X4250000Y2975000D01*
X4100000Y1425000D02*
X4100000Y1125000D01*
X3950000Y1275000D02*
X4250000Y1275000D01*
X5400000Y4745000D02*
X5400000Y4445000D01*
X5250000Y4595000D02*
X5550000Y4595000D01*
X5400000Y3045000D02*
X5400000Y2745000D01*
X5250000Y2895000D02*
X5550000Y2895000D01*
X5400000Y1345000D02*
X5400000Y1045000D01*
X5250000Y1195000D02*
X5550000Y1195000D01*
X5900000Y4525000D02*
X5900000Y4225000D01*
X5750000Y4375000D02*
X6050000Y4375000D01*
X5900000Y2825000D02*
X5900000Y2525000D01*
X5750000Y2675000D02*
X6050000Y2675000D01*
X5900000Y1125000D02*
X5900000Y825000D01*
X5750000Y975000D02*
X6050000Y975000D01*
X6700000Y2075000D02*
X6700000Y1775000D01*
X6550000Y1925000D02*
X6850000Y1925000D01*
X6700000Y375000D02*
X6700000Y75000D01*
X6550000Y225000D02*
X6850000Y225000D01*
X6700000Y-1325000D02*
X6700000Y-1625000D01*
X6550000Y-1475000D02*
X6850000Y-1475000D01*
X7200000Y1855000D02*
X7200000Y1555000D01*
X7050000Y1705000D02*
X7350000Y1705000D01*
X7200000Y155000D02*
X7200000Y-145000D01*
X7050000Y5000D02*
X7350000Y5000D01*
X7200000Y-1545000D02*
X7200000Y-1845000D01*
X7050000Y-1695000D02*
X7350000Y-1695000D01*
D15*
X121235Y3278765D02*
X121235Y3521235D01*
X-121235Y3521235D01*
X-121235Y3278765D01*
X121235Y3278765D01*
X121235Y1578765D02*
X121235Y1821235D01*
X-121235Y1821235D01*
X-121235Y1578765D01*
X121235Y1578765D01*
X121235Y-121235D02*
X121235Y121235D01*
X-121235Y121235D01*
X-121235Y-121235D01*
X121235Y-121235D01*
X1921235Y3578765D02*
X1921235Y3821235D01*
X1678765Y3821235D01*
X1678765Y3578765D01*
X1921235Y3578765D01*
X1921235Y1878765D02*
X1921235Y2121235D01*
X1678765Y2121235D01*
X1678765Y1878765D01*
X1921235Y1878765D01*
X1921235Y178765D02*
X1921235Y421235D01*
X1678765Y421235D01*
X1678765Y178765D01*
X1921235Y178765D01*
X3721235Y4178765D02*
X3721235Y4421235D01*
X3478765Y4421235D01*
X3478765Y4178765D01*
X3721235Y4178765D01*
X3721235Y2478765D02*
X3721235Y2721235D01*
X3478765Y2721235D01*
X3478765Y2478765D01*
X3721235Y2478765D01*
X3721235Y778765D02*
X3721235Y1021235D01*
X3478765Y1021235D01*
X3478765Y778765D01*
X3721235Y778765D01*
X5521235Y3878765D02*
X5521235Y4121235D01*
X5278765Y4121235D01*
X5278765Y3878765D01*
X5521235Y3878765D01*
X5521235Y2178765D02*
X5521235Y2421235D01*
X5278765Y2421235D01*
X5278765Y2178765D01*
X5521235Y2178765D01*
X5521235Y478765D02*
X5521235Y721235D01*
X5278765Y721235D01*
X5278765Y478765D01*
X5521235Y478765D01*
X7321235Y3878765D02*
X7321235Y4121235D01*
X7078765Y4121235D01*
X7078765Y3878765D01*
X7321235Y3878765D01*
X7321235Y2178765D02*
X7321235Y2421235D01*
X7078765Y2421235D01*
X7078765Y2178765D01*
X7321235Y2178765D01*
X7321235Y478765D02*
X7321235Y721235D01*
X7078765Y721235D01*
X7078765Y478765D01*
X7321235Y478765D01*
X7321235Y-1221235D02*
X7321235Y-978765D01*
X7078765Y-978765D01*
X7078765Y-1221235D01*
X7321235Y-1221235D01*
D11*
X-859881Y-2250976D02*
X-859881Y-2050976D01*
X-859881Y-2050976D02*
X-812262Y-2050976D01*
X-812262Y-2050976D02*
X-783690Y-2060500D01*
X-783690Y-2060500D02*
X-764643Y-2079548D01*
X-764643Y-2079548D02*
X-755119Y-2098595D01*
X-755119Y-2098595D02*
X-745595Y-2136690D01*
X-745595Y-2136690D02*
X-745595Y-2165262D01*
X-745595Y-2165262D02*
X-755119Y-2203357D01*
X-755119Y-2203357D02*
X-764643Y-2222405D01*
X-764643Y-2222405D02*
X-783690Y-2241452D01*
X-783690Y-2241452D02*
X-812262Y-2250976D01*
X-812262Y-2250976D02*
X-859881Y-2250976D01*
X-659881Y-2250976D02*
X-659881Y-2117643D01*
X-659881Y-2155738D02*
X-650357Y-2136690D01*
X-650357Y-2136690D02*
X-640833Y-2127167D01*
X-640833Y-2127167D02*
X-621786Y-2117643D01*
X-621786Y-2117643D02*
X-602738Y-2117643D01*
X-536071Y-2250976D02*
X-536071Y-2117643D01*
X-536071Y-2050976D02*
X-545595Y-2060500D01*
X-545595Y-2060500D02*
X-536071Y-2070024D01*
X-536071Y-2070024D02*
X-526548Y-2060500D01*
X-526548Y-2060500D02*
X-536071Y-2050976D01*
X-536071Y-2050976D02*
X-536071Y-2070024D01*
X-412262Y-2250976D02*
X-431309Y-2241452D01*
X-431309Y-2241452D02*
X-440833Y-2222405D01*
X-440833Y-2222405D02*
X-440833Y-2050976D01*
X-307500Y-2250976D02*
X-326548Y-2241452D01*
X-326548Y-2241452D02*
X-336071Y-2222405D01*
X-336071Y-2222405D02*
X-336071Y-2050976D01*
X-111309Y-2250976D02*
X-111309Y-2050976D01*
X-111309Y-2050976D02*
X-44643Y-2193833D01*
X-44643Y-2193833D02*
X22024Y-2050976D01*
X22024Y-2050976D02*
X22024Y-2250976D01*
X202976Y-2250976D02*
X202976Y-2146214D01*
X202976Y-2146214D02*
X193452Y-2127167D01*
X193452Y-2127167D02*
X174405Y-2117643D01*
X174405Y-2117643D02*
X136309Y-2117643D01*
X136309Y-2117643D02*
X117262Y-2127167D01*
X202976Y-2241452D02*
X183928Y-2250976D01*
X183928Y-2250976D02*
X136309Y-2250976D01*
X136309Y-2250976D02*
X117262Y-2241452D01*
X117262Y-2241452D02*
X107738Y-2222405D01*
X107738Y-2222405D02*
X107738Y-2203357D01*
X107738Y-2203357D02*
X117262Y-2184310D01*
X117262Y-2184310D02*
X136309Y-2174786D01*
X136309Y-2174786D02*
X183928Y-2174786D01*
X183928Y-2174786D02*
X202976Y-2165262D01*
X298214Y-2117643D02*
X298214Y-2317643D01*
X298214Y-2127167D02*
X317262Y-2117643D01*
X317262Y-2117643D02*
X355357Y-2117643D01*
X355357Y-2117643D02*
X374405Y-2127167D01*
X374405Y-2127167D02*
X383928Y-2136690D01*
X383928Y-2136690D02*
X393452Y-2155738D01*
X393452Y-2155738D02*
X393452Y-2212881D01*
X393452Y-2212881D02*
X383928Y-2231929D01*
X383928Y-2231929D02*
X374405Y-2241452D01*
X374405Y-2241452D02*
X355357Y-2250976D01*
X355357Y-2250976D02*
X317262Y-2250976D01*
X317262Y-2250976D02*
X298214Y-2241452D01*
X479167Y-2231929D02*
X488690Y-2241452D01*
X488690Y-2241452D02*
X479167Y-2250976D01*
X479167Y-2250976D02*
X469643Y-2241452D01*
X469643Y-2241452D02*
X479167Y-2231929D01*
X479167Y-2231929D02*
X479167Y-2250976D01*
X479167Y-2127167D02*
X488690Y-2136690D01*
X488690Y-2136690D02*
X479167Y-2146214D01*
X479167Y-2146214D02*
X469643Y-2136690D01*
X469643Y-2136690D02*
X479167Y-2127167D01*
X479167Y-2127167D02*
X479167Y-2146214D01*
D12*
X-1277680Y-2512410D02*
X-1107500Y-2682590D01*
X-1107500Y-2512410D02*
X-1277680Y-2682590D01*
D11*
X-755119Y-2670976D02*
X-869405Y-2670976D01*
X-812262Y-2670976D02*
X-812262Y-2470976D01*
X-812262Y-2470976D02*
X-831309Y-2499548D01*
X-831309Y-2499548D02*
X-850357Y-2518595D01*
X-850357Y-2518595D02*
X-869405Y-2528119D01*
X-669405Y-2651929D02*
X-659881Y-2661452D01*
X-659881Y-2661452D02*
X-669405Y-2670976D01*
X-669405Y-2670976D02*
X-678929Y-2661452D01*
X-678929Y-2661452D02*
X-669405Y-2651929D01*
X-669405Y-2651929D02*
X-669405Y-2670976D01*
X-593214Y-2470976D02*
X-459881Y-2470976D01*
X-459881Y-2470976D02*
X-545595Y-2670976D01*
X-345595Y-2470976D02*
X-326548Y-2470976D01*
X-326548Y-2470976D02*
X-307500Y-2480500D01*
X-307500Y-2480500D02*
X-297976Y-2490024D01*
X-297976Y-2490024D02*
X-288452Y-2509071D01*
X-288452Y-2509071D02*
X-278929Y-2547167D01*
X-278929Y-2547167D02*
X-278929Y-2594786D01*
X-278929Y-2594786D02*
X-288452Y-2632881D01*
X-288452Y-2632881D02*
X-297976Y-2651929D01*
X-297976Y-2651929D02*
X-307500Y-2661452D01*
X-307500Y-2661452D02*
X-326548Y-2670976D01*
X-326548Y-2670976D02*
X-345595Y-2670976D01*
X-345595Y-2670976D02*
X-364643Y-2661452D01*
X-364643Y-2661452D02*
X-374167Y-2651929D01*
X-374167Y-2651929D02*
X-383690Y-2632881D01*
X-383690Y-2632881D02*
X-393214Y-2594786D01*
X-393214Y-2594786D02*
X-393214Y-2547167D01*
X-393214Y-2547167D02*
X-383690Y-2509071D01*
X-383690Y-2509071D02*
X-374167Y-2490024D01*
X-374167Y-2490024D02*
X-364643Y-2480500D01*
X-364643Y-2480500D02*
X-345595Y-2470976D01*
X-202738Y-2490024D02*
X-193214Y-2480500D01*
X-193214Y-2480500D02*
X-174167Y-2470976D01*
X-174167Y-2470976D02*
X-126547Y-2470976D01*
X-126547Y-2470976D02*
X-107500Y-2480500D01*
X-107500Y-2480500D02*
X-97976Y-2490024D01*
X-97976Y-2490024D02*
X-88452Y-2509071D01*
X-88452Y-2509071D02*
X-88452Y-2528119D01*
X-88452Y-2528119D02*
X-97976Y-2556690D01*
X-97976Y-2556690D02*
X-212262Y-2670976D01*
X-212262Y-2670976D02*
X-88452Y-2670976D01*
X-2738Y-2670976D02*
X-2738Y-2537643D01*
X-2738Y-2556690D02*
X6786Y-2547167D01*
X6786Y-2547167D02*
X25833Y-2537643D01*
X25833Y-2537643D02*
X54405Y-2537643D01*
X54405Y-2537643D02*
X73452Y-2547167D01*
X73452Y-2547167D02*
X82976Y-2566214D01*
X82976Y-2566214D02*
X82976Y-2670976D01*
X82976Y-2566214D02*
X92500Y-2547167D01*
X92500Y-2547167D02*
X111548Y-2537643D01*
X111548Y-2537643D02*
X140119Y-2537643D01*
X140119Y-2537643D02*
X159167Y-2547167D01*
X159167Y-2547167D02*
X168691Y-2566214D01*
X168691Y-2566214D02*
X168691Y-2670976D01*
X263929Y-2670976D02*
X263929Y-2537643D01*
X263929Y-2556690D02*
X273452Y-2547167D01*
X273452Y-2547167D02*
X292500Y-2537643D01*
X292500Y-2537643D02*
X321072Y-2537643D01*
X321072Y-2537643D02*
X340119Y-2547167D01*
X340119Y-2547167D02*
X349643Y-2566214D01*
X349643Y-2566214D02*
X349643Y-2670976D01*
X349643Y-2566214D02*
X359167Y-2547167D01*
X359167Y-2547167D02*
X378214Y-2537643D01*
X378214Y-2537643D02*
X406786Y-2537643D01*
X406786Y-2537643D02*
X425833Y-2547167D01*
X425833Y-2547167D02*
X435357Y-2566214D01*
X435357Y-2566214D02*
X435357Y-2670976D01*
X793452Y-2461452D02*
X622024Y-2718595D01*
X1018214Y-2470976D02*
X1037262Y-2470976D01*
X1037262Y-2470976D02*
X1056310Y-2480500D01*
X1056310Y-2480500D02*
X1065833Y-2490024D01*
X1065833Y-2490024D02*
X1075357Y-2509071D01*
X1075357Y-2509071D02*
X1084881Y-2547167D01*
X1084881Y-2547167D02*
X1084881Y-2594786D01*
X1084881Y-2594786D02*
X1075357Y-2632881D01*
X1075357Y-2632881D02*
X1065833Y-2651929D01*
X1065833Y-2651929D02*
X1056310Y-2661452D01*
X1056310Y-2661452D02*
X1037262Y-2670976D01*
X1037262Y-2670976D02*
X1018214Y-2670976D01*
X1018214Y-2670976D02*
X999167Y-2661452D01*
X999167Y-2661452D02*
X989643Y-2651929D01*
X989643Y-2651929D02*
X980119Y-2632881D01*
X980119Y-2632881D02*
X970595Y-2594786D01*
X970595Y-2594786D02*
X970595Y-2547167D01*
X970595Y-2547167D02*
X980119Y-2509071D01*
X980119Y-2509071D02*
X989643Y-2490024D01*
X989643Y-2490024D02*
X999167Y-2480500D01*
X999167Y-2480500D02*
X1018214Y-2470976D01*
X1170595Y-2651929D02*
X1180119Y-2661452D01*
X1180119Y-2661452D02*
X1170595Y-2670976D01*
X1170595Y-2670976D02*
X1161072Y-2661452D01*
X1161072Y-2661452D02*
X1170595Y-2651929D01*
X1170595Y-2651929D02*
X1170595Y-2670976D01*
X1303929Y-2470976D02*
X1322976Y-2470976D01*
X1322976Y-2470976D02*
X1342024Y-2480500D01*
X1342024Y-2480500D02*
X1351548Y-2490024D01*
X1351548Y-2490024D02*
X1361072Y-2509071D01*
X1361072Y-2509071D02*
X1370595Y-2547167D01*
X1370595Y-2547167D02*
X1370595Y-2594786D01*
X1370595Y-2594786D02*
X1361072Y-2632881D01*
X1361072Y-2632881D02*
X1351548Y-2651929D01*
X1351548Y-2651929D02*
X1342024Y-2661452D01*
X1342024Y-2661452D02*
X1322976Y-2670976D01*
X1322976Y-2670976D02*
X1303929Y-2670976D01*
X1303929Y-2670976D02*
X1284881Y-2661452D01*
X1284881Y-2661452D02*
X1275357Y-2651929D01*
X1275357Y-2651929D02*
X1265833Y-2632881D01*
X1265833Y-2632881D02*
X1256310Y-2594786D01*
X1256310Y-2594786D02*
X1256310Y-2547167D01*
X1256310Y-2547167D02*
X1265833Y-2509071D01*
X1265833Y-2509071D02*
X1275357Y-2490024D01*
X1275357Y-2490024D02*
X1284881Y-2480500D01*
X1284881Y-2480500D02*
X1303929Y-2470976D01*
X1542024Y-2470976D02*
X1503929Y-2470976D01*
X1503929Y-2470976D02*
X1484881Y-2480500D01*
X1484881Y-2480500D02*
X1475357Y-2490024D01*
X1475357Y-2490024D02*
X1456310Y-2518595D01*
X1456310Y-2518595D02*
X1446786Y-2556690D01*
X1446786Y-2556690D02*
X1446786Y-2632881D01*
X1446786Y-2632881D02*
X1456310Y-2651929D01*
X1456310Y-2651929D02*
X1465833Y-2661452D01*
X1465833Y-2661452D02*
X1484881Y-2670976D01*
X1484881Y-2670976D02*
X1522976Y-2670976D01*
X1522976Y-2670976D02*
X1542024Y-2661452D01*
X1542024Y-2661452D02*
X1551548Y-2651929D01*
X1551548Y-2651929D02*
X1561071Y-2632881D01*
X1561071Y-2632881D02*
X1561071Y-2585262D01*
X1561071Y-2585262D02*
X1551548Y-2566214D01*
X1551548Y-2566214D02*
X1542024Y-2556690D01*
X1542024Y-2556690D02*
X1522976Y-2547167D01*
X1522976Y-2547167D02*
X1484881Y-2547167D01*
X1484881Y-2547167D02*
X1465833Y-2556690D01*
X1465833Y-2556690D02*
X1456310Y-2566214D01*
X1456310Y-2566214D02*
X1446786Y-2585262D01*
X1627738Y-2470976D02*
X1761071Y-2470976D01*
X1761071Y-2470976D02*
X1675357Y-2670976D01*
X1875357Y-2470976D02*
X1894405Y-2470976D01*
X1894405Y-2470976D02*
X1913452Y-2480500D01*
X1913452Y-2480500D02*
X1922976Y-2490024D01*
X1922976Y-2490024D02*
X1932500Y-2509071D01*
X1932500Y-2509071D02*
X1942024Y-2547167D01*
X1942024Y-2547167D02*
X1942024Y-2594786D01*
X1942024Y-2594786D02*
X1932500Y-2632881D01*
X1932500Y-2632881D02*
X1922976Y-2651929D01*
X1922976Y-2651929D02*
X1913452Y-2661452D01*
X1913452Y-2661452D02*
X1894405Y-2670976D01*
X1894405Y-2670976D02*
X1875357Y-2670976D01*
X1875357Y-2670976D02*
X1856310Y-2661452D01*
X1856310Y-2661452D02*
X1846786Y-2651929D01*
X1846786Y-2651929D02*
X1837262Y-2632881D01*
X1837262Y-2632881D02*
X1827738Y-2594786D01*
X1827738Y-2594786D02*
X1827738Y-2547167D01*
X1827738Y-2547167D02*
X1837262Y-2509071D01*
X1837262Y-2509071D02*
X1846786Y-2490024D01*
X1846786Y-2490024D02*
X1856310Y-2480500D01*
X1856310Y-2480500D02*
X1875357Y-2470976D01*
X2018214Y-2470976D02*
X2018214Y-2509071D01*
X2094405Y-2470976D02*
X2094405Y-2509071D01*
X2357262Y-2747167D02*
X2347738Y-2737643D01*
X2347738Y-2737643D02*
X2328691Y-2709071D01*
X2328691Y-2709071D02*
X2319167Y-2690024D01*
X2319167Y-2690024D02*
X2309643Y-2661452D01*
X2309643Y-2661452D02*
X2300119Y-2613833D01*
X2300119Y-2613833D02*
X2300119Y-2575738D01*
X2300119Y-2575738D02*
X2309643Y-2528119D01*
X2309643Y-2528119D02*
X2319167Y-2499548D01*
X2319167Y-2499548D02*
X2328691Y-2480500D01*
X2328691Y-2480500D02*
X2347738Y-2451929D01*
X2347738Y-2451929D02*
X2357262Y-2442405D01*
X2414405Y-2470976D02*
X2538214Y-2470976D01*
X2538214Y-2470976D02*
X2471548Y-2547167D01*
X2471548Y-2547167D02*
X2500119Y-2547167D01*
X2500119Y-2547167D02*
X2519167Y-2556690D01*
X2519167Y-2556690D02*
X2528691Y-2566214D01*
X2528691Y-2566214D02*
X2538214Y-2585262D01*
X2538214Y-2585262D02*
X2538214Y-2632881D01*
X2538214Y-2632881D02*
X2528691Y-2651929D01*
X2528691Y-2651929D02*
X2519167Y-2661452D01*
X2519167Y-2661452D02*
X2500119Y-2670976D01*
X2500119Y-2670976D02*
X2442976Y-2670976D01*
X2442976Y-2670976D02*
X2423929Y-2661452D01*
X2423929Y-2661452D02*
X2414405Y-2651929D01*
X2662024Y-2470976D02*
X2681072Y-2470976D01*
X2681072Y-2470976D02*
X2700119Y-2480500D01*
X2700119Y-2480500D02*
X2709643Y-2490024D01*
X2709643Y-2490024D02*
X2719167Y-2509071D01*
X2719167Y-2509071D02*
X2728691Y-2547167D01*
X2728691Y-2547167D02*
X2728691Y-2594786D01*
X2728691Y-2594786D02*
X2719167Y-2632881D01*
X2719167Y-2632881D02*
X2709643Y-2651929D01*
X2709643Y-2651929D02*
X2700119Y-2661452D01*
X2700119Y-2661452D02*
X2681072Y-2670976D01*
X2681072Y-2670976D02*
X2662024Y-2670976D01*
X2662024Y-2670976D02*
X2642976Y-2661452D01*
X2642976Y-2661452D02*
X2633453Y-2651929D01*
X2633453Y-2651929D02*
X2623929Y-2632881D01*
X2623929Y-2632881D02*
X2614405Y-2594786D01*
X2614405Y-2594786D02*
X2614405Y-2547167D01*
X2614405Y-2547167D02*
X2623929Y-2509071D01*
X2623929Y-2509071D02*
X2633453Y-2490024D01*
X2633453Y-2490024D02*
X2642976Y-2480500D01*
X2642976Y-2480500D02*
X2662024Y-2470976D01*
X2934405Y-2670976D02*
X2934405Y-2470976D01*
X3020119Y-2670976D02*
X3020119Y-2566214D01*
X3020119Y-2566214D02*
X3010595Y-2547167D01*
X3010595Y-2547167D02*
X2991548Y-2537643D01*
X2991548Y-2537643D02*
X2962976Y-2537643D01*
X2962976Y-2537643D02*
X2943929Y-2547167D01*
X2943929Y-2547167D02*
X2934405Y-2556690D01*
X3143929Y-2670976D02*
X3124881Y-2661452D01*
X3124881Y-2661452D02*
X3115357Y-2651929D01*
X3115357Y-2651929D02*
X3105833Y-2632881D01*
X3105833Y-2632881D02*
X3105833Y-2575738D01*
X3105833Y-2575738D02*
X3115357Y-2556690D01*
X3115357Y-2556690D02*
X3124881Y-2547167D01*
X3124881Y-2547167D02*
X3143929Y-2537643D01*
X3143929Y-2537643D02*
X3172500Y-2537643D01*
X3172500Y-2537643D02*
X3191548Y-2547167D01*
X3191548Y-2547167D02*
X3201072Y-2556690D01*
X3201072Y-2556690D02*
X3210595Y-2575738D01*
X3210595Y-2575738D02*
X3210595Y-2632881D01*
X3210595Y-2632881D02*
X3201072Y-2651929D01*
X3201072Y-2651929D02*
X3191548Y-2661452D01*
X3191548Y-2661452D02*
X3172500Y-2670976D01*
X3172500Y-2670976D02*
X3143929Y-2670976D01*
X3324881Y-2670976D02*
X3305833Y-2661452D01*
X3305833Y-2661452D02*
X3296310Y-2642405D01*
X3296310Y-2642405D02*
X3296310Y-2470976D01*
X3477262Y-2661452D02*
X3458214Y-2670976D01*
X3458214Y-2670976D02*
X3420119Y-2670976D01*
X3420119Y-2670976D02*
X3401072Y-2661452D01*
X3401072Y-2661452D02*
X3391548Y-2642405D01*
X3391548Y-2642405D02*
X3391548Y-2566214D01*
X3391548Y-2566214D02*
X3401072Y-2547167D01*
X3401072Y-2547167D02*
X3420119Y-2537643D01*
X3420119Y-2537643D02*
X3458214Y-2537643D01*
X3458214Y-2537643D02*
X3477262Y-2547167D01*
X3477262Y-2547167D02*
X3486786Y-2566214D01*
X3486786Y-2566214D02*
X3486786Y-2585262D01*
X3486786Y-2585262D02*
X3391548Y-2604310D01*
X3562976Y-2661452D02*
X3582024Y-2670976D01*
X3582024Y-2670976D02*
X3620119Y-2670976D01*
X3620119Y-2670976D02*
X3639167Y-2661452D01*
X3639167Y-2661452D02*
X3648691Y-2642405D01*
X3648691Y-2642405D02*
X3648691Y-2632881D01*
X3648691Y-2632881D02*
X3639167Y-2613833D01*
X3639167Y-2613833D02*
X3620119Y-2604310D01*
X3620119Y-2604310D02*
X3591548Y-2604310D01*
X3591548Y-2604310D02*
X3572500Y-2594786D01*
X3572500Y-2594786D02*
X3562976Y-2575738D01*
X3562976Y-2575738D02*
X3562976Y-2566214D01*
X3562976Y-2566214D02*
X3572500Y-2547167D01*
X3572500Y-2547167D02*
X3591548Y-2537643D01*
X3591548Y-2537643D02*
X3620119Y-2537643D01*
X3620119Y-2537643D02*
X3639167Y-2547167D01*
X3715357Y-2747167D02*
X3724881Y-2737643D01*
X3724881Y-2737643D02*
X3743929Y-2709071D01*
X3743929Y-2709071D02*
X3753453Y-2690024D01*
X3753453Y-2690024D02*
X3762976Y-2661452D01*
X3762976Y-2661452D02*
X3772500Y-2613833D01*
X3772500Y-2613833D02*
X3772500Y-2575738D01*
X3772500Y-2575738D02*
X3762976Y-2528119D01*
X3762976Y-2528119D02*
X3753453Y-2499548D01*
X3753453Y-2499548D02*
X3743929Y-2480500D01*
X3743929Y-2480500D02*
X3724881Y-2451929D01*
X3724881Y-2451929D02*
X3715357Y-2442405D01*
X4044881Y-2747167D02*
X4035357Y-2737643D01*
X4035357Y-2737643D02*
X4016310Y-2709071D01*
X4016310Y-2709071D02*
X4006786Y-2690024D01*
X4006786Y-2690024D02*
X3997262Y-2661452D01*
X3997262Y-2661452D02*
X3987738Y-2613833D01*
X3987738Y-2613833D02*
X3987738Y-2575738D01*
X3987738Y-2575738D02*
X3997262Y-2528119D01*
X3997262Y-2528119D02*
X4006786Y-2499548D01*
X4006786Y-2499548D02*
X4016310Y-2480500D01*
X4016310Y-2480500D02*
X4035357Y-2451929D01*
X4035357Y-2451929D02*
X4044881Y-2442405D01*
X4121072Y-2537643D02*
X4121072Y-2670976D01*
X4121072Y-2556690D02*
X4130595Y-2547167D01*
X4130595Y-2547167D02*
X4149643Y-2537643D01*
X4149643Y-2537643D02*
X4178214Y-2537643D01*
X4178214Y-2537643D02*
X4197262Y-2547167D01*
X4197262Y-2547167D02*
X4206786Y-2566214D01*
X4206786Y-2566214D02*
X4206786Y-2670976D01*
X4330595Y-2670976D02*
X4311548Y-2661452D01*
X4311548Y-2661452D02*
X4302024Y-2651929D01*
X4302024Y-2651929D02*
X4292500Y-2632881D01*
X4292500Y-2632881D02*
X4292500Y-2575738D01*
X4292500Y-2575738D02*
X4302024Y-2556690D01*
X4302024Y-2556690D02*
X4311548Y-2547167D01*
X4311548Y-2547167D02*
X4330595Y-2537643D01*
X4330595Y-2537643D02*
X4359167Y-2537643D01*
X4359167Y-2537643D02*
X4378215Y-2547167D01*
X4378215Y-2547167D02*
X4387738Y-2556690D01*
X4387738Y-2556690D02*
X4397262Y-2575738D01*
X4397262Y-2575738D02*
X4397262Y-2632881D01*
X4397262Y-2632881D02*
X4387738Y-2651929D01*
X4387738Y-2651929D02*
X4378215Y-2661452D01*
X4378215Y-2661452D02*
X4359167Y-2670976D01*
X4359167Y-2670976D02*
X4330595Y-2670976D01*
X4454405Y-2537643D02*
X4530595Y-2537643D01*
X4482976Y-2470976D02*
X4482976Y-2642405D01*
X4482976Y-2642405D02*
X4492500Y-2661452D01*
X4492500Y-2661452D02*
X4511548Y-2670976D01*
X4511548Y-2670976D02*
X4530595Y-2670976D01*
X4717262Y-2537643D02*
X4717262Y-2737643D01*
X4717262Y-2547167D02*
X4736310Y-2537643D01*
X4736310Y-2537643D02*
X4774405Y-2537643D01*
X4774405Y-2537643D02*
X4793453Y-2547167D01*
X4793453Y-2547167D02*
X4802976Y-2556690D01*
X4802976Y-2556690D02*
X4812500Y-2575738D01*
X4812500Y-2575738D02*
X4812500Y-2632881D01*
X4812500Y-2632881D02*
X4802976Y-2651929D01*
X4802976Y-2651929D02*
X4793453Y-2661452D01*
X4793453Y-2661452D02*
X4774405Y-2670976D01*
X4774405Y-2670976D02*
X4736310Y-2670976D01*
X4736310Y-2670976D02*
X4717262Y-2661452D01*
X4926786Y-2670976D02*
X4907738Y-2661452D01*
X4907738Y-2661452D02*
X4898215Y-2642405D01*
X4898215Y-2642405D02*
X4898215Y-2470976D01*
X5088691Y-2670976D02*
X5088691Y-2566214D01*
X5088691Y-2566214D02*
X5079167Y-2547167D01*
X5079167Y-2547167D02*
X5060119Y-2537643D01*
X5060119Y-2537643D02*
X5022024Y-2537643D01*
X5022024Y-2537643D02*
X5002976Y-2547167D01*
X5088691Y-2661452D02*
X5069643Y-2670976D01*
X5069643Y-2670976D02*
X5022024Y-2670976D01*
X5022024Y-2670976D02*
X5002976Y-2661452D01*
X5002976Y-2661452D02*
X4993453Y-2642405D01*
X4993453Y-2642405D02*
X4993453Y-2623357D01*
X4993453Y-2623357D02*
X5002976Y-2604310D01*
X5002976Y-2604310D02*
X5022024Y-2594786D01*
X5022024Y-2594786D02*
X5069643Y-2594786D01*
X5069643Y-2594786D02*
X5088691Y-2585262D01*
X5155357Y-2537643D02*
X5231548Y-2537643D01*
X5183929Y-2470976D02*
X5183929Y-2642405D01*
X5183929Y-2642405D02*
X5193453Y-2661452D01*
X5193453Y-2661452D02*
X5212500Y-2670976D01*
X5212500Y-2670976D02*
X5231548Y-2670976D01*
X5374405Y-2661452D02*
X5355357Y-2670976D01*
X5355357Y-2670976D02*
X5317262Y-2670976D01*
X5317262Y-2670976D02*
X5298215Y-2661452D01*
X5298215Y-2661452D02*
X5288691Y-2642405D01*
X5288691Y-2642405D02*
X5288691Y-2566214D01*
X5288691Y-2566214D02*
X5298215Y-2547167D01*
X5298215Y-2547167D02*
X5317262Y-2537643D01*
X5317262Y-2537643D02*
X5355357Y-2537643D01*
X5355357Y-2537643D02*
X5374405Y-2547167D01*
X5374405Y-2547167D02*
X5383929Y-2566214D01*
X5383929Y-2566214D02*
X5383929Y-2585262D01*
X5383929Y-2585262D02*
X5288691Y-2604310D01*
X5555357Y-2670976D02*
X5555357Y-2470976D01*
X5555357Y-2661452D02*
X5536310Y-2670976D01*
X5536310Y-2670976D02*
X5498215Y-2670976D01*
X5498215Y-2670976D02*
X5479167Y-2661452D01*
X5479167Y-2661452D02*
X5469643Y-2651929D01*
X5469643Y-2651929D02*
X5460119Y-2632881D01*
X5460119Y-2632881D02*
X5460119Y-2575738D01*
X5460119Y-2575738D02*
X5469643Y-2556690D01*
X5469643Y-2556690D02*
X5479167Y-2547167D01*
X5479167Y-2547167D02*
X5498215Y-2537643D01*
X5498215Y-2537643D02*
X5536310Y-2537643D01*
X5536310Y-2537643D02*
X5555357Y-2547167D01*
X5631548Y-2747167D02*
X5641072Y-2737643D01*
X5641072Y-2737643D02*
X5660119Y-2709071D01*
X5660119Y-2709071D02*
X5669643Y-2690024D01*
X5669643Y-2690024D02*
X5679167Y-2661452D01*
X5679167Y-2661452D02*
X5688691Y-2613833D01*
X5688691Y-2613833D02*
X5688691Y-2575738D01*
X5688691Y-2575738D02*
X5679167Y-2528119D01*
X5679167Y-2528119D02*
X5669643Y-2499548D01*
X5669643Y-2499548D02*
X5660119Y-2480500D01*
X5660119Y-2480500D02*
X5641072Y-2451929D01*
X5641072Y-2451929D02*
X5631548Y-2442405D01*
X-1107500Y-2887680D02*
G75*
G03*
X-1107500Y-2887680I-100000J0D01*
G01*
X-869405Y-2780204D02*
X-859881Y-2770680D01*
X-859881Y-2770680D02*
X-840833Y-2761156D01*
X-840833Y-2761156D02*
X-793214Y-2761156D01*
X-793214Y-2761156D02*
X-774167Y-2770680D01*
X-774167Y-2770680D02*
X-764643Y-2780204D01*
X-764643Y-2780204D02*
X-755119Y-2799251D01*
X-755119Y-2799251D02*
X-755119Y-2818299D01*
X-755119Y-2818299D02*
X-764643Y-2846870D01*
X-764643Y-2846870D02*
X-878928Y-2961156D01*
X-878928Y-2961156D02*
X-755119Y-2961156D01*
X-669405Y-2942108D02*
X-659881Y-2951632D01*
X-659881Y-2951632D02*
X-669405Y-2961156D01*
X-669405Y-2961156D02*
X-678929Y-2951632D01*
X-678929Y-2951632D02*
X-669405Y-2942108D01*
X-669405Y-2942108D02*
X-669405Y-2961156D01*
X-583690Y-2780204D02*
X-574167Y-2770680D01*
X-574167Y-2770680D02*
X-555119Y-2761156D01*
X-555119Y-2761156D02*
X-507500Y-2761156D01*
X-507500Y-2761156D02*
X-488452Y-2770680D01*
X-488452Y-2770680D02*
X-478928Y-2780204D01*
X-478928Y-2780204D02*
X-469405Y-2799251D01*
X-469405Y-2799251D02*
X-469405Y-2818299D01*
X-469405Y-2818299D02*
X-478928Y-2846870D01*
X-478928Y-2846870D02*
X-593214Y-2961156D01*
X-593214Y-2961156D02*
X-469405Y-2961156D01*
X-345595Y-2761156D02*
X-326548Y-2761156D01*
X-326548Y-2761156D02*
X-307500Y-2770680D01*
X-307500Y-2770680D02*
X-297976Y-2780204D01*
X-297976Y-2780204D02*
X-288452Y-2799251D01*
X-288452Y-2799251D02*
X-278929Y-2837347D01*
X-278929Y-2837347D02*
X-278929Y-2884966D01*
X-278929Y-2884966D02*
X-288452Y-2923061D01*
X-288452Y-2923061D02*
X-297976Y-2942108D01*
X-297976Y-2942108D02*
X-307500Y-2951632D01*
X-307500Y-2951632D02*
X-326548Y-2961156D01*
X-326548Y-2961156D02*
X-345595Y-2961156D01*
X-345595Y-2961156D02*
X-364643Y-2951632D01*
X-364643Y-2951632D02*
X-374167Y-2942108D01*
X-374167Y-2942108D02*
X-383690Y-2923061D01*
X-383690Y-2923061D02*
X-393214Y-2884966D01*
X-393214Y-2884966D02*
X-393214Y-2837347D01*
X-393214Y-2837347D02*
X-383690Y-2799251D01*
X-383690Y-2799251D02*
X-374167Y-2780204D01*
X-374167Y-2780204D02*
X-364643Y-2770680D01*
X-364643Y-2770680D02*
X-345595Y-2761156D01*
X-155119Y-2761156D02*
X-136071Y-2761156D01*
X-136071Y-2761156D02*
X-117024Y-2770680D01*
X-117024Y-2770680D02*
X-107500Y-2780204D01*
X-107500Y-2780204D02*
X-97976Y-2799251D01*
X-97976Y-2799251D02*
X-88452Y-2837347D01*
X-88452Y-2837347D02*
X-88452Y-2884966D01*
X-88452Y-2884966D02*
X-97976Y-2923061D01*
X-97976Y-2923061D02*
X-107500Y-2942108D01*
X-107500Y-2942108D02*
X-117024Y-2951632D01*
X-117024Y-2951632D02*
X-136071Y-2961156D01*
X-136071Y-2961156D02*
X-155119Y-2961156D01*
X-155119Y-2961156D02*
X-174167Y-2951632D01*
X-174167Y-2951632D02*
X-183690Y-2942108D01*
X-183690Y-2942108D02*
X-193214Y-2923061D01*
X-193214Y-2923061D02*
X-202738Y-2884966D01*
X-202738Y-2884966D02*
X-202738Y-2837347D01*
X-202738Y-2837347D02*
X-193214Y-2799251D01*
X-193214Y-2799251D02*
X-183690Y-2780204D01*
X-183690Y-2780204D02*
X-174167Y-2770680D01*
X-174167Y-2770680D02*
X-155119Y-2761156D01*
X-2738Y-2961156D02*
X-2738Y-2827823D01*
X-2738Y-2846870D02*
X6786Y-2837347D01*
X6786Y-2837347D02*
X25833Y-2827823D01*
X25833Y-2827823D02*
X54405Y-2827823D01*
X54405Y-2827823D02*
X73452Y-2837347D01*
X73452Y-2837347D02*
X82976Y-2856394D01*
X82976Y-2856394D02*
X82976Y-2961156D01*
X82976Y-2856394D02*
X92500Y-2837347D01*
X92500Y-2837347D02*
X111548Y-2827823D01*
X111548Y-2827823D02*
X140119Y-2827823D01*
X140119Y-2827823D02*
X159167Y-2837347D01*
X159167Y-2837347D02*
X168691Y-2856394D01*
X168691Y-2856394D02*
X168691Y-2961156D01*
X263929Y-2961156D02*
X263929Y-2827823D01*
X263929Y-2846870D02*
X273452Y-2837347D01*
X273452Y-2837347D02*
X292500Y-2827823D01*
X292500Y-2827823D02*
X321072Y-2827823D01*
X321072Y-2827823D02*
X340119Y-2837347D01*
X340119Y-2837347D02*
X349643Y-2856394D01*
X349643Y-2856394D02*
X349643Y-2961156D01*
X349643Y-2856394D02*
X359167Y-2837347D01*
X359167Y-2837347D02*
X378214Y-2827823D01*
X378214Y-2827823D02*
X406786Y-2827823D01*
X406786Y-2827823D02*
X425833Y-2837347D01*
X425833Y-2837347D02*
X435357Y-2856394D01*
X435357Y-2856394D02*
X435357Y-2961156D01*
X793452Y-2751632D02*
X622024Y-3008775D01*
X1018214Y-2761156D02*
X1037262Y-2761156D01*
X1037262Y-2761156D02*
X1056310Y-2770680D01*
X1056310Y-2770680D02*
X1065833Y-2780204D01*
X1065833Y-2780204D02*
X1075357Y-2799251D01*
X1075357Y-2799251D02*
X1084881Y-2837347D01*
X1084881Y-2837347D02*
X1084881Y-2884966D01*
X1084881Y-2884966D02*
X1075357Y-2923061D01*
X1075357Y-2923061D02*
X1065833Y-2942108D01*
X1065833Y-2942108D02*
X1056310Y-2951632D01*
X1056310Y-2951632D02*
X1037262Y-2961156D01*
X1037262Y-2961156D02*
X1018214Y-2961156D01*
X1018214Y-2961156D02*
X999167Y-2951632D01*
X999167Y-2951632D02*
X989643Y-2942108D01*
X989643Y-2942108D02*
X980119Y-2923061D01*
X980119Y-2923061D02*
X970595Y-2884966D01*
X970595Y-2884966D02*
X970595Y-2837347D01*
X970595Y-2837347D02*
X980119Y-2799251D01*
X980119Y-2799251D02*
X989643Y-2780204D01*
X989643Y-2780204D02*
X999167Y-2770680D01*
X999167Y-2770680D02*
X1018214Y-2761156D01*
X1170595Y-2942108D02*
X1180119Y-2951632D01*
X1180119Y-2951632D02*
X1170595Y-2961156D01*
X1170595Y-2961156D02*
X1161072Y-2951632D01*
X1161072Y-2951632D02*
X1170595Y-2942108D01*
X1170595Y-2942108D02*
X1170595Y-2961156D01*
X1303929Y-2761156D02*
X1322976Y-2761156D01*
X1322976Y-2761156D02*
X1342024Y-2770680D01*
X1342024Y-2770680D02*
X1351548Y-2780204D01*
X1351548Y-2780204D02*
X1361072Y-2799251D01*
X1361072Y-2799251D02*
X1370595Y-2837347D01*
X1370595Y-2837347D02*
X1370595Y-2884966D01*
X1370595Y-2884966D02*
X1361072Y-2923061D01*
X1361072Y-2923061D02*
X1351548Y-2942108D01*
X1351548Y-2942108D02*
X1342024Y-2951632D01*
X1342024Y-2951632D02*
X1322976Y-2961156D01*
X1322976Y-2961156D02*
X1303929Y-2961156D01*
X1303929Y-2961156D02*
X1284881Y-2951632D01*
X1284881Y-2951632D02*
X1275357Y-2942108D01*
X1275357Y-2942108D02*
X1265833Y-2923061D01*
X1265833Y-2923061D02*
X1256310Y-2884966D01*
X1256310Y-2884966D02*
X1256310Y-2837347D01*
X1256310Y-2837347D02*
X1265833Y-2799251D01*
X1265833Y-2799251D02*
X1275357Y-2780204D01*
X1275357Y-2780204D02*
X1284881Y-2770680D01*
X1284881Y-2770680D02*
X1303929Y-2761156D01*
X1484881Y-2846870D02*
X1465833Y-2837347D01*
X1465833Y-2837347D02*
X1456310Y-2827823D01*
X1456310Y-2827823D02*
X1446786Y-2808775D01*
X1446786Y-2808775D02*
X1446786Y-2799251D01*
X1446786Y-2799251D02*
X1456310Y-2780204D01*
X1456310Y-2780204D02*
X1465833Y-2770680D01*
X1465833Y-2770680D02*
X1484881Y-2761156D01*
X1484881Y-2761156D02*
X1522976Y-2761156D01*
X1522976Y-2761156D02*
X1542024Y-2770680D01*
X1542024Y-2770680D02*
X1551548Y-2780204D01*
X1551548Y-2780204D02*
X1561071Y-2799251D01*
X1561071Y-2799251D02*
X1561071Y-2808775D01*
X1561071Y-2808775D02*
X1551548Y-2827823D01*
X1551548Y-2827823D02*
X1542024Y-2837347D01*
X1542024Y-2837347D02*
X1522976Y-2846870D01*
X1522976Y-2846870D02*
X1484881Y-2846870D01*
X1484881Y-2846870D02*
X1465833Y-2856394D01*
X1465833Y-2856394D02*
X1456310Y-2865918D01*
X1456310Y-2865918D02*
X1446786Y-2884966D01*
X1446786Y-2884966D02*
X1446786Y-2923061D01*
X1446786Y-2923061D02*
X1456310Y-2942108D01*
X1456310Y-2942108D02*
X1465833Y-2951632D01*
X1465833Y-2951632D02*
X1484881Y-2961156D01*
X1484881Y-2961156D02*
X1522976Y-2961156D01*
X1522976Y-2961156D02*
X1542024Y-2951632D01*
X1542024Y-2951632D02*
X1551548Y-2942108D01*
X1551548Y-2942108D02*
X1561071Y-2923061D01*
X1561071Y-2923061D02*
X1561071Y-2884966D01*
X1561071Y-2884966D02*
X1551548Y-2865918D01*
X1551548Y-2865918D02*
X1542024Y-2856394D01*
X1542024Y-2856394D02*
X1522976Y-2846870D01*
X1732500Y-2761156D02*
X1694405Y-2761156D01*
X1694405Y-2761156D02*
X1675357Y-2770680D01*
X1675357Y-2770680D02*
X1665833Y-2780204D01*
X1665833Y-2780204D02*
X1646786Y-2808775D01*
X1646786Y-2808775D02*
X1637262Y-2846870D01*
X1637262Y-2846870D02*
X1637262Y-2923061D01*
X1637262Y-2923061D02*
X1646786Y-2942108D01*
X1646786Y-2942108D02*
X1656310Y-2951632D01*
X1656310Y-2951632D02*
X1675357Y-2961156D01*
X1675357Y-2961156D02*
X1713452Y-2961156D01*
X1713452Y-2961156D02*
X1732500Y-2951632D01*
X1732500Y-2951632D02*
X1742024Y-2942108D01*
X1742024Y-2942108D02*
X1751548Y-2923061D01*
X1751548Y-2923061D02*
X1751548Y-2875442D01*
X1751548Y-2875442D02*
X1742024Y-2856394D01*
X1742024Y-2856394D02*
X1732500Y-2846870D01*
X1732500Y-2846870D02*
X1713452Y-2837347D01*
X1713452Y-2837347D02*
X1675357Y-2837347D01*
X1675357Y-2837347D02*
X1656310Y-2846870D01*
X1656310Y-2846870D02*
X1646786Y-2856394D01*
X1646786Y-2856394D02*
X1637262Y-2875442D01*
X1922976Y-2761156D02*
X1884881Y-2761156D01*
X1884881Y-2761156D02*
X1865833Y-2770680D01*
X1865833Y-2770680D02*
X1856310Y-2780204D01*
X1856310Y-2780204D02*
X1837262Y-2808775D01*
X1837262Y-2808775D02*
X1827738Y-2846870D01*
X1827738Y-2846870D02*
X1827738Y-2923061D01*
X1827738Y-2923061D02*
X1837262Y-2942108D01*
X1837262Y-2942108D02*
X1846786Y-2951632D01*
X1846786Y-2951632D02*
X1865833Y-2961156D01*
X1865833Y-2961156D02*
X1903929Y-2961156D01*
X1903929Y-2961156D02*
X1922976Y-2951632D01*
X1922976Y-2951632D02*
X1932500Y-2942108D01*
X1932500Y-2942108D02*
X1942024Y-2923061D01*
X1942024Y-2923061D02*
X1942024Y-2875442D01*
X1942024Y-2875442D02*
X1932500Y-2856394D01*
X1932500Y-2856394D02*
X1922976Y-2846870D01*
X1922976Y-2846870D02*
X1903929Y-2837347D01*
X1903929Y-2837347D02*
X1865833Y-2837347D01*
X1865833Y-2837347D02*
X1846786Y-2846870D01*
X1846786Y-2846870D02*
X1837262Y-2856394D01*
X1837262Y-2856394D02*
X1827738Y-2875442D01*
X2018214Y-2761156D02*
X2018214Y-2799251D01*
X2094405Y-2761156D02*
X2094405Y-2799251D01*
X2357262Y-3037347D02*
X2347738Y-3027823D01*
X2347738Y-3027823D02*
X2328691Y-2999251D01*
X2328691Y-2999251D02*
X2319167Y-2980204D01*
X2319167Y-2980204D02*
X2309643Y-2951632D01*
X2309643Y-2951632D02*
X2300119Y-2904013D01*
X2300119Y-2904013D02*
X2300119Y-2865918D01*
X2300119Y-2865918D02*
X2309643Y-2818299D01*
X2309643Y-2818299D02*
X2319167Y-2789728D01*
X2319167Y-2789728D02*
X2328691Y-2770680D01*
X2328691Y-2770680D02*
X2347738Y-2742109D01*
X2347738Y-2742109D02*
X2357262Y-2732585D01*
X2528691Y-2761156D02*
X2433453Y-2761156D01*
X2433453Y-2761156D02*
X2423929Y-2856394D01*
X2423929Y-2856394D02*
X2433453Y-2846870D01*
X2433453Y-2846870D02*
X2452500Y-2837347D01*
X2452500Y-2837347D02*
X2500119Y-2837347D01*
X2500119Y-2837347D02*
X2519167Y-2846870D01*
X2519167Y-2846870D02*
X2528691Y-2856394D01*
X2528691Y-2856394D02*
X2538214Y-2875442D01*
X2538214Y-2875442D02*
X2538214Y-2923061D01*
X2538214Y-2923061D02*
X2528691Y-2942108D01*
X2528691Y-2942108D02*
X2519167Y-2951632D01*
X2519167Y-2951632D02*
X2500119Y-2961156D01*
X2500119Y-2961156D02*
X2452500Y-2961156D01*
X2452500Y-2961156D02*
X2433453Y-2951632D01*
X2433453Y-2951632D02*
X2423929Y-2942108D01*
X2743929Y-2961156D02*
X2743929Y-2761156D01*
X2829643Y-2961156D02*
X2829643Y-2856394D01*
X2829643Y-2856394D02*
X2820119Y-2837347D01*
X2820119Y-2837347D02*
X2801072Y-2827823D01*
X2801072Y-2827823D02*
X2772500Y-2827823D01*
X2772500Y-2827823D02*
X2753453Y-2837347D01*
X2753453Y-2837347D02*
X2743929Y-2846870D01*
X2953452Y-2961156D02*
X2934405Y-2951632D01*
X2934405Y-2951632D02*
X2924881Y-2942108D01*
X2924881Y-2942108D02*
X2915357Y-2923061D01*
X2915357Y-2923061D02*
X2915357Y-2865918D01*
X2915357Y-2865918D02*
X2924881Y-2846870D01*
X2924881Y-2846870D02*
X2934405Y-2837347D01*
X2934405Y-2837347D02*
X2953452Y-2827823D01*
X2953452Y-2827823D02*
X2982024Y-2827823D01*
X2982024Y-2827823D02*
X3001072Y-2837347D01*
X3001072Y-2837347D02*
X3010595Y-2846870D01*
X3010595Y-2846870D02*
X3020119Y-2865918D01*
X3020119Y-2865918D02*
X3020119Y-2923061D01*
X3020119Y-2923061D02*
X3010595Y-2942108D01*
X3010595Y-2942108D02*
X3001072Y-2951632D01*
X3001072Y-2951632D02*
X2982024Y-2961156D01*
X2982024Y-2961156D02*
X2953452Y-2961156D01*
X3134405Y-2961156D02*
X3115357Y-2951632D01*
X3115357Y-2951632D02*
X3105833Y-2932585D01*
X3105833Y-2932585D02*
X3105833Y-2761156D01*
X3286786Y-2951632D02*
X3267738Y-2961156D01*
X3267738Y-2961156D02*
X3229643Y-2961156D01*
X3229643Y-2961156D02*
X3210595Y-2951632D01*
X3210595Y-2951632D02*
X3201072Y-2932585D01*
X3201072Y-2932585D02*
X3201072Y-2856394D01*
X3201072Y-2856394D02*
X3210595Y-2837347D01*
X3210595Y-2837347D02*
X3229643Y-2827823D01*
X3229643Y-2827823D02*
X3267738Y-2827823D01*
X3267738Y-2827823D02*
X3286786Y-2837347D01*
X3286786Y-2837347D02*
X3296310Y-2856394D01*
X3296310Y-2856394D02*
X3296310Y-2875442D01*
X3296310Y-2875442D02*
X3201072Y-2894489D01*
X3372500Y-2951632D02*
X3391548Y-2961156D01*
X3391548Y-2961156D02*
X3429643Y-2961156D01*
X3429643Y-2961156D02*
X3448691Y-2951632D01*
X3448691Y-2951632D02*
X3458214Y-2932585D01*
X3458214Y-2932585D02*
X3458214Y-2923061D01*
X3458214Y-2923061D02*
X3448691Y-2904013D01*
X3448691Y-2904013D02*
X3429643Y-2894489D01*
X3429643Y-2894489D02*
X3401072Y-2894489D01*
X3401072Y-2894489D02*
X3382024Y-2884966D01*
X3382024Y-2884966D02*
X3372500Y-2865918D01*
X3372500Y-2865918D02*
X3372500Y-2856394D01*
X3372500Y-2856394D02*
X3382024Y-2837347D01*
X3382024Y-2837347D02*
X3401072Y-2827823D01*
X3401072Y-2827823D02*
X3429643Y-2827823D01*
X3429643Y-2827823D02*
X3448691Y-2837347D01*
X3524881Y-3037347D02*
X3534405Y-3027823D01*
X3534405Y-3027823D02*
X3553453Y-2999251D01*
X3553453Y-2999251D02*
X3562976Y-2980204D01*
X3562976Y-2980204D02*
X3572500Y-2951632D01*
X3572500Y-2951632D02*
X3582024Y-2904013D01*
X3582024Y-2904013D02*
X3582024Y-2865918D01*
X3582024Y-2865918D02*
X3572500Y-2818299D01*
X3572500Y-2818299D02*
X3562976Y-2789728D01*
X3562976Y-2789728D02*
X3553453Y-2770680D01*
X3553453Y-2770680D02*
X3534405Y-2742109D01*
X3534405Y-2742109D02*
X3524881Y-2732585D01*
X3854405Y-3037347D02*
X3844881Y-3027823D01*
X3844881Y-3027823D02*
X3825833Y-2999251D01*
X3825833Y-2999251D02*
X3816310Y-2980204D01*
X3816310Y-2980204D02*
X3806786Y-2951632D01*
X3806786Y-2951632D02*
X3797262Y-2904013D01*
X3797262Y-2904013D02*
X3797262Y-2865918D01*
X3797262Y-2865918D02*
X3806786Y-2818299D01*
X3806786Y-2818299D02*
X3816310Y-2789728D01*
X3816310Y-2789728D02*
X3825833Y-2770680D01*
X3825833Y-2770680D02*
X3844881Y-2742109D01*
X3844881Y-2742109D02*
X3854405Y-2732585D01*
X3930595Y-2827823D02*
X3930595Y-2961156D01*
X3930595Y-2846870D02*
X3940119Y-2837347D01*
X3940119Y-2837347D02*
X3959167Y-2827823D01*
X3959167Y-2827823D02*
X3987738Y-2827823D01*
X3987738Y-2827823D02*
X4006786Y-2837347D01*
X4006786Y-2837347D02*
X4016310Y-2856394D01*
X4016310Y-2856394D02*
X4016310Y-2961156D01*
X4140119Y-2961156D02*
X4121072Y-2951632D01*
X4121072Y-2951632D02*
X4111548Y-2942108D01*
X4111548Y-2942108D02*
X4102024Y-2923061D01*
X4102024Y-2923061D02*
X4102024Y-2865918D01*
X4102024Y-2865918D02*
X4111548Y-2846870D01*
X4111548Y-2846870D02*
X4121072Y-2837347D01*
X4121072Y-2837347D02*
X4140119Y-2827823D01*
X4140119Y-2827823D02*
X4168691Y-2827823D01*
X4168691Y-2827823D02*
X4187738Y-2837347D01*
X4187738Y-2837347D02*
X4197262Y-2846870D01*
X4197262Y-2846870D02*
X4206786Y-2865918D01*
X4206786Y-2865918D02*
X4206786Y-2923061D01*
X4206786Y-2923061D02*
X4197262Y-2942108D01*
X4197262Y-2942108D02*
X4187738Y-2951632D01*
X4187738Y-2951632D02*
X4168691Y-2961156D01*
X4168691Y-2961156D02*
X4140119Y-2961156D01*
X4263929Y-2827823D02*
X4340119Y-2827823D01*
X4292500Y-2761156D02*
X4292500Y-2932585D01*
X4292500Y-2932585D02*
X4302024Y-2951632D01*
X4302024Y-2951632D02*
X4321072Y-2961156D01*
X4321072Y-2961156D02*
X4340119Y-2961156D01*
X4526786Y-2827823D02*
X4526786Y-3027823D01*
X4526786Y-2837347D02*
X4545834Y-2827823D01*
X4545834Y-2827823D02*
X4583929Y-2827823D01*
X4583929Y-2827823D02*
X4602976Y-2837347D01*
X4602976Y-2837347D02*
X4612500Y-2846870D01*
X4612500Y-2846870D02*
X4622024Y-2865918D01*
X4622024Y-2865918D02*
X4622024Y-2923061D01*
X4622024Y-2923061D02*
X4612500Y-2942108D01*
X4612500Y-2942108D02*
X4602976Y-2951632D01*
X4602976Y-2951632D02*
X4583929Y-2961156D01*
X4583929Y-2961156D02*
X4545834Y-2961156D01*
X4545834Y-2961156D02*
X4526786Y-2951632D01*
X4736310Y-2961156D02*
X4717262Y-2951632D01*
X4717262Y-2951632D02*
X4707738Y-2932585D01*
X4707738Y-2932585D02*
X4707738Y-2761156D01*
X4898215Y-2961156D02*
X4898215Y-2856394D01*
X4898215Y-2856394D02*
X4888691Y-2837347D01*
X4888691Y-2837347D02*
X4869643Y-2827823D01*
X4869643Y-2827823D02*
X4831548Y-2827823D01*
X4831548Y-2827823D02*
X4812500Y-2837347D01*
X4898215Y-2951632D02*
X4879167Y-2961156D01*
X4879167Y-2961156D02*
X4831548Y-2961156D01*
X4831548Y-2961156D02*
X4812500Y-2951632D01*
X4812500Y-2951632D02*
X4802976Y-2932585D01*
X4802976Y-2932585D02*
X4802976Y-2913537D01*
X4802976Y-2913537D02*
X4812500Y-2894489D01*
X4812500Y-2894489D02*
X4831548Y-2884966D01*
X4831548Y-2884966D02*
X4879167Y-2884966D01*
X4879167Y-2884966D02*
X4898215Y-2875442D01*
X4964881Y-2827823D02*
X5041072Y-2827823D01*
X4993453Y-2761156D02*
X4993453Y-2932585D01*
X4993453Y-2932585D02*
X5002976Y-2951632D01*
X5002976Y-2951632D02*
X5022024Y-2961156D01*
X5022024Y-2961156D02*
X5041072Y-2961156D01*
X5183929Y-2951632D02*
X5164881Y-2961156D01*
X5164881Y-2961156D02*
X5126786Y-2961156D01*
X5126786Y-2961156D02*
X5107738Y-2951632D01*
X5107738Y-2951632D02*
X5098215Y-2932585D01*
X5098215Y-2932585D02*
X5098215Y-2856394D01*
X5098215Y-2856394D02*
X5107738Y-2837347D01*
X5107738Y-2837347D02*
X5126786Y-2827823D01*
X5126786Y-2827823D02*
X5164881Y-2827823D01*
X5164881Y-2827823D02*
X5183929Y-2837347D01*
X5183929Y-2837347D02*
X5193453Y-2856394D01*
X5193453Y-2856394D02*
X5193453Y-2875442D01*
X5193453Y-2875442D02*
X5098215Y-2894489D01*
X5364881Y-2961156D02*
X5364881Y-2761156D01*
X5364881Y-2951632D02*
X5345834Y-2961156D01*
X5345834Y-2961156D02*
X5307738Y-2961156D01*
X5307738Y-2961156D02*
X5288691Y-2951632D01*
X5288691Y-2951632D02*
X5279167Y-2942108D01*
X5279167Y-2942108D02*
X5269643Y-2923061D01*
X5269643Y-2923061D02*
X5269643Y-2865918D01*
X5269643Y-2865918D02*
X5279167Y-2846870D01*
X5279167Y-2846870D02*
X5288691Y-2837347D01*
X5288691Y-2837347D02*
X5307738Y-2827823D01*
X5307738Y-2827823D02*
X5345834Y-2827823D01*
X5345834Y-2827823D02*
X5364881Y-2837347D01*
X5441072Y-3037347D02*
X5450596Y-3027823D01*
X5450596Y-3027823D02*
X5469643Y-2999251D01*
X5469643Y-2999251D02*
X5479167Y-2980204D01*
X5479167Y-2980204D02*
X5488691Y-2951632D01*
X5488691Y-2951632D02*
X5498215Y-2904013D01*
X5498215Y-2904013D02*
X5498215Y-2865918D01*
X5498215Y-2865918D02*
X5488691Y-2818299D01*
X5488691Y-2818299D02*
X5479167Y-2789728D01*
X5479167Y-2789728D02*
X5469643Y-2770680D01*
X5469643Y-2770680D02*
X5450596Y-2742109D01*
X5450596Y-2742109D02*
X5441072Y-2732585D01*
X-1207500Y-3107680D02*
X-1207500Y-3307680D01*
X-1307500Y-3207680D02*
X-1107500Y-3207680D01*
X-878928Y-3081156D02*
X-755119Y-3081156D01*
X-755119Y-3081156D02*
X-821786Y-3157347D01*
X-821786Y-3157347D02*
X-793214Y-3157347D01*
X-793214Y-3157347D02*
X-774167Y-3166870D01*
X-774167Y-3166870D02*
X-764643Y-3176394D01*
X-764643Y-3176394D02*
X-755119Y-3195442D01*
X-755119Y-3195442D02*
X-755119Y-3243061D01*
X-755119Y-3243061D02*
X-764643Y-3262108D01*
X-764643Y-3262108D02*
X-774167Y-3271632D01*
X-774167Y-3271632D02*
X-793214Y-3281156D01*
X-793214Y-3281156D02*
X-850357Y-3281156D01*
X-850357Y-3281156D02*
X-869405Y-3271632D01*
X-869405Y-3271632D02*
X-878928Y-3262108D01*
X-669405Y-3262108D02*
X-659881Y-3271632D01*
X-659881Y-3271632D02*
X-669405Y-3281156D01*
X-669405Y-3281156D02*
X-678929Y-3271632D01*
X-678929Y-3271632D02*
X-669405Y-3262108D01*
X-669405Y-3262108D02*
X-669405Y-3281156D01*
X-536071Y-3081156D02*
X-517024Y-3081156D01*
X-517024Y-3081156D02*
X-497976Y-3090680D01*
X-497976Y-3090680D02*
X-488452Y-3100204D01*
X-488452Y-3100204D02*
X-478928Y-3119251D01*
X-478928Y-3119251D02*
X-469405Y-3157347D01*
X-469405Y-3157347D02*
X-469405Y-3204966D01*
X-469405Y-3204966D02*
X-478928Y-3243061D01*
X-478928Y-3243061D02*
X-488452Y-3262108D01*
X-488452Y-3262108D02*
X-497976Y-3271632D01*
X-497976Y-3271632D02*
X-517024Y-3281156D01*
X-517024Y-3281156D02*
X-536071Y-3281156D01*
X-536071Y-3281156D02*
X-555119Y-3271632D01*
X-555119Y-3271632D02*
X-564643Y-3262108D01*
X-564643Y-3262108D02*
X-574167Y-3243061D01*
X-574167Y-3243061D02*
X-583690Y-3204966D01*
X-583690Y-3204966D02*
X-583690Y-3157347D01*
X-583690Y-3157347D02*
X-574167Y-3119251D01*
X-574167Y-3119251D02*
X-564643Y-3100204D01*
X-564643Y-3100204D02*
X-555119Y-3090680D01*
X-555119Y-3090680D02*
X-536071Y-3081156D01*
X-345595Y-3081156D02*
X-326548Y-3081156D01*
X-326548Y-3081156D02*
X-307500Y-3090680D01*
X-307500Y-3090680D02*
X-297976Y-3100204D01*
X-297976Y-3100204D02*
X-288452Y-3119251D01*
X-288452Y-3119251D02*
X-278929Y-3157347D01*
X-278929Y-3157347D02*
X-278929Y-3204966D01*
X-278929Y-3204966D02*
X-288452Y-3243061D01*
X-288452Y-3243061D02*
X-297976Y-3262108D01*
X-297976Y-3262108D02*
X-307500Y-3271632D01*
X-307500Y-3271632D02*
X-326548Y-3281156D01*
X-326548Y-3281156D02*
X-345595Y-3281156D01*
X-345595Y-3281156D02*
X-364643Y-3271632D01*
X-364643Y-3271632D02*
X-374167Y-3262108D01*
X-374167Y-3262108D02*
X-383690Y-3243061D01*
X-383690Y-3243061D02*
X-393214Y-3204966D01*
X-393214Y-3204966D02*
X-393214Y-3157347D01*
X-393214Y-3157347D02*
X-383690Y-3119251D01*
X-383690Y-3119251D02*
X-374167Y-3100204D01*
X-374167Y-3100204D02*
X-364643Y-3090680D01*
X-364643Y-3090680D02*
X-345595Y-3081156D01*
X-155119Y-3081156D02*
X-136071Y-3081156D01*
X-136071Y-3081156D02*
X-117024Y-3090680D01*
X-117024Y-3090680D02*
X-107500Y-3100204D01*
X-107500Y-3100204D02*
X-97976Y-3119251D01*
X-97976Y-3119251D02*
X-88452Y-3157347D01*
X-88452Y-3157347D02*
X-88452Y-3204966D01*
X-88452Y-3204966D02*
X-97976Y-3243061D01*
X-97976Y-3243061D02*
X-107500Y-3262108D01*
X-107500Y-3262108D02*
X-117024Y-3271632D01*
X-117024Y-3271632D02*
X-136071Y-3281156D01*
X-136071Y-3281156D02*
X-155119Y-3281156D01*
X-155119Y-3281156D02*
X-174167Y-3271632D01*
X-174167Y-3271632D02*
X-183690Y-3262108D01*
X-183690Y-3262108D02*
X-193214Y-3243061D01*
X-193214Y-3243061D02*
X-202738Y-3204966D01*
X-202738Y-3204966D02*
X-202738Y-3157347D01*
X-202738Y-3157347D02*
X-193214Y-3119251D01*
X-193214Y-3119251D02*
X-183690Y-3100204D01*
X-183690Y-3100204D02*
X-174167Y-3090680D01*
X-174167Y-3090680D02*
X-155119Y-3081156D01*
X-2738Y-3281156D02*
X-2738Y-3147823D01*
X-2738Y-3166870D02*
X6786Y-3157347D01*
X6786Y-3157347D02*
X25833Y-3147823D01*
X25833Y-3147823D02*
X54405Y-3147823D01*
X54405Y-3147823D02*
X73452Y-3157347D01*
X73452Y-3157347D02*
X82976Y-3176394D01*
X82976Y-3176394D02*
X82976Y-3281156D01*
X82976Y-3176394D02*
X92500Y-3157347D01*
X92500Y-3157347D02*
X111548Y-3147823D01*
X111548Y-3147823D02*
X140119Y-3147823D01*
X140119Y-3147823D02*
X159167Y-3157347D01*
X159167Y-3157347D02*
X168691Y-3176394D01*
X168691Y-3176394D02*
X168691Y-3281156D01*
X263929Y-3281156D02*
X263929Y-3147823D01*
X263929Y-3166870D02*
X273452Y-3157347D01*
X273452Y-3157347D02*
X292500Y-3147823D01*
X292500Y-3147823D02*
X321072Y-3147823D01*
X321072Y-3147823D02*
X340119Y-3157347D01*
X340119Y-3157347D02*
X349643Y-3176394D01*
X349643Y-3176394D02*
X349643Y-3281156D01*
X349643Y-3176394D02*
X359167Y-3157347D01*
X359167Y-3157347D02*
X378214Y-3147823D01*
X378214Y-3147823D02*
X406786Y-3147823D01*
X406786Y-3147823D02*
X425833Y-3157347D01*
X425833Y-3157347D02*
X435357Y-3176394D01*
X435357Y-3176394D02*
X435357Y-3281156D01*
X793452Y-3071632D02*
X622024Y-3328775D01*
X1018214Y-3081156D02*
X1037262Y-3081156D01*
X1037262Y-3081156D02*
X1056310Y-3090680D01*
X1056310Y-3090680D02*
X1065833Y-3100204D01*
X1065833Y-3100204D02*
X1075357Y-3119251D01*
X1075357Y-3119251D02*
X1084881Y-3157347D01*
X1084881Y-3157347D02*
X1084881Y-3204966D01*
X1084881Y-3204966D02*
X1075357Y-3243061D01*
X1075357Y-3243061D02*
X1065833Y-3262108D01*
X1065833Y-3262108D02*
X1056310Y-3271632D01*
X1056310Y-3271632D02*
X1037262Y-3281156D01*
X1037262Y-3281156D02*
X1018214Y-3281156D01*
X1018214Y-3281156D02*
X999167Y-3271632D01*
X999167Y-3271632D02*
X989643Y-3262108D01*
X989643Y-3262108D02*
X980119Y-3243061D01*
X980119Y-3243061D02*
X970595Y-3204966D01*
X970595Y-3204966D02*
X970595Y-3157347D01*
X970595Y-3157347D02*
X980119Y-3119251D01*
X980119Y-3119251D02*
X989643Y-3100204D01*
X989643Y-3100204D02*
X999167Y-3090680D01*
X999167Y-3090680D02*
X1018214Y-3081156D01*
X1170595Y-3262108D02*
X1180119Y-3271632D01*
X1180119Y-3271632D02*
X1170595Y-3281156D01*
X1170595Y-3281156D02*
X1161072Y-3271632D01*
X1161072Y-3271632D02*
X1170595Y-3262108D01*
X1170595Y-3262108D02*
X1170595Y-3281156D01*
X1370595Y-3281156D02*
X1256310Y-3281156D01*
X1313452Y-3281156D02*
X1313452Y-3081156D01*
X1313452Y-3081156D02*
X1294405Y-3109728D01*
X1294405Y-3109728D02*
X1275357Y-3128775D01*
X1275357Y-3128775D02*
X1256310Y-3138299D01*
X1561071Y-3281156D02*
X1446786Y-3281156D01*
X1503929Y-3281156D02*
X1503929Y-3081156D01*
X1503929Y-3081156D02*
X1484881Y-3109728D01*
X1484881Y-3109728D02*
X1465833Y-3128775D01*
X1465833Y-3128775D02*
X1446786Y-3138299D01*
X1675357Y-3166870D02*
X1656310Y-3157347D01*
X1656310Y-3157347D02*
X1646786Y-3147823D01*
X1646786Y-3147823D02*
X1637262Y-3128775D01*
X1637262Y-3128775D02*
X1637262Y-3119251D01*
X1637262Y-3119251D02*
X1646786Y-3100204D01*
X1646786Y-3100204D02*
X1656310Y-3090680D01*
X1656310Y-3090680D02*
X1675357Y-3081156D01*
X1675357Y-3081156D02*
X1713452Y-3081156D01*
X1713452Y-3081156D02*
X1732500Y-3090680D01*
X1732500Y-3090680D02*
X1742024Y-3100204D01*
X1742024Y-3100204D02*
X1751548Y-3119251D01*
X1751548Y-3119251D02*
X1751548Y-3128775D01*
X1751548Y-3128775D02*
X1742024Y-3147823D01*
X1742024Y-3147823D02*
X1732500Y-3157347D01*
X1732500Y-3157347D02*
X1713452Y-3166870D01*
X1713452Y-3166870D02*
X1675357Y-3166870D01*
X1675357Y-3166870D02*
X1656310Y-3176394D01*
X1656310Y-3176394D02*
X1646786Y-3185918D01*
X1646786Y-3185918D02*
X1637262Y-3204966D01*
X1637262Y-3204966D02*
X1637262Y-3243061D01*
X1637262Y-3243061D02*
X1646786Y-3262108D01*
X1646786Y-3262108D02*
X1656310Y-3271632D01*
X1656310Y-3271632D02*
X1675357Y-3281156D01*
X1675357Y-3281156D02*
X1713452Y-3281156D01*
X1713452Y-3281156D02*
X1732500Y-3271632D01*
X1732500Y-3271632D02*
X1742024Y-3262108D01*
X1742024Y-3262108D02*
X1751548Y-3243061D01*
X1751548Y-3243061D02*
X1751548Y-3204966D01*
X1751548Y-3204966D02*
X1742024Y-3185918D01*
X1742024Y-3185918D02*
X1732500Y-3176394D01*
X1732500Y-3176394D02*
X1713452Y-3166870D01*
X1942024Y-3281156D02*
X1827738Y-3281156D01*
X1884881Y-3281156D02*
X1884881Y-3081156D01*
X1884881Y-3081156D02*
X1865833Y-3109728D01*
X1865833Y-3109728D02*
X1846786Y-3128775D01*
X1846786Y-3128775D02*
X1827738Y-3138299D01*
X2018214Y-3081156D02*
X2018214Y-3119251D01*
X2094405Y-3081156D02*
X2094405Y-3119251D01*
X2357262Y-3357347D02*
X2347738Y-3347823D01*
X2347738Y-3347823D02*
X2328691Y-3319251D01*
X2328691Y-3319251D02*
X2319167Y-3300204D01*
X2319167Y-3300204D02*
X2309643Y-3271632D01*
X2309643Y-3271632D02*
X2300119Y-3224013D01*
X2300119Y-3224013D02*
X2300119Y-3185918D01*
X2300119Y-3185918D02*
X2309643Y-3138299D01*
X2309643Y-3138299D02*
X2319167Y-3109728D01*
X2319167Y-3109728D02*
X2328691Y-3090680D01*
X2328691Y-3090680D02*
X2347738Y-3062108D01*
X2347738Y-3062108D02*
X2357262Y-3052585D01*
X2423929Y-3100204D02*
X2433453Y-3090680D01*
X2433453Y-3090680D02*
X2452500Y-3081156D01*
X2452500Y-3081156D02*
X2500119Y-3081156D01*
X2500119Y-3081156D02*
X2519167Y-3090680D01*
X2519167Y-3090680D02*
X2528691Y-3100204D01*
X2528691Y-3100204D02*
X2538214Y-3119251D01*
X2538214Y-3119251D02*
X2538214Y-3138299D01*
X2538214Y-3138299D02*
X2528691Y-3166870D01*
X2528691Y-3166870D02*
X2414405Y-3281156D01*
X2414405Y-3281156D02*
X2538214Y-3281156D01*
X2709643Y-3081156D02*
X2671548Y-3081156D01*
X2671548Y-3081156D02*
X2652500Y-3090680D01*
X2652500Y-3090680D02*
X2642976Y-3100204D01*
X2642976Y-3100204D02*
X2623929Y-3128775D01*
X2623929Y-3128775D02*
X2614405Y-3166870D01*
X2614405Y-3166870D02*
X2614405Y-3243061D01*
X2614405Y-3243061D02*
X2623929Y-3262108D01*
X2623929Y-3262108D02*
X2633453Y-3271632D01*
X2633453Y-3271632D02*
X2652500Y-3281156D01*
X2652500Y-3281156D02*
X2690595Y-3281156D01*
X2690595Y-3281156D02*
X2709643Y-3271632D01*
X2709643Y-3271632D02*
X2719167Y-3262108D01*
X2719167Y-3262108D02*
X2728691Y-3243061D01*
X2728691Y-3243061D02*
X2728691Y-3195442D01*
X2728691Y-3195442D02*
X2719167Y-3176394D01*
X2719167Y-3176394D02*
X2709643Y-3166870D01*
X2709643Y-3166870D02*
X2690595Y-3157347D01*
X2690595Y-3157347D02*
X2652500Y-3157347D01*
X2652500Y-3157347D02*
X2633453Y-3166870D01*
X2633453Y-3166870D02*
X2623929Y-3176394D01*
X2623929Y-3176394D02*
X2614405Y-3195442D01*
X2934405Y-3281156D02*
X2934405Y-3081156D01*
X3020119Y-3281156D02*
X3020119Y-3176394D01*
X3020119Y-3176394D02*
X3010595Y-3157347D01*
X3010595Y-3157347D02*
X2991548Y-3147823D01*
X2991548Y-3147823D02*
X2962976Y-3147823D01*
X2962976Y-3147823D02*
X2943929Y-3157347D01*
X2943929Y-3157347D02*
X2934405Y-3166870D01*
X3143929Y-3281156D02*
X3124881Y-3271632D01*
X3124881Y-3271632D02*
X3115357Y-3262108D01*
X3115357Y-3262108D02*
X3105833Y-3243061D01*
X3105833Y-3243061D02*
X3105833Y-3185918D01*
X3105833Y-3185918D02*
X3115357Y-3166870D01*
X3115357Y-3166870D02*
X3124881Y-3157347D01*
X3124881Y-3157347D02*
X3143929Y-3147823D01*
X3143929Y-3147823D02*
X3172500Y-3147823D01*
X3172500Y-3147823D02*
X3191548Y-3157347D01*
X3191548Y-3157347D02*
X3201072Y-3166870D01*
X3201072Y-3166870D02*
X3210595Y-3185918D01*
X3210595Y-3185918D02*
X3210595Y-3243061D01*
X3210595Y-3243061D02*
X3201072Y-3262108D01*
X3201072Y-3262108D02*
X3191548Y-3271632D01*
X3191548Y-3271632D02*
X3172500Y-3281156D01*
X3172500Y-3281156D02*
X3143929Y-3281156D01*
X3324881Y-3281156D02*
X3305833Y-3271632D01*
X3305833Y-3271632D02*
X3296310Y-3252585D01*
X3296310Y-3252585D02*
X3296310Y-3081156D01*
X3477262Y-3271632D02*
X3458214Y-3281156D01*
X3458214Y-3281156D02*
X3420119Y-3281156D01*
X3420119Y-3281156D02*
X3401072Y-3271632D01*
X3401072Y-3271632D02*
X3391548Y-3252585D01*
X3391548Y-3252585D02*
X3391548Y-3176394D01*
X3391548Y-3176394D02*
X3401072Y-3157347D01*
X3401072Y-3157347D02*
X3420119Y-3147823D01*
X3420119Y-3147823D02*
X3458214Y-3147823D01*
X3458214Y-3147823D02*
X3477262Y-3157347D01*
X3477262Y-3157347D02*
X3486786Y-3176394D01*
X3486786Y-3176394D02*
X3486786Y-3195442D01*
X3486786Y-3195442D02*
X3391548Y-3214489D01*
X3562976Y-3271632D02*
X3582024Y-3281156D01*
X3582024Y-3281156D02*
X3620119Y-3281156D01*
X3620119Y-3281156D02*
X3639167Y-3271632D01*
X3639167Y-3271632D02*
X3648691Y-3252585D01*
X3648691Y-3252585D02*
X3648691Y-3243061D01*
X3648691Y-3243061D02*
X3639167Y-3224013D01*
X3639167Y-3224013D02*
X3620119Y-3214489D01*
X3620119Y-3214489D02*
X3591548Y-3214489D01*
X3591548Y-3214489D02*
X3572500Y-3204966D01*
X3572500Y-3204966D02*
X3562976Y-3185918D01*
X3562976Y-3185918D02*
X3562976Y-3176394D01*
X3562976Y-3176394D02*
X3572500Y-3157347D01*
X3572500Y-3157347D02*
X3591548Y-3147823D01*
X3591548Y-3147823D02*
X3620119Y-3147823D01*
X3620119Y-3147823D02*
X3639167Y-3157347D01*
X3715357Y-3357347D02*
X3724881Y-3347823D01*
X3724881Y-3347823D02*
X3743929Y-3319251D01*
X3743929Y-3319251D02*
X3753453Y-3300204D01*
X3753453Y-3300204D02*
X3762976Y-3271632D01*
X3762976Y-3271632D02*
X3772500Y-3224013D01*
X3772500Y-3224013D02*
X3772500Y-3185918D01*
X3772500Y-3185918D02*
X3762976Y-3138299D01*
X3762976Y-3138299D02*
X3753453Y-3109728D01*
X3753453Y-3109728D02*
X3743929Y-3090680D01*
X3743929Y-3090680D02*
X3724881Y-3062108D01*
X3724881Y-3062108D02*
X3715357Y-3052585D01*
X4044881Y-3357347D02*
X4035357Y-3347823D01*
X4035357Y-3347823D02*
X4016310Y-3319251D01*
X4016310Y-3319251D02*
X4006786Y-3300204D01*
X4006786Y-3300204D02*
X3997262Y-3271632D01*
X3997262Y-3271632D02*
X3987738Y-3224013D01*
X3987738Y-3224013D02*
X3987738Y-3185918D01*
X3987738Y-3185918D02*
X3997262Y-3138299D01*
X3997262Y-3138299D02*
X4006786Y-3109728D01*
X4006786Y-3109728D02*
X4016310Y-3090680D01*
X4016310Y-3090680D02*
X4035357Y-3062108D01*
X4035357Y-3062108D02*
X4044881Y-3052585D01*
X4121072Y-3147823D02*
X4121072Y-3281156D01*
X4121072Y-3166870D02*
X4130595Y-3157347D01*
X4130595Y-3157347D02*
X4149643Y-3147823D01*
X4149643Y-3147823D02*
X4178214Y-3147823D01*
X4178214Y-3147823D02*
X4197262Y-3157347D01*
X4197262Y-3157347D02*
X4206786Y-3176394D01*
X4206786Y-3176394D02*
X4206786Y-3281156D01*
X4330595Y-3281156D02*
X4311548Y-3271632D01*
X4311548Y-3271632D02*
X4302024Y-3262108D01*
X4302024Y-3262108D02*
X4292500Y-3243061D01*
X4292500Y-3243061D02*
X4292500Y-3185918D01*
X4292500Y-3185918D02*
X4302024Y-3166870D01*
X4302024Y-3166870D02*
X4311548Y-3157347D01*
X4311548Y-3157347D02*
X4330595Y-3147823D01*
X4330595Y-3147823D02*
X4359167Y-3147823D01*
X4359167Y-3147823D02*
X4378215Y-3157347D01*
X4378215Y-3157347D02*
X4387738Y-3166870D01*
X4387738Y-3166870D02*
X4397262Y-3185918D01*
X4397262Y-3185918D02*
X4397262Y-3243061D01*
X4397262Y-3243061D02*
X4387738Y-3262108D01*
X4387738Y-3262108D02*
X4378215Y-3271632D01*
X4378215Y-3271632D02*
X4359167Y-3281156D01*
X4359167Y-3281156D02*
X4330595Y-3281156D01*
X4454405Y-3147823D02*
X4530595Y-3147823D01*
X4482976Y-3081156D02*
X4482976Y-3252585D01*
X4482976Y-3252585D02*
X4492500Y-3271632D01*
X4492500Y-3271632D02*
X4511548Y-3281156D01*
X4511548Y-3281156D02*
X4530595Y-3281156D01*
X4717262Y-3147823D02*
X4717262Y-3347823D01*
X4717262Y-3157347D02*
X4736310Y-3147823D01*
X4736310Y-3147823D02*
X4774405Y-3147823D01*
X4774405Y-3147823D02*
X4793453Y-3157347D01*
X4793453Y-3157347D02*
X4802976Y-3166870D01*
X4802976Y-3166870D02*
X4812500Y-3185918D01*
X4812500Y-3185918D02*
X4812500Y-3243061D01*
X4812500Y-3243061D02*
X4802976Y-3262108D01*
X4802976Y-3262108D02*
X4793453Y-3271632D01*
X4793453Y-3271632D02*
X4774405Y-3281156D01*
X4774405Y-3281156D02*
X4736310Y-3281156D01*
X4736310Y-3281156D02*
X4717262Y-3271632D01*
X4926786Y-3281156D02*
X4907738Y-3271632D01*
X4907738Y-3271632D02*
X4898215Y-3252585D01*
X4898215Y-3252585D02*
X4898215Y-3081156D01*
X5088691Y-3281156D02*
X5088691Y-3176394D01*
X5088691Y-3176394D02*
X5079167Y-3157347D01*
X5079167Y-3157347D02*
X5060119Y-3147823D01*
X5060119Y-3147823D02*
X5022024Y-3147823D01*
X5022024Y-3147823D02*
X5002976Y-3157347D01*
X5088691Y-3271632D02*
X5069643Y-3281156D01*
X5069643Y-3281156D02*
X5022024Y-3281156D01*
X5022024Y-3281156D02*
X5002976Y-3271632D01*
X5002976Y-3271632D02*
X4993453Y-3252585D01*
X4993453Y-3252585D02*
X4993453Y-3233537D01*
X4993453Y-3233537D02*
X5002976Y-3214489D01*
X5002976Y-3214489D02*
X5022024Y-3204966D01*
X5022024Y-3204966D02*
X5069643Y-3204966D01*
X5069643Y-3204966D02*
X5088691Y-3195442D01*
X5155357Y-3147823D02*
X5231548Y-3147823D01*
X5183929Y-3081156D02*
X5183929Y-3252585D01*
X5183929Y-3252585D02*
X5193453Y-3271632D01*
X5193453Y-3271632D02*
X5212500Y-3281156D01*
X5212500Y-3281156D02*
X5231548Y-3281156D01*
X5374405Y-3271632D02*
X5355357Y-3281156D01*
X5355357Y-3281156D02*
X5317262Y-3281156D01*
X5317262Y-3281156D02*
X5298215Y-3271632D01*
X5298215Y-3271632D02*
X5288691Y-3252585D01*
X5288691Y-3252585D02*
X5288691Y-3176394D01*
X5288691Y-3176394D02*
X5298215Y-3157347D01*
X5298215Y-3157347D02*
X5317262Y-3147823D01*
X5317262Y-3147823D02*
X5355357Y-3147823D01*
X5355357Y-3147823D02*
X5374405Y-3157347D01*
X5374405Y-3157347D02*
X5383929Y-3176394D01*
X5383929Y-3176394D02*
X5383929Y-3195442D01*
X5383929Y-3195442D02*
X5288691Y-3214489D01*
X5555357Y-3281156D02*
X5555357Y-3081156D01*
X5555357Y-3271632D02*
X5536310Y-3281156D01*
X5536310Y-3281156D02*
X5498215Y-3281156D01*
X5498215Y-3281156D02*
X5479167Y-3271632D01*
X5479167Y-3271632D02*
X5469643Y-3262108D01*
X5469643Y-3262108D02*
X5460119Y-3243061D01*
X5460119Y-3243061D02*
X5460119Y-3185918D01*
X5460119Y-3185918D02*
X5469643Y-3166870D01*
X5469643Y-3166870D02*
X5479167Y-3157347D01*
X5479167Y-3157347D02*
X5498215Y-3147823D01*
X5498215Y-3147823D02*
X5536310Y-3147823D01*
X5536310Y-3147823D02*
X5555357Y-3157347D01*
X5631548Y-3357347D02*
X5641072Y-3347823D01*
X5641072Y-3347823D02*
X5660119Y-3319251D01*
X5660119Y-3319251D02*
X5669643Y-3300204D01*
X5669643Y-3300204D02*
X5679167Y-3271632D01*
X5679167Y-3271632D02*
X5688691Y-3224013D01*
X5688691Y-3224013D02*
X5688691Y-3185918D01*
X5688691Y-3185918D02*
X5679167Y-3138299D01*
X5679167Y-3138299D02*
X5669643Y-3109728D01*
X5669643Y-3109728D02*
X5660119Y-3090680D01*
X5660119Y-3090680D02*
X5641072Y-3062108D01*
X5641072Y-3062108D02*
X5631548Y-3052585D01*
X-1136789Y-3598391D02*
X-1136789Y-3456969D01*
X-1278211Y-3456969D01*
X-1278211Y-3598391D01*
X-1136789Y-3598391D01*
X-878928Y-3401156D02*
X-755119Y-3401156D01*
X-755119Y-3401156D02*
X-821786Y-3477347D01*
X-821786Y-3477347D02*
X-793214Y-3477347D01*
X-793214Y-3477347D02*
X-774167Y-3486870D01*
X-774167Y-3486870D02*
X-764643Y-3496394D01*
X-764643Y-3496394D02*
X-755119Y-3515442D01*
X-755119Y-3515442D02*
X-755119Y-3563061D01*
X-755119Y-3563061D02*
X-764643Y-3582108D01*
X-764643Y-3582108D02*
X-774167Y-3591632D01*
X-774167Y-3591632D02*
X-793214Y-3601156D01*
X-793214Y-3601156D02*
X-850357Y-3601156D01*
X-850357Y-3601156D02*
X-869405Y-3591632D01*
X-869405Y-3591632D02*
X-878928Y-3582108D01*
X-669405Y-3582108D02*
X-659881Y-3591632D01*
X-659881Y-3591632D02*
X-669405Y-3601156D01*
X-669405Y-3601156D02*
X-678929Y-3591632D01*
X-678929Y-3591632D02*
X-669405Y-3582108D01*
X-669405Y-3582108D02*
X-669405Y-3601156D01*
X-488452Y-3467823D02*
X-488452Y-3601156D01*
X-536071Y-3391632D02*
X-583690Y-3534489D01*
X-583690Y-3534489D02*
X-459881Y-3534489D01*
X-393214Y-3420204D02*
X-383690Y-3410680D01*
X-383690Y-3410680D02*
X-364643Y-3401156D01*
X-364643Y-3401156D02*
X-317024Y-3401156D01*
X-317024Y-3401156D02*
X-297976Y-3410680D01*
X-297976Y-3410680D02*
X-288452Y-3420204D01*
X-288452Y-3420204D02*
X-278929Y-3439251D01*
X-278929Y-3439251D02*
X-278929Y-3458299D01*
X-278929Y-3458299D02*
X-288452Y-3486870D01*
X-288452Y-3486870D02*
X-402738Y-3601156D01*
X-402738Y-3601156D02*
X-278929Y-3601156D01*
X-183690Y-3601156D02*
X-145595Y-3601156D01*
X-145595Y-3601156D02*
X-126547Y-3591632D01*
X-126547Y-3591632D02*
X-117024Y-3582108D01*
X-117024Y-3582108D02*
X-97976Y-3553537D01*
X-97976Y-3553537D02*
X-88452Y-3515442D01*
X-88452Y-3515442D02*
X-88452Y-3439251D01*
X-88452Y-3439251D02*
X-97976Y-3420204D01*
X-97976Y-3420204D02*
X-107500Y-3410680D01*
X-107500Y-3410680D02*
X-126547Y-3401156D01*
X-126547Y-3401156D02*
X-164643Y-3401156D01*
X-164643Y-3401156D02*
X-183690Y-3410680D01*
X-183690Y-3410680D02*
X-193214Y-3420204D01*
X-193214Y-3420204D02*
X-202738Y-3439251D01*
X-202738Y-3439251D02*
X-202738Y-3486870D01*
X-202738Y-3486870D02*
X-193214Y-3505918D01*
X-193214Y-3505918D02*
X-183690Y-3515442D01*
X-183690Y-3515442D02*
X-164643Y-3524966D01*
X-164643Y-3524966D02*
X-126547Y-3524966D01*
X-126547Y-3524966D02*
X-107500Y-3515442D01*
X-107500Y-3515442D02*
X-97976Y-3505918D01*
X-97976Y-3505918D02*
X-88452Y-3486870D01*
X-2738Y-3601156D02*
X-2738Y-3467823D01*
X-2738Y-3486870D02*
X6786Y-3477347D01*
X6786Y-3477347D02*
X25833Y-3467823D01*
X25833Y-3467823D02*
X54405Y-3467823D01*
X54405Y-3467823D02*
X73452Y-3477347D01*
X73452Y-3477347D02*
X82976Y-3496394D01*
X82976Y-3496394D02*
X82976Y-3601156D01*
X82976Y-3496394D02*
X92500Y-3477347D01*
X92500Y-3477347D02*
X111548Y-3467823D01*
X111548Y-3467823D02*
X140119Y-3467823D01*
X140119Y-3467823D02*
X159167Y-3477347D01*
X159167Y-3477347D02*
X168691Y-3496394D01*
X168691Y-3496394D02*
X168691Y-3601156D01*
X263929Y-3601156D02*
X263929Y-3467823D01*
X263929Y-3486870D02*
X273452Y-3477347D01*
X273452Y-3477347D02*
X292500Y-3467823D01*
X292500Y-3467823D02*
X321072Y-3467823D01*
X321072Y-3467823D02*
X340119Y-3477347D01*
X340119Y-3477347D02*
X349643Y-3496394D01*
X349643Y-3496394D02*
X349643Y-3601156D01*
X349643Y-3496394D02*
X359167Y-3477347D01*
X359167Y-3477347D02*
X378214Y-3467823D01*
X378214Y-3467823D02*
X406786Y-3467823D01*
X406786Y-3467823D02*
X425833Y-3477347D01*
X425833Y-3477347D02*
X435357Y-3496394D01*
X435357Y-3496394D02*
X435357Y-3601156D01*
X793452Y-3391632D02*
X622024Y-3648775D01*
X1018214Y-3401156D02*
X1037262Y-3401156D01*
X1037262Y-3401156D02*
X1056310Y-3410680D01*
X1056310Y-3410680D02*
X1065833Y-3420204D01*
X1065833Y-3420204D02*
X1075357Y-3439251D01*
X1075357Y-3439251D02*
X1084881Y-3477347D01*
X1084881Y-3477347D02*
X1084881Y-3524966D01*
X1084881Y-3524966D02*
X1075357Y-3563061D01*
X1075357Y-3563061D02*
X1065833Y-3582108D01*
X1065833Y-3582108D02*
X1056310Y-3591632D01*
X1056310Y-3591632D02*
X1037262Y-3601156D01*
X1037262Y-3601156D02*
X1018214Y-3601156D01*
X1018214Y-3601156D02*
X999167Y-3591632D01*
X999167Y-3591632D02*
X989643Y-3582108D01*
X989643Y-3582108D02*
X980119Y-3563061D01*
X980119Y-3563061D02*
X970595Y-3524966D01*
X970595Y-3524966D02*
X970595Y-3477347D01*
X970595Y-3477347D02*
X980119Y-3439251D01*
X980119Y-3439251D02*
X989643Y-3420204D01*
X989643Y-3420204D02*
X999167Y-3410680D01*
X999167Y-3410680D02*
X1018214Y-3401156D01*
X1170595Y-3582108D02*
X1180119Y-3591632D01*
X1180119Y-3591632D02*
X1170595Y-3601156D01*
X1170595Y-3601156D02*
X1161072Y-3591632D01*
X1161072Y-3591632D02*
X1170595Y-3582108D01*
X1170595Y-3582108D02*
X1170595Y-3601156D01*
X1370595Y-3601156D02*
X1256310Y-3601156D01*
X1313452Y-3601156D02*
X1313452Y-3401156D01*
X1313452Y-3401156D02*
X1294405Y-3429728D01*
X1294405Y-3429728D02*
X1275357Y-3448775D01*
X1275357Y-3448775D02*
X1256310Y-3458299D01*
X1437262Y-3401156D02*
X1561071Y-3401156D01*
X1561071Y-3401156D02*
X1494405Y-3477347D01*
X1494405Y-3477347D02*
X1522976Y-3477347D01*
X1522976Y-3477347D02*
X1542024Y-3486870D01*
X1542024Y-3486870D02*
X1551548Y-3496394D01*
X1551548Y-3496394D02*
X1561071Y-3515442D01*
X1561071Y-3515442D02*
X1561071Y-3563061D01*
X1561071Y-3563061D02*
X1551548Y-3582108D01*
X1551548Y-3582108D02*
X1542024Y-3591632D01*
X1542024Y-3591632D02*
X1522976Y-3601156D01*
X1522976Y-3601156D02*
X1465833Y-3601156D01*
X1465833Y-3601156D02*
X1446786Y-3591632D01*
X1446786Y-3591632D02*
X1437262Y-3582108D01*
X1742024Y-3401156D02*
X1646786Y-3401156D01*
X1646786Y-3401156D02*
X1637262Y-3496394D01*
X1637262Y-3496394D02*
X1646786Y-3486870D01*
X1646786Y-3486870D02*
X1665833Y-3477347D01*
X1665833Y-3477347D02*
X1713452Y-3477347D01*
X1713452Y-3477347D02*
X1732500Y-3486870D01*
X1732500Y-3486870D02*
X1742024Y-3496394D01*
X1742024Y-3496394D02*
X1751548Y-3515442D01*
X1751548Y-3515442D02*
X1751548Y-3563061D01*
X1751548Y-3563061D02*
X1742024Y-3582108D01*
X1742024Y-3582108D02*
X1732500Y-3591632D01*
X1732500Y-3591632D02*
X1713452Y-3601156D01*
X1713452Y-3601156D02*
X1665833Y-3601156D01*
X1665833Y-3601156D02*
X1646786Y-3591632D01*
X1646786Y-3591632D02*
X1637262Y-3582108D01*
X1875357Y-3401156D02*
X1894405Y-3401156D01*
X1894405Y-3401156D02*
X1913452Y-3410680D01*
X1913452Y-3410680D02*
X1922976Y-3420204D01*
X1922976Y-3420204D02*
X1932500Y-3439251D01*
X1932500Y-3439251D02*
X1942024Y-3477347D01*
X1942024Y-3477347D02*
X1942024Y-3524966D01*
X1942024Y-3524966D02*
X1932500Y-3563061D01*
X1932500Y-3563061D02*
X1922976Y-3582108D01*
X1922976Y-3582108D02*
X1913452Y-3591632D01*
X1913452Y-3591632D02*
X1894405Y-3601156D01*
X1894405Y-3601156D02*
X1875357Y-3601156D01*
X1875357Y-3601156D02*
X1856310Y-3591632D01*
X1856310Y-3591632D02*
X1846786Y-3582108D01*
X1846786Y-3582108D02*
X1837262Y-3563061D01*
X1837262Y-3563061D02*
X1827738Y-3524966D01*
X1827738Y-3524966D02*
X1827738Y-3477347D01*
X1827738Y-3477347D02*
X1837262Y-3439251D01*
X1837262Y-3439251D02*
X1846786Y-3420204D01*
X1846786Y-3420204D02*
X1856310Y-3410680D01*
X1856310Y-3410680D02*
X1875357Y-3401156D01*
X2018214Y-3401156D02*
X2018214Y-3439251D01*
X2094405Y-3401156D02*
X2094405Y-3439251D01*
X2357262Y-3677347D02*
X2347738Y-3667823D01*
X2347738Y-3667823D02*
X2328691Y-3639251D01*
X2328691Y-3639251D02*
X2319167Y-3620204D01*
X2319167Y-3620204D02*
X2309643Y-3591632D01*
X2309643Y-3591632D02*
X2300119Y-3544013D01*
X2300119Y-3544013D02*
X2300119Y-3505918D01*
X2300119Y-3505918D02*
X2309643Y-3458299D01*
X2309643Y-3458299D02*
X2319167Y-3429728D01*
X2319167Y-3429728D02*
X2328691Y-3410680D01*
X2328691Y-3410680D02*
X2347738Y-3382108D01*
X2347738Y-3382108D02*
X2357262Y-3372585D01*
X2538214Y-3601156D02*
X2423929Y-3601156D01*
X2481072Y-3601156D02*
X2481072Y-3401156D01*
X2481072Y-3401156D02*
X2462024Y-3429728D01*
X2462024Y-3429728D02*
X2442976Y-3448775D01*
X2442976Y-3448775D02*
X2423929Y-3458299D01*
X2709643Y-3401156D02*
X2671548Y-3401156D01*
X2671548Y-3401156D02*
X2652500Y-3410680D01*
X2652500Y-3410680D02*
X2642976Y-3420204D01*
X2642976Y-3420204D02*
X2623929Y-3448775D01*
X2623929Y-3448775D02*
X2614405Y-3486870D01*
X2614405Y-3486870D02*
X2614405Y-3563061D01*
X2614405Y-3563061D02*
X2623929Y-3582108D01*
X2623929Y-3582108D02*
X2633453Y-3591632D01*
X2633453Y-3591632D02*
X2652500Y-3601156D01*
X2652500Y-3601156D02*
X2690595Y-3601156D01*
X2690595Y-3601156D02*
X2709643Y-3591632D01*
X2709643Y-3591632D02*
X2719167Y-3582108D01*
X2719167Y-3582108D02*
X2728691Y-3563061D01*
X2728691Y-3563061D02*
X2728691Y-3515442D01*
X2728691Y-3515442D02*
X2719167Y-3496394D01*
X2719167Y-3496394D02*
X2709643Y-3486870D01*
X2709643Y-3486870D02*
X2690595Y-3477347D01*
X2690595Y-3477347D02*
X2652500Y-3477347D01*
X2652500Y-3477347D02*
X2633453Y-3486870D01*
X2633453Y-3486870D02*
X2623929Y-3496394D01*
X2623929Y-3496394D02*
X2614405Y-3515442D01*
X2934405Y-3601156D02*
X2934405Y-3401156D01*
X3020119Y-3601156D02*
X3020119Y-3496394D01*
X3020119Y-3496394D02*
X3010595Y-3477347D01*
X3010595Y-3477347D02*
X2991548Y-3467823D01*
X2991548Y-3467823D02*
X2962976Y-3467823D01*
X2962976Y-3467823D02*
X2943929Y-3477347D01*
X2943929Y-3477347D02*
X2934405Y-3486870D01*
X3143929Y-3601156D02*
X3124881Y-3591632D01*
X3124881Y-3591632D02*
X3115357Y-3582108D01*
X3115357Y-3582108D02*
X3105833Y-3563061D01*
X3105833Y-3563061D02*
X3105833Y-3505918D01*
X3105833Y-3505918D02*
X3115357Y-3486870D01*
X3115357Y-3486870D02*
X3124881Y-3477347D01*
X3124881Y-3477347D02*
X3143929Y-3467823D01*
X3143929Y-3467823D02*
X3172500Y-3467823D01*
X3172500Y-3467823D02*
X3191548Y-3477347D01*
X3191548Y-3477347D02*
X3201072Y-3486870D01*
X3201072Y-3486870D02*
X3210595Y-3505918D01*
X3210595Y-3505918D02*
X3210595Y-3563061D01*
X3210595Y-3563061D02*
X3201072Y-3582108D01*
X3201072Y-3582108D02*
X3191548Y-3591632D01*
X3191548Y-3591632D02*
X3172500Y-3601156D01*
X3172500Y-3601156D02*
X3143929Y-3601156D01*
X3324881Y-3601156D02*
X3305833Y-3591632D01*
X3305833Y-3591632D02*
X3296310Y-3572585D01*
X3296310Y-3572585D02*
X3296310Y-3401156D01*
X3477262Y-3591632D02*
X3458214Y-3601156D01*
X3458214Y-3601156D02*
X3420119Y-3601156D01*
X3420119Y-3601156D02*
X3401072Y-3591632D01*
X3401072Y-3591632D02*
X3391548Y-3572585D01*
X3391548Y-3572585D02*
X3391548Y-3496394D01*
X3391548Y-3496394D02*
X3401072Y-3477347D01*
X3401072Y-3477347D02*
X3420119Y-3467823D01*
X3420119Y-3467823D02*
X3458214Y-3467823D01*
X3458214Y-3467823D02*
X3477262Y-3477347D01*
X3477262Y-3477347D02*
X3486786Y-3496394D01*
X3486786Y-3496394D02*
X3486786Y-3515442D01*
X3486786Y-3515442D02*
X3391548Y-3534489D01*
X3562976Y-3591632D02*
X3582024Y-3601156D01*
X3582024Y-3601156D02*
X3620119Y-3601156D01*
X3620119Y-3601156D02*
X3639167Y-3591632D01*
X3639167Y-3591632D02*
X3648691Y-3572585D01*
X3648691Y-3572585D02*
X3648691Y-3563061D01*
X3648691Y-3563061D02*
X3639167Y-3544013D01*
X3639167Y-3544013D02*
X3620119Y-3534489D01*
X3620119Y-3534489D02*
X3591548Y-3534489D01*
X3591548Y-3534489D02*
X3572500Y-3524966D01*
X3572500Y-3524966D02*
X3562976Y-3505918D01*
X3562976Y-3505918D02*
X3562976Y-3496394D01*
X3562976Y-3496394D02*
X3572500Y-3477347D01*
X3572500Y-3477347D02*
X3591548Y-3467823D01*
X3591548Y-3467823D02*
X3620119Y-3467823D01*
X3620119Y-3467823D02*
X3639167Y-3477347D01*
X3715357Y-3677347D02*
X3724881Y-3667823D01*
X3724881Y-3667823D02*
X3743929Y-3639251D01*
X3743929Y-3639251D02*
X3753453Y-3620204D01*
X3753453Y-3620204D02*
X3762976Y-3591632D01*
X3762976Y-3591632D02*
X3772500Y-3544013D01*
X3772500Y-3544013D02*
X3772500Y-3505918D01*
X3772500Y-3505918D02*
X3762976Y-3458299D01*
X3762976Y-3458299D02*
X3753453Y-3429728D01*
X3753453Y-3429728D02*
X3743929Y-3410680D01*
X3743929Y-3410680D02*
X3724881Y-3382108D01*
X3724881Y-3382108D02*
X3715357Y-3372585D01*
X4044881Y-3677347D02*
X4035357Y-3667823D01*
X4035357Y-3667823D02*
X4016310Y-3639251D01*
X4016310Y-3639251D02*
X4006786Y-3620204D01*
X4006786Y-3620204D02*
X3997262Y-3591632D01*
X3997262Y-3591632D02*
X3987738Y-3544013D01*
X3987738Y-3544013D02*
X3987738Y-3505918D01*
X3987738Y-3505918D02*
X3997262Y-3458299D01*
X3997262Y-3458299D02*
X4006786Y-3429728D01*
X4006786Y-3429728D02*
X4016310Y-3410680D01*
X4016310Y-3410680D02*
X4035357Y-3382108D01*
X4035357Y-3382108D02*
X4044881Y-3372585D01*
X4121072Y-3467823D02*
X4121072Y-3601156D01*
X4121072Y-3486870D02*
X4130595Y-3477347D01*
X4130595Y-3477347D02*
X4149643Y-3467823D01*
X4149643Y-3467823D02*
X4178214Y-3467823D01*
X4178214Y-3467823D02*
X4197262Y-3477347D01*
X4197262Y-3477347D02*
X4206786Y-3496394D01*
X4206786Y-3496394D02*
X4206786Y-3601156D01*
X4330595Y-3601156D02*
X4311548Y-3591632D01*
X4311548Y-3591632D02*
X4302024Y-3582108D01*
X4302024Y-3582108D02*
X4292500Y-3563061D01*
X4292500Y-3563061D02*
X4292500Y-3505918D01*
X4292500Y-3505918D02*
X4302024Y-3486870D01*
X4302024Y-3486870D02*
X4311548Y-3477347D01*
X4311548Y-3477347D02*
X4330595Y-3467823D01*
X4330595Y-3467823D02*
X4359167Y-3467823D01*
X4359167Y-3467823D02*
X4378215Y-3477347D01*
X4378215Y-3477347D02*
X4387738Y-3486870D01*
X4387738Y-3486870D02*
X4397262Y-3505918D01*
X4397262Y-3505918D02*
X4397262Y-3563061D01*
X4397262Y-3563061D02*
X4387738Y-3582108D01*
X4387738Y-3582108D02*
X4378215Y-3591632D01*
X4378215Y-3591632D02*
X4359167Y-3601156D01*
X4359167Y-3601156D02*
X4330595Y-3601156D01*
X4454405Y-3467823D02*
X4530595Y-3467823D01*
X4482976Y-3401156D02*
X4482976Y-3572585D01*
X4482976Y-3572585D02*
X4492500Y-3591632D01*
X4492500Y-3591632D02*
X4511548Y-3601156D01*
X4511548Y-3601156D02*
X4530595Y-3601156D01*
X4717262Y-3467823D02*
X4717262Y-3667823D01*
X4717262Y-3477347D02*
X4736310Y-3467823D01*
X4736310Y-3467823D02*
X4774405Y-3467823D01*
X4774405Y-3467823D02*
X4793453Y-3477347D01*
X4793453Y-3477347D02*
X4802976Y-3486870D01*
X4802976Y-3486870D02*
X4812500Y-3505918D01*
X4812500Y-3505918D02*
X4812500Y-3563061D01*
X4812500Y-3563061D02*
X4802976Y-3582108D01*
X4802976Y-3582108D02*
X4793453Y-3591632D01*
X4793453Y-3591632D02*
X4774405Y-3601156D01*
X4774405Y-3601156D02*
X4736310Y-3601156D01*
X4736310Y-3601156D02*
X4717262Y-3591632D01*
X4926786Y-3601156D02*
X4907738Y-3591632D01*
X4907738Y-3591632D02*
X4898215Y-3572585D01*
X4898215Y-3572585D02*
X4898215Y-3401156D01*
X5088691Y-3601156D02*
X5088691Y-3496394D01*
X5088691Y-3496394D02*
X5079167Y-3477347D01*
X5079167Y-3477347D02*
X5060119Y-3467823D01*
X5060119Y-3467823D02*
X5022024Y-3467823D01*
X5022024Y-3467823D02*
X5002976Y-3477347D01*
X5088691Y-3591632D02*
X5069643Y-3601156D01*
X5069643Y-3601156D02*
X5022024Y-3601156D01*
X5022024Y-3601156D02*
X5002976Y-3591632D01*
X5002976Y-3591632D02*
X4993453Y-3572585D01*
X4993453Y-3572585D02*
X4993453Y-3553537D01*
X4993453Y-3553537D02*
X5002976Y-3534489D01*
X5002976Y-3534489D02*
X5022024Y-3524966D01*
X5022024Y-3524966D02*
X5069643Y-3524966D01*
X5069643Y-3524966D02*
X5088691Y-3515442D01*
X5155357Y-3467823D02*
X5231548Y-3467823D01*
X5183929Y-3401156D02*
X5183929Y-3572585D01*
X5183929Y-3572585D02*
X5193453Y-3591632D01*
X5193453Y-3591632D02*
X5212500Y-3601156D01*
X5212500Y-3601156D02*
X5231548Y-3601156D01*
X5374405Y-3591632D02*
X5355357Y-3601156D01*
X5355357Y-3601156D02*
X5317262Y-3601156D01*
X5317262Y-3601156D02*
X5298215Y-3591632D01*
X5298215Y-3591632D02*
X5288691Y-3572585D01*
X5288691Y-3572585D02*
X5288691Y-3496394D01*
X5288691Y-3496394D02*
X5298215Y-3477347D01*
X5298215Y-3477347D02*
X5317262Y-3467823D01*
X5317262Y-3467823D02*
X5355357Y-3467823D01*
X5355357Y-3467823D02*
X5374405Y-3477347D01*
X5374405Y-3477347D02*
X5383929Y-3496394D01*
X5383929Y-3496394D02*
X5383929Y-3515442D01*
X5383929Y-3515442D02*
X5288691Y-3534489D01*
X5555357Y-3601156D02*
X5555357Y-3401156D01*
X5555357Y-3591632D02*
X5536310Y-3601156D01*
X5536310Y-3601156D02*
X5498215Y-3601156D01*
X5498215Y-3601156D02*
X5479167Y-3591632D01*
X5479167Y-3591632D02*
X5469643Y-3582108D01*
X5469643Y-3582108D02*
X5460119Y-3563061D01*
X5460119Y-3563061D02*
X5460119Y-3505918D01*
X5460119Y-3505918D02*
X5469643Y-3486870D01*
X5469643Y-3486870D02*
X5479167Y-3477347D01*
X5479167Y-3477347D02*
X5498215Y-3467823D01*
X5498215Y-3467823D02*
X5536310Y-3467823D01*
X5536310Y-3467823D02*
X5555357Y-3477347D01*
X5631548Y-3677347D02*
X5641072Y-3667823D01*
X5641072Y-3667823D02*
X5660119Y-3639251D01*
X5660119Y-3639251D02*
X5669643Y-3620204D01*
X5669643Y-3620204D02*
X5679167Y-3591632D01*
X5679167Y-3591632D02*
X5688691Y-3544013D01*
X5688691Y-3544013D02*
X5688691Y-3505918D01*
X5688691Y-3505918D02*
X5679167Y-3458299D01*
X5679167Y-3458299D02*
X5669643Y-3429728D01*
X5669643Y-3429728D02*
X5660119Y-3410680D01*
X5660119Y-3410680D02*
X5641072Y-3382108D01*
X5641072Y-3382108D02*
X5631548Y-3372585D01*
M02*
