0
SECTION
2
HEADER
9
$INSUNITS
70
4
0
ENDSEC
0
SECTION
2
TABLES
0
TABLE
2
LTYPE
0
LTYPE
72
65
70
64
2
CONTINUOUS
3
______
73
0
40
0
0
ENDTAB
0
TABLE
2
LAYER
0
ENDTAB
0
ENDSEC
0
SECTION
2
ENTITIES
0
LINE
8
0
10
-7.26
20
-8.25
11
7.26
21
-8.25
0
LINE
8
0
10
8.75
20
-6.76
11
8.75
21
6.76
0
LINE
8
0
10
7.26
20
8.25
11
-7.26
21
8.25
0
LINE
8
0
10
-8.75
20
6.76
11
-8.75
21
-6.76
0
LINE
8
0
10
-7.26
20
8.75
11
7.26
21
8.75
0
LINE
8
0
10
8.75
20
10.24
11
8.75
21
23.76
0
LINE
8
0
10
7.26
20
25.25
11
-7.26
21
25.25
0
LINE
8
0
10
-8.75
20
23.76
11
-8.75
21
10.24
0
LINE
8
0
10
-7.26
20
25.75
11
7.26
21
25.75
0
LINE
8
0
10
8.75
20
27.24
11
8.75
21
40.76
0
LINE
8
0
10
7.26
20
42.25
11
-7.26
21
42.25
0
LINE
8
0
10
-8.75
20
40.76
11
-8.75
21
27.24
0
LINE
8
0
10
10.74
20
-5.25
11
25.26
21
-5.25
0
LINE
8
0
10
26.75
20
-3.76
11
26.75
21
9.76
0
LINE
8
0
10
25.26
20
11.25
11
10.74
21
11.25
0
LINE
8
0
10
9.25
20
9.76
11
9.25
21
-3.76
0
LINE
8
0
10
10.74
20
11.75
11
25.26
21
11.75
0
LINE
8
0
10
26.75
20
13.24
11
26.75
21
26.76
0
LINE
8
0
10
25.26
20
28.25
11
10.74
21
28.25
0
LINE
8
0
10
9.25
20
26.76
11
9.25
21
13.24
0
LINE
8
0
10
10.74
20
28.75
11
25.26
21
28.75
0
LINE
8
0
10
26.75
20
30.24
11
26.75
21
43.76
0
LINE
8
0
10
25.26
20
45.25
11
10.74
21
45.25
0
LINE
8
0
10
9.25
20
43.76
11
9.25
21
30.24
0
LINE
8
0
10
28.74
20
0.75
11
43.26
21
0.75
0
LINE
8
0
10
44.75
20
2.24
11
44.75
21
15.76
0
LINE
8
0
10
43.26
20
17.25
11
28.74
21
17.25
0
LINE
8
0
10
27.25
20
15.76
11
27.25
21
2.24
0
LINE
8
0
10
28.74
20
17.75
11
43.26
21
17.75
0
LINE
8
0
10
44.75
20
19.24
11
44.75
21
32.76
0
LINE
8
0
10
43.26
20
34.25
11
28.74
21
34.25
0
LINE
8
0
10
27.25
20
32.76
11
27.25
21
19.24
0
LINE
8
0
10
28.74
20
34.75
11
43.26
21
34.75
0
LINE
8
0
10
44.75
20
36.24
11
44.75
21
49.76
0
LINE
8
0
10
43.26
20
51.25
11
28.74
21
51.25
0
LINE
8
0
10
27.25
20
49.76
11
27.25
21
36.24
0
LINE
8
0
10
46.74
20
-2.25
11
61.26
21
-2.25
0
LINE
8
0
10
62.75
20
-0.76
11
62.75
21
12.76
0
LINE
8
0
10
61.26
20
14.25
11
46.74
21
14.25
0
LINE
8
0
10
45.25
20
12.76
11
45.25
21
-0.76
0
LINE
8
0
10
46.74
20
14.75
11
61.26
21
14.75
0
LINE
8
0
10
62.75
20
16.24
11
62.75
21
29.76
0
LINE
8
0
10
61.26
20
31.25
11
46.74
21
31.25
0
LINE
8
0
10
45.25
20
29.76
11
45.25
21
16.24
0
LINE
8
0
10
46.74
20
31.75
11
61.26
21
31.75
0
LINE
8
0
10
62.75
20
33.24
11
62.75
21
46.76
0
LINE
8
0
10
61.26
20
48.25
11
46.74
21
48.25
0
LINE
8
0
10
45.25
20
46.76
11
45.25
21
33.24
0
LINE
8
0
10
64.74
20
-19.25
11
79.26
21
-19.25
0
LINE
8
0
10
80.75
20
-17.76
11
80.75
21
-4.24
0
LINE
8
0
10
79.26
20
-2.75
11
64.74
21
-2.75
0
LINE
8
0
10
63.25
20
-4.24
11
63.25
21
-17.76
0
LINE
8
0
10
64.74
20
-2.25
11
79.26
21
-2.25
0
LINE
8
0
10
80.75
20
-0.76
11
80.75
21
12.76
0
LINE
8
0
10
79.26
20
14.25
11
64.74
21
14.25
0
LINE
8
0
10
63.25
20
12.76
11
63.25
21
-0.76
0
LINE
8
0
10
64.74
20
14.75
11
79.26
21
14.75
0
LINE
8
0
10
80.75
20
16.24
11
80.75
21
29.76
0
LINE
8
0
10
79.26
20
31.25
11
64.74
21
31.25
0
LINE
8
0
10
63.25
20
29.76
11
63.25
21
16.24
0
LINE
8
0
10
64.74
20
31.75
11
79.26
21
31.75
0
LINE
8
0
10
80.75
20
33.24
11
80.75
21
46.76
0
LINE
8
0
10
79.26
20
48.25
11
64.74
21
48.25
0
LINE
8
0
10
63.25
20
46.76
11
63.25
21
33.24
0
ARC
8
0
10
7.26
20
-6.76
40
1.49
50
270
51
0
0
ARC
8
0
10
7.26
20
6.76
40
1.49
50
0
51
90
0
ARC
8
0
10
-7.26
20
6.76
40
1.49
50
90
51
180
0
ARC
8
0
10
-7.26
20
-6.76
40
1.49
50
180
51
270
0
ARC
8
0
10
7.26
20
10.24
40
1.49
50
270
51
0
0
ARC
8
0
10
7.26
20
23.76
40
1.49
50
0
51
90
0
ARC
8
0
10
-7.26
20
23.76
40
1.49
50
90
51
180
0
ARC
8
0
10
-7.26
20
10.24
40
1.49
50
180
51
270
0
ARC
8
0
10
7.26
20
27.24
40
1.49
50
270
51
0
0
ARC
8
0
10
7.26
20
40.76
40
1.49
50
0
51
90
0
ARC
8
0
10
-7.26
20
40.76
40
1.49
50
90
51
180
0
ARC
8
0
10
-7.26
20
27.24
40
1.49
50
180
51
270
0
ARC
8
0
10
25.26
20
-3.76
40
1.49
50
270
51
0
0
ARC
8
0
10
25.26
20
9.76
40
1.49
50
0
51
90
0
ARC
8
0
10
10.74
20
9.76
40
1.49
50
90
51
180
0
ARC
8
0
10
10.74
20
-3.76
40
1.49
50
180
51
270
0
ARC
8
0
10
25.26
20
13.24
40
1.49
50
270
51
0
0
ARC
8
0
10
25.26
20
26.76
40
1.49
50
0
51
90
0
ARC
8
0
10
10.74
20
26.76
40
1.49
50
90
51
180
0
ARC
8
0
10
10.74
20
13.24
40
1.49
50
180
51
270
0
ARC
8
0
10
25.26
20
30.24
40
1.49
50
270
51
0
0
ARC
8
0
10
25.26
20
43.76
40
1.49
50
0
51
90
0
ARC
8
0
10
10.74
20
43.76
40
1.49
50
90
51
180
0
ARC
8
0
10
10.74
20
30.24
40
1.49
50
180
51
270
0
ARC
8
0
10
43.26
20
2.24
40
1.49
50
270
51
0
0
ARC
8
0
10
43.26
20
15.76
40
1.49
50
0
51
90
0
ARC
8
0
10
28.74
20
15.76
40
1.49
50
90
51
180
0
ARC
8
0
10
28.74
20
2.24
40
1.49
50
180
51
270
0
ARC
8
0
10
43.26
20
19.24
40
1.49
50
270
51
0
0
ARC
8
0
10
43.26
20
32.76
40
1.49
50
0
51
90
0
ARC
8
0
10
28.74
20
32.76
40
1.49
50
90
51
180
0
ARC
8
0
10
28.74
20
19.24
40
1.49
50
180
51
270
0
ARC
8
0
10
43.26
20
36.24
40
1.49
50
270
51
0
0
ARC
8
0
10
43.26
20
49.76
40
1.49
50
0
51
90
0
ARC
8
0
10
28.74
20
49.76
40
1.49
50
90
51
180
0
ARC
8
0
10
28.74
20
36.24
40
1.49
50
180
51
270
0
ARC
8
0
10
61.26
20
-0.76
40
1.49
50
270
51
0
0
ARC
8
0
10
61.26
20
12.76
40
1.49
50
0
51
90
0
ARC
8
0
10
46.74
20
12.76
40
1.49
50
90
51
180
0
ARC
8
0
10
46.74
20
-0.76
40
1.49
50
180
51
270
0
ARC
8
0
10
61.26
20
16.24
40
1.49
50
270
51
0
0
ARC
8
0
10
61.26
20
29.76
40
1.49
50
0
51
90
0
ARC
8
0
10
46.74
20
29.76
40
1.49
50
90
51
180
0
ARC
8
0
10
46.74
20
16.24
40
1.49
50
180
51
270
0
ARC
8
0
10
61.26
20
33.24
40
1.49
50
270
51
0
0
ARC
8
0
10
61.26
20
46.76
40
1.49
50
0
51
90
0
ARC
8
0
10
46.74
20
46.76
40
1.49
50
90
51
180
0
ARC
8
0
10
46.74
20
33.24
40
1.49
50
180
51
270
0
ARC
8
0
10
79.26
20
-17.76
40
1.49
50
270
51
0
0
ARC
8
0
10
79.26
20
-4.24
40
1.49
50
0
51
90
0
ARC
8
0
10
64.74
20
-4.24
40
1.49
50
90
51
180
0
ARC
8
0
10
64.74
20
-17.76
40
1.49
50
180
51
270
0
ARC
8
0
10
79.26
20
-0.76
40
1.49
50
270
51
0
0
ARC
8
0
10
79.26
20
12.76
40
1.49
50
0
51
90
0
ARC
8
0
10
64.74
20
12.76
40
1.49
50
90
51
180
0
ARC
8
0
10
64.74
20
-0.76
40
1.49
50
180
51
270
0
ARC
8
0
10
79.26
20
16.24
40
1.49
50
270
51
0
0
ARC
8
0
10
79.26
20
29.76
40
1.49
50
0
51
90
0
ARC
8
0
10
64.74
20
29.76
40
1.49
50
90
51
180
0
ARC
8
0
10
64.74
20
16.24
40
1.49
50
180
51
270
0
ARC
8
0
10
79.26
20
33.24
40
1.49
50
270
51
0
0
ARC
8
0
10
79.26
20
46.76
40
1.49
50
0
51
90
0
ARC
8
0
10
64.74
20
46.76
40
1.49
50
90
51
180
0
ARC
8
0
10
64.74
20
33.24
40
1.49
50
180
51
270
0
ENDSEC
0
EOF