0
SECTION
2
HEADER
9
$INSUNITS
70
4
0
ENDSEC
0
SECTION
2
TABLES
0
TABLE
2
LTYPE
0
LTYPE
72
65
70
64
2
CONTINUOUS
3
______
73
0
40
0
0
ENDTAB
0
TABLE
2
LAYER
0
ENDTAB
0
ENDSEC
0
SECTION
2
ENTITIES
0
LINE
8
0
10
-6.9
20
-6.9
11
6.9
21
-6.9
0
LINE
8
0
10
6.9
20
-6.9
11
6.9
21
6.9
0
LINE
8
0
10
6.9
20
6.9
11
-6.9
21
6.9
0
LINE
8
0
10
-6.9
20
6.9
11
-6.9
21
-6.9
0
LINE
8
0
10
-6.9
20
10.1
11
6.9
21
10.1
0
LINE
8
0
10
6.9
20
10.1
11
6.9
21
23.9
0
LINE
8
0
10
6.9
20
23.9
11
-6.9
21
23.9
0
LINE
8
0
10
-6.9
20
23.9
11
-6.9
21
10.1
0
LINE
8
0
10
-6.9
20
27.1
11
6.9
21
27.1
0
LINE
8
0
10
6.9
20
27.1
11
6.9
21
40.9
0
LINE
8
0
10
6.9
20
40.9
11
-6.9
21
40.9
0
LINE
8
0
10
-6.9
20
40.9
11
-6.9
21
27.1
0
LINE
8
0
10
11.1
20
-3.9
11
24.9
21
-3.9
0
LINE
8
0
10
24.9
20
-3.9
11
24.9
21
9.9
0
LINE
8
0
10
24.9
20
9.9
11
11.1
21
9.9
0
LINE
8
0
10
11.1
20
9.9
11
11.1
21
-3.9
0
LINE
8
0
10
11.1
20
13.1
11
24.9
21
13.1
0
LINE
8
0
10
24.9
20
13.1
11
24.9
21
26.9
0
LINE
8
0
10
24.9
20
26.9
11
11.1
21
26.9
0
LINE
8
0
10
11.1
20
26.9
11
11.1
21
13.1
0
LINE
8
0
10
11.1
20
30.1
11
24.9
21
30.1
0
LINE
8
0
10
24.9
20
30.1
11
24.9
21
43.9
0
LINE
8
0
10
24.9
20
43.9
11
11.1
21
43.9
0
LINE
8
0
10
11.1
20
43.9
11
11.1
21
30.1
0
LINE
8
0
10
29.1
20
2.1
11
42.9
21
2.1
0
LINE
8
0
10
42.9
20
2.1
11
42.9
21
15.9
0
LINE
8
0
10
42.9
20
15.9
11
29.1
21
15.9
0
LINE
8
0
10
29.1
20
15.9
11
29.1
21
2.1
0
LINE
8
0
10
29.1
20
19.1
11
42.9
21
19.1
0
LINE
8
0
10
42.9
20
19.1
11
42.9
21
32.9
0
LINE
8
0
10
42.9
20
32.9
11
29.1
21
32.9
0
LINE
8
0
10
29.1
20
32.9
11
29.1
21
19.1
0
LINE
8
0
10
29.1
20
36.1
11
42.9
21
36.1
0
LINE
8
0
10
42.9
20
36.1
11
42.9
21
49.9
0
LINE
8
0
10
42.9
20
49.9
11
29.1
21
49.9
0
LINE
8
0
10
29.1
20
49.9
11
29.1
21
36.1
0
LINE
8
0
10
47.1
20
-0.9
11
60.9
21
-0.9
0
LINE
8
0
10
60.9
20
-0.9
11
60.9
21
12.9
0
LINE
8
0
10
60.9
20
12.9
11
47.1
21
12.9
0
LINE
8
0
10
47.1
20
12.9
11
47.1
21
-0.9
0
LINE
8
0
10
47.1
20
16.1
11
60.9
21
16.1
0
LINE
8
0
10
60.9
20
16.1
11
60.9
21
29.9
0
LINE
8
0
10
60.9
20
29.9
11
47.1
21
29.9
0
LINE
8
0
10
47.1
20
29.9
11
47.1
21
16.1
0
LINE
8
0
10
47.1
20
33.1
11
60.9
21
33.1
0
LINE
8
0
10
60.9
20
33.1
11
60.9
21
46.9
0
LINE
8
0
10
60.9
20
46.9
11
47.1
21
46.9
0
LINE
8
0
10
47.1
20
46.9
11
47.1
21
33.1
0
LINE
8
0
10
65.1
20
-17.9
11
78.9
21
-17.9
0
LINE
8
0
10
78.9
20
-17.9
11
78.9
21
-4.1
0
LINE
8
0
10
78.9
20
-4.1
11
65.1
21
-4.1
0
LINE
8
0
10
65.1
20
-4.1
11
65.1
21
-17.9
0
LINE
8
0
10
65.1
20
-0.9
11
78.9
21
-0.9
0
LINE
8
0
10
78.9
20
-0.9
11
78.9
21
12.9
0
LINE
8
0
10
78.9
20
12.9
11
65.1
21
12.9
0
LINE
8
0
10
65.1
20
12.9
11
65.1
21
-0.9
0
LINE
8
0
10
65.1
20
16.1
11
78.9
21
16.1
0
LINE
8
0
10
78.9
20
16.1
11
78.9
21
29.9
0
LINE
8
0
10
78.9
20
29.9
11
65.1
21
29.9
0
LINE
8
0
10
65.1
20
29.9
11
65.1
21
16.1
0
LINE
8
0
10
65.1
20
33.1
11
78.9
21
33.1
0
LINE
8
0
10
78.9
20
33.1
11
78.9
21
46.9
0
LINE
8
0
10
78.9
20
46.9
11
65.1
21
46.9
0
LINE
8
0
10
65.1
20
46.9
11
65.1
21
33.1
0
ENDSEC
0
EOF