%TF.GenerationSoftware,KiCad,Pcbnew,(7.0.0-0)*%
%TF.CreationDate,2023-06-15T18:29:18+08:00*%
%TF.ProjectId,right,72696768-742e-46b6-9963-61645f706362,v1.0.0*%
%TF.SameCoordinates,Original*%
%TF.FileFunction,Paste,Bot*%
%TF.FilePolarity,Positive*%
%FSLAX46Y46*%
G04 Gerber Fmt 4.6, Leading zero omitted, Abs format (unit mm)*
G04 Created by KiCad (PCBNEW (7.0.0-0)) date 2023-06-15 18:29:18*
%MOMM*%
%LPD*%
G01*
G04 APERTURE LIST*
G04 Aperture macros list*
%AMRoundRect*
0 Rectangle with rounded corners*
0 $1 Rounding radius*
0 $2 $3 $4 $5 $6 $7 $8 $9 X,Y pos of 4 corners*
0 Add a 4 corners polygon primitive as box body*
4,1,4,$2,$3,$4,$5,$6,$7,$8,$9,$2,$3,0*
0 Add four circle primitives for the rounded corners*
1,1,$1+$1,$2,$3*
1,1,$1+$1,$4,$5*
1,1,$1+$1,$6,$7*
1,1,$1+$1,$8,$9*
0 Add four rect primitives between the rounded corners*
20,1,$1+$1,$2,$3,$4,$5,0*
20,1,$1+$1,$4,$5,$6,$7,0*
20,1,$1+$1,$6,$7,$8,$9,0*
20,1,$1+$1,$8,$9,$2,$3,0*%
G04 Aperture macros list end*
%ADD10R,0.600000X0.700000*%
%ADD11R,1.200000X1.800000*%
%ADD12RoundRect,0.381000X0.381000X-0.619000X0.381000X0.619000X-0.381000X0.619000X-0.381000X-0.619000X0*%
%ADD13RoundRect,0.378000X0.378000X-0.622000X0.378000X0.622000X-0.378000X0.622000X-0.378000X-0.622000X0*%
%ADD14RoundRect,0.150000X0.625000X-0.150000X0.625000X0.150000X-0.625000X0.150000X-0.625000X-0.150000X0*%
%ADD15RoundRect,0.250000X0.650000X-0.350000X0.650000X0.350000X-0.650000X0.350000X-0.650000X-0.350000X0*%
%ADD16R,2.600000X2.600000*%
G04 APERTURE END LIST*
D10*
%TO.C,D1*%
X2899999Y31399999D03*
X4299999Y31399999D03*
%TD*%
%TO.C,D2*%
X2899999Y14399999D03*
X4299999Y14399999D03*
%TD*%
%TO.C,D3*%
X76699999Y36999999D03*
X75299999Y36999999D03*
%TD*%
D11*
%TO.C,SS1*%
X53999999Y15249999D03*
X51499999Y21249999D03*
X48999999Y15249999D03*
%TD*%
D12*
%TO.C,SB1*%
X58500000Y15750000D03*
D13*
X58500000Y19250000D03*
%TD*%
D14*
%TO.C,JB1*%
X60000000Y2500000D03*
X60000000Y1500000D03*
D15*
X56125000Y3800000D03*
X56125000Y200000D03*
%TD*%
D14*
%TO.C,JC1*%
X42000000Y22500000D03*
X42000000Y21500000D03*
X42000000Y20500000D03*
X42000000Y19500000D03*
X42000000Y18500000D03*
D15*
X38125000Y17200000D03*
X38125000Y23800000D03*
%TD*%
D16*
%TO.C,S3*%
X75274999Y17049999D03*
X63724999Y19249999D03*
%TD*%
D10*
%TO.C,D4*%
X74899999Y20399999D03*
X76299999Y20399999D03*
%TD*%
D16*
%TO.C,S4*%
X75274999Y49999D03*
X63724999Y2249999D03*
%TD*%
D10*
%TO.C,D5*%
X74899999Y3399999D03*
X76299999Y3399999D03*
%TD*%
D16*
%TO.C,S5*%
X75274999Y-16949999D03*
X63724999Y-14749999D03*
%TD*%
D10*
%TO.C,D6*%
X74899999Y-13599999D03*
X76299999Y-13599999D03*
%TD*%
D16*
%TO.C,S6*%
X50724999Y45949999D03*
X62274999Y43749999D03*
%TD*%
D10*
%TO.C,D7*%
X51099999Y42599999D03*
X49699999Y42599999D03*
%TD*%
D16*
%TO.C,S7*%
X50724999Y28949999D03*
X62274999Y26749999D03*
%TD*%
D10*
%TO.C,D8*%
X51099999Y25599999D03*
X49699999Y25599999D03*
%TD*%
D16*
%TO.C,S8*%
X50724999Y11949999D03*
X62274999Y9749999D03*
%TD*%
D10*
%TO.C,D9*%
X51099999Y8599999D03*
X49699999Y8599999D03*
%TD*%
D16*
%TO.C,S9*%
X32724999Y48949999D03*
X44274999Y46749999D03*
%TD*%
D10*
%TO.C,D10*%
X33099999Y45599999D03*
X31699999Y45599999D03*
%TD*%
D16*
%TO.C,S10*%
X32724999Y31949999D03*
X44274999Y29749999D03*
%TD*%
D10*
%TO.C,D11*%
X33099999Y28599999D03*
X31699999Y28599999D03*
%TD*%
D16*
%TO.C,S11*%
X32724999Y14949999D03*
X44274999Y12749999D03*
%TD*%
D10*
%TO.C,D12*%
X33099999Y11599999D03*
X31699999Y11599999D03*
%TD*%
D16*
%TO.C,S12*%
X14724999Y42949999D03*
X26274999Y40749999D03*
%TD*%
D10*
%TO.C,D13*%
X15099999Y39599999D03*
X13699999Y39599999D03*
%TD*%
D16*
%TO.C,S13*%
X14724999Y25949999D03*
X26274999Y23749999D03*
%TD*%
D10*
%TO.C,D14*%
X15099999Y22599999D03*
X13699999Y22599999D03*
%TD*%
D16*
%TO.C,S14*%
X14724999Y8949999D03*
X26274999Y6749999D03*
%TD*%
D10*
%TO.C,D15*%
X15099999Y5599999D03*
X13699999Y5599999D03*
%TD*%
D16*
%TO.C,S15*%
X3274999Y-5949999D03*
X-8274999Y-3749999D03*
%TD*%
D10*
%TO.C,D16*%
X2899999Y-2599999D03*
X4299999Y-2599999D03*
%TD*%
M02*
