%TF.GenerationSoftware,KiCad,Pcbnew,(7.0.0-0)*%
%TF.CreationDate,2023-06-08T17:13:50+08:00*%
%TF.ProjectId,thumb,7468756d-622e-46b6-9963-61645f706362,v1.0.0*%
%TF.SameCoordinates,Original*%
%TF.FileFunction,Soldermask,Bot*%
%TF.FilePolarity,Negative*%
%FSLAX46Y46*%
G04 Gerber Fmt 4.6, Leading zero omitted, Abs format (unit mm)*
G04 Created by KiCad (PCBNEW (7.0.0-0)) date 2023-06-08 17:13:50*
%MOMM*%
%LPD*%
G01*
G04 APERTURE LIST*
G04 Aperture macros list*
%AMRoundRect*
0 Rectangle with rounded corners*
0 $1 Rounding radius*
0 $2 $3 $4 $5 $6 $7 $8 $9 X,Y pos of 4 corners*
0 Add a 4 corners polygon primitive as box body*
4,1,4,$2,$3,$4,$5,$6,$7,$8,$9,$2,$3,0*
0 Add four circle primitives for the rounded corners*
1,1,$1+$1,$2,$3*
1,1,$1+$1,$4,$5*
1,1,$1+$1,$6,$7*
1,1,$1+$1,$8,$9*
0 Add four rect primitives between the rounded corners*
20,1,$1+$1,$2,$3,$4,$5,0*
20,1,$1+$1,$4,$5,$6,$7,0*
20,1,$1+$1,$6,$7,$8,$9,0*
20,1,$1+$1,$8,$9,$2,$3,0*%
G04 Aperture macros list end*
%ADD10RoundRect,0.200000X-0.625000X0.150000X-0.625000X-0.150000X0.625000X-0.150000X0.625000X0.150000X0*%
%ADD11RoundRect,0.300000X-0.650000X0.350000X-0.650000X-0.350000X0.650000X-0.350000X0.650000X0.350000X0*%
%ADD12C,2.300000*%
%ADD13C,3.529000*%
%ADD14C,1.801800*%
%ADD15C,3.100000*%
%ADD16RoundRect,0.050000X-1.300000X-1.300000X1.300000X-1.300000X1.300000X1.300000X-1.300000X1.300000X0*%
%ADD17RoundRect,0.050000X-0.300000X-0.350000X0.300000X-0.350000X0.300000X0.350000X-0.300000X0.350000X0*%
%ADD18RoundRect,0.050000X0.300000X0.350000X-0.300000X0.350000X-0.300000X-0.350000X0.300000X-0.350000X0*%
G04 APERTURE END LIST*
D10*
%TO.C,JC1*%
X11000000Y20500000D03*
X11000000Y21500000D03*
X11000000Y22500000D03*
X11000000Y23500000D03*
X11000000Y24500000D03*
D11*
X14875000Y25800000D03*
X14875000Y19200000D03*
%TD*%
D12*
%TO.C,H1*%
X9000000Y34000000D03*
%TD*%
%TO.C,H2*%
X9000000Y0D03*
%TD*%
D13*
%TO.C,S1*%
X18000000Y34000000D03*
D14*
X23500000Y34000000D03*
X12500000Y34000000D03*
D15*
X13000000Y30250000D03*
X18000000Y28050000D03*
D16*
X21275000Y28050000D03*
X9725000Y30250000D03*
%TD*%
D17*
%TO.C,D1*%
X20900000Y31400000D03*
X22300000Y31400000D03*
%TD*%
D13*
%TO.C,S2*%
X18000000Y17000000D03*
D14*
X23500000Y17000000D03*
X12500000Y17000000D03*
D15*
X13000000Y13250000D03*
X18000000Y11050000D03*
D16*
X21275000Y11050000D03*
X9725000Y13250000D03*
%TD*%
D17*
%TO.C,D2*%
X20900000Y14400000D03*
X22300000Y14400000D03*
%TD*%
D13*
%TO.C,S3*%
X18000000Y0D03*
D14*
X23500000Y0D03*
X12500000Y0D03*
D15*
X13000000Y-3750000D03*
X18000000Y-5950000D03*
D16*
X21275000Y-5950000D03*
X9725000Y-3750000D03*
%TD*%
D17*
%TO.C,D3*%
X20900000Y-2600000D03*
X22300000Y-2600000D03*
%TD*%
D13*
%TO.C,S4*%
X0Y34000000D03*
D14*
X-5500000Y34000000D03*
X5500000Y34000000D03*
D15*
X5000000Y37750000D03*
X0Y39950000D03*
D16*
X-3275000Y39950000D03*
X8275000Y37750000D03*
%TD*%
D18*
%TO.C,D4*%
X-2900000Y36600000D03*
X-4300000Y36600000D03*
%TD*%
D13*
%TO.C,S5*%
X0Y17000000D03*
D14*
X-5500000Y17000000D03*
X5500000Y17000000D03*
D15*
X5000000Y20750000D03*
X0Y22950000D03*
D16*
X-3275000Y22950000D03*
X8275000Y20750000D03*
%TD*%
D18*
%TO.C,D5*%
X-2900000Y19600000D03*
X-4300000Y19600000D03*
%TD*%
D13*
%TO.C,S6*%
X0Y0D03*
D14*
X-5500000Y0D03*
X5500000Y0D03*
D15*
X5000000Y3750000D03*
X0Y5950000D03*
D16*
X-3275000Y5950000D03*
X8275000Y3750000D03*
%TD*%
D18*
%TO.C,D6*%
X-2900000Y2600000D03*
X-4300000Y2600000D03*
%TD*%
M02*
