%TF.GenerationSoftware,KiCad,Pcbnew,(7.0.0-0)*%
%TF.CreationDate,2023-06-29T16:50:22+08:00*%
%TF.ProjectId,thumb3,7468756d-6233-42e6-9b69-6361645f7063,v1.0.0*%
%TF.SameCoordinates,Original*%
%TF.FileFunction,Drillmap*%
%TF.FilePolarity,Positive*%
%FSLAX45Y45*%
G04 Gerber Fmt 4.5, Leading zero omitted, Abs format (unit mm)*
G04 Created by KiCad (PCBNEW (7.0.0-0)) date 2023-06-29 16:50:22*
%MOMM*%
%LPD*%
G01*
G04 APERTURE LIST*
%ADD10C,0.150000*%
%ADD11C,0.200000*%
%ADD12C,0.030000*%
G04 APERTURE END LIST*
D10*
X-850000Y-850000D02*
X850000Y-850000D01*
X1000000Y-700000D02*
X1000000Y4100000D01*
X-1000000Y-700000D02*
X-1000000Y4100000D01*
X850000Y4250000D02*
X-850000Y4250000D01*
X850000Y-850000D02*
G75*
G03*
X1000000Y-700000I0J150000D01*
G01*
X1000000Y4100000D02*
G75*
G03*
X850000Y4250000I-150000J0D01*
G01*
X-850000Y4250000D02*
G75*
G03*
X-1000000Y4100000I0J-150000D01*
G01*
X-1000000Y-700000D02*
G75*
G03*
X-850000Y-850000I150000J0D01*
G01*
D11*
D12*
X-842500Y1340000D02*
X-812500Y1310000D01*
X-812500Y1340000D02*
X-842500Y1310000D01*
X-842500Y-360000D02*
X-812500Y-390000D01*
X-812500Y-360000D02*
X-842500Y-390000D01*
X-342500Y4010000D02*
X-312500Y3980000D01*
X-312500Y4010000D02*
X-342500Y3980000D01*
X312500Y1120000D02*
X342500Y1090000D01*
X342500Y1120000D02*
X312500Y1090000D01*
X312500Y-580000D02*
X342500Y-610000D01*
X342500Y-580000D02*
X312500Y-610000D01*
X812500Y3790000D02*
X842500Y3760000D01*
X842500Y3790000D02*
X812500Y3760000D01*
D11*
X-759881Y-1150976D02*
X-759881Y-950976D01*
X-759881Y-950976D02*
X-712262Y-950976D01*
X-712262Y-950976D02*
X-683690Y-960500D01*
X-683690Y-960500D02*
X-664643Y-979548D01*
X-664643Y-979548D02*
X-655119Y-998595D01*
X-655119Y-998595D02*
X-645595Y-1036690D01*
X-645595Y-1036690D02*
X-645595Y-1065262D01*
X-645595Y-1065262D02*
X-655119Y-1103357D01*
X-655119Y-1103357D02*
X-664643Y-1122405D01*
X-664643Y-1122405D02*
X-683690Y-1141452D01*
X-683690Y-1141452D02*
X-712262Y-1150976D01*
X-712262Y-1150976D02*
X-759881Y-1150976D01*
X-559881Y-1150976D02*
X-559881Y-1017643D01*
X-559881Y-1055738D02*
X-550357Y-1036690D01*
X-550357Y-1036690D02*
X-540833Y-1027167D01*
X-540833Y-1027167D02*
X-521786Y-1017643D01*
X-521786Y-1017643D02*
X-502738Y-1017643D01*
X-436071Y-1150976D02*
X-436071Y-1017643D01*
X-436071Y-950976D02*
X-445595Y-960500D01*
X-445595Y-960500D02*
X-436071Y-970024D01*
X-436071Y-970024D02*
X-426548Y-960500D01*
X-426548Y-960500D02*
X-436071Y-950976D01*
X-436071Y-950976D02*
X-436071Y-970024D01*
X-312262Y-1150976D02*
X-331310Y-1141452D01*
X-331310Y-1141452D02*
X-340833Y-1122405D01*
X-340833Y-1122405D02*
X-340833Y-950976D01*
X-207500Y-1150976D02*
X-226548Y-1141452D01*
X-226548Y-1141452D02*
X-236071Y-1122405D01*
X-236071Y-1122405D02*
X-236071Y-950976D01*
X-11309Y-1150976D02*
X-11309Y-950976D01*
X-11309Y-950976D02*
X55357Y-1093833D01*
X55357Y-1093833D02*
X122024Y-950976D01*
X122024Y-950976D02*
X122024Y-1150976D01*
X302976Y-1150976D02*
X302976Y-1046214D01*
X302976Y-1046214D02*
X293452Y-1027167D01*
X293452Y-1027167D02*
X274405Y-1017643D01*
X274405Y-1017643D02*
X236309Y-1017643D01*
X236309Y-1017643D02*
X217262Y-1027167D01*
X302976Y-1141452D02*
X283929Y-1150976D01*
X283929Y-1150976D02*
X236309Y-1150976D01*
X236309Y-1150976D02*
X217262Y-1141452D01*
X217262Y-1141452D02*
X207738Y-1122405D01*
X207738Y-1122405D02*
X207738Y-1103357D01*
X207738Y-1103357D02*
X217262Y-1084310D01*
X217262Y-1084310D02*
X236309Y-1074786D01*
X236309Y-1074786D02*
X283929Y-1074786D01*
X283929Y-1074786D02*
X302976Y-1065262D01*
X398214Y-1017643D02*
X398214Y-1217643D01*
X398214Y-1027167D02*
X417262Y-1017643D01*
X417262Y-1017643D02*
X455357Y-1017643D01*
X455357Y-1017643D02*
X474405Y-1027167D01*
X474405Y-1027167D02*
X483928Y-1036690D01*
X483928Y-1036690D02*
X493452Y-1055738D01*
X493452Y-1055738D02*
X493452Y-1112881D01*
X493452Y-1112881D02*
X483928Y-1131929D01*
X483928Y-1131929D02*
X474405Y-1141452D01*
X474405Y-1141452D02*
X455357Y-1150976D01*
X455357Y-1150976D02*
X417262Y-1150976D01*
X417262Y-1150976D02*
X398214Y-1141452D01*
X579167Y-1131929D02*
X588690Y-1141452D01*
X588690Y-1141452D02*
X579167Y-1150976D01*
X579167Y-1150976D02*
X569643Y-1141452D01*
X569643Y-1141452D02*
X579167Y-1131929D01*
X579167Y-1131929D02*
X579167Y-1150976D01*
X579167Y-1027167D02*
X588690Y-1036690D01*
X588690Y-1036690D02*
X579167Y-1046214D01*
X579167Y-1046214D02*
X569643Y-1036690D01*
X569643Y-1036690D02*
X579167Y-1027167D01*
X579167Y-1027167D02*
X579167Y-1046214D01*
D12*
X-1037500Y-1482500D02*
X-1007500Y-1512500D01*
X-1007500Y-1482500D02*
X-1037500Y-1512500D01*
D11*
X-721786Y-1370976D02*
X-702738Y-1370976D01*
X-702738Y-1370976D02*
X-683690Y-1380500D01*
X-683690Y-1380500D02*
X-674167Y-1390024D01*
X-674167Y-1390024D02*
X-664643Y-1409071D01*
X-664643Y-1409071D02*
X-655119Y-1447167D01*
X-655119Y-1447167D02*
X-655119Y-1494786D01*
X-655119Y-1494786D02*
X-664643Y-1532881D01*
X-664643Y-1532881D02*
X-674167Y-1551928D01*
X-674167Y-1551928D02*
X-683690Y-1561452D01*
X-683690Y-1561452D02*
X-702738Y-1570976D01*
X-702738Y-1570976D02*
X-721786Y-1570976D01*
X-721786Y-1570976D02*
X-740833Y-1561452D01*
X-740833Y-1561452D02*
X-750357Y-1551928D01*
X-750357Y-1551928D02*
X-759881Y-1532881D01*
X-759881Y-1532881D02*
X-769405Y-1494786D01*
X-769405Y-1494786D02*
X-769405Y-1447167D01*
X-769405Y-1447167D02*
X-759881Y-1409071D01*
X-759881Y-1409071D02*
X-750357Y-1390024D01*
X-750357Y-1390024D02*
X-740833Y-1380500D01*
X-740833Y-1380500D02*
X-721786Y-1370976D01*
X-569405Y-1551928D02*
X-559881Y-1561452D01*
X-559881Y-1561452D02*
X-569405Y-1570976D01*
X-569405Y-1570976D02*
X-578929Y-1561452D01*
X-578929Y-1561452D02*
X-569405Y-1551928D01*
X-569405Y-1551928D02*
X-569405Y-1570976D01*
X-493214Y-1370976D02*
X-369405Y-1370976D01*
X-369405Y-1370976D02*
X-436071Y-1447167D01*
X-436071Y-1447167D02*
X-407500Y-1447167D01*
X-407500Y-1447167D02*
X-388452Y-1456690D01*
X-388452Y-1456690D02*
X-378928Y-1466214D01*
X-378928Y-1466214D02*
X-369405Y-1485262D01*
X-369405Y-1485262D02*
X-369405Y-1532881D01*
X-369405Y-1532881D02*
X-378928Y-1551928D01*
X-378928Y-1551928D02*
X-388452Y-1561452D01*
X-388452Y-1561452D02*
X-407500Y-1570976D01*
X-407500Y-1570976D02*
X-464643Y-1570976D01*
X-464643Y-1570976D02*
X-483690Y-1561452D01*
X-483690Y-1561452D02*
X-493214Y-1551928D01*
X-245595Y-1370976D02*
X-226547Y-1370976D01*
X-226547Y-1370976D02*
X-207500Y-1380500D01*
X-207500Y-1380500D02*
X-197976Y-1390024D01*
X-197976Y-1390024D02*
X-188452Y-1409071D01*
X-188452Y-1409071D02*
X-178928Y-1447167D01*
X-178928Y-1447167D02*
X-178928Y-1494786D01*
X-178928Y-1494786D02*
X-188452Y-1532881D01*
X-188452Y-1532881D02*
X-197976Y-1551928D01*
X-197976Y-1551928D02*
X-207500Y-1561452D01*
X-207500Y-1561452D02*
X-226547Y-1570976D01*
X-226547Y-1570976D02*
X-245595Y-1570976D01*
X-245595Y-1570976D02*
X-264643Y-1561452D01*
X-264643Y-1561452D02*
X-274167Y-1551928D01*
X-274167Y-1551928D02*
X-283690Y-1532881D01*
X-283690Y-1532881D02*
X-293214Y-1494786D01*
X-293214Y-1494786D02*
X-293214Y-1447167D01*
X-293214Y-1447167D02*
X-283690Y-1409071D01*
X-283690Y-1409071D02*
X-274167Y-1390024D01*
X-274167Y-1390024D02*
X-264643Y-1380500D01*
X-264643Y-1380500D02*
X-245595Y-1370976D01*
X-55119Y-1370976D02*
X-36071Y-1370976D01*
X-36071Y-1370976D02*
X-17024Y-1380500D01*
X-17024Y-1380500D02*
X-7500Y-1390024D01*
X-7500Y-1390024D02*
X2024Y-1409071D01*
X2024Y-1409071D02*
X11548Y-1447167D01*
X11548Y-1447167D02*
X11548Y-1494786D01*
X11548Y-1494786D02*
X2024Y-1532881D01*
X2024Y-1532881D02*
X-7500Y-1551928D01*
X-7500Y-1551928D02*
X-17024Y-1561452D01*
X-17024Y-1561452D02*
X-36071Y-1570976D01*
X-36071Y-1570976D02*
X-55119Y-1570976D01*
X-55119Y-1570976D02*
X-74167Y-1561452D01*
X-74167Y-1561452D02*
X-83690Y-1551928D01*
X-83690Y-1551928D02*
X-93214Y-1532881D01*
X-93214Y-1532881D02*
X-102738Y-1494786D01*
X-102738Y-1494786D02*
X-102738Y-1447167D01*
X-102738Y-1447167D02*
X-93214Y-1409071D01*
X-93214Y-1409071D02*
X-83690Y-1390024D01*
X-83690Y-1390024D02*
X-74167Y-1380500D01*
X-74167Y-1380500D02*
X-55119Y-1370976D01*
X97262Y-1570976D02*
X97262Y-1437643D01*
X97262Y-1456690D02*
X106786Y-1447167D01*
X106786Y-1447167D02*
X125833Y-1437643D01*
X125833Y-1437643D02*
X154405Y-1437643D01*
X154405Y-1437643D02*
X173452Y-1447167D01*
X173452Y-1447167D02*
X182976Y-1466214D01*
X182976Y-1466214D02*
X182976Y-1570976D01*
X182976Y-1466214D02*
X192500Y-1447167D01*
X192500Y-1447167D02*
X211548Y-1437643D01*
X211548Y-1437643D02*
X240119Y-1437643D01*
X240119Y-1437643D02*
X259167Y-1447167D01*
X259167Y-1447167D02*
X268691Y-1466214D01*
X268691Y-1466214D02*
X268691Y-1570976D01*
X363929Y-1570976D02*
X363929Y-1437643D01*
X363929Y-1456690D02*
X373452Y-1447167D01*
X373452Y-1447167D02*
X392500Y-1437643D01*
X392500Y-1437643D02*
X421071Y-1437643D01*
X421071Y-1437643D02*
X440119Y-1447167D01*
X440119Y-1447167D02*
X449643Y-1466214D01*
X449643Y-1466214D02*
X449643Y-1570976D01*
X449643Y-1466214D02*
X459167Y-1447167D01*
X459167Y-1447167D02*
X478214Y-1437643D01*
X478214Y-1437643D02*
X506786Y-1437643D01*
X506786Y-1437643D02*
X525833Y-1447167D01*
X525833Y-1447167D02*
X535357Y-1466214D01*
X535357Y-1466214D02*
X535357Y-1570976D01*
X893452Y-1361452D02*
X722024Y-1618595D01*
X1118214Y-1370976D02*
X1137262Y-1370976D01*
X1137262Y-1370976D02*
X1156310Y-1380500D01*
X1156310Y-1380500D02*
X1165833Y-1390024D01*
X1165833Y-1390024D02*
X1175357Y-1409071D01*
X1175357Y-1409071D02*
X1184881Y-1447167D01*
X1184881Y-1447167D02*
X1184881Y-1494786D01*
X1184881Y-1494786D02*
X1175357Y-1532881D01*
X1175357Y-1532881D02*
X1165833Y-1551928D01*
X1165833Y-1551928D02*
X1156310Y-1561452D01*
X1156310Y-1561452D02*
X1137262Y-1570976D01*
X1137262Y-1570976D02*
X1118214Y-1570976D01*
X1118214Y-1570976D02*
X1099167Y-1561452D01*
X1099167Y-1561452D02*
X1089643Y-1551928D01*
X1089643Y-1551928D02*
X1080119Y-1532881D01*
X1080119Y-1532881D02*
X1070595Y-1494786D01*
X1070595Y-1494786D02*
X1070595Y-1447167D01*
X1070595Y-1447167D02*
X1080119Y-1409071D01*
X1080119Y-1409071D02*
X1089643Y-1390024D01*
X1089643Y-1390024D02*
X1099167Y-1380500D01*
X1099167Y-1380500D02*
X1118214Y-1370976D01*
X1270595Y-1551928D02*
X1280119Y-1561452D01*
X1280119Y-1561452D02*
X1270595Y-1570976D01*
X1270595Y-1570976D02*
X1261072Y-1561452D01*
X1261072Y-1561452D02*
X1270595Y-1551928D01*
X1270595Y-1551928D02*
X1270595Y-1570976D01*
X1403929Y-1370976D02*
X1422976Y-1370976D01*
X1422976Y-1370976D02*
X1442024Y-1380500D01*
X1442024Y-1380500D02*
X1451548Y-1390024D01*
X1451548Y-1390024D02*
X1461071Y-1409071D01*
X1461071Y-1409071D02*
X1470595Y-1447167D01*
X1470595Y-1447167D02*
X1470595Y-1494786D01*
X1470595Y-1494786D02*
X1461071Y-1532881D01*
X1461071Y-1532881D02*
X1451548Y-1551928D01*
X1451548Y-1551928D02*
X1442024Y-1561452D01*
X1442024Y-1561452D02*
X1422976Y-1570976D01*
X1422976Y-1570976D02*
X1403929Y-1570976D01*
X1403929Y-1570976D02*
X1384881Y-1561452D01*
X1384881Y-1561452D02*
X1375357Y-1551928D01*
X1375357Y-1551928D02*
X1365833Y-1532881D01*
X1365833Y-1532881D02*
X1356310Y-1494786D01*
X1356310Y-1494786D02*
X1356310Y-1447167D01*
X1356310Y-1447167D02*
X1365833Y-1409071D01*
X1365833Y-1409071D02*
X1375357Y-1390024D01*
X1375357Y-1390024D02*
X1384881Y-1380500D01*
X1384881Y-1380500D02*
X1403929Y-1370976D01*
X1661071Y-1570976D02*
X1546786Y-1570976D01*
X1603929Y-1570976D02*
X1603929Y-1370976D01*
X1603929Y-1370976D02*
X1584881Y-1399548D01*
X1584881Y-1399548D02*
X1565833Y-1418595D01*
X1565833Y-1418595D02*
X1546786Y-1428119D01*
X1851548Y-1570976D02*
X1737262Y-1570976D01*
X1794405Y-1570976D02*
X1794405Y-1370976D01*
X1794405Y-1370976D02*
X1775357Y-1399548D01*
X1775357Y-1399548D02*
X1756310Y-1418595D01*
X1756310Y-1418595D02*
X1737262Y-1428119D01*
X1965833Y-1456690D02*
X1946786Y-1447167D01*
X1946786Y-1447167D02*
X1937262Y-1437643D01*
X1937262Y-1437643D02*
X1927738Y-1418595D01*
X1927738Y-1418595D02*
X1927738Y-1409071D01*
X1927738Y-1409071D02*
X1937262Y-1390024D01*
X1937262Y-1390024D02*
X1946786Y-1380500D01*
X1946786Y-1380500D02*
X1965833Y-1370976D01*
X1965833Y-1370976D02*
X2003929Y-1370976D01*
X2003929Y-1370976D02*
X2022976Y-1380500D01*
X2022976Y-1380500D02*
X2032500Y-1390024D01*
X2032500Y-1390024D02*
X2042024Y-1409071D01*
X2042024Y-1409071D02*
X2042024Y-1418595D01*
X2042024Y-1418595D02*
X2032500Y-1437643D01*
X2032500Y-1437643D02*
X2022976Y-1447167D01*
X2022976Y-1447167D02*
X2003929Y-1456690D01*
X2003929Y-1456690D02*
X1965833Y-1456690D01*
X1965833Y-1456690D02*
X1946786Y-1466214D01*
X1946786Y-1466214D02*
X1937262Y-1475738D01*
X1937262Y-1475738D02*
X1927738Y-1494786D01*
X1927738Y-1494786D02*
X1927738Y-1532881D01*
X1927738Y-1532881D02*
X1937262Y-1551928D01*
X1937262Y-1551928D02*
X1946786Y-1561452D01*
X1946786Y-1561452D02*
X1965833Y-1570976D01*
X1965833Y-1570976D02*
X2003929Y-1570976D01*
X2003929Y-1570976D02*
X2022976Y-1561452D01*
X2022976Y-1561452D02*
X2032500Y-1551928D01*
X2032500Y-1551928D02*
X2042024Y-1532881D01*
X2042024Y-1532881D02*
X2042024Y-1494786D01*
X2042024Y-1494786D02*
X2032500Y-1475738D01*
X2032500Y-1475738D02*
X2022976Y-1466214D01*
X2022976Y-1466214D02*
X2003929Y-1456690D01*
X2118214Y-1370976D02*
X2118214Y-1409071D01*
X2194405Y-1370976D02*
X2194405Y-1409071D01*
X2457262Y-1647167D02*
X2447738Y-1637643D01*
X2447738Y-1637643D02*
X2428691Y-1609071D01*
X2428691Y-1609071D02*
X2419167Y-1590024D01*
X2419167Y-1590024D02*
X2409643Y-1561452D01*
X2409643Y-1561452D02*
X2400119Y-1513833D01*
X2400119Y-1513833D02*
X2400119Y-1475738D01*
X2400119Y-1475738D02*
X2409643Y-1428119D01*
X2409643Y-1428119D02*
X2419167Y-1399548D01*
X2419167Y-1399548D02*
X2428691Y-1380500D01*
X2428691Y-1380500D02*
X2447738Y-1351929D01*
X2447738Y-1351929D02*
X2457262Y-1342405D01*
X2619167Y-1370976D02*
X2581072Y-1370976D01*
X2581072Y-1370976D02*
X2562024Y-1380500D01*
X2562024Y-1380500D02*
X2552500Y-1390024D01*
X2552500Y-1390024D02*
X2533453Y-1418595D01*
X2533453Y-1418595D02*
X2523929Y-1456690D01*
X2523929Y-1456690D02*
X2523929Y-1532881D01*
X2523929Y-1532881D02*
X2533453Y-1551928D01*
X2533453Y-1551928D02*
X2542976Y-1561452D01*
X2542976Y-1561452D02*
X2562024Y-1570976D01*
X2562024Y-1570976D02*
X2600119Y-1570976D01*
X2600119Y-1570976D02*
X2619167Y-1561452D01*
X2619167Y-1561452D02*
X2628691Y-1551928D01*
X2628691Y-1551928D02*
X2638214Y-1532881D01*
X2638214Y-1532881D02*
X2638214Y-1485262D01*
X2638214Y-1485262D02*
X2628691Y-1466214D01*
X2628691Y-1466214D02*
X2619167Y-1456690D01*
X2619167Y-1456690D02*
X2600119Y-1447167D01*
X2600119Y-1447167D02*
X2562024Y-1447167D01*
X2562024Y-1447167D02*
X2542976Y-1456690D01*
X2542976Y-1456690D02*
X2533453Y-1466214D01*
X2533453Y-1466214D02*
X2523929Y-1485262D01*
X2843929Y-1570976D02*
X2843929Y-1370976D01*
X2929643Y-1570976D02*
X2929643Y-1466214D01*
X2929643Y-1466214D02*
X2920119Y-1447167D01*
X2920119Y-1447167D02*
X2901072Y-1437643D01*
X2901072Y-1437643D02*
X2872500Y-1437643D01*
X2872500Y-1437643D02*
X2853452Y-1447167D01*
X2853452Y-1447167D02*
X2843929Y-1456690D01*
X3053452Y-1570976D02*
X3034405Y-1561452D01*
X3034405Y-1561452D02*
X3024881Y-1551928D01*
X3024881Y-1551928D02*
X3015357Y-1532881D01*
X3015357Y-1532881D02*
X3015357Y-1475738D01*
X3015357Y-1475738D02*
X3024881Y-1456690D01*
X3024881Y-1456690D02*
X3034405Y-1447167D01*
X3034405Y-1447167D02*
X3053452Y-1437643D01*
X3053452Y-1437643D02*
X3082024Y-1437643D01*
X3082024Y-1437643D02*
X3101072Y-1447167D01*
X3101072Y-1447167D02*
X3110595Y-1456690D01*
X3110595Y-1456690D02*
X3120119Y-1475738D01*
X3120119Y-1475738D02*
X3120119Y-1532881D01*
X3120119Y-1532881D02*
X3110595Y-1551928D01*
X3110595Y-1551928D02*
X3101072Y-1561452D01*
X3101072Y-1561452D02*
X3082024Y-1570976D01*
X3082024Y-1570976D02*
X3053452Y-1570976D01*
X3234405Y-1570976D02*
X3215357Y-1561452D01*
X3215357Y-1561452D02*
X3205833Y-1542405D01*
X3205833Y-1542405D02*
X3205833Y-1370976D01*
X3386786Y-1561452D02*
X3367738Y-1570976D01*
X3367738Y-1570976D02*
X3329643Y-1570976D01*
X3329643Y-1570976D02*
X3310595Y-1561452D01*
X3310595Y-1561452D02*
X3301072Y-1542405D01*
X3301072Y-1542405D02*
X3301072Y-1466214D01*
X3301072Y-1466214D02*
X3310595Y-1447167D01*
X3310595Y-1447167D02*
X3329643Y-1437643D01*
X3329643Y-1437643D02*
X3367738Y-1437643D01*
X3367738Y-1437643D02*
X3386786Y-1447167D01*
X3386786Y-1447167D02*
X3396310Y-1466214D01*
X3396310Y-1466214D02*
X3396310Y-1485262D01*
X3396310Y-1485262D02*
X3301072Y-1504309D01*
X3472500Y-1561452D02*
X3491548Y-1570976D01*
X3491548Y-1570976D02*
X3529643Y-1570976D01*
X3529643Y-1570976D02*
X3548691Y-1561452D01*
X3548691Y-1561452D02*
X3558214Y-1542405D01*
X3558214Y-1542405D02*
X3558214Y-1532881D01*
X3558214Y-1532881D02*
X3548691Y-1513833D01*
X3548691Y-1513833D02*
X3529643Y-1504309D01*
X3529643Y-1504309D02*
X3501072Y-1504309D01*
X3501072Y-1504309D02*
X3482024Y-1494786D01*
X3482024Y-1494786D02*
X3472500Y-1475738D01*
X3472500Y-1475738D02*
X3472500Y-1466214D01*
X3472500Y-1466214D02*
X3482024Y-1447167D01*
X3482024Y-1447167D02*
X3501072Y-1437643D01*
X3501072Y-1437643D02*
X3529643Y-1437643D01*
X3529643Y-1437643D02*
X3548691Y-1447167D01*
X3624881Y-1647167D02*
X3634405Y-1637643D01*
X3634405Y-1637643D02*
X3653453Y-1609071D01*
X3653453Y-1609071D02*
X3662976Y-1590024D01*
X3662976Y-1590024D02*
X3672500Y-1561452D01*
X3672500Y-1561452D02*
X3682024Y-1513833D01*
X3682024Y-1513833D02*
X3682024Y-1475738D01*
X3682024Y-1475738D02*
X3672500Y-1428119D01*
X3672500Y-1428119D02*
X3662976Y-1399548D01*
X3662976Y-1399548D02*
X3653453Y-1380500D01*
X3653453Y-1380500D02*
X3634405Y-1351929D01*
X3634405Y-1351929D02*
X3624881Y-1342405D01*
M02*
