%TF.GenerationSoftware,KiCad,Pcbnew,(7.0.0-0)*%
%TF.CreationDate,2023-06-29T16:50:24+08:00*%
%TF.ProjectId,thumb3,7468756d-6233-42e6-9b69-6361645f7063,v1.0.0*%
%TF.SameCoordinates,Original*%
%TF.FileFunction,Copper,L2,Bot*%
%TF.FilePolarity,Positive*%
%FSLAX46Y46*%
G04 Gerber Fmt 4.6, Leading zero omitted, Abs format (unit mm)*
G04 Created by KiCad (PCBNEW (7.0.0-0)) date 2023-06-29 16:50:24*
%MOMM*%
%LPD*%
G01*
G04 APERTURE LIST*
G04 Aperture macros list*
%AMRoundRect*
0 Rectangle with rounded corners*
0 $1 Rounding radius*
0 $2 $3 $4 $5 $6 $7 $8 $9 X,Y pos of 4 corners*
0 Add a 4 corners polygon primitive as box body*
4,1,4,$2,$3,$4,$5,$6,$7,$8,$9,$2,$3,0*
0 Add four circle primitives for the rounded corners*
1,1,$1+$1,$2,$3*
1,1,$1+$1,$4,$5*
1,1,$1+$1,$6,$7*
1,1,$1+$1,$8,$9*
0 Add four rect primitives between the rounded corners*
20,1,$1+$1,$2,$3,$4,$5,0*
20,1,$1+$1,$4,$5,$6,$7,0*
20,1,$1+$1,$6,$7,$8,$9,0*
20,1,$1+$1,$8,$9,$2,$3,0*%
G04 Aperture macros list end*
%TA.AperFunction,SMDPad,CuDef*%
%ADD10RoundRect,0.150000X-0.625000X0.150000X-0.625000X-0.150000X0.625000X-0.150000X0.625000X0.150000X0*%
%TD*%
%TA.AperFunction,SMDPad,CuDef*%
%ADD11RoundRect,0.250000X-0.650000X0.350000X-0.650000X-0.350000X0.650000X-0.350000X0.650000X0.350000X0*%
%TD*%
%TA.AperFunction,SMDPad,CuDef*%
%ADD12R,2.600000X2.600000*%
%TD*%
%TA.AperFunction,ComponentPad*%
%ADD13C,0.600000*%
%TD*%
%TA.AperFunction,SMDPad,CuDef*%
%ADD14R,0.600000X0.700000*%
%TD*%
%TA.AperFunction,Conductor*%
%ADD15C,0.250000*%
%TD*%
G04 APERTURE END LIST*
D10*
%TO.P,JC1,5*%
%TO.N,R2*%
X-7000000Y19500000D03*
%TO.P,JC1,4*%
%TO.N,R1*%
X-7000000Y20500000D03*
%TO.P,JC1,3*%
%TO.N,R0*%
X-7000000Y21500000D03*
%TO.P,JC1,2*%
%TO.N,C6*%
X-7000000Y22500000D03*
%TO.P,JC1,1*%
%TO.N,C5*%
X-7000000Y23500000D03*
D11*
%TO.P,JC1,MP*%
%TO.N,N/C*%
X-3125000Y24800000D03*
X-3125000Y18200000D03*
%TD*%
D12*
%TO.P,S1,1*%
%TO.N,C5_R0D*%
X-3274999Y39949999D03*
%TO.P,S1,2*%
%TO.N,C5*%
X8274999Y37749999D03*
D13*
%TO.P,S1,3*%
%TO.N,C5_R0D*%
X-3275000Y39950000D03*
%TO.P,S1,4*%
%TO.N,C5*%
X8275000Y37750000D03*
%TD*%
D14*
%TO.P,D1,1*%
%TO.N,R0*%
X-2899999Y36599999D03*
%TO.P,D1,2*%
%TO.N,C5_R0D*%
X-4299999Y36599999D03*
%TD*%
D12*
%TO.P,S2,1*%
%TO.N,C5_R1D*%
X3274999Y11049999D03*
%TO.P,S2,2*%
%TO.N,C5*%
X-8274999Y13249999D03*
D13*
%TO.P,S2,3*%
%TO.N,C5_R1D*%
X3275000Y11050000D03*
%TO.P,S2,4*%
%TO.N,C5*%
X-8275000Y13250000D03*
%TD*%
D14*
%TO.P,D2,1*%
%TO.N,R1*%
X2899999Y14399999D03*
%TO.P,D2,2*%
%TO.N,C5_R1D*%
X4299999Y14399999D03*
%TD*%
D12*
%TO.P,S3,1*%
%TO.N,C5_R2D*%
X3274999Y-5949999D03*
%TO.P,S3,2*%
%TO.N,C5*%
X-8274999Y-3749999D03*
D13*
%TO.P,S3,3*%
%TO.N,C5_R2D*%
X3275000Y-5950000D03*
%TO.P,S3,4*%
%TO.N,C5*%
X-8275000Y-3750000D03*
%TD*%
D14*
%TO.P,D3,1*%
%TO.N,R2*%
X2899999Y-2599999D03*
%TO.P,D3,2*%
%TO.N,C5_R2D*%
X4299999Y-2599999D03*
%TD*%
D15*
%TO.N,C5*%
X-7446751Y23500000D02*
X-7000000Y23500000D01*
X-8275000Y22671751D02*
X-7446751Y23500000D01*
X-8275000Y-3750000D02*
X-8275000Y13250000D01*
X4200000Y41825000D02*
X-4650000Y41825000D01*
X8275000Y37750000D02*
X4200000Y41825000D01*
X-7000000Y39475000D02*
X-7000000Y23500000D01*
X-8275000Y13250000D02*
X-8275000Y22671751D01*
X-4650000Y41825000D02*
X-7000000Y39475000D01*
%TO.N,R0*%
X-6300000Y21500000D02*
X-7000000Y21500000D01*
X-5900000Y21900000D02*
X-6300000Y21500000D01*
X-2900000Y26838173D02*
X-5900000Y23838173D01*
X-2900000Y36600000D02*
X-2900000Y26838173D01*
X-5900000Y23838173D02*
X-5900000Y21900000D01*
%TO.N,R1*%
X-6200000Y20500000D02*
X-7000000Y20500000D01*
X-1138173Y14400000D02*
X-5900000Y19161827D01*
X-5900000Y19161827D02*
X-5900000Y20200000D01*
X2900000Y14400000D02*
X-1138173Y14400000D01*
X-5900000Y20200000D02*
X-6200000Y20500000D01*
%TO.N,R2*%
X-4125000Y15125000D02*
X-1875000Y12875000D01*
X-1875000Y12875000D02*
X-1875000Y4875000D01*
X2900000Y100000D02*
X2900000Y-2600000D01*
X-7000000Y16400000D02*
X-5725000Y15125000D01*
X-1875000Y4875000D02*
X2900000Y100000D01*
X-7000000Y19500000D02*
X-7000000Y16400000D01*
X-5725000Y15125000D02*
X-4125000Y15125000D01*
%TO.N,C5_R0D*%
X-4300000Y38925000D02*
X-3275000Y39950000D01*
X-4300000Y36600000D02*
X-4300000Y38925000D01*
%TO.N,C5_R1D*%
X4300000Y14400000D02*
X4300000Y12075000D01*
X4300000Y12075000D02*
X3275000Y11050000D01*
%TO.N,C5_R2D*%
X4300000Y-4925000D02*
X3275000Y-5950000D01*
X4300000Y-2600000D02*
X4300000Y-4925000D01*
%TD*%
%TA.AperFunction,NonConductor*%
G36*
X8504854Y42424118D02*
G01*
X8713113Y42407727D01*
X8732331Y42404683D01*
X8930705Y42357058D01*
X8949211Y42351045D01*
X9137694Y42272972D01*
X9155031Y42264139D01*
X9328981Y42157543D01*
X9344722Y42146106D01*
X9499859Y42013606D01*
X9513606Y41999859D01*
X9641029Y41850665D01*
X9646106Y41844722D01*
X9657543Y41828981D01*
X9764139Y41655031D01*
X9772972Y41637694D01*
X9851045Y41449211D01*
X9857058Y41430705D01*
X9904683Y41232331D01*
X9907727Y41213113D01*
X9924118Y41004854D01*
X9924500Y40995125D01*
X9924500Y39640956D01*
X9910375Y39583481D01*
X9871220Y39539100D01*
X9815953Y39517923D01*
X9757166Y39524774D01*
X9756941Y39524858D01*
X9684201Y39551989D01*
X9623638Y39558500D01*
X9620328Y39558500D01*
X7413767Y39558500D01*
X7366314Y39567939D01*
X7326086Y39594819D01*
X4708085Y42212819D01*
X4677835Y42262182D01*
X4673293Y42319898D01*
X4695448Y42373385D01*
X4739471Y42410985D01*
X4795766Y42424500D01*
X8475469Y42424500D01*
X8495125Y42424500D01*
X8504854Y42424118D01*
G37*
%TD.AperFunction*%
%TA.AperFunction,NonConductor*%
G36*
X-5134615Y40296551D02*
G01*
X-5097015Y40252528D01*
X-5083500Y40196233D01*
X-5083500Y38601362D01*
X-5076989Y38540799D01*
X-5025889Y38403796D01*
X-5020573Y38396695D01*
X-5020571Y38396691D01*
X-4958233Y38313417D01*
X-4939846Y38278266D01*
X-4933500Y38239107D01*
X-4933500Y37392600D01*
X-4942939Y37345147D01*
X-4963916Y37313751D01*
X-4963260Y37313261D01*
X-4963261Y37313261D01*
X-5050889Y37196204D01*
X-5101989Y37059201D01*
X-5108500Y36998638D01*
X-5108500Y36201362D01*
X-5101989Y36140799D01*
X-5050889Y36003796D01*
X-4963261Y35886739D01*
X-4956164Y35881426D01*
X-4900569Y35839808D01*
X-4846204Y35799111D01*
X-4837896Y35796012D01*
X-4837894Y35796011D01*
X-4716463Y35750719D01*
X-4716458Y35750717D01*
X-4709201Y35748011D01*
X-4701497Y35747182D01*
X-4701494Y35747182D01*
X-4651924Y35741853D01*
X-4651918Y35741852D01*
X-4648638Y35741500D01*
X-3954672Y35741500D01*
X-3951362Y35741500D01*
X-3948082Y35741852D01*
X-3948075Y35741853D01*
X-3898505Y35747182D01*
X-3898500Y35747182D01*
X-3890799Y35748011D01*
X-3883543Y35750717D01*
X-3883536Y35750719D01*
X-3762105Y35796011D01*
X-3762099Y35796013D01*
X-3753796Y35799111D01*
X-3746698Y35804423D01*
X-3746695Y35804426D01*
X-3731811Y35815569D01*
X-3668553Y35839808D01*
X-3601996Y35827186D01*
X-3552005Y35781469D01*
X-3533500Y35716302D01*
X-3533500Y27151939D01*
X-3542939Y27104486D01*
X-3569819Y27064258D01*
X-6154819Y24479258D01*
X-6204182Y24449008D01*
X-6261898Y24444466D01*
X-6315385Y24466621D01*
X-6352985Y24510644D01*
X-6366500Y24566939D01*
X-6366500Y33020540D01*
X-6349142Y33083813D01*
X-6301927Y33129372D01*
X-6238074Y33144461D01*
X-6175461Y33124856D01*
X-6006986Y33016584D01*
X-5811712Y32938407D01*
X-5805908Y32937288D01*
X-5805907Y32937288D01*
X-5610968Y32899717D01*
X-5610965Y32899716D01*
X-5605171Y32898600D01*
X-5450486Y32898600D01*
X-5447532Y32898600D01*
X-5444603Y32898879D01*
X-5444596Y32898880D01*
X-5296491Y32913022D01*
X-5296485Y32913023D01*
X-5290611Y32913584D01*
X-5284943Y32915248D01*
X-5284939Y32915249D01*
X-5094454Y32971180D01*
X-5094448Y32971182D01*
X-5088789Y32972844D01*
X-5083544Y32975547D01*
X-5083539Y32975550D01*
X-4907079Y33066522D01*
X-4907071Y33066526D01*
X-4901830Y33069229D01*
X-4897187Y33072880D01*
X-4741135Y33195599D01*
X-4741128Y33195605D01*
X-4736490Y33199253D01*
X-4732626Y33203711D01*
X-4732621Y33203717D01*
X-4602611Y33353756D01*
X-4602605Y33353763D01*
X-4598745Y33358219D01*
X-4548652Y33444982D01*
X-4496530Y33535260D01*
X-4496527Y33535264D01*
X-4493574Y33540381D01*
X-4491643Y33545960D01*
X-4491639Y33545969D01*
X-4426709Y33733572D01*
X-4426706Y33733581D01*
X-4424778Y33739154D01*
X-4423938Y33744990D01*
X-4423937Y33744998D01*
X-4395682Y33941515D01*
X-4395681Y33941521D01*
X-4394843Y33947355D01*
X-4395123Y33953239D01*
X-4395123Y33953246D01*
X-4404571Y34151561D01*
X-4404852Y34157459D01*
X-4428516Y34255001D01*
X-4453049Y34356130D01*
X-4453049Y34356132D01*
X-4454442Y34361871D01*
X-4456895Y34367242D01*
X-4456897Y34367248D01*
X-4539363Y34547824D01*
X-4539365Y34547828D01*
X-4541821Y34553205D01*
X-4663831Y34724544D01*
X-4816063Y34869697D01*
X-4993014Y34983416D01*
X-5188288Y35061593D01*
X-5394829Y35101400D01*
X-5552468Y35101400D01*
X-5709389Y35086416D01*
X-5911211Y35027156D01*
X-6098170Y34930771D01*
X-6164985Y34878227D01*
X-6165849Y34877548D01*
X-6229245Y34851729D01*
X-6296681Y34863483D01*
X-6347606Y34909226D01*
X-6366500Y34975019D01*
X-6366500Y39161234D01*
X-6357061Y39208687D01*
X-6330181Y39248915D01*
X-5295181Y40283914D01*
X-5245818Y40314164D01*
X-5188102Y40318706D01*
X-5134615Y40296551D01*
G37*
%TD.AperFunction*%
%TA.AperFunction,NonConductor*%
G36*
X-6204182Y18550992D02*
G01*
X-6154819Y18520742D01*
X-5865195Y18231118D01*
X-5834108Y18179077D01*
X-5831406Y18118517D01*
X-5857734Y18063914D01*
X-5906484Y18028543D01*
X-5911211Y18027156D01*
X-6098170Y17930771D01*
X-6164985Y17878227D01*
X-6165849Y17877548D01*
X-6229245Y17851729D01*
X-6296681Y17863483D01*
X-6347606Y17909226D01*
X-6366500Y17975019D01*
X-6366500Y18433061D01*
X-6352985Y18489356D01*
X-6315385Y18533379D01*
X-6261898Y18555534D01*
X-6204182Y18550992D01*
G37*
%TD.AperFunction*%
%TA.AperFunction,NonConductor*%
G36*
X-2020393Y17152828D02*
G01*
X-1978959Y17104430D01*
X-1967026Y17041847D01*
X-1970019Y17000000D01*
X-1949967Y16719637D01*
X-1890219Y16444982D01*
X-1858576Y16360144D01*
X-1853247Y16345857D01*
X-1847559Y16279636D01*
X-1876885Y16219991D01*
X-1932799Y16184057D01*
X-1999236Y16182159D01*
X-2057110Y16214842D01*
X-2722087Y16879819D01*
X-2752337Y16929182D01*
X-2756879Y16986898D01*
X-2734724Y17040385D01*
X-2690701Y17077985D01*
X-2634407Y17091500D01*
X-2427604Y17091500D01*
X-2427584Y17091500D01*
X-2424456Y17091501D01*
X-2421343Y17091818D01*
X-2421323Y17091820D01*
X-2327313Y17101424D01*
X-2327307Y17101425D01*
X-2320574Y17102113D01*
X-2314144Y17104243D01*
X-2314142Y17104244D01*
X-2159122Y17155611D01*
X-2159115Y17155613D01*
X-2152262Y17157885D01*
X-2146114Y17161676D01*
X-2143112Y17163077D01*
X-2080390Y17174263D01*
X-2020393Y17152828D01*
G37*
%TD.AperFunction*%
%TA.AperFunction,NonConductor*%
G36*
X-7438458Y15940544D02*
G01*
X-7431324Y15934642D01*
X-7422685Y15926781D01*
X-6757007Y15261103D01*
X-6725106Y15206226D01*
X-6724541Y15142753D01*
X-6755459Y15087316D01*
X-6809760Y15054443D01*
X-6865695Y15052948D01*
X-6865799Y15051989D01*
X-6926362Y15058500D01*
X-6929672Y15058500D01*
X-7517500Y15058500D01*
X-7579500Y15075113D01*
X-7624887Y15120500D01*
X-7641500Y15182500D01*
X-7641500Y15845002D01*
X-7622196Y15911445D01*
X-7570296Y15957201D01*
X-7501957Y15968024D01*
X-7438458Y15940544D01*
G37*
%TD.AperFunction*%
%TA.AperFunction,NonConductor*%
G36*
X-5189470Y42410985D02*
G01*
X-5145447Y42373385D01*
X-5123292Y42319898D01*
X-5127834Y42262182D01*
X-5158083Y42212819D01*
X-7392217Y39978686D01*
X-7400552Y39971102D01*
X-7407018Y39967000D01*
X-7453691Y39917296D01*
X-7456308Y39914595D01*
X-7476135Y39894770D01*
X-7478658Y39891517D01*
X-7486251Y39882624D01*
X-7516586Y39850321D01*
X-7526423Y39832425D01*
X-7537096Y39816177D01*
X-7549614Y39800041D01*
X-7567215Y39759364D01*
X-7572348Y39748887D01*
X-7593695Y39710060D01*
X-7598774Y39690273D01*
X-7605070Y39671885D01*
X-7613181Y39653145D01*
X-7620111Y39609385D01*
X-7622481Y39597942D01*
X-7633500Y39555030D01*
X-7633500Y39547229D01*
X-7633500Y39534615D01*
X-7635027Y39515217D01*
X-7638220Y39495057D01*
X-7634645Y39457240D01*
X-7634050Y39450942D01*
X-7633500Y39439273D01*
X-7633500Y24425721D01*
X-7646577Y24370294D01*
X-7683051Y24326558D01*
X-7729082Y24306425D01*
X-7728831Y24305562D01*
X-7888601Y24259145D01*
X-8031807Y24174453D01*
X-8149453Y24056807D01*
X-8234145Y23913601D01*
X-8280562Y23753831D01*
X-8283500Y23716502D01*
X-8283500Y23714057D01*
X-8283500Y23610517D01*
X-8292939Y23563064D01*
X-8319819Y23522836D01*
X-8667212Y23175441D01*
X-8675552Y23167853D01*
X-8682018Y23163751D01*
X-8728691Y23114046D01*
X-8731309Y23111345D01*
X-8751135Y23091521D01*
X-8753658Y23088268D01*
X-8761251Y23079375D01*
X-8791586Y23047072D01*
X-8801423Y23029176D01*
X-8812096Y23012928D01*
X-8824614Y22996792D01*
X-8842215Y22956115D01*
X-8847348Y22945638D01*
X-8868695Y22906811D01*
X-8873774Y22887024D01*
X-8880070Y22868636D01*
X-8888181Y22849896D01*
X-8895111Y22806136D01*
X-8897481Y22794693D01*
X-8908500Y22751781D01*
X-8908500Y22743980D01*
X-8908500Y22731366D01*
X-8910027Y22711968D01*
X-8913220Y22691808D01*
X-8909645Y22653991D01*
X-8909050Y22647693D01*
X-8908500Y22636024D01*
X-8908500Y15182500D01*
X-8925113Y15120500D01*
X-8970500Y15075113D01*
X-9032500Y15058500D01*
X-9623638Y15058500D01*
X-9684201Y15051989D01*
X-9733771Y15033500D01*
X-9757166Y15024774D01*
X-9815953Y15017923D01*
X-9871220Y15039100D01*
X-9910375Y15083481D01*
X-9924500Y15140956D01*
X-9924500Y40995125D01*
X-9924118Y41004854D01*
X-9907727Y41213113D01*
X-9904683Y41232331D01*
X-9857058Y41430705D01*
X-9851045Y41449211D01*
X-9772972Y41637694D01*
X-9764138Y41655031D01*
X-9657543Y41828977D01*
X-9646106Y41844719D01*
X-9513610Y41999852D01*
X-9499852Y42013610D01*
X-9344719Y42146106D01*
X-9328977Y42157543D01*
X-9155031Y42264138D01*
X-9137694Y42272972D01*
X-8949211Y42351045D01*
X-8930705Y42357058D01*
X-8732331Y42404683D01*
X-8713113Y42407727D01*
X-8504854Y42424118D01*
X-8495125Y42424500D01*
X-8475469Y42424500D01*
X-5245765Y42424500D01*
X-5189470Y42410985D01*
G37*
%TD.AperFunction*%
%TA.AperFunction,NonConductor*%
G36*
X-4324906Y16668877D02*
G01*
X-4271452Y16637375D01*
X-1641878Y14007801D01*
X-1634274Y13999445D01*
X-1630173Y13992982D01*
X-1624486Y13987642D01*
X-1580488Y13946325D01*
X-1577691Y13943614D01*
X-1557943Y13923866D01*
X-1554867Y13921480D01*
X-1554865Y13921478D01*
X-1554678Y13921333D01*
X-1545799Y13913749D01*
X-1513494Y13883414D01*
X-1495602Y13873578D01*
X-1479343Y13862897D01*
X-1469378Y13855167D01*
X-1469370Y13855162D01*
X-1463214Y13850387D01*
X-1456057Y13847290D01*
X-1422555Y13832792D01*
X-1412065Y13827653D01*
X-1380072Y13810064D01*
X-1380066Y13810062D01*
X-1373233Y13806305D01*
X-1365681Y13804365D01*
X-1365669Y13804361D01*
X-1353454Y13801225D01*
X-1335051Y13794925D01*
X-1316318Y13786819D01*
X-1308616Y13785599D01*
X-1272554Y13779887D01*
X-1261128Y13777521D01*
X-1218203Y13766500D01*
X-1197788Y13766500D01*
X-1178390Y13764973D01*
X-1158230Y13761780D01*
X-1150464Y13762514D01*
X-1150461Y13762514D01*
X-1114115Y13765950D01*
X-1102446Y13766500D01*
X2114961Y13766500D01*
X2170465Y13753384D01*
X2214226Y13716812D01*
X2236739Y13686739D01*
X2243835Y13681426D01*
X2243836Y13681426D01*
X2346695Y13604426D01*
X2346698Y13604423D01*
X2353796Y13599111D01*
X2362099Y13596013D01*
X2362105Y13596011D01*
X2483536Y13550719D01*
X2483543Y13550717D01*
X2490799Y13548011D01*
X2498500Y13547182D01*
X2498505Y13547182D01*
X2548075Y13541853D01*
X2548082Y13541852D01*
X2551362Y13541500D01*
X3245328Y13541500D01*
X3248638Y13541500D01*
X3251918Y13541852D01*
X3251924Y13541853D01*
X3301494Y13547182D01*
X3301497Y13547182D01*
X3309201Y13548011D01*
X3316458Y13550717D01*
X3316463Y13550719D01*
X3437894Y13596011D01*
X3437896Y13596012D01*
X3446204Y13599111D01*
X3468189Y13615569D01*
X3531447Y13639808D01*
X3598004Y13627186D01*
X3647995Y13581469D01*
X3666500Y13516302D01*
X3666500Y12982500D01*
X3649887Y12920500D01*
X3604500Y12875113D01*
X3542500Y12858500D01*
X1926362Y12858500D01*
X1865799Y12851989D01*
X1728796Y12800889D01*
X1611739Y12713261D01*
X1524111Y12596204D01*
X1521012Y12587896D01*
X1521011Y12587894D01*
X1475719Y12466463D01*
X1475717Y12466458D01*
X1473011Y12459201D01*
X1472182Y12451497D01*
X1472182Y12451494D01*
X1470213Y12433179D01*
X1466500Y12398638D01*
X1466500Y12395328D01*
X1466500Y12359046D01*
X1452561Y12301926D01*
X1413876Y12257649D01*
X1359145Y12236168D01*
X1300671Y12242314D01*
X1251601Y12274705D01*
X1193981Y12336805D01*
X988857Y12500386D01*
X761643Y12631568D01*
X517416Y12727420D01*
X261630Y12785802D01*
X65494Y12800500D01*
X-65494Y12800500D01*
X-261630Y12785802D01*
X-517416Y12727420D01*
X-761643Y12631568D01*
X-988857Y12500386D01*
X-1001345Y12490427D01*
X-1040188Y12459452D01*
X-1103617Y12433179D01*
X-1171302Y12444679D01*
X-1222494Y12490427D01*
X-1241500Y12556399D01*
X-1241500Y12796152D01*
X-1240968Y12807436D01*
X-1239298Y12814908D01*
X-1240557Y12854951D01*
X-1241439Y12883030D01*
X-1241500Y12886925D01*
X-1241500Y12910960D01*
X-1241500Y12914856D01*
X-1242018Y12918960D01*
X-1242933Y12930586D01*
X-1244080Y12967094D01*
X-1244081Y12967101D01*
X-1244326Y12974889D01*
X-1250022Y12994498D01*
X-1253965Y13013539D01*
X-1255546Y13026053D01*
X-1255548Y13026064D01*
X-1256526Y13033797D01*
X-1259394Y13041042D01*
X-1259397Y13041052D01*
X-1272832Y13074985D01*
X-1276615Y13086032D01*
X-1286805Y13121103D01*
X-1288981Y13128593D01*
X-1299375Y13146169D01*
X-1307933Y13163638D01*
X-1312576Y13175365D01*
X-1312578Y13175369D01*
X-1315448Y13182617D01*
X-1341489Y13218460D01*
X-1347901Y13228221D01*
X-1366486Y13259646D01*
X-1370458Y13266362D01*
X-1384889Y13280793D01*
X-1397525Y13295588D01*
X-1404938Y13305791D01*
X-1404943Y13305796D01*
X-1409528Y13312107D01*
X-1443668Y13340350D01*
X-1452308Y13348212D01*
X-3621301Y15517206D01*
X-3628898Y15525555D01*
X-3633000Y15532018D01*
X-3638682Y15537353D01*
X-3638689Y15537362D01*
X-3682666Y15578657D01*
X-3685467Y15581371D01*
X-3702474Y15598379D01*
X-3702475Y15598379D01*
X-3705230Y15601135D01*
X-3708503Y15603674D01*
X-3717383Y15611259D01*
X-3743992Y15636246D01*
X-3743993Y15636246D01*
X-3749679Y15641586D01*
X-3767565Y15651418D01*
X-3783829Y15662102D01*
X-3793792Y15669831D01*
X-3793795Y15669833D01*
X-3799959Y15674614D01*
X-3840616Y15692207D01*
X-3851111Y15697348D01*
X-3854211Y15699052D01*
X-3889940Y15718695D01*
X-3909716Y15723772D01*
X-3928123Y15730075D01*
X-3939691Y15735081D01*
X-3939692Y15735081D01*
X-3946855Y15738181D01*
X-3990621Y15745112D01*
X-4002041Y15747477D01*
X-4044970Y15758500D01*
X-4052771Y15758500D01*
X-4065385Y15758500D01*
X-4084783Y15760027D01*
X-4085071Y15760072D01*
X-4104943Y15763220D01*
X-4143476Y15759577D01*
X-4149058Y15759050D01*
X-4160727Y15758500D01*
X-4993424Y15758500D01*
X-5056443Y15775708D01*
X-5101972Y15822556D01*
X-5117373Y15886041D01*
X-5098373Y15948543D01*
X-5050245Y15992715D01*
X-4907079Y16066522D01*
X-4907071Y16066526D01*
X-4901830Y16069229D01*
X-4872387Y16092383D01*
X-4741135Y16195599D01*
X-4741128Y16195605D01*
X-4736490Y16199253D01*
X-4732626Y16203711D01*
X-4732621Y16203717D01*
X-4602611Y16353756D01*
X-4602605Y16353763D01*
X-4598745Y16358219D01*
X-4548652Y16444982D01*
X-4496530Y16535260D01*
X-4496527Y16535264D01*
X-4493574Y16540381D01*
X-4491643Y16545960D01*
X-4491639Y16545969D01*
X-4476312Y16590253D01*
X-4441994Y16641944D01*
X-4386930Y16670538D01*
X-4324906Y16668877D01*
G37*
%TD.AperFunction*%
%TA.AperFunction,NonConductor*%
G36*
X-9757166Y11475226D02*
G01*
X-9691463Y11450719D01*
X-9691458Y11450717D01*
X-9684201Y11448011D01*
X-9676497Y11447182D01*
X-9676494Y11447182D01*
X-9626924Y11441853D01*
X-9626918Y11441852D01*
X-9623638Y11441500D01*
X-9032500Y11441500D01*
X-8970500Y11424887D01*
X-8925113Y11379500D01*
X-8908500Y11317500D01*
X-8908500Y-1817500D01*
X-8925113Y-1879500D01*
X-8970500Y-1924887D01*
X-9032500Y-1941500D01*
X-9623638Y-1941500D01*
X-9626918Y-1941852D01*
X-9626924Y-1941853D01*
X-9676494Y-1947182D01*
X-9676497Y-1947182D01*
X-9684201Y-1948011D01*
X-9691458Y-1950717D01*
X-9691463Y-1950719D01*
X-9757166Y-1975226D01*
X-9815953Y-1982077D01*
X-9871220Y-1960900D01*
X-9910375Y-1916519D01*
X-9924500Y-1859044D01*
X-9924500Y11359044D01*
X-9910375Y11416519D01*
X-9871220Y11460900D01*
X-9815953Y11482077D01*
X-9757166Y11475226D01*
G37*
%TD.AperFunction*%
%TA.AperFunction,NonConductor*%
G36*
X3933687Y41182061D02*
G01*
X3973915Y41155181D01*
X5451820Y39677274D01*
X5483670Y39622581D01*
X5484380Y39559294D01*
X5453765Y39503901D01*
X5399800Y39470832D01*
X5336548Y39468702D01*
X5261630Y39485802D01*
X5065494Y39500500D01*
X4934506Y39500500D01*
X4738370Y39485802D01*
X4482584Y39427420D01*
X4238357Y39331568D01*
X4011143Y39200386D01*
X3806019Y39036805D01*
X3627567Y38844479D01*
X3479772Y38627704D01*
X3477756Y38623519D01*
X3477756Y38623518D01*
X3371944Y38403796D01*
X3365937Y38391323D01*
X3364573Y38386901D01*
X3364569Y38386891D01*
X3289971Y38145048D01*
X3288604Y38140615D01*
X3287913Y38136035D01*
X3287912Y38136028D01*
X3250190Y37885765D01*
X3250189Y37885754D01*
X3249500Y37881182D01*
X3249500Y37618818D01*
X3250189Y37614246D01*
X3250190Y37614234D01*
X3287912Y37363971D01*
X3287914Y37363961D01*
X3288604Y37359385D01*
X3289968Y37354959D01*
X3289971Y37354951D01*
X3364569Y37113108D01*
X3364574Y37113093D01*
X3365937Y37108677D01*
X3367944Y37104508D01*
X3367949Y37104497D01*
X3477756Y36876481D01*
X3477759Y36876474D01*
X3479772Y36872296D01*
X3627567Y36655521D01*
X3630713Y36652129D01*
X3630719Y36652123D01*
X3773656Y36498074D01*
X3806019Y36463195D01*
X3809641Y36460306D01*
X3809646Y36460302D01*
X4007516Y36302506D01*
X4007519Y36302503D01*
X4011143Y36299614D01*
X4015159Y36297295D01*
X4015161Y36297294D01*
X4234335Y36170753D01*
X4234346Y36170747D01*
X4238357Y36168432D01*
X4242670Y36166739D01*
X4242681Y36166734D01*
X4478261Y36074276D01*
X4478268Y36074273D01*
X4482584Y36072580D01*
X4487102Y36071548D01*
X4487108Y36071547D01*
X4733850Y36015229D01*
X4733858Y36015227D01*
X4738370Y36014198D01*
X4742989Y36013851D01*
X4742995Y36013851D01*
X4932191Y35999673D01*
X4932203Y35999672D01*
X4934506Y35999500D01*
X5063177Y35999500D01*
X5065494Y35999500D01*
X5067797Y35999672D01*
X5067808Y35999673D01*
X5257004Y36013851D01*
X5257008Y36013851D01*
X5261630Y36014198D01*
X5266143Y36015228D01*
X5266149Y36015229D01*
X5512891Y36071547D01*
X5512893Y36071547D01*
X5517416Y36072580D01*
X5521734Y36074275D01*
X5521738Y36074276D01*
X5757318Y36166734D01*
X5757324Y36166737D01*
X5761643Y36168432D01*
X5765658Y36170750D01*
X5765664Y36170753D01*
X5894216Y36244973D01*
X5988857Y36299614D01*
X6193981Y36463195D01*
X6251601Y36525295D01*
X6300671Y36557686D01*
X6359145Y36563832D01*
X6413876Y36542351D01*
X6452561Y36498074D01*
X6466500Y36440954D01*
X6466500Y36401362D01*
X6466852Y36398082D01*
X6466853Y36398075D01*
X6472182Y36348505D01*
X6472182Y36348500D01*
X6473011Y36340799D01*
X6475717Y36333543D01*
X6475719Y36333536D01*
X6521011Y36212105D01*
X6521013Y36212099D01*
X6524111Y36203796D01*
X6529423Y36196698D01*
X6529426Y36196695D01*
X6606426Y36093835D01*
X6606429Y36093831D01*
X6611739Y36086739D01*
X6618831Y36081429D01*
X6618835Y36081426D01*
X6721695Y36004426D01*
X6721698Y36004423D01*
X6728796Y35999111D01*
X6737099Y35996013D01*
X6737105Y35996011D01*
X6858536Y35950719D01*
X6858543Y35950717D01*
X6865799Y35948011D01*
X6873500Y35947182D01*
X6873505Y35947182D01*
X6923075Y35941853D01*
X6923082Y35941852D01*
X6926362Y35941500D01*
X9620328Y35941500D01*
X9623638Y35941500D01*
X9626918Y35941852D01*
X9626924Y35941853D01*
X9676494Y35947182D01*
X9676497Y35947182D01*
X9684201Y35948011D01*
X9691458Y35950717D01*
X9691463Y35950719D01*
X9757166Y35975226D01*
X9815953Y35982077D01*
X9871220Y35960900D01*
X9910375Y35916519D01*
X9924500Y35859044D01*
X9924500Y-6995125D01*
X9924118Y-7004854D01*
X9907727Y-7213113D01*
X9904683Y-7232331D01*
X9857058Y-7430705D01*
X9851045Y-7449211D01*
X9772972Y-7637694D01*
X9764139Y-7655031D01*
X9657543Y-7828981D01*
X9646105Y-7844722D01*
X9513606Y-7999859D01*
X9499859Y-8013606D01*
X9350665Y-8141029D01*
X9344722Y-8146106D01*
X9328981Y-8157543D01*
X9155031Y-8264139D01*
X9137694Y-8272972D01*
X8949211Y-8351045D01*
X8930705Y-8357058D01*
X8732331Y-8404683D01*
X8713113Y-8407727D01*
X8504854Y-8424118D01*
X8495125Y-8424500D01*
X-8495125Y-8424500D01*
X-8504854Y-8424118D01*
X-8713113Y-8407727D01*
X-8732331Y-8404683D01*
X-8930705Y-8357058D01*
X-8949211Y-8351045D01*
X-9137694Y-8272972D01*
X-9155031Y-8264138D01*
X-9328977Y-8157543D01*
X-9344719Y-8146106D01*
X-9499852Y-8013610D01*
X-9513610Y-7999852D01*
X-9646106Y-7844719D01*
X-9657543Y-7828977D01*
X-9764138Y-7655031D01*
X-9772972Y-7637694D01*
X-9851045Y-7449211D01*
X-9857058Y-7430705D01*
X-9904683Y-7232331D01*
X-9907727Y-7213113D01*
X-9924118Y-7004854D01*
X-9924500Y-6995125D01*
X-9924500Y-5640956D01*
X-9910375Y-5583481D01*
X-9871220Y-5539100D01*
X-9815953Y-5517923D01*
X-9757166Y-5524773D01*
X-9684201Y-5551989D01*
X-9623638Y-5558500D01*
X-6929672Y-5558500D01*
X-6926362Y-5558500D01*
X-6865799Y-5551989D01*
X-6728796Y-5500889D01*
X-6611739Y-5413261D01*
X-6524111Y-5296204D01*
X-6487293Y-5197493D01*
X-6475719Y-5166463D01*
X-6475717Y-5166458D01*
X-6473011Y-5159201D01*
X-6466500Y-5098638D01*
X-6466500Y-5059046D01*
X-6452561Y-5001926D01*
X-6413876Y-4957649D01*
X-6359145Y-4936168D01*
X-6300671Y-4942314D01*
X-6251601Y-4974704D01*
X-6193981Y-5036805D01*
X-5988857Y-5200386D01*
X-5761643Y-5331568D01*
X-5517416Y-5427420D01*
X-5261630Y-5485802D01*
X-5065494Y-5500500D01*
X-4936823Y-5500500D01*
X-4934506Y-5500500D01*
X-4738370Y-5485802D01*
X-4482584Y-5427420D01*
X-4238357Y-5331568D01*
X-4011143Y-5200386D01*
X-3806019Y-5036805D01*
X-3627567Y-4844479D01*
X-3479772Y-4627704D01*
X-3375945Y-4412105D01*
X-3367949Y-4395502D01*
X-3367946Y-4395496D01*
X-3365937Y-4391323D01*
X-3364573Y-4386901D01*
X-3364569Y-4386891D01*
X-3289971Y-4145048D01*
X-3289969Y-4145043D01*
X-3288604Y-4140615D01*
X-3287913Y-4136035D01*
X-3287912Y-4136028D01*
X-3250190Y-3885765D01*
X-3250189Y-3885754D01*
X-3249500Y-3881182D01*
X-3249500Y-3618818D01*
X-3250189Y-3614246D01*
X-3250190Y-3614234D01*
X-3287912Y-3363971D01*
X-3287914Y-3363961D01*
X-3288604Y-3359385D01*
X-3289968Y-3354959D01*
X-3289971Y-3354951D01*
X-3364569Y-3113108D01*
X-3364574Y-3113093D01*
X-3365937Y-3108677D01*
X-3367944Y-3104508D01*
X-3367949Y-3104497D01*
X-3477756Y-2876481D01*
X-3477759Y-2876474D01*
X-3479772Y-2872296D01*
X-3627567Y-2655521D01*
X-3630713Y-2652129D01*
X-3630719Y-2652123D01*
X-3802863Y-2466596D01*
X-3802865Y-2466593D01*
X-3806019Y-2463195D01*
X-3809641Y-2460306D01*
X-3809646Y-2460302D01*
X-4007516Y-2302506D01*
X-4007519Y-2302503D01*
X-4011143Y-2299614D01*
X-4015161Y-2297294D01*
X-4234335Y-2170753D01*
X-4234346Y-2170747D01*
X-4238357Y-2168432D01*
X-4242670Y-2166739D01*
X-4242681Y-2166734D01*
X-4478261Y-2074276D01*
X-4478268Y-2074273D01*
X-4482584Y-2072580D01*
X-4487102Y-2071548D01*
X-4487108Y-2071547D01*
X-4733850Y-2015229D01*
X-4733858Y-2015227D01*
X-4738370Y-2014198D01*
X-4742989Y-2013851D01*
X-4742995Y-2013851D01*
X-4932191Y-1999673D01*
X-4932203Y-1999672D01*
X-4934506Y-1999500D01*
X-5065494Y-1999500D01*
X-5067797Y-1999672D01*
X-5067808Y-1999673D01*
X-5257004Y-2013851D01*
X-5257008Y-2013851D01*
X-5261630Y-2014198D01*
X-5266143Y-2015228D01*
X-5266149Y-2015229D01*
X-5512891Y-2071547D01*
X-5512893Y-2071547D01*
X-5517416Y-2072580D01*
X-5521734Y-2074275D01*
X-5521738Y-2074276D01*
X-5757318Y-2166734D01*
X-5757324Y-2166737D01*
X-5761643Y-2168432D01*
X-5765658Y-2170750D01*
X-5765664Y-2170753D01*
X-5824413Y-2204672D01*
X-5988857Y-2299614D01*
X-6193981Y-2463195D01*
X-6197134Y-2466593D01*
X-6197136Y-2466595D01*
X-6251601Y-2525295D01*
X-6300671Y-2557686D01*
X-6359145Y-2563832D01*
X-6413876Y-2542351D01*
X-6452561Y-2498074D01*
X-6466500Y-2440954D01*
X-6466500Y-2404672D01*
X-6466500Y-2401362D01*
X-6466853Y-2398075D01*
X-6472182Y-2348505D01*
X-6472182Y-2348500D01*
X-6473011Y-2340799D01*
X-6475717Y-2333543D01*
X-6475719Y-2333536D01*
X-6521011Y-2212105D01*
X-6521013Y-2212099D01*
X-6524111Y-2203796D01*
X-6529423Y-2196698D01*
X-6529426Y-2196695D01*
X-6606426Y-2093835D01*
X-6606429Y-2093831D01*
X-6611739Y-2086739D01*
X-6618831Y-2081429D01*
X-6618835Y-2081426D01*
X-6721695Y-2004426D01*
X-6721698Y-2004423D01*
X-6728796Y-1999111D01*
X-6737099Y-1996013D01*
X-6737105Y-1996011D01*
X-6858536Y-1950719D01*
X-6858543Y-1950717D01*
X-6865799Y-1948011D01*
X-6873500Y-1947182D01*
X-6873505Y-1947182D01*
X-6923075Y-1941853D01*
X-6923082Y-1941852D01*
X-6926362Y-1941500D01*
X-6929672Y-1941500D01*
X-7517500Y-1941500D01*
X-7579500Y-1924887D01*
X-7624887Y-1879500D01*
X-7641500Y-1817500D01*
X-7641500Y52645D01*
X-6605157Y52645D01*
X-6595148Y-157459D01*
X-6545558Y-361871D01*
X-6458179Y-553205D01*
X-6336169Y-724544D01*
X-6183937Y-869697D01*
X-6006986Y-983416D01*
X-5811712Y-1061593D01*
X-5605171Y-1101400D01*
X-5450486Y-1101400D01*
X-5447532Y-1101400D01*
X-5290611Y-1086416D01*
X-5088789Y-1027156D01*
X-4901830Y-930771D01*
X-4736490Y-800747D01*
X-4673994Y-728623D01*
X-4602611Y-646243D01*
X-4602609Y-646240D01*
X-4598745Y-641781D01*
X-4493574Y-459619D01*
X-4491641Y-454035D01*
X-4491639Y-454030D01*
X-4426709Y-266427D01*
X-4426707Y-266421D01*
X-4424778Y-260846D01*
X-4423938Y-255007D01*
X-4423937Y-255001D01*
X-4395682Y-58484D01*
X-4395681Y-58478D01*
X-4394843Y-52645D01*
X-4395123Y-46760D01*
X-4395123Y-46753D01*
X-4404571Y151561D01*
X-4404852Y157459D01*
X-4429436Y258797D01*
X-4453049Y356130D01*
X-4453049Y356132D01*
X-4454442Y361871D01*
X-4456895Y367242D01*
X-4456897Y367248D01*
X-4539363Y547824D01*
X-4539365Y547828D01*
X-4541821Y553205D01*
X-4663831Y724544D01*
X-4816063Y869697D01*
X-4993014Y983416D01*
X-5188288Y1061593D01*
X-5394829Y1101400D01*
X-5552468Y1101400D01*
X-5709389Y1086416D01*
X-5911211Y1027156D01*
X-6098170Y930771D01*
X-6263510Y800747D01*
X-6401255Y641781D01*
X-6506426Y459619D01*
X-6575222Y260846D01*
X-6605157Y52645D01*
X-7641500Y52645D01*
X-7641500Y8500000D01*
X-6355659Y8500000D01*
X-6335063Y8264592D01*
X-6273903Y8036337D01*
X-6174035Y7822171D01*
X-6038495Y7628599D01*
X-5871401Y7461505D01*
X-5677829Y7325965D01*
X-5463663Y7226097D01*
X-5458438Y7224697D01*
X-5458430Y7224694D01*
X-5240634Y7166337D01*
X-5240630Y7166336D01*
X-5235408Y7164937D01*
X-5230020Y7164465D01*
X-5230017Y7164465D01*
X-5061664Y7149736D01*
X-5061662Y7149735D01*
X-5058966Y7149500D01*
X-4943742Y7149500D01*
X-4941034Y7149500D01*
X-4938338Y7149735D01*
X-4938335Y7149736D01*
X-4769982Y7164465D01*
X-4769977Y7164465D01*
X-4764592Y7164937D01*
X-4759371Y7166335D01*
X-4759365Y7166337D01*
X-4541569Y7224694D01*
X-4541557Y7224698D01*
X-4536337Y7226097D01*
X-4531432Y7228383D01*
X-4531427Y7228386D01*
X-4327081Y7323675D01*
X-4327077Y7323677D01*
X-4322171Y7325965D01*
X-4317738Y7329068D01*
X-4317731Y7329073D01*
X-4133034Y7458399D01*
X-4133029Y7458402D01*
X-4128599Y7461505D01*
X-4124775Y7465328D01*
X-4124769Y7465334D01*
X-3965336Y7624767D01*
X-3965330Y7624773D01*
X-3961505Y7628599D01*
X-3958406Y7633023D01*
X-3958399Y7633033D01*
X-3829066Y7817740D01*
X-3829061Y7817747D01*
X-3825965Y7822170D01*
X-3823683Y7827061D01*
X-3823678Y7827072D01*
X-3728386Y8031427D01*
X-3728383Y8031432D01*
X-3726097Y8036337D01*
X-3724698Y8041557D01*
X-3724694Y8041569D01*
X-3666337Y8259365D01*
X-3666335Y8259371D01*
X-3664937Y8264592D01*
X-3644341Y8500000D01*
X-3664937Y8735408D01*
X-3666337Y8740634D01*
X-3724694Y8958430D01*
X-3724697Y8958438D01*
X-3726097Y8963663D01*
X-3825965Y9177829D01*
X-3961505Y9371401D01*
X-4128599Y9538495D01*
X-4322171Y9674035D01*
X-4536337Y9773903D01*
X-4764592Y9835063D01*
X-4941034Y9850500D01*
X-5058966Y9850500D01*
X-5235408Y9835063D01*
X-5463663Y9773903D01*
X-5677829Y9674035D01*
X-5871401Y9538495D01*
X-6038495Y9371401D01*
X-6174035Y9177830D01*
X-6273903Y8963663D01*
X-6335063Y8735408D01*
X-6355659Y8500000D01*
X-7641500Y8500000D01*
X-7641500Y11317500D01*
X-7624887Y11379500D01*
X-7579500Y11424887D01*
X-7517500Y11441500D01*
X-6929672Y11441500D01*
X-6926362Y11441500D01*
X-6923082Y11441852D01*
X-6923075Y11441853D01*
X-6873505Y11447182D01*
X-6873500Y11447182D01*
X-6865799Y11448011D01*
X-6858543Y11450717D01*
X-6858536Y11450719D01*
X-6737105Y11496011D01*
X-6737099Y11496013D01*
X-6728796Y11499111D01*
X-6721698Y11504423D01*
X-6721695Y11504426D01*
X-6618835Y11581426D01*
X-6618831Y11581429D01*
X-6611739Y11586739D01*
X-6606429Y11593831D01*
X-6606426Y11593835D01*
X-6529426Y11696695D01*
X-6529423Y11696698D01*
X-6524111Y11703796D01*
X-6521013Y11712099D01*
X-6521011Y11712105D01*
X-6475719Y11833536D01*
X-6475717Y11833543D01*
X-6473011Y11840799D01*
X-6472182Y11848500D01*
X-6472182Y11848505D01*
X-6466853Y11898075D01*
X-6466852Y11898082D01*
X-6466500Y11901362D01*
X-6466500Y11940954D01*
X-6452561Y11998074D01*
X-6413876Y12042351D01*
X-6359145Y12063832D01*
X-6300671Y12057686D01*
X-6251601Y12025295D01*
X-6193981Y11963195D01*
X-5988857Y11799614D01*
X-5894216Y11744973D01*
X-5765664Y11670753D01*
X-5765658Y11670750D01*
X-5761643Y11668432D01*
X-5757324Y11666737D01*
X-5757318Y11666734D01*
X-5521738Y11574276D01*
X-5521734Y11574275D01*
X-5517416Y11572580D01*
X-5512893Y11571547D01*
X-5512891Y11571547D01*
X-5266149Y11515229D01*
X-5266143Y11515228D01*
X-5261630Y11514198D01*
X-5257008Y11513851D01*
X-5257004Y11513851D01*
X-5067808Y11499673D01*
X-5067797Y11499672D01*
X-5065494Y11499500D01*
X-4936823Y11499500D01*
X-4934506Y11499500D01*
X-4932203Y11499672D01*
X-4932191Y11499673D01*
X-4742995Y11513851D01*
X-4742989Y11513851D01*
X-4738370Y11514198D01*
X-4733858Y11515227D01*
X-4733850Y11515229D01*
X-4487108Y11571547D01*
X-4487102Y11571548D01*
X-4482584Y11572580D01*
X-4478268Y11574273D01*
X-4478261Y11574276D01*
X-4242681Y11666734D01*
X-4242670Y11666739D01*
X-4238357Y11668432D01*
X-4234346Y11670747D01*
X-4234335Y11670753D01*
X-4015161Y11797294D01*
X-4015159Y11797295D01*
X-4011143Y11799614D01*
X-4007519Y11802503D01*
X-4007516Y11802506D01*
X-3809646Y11960302D01*
X-3809641Y11960306D01*
X-3806019Y11963195D01*
X-3773656Y11998074D01*
X-3630719Y12152123D01*
X-3630713Y12152129D01*
X-3627567Y12155521D01*
X-3624957Y12159349D01*
X-3482387Y12368460D01*
X-3482385Y12368463D01*
X-3479772Y12372296D01*
X-3477759Y12376474D01*
X-3477756Y12376481D01*
X-3367949Y12604497D01*
X-3367944Y12604508D01*
X-3365937Y12608677D01*
X-3364574Y12613093D01*
X-3364569Y12613108D01*
X-3289971Y12854951D01*
X-3289968Y12854959D01*
X-3288604Y12859385D01*
X-3287914Y12863961D01*
X-3287912Y12863971D01*
X-3255357Y13079958D01*
X-3227482Y13141478D01*
X-3171501Y13179263D01*
X-3104020Y13182104D01*
X-3045061Y13149157D01*
X-2544819Y12648915D01*
X-2517939Y12608687D01*
X-2508500Y12561234D01*
X-2508500Y4953846D01*
X-2509031Y4942562D01*
X-2510702Y4935091D01*
X-2508561Y4866983D01*
X-2508500Y4863087D01*
X-2508500Y4835144D01*
X-2507982Y4831049D01*
X-2507064Y4819392D01*
X-2505673Y4775111D01*
X-2501551Y4760926D01*
X-2499979Y4755512D01*
X-2496032Y4736455D01*
X-2493474Y4716203D01*
X-2477159Y4674998D01*
X-2473379Y4663955D01*
X-2461018Y4621407D01*
X-2450619Y4603824D01*
X-2442070Y4586371D01*
X-2434552Y4567383D01*
X-2408503Y4531530D01*
X-2402098Y4521779D01*
X-2379542Y4483638D01*
X-2374024Y4478120D01*
X-2365107Y4469203D01*
X-2352470Y4454407D01*
X-2340472Y4437893D01*
X-2334460Y4432920D01*
X-2334457Y4432916D01*
X-2306325Y4409643D01*
X-2297685Y4401781D01*
X-66866Y2170960D01*
X-37177Y2123280D01*
X-31572Y2067389D01*
X-51202Y2014760D01*
X-92039Y1976191D01*
X-145702Y1959598D01*
X-280363Y1949967D01*
X-555018Y1890219D01*
X-818375Y1791992D01*
X-1065073Y1657285D01*
X-1290088Y1488841D01*
X-1488841Y1290088D01*
X-1657285Y1065073D01*
X-1791992Y818375D01*
X-1890219Y555018D01*
X-1949967Y280363D01*
X-1970019Y0D01*
X-1949967Y-280363D01*
X-1890219Y-555018D01*
X-1791992Y-818375D01*
X-1657285Y-1065073D01*
X-1488841Y-1290088D01*
X-1290088Y-1488841D01*
X-1065073Y-1657285D01*
X-818375Y-1791992D01*
X-555018Y-1890219D01*
X-280363Y-1949967D01*
X-70175Y-1965000D01*
X67960Y-1965000D01*
X70175Y-1965000D01*
X280363Y-1949967D01*
X555018Y-1890219D01*
X818375Y-1791992D01*
X1065073Y-1657285D01*
X1290088Y-1488841D01*
X1488841Y-1290088D01*
X1657285Y-1065073D01*
X1791992Y-818375D01*
X1890219Y-555018D01*
X1949967Y-280363D01*
X1959598Y-145702D01*
X1976191Y-92039D01*
X2014760Y-51202D01*
X2067389Y-31572D01*
X2123280Y-37177D01*
X2170963Y-66868D01*
X2230181Y-126086D01*
X2257061Y-166314D01*
X2266500Y-213767D01*
X2266500Y-1807400D01*
X2257061Y-1854853D01*
X2236083Y-1886248D01*
X2236739Y-1886739D01*
X2154426Y-1996695D01*
X2154423Y-1996698D01*
X2149111Y-2003796D01*
X2146013Y-2012099D01*
X2146011Y-2012105D01*
X2100719Y-2133536D01*
X2100717Y-2133543D01*
X2098011Y-2140799D01*
X2097182Y-2148500D01*
X2097182Y-2148505D01*
X2091853Y-2198075D01*
X2091500Y-2201362D01*
X2091500Y-2998638D01*
X2098011Y-3059201D01*
X2100717Y-3066458D01*
X2100719Y-3066463D01*
X2118117Y-3113108D01*
X2149111Y-3196204D01*
X2154425Y-3203303D01*
X2154426Y-3203304D01*
X2199999Y-3264183D01*
X2236739Y-3313261D01*
X2353796Y-3400889D01*
X2490799Y-3451989D01*
X2551362Y-3458500D01*
X3245328Y-3458500D01*
X3248638Y-3458500D01*
X3309201Y-3451989D01*
X3446204Y-3400889D01*
X3468189Y-3384430D01*
X3531447Y-3360192D01*
X3598004Y-3372814D01*
X3647995Y-3418531D01*
X3666500Y-3483698D01*
X3666500Y-4017500D01*
X3649887Y-4079500D01*
X3604500Y-4124887D01*
X3542500Y-4141500D01*
X1926362Y-4141500D01*
X1923082Y-4141852D01*
X1923075Y-4141853D01*
X1873505Y-4147182D01*
X1873500Y-4147182D01*
X1865799Y-4148011D01*
X1858543Y-4150717D01*
X1858536Y-4150719D01*
X1737105Y-4196011D01*
X1737099Y-4196013D01*
X1728796Y-4199111D01*
X1721698Y-4204423D01*
X1721695Y-4204426D01*
X1618835Y-4281426D01*
X1618831Y-4281429D01*
X1611739Y-4286739D01*
X1606429Y-4293831D01*
X1606426Y-4293835D01*
X1529426Y-4396695D01*
X1529423Y-4396698D01*
X1524111Y-4403796D01*
X1521013Y-4412099D01*
X1521011Y-4412105D01*
X1475719Y-4533536D01*
X1475717Y-4533543D01*
X1473011Y-4540799D01*
X1472182Y-4548500D01*
X1472182Y-4548505D01*
X1466853Y-4598075D01*
X1466500Y-4601362D01*
X1466500Y-4604672D01*
X1466500Y-4640954D01*
X1452561Y-4698074D01*
X1413876Y-4742351D01*
X1359145Y-4763832D01*
X1300671Y-4757686D01*
X1251601Y-4725295D01*
X1197136Y-4666595D01*
X1197134Y-4666593D01*
X1193981Y-4663195D01*
X988857Y-4499614D01*
X837287Y-4412105D01*
X765664Y-4370753D01*
X765658Y-4370750D01*
X761643Y-4368432D01*
X757324Y-4366737D01*
X757318Y-4366734D01*
X521738Y-4274276D01*
X521734Y-4274275D01*
X517416Y-4272580D01*
X512893Y-4271547D01*
X512891Y-4271547D01*
X266149Y-4215229D01*
X266143Y-4215228D01*
X261630Y-4214198D01*
X257008Y-4213851D01*
X257004Y-4213851D01*
X67808Y-4199673D01*
X67797Y-4199672D01*
X65494Y-4199500D01*
X-65494Y-4199500D01*
X-67797Y-4199672D01*
X-67808Y-4199673D01*
X-257004Y-4213851D01*
X-257008Y-4213851D01*
X-261630Y-4214198D01*
X-266143Y-4215228D01*
X-266149Y-4215229D01*
X-512891Y-4271547D01*
X-512893Y-4271547D01*
X-517416Y-4272580D01*
X-521734Y-4274275D01*
X-521738Y-4274276D01*
X-757318Y-4366734D01*
X-757324Y-4366737D01*
X-761643Y-4368432D01*
X-765658Y-4370750D01*
X-765664Y-4370753D01*
X-837287Y-4412105D01*
X-988857Y-4499614D01*
X-1193981Y-4663195D01*
X-1372433Y-4855521D01*
X-1520228Y-5072296D01*
X-1634063Y-5308677D01*
X-1635428Y-5313105D01*
X-1635430Y-5313108D01*
X-1664134Y-5406164D01*
X-1711396Y-5559385D01*
X-1750500Y-5818818D01*
X-1750500Y-6081182D01*
X-1711396Y-6340615D01*
X-1634063Y-6591323D01*
X-1520228Y-6827704D01*
X-1372433Y-7044479D01*
X-1193981Y-7236805D01*
X-988857Y-7400386D01*
X-761643Y-7531568D01*
X-517416Y-7627420D01*
X-261630Y-7685802D01*
X-65494Y-7700500D01*
X63177Y-7700500D01*
X65494Y-7700500D01*
X261630Y-7685802D01*
X517416Y-7627420D01*
X761643Y-7531568D01*
X988857Y-7400386D01*
X1193981Y-7236805D01*
X1251601Y-7174704D01*
X1300671Y-7142314D01*
X1359145Y-7136168D01*
X1413876Y-7157649D01*
X1452561Y-7201926D01*
X1466500Y-7259046D01*
X1466500Y-7298638D01*
X1473011Y-7359201D01*
X1475717Y-7366458D01*
X1475719Y-7366463D01*
X1506583Y-7449211D01*
X1524111Y-7496204D01*
X1611739Y-7613261D01*
X1728796Y-7700889D01*
X1865799Y-7751989D01*
X1926362Y-7758500D01*
X4620328Y-7758500D01*
X4623638Y-7758500D01*
X4684201Y-7751989D01*
X4821204Y-7700889D01*
X4938261Y-7613261D01*
X5025889Y-7496204D01*
X5076989Y-7359201D01*
X5083500Y-7298638D01*
X5083500Y-4601362D01*
X5076989Y-4540799D01*
X5025889Y-4403796D01*
X5020573Y-4396694D01*
X5020571Y-4396691D01*
X4958233Y-4313417D01*
X4939846Y-4278266D01*
X4933500Y-4239107D01*
X4933500Y-3392600D01*
X4942939Y-3345147D01*
X4963916Y-3313751D01*
X4963261Y-3313261D01*
X5000000Y-3264183D01*
X5050889Y-3196204D01*
X5101989Y-3059201D01*
X5108500Y-2998638D01*
X5108500Y-2201362D01*
X5101989Y-2140799D01*
X5050889Y-2003796D01*
X4963261Y-1886739D01*
X4920666Y-1854853D01*
X4853304Y-1804426D01*
X4853303Y-1804425D01*
X4846204Y-1799111D01*
X4837896Y-1796012D01*
X4837894Y-1796011D01*
X4716463Y-1750719D01*
X4716458Y-1750717D01*
X4709201Y-1748011D01*
X4701497Y-1747182D01*
X4701494Y-1747182D01*
X4651924Y-1741853D01*
X4651918Y-1741852D01*
X4648638Y-1741500D01*
X3951362Y-1741500D01*
X3948082Y-1741852D01*
X3948075Y-1741853D01*
X3898505Y-1747182D01*
X3898500Y-1747182D01*
X3890799Y-1748011D01*
X3883543Y-1750717D01*
X3883536Y-1750719D01*
X3762105Y-1796011D01*
X3762099Y-1796013D01*
X3753796Y-1799111D01*
X3746698Y-1804423D01*
X3746695Y-1804426D01*
X3731811Y-1815569D01*
X3668553Y-1839808D01*
X3601996Y-1827186D01*
X3552005Y-1781469D01*
X3533500Y-1716302D01*
X3533500Y21152D01*
X3534031Y32436D01*
X3535702Y39908D01*
X3535302Y52645D01*
X4394843Y52645D01*
X4395123Y46760D01*
X4395123Y46753D01*
X4403357Y-126086D01*
X4404852Y-157459D01*
X4406244Y-163196D01*
X4429933Y-260846D01*
X4454442Y-361871D01*
X4456895Y-367242D01*
X4456897Y-367248D01*
X4539363Y-547824D01*
X4539365Y-547828D01*
X4541821Y-553205D01*
X4663831Y-724544D01*
X4816063Y-869697D01*
X4993014Y-983416D01*
X5188288Y-1061593D01*
X5394829Y-1101400D01*
X5549514Y-1101400D01*
X5552468Y-1101400D01*
X5709389Y-1086416D01*
X5911211Y-1027156D01*
X6098170Y-930771D01*
X6263510Y-800747D01*
X6401255Y-641781D01*
X6506426Y-459619D01*
X6575222Y-260846D01*
X6605157Y-52645D01*
X6595148Y157459D01*
X6545558Y361871D01*
X6458179Y553205D01*
X6336169Y724544D01*
X6183937Y869697D01*
X6006986Y983416D01*
X5811712Y1061593D01*
X5605171Y1101400D01*
X5447532Y1101400D01*
X5290611Y1086416D01*
X5088789Y1027156D01*
X4901830Y930771D01*
X4736490Y800747D01*
X4732621Y796282D01*
X4670460Y724544D01*
X4598745Y641781D01*
X4493574Y459619D01*
X4491641Y454035D01*
X4491639Y454030D01*
X4426709Y266427D01*
X4426707Y266421D01*
X4424778Y260846D01*
X4423938Y255007D01*
X4423937Y255001D01*
X4395682Y58484D01*
X4395681Y58478D01*
X4394843Y52645D01*
X3535302Y52645D01*
X3533560Y108030D01*
X3533500Y111925D01*
X3533500Y135958D01*
X3533500Y139856D01*
X3532984Y143938D01*
X3532065Y155603D01*
X3532007Y157459D01*
X3530674Y199889D01*
X3524977Y219496D01*
X3521033Y238539D01*
X3518474Y258797D01*
X3502162Y299992D01*
X3498379Y311044D01*
X3488194Y346103D01*
X3488193Y346103D01*
X3486018Y353593D01*
X3475625Y371165D01*
X3467066Y388637D01*
X3459552Y407617D01*
X3433498Y443475D01*
X3427091Y453231D01*
X3404542Y491362D01*
X3390110Y505793D01*
X3377472Y520588D01*
X3365472Y537107D01*
X3331318Y565360D01*
X3322699Y573203D01*
X-1205181Y5101086D01*
X-1232061Y5141314D01*
X-1241500Y5188767D01*
X-1241500Y9543601D01*
X-1222494Y9609573D01*
X-1171302Y9655321D01*
X-1103617Y9666821D01*
X-1040188Y9640548D01*
X-992490Y9602511D01*
X-988857Y9599614D01*
X-894216Y9544973D01*
X-765664Y9470753D01*
X-765658Y9470750D01*
X-761643Y9468432D01*
X-757324Y9466737D01*
X-757318Y9466734D01*
X-521738Y9374276D01*
X-521734Y9374275D01*
X-517416Y9372580D01*
X-512893Y9371547D01*
X-512891Y9371547D01*
X-266149Y9315229D01*
X-266143Y9315228D01*
X-261630Y9314198D01*
X-257008Y9313851D01*
X-257004Y9313851D01*
X-67808Y9299673D01*
X-67797Y9299672D01*
X-65494Y9299500D01*
X63177Y9299500D01*
X65494Y9299500D01*
X67797Y9299672D01*
X67808Y9299673D01*
X257004Y9313851D01*
X257008Y9313851D01*
X261630Y9314198D01*
X266143Y9315228D01*
X266149Y9315229D01*
X512891Y9371547D01*
X512893Y9371547D01*
X517416Y9372580D01*
X521734Y9374275D01*
X521738Y9374276D01*
X757318Y9466734D01*
X757324Y9466737D01*
X761643Y9468432D01*
X765658Y9470750D01*
X765664Y9470753D01*
X894216Y9544973D01*
X988857Y9599614D01*
X1193981Y9763195D01*
X1205218Y9775305D01*
X1226344Y9798074D01*
X1251601Y9825295D01*
X1300671Y9857686D01*
X1359145Y9863832D01*
X1413876Y9842351D01*
X1452561Y9798074D01*
X1466500Y9740954D01*
X1466500Y9701362D01*
X1466852Y9698082D01*
X1466853Y9698075D01*
X1472182Y9648505D01*
X1472182Y9648500D01*
X1473011Y9640799D01*
X1475717Y9633543D01*
X1475719Y9633536D01*
X1521011Y9512105D01*
X1521013Y9512099D01*
X1524111Y9503796D01*
X1529423Y9496698D01*
X1529426Y9496695D01*
X1606426Y9393835D01*
X1606429Y9393831D01*
X1611739Y9386739D01*
X1618831Y9381429D01*
X1618835Y9381426D01*
X1721695Y9304426D01*
X1721698Y9304423D01*
X1728796Y9299111D01*
X1737099Y9296013D01*
X1737105Y9296011D01*
X1858536Y9250719D01*
X1858543Y9250717D01*
X1865799Y9248011D01*
X1873500Y9247182D01*
X1873505Y9247182D01*
X1923075Y9241853D01*
X1923082Y9241852D01*
X1926362Y9241500D01*
X4620328Y9241500D01*
X4623638Y9241500D01*
X4626918Y9241852D01*
X4626924Y9241853D01*
X4676494Y9247182D01*
X4676497Y9247182D01*
X4684201Y9248011D01*
X4691458Y9250717D01*
X4691463Y9250719D01*
X4812894Y9296011D01*
X4812896Y9296012D01*
X4821204Y9299111D01*
X4911846Y9366965D01*
X4931164Y9381426D01*
X4938261Y9386739D01*
X5025889Y9503796D01*
X5076989Y9640799D01*
X5083500Y9701362D01*
X5083500Y12398638D01*
X5076989Y12459201D01*
X5025889Y12596204D01*
X4999416Y12631568D01*
X4958233Y12686583D01*
X4939846Y12721734D01*
X4933500Y12760893D01*
X4933500Y13607400D01*
X4942939Y13654853D01*
X4963916Y13686248D01*
X4963261Y13686739D01*
X5019436Y13761780D01*
X5050889Y13803796D01*
X5101989Y13940799D01*
X5108500Y14001362D01*
X5108500Y14798638D01*
X5101989Y14859201D01*
X5050889Y14996204D01*
X4963261Y15113261D01*
X4846204Y15200889D01*
X4709201Y15251989D01*
X4648638Y15258500D01*
X3951362Y15258500D01*
X3890799Y15251989D01*
X3753796Y15200889D01*
X3698201Y15159271D01*
X3674311Y15141387D01*
X3626358Y15119488D01*
X3573642Y15119488D01*
X3525689Y15141387D01*
X3523864Y15142753D01*
X3446204Y15200889D01*
X3309201Y15251989D01*
X3248638Y15258500D01*
X2551362Y15258500D01*
X2490799Y15251989D01*
X2353796Y15200889D01*
X2236739Y15113261D01*
X2214228Y15083189D01*
X2170465Y15046616D01*
X2114961Y15033500D01*
X984615Y15033500D01*
X922105Y15050409D01*
X876642Y15096525D01*
X860628Y15159271D01*
X878428Y15221533D01*
X925188Y15266332D01*
X1061178Y15340588D01*
X1061179Y15340589D01*
X1065073Y15342715D01*
X1290088Y15511159D01*
X1488841Y15709912D01*
X1657285Y15934927D01*
X1791992Y16181625D01*
X1890219Y16444982D01*
X1949967Y16719637D01*
X1970019Y17000000D01*
X1966254Y17052645D01*
X4394843Y17052645D01*
X4395123Y17046760D01*
X4395123Y17046753D01*
X4403076Y16879819D01*
X4404852Y16842541D01*
X4406243Y16836803D01*
X4406244Y16836803D01*
X4446982Y16668877D01*
X4454442Y16638129D01*
X4456893Y16632760D01*
X4456897Y16632751D01*
X4539363Y16452175D01*
X4539367Y16452166D01*
X4541821Y16446795D01*
X4545247Y16441983D01*
X4545251Y16441977D01*
X4660400Y16280273D01*
X4660404Y16280267D01*
X4663831Y16275456D01*
X4668104Y16271381D01*
X4668109Y16271376D01*
X4811791Y16134376D01*
X4816063Y16130303D01*
X4821026Y16127113D01*
X4821028Y16127112D01*
X4988043Y16019778D01*
X4988048Y16019775D01*
X4993014Y16016584D01*
X4998498Y16014388D01*
X4998501Y16014387D01*
X5182799Y15940604D01*
X5182803Y15940602D01*
X5188288Y15938407D01*
X5194088Y15937289D01*
X5194092Y15937288D01*
X5389031Y15899717D01*
X5389035Y15899716D01*
X5394829Y15898600D01*
X5549514Y15898600D01*
X5552468Y15898600D01*
X5555397Y15898879D01*
X5555403Y15898880D01*
X5703508Y15913022D01*
X5703512Y15913022D01*
X5709389Y15913584D01*
X5715058Y15915248D01*
X5715060Y15915249D01*
X5905545Y15971180D01*
X5905548Y15971181D01*
X5911211Y15972844D01*
X5916460Y15975550D01*
X6092920Y16066522D01*
X6092923Y16066524D01*
X6098170Y16069229D01*
X6196310Y16146407D01*
X6258864Y16195599D01*
X6258866Y16195601D01*
X6263510Y16199253D01*
X6401255Y16358219D01*
X6506426Y16540381D01*
X6575222Y16739154D01*
X6605157Y16947355D01*
X6595148Y17157459D01*
X6545558Y17361871D01*
X6458179Y17553205D01*
X6336169Y17724544D01*
X6183937Y17869697D01*
X6006986Y17983416D01*
X5811712Y18061593D01*
X5605171Y18101400D01*
X5447532Y18101400D01*
X5290611Y18086416D01*
X5088789Y18027156D01*
X4901830Y17930771D01*
X4736490Y17800747D01*
X4732621Y17796282D01*
X4633500Y17681890D01*
X4598745Y17641781D01*
X4493574Y17459619D01*
X4491641Y17454035D01*
X4491639Y17454030D01*
X4426709Y17266427D01*
X4426707Y17266421D01*
X4424778Y17260846D01*
X4423938Y17255007D01*
X4423937Y17255001D01*
X4395682Y17058484D01*
X4395681Y17058478D01*
X4394843Y17052645D01*
X1966254Y17052645D01*
X1949967Y17280363D01*
X1890219Y17555018D01*
X1791992Y17818375D01*
X1657285Y18065073D01*
X1488841Y18290088D01*
X1290088Y18488841D01*
X1065073Y18657285D01*
X818375Y18791992D01*
X555018Y18890219D01*
X280363Y18949967D01*
X70175Y18965000D01*
X-70175Y18965000D01*
X-280363Y18949967D01*
X-555018Y18890219D01*
X-818375Y18791992D01*
X-1065073Y18657285D01*
X-1290088Y18488841D01*
X-1488841Y18290088D01*
X-1493230Y18284223D01*
X-1494134Y18283495D01*
X-1494395Y18283195D01*
X-1494449Y18283241D01*
X-1540981Y18245739D01*
X-1601340Y18234846D01*
X-1659536Y18254212D01*
X-1701331Y18299101D01*
X-1716500Y18358529D01*
X-1716500Y18597395D01*
X-1716500Y18597414D01*
X-1716501Y18600544D01*
X-1716819Y18603657D01*
X-1716820Y18603676D01*
X-1726424Y18697686D01*
X-1726424Y18697690D01*
X-1727113Y18704426D01*
X-1756129Y18791992D01*
X-1780611Y18865877D01*
X-1780612Y18865880D01*
X-1782885Y18872738D01*
X-1786675Y18878883D01*
X-1786677Y18878887D01*
X-1872177Y19017502D01*
X-1875970Y19023652D01*
X-2001348Y19149030D01*
X-2100419Y19210137D01*
X-2146112Y19238322D01*
X-2146114Y19238323D01*
X-2152262Y19242115D01*
X-2320574Y19297887D01*
X-2424455Y19308500D01*
X-3825544Y19308499D01*
X-3929426Y19297887D01*
X-4097738Y19242115D01*
X-4248652Y19149030D01*
X-4374030Y19023652D01*
X-4467115Y18872738D01*
X-4469388Y18865877D01*
X-4470472Y18863553D01*
X-4507366Y18817579D01*
X-4561321Y18793836D01*
X-4620143Y18797690D01*
X-4670538Y18828270D01*
X-5230181Y19387913D01*
X-5257061Y19428141D01*
X-5266500Y19475594D01*
X-5266500Y20121154D01*
X-5265968Y20132437D01*
X-5264298Y20139909D01*
X-5266439Y20208017D01*
X-5266500Y20211913D01*
X-5266500Y20235961D01*
X-5266500Y20239856D01*
X-5266988Y20243721D01*
X-5266989Y20243732D01*
X-5267019Y20243970D01*
X-5267934Y20255596D01*
X-5269081Y20292096D01*
X-5269082Y20292103D01*
X-5269327Y20299889D01*
X-5271500Y20307370D01*
X-5271502Y20307380D01*
X-5275022Y20319495D01*
X-5278967Y20338542D01*
X-5280548Y20351058D01*
X-5280548Y20351060D01*
X-5281526Y20358797D01*
X-5284395Y20366045D01*
X-5284398Y20366054D01*
X-5297838Y20400001D01*
X-5301621Y20411048D01*
X-5311806Y20446102D01*
X-5313982Y20453593D01*
X-5324375Y20471168D01*
X-5332930Y20488631D01*
X-5337576Y20500364D01*
X-5337576Y20500365D01*
X-5340448Y20507617D01*
X-5366491Y20543462D01*
X-5372905Y20553227D01*
X-5391485Y20584644D01*
X-5395458Y20591362D01*
X-5409889Y20605793D01*
X-5422525Y20620588D01*
X-5429938Y20630791D01*
X-5429943Y20630796D01*
X-5434528Y20637107D01*
X-5468668Y20665349D01*
X-5477307Y20673211D01*
X-5696300Y20892205D01*
X-5703898Y20900555D01*
X-5708000Y20907018D01*
X-5741563Y20938535D01*
X-5770479Y20979678D01*
X-5780678Y21028922D01*
X-5770482Y21078167D01*
X-5769823Y21079688D01*
X-5765855Y21086399D01*
X-5753508Y21128897D01*
X-5722113Y21181981D01*
X-5507798Y21396296D01*
X-5499443Y21403898D01*
X-5492982Y21408000D01*
X-5487648Y21413679D01*
X-5487642Y21413685D01*
X-5446323Y21457685D01*
X-5443618Y21460477D01*
X-5426614Y21477482D01*
X-5423866Y21480230D01*
X-5421487Y21483295D01*
X-5421481Y21483303D01*
X-5421323Y21483508D01*
X-5413754Y21492368D01*
X-5388753Y21518993D01*
X-5388752Y21518994D01*
X-5383414Y21524679D01*
X-5379659Y21531507D01*
X-5379653Y21531517D01*
X-5373577Y21542570D01*
X-5362901Y21558824D01*
X-5355169Y21568792D01*
X-5355164Y21568799D01*
X-5350387Y21574959D01*
X-5347290Y21582113D01*
X-5347287Y21582120D01*
X-5332790Y21615619D01*
X-5327654Y21626103D01*
X-5310062Y21658104D01*
X-5310059Y21658110D01*
X-5306305Y21664940D01*
X-5301225Y21684720D01*
X-5294927Y21703115D01*
X-5289917Y21714693D01*
X-5289914Y21714699D01*
X-5286819Y21721855D01*
X-5279889Y21765606D01*
X-5277521Y21777039D01*
X-5268439Y21812414D01*
X-5268438Y21812421D01*
X-5266500Y21819970D01*
X-5266500Y21840391D01*
X-5264973Y21859788D01*
X-5263002Y21872232D01*
X-5263001Y21872234D01*
X-5261781Y21879943D01*
X-5265950Y21924049D01*
X-5266500Y21935718D01*
X-5266500Y23524407D01*
X-5257061Y23571860D01*
X-5230181Y23612088D01*
X-4670538Y24171729D01*
X-4620143Y24202309D01*
X-4561322Y24206164D01*
X-4507367Y24182421D01*
X-4470472Y24136448D01*
X-4469389Y24134126D01*
X-4467115Y24127262D01*
X-4374030Y23976348D01*
X-4248652Y23850970D01*
X-4196809Y23818992D01*
X-4103887Y23761677D01*
X-4103881Y23761674D01*
X-4097738Y23757885D01*
X-4090880Y23755612D01*
X-4090877Y23755611D01*
X-3935850Y23704241D01*
X-3935844Y23704239D01*
X-3929426Y23702113D01*
X-3922696Y23701425D01*
X-3922694Y23701425D01*
X-3828674Y23691819D01*
X-3828660Y23691818D01*
X-3825545Y23691500D01*
X-3822397Y23691500D01*
X-2427604Y23691500D01*
X-2427584Y23691500D01*
X-2424456Y23691501D01*
X-2421343Y23691819D01*
X-2421323Y23691820D01*
X-2327313Y23701424D01*
X-2327307Y23701425D01*
X-2320574Y23702113D01*
X-2314144Y23704243D01*
X-2314142Y23704244D01*
X-2159122Y23755611D01*
X-2159115Y23755613D01*
X-2152262Y23757885D01*
X-2146121Y23761672D01*
X-2146112Y23761677D01*
X-2007497Y23847177D01*
X-2007495Y23847178D01*
X-2001348Y23850970D01*
X-1996240Y23856077D01*
X-1996236Y23856081D01*
X-1881081Y23971236D01*
X-1881077Y23971240D01*
X-1875970Y23976348D01*
X-1872177Y23982497D01*
X-1786677Y24121112D01*
X-1786672Y24121121D01*
X-1782885Y24127262D01*
X-1780613Y24134115D01*
X-1780611Y24134122D01*
X-1729241Y24289149D01*
X-1729239Y24289157D01*
X-1727113Y24295574D01*
X-1726425Y24302305D01*
X-1716819Y24396325D01*
X-1716818Y24396340D01*
X-1716500Y24399455D01*
X-1716500Y24633034D01*
X-1716500Y25197395D01*
X-1716500Y25197414D01*
X-1716501Y25200544D01*
X-1716819Y25203657D01*
X-1716820Y25203676D01*
X-1726424Y25297686D01*
X-1726424Y25297690D01*
X-1727113Y25304426D01*
X-1730979Y25316094D01*
X-1780611Y25465877D01*
X-1780612Y25465880D01*
X-1782885Y25472738D01*
X-1786674Y25478881D01*
X-1786677Y25478887D01*
X-1799700Y25500000D01*
X3644341Y25500000D01*
X3644813Y25494605D01*
X3662041Y25297686D01*
X3664937Y25264592D01*
X3666335Y25259371D01*
X3666337Y25259365D01*
X3724694Y25041569D01*
X3724698Y25041557D01*
X3726097Y25036337D01*
X3728383Y25031432D01*
X3728386Y25031427D01*
X3823675Y24827081D01*
X3825965Y24822171D01*
X3829068Y24817740D01*
X3829073Y24817731D01*
X3958399Y24633034D01*
X3958400Y24633033D01*
X3961505Y24628599D01*
X3965328Y24624775D01*
X3965334Y24624769D01*
X4124769Y24465334D01*
X4124775Y24465328D01*
X4128599Y24461505D01*
X4133029Y24458402D01*
X4133034Y24458399D01*
X4317731Y24329073D01*
X4317738Y24329068D01*
X4322171Y24325965D01*
X4327077Y24323677D01*
X4327081Y24323675D01*
X4531427Y24228386D01*
X4531432Y24228383D01*
X4536337Y24226097D01*
X4541557Y24224698D01*
X4541569Y24224694D01*
X4759365Y24166337D01*
X4759371Y24166335D01*
X4764592Y24164937D01*
X4769977Y24164465D01*
X4769982Y24164465D01*
X4938335Y24149736D01*
X4938338Y24149735D01*
X4941034Y24149500D01*
X5056258Y24149500D01*
X5058966Y24149500D01*
X5061662Y24149735D01*
X5061664Y24149736D01*
X5230017Y24164465D01*
X5230020Y24164465D01*
X5235408Y24164937D01*
X5240630Y24166336D01*
X5240634Y24166337D01*
X5458430Y24224694D01*
X5458438Y24224697D01*
X5463663Y24226097D01*
X5677829Y24325965D01*
X5691560Y24335579D01*
X5866965Y24458399D01*
X5871401Y24461505D01*
X6038495Y24628599D01*
X6041601Y24633034D01*
X6170933Y24817740D01*
X6174035Y24822170D01*
X6273903Y25036337D01*
X6335063Y25264592D01*
X6355659Y25500000D01*
X6335063Y25735408D01*
X6273903Y25963663D01*
X6174035Y26177829D01*
X6038495Y26371401D01*
X5871401Y26538495D01*
X5677829Y26674035D01*
X5463663Y26773903D01*
X5235408Y26835063D01*
X5058966Y26850500D01*
X4941034Y26850500D01*
X4764592Y26835063D01*
X4536337Y26773903D01*
X4322171Y26674035D01*
X4128599Y26538495D01*
X3961505Y26371401D01*
X3958402Y26366970D01*
X3958399Y26366966D01*
X3829066Y26182259D01*
X3825965Y26177830D01*
X3823681Y26172933D01*
X3823678Y26172927D01*
X3749150Y26013101D01*
X3726097Y25963663D01*
X3724697Y25958438D01*
X3724694Y25958430D01*
X3692512Y25838322D01*
X3664937Y25735408D01*
X3664465Y25730020D01*
X3664465Y25730017D01*
X3655159Y25623652D01*
X3644341Y25500000D01*
X-1799700Y25500000D01*
X-1872177Y25617502D01*
X-1875970Y25623652D01*
X-2001348Y25749030D01*
X-2100419Y25810137D01*
X-2146112Y25838322D01*
X-2146114Y25838323D01*
X-2152262Y25842115D01*
X-2320574Y25897887D01*
X-2424455Y25908500D01*
X-2634407Y25908499D01*
X-2690700Y25922014D01*
X-2734724Y25959613D01*
X-2756879Y26013101D01*
X-2752337Y26070817D01*
X-2722087Y26120180D01*
X-2507798Y26334469D01*
X-2499443Y26342071D01*
X-2492982Y26346173D01*
X-2487648Y26351852D01*
X-2487642Y26351858D01*
X-2446323Y26395858D01*
X-2443618Y26398650D01*
X-2426615Y26415654D01*
X-2423865Y26418404D01*
X-2421485Y26421470D01*
X-2421469Y26421490D01*
X-2421321Y26421682D01*
X-2413748Y26430548D01*
X-2388755Y26457163D01*
X-2388750Y26457168D01*
X-2383414Y26462852D01*
X-2379658Y26469682D01*
X-2379652Y26469692D01*
X-2373575Y26480746D01*
X-2362901Y26496995D01*
X-2355172Y26506959D01*
X-2355164Y26506971D01*
X-2350386Y26513132D01*
X-2347289Y26520286D01*
X-2347285Y26520295D01*
X-2332786Y26553801D01*
X-2327648Y26564288D01*
X-2310065Y26596271D01*
X-2310061Y26596279D01*
X-2306305Y26603113D01*
X-2304366Y26610664D01*
X-2304363Y26610672D01*
X-2301225Y26622895D01*
X-2294926Y26641293D01*
X-2289917Y26652869D01*
X-2286819Y26660028D01*
X-2285599Y26667726D01*
X-2285598Y26667732D01*
X-2279888Y26703784D01*
X-2277520Y26715218D01*
X-2268438Y26750590D01*
X-2268436Y26750599D01*
X-2266500Y26758143D01*
X-2266500Y26778558D01*
X-2264973Y26797956D01*
X-2263001Y26810406D01*
X-2263000Y26810407D01*
X-2261780Y26818116D01*
X-2263250Y26833662D01*
X-2265950Y26862231D01*
X-2266500Y26873900D01*
X-2266500Y34000000D01*
X-1970019Y34000000D01*
X-1949967Y33719637D01*
X-1890219Y33444982D01*
X-1791992Y33181625D01*
X-1657285Y32934927D01*
X-1488841Y32709912D01*
X-1290088Y32511159D01*
X-1065073Y32342715D01*
X-1061179Y32340589D01*
X-1061178Y32340588D01*
X-822264Y32210131D01*
X-822257Y32210128D01*
X-818375Y32208008D01*
X-814232Y32206462D01*
X-814226Y32206460D01*
X-559161Y32111326D01*
X-559157Y32111325D01*
X-555018Y32109781D01*
X-550692Y32108840D01*
X-284696Y32050975D01*
X-284687Y32050973D01*
X-280363Y32050033D01*
X-275949Y32049717D01*
X-275940Y32049716D01*
X-72385Y32035158D01*
X-72383Y32035157D01*
X-70175Y32035000D01*
X67960Y32035000D01*
X70175Y32035000D01*
X72383Y32035157D01*
X72385Y32035158D01*
X275940Y32049716D01*
X275949Y32049717D01*
X280363Y32050033D01*
X284687Y32050973D01*
X284696Y32050975D01*
X550692Y32108840D01*
X555018Y32109781D01*
X559157Y32111325D01*
X559161Y32111326D01*
X814226Y32206460D01*
X814232Y32206462D01*
X818375Y32208008D01*
X822257Y32210128D01*
X822264Y32210131D01*
X1061178Y32340588D01*
X1061179Y32340589D01*
X1065073Y32342715D01*
X1290088Y32511159D01*
X1488841Y32709912D01*
X1657285Y32934927D01*
X1791992Y33181625D01*
X1890219Y33444982D01*
X1949967Y33719637D01*
X1970019Y34000000D01*
X1966254Y34052645D01*
X4394843Y34052645D01*
X4395123Y34046760D01*
X4395123Y34046753D01*
X4400137Y33941515D01*
X4404852Y33842541D01*
X4406243Y33836803D01*
X4406244Y33836803D01*
X4435719Y33715303D01*
X4454442Y33638129D01*
X4456893Y33632760D01*
X4456897Y33632751D01*
X4539363Y33452175D01*
X4539367Y33452166D01*
X4541821Y33446795D01*
X4545247Y33441983D01*
X4545251Y33441977D01*
X4660400Y33280273D01*
X4660404Y33280267D01*
X4663831Y33275456D01*
X4668104Y33271381D01*
X4668109Y33271376D01*
X4811791Y33134376D01*
X4816063Y33130303D01*
X4821026Y33127113D01*
X4821028Y33127112D01*
X4988043Y33019778D01*
X4988048Y33019775D01*
X4993014Y33016584D01*
X4998498Y33014388D01*
X4998501Y33014387D01*
X5182799Y32940604D01*
X5182803Y32940602D01*
X5188288Y32938407D01*
X5194088Y32937289D01*
X5194092Y32937288D01*
X5389031Y32899717D01*
X5389035Y32899716D01*
X5394829Y32898600D01*
X5549514Y32898600D01*
X5552468Y32898600D01*
X5555397Y32898879D01*
X5555403Y32898880D01*
X5703508Y32913022D01*
X5703512Y32913022D01*
X5709389Y32913584D01*
X5715058Y32915248D01*
X5715060Y32915249D01*
X5905545Y32971180D01*
X5905548Y32971181D01*
X5911211Y32972844D01*
X5916460Y32975550D01*
X6092920Y33066522D01*
X6092923Y33066524D01*
X6098170Y33069229D01*
X6193836Y33144461D01*
X6258864Y33195599D01*
X6258866Y33195601D01*
X6263510Y33199253D01*
X6401255Y33358219D01*
X6506426Y33540381D01*
X6575222Y33739154D01*
X6605157Y33947355D01*
X6595148Y34157459D01*
X6545558Y34361871D01*
X6458179Y34553205D01*
X6336169Y34724544D01*
X6183937Y34869697D01*
X6006986Y34983416D01*
X5811712Y35061593D01*
X5605171Y35101400D01*
X5447532Y35101400D01*
X5290611Y35086416D01*
X5088789Y35027156D01*
X4901830Y34930771D01*
X4736490Y34800747D01*
X4732621Y34796282D01*
X4633500Y34681890D01*
X4598745Y34641781D01*
X4493574Y34459619D01*
X4491641Y34454035D01*
X4491639Y34454030D01*
X4426709Y34266427D01*
X4426707Y34266421D01*
X4424778Y34260846D01*
X4423938Y34255007D01*
X4423937Y34255001D01*
X4395682Y34058484D01*
X4395681Y34058478D01*
X4394843Y34052645D01*
X1966254Y34052645D01*
X1949967Y34280363D01*
X1890219Y34555018D01*
X1791992Y34818375D01*
X1657285Y35065073D01*
X1488841Y35290088D01*
X1290088Y35488841D01*
X1065073Y35657285D01*
X818375Y35791992D01*
X555018Y35890219D01*
X280363Y35949967D01*
X70175Y35965000D01*
X-70175Y35965000D01*
X-280363Y35949967D01*
X-555018Y35890219D01*
X-818375Y35791992D01*
X-1065073Y35657285D01*
X-1290088Y35488841D01*
X-1488841Y35290088D01*
X-1657285Y35065073D01*
X-1791992Y34818375D01*
X-1890219Y34555018D01*
X-1949967Y34280363D01*
X-1970019Y34000000D01*
X-2266500Y34000000D01*
X-2266500Y35807400D01*
X-2257061Y35854853D01*
X-2236083Y35886248D01*
X-2236739Y35886739D01*
X-2154426Y35996695D01*
X-2154423Y35996698D01*
X-2149111Y36003796D01*
X-2146013Y36012099D01*
X-2146011Y36012105D01*
X-2100719Y36133536D01*
X-2100717Y36133543D01*
X-2098011Y36140799D01*
X-2097182Y36148500D01*
X-2097182Y36148505D01*
X-2091853Y36198075D01*
X-2091852Y36198082D01*
X-2091500Y36201362D01*
X-2091500Y36998638D01*
X-2098011Y37059201D01*
X-2100717Y37066458D01*
X-2100719Y37066463D01*
X-2146011Y37187894D01*
X-2146012Y37187896D01*
X-2149111Y37196204D01*
X-2154426Y37203304D01*
X-2231426Y37306164D01*
X-2236739Y37313261D01*
X-2353796Y37400889D01*
X-2490799Y37451989D01*
X-2551362Y37458500D01*
X-3248638Y37458500D01*
X-3309201Y37451989D01*
X-3446204Y37400889D01*
X-3468189Y37384431D01*
X-3531447Y37360192D01*
X-3598004Y37372814D01*
X-3647995Y37418531D01*
X-3666500Y37483698D01*
X-3666500Y38017500D01*
X-3649887Y38079500D01*
X-3604500Y38124887D01*
X-3542500Y38141500D01*
X-1929672Y38141500D01*
X-1926362Y38141500D01*
X-1923082Y38141852D01*
X-1923075Y38141853D01*
X-1873505Y38147182D01*
X-1873500Y38147182D01*
X-1865799Y38148011D01*
X-1858543Y38150717D01*
X-1858536Y38150719D01*
X-1737105Y38196011D01*
X-1737099Y38196013D01*
X-1728796Y38199111D01*
X-1721698Y38204423D01*
X-1721695Y38204426D01*
X-1618835Y38281426D01*
X-1618831Y38281429D01*
X-1611739Y38286739D01*
X-1606429Y38293831D01*
X-1606426Y38293835D01*
X-1529426Y38396695D01*
X-1529423Y38396698D01*
X-1524111Y38403796D01*
X-1521013Y38412099D01*
X-1521011Y38412105D01*
X-1475719Y38533536D01*
X-1475717Y38533543D01*
X-1473011Y38540799D01*
X-1472182Y38548500D01*
X-1472182Y38548505D01*
X-1466853Y38598075D01*
X-1466852Y38598082D01*
X-1466500Y38601362D01*
X-1466500Y38640954D01*
X-1452561Y38698074D01*
X-1413876Y38742351D01*
X-1359145Y38763832D01*
X-1300671Y38757686D01*
X-1251601Y38725295D01*
X-1193981Y38663195D01*
X-988857Y38499614D01*
X-894216Y38444973D01*
X-765664Y38370753D01*
X-765658Y38370750D01*
X-761643Y38368432D01*
X-757324Y38366737D01*
X-757318Y38366734D01*
X-521738Y38274276D01*
X-521734Y38274275D01*
X-517416Y38272580D01*
X-512893Y38271547D01*
X-512891Y38271547D01*
X-266149Y38215229D01*
X-266143Y38215228D01*
X-261630Y38214198D01*
X-257008Y38213851D01*
X-257004Y38213851D01*
X-67808Y38199673D01*
X-67797Y38199672D01*
X-65494Y38199500D01*
X63177Y38199500D01*
X65494Y38199500D01*
X67797Y38199672D01*
X67808Y38199673D01*
X257004Y38213851D01*
X257008Y38213851D01*
X261630Y38214198D01*
X266143Y38215228D01*
X266149Y38215229D01*
X512891Y38271547D01*
X512893Y38271547D01*
X517416Y38272580D01*
X521734Y38274275D01*
X521738Y38274276D01*
X757318Y38366734D01*
X757324Y38366737D01*
X761643Y38368432D01*
X765658Y38370750D01*
X765664Y38370753D01*
X894216Y38444973D01*
X988857Y38499614D01*
X1193981Y38663195D01*
X1372433Y38855521D01*
X1520228Y39072296D01*
X1634063Y39308677D01*
X1641648Y39333265D01*
X1674346Y39439273D01*
X1711396Y39559385D01*
X1750500Y39818818D01*
X1750500Y40081182D01*
X1711396Y40340615D01*
X1634063Y40591323D01*
X1520228Y40827704D01*
X1404362Y40997648D01*
X1383011Y41060547D01*
X1397186Y41125441D01*
X1442819Y41173709D01*
X1506816Y41191500D01*
X3886234Y41191500D01*
X3933687Y41182061D01*
G37*
%TD.AperFunction*%
M02*
