%TF.GenerationSoftware,KiCad,Pcbnew,(7.0.0-0)*%
%TF.CreationDate,2023-02-22T17:53:04+08:00*%
%TF.ProjectId,thumb,7468756d-622e-46b6-9963-61645f706362,v1.0.0*%
%TF.SameCoordinates,Original*%
%TF.FileFunction,Copper,L1,Top*%
%TF.FilePolarity,Positive*%
%FSLAX46Y46*%
G04 Gerber Fmt 4.6, Leading zero omitted, Abs format (unit mm)*
G04 Created by KiCad (PCBNEW (7.0.0-0)) date 2023-02-22 17:53:04*
%MOMM*%
%LPD*%
G01*
G04 APERTURE LIST*
%TA.AperFunction,ComponentPad*%
%ADD10C,0.600000*%
%TD*%
%TA.AperFunction,Conductor*%
%ADD11C,0.250000*%
%TD*%
G04 APERTURE END LIST*
D10*
%TO.P,S1,3*%
%TO.N,C5R0D*%
X21275000Y28050000D03*
%TO.P,S1,4*%
%TO.N,C5*%
X9725000Y30250000D03*
%TD*%
%TO.P,S2,3*%
%TO.N,C5R1D*%
X21275000Y11050000D03*
%TO.P,S2,4*%
%TO.N,C5*%
X9725000Y13250000D03*
%TD*%
%TO.P,S3,3*%
%TO.N,C5R2D*%
X21275000Y-5950000D03*
%TO.P,S3,4*%
%TO.N,C5*%
X9725000Y-3750000D03*
%TD*%
%TO.P,S4,3*%
%TO.N,C6R0D*%
X-3275000Y39950000D03*
%TO.P,S4,4*%
%TO.N,C6*%
X8275000Y37750000D03*
%TD*%
%TO.P,S5,3*%
%TO.N,C6R1D*%
X-3275000Y22950000D03*
%TO.P,S5,4*%
%TO.N,C6*%
X8275000Y20750000D03*
%TD*%
%TO.P,S6,3*%
%TO.N,C6R2D*%
X-3275000Y5950000D03*
%TO.P,S6,4*%
%TO.N,C6*%
X8275000Y3750000D03*
%TD*%
D11*
%TO.N,C5*%
X11200000Y-200000D02*
X11200000Y11775000D01*
X9725000Y-1675000D02*
X11200000Y-200000D01*
X11200000Y11775000D02*
X9725000Y13250000D01*
X9725000Y13250000D02*
X9725000Y30250000D01*
X9725000Y-3750000D02*
X9725000Y-1675000D01*
%TO.N,C6*%
X7525000Y21500000D02*
X8275000Y20750000D01*
X8275000Y20750000D02*
X8275000Y3750000D01*
X8275000Y37750000D02*
X7525000Y37000000D01*
X7525000Y37000000D02*
X7525000Y21500000D01*
%TD*%
%TA.AperFunction,NonConductor*%
G36*
X25504854Y42424118D02*
G01*
X25713113Y42407727D01*
X25732331Y42404683D01*
X25930705Y42357058D01*
X25949211Y42351045D01*
X26137694Y42272972D01*
X26155031Y42264139D01*
X26328981Y42157543D01*
X26344722Y42146106D01*
X26499859Y42013606D01*
X26513606Y41999859D01*
X26641029Y41850665D01*
X26646106Y41844722D01*
X26657543Y41828981D01*
X26764139Y41655031D01*
X26772972Y41637694D01*
X26851045Y41449211D01*
X26857058Y41430705D01*
X26904683Y41232331D01*
X26907727Y41213113D01*
X26924118Y41004854D01*
X26924500Y40995125D01*
X26924500Y-6995125D01*
X26924118Y-7004854D01*
X26907727Y-7213113D01*
X26904683Y-7232331D01*
X26857058Y-7430705D01*
X26851045Y-7449211D01*
X26772972Y-7637694D01*
X26764139Y-7655031D01*
X26657543Y-7828981D01*
X26646105Y-7844722D01*
X26513606Y-7999859D01*
X26499859Y-8013606D01*
X26350665Y-8141029D01*
X26344722Y-8146106D01*
X26328981Y-8157543D01*
X26155031Y-8264139D01*
X26137694Y-8272972D01*
X25949211Y-8351045D01*
X25930705Y-8357058D01*
X25732331Y-8404683D01*
X25713113Y-8407727D01*
X25504854Y-8424118D01*
X25495125Y-8424500D01*
X-7495125Y-8424500D01*
X-7504854Y-8424118D01*
X-7713113Y-8407727D01*
X-7732331Y-8404683D01*
X-7930705Y-8357058D01*
X-7949211Y-8351045D01*
X-8137694Y-8272972D01*
X-8155031Y-8264138D01*
X-8328977Y-8157543D01*
X-8344719Y-8146106D01*
X-8499852Y-8013610D01*
X-8513610Y-7999852D01*
X-8646106Y-7844719D01*
X-8657543Y-7828977D01*
X-8764138Y-7655031D01*
X-8772972Y-7637694D01*
X-8851045Y-7449211D01*
X-8857058Y-7430705D01*
X-8904683Y-7232331D01*
X-8907727Y-7213113D01*
X-8924118Y-7004854D01*
X-8924500Y-6995125D01*
X-8924500Y-6081182D01*
X16249500Y-6081182D01*
X16250189Y-6085754D01*
X16250190Y-6085765D01*
X16287912Y-6336028D01*
X16287913Y-6336035D01*
X16288604Y-6340615D01*
X16289969Y-6345043D01*
X16289971Y-6345048D01*
X16364569Y-6586891D01*
X16364573Y-6586901D01*
X16365937Y-6591323D01*
X16367946Y-6595496D01*
X16367949Y-6595502D01*
X16437977Y-6740916D01*
X16479772Y-6827704D01*
X16627567Y-7044479D01*
X16806019Y-7236805D01*
X17011143Y-7400386D01*
X17238357Y-7531568D01*
X17482584Y-7627420D01*
X17738370Y-7685802D01*
X17934506Y-7700500D01*
X18063177Y-7700500D01*
X18065494Y-7700500D01*
X18261630Y-7685802D01*
X18517416Y-7627420D01*
X18761643Y-7531568D01*
X18988857Y-7400386D01*
X19193981Y-7236805D01*
X19372433Y-7044479D01*
X19520228Y-6827704D01*
X19634063Y-6591323D01*
X19711396Y-6340615D01*
X19750500Y-6081182D01*
X19750500Y-5950000D01*
X20461384Y-5950000D01*
X20462164Y-5956923D01*
X20481002Y-6124123D01*
X20481003Y-6124130D01*
X20481783Y-6131047D01*
X20541957Y-6303015D01*
X20638889Y-6457281D01*
X20767719Y-6586111D01*
X20921985Y-6683043D01*
X21093953Y-6743217D01*
X21275000Y-6763616D01*
X21456047Y-6743217D01*
X21628015Y-6683043D01*
X21782281Y-6586111D01*
X21911111Y-6457281D01*
X22008043Y-6303015D01*
X22068217Y-6131047D01*
X22088616Y-5950000D01*
X22068217Y-5768953D01*
X22008043Y-5596985D01*
X21911111Y-5442719D01*
X21782281Y-5313889D01*
X21628015Y-5216957D01*
X21621449Y-5214659D01*
X21621446Y-5214658D01*
X21462621Y-5159083D01*
X21462618Y-5159082D01*
X21456047Y-5156783D01*
X21449130Y-5156003D01*
X21449123Y-5156002D01*
X21281923Y-5137164D01*
X21275000Y-5136384D01*
X21268077Y-5137164D01*
X21100876Y-5156002D01*
X21100867Y-5156003D01*
X21093953Y-5156783D01*
X21087383Y-5159081D01*
X21087378Y-5159083D01*
X20928553Y-5214658D01*
X20928547Y-5214660D01*
X20921985Y-5216957D01*
X20916097Y-5220656D01*
X20916092Y-5220659D01*
X20773619Y-5310181D01*
X20773614Y-5310184D01*
X20767719Y-5313889D01*
X20762794Y-5318813D01*
X20762790Y-5318817D01*
X20643817Y-5437790D01*
X20643813Y-5437794D01*
X20638889Y-5442719D01*
X20635184Y-5448614D01*
X20635181Y-5448619D01*
X20545659Y-5591092D01*
X20545656Y-5591097D01*
X20541957Y-5596985D01*
X20539660Y-5603547D01*
X20539658Y-5603553D01*
X20484083Y-5762378D01*
X20484081Y-5762383D01*
X20481783Y-5768953D01*
X20481003Y-5775867D01*
X20481002Y-5775876D01*
X20475642Y-5823453D01*
X20461384Y-5950000D01*
X19750500Y-5950000D01*
X19750500Y-5818818D01*
X19711396Y-5559385D01*
X19667333Y-5416537D01*
X19635430Y-5313108D01*
X19635428Y-5313105D01*
X19634063Y-5308677D01*
X19520228Y-5072296D01*
X19372433Y-4855521D01*
X19193981Y-4663195D01*
X18988857Y-4499614D01*
X18808530Y-4395502D01*
X18765664Y-4370753D01*
X18765658Y-4370750D01*
X18761643Y-4368432D01*
X18757324Y-4366737D01*
X18757318Y-4366734D01*
X18521738Y-4274276D01*
X18521734Y-4274275D01*
X18517416Y-4272580D01*
X18512893Y-4271547D01*
X18512891Y-4271547D01*
X18266149Y-4215229D01*
X18266143Y-4215228D01*
X18261630Y-4214198D01*
X18257008Y-4213851D01*
X18257004Y-4213851D01*
X18067808Y-4199673D01*
X18067797Y-4199672D01*
X18065494Y-4199500D01*
X17934506Y-4199500D01*
X17932203Y-4199672D01*
X17932191Y-4199673D01*
X17742995Y-4213851D01*
X17742989Y-4213851D01*
X17738370Y-4214198D01*
X17733858Y-4215227D01*
X17733850Y-4215229D01*
X17487108Y-4271547D01*
X17487102Y-4271548D01*
X17482584Y-4272580D01*
X17478268Y-4274273D01*
X17478261Y-4274276D01*
X17242681Y-4366734D01*
X17242670Y-4366739D01*
X17238357Y-4368432D01*
X17234346Y-4370747D01*
X17234335Y-4370753D01*
X17015161Y-4497294D01*
X17011143Y-4499614D01*
X17007519Y-4502503D01*
X17007516Y-4502506D01*
X16809646Y-4660302D01*
X16809641Y-4660306D01*
X16806019Y-4663195D01*
X16802865Y-4666593D01*
X16802863Y-4666596D01*
X16630719Y-4852123D01*
X16630713Y-4852129D01*
X16627567Y-4855521D01*
X16624957Y-4859348D01*
X16624957Y-4859349D01*
X16501998Y-5039697D01*
X16479772Y-5072296D01*
X16477759Y-5076474D01*
X16477756Y-5076481D01*
X16367949Y-5304497D01*
X16367944Y-5304508D01*
X16365937Y-5308677D01*
X16364574Y-5313093D01*
X16364569Y-5313108D01*
X16289971Y-5554951D01*
X16289968Y-5554959D01*
X16288604Y-5559385D01*
X16287914Y-5563961D01*
X16287912Y-5563971D01*
X16250190Y-5814234D01*
X16250189Y-5814246D01*
X16249500Y-5818818D01*
X16249500Y-6081182D01*
X-8924500Y-6081182D01*
X-8924500Y52645D01*
X-6605157Y52645D01*
X-6595148Y-157459D01*
X-6545558Y-361871D01*
X-6458179Y-553205D01*
X-6336169Y-724544D01*
X-6183937Y-869697D01*
X-6006986Y-983416D01*
X-5811712Y-1061593D01*
X-5605171Y-1101400D01*
X-5450486Y-1101400D01*
X-5447532Y-1101400D01*
X-5290611Y-1086416D01*
X-5088789Y-1027156D01*
X-4901830Y-930771D01*
X-4736490Y-800747D01*
X-4705539Y-765028D01*
X-4602611Y-646243D01*
X-4602609Y-646240D01*
X-4598745Y-641781D01*
X-4493574Y-459619D01*
X-4491641Y-454035D01*
X-4491639Y-454030D01*
X-4426709Y-266427D01*
X-4426707Y-266421D01*
X-4424778Y-260846D01*
X-4423938Y-255007D01*
X-4423937Y-255001D01*
X-4395682Y-58484D01*
X-4395681Y-58478D01*
X-4394843Y-52645D01*
X-4395123Y-46760D01*
X-4395123Y-46753D01*
X-4397350Y0D01*
X-1970019Y0D01*
X-1949967Y-280363D01*
X-1890219Y-555018D01*
X-1791992Y-818375D01*
X-1657285Y-1065073D01*
X-1488841Y-1290088D01*
X-1290088Y-1488841D01*
X-1065073Y-1657285D01*
X-818375Y-1791992D01*
X-555018Y-1890219D01*
X-280363Y-1949967D01*
X-70175Y-1965000D01*
X67960Y-1965000D01*
X70175Y-1965000D01*
X280363Y-1949967D01*
X555018Y-1890219D01*
X818375Y-1791992D01*
X1065073Y-1657285D01*
X1290088Y-1488841D01*
X1488841Y-1290088D01*
X1657285Y-1065073D01*
X1791992Y-818375D01*
X1890219Y-555018D01*
X1949967Y-280363D01*
X1970019Y0D01*
X1966254Y52645D01*
X4394843Y52645D01*
X4395123Y46760D01*
X4395123Y46753D01*
X4400137Y-58484D01*
X4404852Y-157459D01*
X4423762Y-235408D01*
X4429933Y-260846D01*
X4454442Y-361871D01*
X4456895Y-367242D01*
X4456897Y-367248D01*
X4539363Y-547824D01*
X4539365Y-547828D01*
X4541821Y-553205D01*
X4545250Y-558020D01*
X4545251Y-558022D01*
X4644506Y-697406D01*
X4663831Y-724544D01*
X4816063Y-869697D01*
X4993014Y-983416D01*
X5188288Y-1061593D01*
X5394829Y-1101400D01*
X5549514Y-1101400D01*
X5552468Y-1101400D01*
X5709389Y-1086416D01*
X5911211Y-1027156D01*
X6098170Y-930771D01*
X6263510Y-800747D01*
X6401255Y-641781D01*
X6506426Y-459619D01*
X6575222Y-260846D01*
X6605157Y-52645D01*
X6595148Y157459D01*
X6545558Y361871D01*
X6458179Y553205D01*
X6336169Y724544D01*
X6183937Y869697D01*
X6006986Y983416D01*
X5811712Y1061593D01*
X5605171Y1101400D01*
X5447532Y1101400D01*
X5290611Y1086416D01*
X5088789Y1027156D01*
X4901830Y930771D01*
X4736490Y800747D01*
X4732621Y796282D01*
X4629982Y677830D01*
X4598745Y641781D01*
X4493574Y459619D01*
X4491641Y454035D01*
X4491639Y454030D01*
X4426709Y266427D01*
X4426707Y266421D01*
X4424778Y260846D01*
X4423938Y255007D01*
X4423937Y255001D01*
X4395682Y58484D01*
X4395681Y58478D01*
X4394843Y52645D01*
X1966254Y52645D01*
X1949967Y280363D01*
X1890219Y555018D01*
X1791992Y818375D01*
X1657285Y1065073D01*
X1488841Y1290088D01*
X1290088Y1488841D01*
X1065073Y1657285D01*
X818375Y1791992D01*
X555018Y1890219D01*
X280363Y1949967D01*
X70175Y1965000D01*
X-70175Y1965000D01*
X-280363Y1949967D01*
X-555018Y1890219D01*
X-818375Y1791992D01*
X-1065073Y1657285D01*
X-1290088Y1488841D01*
X-1488841Y1290088D01*
X-1657285Y1065073D01*
X-1791992Y818375D01*
X-1890219Y555018D01*
X-1949967Y280363D01*
X-1970019Y0D01*
X-4397350Y0D01*
X-4404571Y151561D01*
X-4404852Y157459D01*
X-4428828Y256291D01*
X-4453049Y356130D01*
X-4453049Y356132D01*
X-4454442Y361871D01*
X-4456895Y367242D01*
X-4456897Y367248D01*
X-4539363Y547824D01*
X-4539365Y547828D01*
X-4541821Y553205D01*
X-4663831Y724544D01*
X-4816063Y869697D01*
X-4993014Y983416D01*
X-5188288Y1061593D01*
X-5394829Y1101400D01*
X-5552468Y1101400D01*
X-5709389Y1086416D01*
X-5911211Y1027156D01*
X-6098170Y930771D01*
X-6263510Y800747D01*
X-6401255Y641781D01*
X-6506426Y459619D01*
X-6575222Y260846D01*
X-6605157Y52645D01*
X-8924500Y52645D01*
X-8924500Y3618818D01*
X3249500Y3618818D01*
X3250189Y3614246D01*
X3250190Y3614234D01*
X3287912Y3363971D01*
X3287914Y3363961D01*
X3288604Y3359385D01*
X3289968Y3354959D01*
X3289971Y3354951D01*
X3364569Y3113108D01*
X3364574Y3113093D01*
X3365937Y3108677D01*
X3367944Y3104508D01*
X3367949Y3104497D01*
X3477756Y2876481D01*
X3477759Y2876474D01*
X3479772Y2872296D01*
X3627567Y2655521D01*
X3630713Y2652129D01*
X3630719Y2652123D01*
X3802863Y2466596D01*
X3806019Y2463195D01*
X3809641Y2460306D01*
X3809646Y2460302D01*
X4007516Y2302506D01*
X4007519Y2302503D01*
X4011143Y2299614D01*
X4015159Y2297295D01*
X4015161Y2297294D01*
X4234335Y2170753D01*
X4234346Y2170747D01*
X4238357Y2168432D01*
X4242670Y2166739D01*
X4242681Y2166734D01*
X4478261Y2074276D01*
X4478268Y2074273D01*
X4482584Y2072580D01*
X4487102Y2071548D01*
X4487108Y2071547D01*
X4733850Y2015229D01*
X4733858Y2015227D01*
X4738370Y2014198D01*
X4742989Y2013851D01*
X4742995Y2013851D01*
X4932191Y1999673D01*
X4932203Y1999672D01*
X4934506Y1999500D01*
X5063177Y1999500D01*
X5065494Y1999500D01*
X5067797Y1999672D01*
X5067808Y1999673D01*
X5257004Y2013851D01*
X5257008Y2013851D01*
X5261630Y2014198D01*
X5266143Y2015228D01*
X5266149Y2015229D01*
X5512891Y2071547D01*
X5512893Y2071547D01*
X5517416Y2072580D01*
X5521734Y2074275D01*
X5521738Y2074276D01*
X5757318Y2166734D01*
X5757324Y2166737D01*
X5761643Y2168432D01*
X5765658Y2170750D01*
X5765664Y2170753D01*
X5894216Y2244973D01*
X5988857Y2299614D01*
X6193981Y2463195D01*
X6372433Y2655521D01*
X6520228Y2872296D01*
X6634063Y3108677D01*
X6711396Y3359385D01*
X6750500Y3618818D01*
X6750500Y3881182D01*
X6711396Y4140615D01*
X6634063Y4391323D01*
X6520228Y4627704D01*
X6372433Y4844479D01*
X6193981Y5036805D01*
X5988857Y5200386D01*
X5761643Y5331568D01*
X5517416Y5427420D01*
X5261630Y5485802D01*
X5065494Y5500500D01*
X4934506Y5500500D01*
X4738370Y5485802D01*
X4482584Y5427420D01*
X4238357Y5331568D01*
X4011143Y5200386D01*
X3806019Y5036805D01*
X3627567Y4844479D01*
X3479772Y4627704D01*
X3365937Y4391323D01*
X3364573Y4386901D01*
X3364569Y4386891D01*
X3289971Y4145048D01*
X3288604Y4140615D01*
X3287913Y4136035D01*
X3287912Y4136028D01*
X3250190Y3885765D01*
X3250189Y3885754D01*
X3249500Y3881182D01*
X3249500Y3618818D01*
X-8924500Y3618818D01*
X-8924500Y5950000D01*
X-4088616Y5950000D01*
X-4068217Y5768953D01*
X-4008043Y5596985D01*
X-3911111Y5442719D01*
X-3782281Y5313889D01*
X-3628015Y5216957D01*
X-3621449Y5214659D01*
X-3621446Y5214658D01*
X-3462621Y5159083D01*
X-3462618Y5159082D01*
X-3456047Y5156783D01*
X-3449130Y5156003D01*
X-3449123Y5156002D01*
X-3281923Y5137164D01*
X-3275000Y5136384D01*
X-3268077Y5137164D01*
X-3100876Y5156002D01*
X-3100867Y5156003D01*
X-3093953Y5156783D01*
X-3087383Y5159081D01*
X-3087378Y5159083D01*
X-2928553Y5214658D01*
X-2928547Y5214660D01*
X-2921985Y5216957D01*
X-2916097Y5220656D01*
X-2916092Y5220659D01*
X-2773619Y5310181D01*
X-2773614Y5310184D01*
X-2767719Y5313889D01*
X-2762794Y5318813D01*
X-2762790Y5318817D01*
X-2643817Y5437790D01*
X-2643813Y5437794D01*
X-2638889Y5442719D01*
X-2635184Y5448614D01*
X-2635181Y5448619D01*
X-2545659Y5591092D01*
X-2545656Y5591097D01*
X-2541957Y5596985D01*
X-2539660Y5603547D01*
X-2539658Y5603553D01*
X-2484083Y5762378D01*
X-2484081Y5762383D01*
X-2481783Y5768953D01*
X-2481003Y5775867D01*
X-2481002Y5775876D01*
X-2476164Y5818818D01*
X-1750500Y5818818D01*
X-1711396Y5559385D01*
X-1710028Y5554951D01*
X-1641648Y5333265D01*
X-1634063Y5308677D01*
X-1520228Y5072296D01*
X-1372433Y4855521D01*
X-1193981Y4663195D01*
X-988857Y4499614D01*
X-894216Y4444973D01*
X-765664Y4370753D01*
X-765658Y4370750D01*
X-761643Y4368432D01*
X-757324Y4366737D01*
X-757318Y4366734D01*
X-521738Y4274276D01*
X-521734Y4274275D01*
X-517416Y4272580D01*
X-512893Y4271547D01*
X-512891Y4271547D01*
X-266149Y4215229D01*
X-266143Y4215228D01*
X-261630Y4214198D01*
X-257008Y4213851D01*
X-257004Y4213851D01*
X-67808Y4199673D01*
X-67797Y4199672D01*
X-65494Y4199500D01*
X63177Y4199500D01*
X65494Y4199500D01*
X67797Y4199672D01*
X67808Y4199673D01*
X257004Y4213851D01*
X257008Y4213851D01*
X261630Y4214198D01*
X266143Y4215228D01*
X266149Y4215229D01*
X512891Y4271547D01*
X512893Y4271547D01*
X517416Y4272580D01*
X521734Y4274275D01*
X521738Y4274276D01*
X757318Y4366734D01*
X757324Y4366737D01*
X761643Y4368432D01*
X765658Y4370750D01*
X765664Y4370753D01*
X894216Y4444973D01*
X988857Y4499614D01*
X1193981Y4663195D01*
X1372433Y4855521D01*
X1520228Y5072296D01*
X1634063Y5308677D01*
X1641648Y5333265D01*
X1710028Y5554951D01*
X1711396Y5559385D01*
X1750500Y5818818D01*
X1750500Y6081182D01*
X1711396Y6340615D01*
X1634063Y6591323D01*
X1520228Y6827704D01*
X1372433Y7044479D01*
X1193981Y7236805D01*
X988857Y7400386D01*
X761643Y7531568D01*
X517416Y7627420D01*
X261630Y7685802D01*
X65494Y7700500D01*
X-65494Y7700500D01*
X-261630Y7685802D01*
X-517416Y7627420D01*
X-761643Y7531568D01*
X-988857Y7400386D01*
X-1193981Y7236805D01*
X-1372433Y7044479D01*
X-1520228Y6827704D01*
X-1634063Y6591323D01*
X-1711396Y6340615D01*
X-1750500Y6081182D01*
X-1750500Y5818818D01*
X-2476164Y5818818D01*
X-2462164Y5943077D01*
X-2461384Y5950000D01*
X-2475642Y6076547D01*
X-2481002Y6124123D01*
X-2481003Y6124130D01*
X-2481783Y6131047D01*
X-2541957Y6303015D01*
X-2638889Y6457281D01*
X-2767719Y6586111D01*
X-2921985Y6683043D01*
X-3093953Y6743217D01*
X-3275000Y6763616D01*
X-3456047Y6743217D01*
X-3628015Y6683043D01*
X-3782281Y6586111D01*
X-3911111Y6457281D01*
X-4008043Y6303015D01*
X-4068217Y6131047D01*
X-4088616Y5950000D01*
X-8924500Y5950000D01*
X-8924500Y17052645D01*
X-6605157Y17052645D01*
X-6595148Y16842541D01*
X-6545558Y16638129D01*
X-6543102Y16632751D01*
X-6498580Y16535260D01*
X-6458179Y16446795D01*
X-6336169Y16275456D01*
X-6183937Y16130303D01*
X-6006986Y16016584D01*
X-5811712Y15938407D01*
X-5805908Y15937288D01*
X-5805907Y15937288D01*
X-5610968Y15899717D01*
X-5610965Y15899716D01*
X-5605171Y15898600D01*
X-5450486Y15898600D01*
X-5447532Y15898600D01*
X-5444603Y15898879D01*
X-5444596Y15898880D01*
X-5296491Y15913022D01*
X-5296485Y15913023D01*
X-5290611Y15913584D01*
X-5284943Y15915248D01*
X-5284939Y15915249D01*
X-5094454Y15971180D01*
X-5094448Y15971182D01*
X-5088789Y15972844D01*
X-5083544Y15975547D01*
X-5083539Y15975550D01*
X-4907079Y16066522D01*
X-4907071Y16066526D01*
X-4901830Y16069229D01*
X-4897187Y16072880D01*
X-4741135Y16195599D01*
X-4741128Y16195605D01*
X-4736490Y16199253D01*
X-4732626Y16203711D01*
X-4732621Y16203717D01*
X-4602611Y16353756D01*
X-4602605Y16353763D01*
X-4598745Y16358219D01*
X-4548652Y16444982D01*
X-4496530Y16535260D01*
X-4496527Y16535264D01*
X-4493574Y16540381D01*
X-4491643Y16545960D01*
X-4491639Y16545969D01*
X-4426709Y16733572D01*
X-4426706Y16733581D01*
X-4424778Y16739154D01*
X-4423938Y16744990D01*
X-4423937Y16744998D01*
X-4395682Y16941515D01*
X-4395681Y16941521D01*
X-4394843Y16947355D01*
X-4395123Y16953239D01*
X-4395123Y16953246D01*
X-4397350Y17000000D01*
X-1970019Y17000000D01*
X-1949967Y16719637D01*
X-1890219Y16444982D01*
X-1791992Y16181625D01*
X-1657285Y15934927D01*
X-1488841Y15709912D01*
X-1290088Y15511159D01*
X-1065073Y15342715D01*
X-1061179Y15340589D01*
X-1061178Y15340588D01*
X-822264Y15210131D01*
X-822257Y15210128D01*
X-818375Y15208008D01*
X-814232Y15206462D01*
X-814226Y15206460D01*
X-559161Y15111326D01*
X-559157Y15111325D01*
X-555018Y15109781D01*
X-550692Y15108840D01*
X-284696Y15050975D01*
X-284687Y15050973D01*
X-280363Y15050033D01*
X-275949Y15049717D01*
X-275940Y15049716D01*
X-72385Y15035158D01*
X-72383Y15035157D01*
X-70175Y15035000D01*
X67960Y15035000D01*
X70175Y15035000D01*
X72383Y15035157D01*
X72385Y15035158D01*
X275940Y15049716D01*
X275949Y15049717D01*
X280363Y15050033D01*
X284687Y15050973D01*
X284696Y15050975D01*
X550692Y15108840D01*
X555018Y15109781D01*
X559157Y15111325D01*
X559161Y15111326D01*
X814226Y15206460D01*
X814232Y15206462D01*
X818375Y15208008D01*
X822257Y15210128D01*
X822264Y15210131D01*
X1061178Y15340588D01*
X1061179Y15340589D01*
X1065073Y15342715D01*
X1290088Y15511159D01*
X1488841Y15709912D01*
X1657285Y15934927D01*
X1791992Y16181625D01*
X1890219Y16444982D01*
X1949967Y16719637D01*
X1970019Y17000000D01*
X1966254Y17052645D01*
X4394843Y17052645D01*
X4395123Y17046760D01*
X4395123Y17046753D01*
X4400137Y16941515D01*
X4404852Y16842541D01*
X4406243Y16836803D01*
X4406244Y16836803D01*
X4435719Y16715303D01*
X4454442Y16638129D01*
X4456893Y16632760D01*
X4456897Y16632751D01*
X4539363Y16452175D01*
X4539367Y16452166D01*
X4541821Y16446795D01*
X4545247Y16441983D01*
X4545251Y16441977D01*
X4660400Y16280273D01*
X4660404Y16280267D01*
X4663831Y16275456D01*
X4668104Y16271381D01*
X4668109Y16271376D01*
X4811791Y16134376D01*
X4816063Y16130303D01*
X4821026Y16127113D01*
X4821028Y16127112D01*
X4988043Y16019778D01*
X4988048Y16019775D01*
X4993014Y16016584D01*
X4998498Y16014388D01*
X4998501Y16014387D01*
X5182799Y15940604D01*
X5182803Y15940602D01*
X5188288Y15938407D01*
X5194088Y15937289D01*
X5194092Y15937288D01*
X5389031Y15899717D01*
X5389035Y15899716D01*
X5394829Y15898600D01*
X5549514Y15898600D01*
X5552468Y15898600D01*
X5555397Y15898879D01*
X5555403Y15898880D01*
X5703508Y15913022D01*
X5703512Y15913022D01*
X5709389Y15913584D01*
X5715058Y15915248D01*
X5715060Y15915249D01*
X5905545Y15971180D01*
X5905548Y15971181D01*
X5911211Y15972844D01*
X5916460Y15975550D01*
X6092920Y16066522D01*
X6092923Y16066524D01*
X6098170Y16069229D01*
X6193723Y16144372D01*
X6258864Y16195599D01*
X6258866Y16195601D01*
X6263510Y16199253D01*
X6401255Y16358219D01*
X6506426Y16540381D01*
X6575222Y16739154D01*
X6605157Y16947355D01*
X6595148Y17157459D01*
X6545558Y17361871D01*
X6458179Y17553205D01*
X6336169Y17724544D01*
X6183937Y17869697D01*
X6006986Y17983416D01*
X5811712Y18061593D01*
X5605171Y18101400D01*
X5447532Y18101400D01*
X5290611Y18086416D01*
X5088789Y18027156D01*
X4901830Y17930771D01*
X4736490Y17800747D01*
X4732621Y17796282D01*
X4670460Y17724544D01*
X4598745Y17641781D01*
X4493574Y17459619D01*
X4491641Y17454035D01*
X4491639Y17454030D01*
X4426709Y17266427D01*
X4426707Y17266421D01*
X4424778Y17260846D01*
X4423938Y17255007D01*
X4423937Y17255001D01*
X4395682Y17058484D01*
X4395681Y17058478D01*
X4394843Y17052645D01*
X1966254Y17052645D01*
X1949967Y17280363D01*
X1890219Y17555018D01*
X1791992Y17818375D01*
X1657285Y18065073D01*
X1488841Y18290088D01*
X1290088Y18488841D01*
X1065073Y18657285D01*
X818375Y18791992D01*
X555018Y18890219D01*
X280363Y18949967D01*
X70175Y18965000D01*
X-70175Y18965000D01*
X-280363Y18949967D01*
X-555018Y18890219D01*
X-818375Y18791992D01*
X-1065073Y18657285D01*
X-1290088Y18488841D01*
X-1488841Y18290088D01*
X-1657285Y18065073D01*
X-1791992Y17818375D01*
X-1890219Y17555018D01*
X-1949967Y17280363D01*
X-1970019Y17000000D01*
X-4397350Y17000000D01*
X-4404571Y17151561D01*
X-4404852Y17157459D01*
X-4428516Y17255001D01*
X-4453049Y17356130D01*
X-4453049Y17356132D01*
X-4454442Y17361871D01*
X-4456895Y17367242D01*
X-4456897Y17367248D01*
X-4539363Y17547824D01*
X-4539365Y17547828D01*
X-4541821Y17553205D01*
X-4663831Y17724544D01*
X-4816063Y17869697D01*
X-4993014Y17983416D01*
X-5188288Y18061593D01*
X-5394829Y18101400D01*
X-5552468Y18101400D01*
X-5709389Y18086416D01*
X-5911211Y18027156D01*
X-6098170Y17930771D01*
X-6263510Y17800747D01*
X-6401255Y17641781D01*
X-6506426Y17459619D01*
X-6575222Y17260846D01*
X-6605157Y17052645D01*
X-8924500Y17052645D01*
X-8924500Y20618818D01*
X3249500Y20618818D01*
X3250189Y20614246D01*
X3250190Y20614234D01*
X3287912Y20363971D01*
X3287914Y20363961D01*
X3288604Y20359385D01*
X3289968Y20354959D01*
X3289971Y20354951D01*
X3364569Y20113108D01*
X3364574Y20113093D01*
X3365937Y20108677D01*
X3367944Y20104508D01*
X3367949Y20104497D01*
X3477756Y19876481D01*
X3477759Y19876474D01*
X3479772Y19872296D01*
X3627567Y19655521D01*
X3630713Y19652129D01*
X3630719Y19652123D01*
X3802863Y19466596D01*
X3806019Y19463195D01*
X3809641Y19460306D01*
X3809646Y19460302D01*
X4007516Y19302506D01*
X4007519Y19302503D01*
X4011143Y19299614D01*
X4015159Y19297295D01*
X4015161Y19297294D01*
X4234335Y19170753D01*
X4234346Y19170747D01*
X4238357Y19168432D01*
X4242670Y19166739D01*
X4242681Y19166734D01*
X4478261Y19074276D01*
X4478268Y19074273D01*
X4482584Y19072580D01*
X4487102Y19071548D01*
X4487108Y19071547D01*
X4733850Y19015229D01*
X4733858Y19015227D01*
X4738370Y19014198D01*
X4742989Y19013851D01*
X4742995Y19013851D01*
X4932191Y18999673D01*
X4932203Y18999672D01*
X4934506Y18999500D01*
X5063177Y18999500D01*
X5065494Y18999500D01*
X5067797Y18999672D01*
X5067808Y18999673D01*
X5257004Y19013851D01*
X5257008Y19013851D01*
X5261630Y19014198D01*
X5266143Y19015228D01*
X5266149Y19015229D01*
X5512891Y19071547D01*
X5512893Y19071547D01*
X5517416Y19072580D01*
X5521734Y19074275D01*
X5521738Y19074276D01*
X5757318Y19166734D01*
X5757324Y19166737D01*
X5761643Y19168432D01*
X5765658Y19170750D01*
X5765664Y19170753D01*
X5894216Y19244973D01*
X5988857Y19299614D01*
X6193981Y19463195D01*
X6372433Y19655521D01*
X6520228Y19872296D01*
X6634063Y20108677D01*
X6711396Y20359385D01*
X6750500Y20618818D01*
X6750500Y20881182D01*
X6711396Y21140615D01*
X6682406Y21234595D01*
X6681060Y21265246D01*
X6664611Y21292287D01*
X6663907Y21294569D01*
X6634063Y21391323D01*
X6520228Y21627704D01*
X6372433Y21844479D01*
X6193981Y22036805D01*
X5988857Y22200386D01*
X5761643Y22331568D01*
X5517416Y22427420D01*
X5261630Y22485802D01*
X5065494Y22500500D01*
X4934506Y22500500D01*
X4738370Y22485802D01*
X4482584Y22427420D01*
X4238357Y22331568D01*
X4011143Y22200386D01*
X3806019Y22036805D01*
X3627567Y21844479D01*
X3479772Y21627704D01*
X3477756Y21623519D01*
X3477756Y21623518D01*
X3394310Y21450240D01*
X3365937Y21391323D01*
X3364573Y21386901D01*
X3364569Y21386891D01*
X3290504Y21146776D01*
X3288604Y21140615D01*
X3287913Y21136035D01*
X3287912Y21136028D01*
X3250190Y20885765D01*
X3250189Y20885754D01*
X3249500Y20881182D01*
X3249500Y20618818D01*
X-8924500Y20618818D01*
X-8924500Y22950000D01*
X-4088616Y22950000D01*
X-4068217Y22768953D01*
X-4008043Y22596985D01*
X-3911111Y22442719D01*
X-3782281Y22313889D01*
X-3628015Y22216957D01*
X-3621449Y22214659D01*
X-3621446Y22214658D01*
X-3462621Y22159083D01*
X-3462618Y22159082D01*
X-3456047Y22156783D01*
X-3449130Y22156003D01*
X-3449123Y22156002D01*
X-3281923Y22137164D01*
X-3275000Y22136384D01*
X-3268077Y22137164D01*
X-3100876Y22156002D01*
X-3100867Y22156003D01*
X-3093953Y22156783D01*
X-3087383Y22159081D01*
X-3087378Y22159083D01*
X-2928553Y22214658D01*
X-2928547Y22214660D01*
X-2921985Y22216957D01*
X-2916097Y22220656D01*
X-2916092Y22220659D01*
X-2773619Y22310181D01*
X-2773614Y22310184D01*
X-2767719Y22313889D01*
X-2762794Y22318813D01*
X-2762790Y22318817D01*
X-2643817Y22437790D01*
X-2643813Y22437794D01*
X-2638889Y22442719D01*
X-2635184Y22448614D01*
X-2635181Y22448619D01*
X-2545659Y22591092D01*
X-2545656Y22591097D01*
X-2541957Y22596985D01*
X-2539660Y22603547D01*
X-2539658Y22603553D01*
X-2484083Y22762378D01*
X-2484081Y22762383D01*
X-2481783Y22768953D01*
X-2481003Y22775867D01*
X-2481002Y22775876D01*
X-2476164Y22818818D01*
X-1750500Y22818818D01*
X-1711396Y22559385D01*
X-1710028Y22554951D01*
X-1641648Y22333265D01*
X-1634063Y22308677D01*
X-1520228Y22072296D01*
X-1372433Y21855521D01*
X-1193981Y21663195D01*
X-988857Y21499614D01*
X-964135Y21485341D01*
X-765664Y21370753D01*
X-765658Y21370750D01*
X-761643Y21368432D01*
X-757324Y21366737D01*
X-757318Y21366734D01*
X-521738Y21274276D01*
X-521734Y21274275D01*
X-517416Y21272580D01*
X-512893Y21271547D01*
X-512891Y21271547D01*
X-266149Y21215229D01*
X-266143Y21215228D01*
X-261630Y21214198D01*
X-257008Y21213851D01*
X-257004Y21213851D01*
X-67808Y21199673D01*
X-67797Y21199672D01*
X-65494Y21199500D01*
X63177Y21199500D01*
X65494Y21199500D01*
X67797Y21199672D01*
X67808Y21199673D01*
X257004Y21213851D01*
X257008Y21213851D01*
X261630Y21214198D01*
X266143Y21215228D01*
X266149Y21215229D01*
X512891Y21271547D01*
X512893Y21271547D01*
X517416Y21272580D01*
X521734Y21274275D01*
X521738Y21274276D01*
X757318Y21366734D01*
X757324Y21366737D01*
X761643Y21368432D01*
X765658Y21370750D01*
X765664Y21370753D01*
X964135Y21485341D01*
X988857Y21499614D01*
X1193981Y21663195D01*
X1372433Y21855521D01*
X1520228Y22072296D01*
X1634063Y22308677D01*
X1641648Y22333265D01*
X1710028Y22554951D01*
X1711396Y22559385D01*
X1750500Y22818818D01*
X1750500Y23081182D01*
X1711396Y23340615D01*
X1634063Y23591323D01*
X1520228Y23827704D01*
X1372433Y24044479D01*
X1193981Y24236805D01*
X988857Y24400386D01*
X761643Y24531568D01*
X517416Y24627420D01*
X261630Y24685802D01*
X65494Y24700500D01*
X-65494Y24700500D01*
X-261630Y24685802D01*
X-517416Y24627420D01*
X-761643Y24531568D01*
X-988857Y24400386D01*
X-1193981Y24236805D01*
X-1372433Y24044479D01*
X-1520228Y23827704D01*
X-1634063Y23591323D01*
X-1711396Y23340615D01*
X-1750500Y23081182D01*
X-1750500Y22818818D01*
X-2476164Y22818818D01*
X-2462164Y22943077D01*
X-2461384Y22950000D01*
X-2475642Y23076547D01*
X-2481002Y23124123D01*
X-2481003Y23124130D01*
X-2481783Y23131047D01*
X-2541957Y23303015D01*
X-2638889Y23457281D01*
X-2767719Y23586111D01*
X-2921985Y23683043D01*
X-3093953Y23743217D01*
X-3275000Y23763616D01*
X-3456047Y23743217D01*
X-3628015Y23683043D01*
X-3782281Y23586111D01*
X-3911111Y23457281D01*
X-4008043Y23303015D01*
X-4068217Y23131047D01*
X-4088616Y22950000D01*
X-8924500Y22950000D01*
X-8924500Y34052645D01*
X-6605157Y34052645D01*
X-6595148Y33842541D01*
X-6545558Y33638129D01*
X-6543102Y33632751D01*
X-6498580Y33535260D01*
X-6458179Y33446795D01*
X-6336169Y33275456D01*
X-6183937Y33130303D01*
X-6006986Y33016584D01*
X-6001498Y33014387D01*
X-5878972Y32965334D01*
X-5811712Y32938407D01*
X-5805908Y32937288D01*
X-5805907Y32937288D01*
X-5610968Y32899717D01*
X-5610965Y32899716D01*
X-5605171Y32898600D01*
X-5450486Y32898600D01*
X-5447532Y32898600D01*
X-5444603Y32898879D01*
X-5444596Y32898880D01*
X-5296491Y32913022D01*
X-5296485Y32913023D01*
X-5290611Y32913584D01*
X-5284943Y32915248D01*
X-5284939Y32915249D01*
X-5094454Y32971180D01*
X-5094448Y32971182D01*
X-5088789Y32972844D01*
X-5083544Y32975547D01*
X-5083539Y32975550D01*
X-4907079Y33066522D01*
X-4907071Y33066526D01*
X-4901830Y33069229D01*
X-4897187Y33072880D01*
X-4741135Y33195599D01*
X-4741128Y33195605D01*
X-4736490Y33199253D01*
X-4732626Y33203711D01*
X-4732621Y33203717D01*
X-4602611Y33353756D01*
X-4602605Y33353763D01*
X-4598745Y33358219D01*
X-4548652Y33444982D01*
X-4496530Y33535260D01*
X-4496527Y33535264D01*
X-4493574Y33540381D01*
X-4491643Y33545960D01*
X-4491639Y33545969D01*
X-4426709Y33733572D01*
X-4426706Y33733581D01*
X-4424778Y33739154D01*
X-4423938Y33744990D01*
X-4423937Y33744998D01*
X-4395682Y33941515D01*
X-4395681Y33941521D01*
X-4394843Y33947355D01*
X-4395123Y33953239D01*
X-4395123Y33953246D01*
X-4397350Y34000000D01*
X-1970019Y34000000D01*
X-1949967Y33719637D01*
X-1890219Y33444982D01*
X-1791992Y33181625D01*
X-1657285Y32934927D01*
X-1488841Y32709912D01*
X-1290088Y32511159D01*
X-1065073Y32342715D01*
X-1061179Y32340589D01*
X-1061178Y32340588D01*
X-822264Y32210131D01*
X-822257Y32210128D01*
X-818375Y32208008D01*
X-814232Y32206462D01*
X-814226Y32206460D01*
X-559161Y32111326D01*
X-559157Y32111325D01*
X-555018Y32109781D01*
X-550692Y32108840D01*
X-284696Y32050975D01*
X-284687Y32050973D01*
X-280363Y32050033D01*
X-275949Y32049717D01*
X-275940Y32049716D01*
X-72385Y32035158D01*
X-72383Y32035157D01*
X-70175Y32035000D01*
X67960Y32035000D01*
X70175Y32035000D01*
X72383Y32035157D01*
X72385Y32035158D01*
X275940Y32049716D01*
X275949Y32049717D01*
X280363Y32050033D01*
X284687Y32050973D01*
X284696Y32050975D01*
X550692Y32108840D01*
X555018Y32109781D01*
X559157Y32111325D01*
X559161Y32111326D01*
X814226Y32206460D01*
X814232Y32206462D01*
X818375Y32208008D01*
X822257Y32210128D01*
X822264Y32210131D01*
X1061178Y32340588D01*
X1061179Y32340589D01*
X1065073Y32342715D01*
X1290088Y32511159D01*
X1488841Y32709912D01*
X1657285Y32934927D01*
X1791992Y33181625D01*
X1890219Y33444982D01*
X1949967Y33719637D01*
X1970019Y34000000D01*
X1966254Y34052645D01*
X4394843Y34052645D01*
X4395123Y34046760D01*
X4395123Y34046753D01*
X4400137Y33941515D01*
X4404852Y33842541D01*
X4406243Y33836803D01*
X4406244Y33836803D01*
X4435719Y33715303D01*
X4454442Y33638129D01*
X4456893Y33632760D01*
X4456897Y33632751D01*
X4539363Y33452175D01*
X4539367Y33452166D01*
X4541821Y33446795D01*
X4545247Y33441983D01*
X4545251Y33441977D01*
X4660400Y33280273D01*
X4660404Y33280267D01*
X4663831Y33275456D01*
X4668104Y33271381D01*
X4668109Y33271376D01*
X4811791Y33134376D01*
X4816063Y33130303D01*
X4821026Y33127113D01*
X4821028Y33127112D01*
X4988043Y33019778D01*
X4988048Y33019775D01*
X4993014Y33016584D01*
X4998498Y33014388D01*
X4998501Y33014387D01*
X5182799Y32940604D01*
X5182803Y32940602D01*
X5188288Y32938407D01*
X5194088Y32937289D01*
X5194092Y32937288D01*
X5389031Y32899717D01*
X5389035Y32899716D01*
X5394829Y32898600D01*
X5549514Y32898600D01*
X5552468Y32898600D01*
X5555397Y32898879D01*
X5555403Y32898880D01*
X5703508Y32913022D01*
X5703512Y32913022D01*
X5709389Y32913584D01*
X5715058Y32915248D01*
X5715060Y32915249D01*
X5905545Y32971180D01*
X5905548Y32971181D01*
X5911211Y32972844D01*
X5916460Y32975550D01*
X6092920Y33066522D01*
X6092923Y33066524D01*
X6098170Y33069229D01*
X6193723Y33144372D01*
X6258864Y33195599D01*
X6258866Y33195601D01*
X6263510Y33199253D01*
X6401255Y33358219D01*
X6506426Y33540381D01*
X6575222Y33739154D01*
X6605157Y33947355D01*
X6595148Y34157459D01*
X6545558Y34361871D01*
X6458179Y34553205D01*
X6336169Y34724544D01*
X6183937Y34869697D01*
X6006986Y34983416D01*
X5811712Y35061593D01*
X5605171Y35101400D01*
X5447532Y35101400D01*
X5290611Y35086416D01*
X5088789Y35027156D01*
X4901830Y34930771D01*
X4736490Y34800747D01*
X4732621Y34796282D01*
X4670460Y34724544D01*
X4598745Y34641781D01*
X4493574Y34459619D01*
X4491641Y34454035D01*
X4491639Y34454030D01*
X4426709Y34266427D01*
X4426707Y34266421D01*
X4424778Y34260846D01*
X4423938Y34255007D01*
X4423937Y34255001D01*
X4395682Y34058484D01*
X4395681Y34058478D01*
X4394843Y34052645D01*
X1966254Y34052645D01*
X1949967Y34280363D01*
X1890219Y34555018D01*
X1791992Y34818375D01*
X1657285Y35065073D01*
X1488841Y35290088D01*
X1290088Y35488841D01*
X1065073Y35657285D01*
X818375Y35791992D01*
X555018Y35890219D01*
X280363Y35949967D01*
X70175Y35965000D01*
X-70175Y35965000D01*
X-280363Y35949967D01*
X-555018Y35890219D01*
X-818375Y35791992D01*
X-1065073Y35657285D01*
X-1290088Y35488841D01*
X-1488841Y35290088D01*
X-1657285Y35065073D01*
X-1791992Y34818375D01*
X-1890219Y34555018D01*
X-1949967Y34280363D01*
X-1970019Y34000000D01*
X-4397350Y34000000D01*
X-4404571Y34151561D01*
X-4404852Y34157459D01*
X-4428516Y34255001D01*
X-4453049Y34356130D01*
X-4453049Y34356132D01*
X-4454442Y34361871D01*
X-4456895Y34367242D01*
X-4456897Y34367248D01*
X-4539363Y34547824D01*
X-4539365Y34547828D01*
X-4541821Y34553205D01*
X-4663831Y34724544D01*
X-4816063Y34869697D01*
X-4993014Y34983416D01*
X-5188288Y35061593D01*
X-5394829Y35101400D01*
X-5552468Y35101400D01*
X-5709389Y35086416D01*
X-5911211Y35027156D01*
X-6098170Y34930771D01*
X-6263510Y34800747D01*
X-6401255Y34641781D01*
X-6506426Y34459619D01*
X-6575222Y34260846D01*
X-6605157Y34052645D01*
X-8924500Y34052645D01*
X-8924500Y37618818D01*
X3249500Y37618818D01*
X3250189Y37614246D01*
X3250190Y37614234D01*
X3287912Y37363971D01*
X3287914Y37363961D01*
X3288604Y37359385D01*
X3289968Y37354959D01*
X3289971Y37354951D01*
X3364569Y37113108D01*
X3364574Y37113093D01*
X3365937Y37108677D01*
X3367944Y37104508D01*
X3367949Y37104497D01*
X3477756Y36876481D01*
X3477759Y36876474D01*
X3479772Y36872296D01*
X3627567Y36655521D01*
X3630713Y36652129D01*
X3630719Y36652123D01*
X3802863Y36466596D01*
X3806019Y36463195D01*
X3809641Y36460306D01*
X3809646Y36460302D01*
X4007516Y36302506D01*
X4007519Y36302503D01*
X4011143Y36299614D01*
X4015159Y36297295D01*
X4015161Y36297294D01*
X4234335Y36170753D01*
X4234346Y36170747D01*
X4238357Y36168432D01*
X4242670Y36166739D01*
X4242681Y36166734D01*
X4478261Y36074276D01*
X4478268Y36074273D01*
X4482584Y36072580D01*
X4487102Y36071548D01*
X4487108Y36071547D01*
X4733850Y36015229D01*
X4733858Y36015227D01*
X4738370Y36014198D01*
X4742989Y36013851D01*
X4742995Y36013851D01*
X4932191Y35999673D01*
X4932203Y35999672D01*
X4934506Y35999500D01*
X5063177Y35999500D01*
X5065494Y35999500D01*
X5067797Y35999672D01*
X5067808Y35999673D01*
X5257004Y36013851D01*
X5257008Y36013851D01*
X5261630Y36014198D01*
X5266143Y36015228D01*
X5266149Y36015229D01*
X5512891Y36071547D01*
X5512893Y36071547D01*
X5517416Y36072580D01*
X5521734Y36074275D01*
X5521738Y36074276D01*
X5757318Y36166734D01*
X5757324Y36166737D01*
X5761643Y36168432D01*
X5765658Y36170750D01*
X5765664Y36170753D01*
X5894216Y36244973D01*
X5988857Y36299614D01*
X6193981Y36463195D01*
X6372433Y36655521D01*
X6520228Y36872296D01*
X6591386Y37020057D01*
X6886780Y37020057D01*
X6887514Y37012291D01*
X6887514Y37012288D01*
X6890950Y36975942D01*
X6891500Y36964273D01*
X6891500Y21578846D01*
X6890968Y21567562D01*
X6889298Y21560091D01*
X6889543Y21552293D01*
X6889543Y21552292D01*
X6891439Y21491983D01*
X6891500Y21488087D01*
X6891500Y21460144D01*
X6891988Y21456277D01*
X6891989Y21456268D01*
X6892019Y21456032D01*
X6892934Y21444406D01*
X6894081Y21407904D01*
X6894082Y21407896D01*
X6894327Y21400111D01*
X6896500Y21392629D01*
X6896502Y21392620D01*
X6900022Y21380506D01*
X6903968Y21361452D01*
X6906125Y21344374D01*
X6904673Y21332508D01*
X6916192Y21316786D01*
X6922838Y21299998D01*
X6926619Y21288955D01*
X6936803Y21253902D01*
X6936807Y21253892D01*
X6938982Y21246407D01*
X6942951Y21239694D01*
X6942953Y21239691D01*
X6949374Y21228834D01*
X6957929Y21211370D01*
X6962575Y21199636D01*
X6962578Y21199629D01*
X6965448Y21192383D01*
X6970027Y21186079D01*
X6970034Y21186068D01*
X6991491Y21156534D01*
X6997901Y21146776D01*
X7016483Y21115355D01*
X7016493Y21115341D01*
X7020458Y21108638D01*
X7025973Y21103122D01*
X7025976Y21103119D01*
X7034897Y21094197D01*
X7047523Y21079414D01*
X7054940Y21069206D01*
X7054944Y21069200D01*
X7059528Y21062893D01*
X7065530Y21057926D01*
X7065542Y21057915D01*
X7093673Y21034643D01*
X7102311Y21026783D01*
X7441151Y20687943D01*
X7465190Y20654065D01*
X7476690Y20614148D01*
X7481003Y20575868D01*
X7481004Y20575861D01*
X7481783Y20568953D01*
X7484080Y20562386D01*
X7484081Y20562385D01*
X7539658Y20403553D01*
X7539660Y20403547D01*
X7541957Y20396985D01*
X7545656Y20391097D01*
X7545659Y20391092D01*
X7622494Y20268811D01*
X7641500Y20202839D01*
X7641500Y4297161D01*
X7622494Y4231189D01*
X7562700Y4136028D01*
X7541957Y4103015D01*
X7481783Y3931047D01*
X7481003Y3924130D01*
X7481002Y3924123D01*
X7475642Y3876547D01*
X7461384Y3750000D01*
X7462164Y3743077D01*
X7481002Y3575876D01*
X7481003Y3575867D01*
X7481783Y3568953D01*
X7484081Y3562383D01*
X7484083Y3562378D01*
X7539658Y3403553D01*
X7539660Y3403547D01*
X7541957Y3396985D01*
X7545656Y3391097D01*
X7545659Y3391092D01*
X7635181Y3248619D01*
X7635184Y3248614D01*
X7638889Y3242719D01*
X7643813Y3237794D01*
X7643817Y3237790D01*
X7762790Y3118817D01*
X7762794Y3118813D01*
X7767719Y3113889D01*
X7773614Y3110184D01*
X7773619Y3110181D01*
X7916092Y3020659D01*
X7916097Y3020656D01*
X7921985Y3016957D01*
X7928547Y3014660D01*
X7928553Y3014658D01*
X8087378Y2959083D01*
X8087383Y2959081D01*
X8093953Y2956783D01*
X8100867Y2956003D01*
X8100876Y2956002D01*
X8268077Y2937164D01*
X8275000Y2936384D01*
X8281923Y2937164D01*
X8449123Y2956002D01*
X8449130Y2956003D01*
X8456047Y2956783D01*
X8462618Y2959082D01*
X8462621Y2959083D01*
X8621446Y3014658D01*
X8621449Y3014659D01*
X8628015Y3016957D01*
X8782281Y3113889D01*
X8911111Y3242719D01*
X9008043Y3396985D01*
X9068217Y3568953D01*
X9088616Y3750000D01*
X9068217Y3931047D01*
X9008043Y4103015D01*
X8927506Y4231189D01*
X8908500Y4297161D01*
X8908500Y12623746D01*
X8922015Y12680041D01*
X8959615Y12724064D01*
X9013102Y12746219D01*
X9070818Y12741677D01*
X9120181Y12711427D01*
X9212790Y12618817D01*
X9212794Y12618813D01*
X9217719Y12613889D01*
X9223614Y12610184D01*
X9223619Y12610181D01*
X9366092Y12520659D01*
X9366097Y12520656D01*
X9371985Y12516957D01*
X9378547Y12514660D01*
X9378553Y12514658D01*
X9537385Y12459081D01*
X9537386Y12459080D01*
X9543953Y12456783D01*
X9550861Y12456004D01*
X9550868Y12456003D01*
X9589147Y12451690D01*
X9629064Y12440190D01*
X9662942Y12416151D01*
X10530181Y11548914D01*
X10557061Y11508686D01*
X10566500Y11461233D01*
X10566500Y313548D01*
X10552489Y256291D01*
X10513623Y211973D01*
X10458685Y190609D01*
X10400089Y197026D01*
X10351077Y229775D01*
X10322725Y281455D01*
X10275305Y458430D01*
X10273903Y463663D01*
X10174035Y677829D01*
X10038495Y871401D01*
X9871401Y1038495D01*
X9677829Y1174035D01*
X9463663Y1273903D01*
X9235408Y1335063D01*
X9058966Y1350500D01*
X8941034Y1350500D01*
X8764592Y1335063D01*
X8536337Y1273903D01*
X8322171Y1174035D01*
X8128599Y1038495D01*
X7961505Y871401D01*
X7958402Y866970D01*
X7958399Y866966D01*
X7829066Y682259D01*
X7825965Y677830D01*
X7823681Y672933D01*
X7823678Y672927D01*
X7767851Y553205D01*
X7726097Y463663D01*
X7724697Y458438D01*
X7724694Y458430D01*
X7670187Y255001D01*
X7664937Y235408D01*
X7664465Y230020D01*
X7664465Y230017D01*
X7658619Y163196D01*
X7644341Y0D01*
X7664937Y-235408D01*
X7666336Y-240630D01*
X7666337Y-240634D01*
X7724694Y-458430D01*
X7724697Y-458438D01*
X7726097Y-463663D01*
X7825965Y-677829D01*
X7829072Y-682266D01*
X7829073Y-682268D01*
X7839673Y-697406D01*
X7961505Y-871401D01*
X8128599Y-1038495D01*
X8322171Y-1174035D01*
X8536337Y-1273903D01*
X8764592Y-1335063D01*
X8941034Y-1350500D01*
X8943742Y-1350500D01*
X8990205Y-1350500D01*
X9045632Y-1363577D01*
X9089368Y-1400051D01*
X9112188Y-1452228D01*
X9109920Y-1496556D01*
X9111819Y-1496857D01*
X9104888Y-1540611D01*
X9102520Y-1552045D01*
X9093438Y-1587417D01*
X9093436Y-1587426D01*
X9091500Y-1594970D01*
X9091500Y-1602766D01*
X9091500Y-1615385D01*
X9089972Y-1634783D01*
X9086780Y-1654943D01*
X9087514Y-1662708D01*
X9087514Y-1662711D01*
X9090950Y-1699058D01*
X9091500Y-1710727D01*
X9091500Y-3202839D01*
X9072494Y-3268811D01*
X8995659Y-3391092D01*
X8995656Y-3391097D01*
X8991957Y-3396985D01*
X8989660Y-3403547D01*
X8989658Y-3403553D01*
X8934083Y-3562378D01*
X8934081Y-3562383D01*
X8931783Y-3568953D01*
X8931003Y-3575867D01*
X8931002Y-3575876D01*
X8925642Y-3623453D01*
X8911384Y-3750000D01*
X8912164Y-3756923D01*
X8931002Y-3924123D01*
X8931003Y-3924130D01*
X8931783Y-3931047D01*
X8991957Y-4103015D01*
X9088889Y-4257281D01*
X9217719Y-4386111D01*
X9371985Y-4483043D01*
X9543953Y-4543217D01*
X9725000Y-4563616D01*
X9906047Y-4543217D01*
X10078015Y-4483043D01*
X10232281Y-4386111D01*
X10361111Y-4257281D01*
X10458043Y-4103015D01*
X10518217Y-3931047D01*
X10523835Y-3881182D01*
X11249500Y-3881182D01*
X11250189Y-3885754D01*
X11250190Y-3885765D01*
X11287912Y-4136028D01*
X11287913Y-4136035D01*
X11288604Y-4140615D01*
X11289969Y-4145043D01*
X11289971Y-4145048D01*
X11364569Y-4386891D01*
X11364573Y-4386901D01*
X11365937Y-4391323D01*
X11367946Y-4395496D01*
X11367949Y-4395502D01*
X11416970Y-4497294D01*
X11479772Y-4627704D01*
X11627567Y-4844479D01*
X11806019Y-5036805D01*
X12011143Y-5200386D01*
X12238357Y-5331568D01*
X12482584Y-5427420D01*
X12738370Y-5485802D01*
X12934506Y-5500500D01*
X13063177Y-5500500D01*
X13065494Y-5500500D01*
X13261630Y-5485802D01*
X13517416Y-5427420D01*
X13761643Y-5331568D01*
X13988857Y-5200386D01*
X14193981Y-5036805D01*
X14372433Y-4844479D01*
X14520228Y-4627704D01*
X14634063Y-4391323D01*
X14711396Y-4140615D01*
X14750500Y-3881182D01*
X14750500Y-3618818D01*
X14711396Y-3359385D01*
X14634063Y-3108677D01*
X14520228Y-2872296D01*
X14372433Y-2655521D01*
X14193981Y-2463195D01*
X13988857Y-2299614D01*
X13894216Y-2244973D01*
X13765664Y-2170753D01*
X13765658Y-2170750D01*
X13761643Y-2168432D01*
X13757324Y-2166737D01*
X13757318Y-2166734D01*
X13521738Y-2074276D01*
X13521734Y-2074275D01*
X13517416Y-2072580D01*
X13512893Y-2071547D01*
X13512891Y-2071547D01*
X13266149Y-2015229D01*
X13266143Y-2015228D01*
X13261630Y-2014198D01*
X13257008Y-2013851D01*
X13257004Y-2013851D01*
X13067808Y-1999673D01*
X13067797Y-1999672D01*
X13065494Y-1999500D01*
X12934506Y-1999500D01*
X12932203Y-1999672D01*
X12932191Y-1999673D01*
X12742995Y-2013851D01*
X12742989Y-2013851D01*
X12738370Y-2014198D01*
X12733858Y-2015227D01*
X12733850Y-2015229D01*
X12487108Y-2071547D01*
X12487102Y-2071548D01*
X12482584Y-2072580D01*
X12478268Y-2074273D01*
X12478261Y-2074276D01*
X12242681Y-2166734D01*
X12242670Y-2166739D01*
X12238357Y-2168432D01*
X12234346Y-2170747D01*
X12234335Y-2170753D01*
X12015161Y-2297294D01*
X12011143Y-2299614D01*
X12007519Y-2302503D01*
X12007516Y-2302506D01*
X11809646Y-2460302D01*
X11809641Y-2460306D01*
X11806019Y-2463195D01*
X11802865Y-2466593D01*
X11802863Y-2466596D01*
X11630719Y-2652123D01*
X11630713Y-2652129D01*
X11627567Y-2655521D01*
X11479772Y-2872296D01*
X11477759Y-2876474D01*
X11477756Y-2876481D01*
X11367949Y-3104497D01*
X11367944Y-3104508D01*
X11365937Y-3108677D01*
X11364574Y-3113093D01*
X11364569Y-3113108D01*
X11289971Y-3354951D01*
X11289968Y-3354959D01*
X11288604Y-3359385D01*
X11287914Y-3363961D01*
X11287912Y-3363971D01*
X11250190Y-3614234D01*
X11250189Y-3614246D01*
X11249500Y-3618818D01*
X11249500Y-3881182D01*
X10523835Y-3881182D01*
X10538616Y-3750000D01*
X10518217Y-3568953D01*
X10458043Y-3396985D01*
X10377506Y-3268811D01*
X10358500Y-3202839D01*
X10358500Y-1988766D01*
X10367939Y-1941313D01*
X10394819Y-1901085D01*
X10962242Y-1333662D01*
X11530877Y-765026D01*
X11585513Y-733193D01*
X11648745Y-732440D01*
X11704125Y-762966D01*
X11811785Y-865619D01*
X11811790Y-865623D01*
X11816063Y-869697D01*
X11993014Y-983416D01*
X12188288Y-1061593D01*
X12394829Y-1101400D01*
X12549514Y-1101400D01*
X12552468Y-1101400D01*
X12709389Y-1086416D01*
X12911211Y-1027156D01*
X13098170Y-930771D01*
X13263510Y-800747D01*
X13401255Y-641781D01*
X13506426Y-459619D01*
X13575222Y-260846D01*
X13605157Y-52645D01*
X13602649Y0D01*
X16029981Y0D01*
X16030297Y-4418D01*
X16049716Y-275940D01*
X16049717Y-275949D01*
X16050033Y-280363D01*
X16050973Y-284687D01*
X16050975Y-284696D01*
X16087812Y-454030D01*
X16109781Y-555018D01*
X16111325Y-559157D01*
X16111326Y-559161D01*
X16206460Y-814226D01*
X16206462Y-814232D01*
X16208008Y-818375D01*
X16210128Y-822257D01*
X16210131Y-822264D01*
X16340588Y-1061178D01*
X16342715Y-1065073D01*
X16511159Y-1290088D01*
X16709912Y-1488841D01*
X16934927Y-1657285D01*
X17181625Y-1791992D01*
X17444982Y-1890219D01*
X17719637Y-1949967D01*
X17929825Y-1965000D01*
X18067960Y-1965000D01*
X18070175Y-1965000D01*
X18280363Y-1949967D01*
X18555018Y-1890219D01*
X18818375Y-1791992D01*
X19065073Y-1657285D01*
X19290088Y-1488841D01*
X19488841Y-1290088D01*
X19657285Y-1065073D01*
X19791992Y-818375D01*
X19890219Y-555018D01*
X19949967Y-280363D01*
X19970019Y0D01*
X19966254Y52645D01*
X22394843Y52645D01*
X22395123Y46760D01*
X22395123Y46753D01*
X22400137Y-58484D01*
X22404852Y-157459D01*
X22423762Y-235408D01*
X22429933Y-260846D01*
X22454442Y-361871D01*
X22456895Y-367242D01*
X22456897Y-367248D01*
X22539363Y-547824D01*
X22539365Y-547828D01*
X22541821Y-553205D01*
X22545250Y-558020D01*
X22545251Y-558022D01*
X22644506Y-697406D01*
X22663831Y-724544D01*
X22816063Y-869697D01*
X22993014Y-983416D01*
X23188288Y-1061593D01*
X23394829Y-1101400D01*
X23549514Y-1101400D01*
X23552468Y-1101400D01*
X23709389Y-1086416D01*
X23911211Y-1027156D01*
X24098170Y-930771D01*
X24263510Y-800747D01*
X24401255Y-641781D01*
X24506426Y-459619D01*
X24575222Y-260846D01*
X24605157Y-52645D01*
X24595148Y157459D01*
X24545558Y361871D01*
X24458179Y553205D01*
X24336169Y724544D01*
X24183937Y869697D01*
X24006986Y983416D01*
X23811712Y1061593D01*
X23605171Y1101400D01*
X23447532Y1101400D01*
X23290611Y1086416D01*
X23088789Y1027156D01*
X22901830Y930771D01*
X22736490Y800747D01*
X22732621Y796282D01*
X22629982Y677830D01*
X22598745Y641781D01*
X22493574Y459619D01*
X22491641Y454035D01*
X22491639Y454030D01*
X22426709Y266427D01*
X22426707Y266421D01*
X22424778Y260846D01*
X22423938Y255007D01*
X22423937Y255001D01*
X22395682Y58484D01*
X22395681Y58478D01*
X22394843Y52645D01*
X19966254Y52645D01*
X19949967Y280363D01*
X19890219Y555018D01*
X19791992Y818375D01*
X19657285Y1065073D01*
X19488841Y1290088D01*
X19290088Y1488841D01*
X19065073Y1657285D01*
X18818375Y1791992D01*
X18555018Y1890219D01*
X18280363Y1949967D01*
X18070175Y1965000D01*
X17929825Y1965000D01*
X17719637Y1949967D01*
X17444982Y1890219D01*
X17181625Y1791992D01*
X16934927Y1657285D01*
X16709912Y1488841D01*
X16511159Y1290088D01*
X16342715Y1065073D01*
X16340589Y1061179D01*
X16340588Y1061178D01*
X16210131Y822264D01*
X16210128Y822257D01*
X16208008Y818375D01*
X16206462Y814232D01*
X16206460Y814226D01*
X16153755Y672918D01*
X16109781Y555018D01*
X16108840Y550692D01*
X16050975Y284696D01*
X16050973Y284687D01*
X16050033Y280363D01*
X16049717Y275949D01*
X16049716Y275940D01*
X16040821Y151561D01*
X16029981Y0D01*
X13602649Y0D01*
X13595148Y157459D01*
X13545558Y361871D01*
X13458179Y553205D01*
X13336169Y724544D01*
X13183937Y869697D01*
X13006986Y983416D01*
X12811712Y1061593D01*
X12605171Y1101400D01*
X12447532Y1101400D01*
X12290611Y1086416D01*
X12088789Y1027156D01*
X12014320Y988764D01*
X11953074Y975059D01*
X11892962Y993099D01*
X11849383Y1038262D01*
X11833500Y1098980D01*
X11833500Y10918818D01*
X16249500Y10918818D01*
X16250189Y10914246D01*
X16250190Y10914234D01*
X16287912Y10663971D01*
X16287914Y10663961D01*
X16288604Y10659385D01*
X16289968Y10654959D01*
X16289971Y10654951D01*
X16364569Y10413108D01*
X16364574Y10413093D01*
X16365937Y10408677D01*
X16367944Y10404508D01*
X16367949Y10404497D01*
X16477756Y10176481D01*
X16477759Y10176474D01*
X16479772Y10172296D01*
X16627567Y9955521D01*
X16630713Y9952129D01*
X16630719Y9952123D01*
X16802863Y9766596D01*
X16806019Y9763195D01*
X16809641Y9760306D01*
X16809646Y9760302D01*
X17007516Y9602506D01*
X17007519Y9602503D01*
X17011143Y9599614D01*
X17015159Y9597295D01*
X17015161Y9597294D01*
X17234335Y9470753D01*
X17234346Y9470747D01*
X17238357Y9468432D01*
X17242670Y9466739D01*
X17242681Y9466734D01*
X17478261Y9374276D01*
X17478268Y9374273D01*
X17482584Y9372580D01*
X17487102Y9371548D01*
X17487108Y9371547D01*
X17733850Y9315229D01*
X17733858Y9315227D01*
X17738370Y9314198D01*
X17742989Y9313851D01*
X17742995Y9313851D01*
X17932191Y9299673D01*
X17932203Y9299672D01*
X17934506Y9299500D01*
X18063177Y9299500D01*
X18065494Y9299500D01*
X18067797Y9299672D01*
X18067808Y9299673D01*
X18257004Y9313851D01*
X18257008Y9313851D01*
X18261630Y9314198D01*
X18266143Y9315228D01*
X18266149Y9315229D01*
X18512891Y9371547D01*
X18512893Y9371547D01*
X18517416Y9372580D01*
X18521734Y9374275D01*
X18521738Y9374276D01*
X18757318Y9466734D01*
X18757324Y9466737D01*
X18761643Y9468432D01*
X18765658Y9470750D01*
X18765664Y9470753D01*
X18894216Y9544973D01*
X18988857Y9599614D01*
X19193981Y9763195D01*
X19372433Y9955521D01*
X19520228Y10172296D01*
X19634063Y10408677D01*
X19711396Y10659385D01*
X19750500Y10918818D01*
X19750500Y11050000D01*
X20461384Y11050000D01*
X20462164Y11043077D01*
X20481002Y10875876D01*
X20481003Y10875867D01*
X20481783Y10868953D01*
X20484081Y10862383D01*
X20484083Y10862378D01*
X20539658Y10703553D01*
X20539660Y10703547D01*
X20541957Y10696985D01*
X20545656Y10691097D01*
X20545659Y10691092D01*
X20635181Y10548619D01*
X20635184Y10548614D01*
X20638889Y10542719D01*
X20643813Y10537794D01*
X20643817Y10537790D01*
X20762790Y10418817D01*
X20762794Y10418813D01*
X20767719Y10413889D01*
X20773614Y10410184D01*
X20773619Y10410181D01*
X20916092Y10320659D01*
X20916097Y10320656D01*
X20921985Y10316957D01*
X20928547Y10314660D01*
X20928553Y10314658D01*
X21087378Y10259083D01*
X21087383Y10259081D01*
X21093953Y10256783D01*
X21100867Y10256003D01*
X21100876Y10256002D01*
X21268077Y10237164D01*
X21275000Y10236384D01*
X21281923Y10237164D01*
X21449123Y10256002D01*
X21449130Y10256003D01*
X21456047Y10256783D01*
X21462618Y10259082D01*
X21462621Y10259083D01*
X21621446Y10314658D01*
X21621449Y10314659D01*
X21628015Y10316957D01*
X21782281Y10413889D01*
X21911111Y10542719D01*
X22008043Y10696985D01*
X22068217Y10868953D01*
X22088616Y11050000D01*
X22068217Y11231047D01*
X22008043Y11403015D01*
X21911111Y11557281D01*
X21782281Y11686111D01*
X21628015Y11783043D01*
X21456047Y11843217D01*
X21275000Y11863616D01*
X21093953Y11843217D01*
X20921985Y11783043D01*
X20767719Y11686111D01*
X20638889Y11557281D01*
X20635181Y11551380D01*
X20608355Y11508686D01*
X20541957Y11403015D01*
X20481783Y11231047D01*
X20481003Y11224130D01*
X20481002Y11224123D01*
X20475642Y11176547D01*
X20461384Y11050000D01*
X19750500Y11050000D01*
X19750500Y11181182D01*
X19711396Y11440615D01*
X19634063Y11691323D01*
X19520228Y11927704D01*
X19372433Y12144479D01*
X19193981Y12336805D01*
X18988857Y12500386D01*
X18761643Y12631568D01*
X18517416Y12727420D01*
X18261630Y12785802D01*
X18065494Y12800500D01*
X17934506Y12800500D01*
X17738370Y12785802D01*
X17482584Y12727420D01*
X17238357Y12631568D01*
X17011143Y12500386D01*
X16806019Y12336805D01*
X16627567Y12144479D01*
X16479772Y11927704D01*
X16477756Y11923519D01*
X16477756Y11923518D01*
X16408324Y11779340D01*
X16365937Y11691323D01*
X16364573Y11686901D01*
X16364569Y11686891D01*
X16289971Y11445048D01*
X16288604Y11440615D01*
X16287913Y11436035D01*
X16287912Y11436028D01*
X16250190Y11185765D01*
X16250189Y11185754D01*
X16249500Y11181182D01*
X16249500Y10918818D01*
X11833500Y10918818D01*
X11833500Y11687402D01*
X11850113Y11749402D01*
X11895500Y11794789D01*
X11957500Y11811402D01*
X12019500Y11794789D01*
X12234335Y11670753D01*
X12234346Y11670747D01*
X12238357Y11668432D01*
X12242670Y11666739D01*
X12242681Y11666734D01*
X12478261Y11574276D01*
X12478268Y11574273D01*
X12482584Y11572580D01*
X12487102Y11571548D01*
X12487108Y11571547D01*
X12733850Y11515229D01*
X12733858Y11515227D01*
X12738370Y11514198D01*
X12742989Y11513851D01*
X12742995Y11513851D01*
X12932191Y11499673D01*
X12932203Y11499672D01*
X12934506Y11499500D01*
X13063177Y11499500D01*
X13065494Y11499500D01*
X13067797Y11499672D01*
X13067808Y11499673D01*
X13257004Y11513851D01*
X13257008Y11513851D01*
X13261630Y11514198D01*
X13266143Y11515228D01*
X13266149Y11515229D01*
X13512891Y11571547D01*
X13512893Y11571547D01*
X13517416Y11572580D01*
X13521734Y11574275D01*
X13521738Y11574276D01*
X13757318Y11666734D01*
X13757324Y11666737D01*
X13761643Y11668432D01*
X13765658Y11670750D01*
X13765664Y11670753D01*
X13964135Y11785341D01*
X13988857Y11799614D01*
X14193981Y11963195D01*
X14372433Y12155521D01*
X14520228Y12372296D01*
X14634063Y12608677D01*
X14641648Y12633265D01*
X14691191Y12793883D01*
X14711396Y12859385D01*
X14750500Y13118818D01*
X14750500Y13381182D01*
X14711396Y13640615D01*
X14634063Y13891323D01*
X14520228Y14127704D01*
X14372433Y14344479D01*
X14193981Y14536805D01*
X13988857Y14700386D01*
X13761643Y14831568D01*
X13517416Y14927420D01*
X13261630Y14985802D01*
X13065494Y15000500D01*
X12934506Y15000500D01*
X12738370Y14985802D01*
X12482584Y14927420D01*
X12238357Y14831568D01*
X12011143Y14700386D01*
X11806019Y14536805D01*
X11627567Y14344479D01*
X11479772Y14127704D01*
X11365937Y13891323D01*
X11364573Y13886901D01*
X11364569Y13886891D01*
X11316542Y13731189D01*
X11288604Y13640615D01*
X11287913Y13636035D01*
X11287912Y13636028D01*
X11250190Y13385765D01*
X11250189Y13385754D01*
X11249500Y13381182D01*
X11249500Y13118818D01*
X11250189Y13114246D01*
X11250190Y13114234D01*
X11281616Y12905746D01*
X11275417Y12844563D01*
X11240586Y12793883D01*
X11185689Y12766170D01*
X11124228Y12768239D01*
X11071320Y12799583D01*
X11006932Y12863971D01*
X10558844Y13312059D01*
X10534807Y13345937D01*
X10523309Y13385846D01*
X10518217Y13431047D01*
X10458043Y13603015D01*
X10377506Y13731189D01*
X10358500Y13797161D01*
X10358500Y17052645D01*
X11394843Y17052645D01*
X11395123Y17046760D01*
X11395123Y17046753D01*
X11400137Y16941515D01*
X11404852Y16842541D01*
X11406243Y16836803D01*
X11406244Y16836803D01*
X11435719Y16715303D01*
X11454442Y16638129D01*
X11456893Y16632760D01*
X11456897Y16632751D01*
X11539363Y16452175D01*
X11539367Y16452166D01*
X11541821Y16446795D01*
X11545247Y16441983D01*
X11545251Y16441977D01*
X11660400Y16280273D01*
X11660404Y16280267D01*
X11663831Y16275456D01*
X11668104Y16271381D01*
X11668109Y16271376D01*
X11811791Y16134376D01*
X11816063Y16130303D01*
X11821026Y16127113D01*
X11821028Y16127112D01*
X11988043Y16019778D01*
X11988048Y16019775D01*
X11993014Y16016584D01*
X11998498Y16014388D01*
X11998501Y16014387D01*
X12182799Y15940604D01*
X12182803Y15940602D01*
X12188288Y15938407D01*
X12194088Y15937289D01*
X12194092Y15937288D01*
X12389031Y15899717D01*
X12389035Y15899716D01*
X12394829Y15898600D01*
X12549514Y15898600D01*
X12552468Y15898600D01*
X12555397Y15898879D01*
X12555403Y15898880D01*
X12703508Y15913022D01*
X12703512Y15913022D01*
X12709389Y15913584D01*
X12715058Y15915248D01*
X12715060Y15915249D01*
X12905545Y15971180D01*
X12905548Y15971181D01*
X12911211Y15972844D01*
X12916460Y15975550D01*
X13092920Y16066522D01*
X13092923Y16066524D01*
X13098170Y16069229D01*
X13193723Y16144372D01*
X13258864Y16195599D01*
X13258866Y16195601D01*
X13263510Y16199253D01*
X13401255Y16358219D01*
X13506426Y16540381D01*
X13575222Y16739154D01*
X13605157Y16947355D01*
X13602649Y17000000D01*
X16029981Y17000000D01*
X16030297Y16995582D01*
X16049716Y16724059D01*
X16049717Y16724048D01*
X16050033Y16719637D01*
X16050973Y16715314D01*
X16050975Y16715303D01*
X16087812Y16545969D01*
X16109781Y16444982D01*
X16111323Y16440845D01*
X16111326Y16440838D01*
X16206460Y16185773D01*
X16206464Y16185762D01*
X16208008Y16181625D01*
X16210125Y16177747D01*
X16210131Y16177735D01*
X16340588Y15938821D01*
X16340592Y15938813D01*
X16342715Y15934927D01*
X16345372Y15931377D01*
X16345375Y15931373D01*
X16508500Y15713463D01*
X16508505Y15713456D01*
X16511159Y15709912D01*
X16514289Y15706781D01*
X16514296Y15706774D01*
X16706774Y15514296D01*
X16706781Y15514289D01*
X16709912Y15511159D01*
X16713456Y15508505D01*
X16713463Y15508500D01*
X16931373Y15345375D01*
X16931377Y15345372D01*
X16934927Y15342715D01*
X16938813Y15340592D01*
X16938821Y15340588D01*
X17177735Y15210131D01*
X17177747Y15210125D01*
X17181625Y15208008D01*
X17185762Y15206464D01*
X17185773Y15206460D01*
X17440838Y15111326D01*
X17440845Y15111323D01*
X17444982Y15109781D01*
X17449305Y15108840D01*
X17449307Y15108840D01*
X17715303Y15050975D01*
X17715314Y15050973D01*
X17719637Y15050033D01*
X17724048Y15049717D01*
X17724059Y15049716D01*
X17927614Y15035158D01*
X17927617Y15035157D01*
X17929825Y15035000D01*
X18067960Y15035000D01*
X18070175Y15035000D01*
X18072383Y15035157D01*
X18072385Y15035158D01*
X18275940Y15049716D01*
X18275949Y15049717D01*
X18280363Y15050033D01*
X18284687Y15050973D01*
X18284696Y15050975D01*
X18550692Y15108840D01*
X18555018Y15109781D01*
X18559157Y15111325D01*
X18559161Y15111326D01*
X18814226Y15206460D01*
X18814232Y15206462D01*
X18818375Y15208008D01*
X18822257Y15210128D01*
X18822264Y15210131D01*
X19061178Y15340588D01*
X19061179Y15340589D01*
X19065073Y15342715D01*
X19290088Y15511159D01*
X19488841Y15709912D01*
X19657285Y15934927D01*
X19791992Y16181625D01*
X19890219Y16444982D01*
X19949967Y16719637D01*
X19970019Y17000000D01*
X19966254Y17052645D01*
X22394843Y17052645D01*
X22395123Y17046760D01*
X22395123Y17046753D01*
X22400137Y16941515D01*
X22404852Y16842541D01*
X22406243Y16836803D01*
X22406244Y16836803D01*
X22435719Y16715303D01*
X22454442Y16638129D01*
X22456893Y16632760D01*
X22456897Y16632751D01*
X22539363Y16452175D01*
X22539367Y16452166D01*
X22541821Y16446795D01*
X22545247Y16441983D01*
X22545251Y16441977D01*
X22660400Y16280273D01*
X22660404Y16280267D01*
X22663831Y16275456D01*
X22668104Y16271381D01*
X22668109Y16271376D01*
X22811791Y16134376D01*
X22816063Y16130303D01*
X22821026Y16127113D01*
X22821028Y16127112D01*
X22988043Y16019778D01*
X22988048Y16019775D01*
X22993014Y16016584D01*
X22998498Y16014388D01*
X22998501Y16014387D01*
X23182799Y15940604D01*
X23182803Y15940602D01*
X23188288Y15938407D01*
X23194088Y15937289D01*
X23194092Y15937288D01*
X23389031Y15899717D01*
X23389035Y15899716D01*
X23394829Y15898600D01*
X23549514Y15898600D01*
X23552468Y15898600D01*
X23555397Y15898879D01*
X23555403Y15898880D01*
X23703508Y15913022D01*
X23703512Y15913022D01*
X23709389Y15913584D01*
X23715058Y15915248D01*
X23715060Y15915249D01*
X23905545Y15971180D01*
X23905548Y15971181D01*
X23911211Y15972844D01*
X23916460Y15975550D01*
X24092920Y16066522D01*
X24092923Y16066524D01*
X24098170Y16069229D01*
X24193723Y16144372D01*
X24258864Y16195599D01*
X24258866Y16195601D01*
X24263510Y16199253D01*
X24401255Y16358219D01*
X24506426Y16540381D01*
X24575222Y16739154D01*
X24605157Y16947355D01*
X24595148Y17157459D01*
X24545558Y17361871D01*
X24458179Y17553205D01*
X24336169Y17724544D01*
X24183937Y17869697D01*
X24006986Y17983416D01*
X23811712Y18061593D01*
X23605171Y18101400D01*
X23447532Y18101400D01*
X23290611Y18086416D01*
X23088789Y18027156D01*
X22901830Y17930771D01*
X22736490Y17800747D01*
X22732621Y17796282D01*
X22670460Y17724544D01*
X22598745Y17641781D01*
X22493574Y17459619D01*
X22491641Y17454035D01*
X22491639Y17454030D01*
X22426709Y17266427D01*
X22426707Y17266421D01*
X22424778Y17260846D01*
X22423938Y17255007D01*
X22423937Y17255001D01*
X22395682Y17058484D01*
X22395681Y17058478D01*
X22394843Y17052645D01*
X19966254Y17052645D01*
X19949967Y17280363D01*
X19890219Y17555018D01*
X19791992Y17818375D01*
X19657285Y18065073D01*
X19488841Y18290088D01*
X19290088Y18488841D01*
X19065073Y18657285D01*
X18818375Y18791992D01*
X18555018Y18890219D01*
X18280363Y18949967D01*
X18070175Y18965000D01*
X17929825Y18965000D01*
X17719637Y18949967D01*
X17444982Y18890219D01*
X17181625Y18791992D01*
X16934927Y18657285D01*
X16709912Y18488841D01*
X16511159Y18290088D01*
X16342715Y18065073D01*
X16340589Y18061179D01*
X16340588Y18061178D01*
X16210131Y17822264D01*
X16210128Y17822257D01*
X16208008Y17818375D01*
X16206462Y17814232D01*
X16206460Y17814226D01*
X16143806Y17646243D01*
X16109781Y17555018D01*
X16108840Y17550692D01*
X16050975Y17284696D01*
X16050973Y17284687D01*
X16050033Y17280363D01*
X16049717Y17275949D01*
X16049716Y17275940D01*
X16040821Y17151561D01*
X16029981Y17000000D01*
X13602649Y17000000D01*
X13595148Y17157459D01*
X13545558Y17361871D01*
X13458179Y17553205D01*
X13336169Y17724544D01*
X13183937Y17869697D01*
X13006986Y17983416D01*
X12811712Y18061593D01*
X12605171Y18101400D01*
X12447532Y18101400D01*
X12290611Y18086416D01*
X12088789Y18027156D01*
X11901830Y17930771D01*
X11736490Y17800747D01*
X11732621Y17796282D01*
X11670460Y17724544D01*
X11598745Y17641781D01*
X11493574Y17459619D01*
X11491641Y17454035D01*
X11491639Y17454030D01*
X11426709Y17266427D01*
X11426707Y17266421D01*
X11424778Y17260846D01*
X11423938Y17255007D01*
X11423937Y17255001D01*
X11395682Y17058484D01*
X11395681Y17058478D01*
X11394843Y17052645D01*
X10358500Y17052645D01*
X10358500Y27918818D01*
X16249500Y27918818D01*
X16250189Y27914246D01*
X16250190Y27914234D01*
X16287912Y27663971D01*
X16287914Y27663961D01*
X16288604Y27659385D01*
X16289968Y27654959D01*
X16289971Y27654951D01*
X16364569Y27413108D01*
X16364574Y27413093D01*
X16365937Y27408677D01*
X16367944Y27404508D01*
X16367949Y27404497D01*
X16477756Y27176481D01*
X16477759Y27176474D01*
X16479772Y27172296D01*
X16627567Y26955521D01*
X16630713Y26952129D01*
X16630719Y26952123D01*
X16802863Y26766596D01*
X16806019Y26763195D01*
X16809641Y26760306D01*
X16809646Y26760302D01*
X17007516Y26602506D01*
X17007519Y26602503D01*
X17011143Y26599614D01*
X17015159Y26597295D01*
X17015161Y26597294D01*
X17234335Y26470753D01*
X17234346Y26470747D01*
X17238357Y26468432D01*
X17242670Y26466739D01*
X17242681Y26466734D01*
X17478261Y26374276D01*
X17478268Y26374273D01*
X17482584Y26372580D01*
X17487102Y26371548D01*
X17487108Y26371547D01*
X17733850Y26315229D01*
X17733858Y26315227D01*
X17738370Y26314198D01*
X17742989Y26313851D01*
X17742995Y26313851D01*
X17932191Y26299673D01*
X17932203Y26299672D01*
X17934506Y26299500D01*
X18063177Y26299500D01*
X18065494Y26299500D01*
X18067797Y26299672D01*
X18067808Y26299673D01*
X18257004Y26313851D01*
X18257008Y26313851D01*
X18261630Y26314198D01*
X18266143Y26315228D01*
X18266149Y26315229D01*
X18512891Y26371547D01*
X18512893Y26371547D01*
X18517416Y26372580D01*
X18521734Y26374275D01*
X18521738Y26374276D01*
X18757318Y26466734D01*
X18757324Y26466737D01*
X18761643Y26468432D01*
X18765658Y26470750D01*
X18765664Y26470753D01*
X18894216Y26544973D01*
X18988857Y26599614D01*
X19193981Y26763195D01*
X19372433Y26955521D01*
X19520228Y27172296D01*
X19634063Y27408677D01*
X19711396Y27659385D01*
X19750500Y27918818D01*
X19750500Y28050000D01*
X20461384Y28050000D01*
X20462164Y28043077D01*
X20481002Y27875876D01*
X20481003Y27875867D01*
X20481783Y27868953D01*
X20484081Y27862383D01*
X20484083Y27862378D01*
X20539658Y27703553D01*
X20539660Y27703547D01*
X20541957Y27696985D01*
X20545656Y27691097D01*
X20545659Y27691092D01*
X20635181Y27548619D01*
X20635184Y27548614D01*
X20638889Y27542719D01*
X20643813Y27537794D01*
X20643817Y27537790D01*
X20762790Y27418817D01*
X20762794Y27418813D01*
X20767719Y27413889D01*
X20773614Y27410184D01*
X20773619Y27410181D01*
X20916092Y27320659D01*
X20916097Y27320656D01*
X20921985Y27316957D01*
X20928547Y27314660D01*
X20928553Y27314658D01*
X21087378Y27259083D01*
X21087383Y27259081D01*
X21093953Y27256783D01*
X21100867Y27256003D01*
X21100876Y27256002D01*
X21268077Y27237164D01*
X21275000Y27236384D01*
X21281923Y27237164D01*
X21449123Y27256002D01*
X21449130Y27256003D01*
X21456047Y27256783D01*
X21462618Y27259082D01*
X21462621Y27259083D01*
X21621446Y27314658D01*
X21621449Y27314659D01*
X21628015Y27316957D01*
X21782281Y27413889D01*
X21911111Y27542719D01*
X22008043Y27696985D01*
X22068217Y27868953D01*
X22088616Y28050000D01*
X22068217Y28231047D01*
X22008043Y28403015D01*
X21911111Y28557281D01*
X21782281Y28686111D01*
X21628015Y28783043D01*
X21456047Y28843217D01*
X21275000Y28863616D01*
X21093953Y28843217D01*
X20921985Y28783043D01*
X20767719Y28686111D01*
X20638889Y28557281D01*
X20541957Y28403015D01*
X20481783Y28231047D01*
X20481003Y28224130D01*
X20481002Y28224123D01*
X20475642Y28176547D01*
X20461384Y28050000D01*
X19750500Y28050000D01*
X19750500Y28181182D01*
X19711396Y28440615D01*
X19634063Y28691323D01*
X19520228Y28927704D01*
X19372433Y29144479D01*
X19193981Y29336805D01*
X18988857Y29500386D01*
X18761643Y29631568D01*
X18517416Y29727420D01*
X18261630Y29785802D01*
X18065494Y29800500D01*
X17934506Y29800500D01*
X17738370Y29785802D01*
X17482584Y29727420D01*
X17238357Y29631568D01*
X17011143Y29500386D01*
X16806019Y29336805D01*
X16627567Y29144479D01*
X16479772Y28927704D01*
X16477756Y28923519D01*
X16477756Y28923518D01*
X16408324Y28779340D01*
X16365937Y28691323D01*
X16364573Y28686901D01*
X16364569Y28686891D01*
X16289971Y28445048D01*
X16288604Y28440615D01*
X16287913Y28436035D01*
X16287912Y28436028D01*
X16250190Y28185765D01*
X16250189Y28185754D01*
X16249500Y28181182D01*
X16249500Y27918818D01*
X10358500Y27918818D01*
X10358500Y29702839D01*
X10377506Y29768811D01*
X10454340Y29891092D01*
X10458043Y29896985D01*
X10518217Y30068953D01*
X10523835Y30118818D01*
X11249500Y30118818D01*
X11250189Y30114246D01*
X11250190Y30114234D01*
X11287912Y29863971D01*
X11287914Y29863961D01*
X11288604Y29859385D01*
X11289968Y29854959D01*
X11289971Y29854951D01*
X11364569Y29613108D01*
X11364574Y29613093D01*
X11365937Y29608677D01*
X11367944Y29604508D01*
X11367949Y29604497D01*
X11477756Y29376481D01*
X11477759Y29376474D01*
X11479772Y29372296D01*
X11482385Y29368463D01*
X11482387Y29368460D01*
X11503969Y29336805D01*
X11627567Y29155521D01*
X11630713Y29152129D01*
X11630719Y29152123D01*
X11802863Y28966596D01*
X11806019Y28963195D01*
X11809641Y28960306D01*
X11809646Y28960302D01*
X12007516Y28802506D01*
X12007519Y28802503D01*
X12011143Y28799614D01*
X12015159Y28797295D01*
X12015161Y28797294D01*
X12234335Y28670753D01*
X12234346Y28670747D01*
X12238357Y28668432D01*
X12242670Y28666739D01*
X12242681Y28666734D01*
X12478261Y28574276D01*
X12478268Y28574273D01*
X12482584Y28572580D01*
X12487102Y28571548D01*
X12487108Y28571547D01*
X12733850Y28515229D01*
X12733858Y28515227D01*
X12738370Y28514198D01*
X12742989Y28513851D01*
X12742995Y28513851D01*
X12932191Y28499673D01*
X12932203Y28499672D01*
X12934506Y28499500D01*
X13063177Y28499500D01*
X13065494Y28499500D01*
X13067797Y28499672D01*
X13067808Y28499673D01*
X13257004Y28513851D01*
X13257008Y28513851D01*
X13261630Y28514198D01*
X13266143Y28515228D01*
X13266149Y28515229D01*
X13512891Y28571547D01*
X13512893Y28571547D01*
X13517416Y28572580D01*
X13521734Y28574275D01*
X13521738Y28574276D01*
X13757318Y28666734D01*
X13757324Y28666737D01*
X13761643Y28668432D01*
X13765658Y28670750D01*
X13765664Y28670753D01*
X13964135Y28785341D01*
X13988857Y28799614D01*
X14193981Y28963195D01*
X14372433Y29155521D01*
X14520228Y29372296D01*
X14634063Y29608677D01*
X14641648Y29633265D01*
X14710028Y29854951D01*
X14711396Y29859385D01*
X14750500Y30118818D01*
X14750500Y30381182D01*
X14711396Y30640615D01*
X14634063Y30891323D01*
X14520228Y31127704D01*
X14372433Y31344479D01*
X14193981Y31536805D01*
X13988857Y31700386D01*
X13761643Y31831568D01*
X13517416Y31927420D01*
X13261630Y31985802D01*
X13065494Y32000500D01*
X12934506Y32000500D01*
X12738370Y31985802D01*
X12482584Y31927420D01*
X12238357Y31831568D01*
X12011143Y31700386D01*
X11806019Y31536805D01*
X11627567Y31344479D01*
X11479772Y31127704D01*
X11477756Y31123519D01*
X11477756Y31123518D01*
X11408324Y30979340D01*
X11365937Y30891323D01*
X11364573Y30886901D01*
X11364569Y30886891D01*
X11322770Y30751380D01*
X11288604Y30640615D01*
X11287913Y30636035D01*
X11287912Y30636028D01*
X11250190Y30385765D01*
X11250189Y30385754D01*
X11249500Y30381182D01*
X11249500Y30118818D01*
X10523835Y30118818D01*
X10538616Y30250000D01*
X10518217Y30431047D01*
X10458043Y30603015D01*
X10361111Y30757281D01*
X10232281Y30886111D01*
X10078015Y30983043D01*
X9906047Y31043217D01*
X9725000Y31063616D01*
X9543953Y31043217D01*
X9371985Y30983043D01*
X9217719Y30886111D01*
X9088889Y30757281D01*
X8991957Y30603015D01*
X8931783Y30431047D01*
X8931003Y30424130D01*
X8931002Y30424123D01*
X8925642Y30376547D01*
X8911384Y30250000D01*
X8912164Y30243077D01*
X8931002Y30075876D01*
X8931003Y30075867D01*
X8931783Y30068953D01*
X8934081Y30062383D01*
X8934083Y30062378D01*
X8989658Y29903553D01*
X8989660Y29903547D01*
X8991957Y29896985D01*
X8995656Y29891097D01*
X8995659Y29891092D01*
X9072494Y29768811D01*
X9091500Y29702839D01*
X9091500Y21376254D01*
X9077985Y21319959D01*
X9040385Y21275936D01*
X8986898Y21253781D01*
X8929182Y21258323D01*
X8879819Y21288573D01*
X8835884Y21332508D01*
X8782281Y21386111D01*
X8628015Y21483043D01*
X8456047Y21543217D01*
X8410848Y21548309D01*
X8370936Y21559808D01*
X8337062Y21583841D01*
X8194816Y21726088D01*
X8167939Y21766315D01*
X8158500Y21813767D01*
X8158500Y32707645D01*
X8173786Y32767288D01*
X8215875Y32812226D01*
X8274390Y32831380D01*
X8334905Y32820027D01*
X8531427Y32728386D01*
X8531432Y32728383D01*
X8536337Y32726097D01*
X8541557Y32724698D01*
X8541569Y32724694D01*
X8759365Y32666337D01*
X8759371Y32666335D01*
X8764592Y32664937D01*
X8769977Y32664465D01*
X8769982Y32664465D01*
X8938335Y32649736D01*
X8938338Y32649735D01*
X8941034Y32649500D01*
X9056258Y32649500D01*
X9058966Y32649500D01*
X9061662Y32649735D01*
X9061664Y32649736D01*
X9230017Y32664465D01*
X9230020Y32664465D01*
X9235408Y32664937D01*
X9240630Y32666336D01*
X9240634Y32666337D01*
X9458430Y32724694D01*
X9458438Y32724697D01*
X9463663Y32726097D01*
X9677829Y32825965D01*
X9685563Y32831380D01*
X9828368Y32931373D01*
X9871401Y32961505D01*
X10038495Y33128599D01*
X10072901Y33177735D01*
X10170933Y33317740D01*
X10174035Y33322170D01*
X10273903Y33536337D01*
X10335063Y33764592D01*
X10355659Y34000000D01*
X10351053Y34052645D01*
X11394843Y34052645D01*
X11395123Y34046760D01*
X11395123Y34046753D01*
X11400137Y33941515D01*
X11404852Y33842541D01*
X11406243Y33836803D01*
X11406244Y33836803D01*
X11435719Y33715303D01*
X11454442Y33638129D01*
X11456893Y33632760D01*
X11456897Y33632751D01*
X11539363Y33452175D01*
X11539367Y33452166D01*
X11541821Y33446795D01*
X11545247Y33441983D01*
X11545251Y33441977D01*
X11660400Y33280273D01*
X11660404Y33280267D01*
X11663831Y33275456D01*
X11668104Y33271381D01*
X11668109Y33271376D01*
X11811791Y33134376D01*
X11816063Y33130303D01*
X11821026Y33127113D01*
X11821028Y33127112D01*
X11988043Y33019778D01*
X11988048Y33019775D01*
X11993014Y33016584D01*
X11998498Y33014388D01*
X11998501Y33014387D01*
X12182799Y32940604D01*
X12182803Y32940602D01*
X12188288Y32938407D01*
X12194088Y32937289D01*
X12194092Y32937288D01*
X12389031Y32899717D01*
X12389035Y32899716D01*
X12394829Y32898600D01*
X12549514Y32898600D01*
X12552468Y32898600D01*
X12555397Y32898879D01*
X12555403Y32898880D01*
X12703508Y32913022D01*
X12703512Y32913022D01*
X12709389Y32913584D01*
X12715058Y32915248D01*
X12715060Y32915249D01*
X12905545Y32971180D01*
X12905548Y32971181D01*
X12911211Y32972844D01*
X12916460Y32975550D01*
X13092920Y33066522D01*
X13092923Y33066524D01*
X13098170Y33069229D01*
X13193723Y33144372D01*
X13258864Y33195599D01*
X13258866Y33195601D01*
X13263510Y33199253D01*
X13401255Y33358219D01*
X13506426Y33540381D01*
X13575222Y33739154D01*
X13605157Y33947355D01*
X13602649Y34000000D01*
X16029981Y34000000D01*
X16030297Y33995582D01*
X16049716Y33724059D01*
X16049717Y33724048D01*
X16050033Y33719637D01*
X16050973Y33715314D01*
X16050975Y33715303D01*
X16090142Y33535260D01*
X16109781Y33444982D01*
X16111323Y33440845D01*
X16111326Y33440838D01*
X16206460Y33185773D01*
X16206464Y33185762D01*
X16208008Y33181625D01*
X16210125Y33177747D01*
X16210131Y33177735D01*
X16340588Y32938821D01*
X16340592Y32938813D01*
X16342715Y32934927D01*
X16345372Y32931377D01*
X16345375Y32931373D01*
X16508500Y32713463D01*
X16508505Y32713456D01*
X16511159Y32709912D01*
X16514289Y32706781D01*
X16514296Y32706774D01*
X16706774Y32514296D01*
X16706781Y32514289D01*
X16709912Y32511159D01*
X16713456Y32508505D01*
X16713463Y32508500D01*
X16931373Y32345375D01*
X16931377Y32345372D01*
X16934927Y32342715D01*
X16938813Y32340592D01*
X16938821Y32340588D01*
X17177735Y32210131D01*
X17177747Y32210125D01*
X17181625Y32208008D01*
X17185762Y32206464D01*
X17185773Y32206460D01*
X17440838Y32111326D01*
X17440845Y32111323D01*
X17444982Y32109781D01*
X17449305Y32108840D01*
X17449307Y32108840D01*
X17715303Y32050975D01*
X17715314Y32050973D01*
X17719637Y32050033D01*
X17724048Y32049717D01*
X17724059Y32049716D01*
X17927614Y32035158D01*
X17927617Y32035157D01*
X17929825Y32035000D01*
X18067960Y32035000D01*
X18070175Y32035000D01*
X18072383Y32035157D01*
X18072385Y32035158D01*
X18275940Y32049716D01*
X18275949Y32049717D01*
X18280363Y32050033D01*
X18284687Y32050973D01*
X18284696Y32050975D01*
X18550692Y32108840D01*
X18555018Y32109781D01*
X18559157Y32111325D01*
X18559161Y32111326D01*
X18814226Y32206460D01*
X18814232Y32206462D01*
X18818375Y32208008D01*
X18822257Y32210128D01*
X18822264Y32210131D01*
X19061178Y32340588D01*
X19061179Y32340589D01*
X19065073Y32342715D01*
X19290088Y32511159D01*
X19488841Y32709912D01*
X19657285Y32934927D01*
X19791992Y33181625D01*
X19890219Y33444982D01*
X19949967Y33719637D01*
X19970019Y34000000D01*
X19966254Y34052645D01*
X22394843Y34052645D01*
X22395123Y34046760D01*
X22395123Y34046753D01*
X22400137Y33941515D01*
X22404852Y33842541D01*
X22406243Y33836803D01*
X22406244Y33836803D01*
X22435719Y33715303D01*
X22454442Y33638129D01*
X22456893Y33632760D01*
X22456897Y33632751D01*
X22539363Y33452175D01*
X22539367Y33452166D01*
X22541821Y33446795D01*
X22545247Y33441983D01*
X22545251Y33441977D01*
X22660400Y33280273D01*
X22660404Y33280267D01*
X22663831Y33275456D01*
X22668104Y33271381D01*
X22668109Y33271376D01*
X22811791Y33134376D01*
X22816063Y33130303D01*
X22821026Y33127113D01*
X22821028Y33127112D01*
X22988043Y33019778D01*
X22988048Y33019775D01*
X22993014Y33016584D01*
X22998498Y33014388D01*
X22998501Y33014387D01*
X23182799Y32940604D01*
X23182803Y32940602D01*
X23188288Y32938407D01*
X23194088Y32937289D01*
X23194092Y32937288D01*
X23389031Y32899717D01*
X23389035Y32899716D01*
X23394829Y32898600D01*
X23549514Y32898600D01*
X23552468Y32898600D01*
X23555397Y32898879D01*
X23555403Y32898880D01*
X23703508Y32913022D01*
X23703512Y32913022D01*
X23709389Y32913584D01*
X23715058Y32915248D01*
X23715060Y32915249D01*
X23905545Y32971180D01*
X23905548Y32971181D01*
X23911211Y32972844D01*
X23916460Y32975550D01*
X24092920Y33066522D01*
X24092923Y33066524D01*
X24098170Y33069229D01*
X24193723Y33144372D01*
X24258864Y33195599D01*
X24258866Y33195601D01*
X24263510Y33199253D01*
X24401255Y33358219D01*
X24506426Y33540381D01*
X24575222Y33739154D01*
X24605157Y33947355D01*
X24595148Y34157459D01*
X24545558Y34361871D01*
X24458179Y34553205D01*
X24336169Y34724544D01*
X24183937Y34869697D01*
X24006986Y34983416D01*
X23811712Y35061593D01*
X23605171Y35101400D01*
X23447532Y35101400D01*
X23290611Y35086416D01*
X23088789Y35027156D01*
X22901830Y34930771D01*
X22736490Y34800747D01*
X22732621Y34796282D01*
X22670460Y34724544D01*
X22598745Y34641781D01*
X22493574Y34459619D01*
X22491641Y34454035D01*
X22491639Y34454030D01*
X22426709Y34266427D01*
X22426707Y34266421D01*
X22424778Y34260846D01*
X22423938Y34255007D01*
X22423937Y34255001D01*
X22395682Y34058484D01*
X22395681Y34058478D01*
X22394843Y34052645D01*
X19966254Y34052645D01*
X19949967Y34280363D01*
X19890219Y34555018D01*
X19791992Y34818375D01*
X19657285Y35065073D01*
X19488841Y35290088D01*
X19290088Y35488841D01*
X19065073Y35657285D01*
X18818375Y35791992D01*
X18555018Y35890219D01*
X18280363Y35949967D01*
X18070175Y35965000D01*
X17929825Y35965000D01*
X17719637Y35949967D01*
X17444982Y35890219D01*
X17181625Y35791992D01*
X16934927Y35657285D01*
X16709912Y35488841D01*
X16511159Y35290088D01*
X16342715Y35065073D01*
X16340589Y35061179D01*
X16340588Y35061178D01*
X16210131Y34822264D01*
X16210128Y34822257D01*
X16208008Y34818375D01*
X16206462Y34814232D01*
X16206460Y34814226D01*
X16155587Y34677829D01*
X16109781Y34555018D01*
X16108840Y34550692D01*
X16050975Y34284696D01*
X16050973Y34284687D01*
X16050033Y34280363D01*
X16049717Y34275949D01*
X16049716Y34275940D01*
X16040821Y34151561D01*
X16029981Y34000000D01*
X13602649Y34000000D01*
X13595148Y34157459D01*
X13545558Y34361871D01*
X13458179Y34553205D01*
X13336169Y34724544D01*
X13183937Y34869697D01*
X13006986Y34983416D01*
X12811712Y35061593D01*
X12605171Y35101400D01*
X12447532Y35101400D01*
X12290611Y35086416D01*
X12088789Y35027156D01*
X11901830Y34930771D01*
X11736490Y34800747D01*
X11732621Y34796282D01*
X11670460Y34724544D01*
X11598745Y34641781D01*
X11493574Y34459619D01*
X11491641Y34454035D01*
X11491639Y34454030D01*
X11426709Y34266427D01*
X11426707Y34266421D01*
X11424778Y34260846D01*
X11423938Y34255007D01*
X11423937Y34255001D01*
X11395682Y34058484D01*
X11395681Y34058478D01*
X11394843Y34052645D01*
X10351053Y34052645D01*
X10335063Y34235408D01*
X10273903Y34463663D01*
X10174035Y34677829D01*
X10038495Y34871401D01*
X9871401Y35038495D01*
X9677829Y35174035D01*
X9463663Y35273903D01*
X9235408Y35335063D01*
X9058966Y35350500D01*
X8941034Y35350500D01*
X8764592Y35335063D01*
X8536337Y35273903D01*
X8351634Y35187774D01*
X8334905Y35179973D01*
X8274390Y35168620D01*
X8215875Y35187774D01*
X8173786Y35232712D01*
X8158500Y35292355D01*
X8158500Y36686234D01*
X8167939Y36733687D01*
X8194819Y36773915D01*
X8337055Y36916151D01*
X8370934Y36940190D01*
X8410851Y36951690D01*
X8449130Y36956003D01*
X8449135Y36956004D01*
X8456047Y36956783D01*
X8497095Y36971146D01*
X8621446Y37014658D01*
X8621449Y37014659D01*
X8628015Y37016957D01*
X8645218Y37027766D01*
X8776380Y37110181D01*
X8782281Y37113889D01*
X8911111Y37242719D01*
X9008043Y37396985D01*
X9068217Y37568953D01*
X9088616Y37750000D01*
X9068217Y37931047D01*
X9008043Y38103015D01*
X8911111Y38257281D01*
X8782281Y38386111D01*
X8628015Y38483043D01*
X8456047Y38543217D01*
X8275000Y38563616D01*
X8093953Y38543217D01*
X7921985Y38483043D01*
X7767719Y38386111D01*
X7638889Y38257281D01*
X7541957Y38103015D01*
X7481783Y37931047D01*
X7481003Y37924124D01*
X7476690Y37885851D01*
X7465190Y37845934D01*
X7441151Y37812056D01*
X7132790Y37503695D01*
X7124448Y37496103D01*
X7117982Y37492000D01*
X7071326Y37442316D01*
X7068645Y37439550D01*
X7048865Y37419770D01*
X7046474Y37416689D01*
X7046473Y37416687D01*
X7046317Y37416486D01*
X7038746Y37407624D01*
X7013754Y37381009D01*
X7013749Y37381003D01*
X7008414Y37375321D01*
X7004658Y37368488D01*
X7004653Y37368482D01*
X6998576Y37357429D01*
X6987899Y37341174D01*
X6980170Y37331209D01*
X6975386Y37325041D01*
X6959568Y37288487D01*
X6957789Y37284376D01*
X6952649Y37273885D01*
X6931305Y37235060D01*
X6930380Y37231460D01*
X6906689Y37199122D01*
X6909820Y37165527D01*
X6904888Y37134385D01*
X6902521Y37122955D01*
X6891500Y37080030D01*
X6891500Y37072228D01*
X6891500Y37059615D01*
X6889973Y37040217D01*
X6886780Y37020057D01*
X6591386Y37020057D01*
X6634063Y37108677D01*
X6668856Y37221473D01*
X6695594Y37265169D01*
X6697795Y37315290D01*
X6710027Y37354947D01*
X6710028Y37354951D01*
X6711396Y37359385D01*
X6750500Y37618818D01*
X6750500Y37881182D01*
X6711396Y38140615D01*
X6634063Y38391323D01*
X6520228Y38627704D01*
X6372433Y38844479D01*
X6193981Y39036805D01*
X5988857Y39200386D01*
X5761643Y39331568D01*
X5517416Y39427420D01*
X5261630Y39485802D01*
X5065494Y39500500D01*
X4934506Y39500500D01*
X4738370Y39485802D01*
X4482584Y39427420D01*
X4238357Y39331568D01*
X4011143Y39200386D01*
X3806019Y39036805D01*
X3627567Y38844479D01*
X3479772Y38627704D01*
X3477756Y38623519D01*
X3477756Y38623518D01*
X3408324Y38479340D01*
X3365937Y38391323D01*
X3364573Y38386901D01*
X3364569Y38386891D01*
X3289971Y38145048D01*
X3288604Y38140615D01*
X3287913Y38136035D01*
X3287912Y38136028D01*
X3250190Y37885765D01*
X3250189Y37885754D01*
X3249500Y37881182D01*
X3249500Y37618818D01*
X-8924500Y37618818D01*
X-8924500Y39950000D01*
X-4088616Y39950000D01*
X-4068217Y39768953D01*
X-4008043Y39596985D01*
X-3911111Y39442719D01*
X-3782281Y39313889D01*
X-3628015Y39216957D01*
X-3621449Y39214659D01*
X-3621446Y39214658D01*
X-3462621Y39159083D01*
X-3462618Y39159082D01*
X-3456047Y39156783D01*
X-3449130Y39156003D01*
X-3449123Y39156002D01*
X-3281923Y39137164D01*
X-3275000Y39136384D01*
X-3268077Y39137164D01*
X-3100876Y39156002D01*
X-3100867Y39156003D01*
X-3093953Y39156783D01*
X-3087383Y39159081D01*
X-3087378Y39159083D01*
X-2928553Y39214658D01*
X-2928547Y39214660D01*
X-2921985Y39216957D01*
X-2916097Y39220656D01*
X-2916092Y39220659D01*
X-2773619Y39310181D01*
X-2773614Y39310184D01*
X-2767719Y39313889D01*
X-2762794Y39318813D01*
X-2762790Y39318817D01*
X-2643817Y39437790D01*
X-2643813Y39437794D01*
X-2638889Y39442719D01*
X-2635184Y39448614D01*
X-2635181Y39448619D01*
X-2545659Y39591092D01*
X-2545656Y39591097D01*
X-2541957Y39596985D01*
X-2539660Y39603547D01*
X-2539658Y39603553D01*
X-2484083Y39762378D01*
X-2484081Y39762383D01*
X-2481783Y39768953D01*
X-2481003Y39775867D01*
X-2481002Y39775876D01*
X-2476164Y39818818D01*
X-1750500Y39818818D01*
X-1711396Y39559385D01*
X-1710028Y39554951D01*
X-1641648Y39333265D01*
X-1634063Y39308677D01*
X-1520228Y39072296D01*
X-1372433Y38855521D01*
X-1193981Y38663195D01*
X-988857Y38499614D01*
X-964135Y38485341D01*
X-765664Y38370753D01*
X-765658Y38370750D01*
X-761643Y38368432D01*
X-757324Y38366737D01*
X-757318Y38366734D01*
X-521738Y38274276D01*
X-521734Y38274275D01*
X-517416Y38272580D01*
X-512893Y38271547D01*
X-512891Y38271547D01*
X-266149Y38215229D01*
X-266143Y38215228D01*
X-261630Y38214198D01*
X-257008Y38213851D01*
X-257004Y38213851D01*
X-67808Y38199673D01*
X-67797Y38199672D01*
X-65494Y38199500D01*
X63177Y38199500D01*
X65494Y38199500D01*
X67797Y38199672D01*
X67808Y38199673D01*
X257004Y38213851D01*
X257008Y38213851D01*
X261630Y38214198D01*
X266143Y38215228D01*
X266149Y38215229D01*
X512891Y38271547D01*
X512893Y38271547D01*
X517416Y38272580D01*
X521734Y38274275D01*
X521738Y38274276D01*
X757318Y38366734D01*
X757324Y38366737D01*
X761643Y38368432D01*
X765658Y38370750D01*
X765664Y38370753D01*
X964135Y38485341D01*
X988857Y38499614D01*
X1193981Y38663195D01*
X1372433Y38855521D01*
X1520228Y39072296D01*
X1634063Y39308677D01*
X1641648Y39333265D01*
X1710028Y39554951D01*
X1711396Y39559385D01*
X1750500Y39818818D01*
X1750500Y40081182D01*
X1711396Y40340615D01*
X1634063Y40591323D01*
X1520228Y40827704D01*
X1372433Y41044479D01*
X1193981Y41236805D01*
X988857Y41400386D01*
X761643Y41531568D01*
X517416Y41627420D01*
X261630Y41685802D01*
X65494Y41700500D01*
X-65494Y41700500D01*
X-261630Y41685802D01*
X-517416Y41627420D01*
X-761643Y41531568D01*
X-988857Y41400386D01*
X-1193981Y41236805D01*
X-1372433Y41044479D01*
X-1520228Y40827704D01*
X-1634063Y40591323D01*
X-1711396Y40340615D01*
X-1750500Y40081182D01*
X-1750500Y39818818D01*
X-2476164Y39818818D01*
X-2462164Y39943077D01*
X-2461384Y39950000D01*
X-2475642Y40076547D01*
X-2481002Y40124123D01*
X-2481003Y40124130D01*
X-2481783Y40131047D01*
X-2541957Y40303015D01*
X-2638889Y40457281D01*
X-2767719Y40586111D01*
X-2921985Y40683043D01*
X-3093953Y40743217D01*
X-3275000Y40763616D01*
X-3456047Y40743217D01*
X-3628015Y40683043D01*
X-3782281Y40586111D01*
X-3911111Y40457281D01*
X-4008043Y40303015D01*
X-4068217Y40131047D01*
X-4088616Y39950000D01*
X-8924500Y39950000D01*
X-8924500Y40995125D01*
X-8924118Y41004854D01*
X-8907727Y41213113D01*
X-8904683Y41232331D01*
X-8857058Y41430705D01*
X-8851045Y41449211D01*
X-8772972Y41637694D01*
X-8764138Y41655031D01*
X-8657543Y41828977D01*
X-8646106Y41844719D01*
X-8513610Y41999852D01*
X-8499852Y42013610D01*
X-8344719Y42146106D01*
X-8328977Y42157543D01*
X-8155031Y42264138D01*
X-8137694Y42272972D01*
X-7949211Y42351045D01*
X-7930705Y42357058D01*
X-7732331Y42404683D01*
X-7713113Y42407727D01*
X-7504854Y42424118D01*
X-7495125Y42424500D01*
X-7475469Y42424500D01*
X25475469Y42424500D01*
X25495125Y42424500D01*
X25504854Y42424118D01*
G37*
%TD.AperFunction*%
M02*
