%TF.GenerationSoftware,KiCad,Pcbnew,(7.0.0-0)*%
%TF.CreationDate,2023-02-22T17:53:04+08:00*%
%TF.ProjectId,thumb,7468756d-622e-46b6-9963-61645f706362,v1.0.0*%
%TF.SameCoordinates,Original*%
%TF.FileFunction,Copper,L2,Bot*%
%TF.FilePolarity,Positive*%
%FSLAX46Y46*%
G04 Gerber Fmt 4.6, Leading zero omitted, Abs format (unit mm)*
G04 Created by KiCad (PCBNEW (7.0.0-0)) date 2023-02-22 17:53:04*
%MOMM*%
%LPD*%
G01*
G04 APERTURE LIST*
G04 Aperture macros list*
%AMRoundRect*
0 Rectangle with rounded corners*
0 $1 Rounding radius*
0 $2 $3 $4 $5 $6 $7 $8 $9 X,Y pos of 4 corners*
0 Add a 4 corners polygon primitive as box body*
4,1,4,$2,$3,$4,$5,$6,$7,$8,$9,$2,$3,0*
0 Add four circle primitives for the rounded corners*
1,1,$1+$1,$2,$3*
1,1,$1+$1,$4,$5*
1,1,$1+$1,$6,$7*
1,1,$1+$1,$8,$9*
0 Add four rect primitives between the rounded corners*
20,1,$1+$1,$2,$3,$4,$5,0*
20,1,$1+$1,$4,$5,$6,$7,0*
20,1,$1+$1,$6,$7,$8,$9,0*
20,1,$1+$1,$8,$9,$2,$3,0*%
G04 Aperture macros list end*
%TA.AperFunction,SMDPad,CuDef*%
%ADD10R,2.600000X2.600000*%
%TD*%
%TA.AperFunction,ComponentPad*%
%ADD11C,0.600000*%
%TD*%
%TA.AperFunction,SMDPad,CuDef*%
%ADD12R,0.600000X0.700000*%
%TD*%
%TA.AperFunction,SMDPad,CuDef*%
%ADD13RoundRect,0.150000X-0.625000X0.150000X-0.625000X-0.150000X0.625000X-0.150000X0.625000X0.150000X0*%
%TD*%
%TA.AperFunction,SMDPad,CuDef*%
%ADD14RoundRect,0.250000X-0.650000X0.350000X-0.650000X-0.350000X0.650000X-0.350000X0.650000X0.350000X0*%
%TD*%
%TA.AperFunction,Conductor*%
%ADD15C,0.250000*%
%TD*%
G04 APERTURE END LIST*
D10*
%TO.P,S1,1*%
%TO.N,C5R0D*%
X21274999Y28049999D03*
%TO.P,S1,2*%
%TO.N,C5*%
X9724999Y30249999D03*
D11*
%TO.P,S1,3*%
%TO.N,C5R0D*%
X21275000Y28050000D03*
%TO.P,S1,4*%
%TO.N,C5*%
X9725000Y30250000D03*
%TD*%
D12*
%TO.P,D1,1*%
%TO.N,R0*%
X20899999Y31399999D03*
%TO.P,D1,2*%
%TO.N,C5R0D*%
X22299999Y31399999D03*
%TD*%
D10*
%TO.P,S2,1*%
%TO.N,C5R1D*%
X21274999Y11049999D03*
%TO.P,S2,2*%
%TO.N,C5*%
X9724999Y13249999D03*
D11*
%TO.P,S2,3*%
%TO.N,C5R1D*%
X21275000Y11050000D03*
%TO.P,S2,4*%
%TO.N,C5*%
X9725000Y13250000D03*
%TD*%
D12*
%TO.P,D2,1*%
%TO.N,R1*%
X20899999Y14399999D03*
%TO.P,D2,2*%
%TO.N,C5R1D*%
X22299999Y14399999D03*
%TD*%
D10*
%TO.P,S3,1*%
%TO.N,C5R2D*%
X21274999Y-5949999D03*
%TO.P,S3,2*%
%TO.N,C5*%
X9724999Y-3749999D03*
D11*
%TO.P,S3,3*%
%TO.N,C5R2D*%
X21275000Y-5950000D03*
%TO.P,S3,4*%
%TO.N,C5*%
X9725000Y-3750000D03*
%TD*%
D12*
%TO.P,D3,1*%
%TO.N,R2*%
X20899999Y-2599999D03*
%TO.P,D3,2*%
%TO.N,C5R2D*%
X22299999Y-2599999D03*
%TD*%
D10*
%TO.P,S4,1*%
%TO.N,C6R0D*%
X-3274999Y39949999D03*
%TO.P,S4,2*%
%TO.N,C6*%
X8274999Y37749999D03*
D11*
%TO.P,S4,3*%
%TO.N,C6R0D*%
X-3275000Y39950000D03*
%TO.P,S4,4*%
%TO.N,C6*%
X8275000Y37750000D03*
%TD*%
D12*
%TO.P,D4,1*%
%TO.N,R0*%
X-2899999Y36599999D03*
%TO.P,D4,2*%
%TO.N,C6R0D*%
X-4299999Y36599999D03*
%TD*%
D10*
%TO.P,S5,1*%
%TO.N,C6R1D*%
X-3274999Y22949999D03*
%TO.P,S5,2*%
%TO.N,C6*%
X8274999Y20749999D03*
D11*
%TO.P,S5,3*%
%TO.N,C6R1D*%
X-3275000Y22950000D03*
%TO.P,S5,4*%
%TO.N,C6*%
X8275000Y20750000D03*
%TD*%
D12*
%TO.P,D5,1*%
%TO.N,R1*%
X-2899999Y19599999D03*
%TO.P,D5,2*%
%TO.N,C6R1D*%
X-4299999Y19599999D03*
%TD*%
D10*
%TO.P,S6,1*%
%TO.N,C6R2D*%
X-3274999Y5949999D03*
%TO.P,S6,2*%
%TO.N,C6*%
X8274999Y3749999D03*
D11*
%TO.P,S6,3*%
%TO.N,C6R2D*%
X-3275000Y5950000D03*
%TO.P,S6,4*%
%TO.N,C6*%
X8275000Y3750000D03*
%TD*%
D12*
%TO.P,D6,1*%
%TO.N,R2*%
X-2899999Y2599999D03*
%TO.P,D6,2*%
%TO.N,C6R2D*%
X-4299999Y2599999D03*
%TD*%
D13*
%TO.P,JC1,5*%
%TO.N,R2*%
X11000000Y20500000D03*
%TO.P,JC1,4*%
%TO.N,R1*%
X11000000Y21500000D03*
%TO.P,JC1,3*%
%TO.N,R0*%
X11000000Y22500000D03*
%TO.P,JC1,2*%
%TO.N,C6*%
X11000000Y23500000D03*
%TO.P,JC1,1*%
%TO.N,C5*%
X11000000Y24500000D03*
D14*
%TO.P,JC1,MP*%
%TO.N,N/C*%
X14875000Y25800000D03*
X14875000Y19200000D03*
%TD*%
D15*
%TO.N,C5*%
X11000000Y24500000D02*
X9725000Y25775000D01*
X9725000Y25775000D02*
X9725000Y30250000D01*
%TO.N,C5R0D*%
X21275000Y30375000D02*
X22300000Y31400000D01*
X21275000Y28050000D02*
X21275000Y30375000D01*
%TO.N,R0*%
X18975000Y22500000D02*
X11000000Y22500000D01*
X7914035Y22500000D02*
X11000000Y22500000D01*
X20900000Y31400000D02*
X21575000Y32075000D01*
X22925000Y26450000D02*
X18975000Y22500000D01*
X21575000Y32075000D02*
X22925000Y32075000D01*
X-2900000Y33314035D02*
X7914035Y22500000D01*
X22925000Y32075000D02*
X22925000Y26450000D01*
X-2900000Y36600000D02*
X-2900000Y33314035D01*
%TO.N,C5R1D*%
X21275000Y11050000D02*
X21275000Y13375000D01*
X21275000Y13375000D02*
X22300000Y14400000D01*
%TO.N,R1*%
X9900000Y20153249D02*
X9900000Y20846751D01*
X4223350Y18875000D02*
X9650000Y18875000D01*
X9650000Y18875000D02*
X9900000Y19125000D01*
X10178249Y19875000D02*
X9900000Y20153249D01*
X20900000Y14400000D02*
X17296751Y14400000D01*
X10553249Y21500000D02*
X11000000Y21500000D01*
X11821751Y19875000D02*
X10178249Y19875000D01*
X3498350Y19600000D02*
X4223350Y18875000D01*
X9900000Y19125000D02*
X9900000Y20153249D01*
X17296751Y14400000D02*
X11821751Y19875000D01*
X9900000Y20846751D02*
X10553249Y21500000D01*
X-2900000Y19600000D02*
X3498350Y19600000D01*
%TO.N,C5R2D*%
X21275000Y-3625000D02*
X22300000Y-2600000D01*
X21275000Y-5950000D02*
X21275000Y-3625000D01*
%TO.N,R2*%
X22925000Y8691316D02*
X13529149Y-704535D01*
X13529149Y-704535D02*
X13529149Y-1627499D01*
X865499Y-2089500D02*
X-865499Y-2089500D01*
X13529149Y-1627499D02*
X1327499Y-1627499D01*
X1327499Y-1627499D02*
X865499Y-2089500D01*
X14501650Y-2600000D02*
X13529149Y-1627499D01*
X-2900000Y-54999D02*
X-2900000Y2600000D01*
X17500000Y20500000D02*
X22925000Y15075000D01*
X22925000Y15075000D02*
X22925000Y8691316D01*
X-865499Y-2089500D02*
X-2900000Y-54999D01*
X20900000Y-2600000D02*
X14501650Y-2600000D01*
X11000000Y20500000D02*
X17500000Y20500000D01*
%TO.N,C6*%
X14875000Y29473350D02*
X14875000Y33358684D01*
X11000000Y23500000D02*
X11446751Y23500000D01*
X14875000Y33358684D02*
X10483684Y37750000D01*
X10483684Y37750000D02*
X8275000Y37750000D01*
X11446751Y23500000D02*
X13650000Y25703249D01*
X13650000Y25703249D02*
X13650000Y28248350D01*
X13650000Y28248350D02*
X14875000Y29473350D01*
%TO.N,C6R0D*%
X-3275000Y37625000D02*
X-4300000Y36600000D01*
X-3275000Y39950000D02*
X-3275000Y37625000D01*
%TO.N,C6R1D*%
X-3275000Y20625000D02*
X-4300000Y19600000D01*
X-3275000Y22950000D02*
X-3275000Y20625000D01*
%TO.N,C6R2D*%
X-3275000Y3625000D02*
X-4300000Y2600000D01*
X-3275000Y5950000D02*
X-3275000Y3625000D01*
%TD*%
%TA.AperFunction,NonConductor*%
G36*
X25504854Y42424118D02*
G01*
X25713113Y42407727D01*
X25732331Y42404683D01*
X25930705Y42357058D01*
X25949211Y42351045D01*
X26137694Y42272972D01*
X26155031Y42264139D01*
X26328981Y42157543D01*
X26344722Y42146106D01*
X26499859Y42013606D01*
X26513606Y41999859D01*
X26641029Y41850665D01*
X26646106Y41844722D01*
X26657543Y41828981D01*
X26764139Y41655031D01*
X26772972Y41637694D01*
X26851045Y41449211D01*
X26857058Y41430705D01*
X26904683Y41232331D01*
X26907727Y41213113D01*
X26924118Y41004854D01*
X26924500Y40995125D01*
X26924500Y-6995125D01*
X26924118Y-7004854D01*
X26907727Y-7213113D01*
X26904683Y-7232331D01*
X26857058Y-7430705D01*
X26851045Y-7449211D01*
X26772972Y-7637694D01*
X26764139Y-7655031D01*
X26657543Y-7828981D01*
X26646105Y-7844722D01*
X26513606Y-7999859D01*
X26499859Y-8013606D01*
X26350665Y-8141029D01*
X26344722Y-8146106D01*
X26328981Y-8157543D01*
X26155031Y-8264139D01*
X26137694Y-8272972D01*
X25949211Y-8351045D01*
X25930705Y-8357058D01*
X25732331Y-8404683D01*
X25713113Y-8407727D01*
X25504854Y-8424118D01*
X25495125Y-8424500D01*
X-7495125Y-8424500D01*
X-7504854Y-8424118D01*
X-7713113Y-8407727D01*
X-7732331Y-8404683D01*
X-7930705Y-8357058D01*
X-7949211Y-8351045D01*
X-8137694Y-8272972D01*
X-8155031Y-8264138D01*
X-8328977Y-8157543D01*
X-8344719Y-8146106D01*
X-8499852Y-8013610D01*
X-8513610Y-7999852D01*
X-8646106Y-7844719D01*
X-8657543Y-7828977D01*
X-8764138Y-7655031D01*
X-8772972Y-7637694D01*
X-8851045Y-7449211D01*
X-8857058Y-7430705D01*
X-8904683Y-7232331D01*
X-8907727Y-7213113D01*
X-8924118Y-7004854D01*
X-8924500Y-6995125D01*
X-8924500Y52645D01*
X-6605157Y52645D01*
X-6595148Y-157459D01*
X-6545558Y-361871D01*
X-6458179Y-553205D01*
X-6336169Y-724544D01*
X-6183937Y-869697D01*
X-6006986Y-983416D01*
X-5811712Y-1061593D01*
X-5605171Y-1101400D01*
X-5450486Y-1101400D01*
X-5447532Y-1101400D01*
X-5290611Y-1086416D01*
X-5088789Y-1027156D01*
X-4901830Y-930771D01*
X-4736490Y-800747D01*
X-4673994Y-728623D01*
X-4602611Y-646243D01*
X-4602609Y-646240D01*
X-4598745Y-641781D01*
X-4493574Y-459619D01*
X-4491641Y-454035D01*
X-4491639Y-454030D01*
X-4426709Y-266427D01*
X-4426707Y-266421D01*
X-4424778Y-260846D01*
X-4423938Y-255007D01*
X-4423937Y-255001D01*
X-4395682Y-58484D01*
X-4395681Y-58478D01*
X-4394843Y-52645D01*
X-4395123Y-46760D01*
X-4395123Y-46753D01*
X-4404571Y151561D01*
X-4404852Y157459D01*
X-4429429Y258768D01*
X-4453049Y356130D01*
X-4453049Y356132D01*
X-4454442Y361871D01*
X-4456895Y367242D01*
X-4456897Y367248D01*
X-4539363Y547824D01*
X-4539366Y547829D01*
X-4541821Y553205D01*
X-4663831Y724544D01*
X-4816063Y869697D01*
X-4993014Y983416D01*
X-5188288Y1061593D01*
X-5394829Y1101400D01*
X-5552468Y1101400D01*
X-5709389Y1086416D01*
X-5911211Y1027156D01*
X-6098170Y930771D01*
X-6263510Y800747D01*
X-6401255Y641781D01*
X-6506426Y459619D01*
X-6575222Y260846D01*
X-6605157Y52645D01*
X-8924500Y52645D01*
X-8924500Y2201362D01*
X-5108500Y2201362D01*
X-5101989Y2140799D01*
X-5050889Y2003796D01*
X-4963261Y1886739D01*
X-4956164Y1881426D01*
X-4900569Y1839808D01*
X-4846204Y1799111D01*
X-4837896Y1796012D01*
X-4837894Y1796011D01*
X-4716463Y1750719D01*
X-4716458Y1750717D01*
X-4709201Y1748011D01*
X-4701497Y1747182D01*
X-4701494Y1747182D01*
X-4651924Y1741853D01*
X-4651918Y1741852D01*
X-4648638Y1741500D01*
X-3954672Y1741500D01*
X-3951362Y1741500D01*
X-3948082Y1741852D01*
X-3948075Y1741853D01*
X-3898505Y1747182D01*
X-3898500Y1747182D01*
X-3890799Y1748011D01*
X-3883543Y1750717D01*
X-3883536Y1750719D01*
X-3762105Y1796011D01*
X-3762099Y1796013D01*
X-3753796Y1799111D01*
X-3746698Y1804423D01*
X-3746695Y1804426D01*
X-3731811Y1815569D01*
X-3668553Y1839808D01*
X-3601996Y1827186D01*
X-3552005Y1781469D01*
X-3533500Y1716302D01*
X-3533500Y23847D01*
X-3534031Y12563D01*
X-3535702Y5092D01*
X-3535372Y-5395D01*
X-3533561Y-63016D01*
X-3533500Y-66912D01*
X-3533500Y-94855D01*
X-3533011Y-98722D01*
X-3533011Y-98723D01*
X-3532983Y-98946D01*
X-3532064Y-110607D01*
X-3530673Y-154888D01*
X-3524977Y-174489D01*
X-3521032Y-193540D01*
X-3518474Y-213796D01*
X-3512051Y-230017D01*
X-3502163Y-254992D01*
X-3498379Y-266042D01*
X-3486018Y-308592D01*
X-3475625Y-326164D01*
X-3467068Y-343631D01*
X-3459552Y-362616D01*
X-3433498Y-398474D01*
X-3427096Y-408222D01*
X-3404542Y-446361D01*
X-3392472Y-458430D01*
X-3390112Y-460790D01*
X-3377472Y-475587D01*
X-3365472Y-492106D01*
X-3331318Y-520359D01*
X-3322699Y-528202D01*
X-1369185Y-2481717D01*
X-1361601Y-2490052D01*
X-1357499Y-2496518D01*
X-1307794Y-2543191D01*
X-1305093Y-2545809D01*
X-1285269Y-2565635D01*
X-1282016Y-2568158D01*
X-1273123Y-2575751D01*
X-1240820Y-2606086D01*
X-1222924Y-2615923D01*
X-1206676Y-2626596D01*
X-1190540Y-2639114D01*
X-1149863Y-2656715D01*
X-1139386Y-2661848D01*
X-1100559Y-2683195D01*
X-1080772Y-2688274D01*
X-1062384Y-2694570D01*
X-1043644Y-2702681D01*
X-999875Y-2709612D01*
X-988441Y-2711981D01*
X-945529Y-2723000D01*
X-925114Y-2723000D01*
X-905715Y-2724527D01*
X-885556Y-2727720D01*
X-847739Y-2724145D01*
X-841441Y-2723550D01*
X-829772Y-2723000D01*
X786653Y-2723000D01*
X797936Y-2723531D01*
X805408Y-2725202D01*
X873516Y-2723060D01*
X877412Y-2723000D01*
X901457Y-2723000D01*
X905355Y-2723000D01*
X909223Y-2722511D01*
X909446Y-2722483D01*
X921108Y-2721564D01*
X965389Y-2720173D01*
X984986Y-2714478D01*
X1004041Y-2710532D01*
X1024296Y-2707974D01*
X1065492Y-2691662D01*
X1076541Y-2687880D01*
X1119093Y-2675518D01*
X1129262Y-2669503D01*
X1136663Y-2665127D01*
X1154136Y-2656566D01*
X1173116Y-2649052D01*
X1208973Y-2622999D01*
X1218711Y-2616603D01*
X1256862Y-2594041D01*
X1271292Y-2579610D01*
X1286087Y-2566972D01*
X1302606Y-2554972D01*
X1330860Y-2520817D01*
X1338703Y-2512198D01*
X1553584Y-2297317D01*
X1593812Y-2270438D01*
X1641265Y-2260999D01*
X7793544Y-2260999D01*
X7859336Y-2279892D01*
X7905079Y-2330814D01*
X7916214Y-2394696D01*
X7917032Y-2394740D01*
X7916853Y-2398075D01*
X7916500Y-2401362D01*
X7916500Y-5098638D01*
X7923011Y-5159201D01*
X7925717Y-5166458D01*
X7925719Y-5166463D01*
X7937293Y-5197493D01*
X7974111Y-5296204D01*
X8061739Y-5413261D01*
X8178796Y-5500889D01*
X8315799Y-5551989D01*
X8376362Y-5558500D01*
X11070328Y-5558500D01*
X11073638Y-5558500D01*
X11134201Y-5551989D01*
X11271204Y-5500889D01*
X11388261Y-5413261D01*
X11475889Y-5296204D01*
X11526989Y-5159201D01*
X11533500Y-5098638D01*
X11533500Y-5059046D01*
X11547439Y-5001926D01*
X11586124Y-4957649D01*
X11640855Y-4936168D01*
X11699329Y-4942314D01*
X11748398Y-4974704D01*
X11806019Y-5036805D01*
X12011143Y-5200386D01*
X12238357Y-5331568D01*
X12482584Y-5427420D01*
X12738370Y-5485802D01*
X12934506Y-5500500D01*
X13063177Y-5500500D01*
X13065494Y-5500500D01*
X13261630Y-5485802D01*
X13517416Y-5427420D01*
X13761643Y-5331568D01*
X13988857Y-5200386D01*
X14193981Y-5036805D01*
X14372433Y-4844479D01*
X14520228Y-4627704D01*
X14634063Y-4391323D01*
X14711396Y-4140615D01*
X14750500Y-3881182D01*
X14750500Y-3618818D01*
X14749809Y-3614232D01*
X14713898Y-3375981D01*
X14717359Y-3323173D01*
X14742524Y-3276616D01*
X14784810Y-3244793D01*
X14836513Y-3233500D01*
X20114961Y-3233500D01*
X20170465Y-3246616D01*
X20214226Y-3283187D01*
X20236739Y-3313261D01*
X20353796Y-3400889D01*
X20490799Y-3451989D01*
X20528065Y-3455995D01*
X20528545Y-3456047D01*
X20590071Y-3480424D01*
X20630296Y-3532974D01*
X20636703Y-3589394D01*
X20638246Y-3589443D01*
X20638000Y-3597234D01*
X20636780Y-3604943D01*
X20637514Y-3612708D01*
X20637514Y-3612711D01*
X20640950Y-3649058D01*
X20641500Y-3660727D01*
X20641500Y-4017500D01*
X20624887Y-4079500D01*
X20579500Y-4124887D01*
X20517500Y-4141500D01*
X19926362Y-4141500D01*
X19923082Y-4141852D01*
X19923075Y-4141853D01*
X19873505Y-4147182D01*
X19873500Y-4147182D01*
X19865799Y-4148011D01*
X19858543Y-4150717D01*
X19858536Y-4150719D01*
X19737105Y-4196011D01*
X19737099Y-4196013D01*
X19728796Y-4199111D01*
X19721698Y-4204423D01*
X19721695Y-4204426D01*
X19618835Y-4281426D01*
X19618831Y-4281429D01*
X19611739Y-4286739D01*
X19606429Y-4293831D01*
X19606426Y-4293835D01*
X19529426Y-4396695D01*
X19529423Y-4396698D01*
X19524111Y-4403796D01*
X19521013Y-4412099D01*
X19521011Y-4412105D01*
X19475719Y-4533536D01*
X19475717Y-4533543D01*
X19473011Y-4540799D01*
X19472182Y-4548500D01*
X19472182Y-4548505D01*
X19466853Y-4598075D01*
X19466500Y-4601362D01*
X19466500Y-4604672D01*
X19466500Y-4640954D01*
X19452561Y-4698074D01*
X19413876Y-4742351D01*
X19359145Y-4763832D01*
X19300671Y-4757686D01*
X19251601Y-4725295D01*
X19197136Y-4666595D01*
X19197134Y-4666593D01*
X19193981Y-4663195D01*
X18988857Y-4499614D01*
X18837287Y-4412105D01*
X18765664Y-4370753D01*
X18765658Y-4370750D01*
X18761643Y-4368432D01*
X18757324Y-4366737D01*
X18757318Y-4366734D01*
X18521738Y-4274276D01*
X18521734Y-4274275D01*
X18517416Y-4272580D01*
X18512893Y-4271547D01*
X18512891Y-4271547D01*
X18266149Y-4215229D01*
X18266143Y-4215228D01*
X18261630Y-4214198D01*
X18257008Y-4213851D01*
X18257004Y-4213851D01*
X18067808Y-4199673D01*
X18067797Y-4199672D01*
X18065494Y-4199500D01*
X17934506Y-4199500D01*
X17932203Y-4199672D01*
X17932191Y-4199673D01*
X17742995Y-4213851D01*
X17742989Y-4213851D01*
X17738370Y-4214198D01*
X17733858Y-4215227D01*
X17733850Y-4215229D01*
X17487108Y-4271547D01*
X17487102Y-4271548D01*
X17482584Y-4272580D01*
X17478268Y-4274273D01*
X17478261Y-4274276D01*
X17242681Y-4366734D01*
X17242670Y-4366739D01*
X17238357Y-4368432D01*
X17234346Y-4370747D01*
X17234335Y-4370753D01*
X17015161Y-4497294D01*
X17011143Y-4499614D01*
X17007519Y-4502503D01*
X17007516Y-4502506D01*
X16809646Y-4660302D01*
X16809641Y-4660306D01*
X16806019Y-4663195D01*
X16802865Y-4666593D01*
X16802863Y-4666596D01*
X16630719Y-4852123D01*
X16630713Y-4852129D01*
X16627567Y-4855521D01*
X16624957Y-4859348D01*
X16624957Y-4859349D01*
X16488806Y-5059046D01*
X16479772Y-5072296D01*
X16477759Y-5076474D01*
X16477756Y-5076481D01*
X16367949Y-5304497D01*
X16367944Y-5304508D01*
X16365937Y-5308677D01*
X16364574Y-5313093D01*
X16364569Y-5313108D01*
X16289971Y-5554951D01*
X16289968Y-5554959D01*
X16288604Y-5559385D01*
X16287914Y-5563961D01*
X16287912Y-5563971D01*
X16250190Y-5814234D01*
X16250189Y-5814246D01*
X16249500Y-5818818D01*
X16249500Y-6081182D01*
X16250189Y-6085754D01*
X16250190Y-6085765D01*
X16287912Y-6336028D01*
X16287913Y-6336035D01*
X16288604Y-6340615D01*
X16289969Y-6345043D01*
X16289971Y-6345048D01*
X16364569Y-6586891D01*
X16364573Y-6586901D01*
X16365937Y-6591323D01*
X16479772Y-6827704D01*
X16627567Y-7044479D01*
X16806019Y-7236805D01*
X17011143Y-7400386D01*
X17238357Y-7531568D01*
X17482584Y-7627420D01*
X17738370Y-7685802D01*
X17934506Y-7700500D01*
X18063177Y-7700500D01*
X18065494Y-7700500D01*
X18261630Y-7685802D01*
X18517416Y-7627420D01*
X18761643Y-7531568D01*
X18988857Y-7400386D01*
X19193981Y-7236805D01*
X19251601Y-7174704D01*
X19300671Y-7142314D01*
X19359145Y-7136168D01*
X19413876Y-7157649D01*
X19452561Y-7201926D01*
X19466500Y-7259046D01*
X19466500Y-7298638D01*
X19473011Y-7359201D01*
X19475717Y-7366458D01*
X19475719Y-7366463D01*
X19506583Y-7449211D01*
X19524111Y-7496204D01*
X19611739Y-7613261D01*
X19728796Y-7700889D01*
X19865799Y-7751989D01*
X19926362Y-7758500D01*
X22620328Y-7758500D01*
X22623638Y-7758500D01*
X22684201Y-7751989D01*
X22821204Y-7700889D01*
X22938261Y-7613261D01*
X23025889Y-7496204D01*
X23076989Y-7359201D01*
X23083500Y-7298638D01*
X23083500Y-4601362D01*
X23076989Y-4540799D01*
X23025889Y-4403796D01*
X22938261Y-4286739D01*
X22921612Y-4274276D01*
X22828304Y-4204426D01*
X22828303Y-4204425D01*
X22821204Y-4199111D01*
X22812896Y-4196012D01*
X22812894Y-4196011D01*
X22691463Y-4150719D01*
X22691458Y-4150717D01*
X22684201Y-4148011D01*
X22676497Y-4147182D01*
X22676494Y-4147182D01*
X22626924Y-4141853D01*
X22626918Y-4141852D01*
X22623638Y-4141500D01*
X22620328Y-4141500D01*
X22032500Y-4141500D01*
X21970500Y-4124887D01*
X21925113Y-4079500D01*
X21908500Y-4017500D01*
X21908500Y-3938766D01*
X21917939Y-3891313D01*
X21944819Y-3851085D01*
X22301086Y-3494819D01*
X22341314Y-3467939D01*
X22388767Y-3458500D01*
X22645328Y-3458500D01*
X22648638Y-3458500D01*
X22709201Y-3451989D01*
X22846204Y-3400889D01*
X22963261Y-3313261D01*
X23050889Y-3196204D01*
X23101989Y-3059201D01*
X23108500Y-2998638D01*
X23108500Y-2201362D01*
X23101989Y-2140799D01*
X23050889Y-2003796D01*
X22963261Y-1886739D01*
X22954941Y-1880511D01*
X22853304Y-1804426D01*
X22853303Y-1804425D01*
X22846204Y-1799111D01*
X22837896Y-1796012D01*
X22837894Y-1796011D01*
X22716463Y-1750719D01*
X22716458Y-1750717D01*
X22709201Y-1748011D01*
X22701497Y-1747182D01*
X22701494Y-1747182D01*
X22651924Y-1741853D01*
X22651918Y-1741852D01*
X22648638Y-1741500D01*
X21951362Y-1741500D01*
X21948082Y-1741852D01*
X21948075Y-1741853D01*
X21898505Y-1747182D01*
X21898500Y-1747182D01*
X21890799Y-1748011D01*
X21883543Y-1750717D01*
X21883536Y-1750719D01*
X21762105Y-1796011D01*
X21762099Y-1796013D01*
X21753796Y-1799111D01*
X21746700Y-1804422D01*
X21746696Y-1804425D01*
X21674310Y-1858613D01*
X21626358Y-1880511D01*
X21573642Y-1880511D01*
X21525690Y-1858613D01*
X21453303Y-1804425D01*
X21453301Y-1804424D01*
X21446204Y-1799111D01*
X21437896Y-1796012D01*
X21437894Y-1796011D01*
X21316463Y-1750719D01*
X21316458Y-1750717D01*
X21309201Y-1748011D01*
X21301497Y-1747182D01*
X21301494Y-1747182D01*
X21251924Y-1741853D01*
X21251918Y-1741852D01*
X21248638Y-1741500D01*
X20551362Y-1741500D01*
X20548082Y-1741852D01*
X20548075Y-1741853D01*
X20498505Y-1747182D01*
X20498500Y-1747182D01*
X20490799Y-1748011D01*
X20483543Y-1750717D01*
X20483536Y-1750719D01*
X20362105Y-1796011D01*
X20362099Y-1796013D01*
X20353796Y-1799111D01*
X20346698Y-1804423D01*
X20346695Y-1804426D01*
X20243836Y-1881426D01*
X20236739Y-1886739D01*
X20231427Y-1893834D01*
X20231427Y-1893835D01*
X20214228Y-1916811D01*
X20170465Y-1953384D01*
X20114961Y-1966500D01*
X18984615Y-1966500D01*
X18922105Y-1949591D01*
X18876642Y-1903475D01*
X18860628Y-1840729D01*
X18878428Y-1778467D01*
X18925188Y-1733668D01*
X18949620Y-1720326D01*
X19065073Y-1657285D01*
X19290088Y-1488841D01*
X19488841Y-1290088D01*
X19657285Y-1065073D01*
X19791992Y-818375D01*
X19890219Y-555018D01*
X19949967Y-280363D01*
X19970019Y0D01*
X19966254Y52645D01*
X22394843Y52645D01*
X22395123Y46760D01*
X22395123Y46753D01*
X22402341Y-104758D01*
X22404852Y-157459D01*
X22423762Y-235408D01*
X22441516Y-308592D01*
X22454442Y-361871D01*
X22456895Y-367242D01*
X22456897Y-367248D01*
X22539363Y-547824D01*
X22539365Y-547828D01*
X22541821Y-553205D01*
X22663831Y-724544D01*
X22816063Y-869697D01*
X22993014Y-983416D01*
X23188288Y-1061593D01*
X23394829Y-1101400D01*
X23549514Y-1101400D01*
X23552468Y-1101400D01*
X23709389Y-1086416D01*
X23911211Y-1027156D01*
X24098170Y-930771D01*
X24263510Y-800747D01*
X24401255Y-641781D01*
X24506426Y-459619D01*
X24575222Y-260846D01*
X24605157Y-52645D01*
X24595148Y157459D01*
X24545558Y361871D01*
X24458179Y553205D01*
X24336169Y724544D01*
X24183937Y869697D01*
X24006986Y983416D01*
X23811712Y1061593D01*
X23605171Y1101400D01*
X23447532Y1101400D01*
X23290611Y1086416D01*
X23088789Y1027156D01*
X22901830Y930771D01*
X22736490Y800747D01*
X22732621Y796282D01*
X22629982Y677830D01*
X22598745Y641781D01*
X22493574Y459619D01*
X22491641Y454035D01*
X22491639Y454030D01*
X22426709Y266427D01*
X22426707Y266421D01*
X22424778Y260846D01*
X22423938Y255007D01*
X22423937Y255001D01*
X22395682Y58484D01*
X22395681Y58478D01*
X22394843Y52645D01*
X19966254Y52645D01*
X19949967Y280363D01*
X19890219Y555018D01*
X19791992Y818375D01*
X19657285Y1065073D01*
X19488841Y1290088D01*
X19290088Y1488841D01*
X19065073Y1657285D01*
X18818375Y1791992D01*
X18555018Y1890219D01*
X18280363Y1949967D01*
X18070175Y1965000D01*
X17929825Y1965000D01*
X17719637Y1949967D01*
X17444982Y1890219D01*
X17309825Y1839808D01*
X17300972Y1836506D01*
X17234751Y1830819D01*
X17175105Y1860144D01*
X17139172Y1916058D01*
X17137274Y1982495D01*
X17169957Y2040369D01*
X18743823Y3614234D01*
X23317207Y8187618D01*
X23325555Y8195214D01*
X23332018Y8199316D01*
X23378674Y8249000D01*
X23381353Y8251764D01*
X23398378Y8268789D01*
X23401135Y8271546D01*
X23403674Y8274819D01*
X23411259Y8283699D01*
X23436246Y8310308D01*
X23436246Y8310309D01*
X23441586Y8315995D01*
X23451418Y8333881D01*
X23462102Y8350145D01*
X23469831Y8360108D01*
X23469833Y8360111D01*
X23474614Y8366275D01*
X23492207Y8406932D01*
X23497348Y8417427D01*
X23499052Y8420527D01*
X23518695Y8456256D01*
X23523772Y8476032D01*
X23530075Y8494439D01*
X23535081Y8506007D01*
X23535081Y8506008D01*
X23538181Y8513171D01*
X23545112Y8556937D01*
X23547477Y8568357D01*
X23558500Y8611286D01*
X23558500Y8631701D01*
X23560027Y8651099D01*
X23560072Y8651387D01*
X23563220Y8671259D01*
X23559050Y8715374D01*
X23558500Y8727043D01*
X23558500Y14996152D01*
X23559031Y15007436D01*
X23560702Y15014908D01*
X23558560Y15083030D01*
X23558500Y15086925D01*
X23558500Y15110958D01*
X23558500Y15114856D01*
X23557984Y15118938D01*
X23557065Y15130603D01*
X23556726Y15141387D01*
X23555674Y15174889D01*
X23549976Y15194501D01*
X23546033Y15213538D01*
X23543474Y15233797D01*
X23527166Y15274985D01*
X23523383Y15286034D01*
X23513196Y15321099D01*
X23511019Y15328593D01*
X23500622Y15346171D01*
X23492065Y15363639D01*
X23484552Y15382617D01*
X23458503Y15418468D01*
X23452100Y15428217D01*
X23429542Y15466362D01*
X23415110Y15480793D01*
X23402472Y15495588D01*
X23390472Y15512107D01*
X23356318Y15540360D01*
X23347699Y15548203D01*
X23188372Y15707530D01*
X23156751Y15761408D01*
X23155412Y15823869D01*
X23184699Y15879054D01*
X23237175Y15912956D01*
X23299521Y15916968D01*
X23389029Y15899717D01*
X23389037Y15899716D01*
X23394829Y15898600D01*
X23549514Y15898600D01*
X23552468Y15898600D01*
X23555397Y15898879D01*
X23555403Y15898880D01*
X23703508Y15913022D01*
X23703512Y15913022D01*
X23709389Y15913584D01*
X23715058Y15915248D01*
X23715060Y15915249D01*
X23905545Y15971180D01*
X23905548Y15971181D01*
X23911211Y15972844D01*
X23916460Y15975550D01*
X24092920Y16066522D01*
X24092923Y16066524D01*
X24098170Y16069229D01*
X24193723Y16144372D01*
X24258864Y16195599D01*
X24258866Y16195601D01*
X24263510Y16199253D01*
X24401255Y16358219D01*
X24506426Y16540381D01*
X24575222Y16739154D01*
X24605157Y16947355D01*
X24595148Y17157459D01*
X24545558Y17361871D01*
X24458179Y17553205D01*
X24336169Y17724544D01*
X24183937Y17869697D01*
X24006986Y17983416D01*
X23811712Y18061593D01*
X23605171Y18101400D01*
X23447532Y18101400D01*
X23290611Y18086416D01*
X23088789Y18027156D01*
X22901830Y17930771D01*
X22736490Y17800747D01*
X22732621Y17796282D01*
X22670460Y17724544D01*
X22598745Y17641781D01*
X22493574Y17459619D01*
X22491641Y17454035D01*
X22491639Y17454030D01*
X22426709Y17266427D01*
X22426707Y17266421D01*
X22424778Y17260846D01*
X22423938Y17255007D01*
X22423937Y17255001D01*
X22395682Y17058484D01*
X22395681Y17058478D01*
X22394843Y17052645D01*
X22395123Y17046760D01*
X22395123Y17046753D01*
X22403992Y16860595D01*
X22404852Y16842541D01*
X22406241Y16836812D01*
X22406244Y16836797D01*
X22413304Y16807697D01*
X22411941Y16744095D01*
X22379218Y16689540D01*
X22323750Y16658390D01*
X22260135Y16658844D01*
X22205120Y16690782D01*
X18003686Y20892217D01*
X17996102Y20900552D01*
X17992000Y20907018D01*
X17942296Y20953691D01*
X17939595Y20956308D01*
X17919770Y20976135D01*
X17916513Y20978660D01*
X17907624Y20986251D01*
X17875321Y21016586D01*
X17857425Y21026423D01*
X17841177Y21037096D01*
X17825041Y21049614D01*
X17784364Y21067215D01*
X17773884Y21072350D01*
X17741899Y21089935D01*
X17735060Y21093695D01*
X17715273Y21098774D01*
X17696885Y21105070D01*
X17678145Y21113181D01*
X17634376Y21120112D01*
X17622942Y21122481D01*
X17580030Y21133500D01*
X17572229Y21133500D01*
X17559615Y21133500D01*
X17540217Y21135027D01*
X17539972Y21135065D01*
X17520057Y21138220D01*
X17482240Y21134645D01*
X17475942Y21134050D01*
X17464273Y21133500D01*
X12405838Y21133500D01*
X12341049Y21151772D01*
X12295354Y21201203D01*
X12282220Y21267226D01*
X12283308Y21281055D01*
X12283308Y21281062D01*
X12283500Y21283498D01*
X12283500Y21716502D01*
X12282808Y21725295D01*
X12282220Y21732774D01*
X12295354Y21798797D01*
X12341049Y21848228D01*
X12405838Y21866500D01*
X18896154Y21866500D01*
X18907437Y21865968D01*
X18914909Y21864298D01*
X18922705Y21864543D01*
X18922707Y21864543D01*
X18983017Y21866439D01*
X18986913Y21866500D01*
X19010961Y21866500D01*
X19014856Y21866500D01*
X19018721Y21866988D01*
X19018732Y21866989D01*
X19018970Y21867019D01*
X19030596Y21867934D01*
X19067096Y21869081D01*
X19067103Y21869082D01*
X19074889Y21869327D01*
X19082370Y21871500D01*
X19082380Y21871502D01*
X19094495Y21875022D01*
X19113542Y21878967D01*
X19126058Y21880548D01*
X19126060Y21880548D01*
X19133797Y21881526D01*
X19141045Y21884395D01*
X19141054Y21884398D01*
X19175001Y21897838D01*
X19186048Y21901621D01*
X19198698Y21905296D01*
X19228593Y21913982D01*
X19235310Y21917954D01*
X19246168Y21924375D01*
X19263631Y21932930D01*
X19275364Y21937576D01*
X19275365Y21937576D01*
X19282617Y21940448D01*
X19318462Y21966491D01*
X19328227Y21972905D01*
X19359644Y21991485D01*
X19366362Y21995458D01*
X19380793Y22009889D01*
X19395588Y22022525D01*
X19405791Y22029938D01*
X19405796Y22029943D01*
X19412107Y22034528D01*
X19440350Y22068668D01*
X19448212Y22077308D01*
X23317198Y25946294D01*
X23325551Y25953896D01*
X23332018Y25958000D01*
X23378658Y26007668D01*
X23381369Y26010465D01*
X23398380Y26027476D01*
X23401135Y26030231D01*
X23403660Y26033486D01*
X23411254Y26042379D01*
X23441586Y26074679D01*
X23451421Y26092570D01*
X23462101Y26108827D01*
X23469833Y26118796D01*
X23469833Y26118797D01*
X23474614Y26124960D01*
X23492208Y26165619D01*
X23497349Y26176112D01*
X23505196Y26190385D01*
X23518695Y26214940D01*
X23523773Y26234718D01*
X23530074Y26253120D01*
X23535083Y26264696D01*
X23538181Y26271855D01*
X23545112Y26315621D01*
X23547477Y26327041D01*
X23558500Y26369970D01*
X23558500Y26390385D01*
X23560027Y26409783D01*
X23560072Y26410071D01*
X23563220Y26429943D01*
X23559050Y26474058D01*
X23558500Y26485727D01*
X23558500Y32003393D01*
X23560697Y32026629D01*
X23560813Y32027241D01*
X23560813Y32027242D01*
X23562275Y32034906D01*
X23558745Y32091015D01*
X23558500Y32098801D01*
X23558500Y32110963D01*
X23558500Y32114856D01*
X23556485Y32130800D01*
X23555756Y32138516D01*
X23552225Y32194650D01*
X23549622Y32202658D01*
X23544529Y32225445D01*
X23544451Y32226058D01*
X23543474Y32233797D01*
X23522771Y32286085D01*
X23520139Y32293398D01*
X23519677Y32294819D01*
X23502764Y32346875D01*
X23498253Y32353981D01*
X23487649Y32374793D01*
X23484552Y32382617D01*
X23451502Y32428104D01*
X23447141Y32434521D01*
X23417000Y32482018D01*
X23410861Y32487781D01*
X23395418Y32505298D01*
X23390472Y32512107D01*
X23347137Y32547955D01*
X23341320Y32553084D01*
X23300321Y32591586D01*
X23292945Y32595640D01*
X23273631Y32608766D01*
X23267144Y32614133D01*
X23216262Y32638075D01*
X23209340Y32641602D01*
X23160060Y32668695D01*
X23151898Y32670790D01*
X23129936Y32678697D01*
X23122318Y32682283D01*
X23067072Y32692821D01*
X23059515Y32694509D01*
X23005030Y32708500D01*
X22997229Y32708500D01*
X22996607Y32708500D01*
X22973371Y32710697D01*
X22972758Y32710813D01*
X22972757Y32710813D01*
X22965094Y32712275D01*
X22913833Y32709050D01*
X22908985Y32708745D01*
X22901199Y32708500D01*
X21653846Y32708500D01*
X21642562Y32709031D01*
X21635091Y32710702D01*
X21566983Y32708561D01*
X21563087Y32708500D01*
X21535144Y32708500D01*
X21531041Y32707981D01*
X21519390Y32707064D01*
X21475110Y32705673D01*
X21467622Y32703497D01*
X21467619Y32703497D01*
X21460385Y32701394D01*
X21455513Y32699979D01*
X21436452Y32696031D01*
X21416203Y32693474D01*
X21408952Y32690603D01*
X21375005Y32677162D01*
X21363949Y32673377D01*
X21321407Y32661018D01*
X21303824Y32650619D01*
X21286371Y32642070D01*
X21267383Y32634552D01*
X21231530Y32608503D01*
X21221779Y32602098D01*
X21216484Y32598967D01*
X21183638Y32579542D01*
X21178120Y32574024D01*
X21169203Y32565107D01*
X21154407Y32552470D01*
X21137893Y32540472D01*
X21132920Y32534460D01*
X21132916Y32534457D01*
X21109643Y32506325D01*
X21101781Y32497685D01*
X20898915Y32294819D01*
X20858687Y32267939D01*
X20811234Y32258500D01*
X20551362Y32258500D01*
X20490799Y32251989D01*
X20353796Y32200889D01*
X20236739Y32113261D01*
X20149111Y31996204D01*
X20146012Y31987896D01*
X20146011Y31987894D01*
X20100719Y31866463D01*
X20100717Y31866458D01*
X20098011Y31859201D01*
X20097182Y31851497D01*
X20097182Y31851494D01*
X20091853Y31801924D01*
X20091500Y31798638D01*
X20091500Y31001362D01*
X20091852Y30998082D01*
X20091853Y30998075D01*
X20097182Y30948505D01*
X20097182Y30948500D01*
X20098011Y30940799D01*
X20100717Y30933543D01*
X20100719Y30933536D01*
X20146011Y30812105D01*
X20146013Y30812099D01*
X20149111Y30803796D01*
X20154423Y30796698D01*
X20154426Y30796695D01*
X20231426Y30693835D01*
X20231429Y30693831D01*
X20236739Y30686739D01*
X20243831Y30681429D01*
X20243835Y30681426D01*
X20346695Y30604426D01*
X20346698Y30604423D01*
X20353796Y30599111D01*
X20362099Y30596013D01*
X20362105Y30596011D01*
X20483536Y30550719D01*
X20483543Y30550717D01*
X20490799Y30548011D01*
X20498498Y30547183D01*
X20498512Y30547180D01*
X20528548Y30543951D01*
X20590073Y30519573D01*
X20630298Y30467022D01*
X20636703Y30410605D01*
X20638246Y30410557D01*
X20638000Y30402765D01*
X20636780Y30395057D01*
X20637514Y30387291D01*
X20637514Y30387288D01*
X20640950Y30350942D01*
X20641500Y30339273D01*
X20641500Y29982500D01*
X20624887Y29920500D01*
X20579500Y29875113D01*
X20517500Y29858500D01*
X19926362Y29858500D01*
X19865799Y29851989D01*
X19728796Y29800889D01*
X19611739Y29713261D01*
X19524111Y29596204D01*
X19521012Y29587896D01*
X19521011Y29587894D01*
X19475719Y29466463D01*
X19475717Y29466458D01*
X19473011Y29459201D01*
X19466500Y29398638D01*
X19466500Y29395328D01*
X19466500Y29359046D01*
X19452561Y29301926D01*
X19413876Y29257649D01*
X19359145Y29236168D01*
X19300671Y29242314D01*
X19251601Y29274705D01*
X19193981Y29336805D01*
X18988857Y29500386D01*
X18761643Y29631568D01*
X18517416Y29727420D01*
X18261630Y29785802D01*
X18065494Y29800500D01*
X17934506Y29800500D01*
X17738370Y29785802D01*
X17482584Y29727420D01*
X17238357Y29631568D01*
X17011143Y29500386D01*
X16806019Y29336805D01*
X16627567Y29144479D01*
X16479772Y28927704D01*
X16477756Y28923519D01*
X16477756Y28923518D01*
X16371944Y28703796D01*
X16365937Y28691323D01*
X16364573Y28686901D01*
X16364569Y28686891D01*
X16289971Y28445048D01*
X16288604Y28440615D01*
X16287913Y28436035D01*
X16287912Y28436028D01*
X16250190Y28185765D01*
X16250189Y28185754D01*
X16249500Y28181182D01*
X16249500Y27918818D01*
X16250189Y27914246D01*
X16250190Y27914234D01*
X16287912Y27663971D01*
X16287914Y27663961D01*
X16288604Y27659385D01*
X16289968Y27654959D01*
X16289971Y27654951D01*
X16364569Y27413108D01*
X16364574Y27413093D01*
X16365937Y27408677D01*
X16367944Y27404508D01*
X16367949Y27404497D01*
X16477756Y27176481D01*
X16477759Y27176474D01*
X16479772Y27172296D01*
X16627567Y26955521D01*
X16630713Y26952129D01*
X16630719Y26952123D01*
X16773656Y26798074D01*
X16806019Y26763195D01*
X16809641Y26760306D01*
X16809646Y26760302D01*
X17007516Y26602506D01*
X17007519Y26602503D01*
X17011143Y26599614D01*
X17015159Y26597295D01*
X17015161Y26597294D01*
X17234335Y26470753D01*
X17234346Y26470747D01*
X17238357Y26468432D01*
X17242670Y26466739D01*
X17242681Y26466734D01*
X17478261Y26374276D01*
X17478268Y26374273D01*
X17482584Y26372580D01*
X17487102Y26371548D01*
X17487108Y26371547D01*
X17733850Y26315229D01*
X17733858Y26315227D01*
X17738370Y26314198D01*
X17742989Y26313851D01*
X17742995Y26313851D01*
X17932191Y26299673D01*
X17932203Y26299672D01*
X17934506Y26299500D01*
X18063177Y26299500D01*
X18065494Y26299500D01*
X18067797Y26299672D01*
X18067808Y26299673D01*
X18257004Y26313851D01*
X18257008Y26313851D01*
X18261630Y26314198D01*
X18266143Y26315228D01*
X18266149Y26315229D01*
X18512891Y26371547D01*
X18512893Y26371547D01*
X18517416Y26372580D01*
X18521734Y26374275D01*
X18521738Y26374276D01*
X18757318Y26466734D01*
X18757324Y26466737D01*
X18761643Y26468432D01*
X18765658Y26470750D01*
X18765664Y26470753D01*
X18894216Y26544973D01*
X18988857Y26599614D01*
X19193981Y26763195D01*
X19251601Y26825295D01*
X19300671Y26857686D01*
X19359145Y26863832D01*
X19413876Y26842351D01*
X19452561Y26798074D01*
X19466500Y26740954D01*
X19466500Y26701362D01*
X19466852Y26698082D01*
X19466853Y26698075D01*
X19472182Y26648505D01*
X19472182Y26648500D01*
X19473011Y26640799D01*
X19475717Y26633543D01*
X19475719Y26633536D01*
X19521011Y26512105D01*
X19521013Y26512099D01*
X19524111Y26503796D01*
X19529423Y26496698D01*
X19529426Y26496695D01*
X19606426Y26393835D01*
X19606429Y26393831D01*
X19611739Y26386739D01*
X19618831Y26381429D01*
X19618835Y26381426D01*
X19721695Y26304426D01*
X19721698Y26304423D01*
X19728796Y26299111D01*
X19737099Y26296013D01*
X19737105Y26296011D01*
X19858536Y26250719D01*
X19858543Y26250717D01*
X19865799Y26248011D01*
X19873500Y26247182D01*
X19873505Y26247182D01*
X19923075Y26241853D01*
X19923082Y26241852D01*
X19926362Y26241500D01*
X21521234Y26241500D01*
X21577529Y26227985D01*
X21621552Y26190385D01*
X21643707Y26136898D01*
X21639165Y26079182D01*
X21608915Y26029819D01*
X20112360Y24533265D01*
X18748914Y23169819D01*
X18708686Y23142939D01*
X18661233Y23133500D01*
X12405838Y23133500D01*
X12341049Y23151772D01*
X12295354Y23201203D01*
X12282220Y23267226D01*
X12283308Y23281055D01*
X12283308Y23281062D01*
X12283500Y23283498D01*
X12283500Y23389483D01*
X12292939Y23436936D01*
X12319819Y23477164D01*
X13646316Y24803661D01*
X13692718Y24832908D01*
X13747197Y24839275D01*
X13799093Y24821519D01*
X13896108Y24761679D01*
X13896120Y24761673D01*
X13902262Y24757885D01*
X13909115Y24755613D01*
X13909122Y24755611D01*
X14064149Y24704241D01*
X14064157Y24704239D01*
X14070574Y24702113D01*
X14077302Y24701425D01*
X14077305Y24701425D01*
X14171325Y24691819D01*
X14171340Y24691818D01*
X14174455Y24691500D01*
X14177601Y24691500D01*
X14177602Y24691500D01*
X15572395Y24691500D01*
X15572414Y24691500D01*
X15575544Y24691501D01*
X15578657Y24691819D01*
X15578676Y24691820D01*
X15672686Y24701424D01*
X15672691Y24701425D01*
X15679426Y24702113D01*
X15691094Y24705979D01*
X15840877Y24755611D01*
X15840880Y24755612D01*
X15847738Y24757885D01*
X15853881Y24761674D01*
X15853887Y24761677D01*
X15979691Y24839275D01*
X15998652Y24850970D01*
X16124030Y24976348D01*
X16217115Y25127262D01*
X16272887Y25295574D01*
X16283500Y25399455D01*
X16283499Y26200544D01*
X16272887Y26304426D01*
X16217115Y26472738D01*
X16124030Y26623652D01*
X15998652Y26749030D01*
X15847738Y26842115D01*
X15679426Y26897887D01*
X15575545Y26908500D01*
X14407499Y26908499D01*
X14345500Y26925112D01*
X14300113Y26970499D01*
X14283500Y27032499D01*
X14283500Y27934584D01*
X14292939Y27982037D01*
X14319819Y28022265D01*
X15267198Y28969644D01*
X15275551Y28977246D01*
X15282018Y28981350D01*
X15328658Y29031018D01*
X15331369Y29033815D01*
X15348380Y29050826D01*
X15351135Y29053581D01*
X15353660Y29056836D01*
X15361254Y29065729D01*
X15391586Y29098029D01*
X15401421Y29115920D01*
X15412101Y29132177D01*
X15419833Y29142146D01*
X15419833Y29142147D01*
X15424614Y29148310D01*
X15442208Y29188969D01*
X15447349Y29199462D01*
X15464935Y29231451D01*
X15468695Y29238290D01*
X15473773Y29258068D01*
X15480074Y29276470D01*
X15485083Y29288046D01*
X15488181Y29295205D01*
X15495112Y29338971D01*
X15497477Y29350391D01*
X15508500Y29393320D01*
X15508500Y29413735D01*
X15510027Y29433133D01*
X15510072Y29433421D01*
X15513220Y29453293D01*
X15509050Y29497408D01*
X15508500Y29509077D01*
X15508500Y33279836D01*
X15509031Y33291120D01*
X15510702Y33298592D01*
X15508560Y33366714D01*
X15508500Y33370609D01*
X15508500Y33394642D01*
X15508500Y33398540D01*
X15507984Y33402622D01*
X15507065Y33414287D01*
X15505674Y33458573D01*
X15499976Y33478185D01*
X15496033Y33497222D01*
X15493474Y33517481D01*
X15477166Y33558669D01*
X15473383Y33569718D01*
X15463196Y33604783D01*
X15461019Y33612277D01*
X15450622Y33629855D01*
X15442065Y33647323D01*
X15434552Y33666301D01*
X15408503Y33702152D01*
X15402100Y33711901D01*
X15379542Y33750046D01*
X15365110Y33764477D01*
X15352472Y33779272D01*
X15340472Y33795791D01*
X15306318Y33824044D01*
X15297699Y33831887D01*
X15129586Y34000000D01*
X16029981Y34000000D01*
X16030297Y33995582D01*
X16049716Y33724059D01*
X16049717Y33724048D01*
X16050033Y33719637D01*
X16050973Y33715314D01*
X16050975Y33715303D01*
X16108840Y33449307D01*
X16109781Y33444982D01*
X16111323Y33440845D01*
X16111326Y33440838D01*
X16206460Y33185773D01*
X16206464Y33185762D01*
X16208008Y33181625D01*
X16210125Y33177747D01*
X16210131Y33177735D01*
X16340588Y32938821D01*
X16340592Y32938813D01*
X16342715Y32934927D01*
X16345372Y32931377D01*
X16345375Y32931373D01*
X16508500Y32713463D01*
X16508505Y32713456D01*
X16511159Y32709912D01*
X16514289Y32706781D01*
X16514296Y32706774D01*
X16706774Y32514296D01*
X16706781Y32514289D01*
X16709912Y32511159D01*
X16713456Y32508505D01*
X16713463Y32508500D01*
X16931373Y32345375D01*
X16931377Y32345372D01*
X16934927Y32342715D01*
X16938813Y32340592D01*
X16938821Y32340588D01*
X17177735Y32210131D01*
X17177747Y32210125D01*
X17181625Y32208008D01*
X17185762Y32206464D01*
X17185773Y32206460D01*
X17440838Y32111326D01*
X17440845Y32111323D01*
X17444982Y32109781D01*
X17449305Y32108840D01*
X17449307Y32108840D01*
X17715303Y32050975D01*
X17715314Y32050973D01*
X17719637Y32050033D01*
X17724048Y32049717D01*
X17724059Y32049716D01*
X17927614Y32035158D01*
X17927617Y32035157D01*
X17929825Y32035000D01*
X18067960Y32035000D01*
X18070175Y32035000D01*
X18072383Y32035157D01*
X18072385Y32035158D01*
X18275940Y32049716D01*
X18275949Y32049717D01*
X18280363Y32050033D01*
X18284687Y32050973D01*
X18284696Y32050975D01*
X18550692Y32108840D01*
X18555018Y32109781D01*
X18559157Y32111325D01*
X18559161Y32111326D01*
X18814226Y32206460D01*
X18814232Y32206462D01*
X18818375Y32208008D01*
X18822257Y32210128D01*
X18822264Y32210131D01*
X19061178Y32340588D01*
X19061179Y32340589D01*
X19065073Y32342715D01*
X19290088Y32511159D01*
X19488841Y32709912D01*
X19657285Y32934927D01*
X19791992Y33181625D01*
X19890219Y33444982D01*
X19949967Y33719637D01*
X19970019Y34000000D01*
X19966254Y34052645D01*
X22394843Y34052645D01*
X22395123Y34046760D01*
X22395123Y34046753D01*
X22400137Y33941515D01*
X22404852Y33842541D01*
X22406243Y33836803D01*
X22406244Y33836803D01*
X22452054Y33647970D01*
X22454442Y33638129D01*
X22456893Y33632760D01*
X22456897Y33632751D01*
X22539363Y33452175D01*
X22539367Y33452166D01*
X22541821Y33446795D01*
X22545247Y33441983D01*
X22545251Y33441977D01*
X22660400Y33280273D01*
X22660404Y33280267D01*
X22663831Y33275456D01*
X22668104Y33271381D01*
X22668109Y33271376D01*
X22811791Y33134376D01*
X22816063Y33130303D01*
X22821026Y33127113D01*
X22821028Y33127112D01*
X22988043Y33019778D01*
X22988048Y33019775D01*
X22993014Y33016584D01*
X22998498Y33014388D01*
X22998501Y33014387D01*
X23182799Y32940604D01*
X23182803Y32940602D01*
X23188288Y32938407D01*
X23194088Y32937289D01*
X23194092Y32937288D01*
X23389031Y32899717D01*
X23389035Y32899716D01*
X23394829Y32898600D01*
X23549514Y32898600D01*
X23552468Y32898600D01*
X23555397Y32898879D01*
X23555403Y32898880D01*
X23703508Y32913022D01*
X23703512Y32913022D01*
X23709389Y32913584D01*
X23715058Y32915248D01*
X23715060Y32915249D01*
X23905545Y32971180D01*
X23905548Y32971181D01*
X23911211Y32972844D01*
X23916460Y32975550D01*
X24092920Y33066522D01*
X24092923Y33066524D01*
X24098170Y33069229D01*
X24233293Y33175490D01*
X24258864Y33195599D01*
X24258866Y33195601D01*
X24263510Y33199253D01*
X24319852Y33264275D01*
X24397388Y33353756D01*
X24397388Y33353757D01*
X24401255Y33358219D01*
X24506426Y33540381D01*
X24575222Y33739154D01*
X24605157Y33947355D01*
X24595148Y34157459D01*
X24545558Y34361871D01*
X24458179Y34553205D01*
X24336169Y34724544D01*
X24183937Y34869697D01*
X24006986Y34983416D01*
X23811712Y35061593D01*
X23605171Y35101400D01*
X23447532Y35101400D01*
X23290611Y35086416D01*
X23088789Y35027156D01*
X22901830Y34930771D01*
X22736490Y34800747D01*
X22732621Y34796282D01*
X22629982Y34677830D01*
X22598745Y34641781D01*
X22493574Y34459619D01*
X22491641Y34454035D01*
X22491639Y34454030D01*
X22426709Y34266427D01*
X22426707Y34266421D01*
X22424778Y34260846D01*
X22423938Y34255007D01*
X22423937Y34255001D01*
X22395682Y34058484D01*
X22395681Y34058478D01*
X22394843Y34052645D01*
X19966254Y34052645D01*
X19949967Y34280363D01*
X19890219Y34555018D01*
X19791992Y34818375D01*
X19657285Y35065073D01*
X19488841Y35290088D01*
X19290088Y35488841D01*
X19065073Y35657285D01*
X18818375Y35791992D01*
X18555018Y35890219D01*
X18280363Y35949967D01*
X18070175Y35965000D01*
X17929825Y35965000D01*
X17719637Y35949967D01*
X17444982Y35890219D01*
X17181625Y35791992D01*
X17177736Y35789868D01*
X17177735Y35789868D01*
X17116768Y35756577D01*
X16934927Y35657285D01*
X16709912Y35488841D01*
X16511159Y35290088D01*
X16342715Y35065073D01*
X16340589Y35061179D01*
X16340588Y35061178D01*
X16210131Y34822264D01*
X16210128Y34822257D01*
X16208008Y34818375D01*
X16206462Y34814232D01*
X16206460Y34814226D01*
X16153755Y34672918D01*
X16109781Y34555018D01*
X16108840Y34550692D01*
X16050975Y34284696D01*
X16050973Y34284687D01*
X16050033Y34280363D01*
X16049717Y34275949D01*
X16049716Y34275940D01*
X16040821Y34151561D01*
X16029981Y34000000D01*
X15129586Y34000000D01*
X10987370Y38142217D01*
X10979786Y38150552D01*
X10975684Y38157018D01*
X10925980Y38203691D01*
X10923279Y38206308D01*
X10903454Y38226135D01*
X10900197Y38228660D01*
X10891308Y38236251D01*
X10859005Y38266586D01*
X10841109Y38276423D01*
X10824861Y38287096D01*
X10808725Y38299614D01*
X10768048Y38317215D01*
X10757568Y38322350D01*
X10725583Y38339935D01*
X10718744Y38343695D01*
X10698957Y38348774D01*
X10680569Y38355070D01*
X10661829Y38363181D01*
X10618060Y38370112D01*
X10606626Y38372481D01*
X10563714Y38383500D01*
X10555913Y38383500D01*
X10543299Y38383500D01*
X10523901Y38385027D01*
X10523656Y38385065D01*
X10503741Y38388220D01*
X10465924Y38384645D01*
X10459626Y38384050D01*
X10447957Y38383500D01*
X10207500Y38383500D01*
X10145500Y38400113D01*
X10100113Y38445500D01*
X10083500Y38507500D01*
X10083500Y39095328D01*
X10083500Y39098638D01*
X10076989Y39159201D01*
X10025889Y39296204D01*
X9938261Y39413261D01*
X9821204Y39500889D01*
X9684201Y39551989D01*
X9623638Y39558500D01*
X6926362Y39558500D01*
X6865799Y39551989D01*
X6728796Y39500889D01*
X6611739Y39413261D01*
X6524111Y39296204D01*
X6521012Y39287896D01*
X6521011Y39287894D01*
X6475719Y39166463D01*
X6475717Y39166458D01*
X6473011Y39159201D01*
X6466500Y39098638D01*
X6466500Y39095328D01*
X6466500Y39059046D01*
X6452561Y39001926D01*
X6413876Y38957649D01*
X6359145Y38936168D01*
X6300671Y38942314D01*
X6251601Y38974705D01*
X6234169Y38993492D01*
X6193981Y39036805D01*
X5988857Y39200386D01*
X5761643Y39331568D01*
X5517416Y39427420D01*
X5261630Y39485802D01*
X5065494Y39500500D01*
X4934506Y39500500D01*
X4738370Y39485802D01*
X4482584Y39427420D01*
X4238357Y39331568D01*
X4011143Y39200386D01*
X3806019Y39036805D01*
X3627567Y38844479D01*
X3479772Y38627704D01*
X3477756Y38623519D01*
X3477756Y38623518D01*
X3371944Y38403796D01*
X3365937Y38391323D01*
X3364573Y38386901D01*
X3364569Y38386891D01*
X3289971Y38145048D01*
X3288604Y38140615D01*
X3287913Y38136035D01*
X3287912Y38136028D01*
X3250190Y37885765D01*
X3250189Y37885754D01*
X3249500Y37881182D01*
X3249500Y37618818D01*
X3250189Y37614246D01*
X3250190Y37614234D01*
X3287912Y37363971D01*
X3287914Y37363961D01*
X3288604Y37359385D01*
X3289968Y37354959D01*
X3289971Y37354951D01*
X3364569Y37113108D01*
X3364574Y37113093D01*
X3365937Y37108677D01*
X3367944Y37104508D01*
X3367949Y37104497D01*
X3477756Y36876481D01*
X3477759Y36876474D01*
X3479772Y36872296D01*
X3627567Y36655521D01*
X3630713Y36652129D01*
X3630719Y36652123D01*
X3773656Y36498074D01*
X3806019Y36463195D01*
X3809641Y36460306D01*
X3809646Y36460302D01*
X4007516Y36302506D01*
X4007519Y36302503D01*
X4011143Y36299614D01*
X4015159Y36297295D01*
X4015161Y36297294D01*
X4234335Y36170753D01*
X4234346Y36170747D01*
X4238357Y36168432D01*
X4242670Y36166739D01*
X4242681Y36166734D01*
X4478261Y36074276D01*
X4478268Y36074273D01*
X4482584Y36072580D01*
X4487102Y36071548D01*
X4487108Y36071547D01*
X4733850Y36015229D01*
X4733858Y36015227D01*
X4738370Y36014198D01*
X4742989Y36013851D01*
X4742995Y36013851D01*
X4932191Y35999673D01*
X4932203Y35999672D01*
X4934506Y35999500D01*
X5063177Y35999500D01*
X5065494Y35999500D01*
X5067797Y35999672D01*
X5067808Y35999673D01*
X5257004Y36013851D01*
X5257008Y36013851D01*
X5261630Y36014198D01*
X5266143Y36015228D01*
X5266149Y36015229D01*
X5512891Y36071547D01*
X5512893Y36071547D01*
X5517416Y36072580D01*
X5521734Y36074275D01*
X5521738Y36074276D01*
X5757318Y36166734D01*
X5757324Y36166737D01*
X5761643Y36168432D01*
X5765658Y36170750D01*
X5765664Y36170753D01*
X5894216Y36244973D01*
X5988857Y36299614D01*
X6193981Y36463195D01*
X6251601Y36525295D01*
X6300671Y36557686D01*
X6359145Y36563832D01*
X6413876Y36542351D01*
X6452561Y36498074D01*
X6466500Y36440954D01*
X6466500Y36401362D01*
X6466852Y36398082D01*
X6466853Y36398075D01*
X6472182Y36348505D01*
X6472182Y36348500D01*
X6473011Y36340799D01*
X6475717Y36333543D01*
X6475719Y36333536D01*
X6521011Y36212105D01*
X6521013Y36212099D01*
X6524111Y36203796D01*
X6529423Y36196698D01*
X6529426Y36196695D01*
X6606426Y36093835D01*
X6606429Y36093831D01*
X6611739Y36086739D01*
X6618831Y36081429D01*
X6618835Y36081426D01*
X6721695Y36004426D01*
X6721698Y36004423D01*
X6728796Y35999111D01*
X6737099Y35996013D01*
X6737105Y35996011D01*
X6858536Y35950719D01*
X6858543Y35950717D01*
X6865799Y35948011D01*
X6873500Y35947182D01*
X6873505Y35947182D01*
X6923075Y35941853D01*
X6923082Y35941852D01*
X6926362Y35941500D01*
X9620328Y35941500D01*
X9623638Y35941500D01*
X9626918Y35941852D01*
X9626924Y35941853D01*
X9676494Y35947182D01*
X9676497Y35947182D01*
X9684201Y35948011D01*
X9691458Y35950717D01*
X9691463Y35950719D01*
X9812894Y35996011D01*
X9812896Y35996012D01*
X9821204Y35999111D01*
X9919347Y36072580D01*
X9931164Y36081426D01*
X9938261Y36086739D01*
X10025889Y36203796D01*
X10076989Y36340799D01*
X10083500Y36401362D01*
X10083500Y36954918D01*
X10097015Y37011213D01*
X10134615Y37055236D01*
X10188102Y37077391D01*
X10245818Y37072849D01*
X10295181Y37042599D01*
X12115081Y35222697D01*
X12145285Y35173474D01*
X12149919Y35115910D01*
X12127978Y35062490D01*
X12084221Y35024801D01*
X11901830Y34930771D01*
X11736490Y34800747D01*
X11732621Y34796282D01*
X11629982Y34677830D01*
X11598745Y34641781D01*
X11493574Y34459619D01*
X11491641Y34454035D01*
X11491639Y34454030D01*
X11426709Y34266427D01*
X11426707Y34266421D01*
X11424778Y34260846D01*
X11423938Y34255007D01*
X11423937Y34255001D01*
X11395682Y34058484D01*
X11395681Y34058478D01*
X11394843Y34052645D01*
X11395123Y34046760D01*
X11395123Y34046753D01*
X11400137Y33941515D01*
X11404852Y33842541D01*
X11406243Y33836803D01*
X11406244Y33836803D01*
X11452054Y33647970D01*
X11454442Y33638129D01*
X11456893Y33632760D01*
X11456897Y33632751D01*
X11539363Y33452175D01*
X11539367Y33452166D01*
X11541821Y33446795D01*
X11545247Y33441983D01*
X11545251Y33441977D01*
X11660400Y33280273D01*
X11660404Y33280267D01*
X11663831Y33275456D01*
X11668104Y33271381D01*
X11668109Y33271376D01*
X11811791Y33134376D01*
X11816063Y33130303D01*
X11821026Y33127113D01*
X11821028Y33127112D01*
X11988043Y33019778D01*
X11988048Y33019775D01*
X11993014Y33016584D01*
X11998498Y33014388D01*
X11998501Y33014387D01*
X12182799Y32940604D01*
X12182803Y32940602D01*
X12188288Y32938407D01*
X12194088Y32937289D01*
X12194092Y32937288D01*
X12389031Y32899717D01*
X12389035Y32899716D01*
X12394829Y32898600D01*
X12549514Y32898600D01*
X12552468Y32898600D01*
X12555397Y32898879D01*
X12555403Y32898880D01*
X12703508Y32913022D01*
X12703512Y32913022D01*
X12709389Y32913584D01*
X12715058Y32915248D01*
X12715060Y32915249D01*
X12905545Y32971180D01*
X12905548Y32971181D01*
X12911211Y32972844D01*
X12916460Y32975550D01*
X13092920Y33066522D01*
X13092923Y33066524D01*
X13098170Y33069229D01*
X13233293Y33175490D01*
X13258864Y33195599D01*
X13258866Y33195601D01*
X13263510Y33199253D01*
X13319852Y33264275D01*
X13397388Y33353756D01*
X13397388Y33353757D01*
X13401255Y33358219D01*
X13506426Y33540381D01*
X13516449Y33569342D01*
X13550765Y33621034D01*
X13605829Y33649631D01*
X13667854Y33647970D01*
X13721310Y33616468D01*
X14205181Y33132599D01*
X14232061Y33092371D01*
X14241500Y33044918D01*
X14241500Y31756399D01*
X14222494Y31690427D01*
X14171302Y31644679D01*
X14103617Y31633179D01*
X14040188Y31659452D01*
X14001345Y31690427D01*
X13988857Y31700386D01*
X13761643Y31831568D01*
X13517416Y31927420D01*
X13261630Y31985802D01*
X13065494Y32000500D01*
X12934506Y32000500D01*
X12738370Y31985802D01*
X12482584Y31927420D01*
X12238357Y31831568D01*
X12011143Y31700386D01*
X11806019Y31536805D01*
X11758501Y31485592D01*
X11748399Y31474705D01*
X11699329Y31442314D01*
X11640855Y31436168D01*
X11586124Y31457649D01*
X11547439Y31501926D01*
X11533500Y31559046D01*
X11533500Y31595328D01*
X11533500Y31598638D01*
X11526989Y31659201D01*
X11475889Y31796204D01*
X11388261Y31913261D01*
X11271204Y32000889D01*
X11134201Y32051989D01*
X11073638Y32058500D01*
X8376362Y32058500D01*
X8315799Y32051989D01*
X8178796Y32000889D01*
X8061739Y31913261D01*
X7974111Y31796204D01*
X7971012Y31787896D01*
X7971011Y31787894D01*
X7925719Y31666463D01*
X7925717Y31666458D01*
X7923011Y31659201D01*
X7922182Y31651497D01*
X7922182Y31651494D01*
X7920213Y31633179D01*
X7916500Y31598638D01*
X7916500Y28901362D01*
X7916852Y28898082D01*
X7916853Y28898075D01*
X7922182Y28848505D01*
X7922182Y28848500D01*
X7923011Y28840799D01*
X7925717Y28833543D01*
X7925719Y28833536D01*
X7971011Y28712105D01*
X7971013Y28712099D01*
X7974111Y28703796D01*
X7979423Y28696698D01*
X7979426Y28696695D01*
X8056426Y28593835D01*
X8056429Y28593831D01*
X8061739Y28586739D01*
X8068831Y28581429D01*
X8068835Y28581426D01*
X8171695Y28504426D01*
X8171698Y28504423D01*
X8178796Y28499111D01*
X8187099Y28496013D01*
X8187105Y28496011D01*
X8308536Y28450719D01*
X8308543Y28450717D01*
X8315799Y28448011D01*
X8323500Y28447182D01*
X8323505Y28447182D01*
X8373075Y28441853D01*
X8373082Y28441852D01*
X8376362Y28441500D01*
X8967500Y28441500D01*
X9029500Y28424887D01*
X9074887Y28379500D01*
X9091500Y28317500D01*
X9091500Y25853846D01*
X9090968Y25842562D01*
X9089298Y25835091D01*
X9089543Y25827293D01*
X9089543Y25827292D01*
X9091439Y25766983D01*
X9091500Y25763087D01*
X9091500Y25735144D01*
X9091988Y25731277D01*
X9091989Y25731268D01*
X9092019Y25731032D01*
X9092934Y25719406D01*
X9094081Y25682904D01*
X9094082Y25682896D01*
X9094327Y25675111D01*
X9096500Y25667629D01*
X9096502Y25667620D01*
X9100022Y25655506D01*
X9103967Y25636457D01*
X9105548Y25623938D01*
X9105549Y25623932D01*
X9106526Y25616203D01*
X9109393Y25608960D01*
X9109395Y25608954D01*
X9122838Y25575000D01*
X9126619Y25563955D01*
X9136803Y25528902D01*
X9136807Y25528892D01*
X9138982Y25521407D01*
X9142951Y25514694D01*
X9142953Y25514691D01*
X9149374Y25503834D01*
X9157929Y25486370D01*
X9162575Y25474636D01*
X9162578Y25474629D01*
X9165448Y25467383D01*
X9170027Y25461079D01*
X9170034Y25461068D01*
X9191491Y25431534D01*
X9197901Y25421776D01*
X9216483Y25390355D01*
X9216493Y25390341D01*
X9220458Y25383638D01*
X9225973Y25378122D01*
X9225976Y25378119D01*
X9234897Y25369197D01*
X9247523Y25354414D01*
X9254940Y25344206D01*
X9254944Y25344200D01*
X9259528Y25337893D01*
X9265530Y25332926D01*
X9265542Y25332915D01*
X9293673Y25309643D01*
X9302311Y25301783D01*
X9697034Y24907060D01*
X9729457Y24850218D01*
X9728430Y24784788D01*
X9721205Y24759916D01*
X9721203Y24759908D01*
X9719438Y24753831D01*
X9718941Y24747526D01*
X9718941Y24747522D01*
X9716691Y24718936D01*
X9716690Y24718921D01*
X9716500Y24716502D01*
X9716500Y24283498D01*
X9716690Y24281079D01*
X9716691Y24281063D01*
X9718940Y24252485D01*
X9718941Y24252476D01*
X9719438Y24246169D01*
X9721204Y24240088D01*
X9721205Y24240086D01*
X9732291Y24201926D01*
X9765855Y24086399D01*
X9769824Y24079686D01*
X9769827Y24079681D01*
X9779623Y24063117D01*
X9796889Y23999999D01*
X9779622Y23936881D01*
X9769828Y23920321D01*
X9769824Y23920313D01*
X9765855Y23913601D01*
X9719438Y23753831D01*
X9718941Y23747521D01*
X9718940Y23747514D01*
X9716691Y23718936D01*
X9716690Y23718921D01*
X9716500Y23716502D01*
X9716500Y23283498D01*
X9716689Y23281087D01*
X9716691Y23281055D01*
X9717780Y23267226D01*
X9704646Y23201203D01*
X9658951Y23151772D01*
X9594162Y23133500D01*
X8227801Y23133500D01*
X8180348Y23142939D01*
X8140120Y23169819D01*
X-569292Y31879231D01*
X-601075Y31933680D01*
X-601975Y31996719D01*
X-571760Y32052054D01*
X-518241Y32085378D01*
X-455253Y32088078D01*
X-284696Y32050975D01*
X-284687Y32050973D01*
X-280363Y32050033D01*
X-275949Y32049717D01*
X-275940Y32049716D01*
X-72385Y32035158D01*
X-72383Y32035157D01*
X-70175Y32035000D01*
X67960Y32035000D01*
X70175Y32035000D01*
X72383Y32035157D01*
X72385Y32035158D01*
X275940Y32049716D01*
X275949Y32049717D01*
X280363Y32050033D01*
X284687Y32050973D01*
X284696Y32050975D01*
X550692Y32108840D01*
X555018Y32109781D01*
X559157Y32111325D01*
X559161Y32111326D01*
X814226Y32206460D01*
X814232Y32206462D01*
X818375Y32208008D01*
X822257Y32210128D01*
X822264Y32210131D01*
X1061178Y32340588D01*
X1061179Y32340589D01*
X1065073Y32342715D01*
X1290088Y32511159D01*
X1488841Y32709912D01*
X1657285Y32934927D01*
X1791992Y33181625D01*
X1890219Y33444982D01*
X1949967Y33719637D01*
X1970019Y34000000D01*
X1966254Y34052645D01*
X4394843Y34052645D01*
X4395123Y34046760D01*
X4395123Y34046753D01*
X4400137Y33941515D01*
X4404852Y33842541D01*
X4406243Y33836803D01*
X4406244Y33836803D01*
X4452054Y33647970D01*
X4454442Y33638129D01*
X4456893Y33632760D01*
X4456897Y33632751D01*
X4539363Y33452175D01*
X4539367Y33452166D01*
X4541821Y33446795D01*
X4545247Y33441983D01*
X4545251Y33441977D01*
X4660400Y33280273D01*
X4660404Y33280267D01*
X4663831Y33275456D01*
X4668104Y33271381D01*
X4668109Y33271376D01*
X4811791Y33134376D01*
X4816063Y33130303D01*
X4821026Y33127113D01*
X4821028Y33127112D01*
X4988043Y33019778D01*
X4988048Y33019775D01*
X4993014Y33016584D01*
X4998498Y33014388D01*
X4998501Y33014387D01*
X5182799Y32940604D01*
X5182803Y32940602D01*
X5188288Y32938407D01*
X5194088Y32937289D01*
X5194092Y32937288D01*
X5389031Y32899717D01*
X5389035Y32899716D01*
X5394829Y32898600D01*
X5549514Y32898600D01*
X5552468Y32898600D01*
X5555397Y32898879D01*
X5555403Y32898880D01*
X5703508Y32913022D01*
X5703512Y32913022D01*
X5709389Y32913584D01*
X5715058Y32915248D01*
X5715060Y32915249D01*
X5905545Y32971180D01*
X5905548Y32971181D01*
X5911211Y32972844D01*
X5916460Y32975550D01*
X6092920Y33066522D01*
X6092923Y33066524D01*
X6098170Y33069229D01*
X6233293Y33175490D01*
X6258864Y33195599D01*
X6258866Y33195601D01*
X6263510Y33199253D01*
X6319852Y33264275D01*
X6397388Y33353756D01*
X6397388Y33353757D01*
X6401255Y33358219D01*
X6506426Y33540381D01*
X6575222Y33739154D01*
X6605157Y33947355D01*
X6602649Y34000000D01*
X7644341Y34000000D01*
X7644813Y33994605D01*
X7662759Y33789480D01*
X7664937Y33764592D01*
X7666335Y33759371D01*
X7666337Y33759365D01*
X7724694Y33541569D01*
X7724698Y33541557D01*
X7726097Y33536337D01*
X7728383Y33531432D01*
X7728386Y33531427D01*
X7823675Y33327081D01*
X7825965Y33322171D01*
X7829068Y33317740D01*
X7829073Y33317731D01*
X7958399Y33133034D01*
X7958400Y33133033D01*
X7961505Y33128599D01*
X7965328Y33124775D01*
X7965334Y33124769D01*
X8124769Y32965334D01*
X8124775Y32965328D01*
X8128599Y32961505D01*
X8133029Y32958402D01*
X8133034Y32958399D01*
X8317731Y32829073D01*
X8317738Y32829068D01*
X8322171Y32825965D01*
X8327077Y32823677D01*
X8327081Y32823675D01*
X8531427Y32728386D01*
X8531432Y32728383D01*
X8536337Y32726097D01*
X8541557Y32724698D01*
X8541569Y32724694D01*
X8759365Y32666337D01*
X8759371Y32666335D01*
X8764592Y32664937D01*
X8769977Y32664465D01*
X8769982Y32664465D01*
X8938335Y32649736D01*
X8938338Y32649735D01*
X8941034Y32649500D01*
X9056258Y32649500D01*
X9058966Y32649500D01*
X9061662Y32649735D01*
X9061664Y32649736D01*
X9230017Y32664465D01*
X9230020Y32664465D01*
X9235408Y32664937D01*
X9240630Y32666336D01*
X9240634Y32666337D01*
X9458430Y32724694D01*
X9458438Y32724697D01*
X9463663Y32726097D01*
X9677829Y32825965D01*
X9871401Y32961505D01*
X10038495Y33128599D01*
X10041601Y33133034D01*
X10170933Y33317740D01*
X10174035Y33322170D01*
X10273903Y33536337D01*
X10335063Y33764592D01*
X10355659Y34000000D01*
X10335063Y34235408D01*
X10273903Y34463663D01*
X10174035Y34677829D01*
X10038495Y34871401D01*
X9871401Y35038495D01*
X9677829Y35174035D01*
X9463663Y35273903D01*
X9235408Y35335063D01*
X9058966Y35350500D01*
X8941034Y35350500D01*
X8764592Y35335063D01*
X8536337Y35273903D01*
X8322171Y35174035D01*
X8128599Y35038495D01*
X7961505Y34871401D01*
X7958402Y34866970D01*
X7958399Y34866966D01*
X7829066Y34682259D01*
X7825965Y34677830D01*
X7823681Y34672933D01*
X7823678Y34672927D01*
X7767851Y34553205D01*
X7726097Y34463663D01*
X7724697Y34458438D01*
X7724694Y34458430D01*
X7675797Y34275940D01*
X7664937Y34235408D01*
X7644341Y34000000D01*
X6602649Y34000000D01*
X6595148Y34157459D01*
X6545558Y34361871D01*
X6458179Y34553205D01*
X6336169Y34724544D01*
X6183937Y34869697D01*
X6006986Y34983416D01*
X5811712Y35061593D01*
X5605171Y35101400D01*
X5447532Y35101400D01*
X5290611Y35086416D01*
X5088789Y35027156D01*
X4901830Y34930771D01*
X4736490Y34800747D01*
X4732621Y34796282D01*
X4629982Y34677830D01*
X4598745Y34641781D01*
X4493574Y34459619D01*
X4491641Y34454035D01*
X4491639Y34454030D01*
X4426709Y34266427D01*
X4426707Y34266421D01*
X4424778Y34260846D01*
X4423938Y34255007D01*
X4423937Y34255001D01*
X4395682Y34058484D01*
X4395681Y34058478D01*
X4394843Y34052645D01*
X1966254Y34052645D01*
X1949967Y34280363D01*
X1890219Y34555018D01*
X1791992Y34818375D01*
X1657285Y35065073D01*
X1488841Y35290088D01*
X1290088Y35488841D01*
X1065073Y35657285D01*
X818375Y35791992D01*
X555018Y35890219D01*
X280363Y35949967D01*
X70175Y35965000D01*
X-70175Y35965000D01*
X-280363Y35949967D01*
X-555018Y35890219D01*
X-818375Y35791992D01*
X-1065073Y35657285D01*
X-1290088Y35488841D01*
X-1488841Y35290088D01*
X-1657285Y35065073D01*
X-1791992Y34818375D01*
X-1890219Y34555018D01*
X-1949967Y34280363D01*
X-1970019Y34000000D01*
X-1949967Y33719637D01*
X-1911921Y33544744D01*
X-1914621Y33481759D01*
X-1947945Y33428240D01*
X-2003279Y33398025D01*
X-2066319Y33398925D01*
X-2120768Y33430708D01*
X-2230181Y33540121D01*
X-2257061Y33580349D01*
X-2266500Y33627802D01*
X-2266500Y35807400D01*
X-2257061Y35854853D01*
X-2236083Y35886248D01*
X-2236739Y35886739D01*
X-2154426Y35996695D01*
X-2154423Y35996698D01*
X-2149111Y36003796D01*
X-2146013Y36012099D01*
X-2146011Y36012105D01*
X-2100719Y36133536D01*
X-2100717Y36133543D01*
X-2098011Y36140799D01*
X-2097182Y36148500D01*
X-2097182Y36148505D01*
X-2091853Y36198075D01*
X-2091852Y36198082D01*
X-2091500Y36201362D01*
X-2091500Y36998638D01*
X-2098011Y37059201D01*
X-2100717Y37066458D01*
X-2100719Y37066463D01*
X-2146011Y37187894D01*
X-2146012Y37187896D01*
X-2149111Y37196204D01*
X-2236739Y37313261D01*
X-2353796Y37400889D01*
X-2490799Y37451989D01*
X-2528545Y37456047D01*
X-2590071Y37480424D01*
X-2630296Y37532974D01*
X-2636703Y37589394D01*
X-2638246Y37589443D01*
X-2638000Y37597234D01*
X-2636780Y37604943D01*
X-2638092Y37618818D01*
X-2640950Y37649058D01*
X-2641500Y37660727D01*
X-2641500Y38017500D01*
X-2624887Y38079500D01*
X-2579500Y38124887D01*
X-2517500Y38141500D01*
X-1929672Y38141500D01*
X-1926362Y38141500D01*
X-1923082Y38141852D01*
X-1923075Y38141853D01*
X-1873505Y38147182D01*
X-1873500Y38147182D01*
X-1865799Y38148011D01*
X-1858543Y38150717D01*
X-1858536Y38150719D01*
X-1737105Y38196011D01*
X-1737099Y38196013D01*
X-1728796Y38199111D01*
X-1721698Y38204423D01*
X-1721695Y38204426D01*
X-1618835Y38281426D01*
X-1618831Y38281429D01*
X-1611739Y38286739D01*
X-1606429Y38293831D01*
X-1606426Y38293835D01*
X-1529426Y38396695D01*
X-1529423Y38396698D01*
X-1524111Y38403796D01*
X-1521013Y38412099D01*
X-1521011Y38412105D01*
X-1475719Y38533536D01*
X-1475717Y38533543D01*
X-1473011Y38540799D01*
X-1472182Y38548500D01*
X-1472182Y38548505D01*
X-1466853Y38598075D01*
X-1466852Y38598082D01*
X-1466500Y38601362D01*
X-1466500Y38640954D01*
X-1452561Y38698074D01*
X-1413876Y38742351D01*
X-1359145Y38763832D01*
X-1300671Y38757686D01*
X-1251601Y38725295D01*
X-1193981Y38663195D01*
X-988857Y38499614D01*
X-895129Y38445500D01*
X-765664Y38370753D01*
X-765658Y38370750D01*
X-761643Y38368432D01*
X-757324Y38366737D01*
X-757318Y38366734D01*
X-521738Y38274276D01*
X-521734Y38274275D01*
X-517416Y38272580D01*
X-512893Y38271547D01*
X-512891Y38271547D01*
X-266149Y38215229D01*
X-266143Y38215228D01*
X-261630Y38214198D01*
X-257008Y38213851D01*
X-257004Y38213851D01*
X-67808Y38199673D01*
X-67797Y38199672D01*
X-65494Y38199500D01*
X63177Y38199500D01*
X65494Y38199500D01*
X67797Y38199672D01*
X67808Y38199673D01*
X257004Y38213851D01*
X257008Y38213851D01*
X261630Y38214198D01*
X266143Y38215228D01*
X266149Y38215229D01*
X512891Y38271547D01*
X512893Y38271547D01*
X517416Y38272580D01*
X521734Y38274275D01*
X521738Y38274276D01*
X757318Y38366734D01*
X757324Y38366737D01*
X761643Y38368432D01*
X765658Y38370750D01*
X765664Y38370753D01*
X895129Y38445500D01*
X988857Y38499614D01*
X1193981Y38663195D01*
X1372433Y38855521D01*
X1520228Y39072296D01*
X1634063Y39308677D01*
X1641648Y39333265D01*
X1688805Y39486148D01*
X1711396Y39559385D01*
X1750500Y39818818D01*
X1750500Y40081182D01*
X1711396Y40340615D01*
X1634063Y40591323D01*
X1520228Y40827704D01*
X1372433Y41044479D01*
X1193981Y41236805D01*
X988857Y41400386D01*
X761643Y41531568D01*
X517416Y41627420D01*
X261630Y41685802D01*
X65494Y41700500D01*
X-65494Y41700500D01*
X-261630Y41685802D01*
X-517416Y41627420D01*
X-761643Y41531568D01*
X-988857Y41400386D01*
X-1193981Y41236805D01*
X-1251601Y41174705D01*
X-1300671Y41142314D01*
X-1359145Y41136168D01*
X-1413876Y41157649D01*
X-1452561Y41201926D01*
X-1466500Y41259046D01*
X-1466500Y41295328D01*
X-1466500Y41298638D01*
X-1473011Y41359201D01*
X-1475717Y41366458D01*
X-1475719Y41366463D01*
X-1521011Y41487894D01*
X-1521012Y41487896D01*
X-1524111Y41496204D01*
X-1611739Y41613261D01*
X-1728796Y41700889D01*
X-1865799Y41751989D01*
X-1926362Y41758500D01*
X-4623638Y41758500D01*
X-4684201Y41751989D01*
X-4821204Y41700889D01*
X-4938261Y41613261D01*
X-5025889Y41496204D01*
X-5076989Y41359201D01*
X-5083500Y41298638D01*
X-5083500Y38601362D01*
X-5076989Y38540799D01*
X-5025889Y38403796D01*
X-4938261Y38286739D01*
X-4931164Y38281426D01*
X-4865479Y38232255D01*
X-4821204Y38199111D01*
X-4812896Y38196012D01*
X-4812894Y38196011D01*
X-4691463Y38150719D01*
X-4691458Y38150717D01*
X-4684201Y38148011D01*
X-4676497Y38147182D01*
X-4676494Y38147182D01*
X-4626924Y38141853D01*
X-4626918Y38141852D01*
X-4623638Y38141500D01*
X-4032500Y38141500D01*
X-3970500Y38124887D01*
X-3925113Y38079500D01*
X-3908500Y38017500D01*
X-3908500Y37938766D01*
X-3917939Y37891313D01*
X-3944819Y37851085D01*
X-4301086Y37494819D01*
X-4341314Y37467939D01*
X-4388767Y37458500D01*
X-4648638Y37458500D01*
X-4709201Y37451989D01*
X-4846204Y37400889D01*
X-4963261Y37313261D01*
X-5050889Y37196204D01*
X-5101989Y37059201D01*
X-5108500Y36998638D01*
X-5108500Y36201362D01*
X-5101989Y36140799D01*
X-5050889Y36003796D01*
X-4963261Y35886739D01*
X-4956164Y35881426D01*
X-4900569Y35839808D01*
X-4846204Y35799111D01*
X-4837896Y35796012D01*
X-4837894Y35796011D01*
X-4716463Y35750719D01*
X-4716458Y35750717D01*
X-4709201Y35748011D01*
X-4701497Y35747182D01*
X-4701494Y35747182D01*
X-4651924Y35741853D01*
X-4651918Y35741852D01*
X-4648638Y35741500D01*
X-3954672Y35741500D01*
X-3951362Y35741500D01*
X-3948082Y35741852D01*
X-3948075Y35741853D01*
X-3898505Y35747182D01*
X-3898500Y35747182D01*
X-3890799Y35748011D01*
X-3883543Y35750717D01*
X-3883536Y35750719D01*
X-3762105Y35796011D01*
X-3762099Y35796013D01*
X-3753796Y35799111D01*
X-3746698Y35804423D01*
X-3746695Y35804426D01*
X-3731811Y35815569D01*
X-3668553Y35839808D01*
X-3601996Y35827186D01*
X-3552005Y35781469D01*
X-3533500Y35716302D01*
X-3533500Y33392881D01*
X-3534031Y33381597D01*
X-3535702Y33374126D01*
X-3534223Y33327081D01*
X-3533561Y33306018D01*
X-3533500Y33302122D01*
X-3533500Y33274179D01*
X-3532982Y33270084D01*
X-3532064Y33258427D01*
X-3530673Y33214146D01*
X-3527643Y33203717D01*
X-3524979Y33194547D01*
X-3521032Y33175490D01*
X-3518474Y33155238D01*
X-3502159Y33114033D01*
X-3498379Y33102990D01*
X-3489632Y33072880D01*
X-3486018Y33060442D01*
X-3475619Y33042859D01*
X-3467070Y33025406D01*
X-3459552Y33006418D01*
X-3433503Y32970565D01*
X-3427098Y32960814D01*
X-3404542Y32922673D01*
X-3399024Y32917155D01*
X-3390107Y32908238D01*
X-3377470Y32893442D01*
X-3365472Y32876928D01*
X-3359460Y32871955D01*
X-3359457Y32871951D01*
X-3331325Y32848678D01*
X-3322685Y32840816D01*
X6802447Y22715682D01*
X6833743Y22662936D01*
X6835932Y22601643D01*
X6808479Y22546799D01*
X6758100Y22511819D01*
X6728796Y22500889D01*
X6611739Y22413261D01*
X6524111Y22296204D01*
X6521012Y22287896D01*
X6521011Y22287894D01*
X6475719Y22166463D01*
X6475717Y22166458D01*
X6473011Y22159201D01*
X6466500Y22098638D01*
X6466500Y22095328D01*
X6466500Y22059046D01*
X6452561Y22001926D01*
X6413876Y21957649D01*
X6359145Y21936168D01*
X6300671Y21942314D01*
X6251601Y21974705D01*
X6193981Y22036805D01*
X5988857Y22200386D01*
X5761643Y22331568D01*
X5517416Y22427420D01*
X5261630Y22485802D01*
X5065494Y22500500D01*
X4934506Y22500500D01*
X4738370Y22485802D01*
X4482584Y22427420D01*
X4238357Y22331568D01*
X4011143Y22200386D01*
X3806019Y22036805D01*
X3627567Y21844479D01*
X3479772Y21627704D01*
X3477756Y21623519D01*
X3477756Y21623518D01*
X3371944Y21403796D01*
X3365937Y21391323D01*
X3364573Y21386901D01*
X3364569Y21386891D01*
X3289971Y21145048D01*
X3288604Y21140615D01*
X3287913Y21136035D01*
X3287912Y21136028D01*
X3250190Y20885765D01*
X3250189Y20885754D01*
X3249500Y20881182D01*
X3249500Y20618818D01*
X3250188Y20614248D01*
X3250190Y20614232D01*
X3286102Y20375981D01*
X3282641Y20323173D01*
X3257476Y20276616D01*
X3215190Y20244793D01*
X3163487Y20233500D01*
X-2114961Y20233500D01*
X-2170465Y20246616D01*
X-2214228Y20283189D01*
X-2236739Y20313261D01*
X-2353796Y20400889D01*
X-2490799Y20451989D01*
X-2528545Y20456047D01*
X-2590071Y20480424D01*
X-2630296Y20532974D01*
X-2636703Y20589394D01*
X-2638246Y20589443D01*
X-2638000Y20597234D01*
X-2636780Y20604943D01*
X-2638092Y20618818D01*
X-2640950Y20649058D01*
X-2641500Y20660727D01*
X-2641500Y21017500D01*
X-2624887Y21079500D01*
X-2579500Y21124887D01*
X-2517500Y21141500D01*
X-1929672Y21141500D01*
X-1926362Y21141500D01*
X-1923082Y21141852D01*
X-1923075Y21141853D01*
X-1873505Y21147182D01*
X-1873500Y21147182D01*
X-1865799Y21148011D01*
X-1858543Y21150717D01*
X-1858536Y21150719D01*
X-1737105Y21196011D01*
X-1737099Y21196013D01*
X-1728796Y21199111D01*
X-1721698Y21204423D01*
X-1721695Y21204426D01*
X-1618835Y21281426D01*
X-1618831Y21281429D01*
X-1611739Y21286739D01*
X-1606429Y21293831D01*
X-1606426Y21293835D01*
X-1529426Y21396695D01*
X-1529423Y21396698D01*
X-1524111Y21403796D01*
X-1521013Y21412099D01*
X-1521011Y21412105D01*
X-1475719Y21533536D01*
X-1475717Y21533543D01*
X-1473011Y21540799D01*
X-1472182Y21548500D01*
X-1472182Y21548505D01*
X-1466853Y21598075D01*
X-1466852Y21598082D01*
X-1466500Y21601362D01*
X-1466500Y21640954D01*
X-1452561Y21698074D01*
X-1413876Y21742351D01*
X-1359145Y21763832D01*
X-1300671Y21757686D01*
X-1251601Y21725295D01*
X-1193981Y21663195D01*
X-988857Y21499614D01*
X-894216Y21444973D01*
X-765664Y21370753D01*
X-765658Y21370750D01*
X-761643Y21368432D01*
X-757324Y21366737D01*
X-757318Y21366734D01*
X-521738Y21274276D01*
X-521734Y21274275D01*
X-517416Y21272580D01*
X-512893Y21271547D01*
X-512891Y21271547D01*
X-266149Y21215229D01*
X-266143Y21215228D01*
X-261630Y21214198D01*
X-257008Y21213851D01*
X-257004Y21213851D01*
X-67808Y21199673D01*
X-67797Y21199672D01*
X-65494Y21199500D01*
X63177Y21199500D01*
X65494Y21199500D01*
X67797Y21199672D01*
X67808Y21199673D01*
X257004Y21213851D01*
X257008Y21213851D01*
X261630Y21214198D01*
X266143Y21215228D01*
X266149Y21215229D01*
X512891Y21271547D01*
X512893Y21271547D01*
X517416Y21272580D01*
X521734Y21274275D01*
X521738Y21274276D01*
X757318Y21366734D01*
X757324Y21366737D01*
X761643Y21368432D01*
X765658Y21370750D01*
X765664Y21370753D01*
X894216Y21444973D01*
X988857Y21499614D01*
X1193981Y21663195D01*
X1372433Y21855521D01*
X1520228Y22072296D01*
X1634063Y22308677D01*
X1641648Y22333265D01*
X1688805Y22486148D01*
X1711396Y22559385D01*
X1750500Y22818818D01*
X1750500Y23081182D01*
X1711396Y23340615D01*
X1634063Y23591323D01*
X1520228Y23827704D01*
X1372433Y24044479D01*
X1193981Y24236805D01*
X988857Y24400386D01*
X761643Y24531568D01*
X517416Y24627420D01*
X261630Y24685802D01*
X65494Y24700500D01*
X-65494Y24700500D01*
X-261630Y24685802D01*
X-517416Y24627420D01*
X-761643Y24531568D01*
X-988857Y24400386D01*
X-1193981Y24236805D01*
X-1251601Y24174705D01*
X-1300671Y24142314D01*
X-1359145Y24136168D01*
X-1413876Y24157649D01*
X-1452561Y24201926D01*
X-1466500Y24259046D01*
X-1466500Y24295328D01*
X-1466500Y24298638D01*
X-1473011Y24359201D01*
X-1475717Y24366458D01*
X-1475719Y24366463D01*
X-1521011Y24487894D01*
X-1521012Y24487896D01*
X-1524111Y24496204D01*
X-1611739Y24613261D01*
X-1728796Y24700889D01*
X-1865799Y24751989D01*
X-1926362Y24758500D01*
X-4623638Y24758500D01*
X-4684201Y24751989D01*
X-4821204Y24700889D01*
X-4938261Y24613261D01*
X-5025889Y24496204D01*
X-5076989Y24359201D01*
X-5083500Y24298638D01*
X-5083500Y21601362D01*
X-5076989Y21540799D01*
X-5025889Y21403796D01*
X-4938261Y21286739D01*
X-4931164Y21281426D01*
X-4919347Y21272580D01*
X-4821204Y21199111D01*
X-4812896Y21196012D01*
X-4812894Y21196011D01*
X-4691463Y21150719D01*
X-4691458Y21150717D01*
X-4684201Y21148011D01*
X-4676497Y21147182D01*
X-4676494Y21147182D01*
X-4626924Y21141853D01*
X-4626918Y21141852D01*
X-4623638Y21141500D01*
X-4032500Y21141500D01*
X-3970500Y21124887D01*
X-3925113Y21079500D01*
X-3908500Y21017500D01*
X-3908500Y20938766D01*
X-3917939Y20891313D01*
X-3944819Y20851085D01*
X-4301086Y20494819D01*
X-4341314Y20467939D01*
X-4388767Y20458500D01*
X-4648638Y20458500D01*
X-4709201Y20451989D01*
X-4846204Y20400889D01*
X-4963261Y20313261D01*
X-5050889Y20196204D01*
X-5101989Y20059201D01*
X-5108500Y19998638D01*
X-5108500Y19201362D01*
X-5101989Y19140799D01*
X-5050889Y19003796D01*
X-4963261Y18886739D01*
X-4956164Y18881426D01*
X-4856905Y18807122D01*
X-4846204Y18799111D01*
X-4837896Y18796012D01*
X-4837894Y18796011D01*
X-4716463Y18750719D01*
X-4716458Y18750717D01*
X-4709201Y18748011D01*
X-4701497Y18747182D01*
X-4701494Y18747182D01*
X-4651924Y18741853D01*
X-4651918Y18741852D01*
X-4648638Y18741500D01*
X-3954672Y18741500D01*
X-3951362Y18741500D01*
X-3948082Y18741852D01*
X-3948075Y18741853D01*
X-3898505Y18747182D01*
X-3898500Y18747182D01*
X-3890799Y18748011D01*
X-3883543Y18750717D01*
X-3883536Y18750719D01*
X-3762105Y18796011D01*
X-3762099Y18796013D01*
X-3753796Y18799111D01*
X-3746700Y18804422D01*
X-3746696Y18804425D01*
X-3674310Y18858613D01*
X-3626358Y18880511D01*
X-3573642Y18880511D01*
X-3525690Y18858613D01*
X-3453304Y18804426D01*
X-3446204Y18799111D01*
X-3437896Y18796012D01*
X-3437894Y18796011D01*
X-3316463Y18750719D01*
X-3316458Y18750717D01*
X-3309201Y18748011D01*
X-3301497Y18747182D01*
X-3301494Y18747182D01*
X-3251924Y18741853D01*
X-3251918Y18741852D01*
X-3248638Y18741500D01*
X-2554672Y18741500D01*
X-2551362Y18741500D01*
X-2548082Y18741852D01*
X-2548075Y18741853D01*
X-2498505Y18747182D01*
X-2498500Y18747182D01*
X-2490799Y18748011D01*
X-2483543Y18750717D01*
X-2483536Y18750719D01*
X-2362105Y18796011D01*
X-2362099Y18796013D01*
X-2353796Y18799111D01*
X-2346697Y18804425D01*
X-2346695Y18804426D01*
X-2243836Y18881426D01*
X-2243835Y18881426D01*
X-2236739Y18886739D01*
X-2214226Y18916812D01*
X-2170465Y18953384D01*
X-2114961Y18966500D01*
X-984615Y18966500D01*
X-922105Y18949591D01*
X-876642Y18903475D01*
X-860628Y18840729D01*
X-878428Y18778467D01*
X-925188Y18733668D01*
X-1065073Y18657285D01*
X-1290088Y18488841D01*
X-1488841Y18290088D01*
X-1657285Y18065073D01*
X-1791992Y17818375D01*
X-1890219Y17555018D01*
X-1949967Y17280363D01*
X-1970019Y17000000D01*
X-1949967Y16719637D01*
X-1890219Y16444982D01*
X-1791992Y16181625D01*
X-1657285Y15934927D01*
X-1488841Y15709912D01*
X-1290088Y15511159D01*
X-1065073Y15342715D01*
X-1061179Y15340589D01*
X-1061178Y15340588D01*
X-822264Y15210131D01*
X-822257Y15210128D01*
X-818375Y15208008D01*
X-814232Y15206462D01*
X-814226Y15206460D01*
X-559161Y15111326D01*
X-559157Y15111325D01*
X-555018Y15109781D01*
X-550692Y15108840D01*
X-284696Y15050975D01*
X-284687Y15050973D01*
X-280363Y15050033D01*
X-275949Y15049717D01*
X-275940Y15049716D01*
X-72385Y15035158D01*
X-72383Y15035157D01*
X-70175Y15035000D01*
X67960Y15035000D01*
X70175Y15035000D01*
X72383Y15035157D01*
X72385Y15035158D01*
X275940Y15049716D01*
X275949Y15049717D01*
X280363Y15050033D01*
X284687Y15050973D01*
X284696Y15050975D01*
X550692Y15108840D01*
X555018Y15109781D01*
X559157Y15111325D01*
X559161Y15111326D01*
X814226Y15206460D01*
X814232Y15206462D01*
X818375Y15208008D01*
X822257Y15210128D01*
X822264Y15210131D01*
X1061178Y15340588D01*
X1061179Y15340589D01*
X1065073Y15342715D01*
X1290088Y15511159D01*
X1488841Y15709912D01*
X1657285Y15934927D01*
X1791992Y16181625D01*
X1890219Y16444982D01*
X1949967Y16719637D01*
X1970019Y17000000D01*
X1949967Y17280363D01*
X1890219Y17555018D01*
X1791992Y17818375D01*
X1657285Y18065073D01*
X1488841Y18290088D01*
X1290088Y18488841D01*
X1065073Y18657285D01*
X925188Y18733668D01*
X878428Y18778467D01*
X860628Y18840729D01*
X876642Y18903475D01*
X922105Y18949591D01*
X984615Y18966500D01*
X3184584Y18966500D01*
X3232037Y18957061D01*
X3272265Y18930181D01*
X3719650Y18482794D01*
X3727249Y18474443D01*
X3731350Y18467982D01*
X3737035Y18462642D01*
X3737038Y18462640D01*
X3781019Y18421338D01*
X3783811Y18418633D01*
X3803580Y18398865D01*
X3806652Y18396481D01*
X3806656Y18396478D01*
X3806858Y18396322D01*
X3815720Y18388752D01*
X3839433Y18366485D01*
X3848029Y18358414D01*
X3854857Y18354659D01*
X3854860Y18354658D01*
X3865917Y18348579D01*
X3882169Y18337903D01*
X3892141Y18330168D01*
X3892152Y18330160D01*
X3898309Y18325386D01*
X3905460Y18322291D01*
X3905466Y18322288D01*
X3938978Y18307786D01*
X3949465Y18302648D01*
X3981448Y18285065D01*
X3981456Y18285061D01*
X3988290Y18281305D01*
X3995841Y18279366D01*
X3995849Y18279363D01*
X4008072Y18276225D01*
X4026469Y18269926D01*
X4045205Y18261819D01*
X4052903Y18260599D01*
X4052909Y18260598D01*
X4088961Y18254888D01*
X4100395Y18252520D01*
X4135767Y18243438D01*
X4135776Y18243436D01*
X4143320Y18241500D01*
X4163735Y18241500D01*
X4183133Y18239973D01*
X4195583Y18238001D01*
X4195584Y18238000D01*
X4203293Y18236780D01*
X4211058Y18237514D01*
X4211061Y18237514D01*
X4247408Y18240950D01*
X4259077Y18241500D01*
X4993424Y18241500D01*
X5056443Y18224292D01*
X5101972Y18177444D01*
X5117373Y18113959D01*
X5098373Y18051457D01*
X5050245Y18007285D01*
X4901830Y17930771D01*
X4736490Y17800747D01*
X4732621Y17796282D01*
X4670460Y17724544D01*
X4598745Y17641781D01*
X4493574Y17459619D01*
X4491641Y17454035D01*
X4491639Y17454030D01*
X4426709Y17266427D01*
X4426707Y17266421D01*
X4424778Y17260846D01*
X4423938Y17255007D01*
X4423937Y17255001D01*
X4395682Y17058484D01*
X4395681Y17058478D01*
X4394843Y17052645D01*
X4395123Y17046760D01*
X4395123Y17046753D01*
X4403992Y16860595D01*
X4404852Y16842541D01*
X4406243Y16836803D01*
X4406244Y16836803D01*
X4449526Y16658390D01*
X4454442Y16638129D01*
X4456893Y16632760D01*
X4456897Y16632751D01*
X4539363Y16452175D01*
X4539367Y16452166D01*
X4541821Y16446795D01*
X4545247Y16441983D01*
X4545251Y16441977D01*
X4660400Y16280273D01*
X4660404Y16280267D01*
X4663831Y16275456D01*
X4668104Y16271381D01*
X4668109Y16271376D01*
X4811791Y16134376D01*
X4816063Y16130303D01*
X4821026Y16127113D01*
X4821028Y16127112D01*
X4988043Y16019778D01*
X4988048Y16019775D01*
X4993014Y16016584D01*
X4998498Y16014388D01*
X4998501Y16014387D01*
X5182799Y15940604D01*
X5182803Y15940602D01*
X5188288Y15938407D01*
X5194088Y15937289D01*
X5194092Y15937288D01*
X5389031Y15899717D01*
X5389035Y15899716D01*
X5394829Y15898600D01*
X5549514Y15898600D01*
X5552468Y15898600D01*
X5555397Y15898879D01*
X5555403Y15898880D01*
X5703508Y15913022D01*
X5703512Y15913022D01*
X5709389Y15913584D01*
X5715058Y15915248D01*
X5715060Y15915249D01*
X5905545Y15971180D01*
X5905548Y15971181D01*
X5911211Y15972844D01*
X5916460Y15975550D01*
X6092920Y16066522D01*
X6092923Y16066524D01*
X6098170Y16069229D01*
X6193723Y16144372D01*
X6258864Y16195599D01*
X6258866Y16195601D01*
X6263510Y16199253D01*
X6401255Y16358219D01*
X6506426Y16540381D01*
X6575222Y16739154D01*
X6605157Y16947355D01*
X6595148Y17157459D01*
X6545558Y17361871D01*
X6458179Y17553205D01*
X6336169Y17724544D01*
X6183937Y17869697D01*
X6006986Y17983416D01*
X5959607Y18002383D01*
X5906076Y18043663D01*
X5882151Y18106889D01*
X5894945Y18173268D01*
X5940655Y18223073D01*
X6005696Y18241500D01*
X9571154Y18241500D01*
X9582437Y18240968D01*
X9589909Y18239298D01*
X9597705Y18239543D01*
X9597707Y18239543D01*
X9658017Y18241439D01*
X9661913Y18241500D01*
X9685961Y18241500D01*
X9689856Y18241500D01*
X9693721Y18241988D01*
X9693732Y18241989D01*
X9693970Y18242019D01*
X9705596Y18242934D01*
X9742096Y18244081D01*
X9742103Y18244082D01*
X9749889Y18244327D01*
X9757370Y18246500D01*
X9757380Y18246502D01*
X9769495Y18250022D01*
X9788542Y18253967D01*
X9801058Y18255548D01*
X9801060Y18255548D01*
X9808797Y18256526D01*
X9816045Y18259395D01*
X9816054Y18259398D01*
X9850001Y18272838D01*
X9861048Y18276621D01*
X9877169Y18281305D01*
X9903593Y18288982D01*
X9910768Y18293225D01*
X9921168Y18299375D01*
X9938631Y18307930D01*
X9950364Y18312576D01*
X9950365Y18312576D01*
X9957617Y18315448D01*
X9977877Y18330168D01*
X9993462Y18341491D01*
X10003227Y18347905D01*
X10034644Y18366485D01*
X10041362Y18370458D01*
X10055793Y18384889D01*
X10070588Y18397525D01*
X10080791Y18404938D01*
X10080796Y18404943D01*
X10087107Y18409528D01*
X10115350Y18443668D01*
X10123212Y18452308D01*
X10292198Y18621294D01*
X10300551Y18628896D01*
X10307018Y18633000D01*
X10353658Y18682668D01*
X10356369Y18685465D01*
X10373373Y18702469D01*
X10376134Y18705230D01*
X10378660Y18708486D01*
X10386248Y18717372D01*
X10416586Y18749679D01*
X10420768Y18757286D01*
X10426421Y18767568D01*
X10437103Y18783830D01*
X10444827Y18793788D01*
X10444829Y18793792D01*
X10449613Y18799959D01*
X10467206Y18840614D01*
X10472346Y18851107D01*
X10472774Y18851885D01*
X10493695Y18889940D01*
X10498773Y18909718D01*
X10505074Y18928120D01*
X10510081Y18939691D01*
X10513181Y18946855D01*
X10520111Y18990614D01*
X10522477Y19002041D01*
X10533500Y19044970D01*
X10533500Y19065391D01*
X10535027Y19084788D01*
X10535449Y19087454D01*
X10538219Y19104943D01*
X10537484Y19112713D01*
X10537730Y19120510D01*
X10540839Y19120412D01*
X10550514Y19172630D01*
X10596240Y19222885D01*
X10661585Y19241500D01*
X11507985Y19241500D01*
X11555438Y19232061D01*
X11595666Y19205181D01*
X12491385Y18309460D01*
X12524711Y18248857D01*
X12520393Y18179831D01*
X12479774Y18123854D01*
X12415491Y18098340D01*
X12290611Y18086416D01*
X12088789Y18027156D01*
X11901830Y17930771D01*
X11736490Y17800747D01*
X11732621Y17796282D01*
X11670460Y17724544D01*
X11598745Y17641781D01*
X11493574Y17459619D01*
X11491641Y17454035D01*
X11491639Y17454030D01*
X11426709Y17266427D01*
X11426707Y17266421D01*
X11424778Y17260846D01*
X11423938Y17255007D01*
X11423937Y17255001D01*
X11395682Y17058484D01*
X11395681Y17058478D01*
X11394843Y17052645D01*
X11395123Y17046760D01*
X11395123Y17046753D01*
X11403992Y16860595D01*
X11404852Y16842541D01*
X11406243Y16836803D01*
X11406244Y16836803D01*
X11449526Y16658390D01*
X11454442Y16638129D01*
X11456893Y16632760D01*
X11456897Y16632751D01*
X11539363Y16452175D01*
X11539367Y16452166D01*
X11541821Y16446795D01*
X11545247Y16441983D01*
X11545251Y16441977D01*
X11660400Y16280273D01*
X11660404Y16280267D01*
X11663831Y16275456D01*
X11668104Y16271381D01*
X11668109Y16271376D01*
X11811791Y16134376D01*
X11816063Y16130303D01*
X11821026Y16127113D01*
X11821028Y16127112D01*
X11988043Y16019778D01*
X11988048Y16019775D01*
X11993014Y16016584D01*
X11998498Y16014388D01*
X11998501Y16014387D01*
X12182799Y15940604D01*
X12182803Y15940602D01*
X12188288Y15938407D01*
X12194088Y15937289D01*
X12194092Y15937288D01*
X12389031Y15899717D01*
X12389035Y15899716D01*
X12394829Y15898600D01*
X12549514Y15898600D01*
X12552468Y15898600D01*
X12555397Y15898879D01*
X12555403Y15898880D01*
X12703508Y15913022D01*
X12703512Y15913022D01*
X12709389Y15913584D01*
X12715058Y15915248D01*
X12715060Y15915249D01*
X12905545Y15971180D01*
X12905548Y15971181D01*
X12911211Y15972844D01*
X12916460Y15975550D01*
X13092920Y16066522D01*
X13092923Y16066524D01*
X13098170Y16069229D01*
X13193723Y16144372D01*
X13258864Y16195599D01*
X13258866Y16195601D01*
X13263510Y16199253D01*
X13401255Y16358219D01*
X13506426Y16540381D01*
X13575222Y16739154D01*
X13601119Y16919274D01*
X13628710Y16981143D01*
X13684698Y17019280D01*
X13752374Y17022302D01*
X13811538Y16989307D01*
X16793047Y14007798D01*
X16800649Y13999443D01*
X16804751Y13992982D01*
X16810430Y13987648D01*
X16810436Y13987642D01*
X16854436Y13946323D01*
X16857228Y13943618D01*
X16876981Y13923866D01*
X16880046Y13921487D01*
X16880054Y13921481D01*
X16880259Y13921323D01*
X16889119Y13913754D01*
X16908557Y13895502D01*
X16921430Y13883414D01*
X16928258Y13879659D01*
X16928268Y13879653D01*
X16939321Y13873577D01*
X16955575Y13862901D01*
X16965543Y13855169D01*
X16965550Y13855164D01*
X16971710Y13850387D01*
X16978864Y13847290D01*
X16978871Y13847287D01*
X17012370Y13832790D01*
X17022854Y13827654D01*
X17054855Y13810062D01*
X17054861Y13810059D01*
X17061691Y13806305D01*
X17081470Y13801226D01*
X17099866Y13794927D01*
X17111442Y13789917D01*
X17111455Y13789913D01*
X17118606Y13786819D01*
X17126302Y13785599D01*
X17126309Y13785598D01*
X17162362Y13779888D01*
X17173796Y13777520D01*
X17209168Y13768438D01*
X17209177Y13768436D01*
X17216721Y13766500D01*
X17237136Y13766500D01*
X17256534Y13764973D01*
X17268984Y13763001D01*
X17268985Y13763000D01*
X17276694Y13761780D01*
X17284459Y13762514D01*
X17284462Y13762514D01*
X17320809Y13765950D01*
X17332478Y13766500D01*
X20114961Y13766500D01*
X20170465Y13753384D01*
X20214226Y13716812D01*
X20236739Y13686739D01*
X20243835Y13681426D01*
X20243836Y13681426D01*
X20346695Y13604426D01*
X20346698Y13604423D01*
X20353796Y13599111D01*
X20362099Y13596013D01*
X20362105Y13596011D01*
X20483536Y13550719D01*
X20483543Y13550717D01*
X20490799Y13548011D01*
X20498498Y13547183D01*
X20498512Y13547180D01*
X20528548Y13543951D01*
X20590073Y13519573D01*
X20630298Y13467022D01*
X20636703Y13410605D01*
X20638246Y13410557D01*
X20638000Y13402765D01*
X20636780Y13395057D01*
X20637514Y13387291D01*
X20637514Y13387288D01*
X20640950Y13350942D01*
X20641500Y13339273D01*
X20641500Y12982500D01*
X20624887Y12920500D01*
X20579500Y12875113D01*
X20517500Y12858500D01*
X19926362Y12858500D01*
X19865799Y12851989D01*
X19728796Y12800889D01*
X19611739Y12713261D01*
X19524111Y12596204D01*
X19521012Y12587896D01*
X19521011Y12587894D01*
X19475719Y12466463D01*
X19475717Y12466458D01*
X19473011Y12459201D01*
X19466500Y12398638D01*
X19466500Y12395328D01*
X19466500Y12359046D01*
X19452561Y12301926D01*
X19413876Y12257649D01*
X19359145Y12236168D01*
X19300671Y12242314D01*
X19251601Y12274705D01*
X19234169Y12293492D01*
X19193981Y12336805D01*
X18988857Y12500386D01*
X18761643Y12631568D01*
X18517416Y12727420D01*
X18261630Y12785802D01*
X18065494Y12800500D01*
X17934506Y12800500D01*
X17738370Y12785802D01*
X17482584Y12727420D01*
X17238357Y12631568D01*
X17011143Y12500386D01*
X16806019Y12336805D01*
X16627567Y12144479D01*
X16479772Y11927704D01*
X16477756Y11923519D01*
X16477756Y11923518D01*
X16371944Y11703796D01*
X16365937Y11691323D01*
X16364573Y11686901D01*
X16364569Y11686891D01*
X16289971Y11445048D01*
X16288604Y11440615D01*
X16287913Y11436035D01*
X16287912Y11436028D01*
X16250190Y11185765D01*
X16250189Y11185754D01*
X16249500Y11181182D01*
X16249500Y10918818D01*
X16250189Y10914246D01*
X16250190Y10914234D01*
X16287912Y10663971D01*
X16287914Y10663961D01*
X16288604Y10659385D01*
X16289968Y10654959D01*
X16289971Y10654951D01*
X16364569Y10413108D01*
X16364574Y10413093D01*
X16365937Y10408677D01*
X16367944Y10404508D01*
X16367949Y10404497D01*
X16477756Y10176481D01*
X16477759Y10176474D01*
X16479772Y10172296D01*
X16627567Y9955521D01*
X16630713Y9952129D01*
X16630719Y9952123D01*
X16773656Y9798074D01*
X16806019Y9763195D01*
X16809641Y9760306D01*
X16809646Y9760302D01*
X17007516Y9602506D01*
X17007519Y9602503D01*
X17011143Y9599614D01*
X17015159Y9597295D01*
X17015161Y9597294D01*
X17234335Y9470753D01*
X17234346Y9470747D01*
X17238357Y9468432D01*
X17242670Y9466739D01*
X17242681Y9466734D01*
X17478261Y9374276D01*
X17478268Y9374273D01*
X17482584Y9372580D01*
X17487102Y9371548D01*
X17487108Y9371547D01*
X17733850Y9315229D01*
X17733858Y9315227D01*
X17738370Y9314198D01*
X17742989Y9313851D01*
X17742995Y9313851D01*
X17932191Y9299673D01*
X17932203Y9299672D01*
X17934506Y9299500D01*
X18063177Y9299500D01*
X18065494Y9299500D01*
X18067797Y9299672D01*
X18067808Y9299673D01*
X18257004Y9313851D01*
X18257008Y9313851D01*
X18261630Y9314198D01*
X18266143Y9315228D01*
X18266149Y9315229D01*
X18512891Y9371547D01*
X18512893Y9371547D01*
X18517416Y9372580D01*
X18521734Y9374275D01*
X18521738Y9374276D01*
X18757318Y9466734D01*
X18757324Y9466737D01*
X18761643Y9468432D01*
X18765658Y9470750D01*
X18765664Y9470753D01*
X18894216Y9544973D01*
X18988857Y9599614D01*
X19193981Y9763195D01*
X19251601Y9825295D01*
X19300671Y9857686D01*
X19359145Y9863832D01*
X19413876Y9842351D01*
X19452561Y9798074D01*
X19466500Y9740954D01*
X19466500Y9701362D01*
X19466852Y9698082D01*
X19466853Y9698075D01*
X19472182Y9648505D01*
X19472182Y9648500D01*
X19473011Y9640799D01*
X19475717Y9633543D01*
X19475719Y9633536D01*
X19521011Y9512105D01*
X19521013Y9512099D01*
X19524111Y9503796D01*
X19529423Y9496698D01*
X19529426Y9496695D01*
X19606426Y9393835D01*
X19606429Y9393831D01*
X19611739Y9386739D01*
X19618831Y9381429D01*
X19618835Y9381426D01*
X19721695Y9304426D01*
X19721698Y9304423D01*
X19728796Y9299111D01*
X19737099Y9296013D01*
X19737105Y9296011D01*
X19858536Y9250719D01*
X19858543Y9250717D01*
X19865799Y9248011D01*
X19873500Y9247182D01*
X19873505Y9247182D01*
X19923075Y9241853D01*
X19923082Y9241852D01*
X19926362Y9241500D01*
X22167500Y9241500D01*
X22229500Y9224887D01*
X22274887Y9179500D01*
X22291500Y9117500D01*
X22291500Y9005082D01*
X22282061Y8957629D01*
X22255181Y8917401D01*
X13720151Y382372D01*
X13669523Y351718D01*
X13610453Y348023D01*
X13556399Y372129D01*
X13519679Y418537D01*
X13458179Y553205D01*
X13336169Y724544D01*
X13183937Y869697D01*
X13006986Y983416D01*
X12811712Y1061593D01*
X12605171Y1101400D01*
X12447532Y1101400D01*
X12290611Y1086416D01*
X12088789Y1027156D01*
X11901830Y930771D01*
X11736490Y800747D01*
X11732621Y796282D01*
X11629982Y677830D01*
X11598745Y641781D01*
X11493574Y459619D01*
X11491641Y454035D01*
X11491639Y454030D01*
X11426709Y266427D01*
X11426707Y266421D01*
X11424778Y260846D01*
X11423938Y255007D01*
X11423937Y255001D01*
X11395682Y58484D01*
X11395681Y58478D01*
X11394843Y52645D01*
X11395123Y46760D01*
X11395123Y46753D01*
X11402341Y-104758D01*
X11404852Y-157459D01*
X11423762Y-235408D01*
X11441516Y-308592D01*
X11454442Y-361871D01*
X11456895Y-367242D01*
X11456897Y-367248D01*
X11539363Y-547824D01*
X11539365Y-547828D01*
X11541821Y-553205D01*
X11663831Y-724544D01*
X11668109Y-728623D01*
X11722260Y-780256D01*
X11753870Y-829443D01*
X11759428Y-887646D01*
X11737697Y-941926D01*
X11693510Y-980215D01*
X11636690Y-993999D01*
X10190853Y-993999D01*
X10126525Y-976008D01*
X10080864Y-927256D01*
X10067119Y-861889D01*
X10089278Y-798875D01*
X10091094Y-796282D01*
X10174035Y-677830D01*
X10273903Y-463663D01*
X10335063Y-235408D01*
X10355659Y0D01*
X10335063Y235408D01*
X10273903Y463663D01*
X10174035Y677829D01*
X10038495Y871401D01*
X9871401Y1038495D01*
X9677829Y1174035D01*
X9463663Y1273903D01*
X9235408Y1335063D01*
X9058966Y1350500D01*
X8941034Y1350500D01*
X8764592Y1335063D01*
X8536337Y1273903D01*
X8322171Y1174035D01*
X8128599Y1038495D01*
X7961505Y871401D01*
X7958402Y866970D01*
X7958399Y866966D01*
X7829066Y682259D01*
X7825965Y677830D01*
X7823681Y672933D01*
X7823678Y672927D01*
X7767851Y553205D01*
X7726097Y463663D01*
X7724697Y458438D01*
X7724694Y458430D01*
X7675797Y275940D01*
X7664937Y235408D01*
X7664465Y230020D01*
X7664465Y230017D01*
X7649458Y58484D01*
X7644341Y0D01*
X7644813Y-5395D01*
X7663680Y-221048D01*
X7664937Y-235408D01*
X7666336Y-240630D01*
X7666337Y-240634D01*
X7724694Y-458430D01*
X7724697Y-458438D01*
X7726097Y-463663D01*
X7825965Y-677829D01*
X7908906Y-796282D01*
X7910723Y-798876D01*
X7932883Y-861889D01*
X7919137Y-927256D01*
X7873476Y-976008D01*
X7809148Y-993999D01*
X6367579Y-993999D01*
X6300540Y-974314D01*
X6254785Y-921511D01*
X6244841Y-852352D01*
X6273866Y-788796D01*
X6333715Y-719726D01*
X6401255Y-641781D01*
X6506426Y-459619D01*
X6575222Y-260846D01*
X6605157Y-52645D01*
X6595148Y157459D01*
X6545558Y361871D01*
X6458179Y553205D01*
X6336169Y724544D01*
X6183937Y869697D01*
X6006986Y983416D01*
X5811712Y1061593D01*
X5605171Y1101400D01*
X5447532Y1101400D01*
X5290611Y1086416D01*
X5088789Y1027156D01*
X4901830Y930771D01*
X4736490Y800747D01*
X4732621Y796282D01*
X4629982Y677830D01*
X4598745Y641781D01*
X4493574Y459619D01*
X4491641Y454035D01*
X4491639Y454030D01*
X4426709Y266427D01*
X4426707Y266421D01*
X4424778Y260846D01*
X4423938Y255007D01*
X4423937Y255001D01*
X4395682Y58484D01*
X4395681Y58478D01*
X4394843Y52645D01*
X4395123Y46760D01*
X4395123Y46753D01*
X4402341Y-104758D01*
X4404852Y-157459D01*
X4423762Y-235408D01*
X4441516Y-308592D01*
X4454442Y-361871D01*
X4456895Y-367242D01*
X4456897Y-367248D01*
X4539363Y-547824D01*
X4539365Y-547828D01*
X4541821Y-553205D01*
X4663831Y-724544D01*
X4668109Y-728623D01*
X4722260Y-780256D01*
X4753870Y-829443D01*
X4759428Y-887646D01*
X4737697Y-941926D01*
X4693510Y-980215D01*
X4636690Y-993999D01*
X1904388Y-993999D01*
X1844961Y-978831D01*
X1800072Y-937038D01*
X1780704Y-878844D01*
X1791427Y-819408D01*
X1791992Y-818375D01*
X1890219Y-555018D01*
X1949967Y-280363D01*
X1970019Y0D01*
X1949967Y280363D01*
X1890219Y555018D01*
X1791992Y818375D01*
X1657285Y1065073D01*
X1488841Y1290088D01*
X1290088Y1488841D01*
X1065073Y1657285D01*
X818375Y1791992D01*
X555018Y1890219D01*
X280363Y1949967D01*
X70175Y1965000D01*
X-70175Y1965000D01*
X-280363Y1949967D01*
X-555018Y1890219D01*
X-818375Y1791992D01*
X-1065073Y1657285D01*
X-1290088Y1488841D01*
X-1488841Y1290088D01*
X-1657285Y1065073D01*
X-1791992Y818375D01*
X-1890219Y555018D01*
X-1949967Y280363D01*
X-1953567Y230017D01*
X-1956594Y187700D01*
X-1973187Y134036D01*
X-2011756Y93199D01*
X-2064385Y73569D01*
X-2120276Y79174D01*
X-2167959Y108865D01*
X-2230181Y171087D01*
X-2257061Y211315D01*
X-2266500Y258768D01*
X-2266500Y1807400D01*
X-2257061Y1854853D01*
X-2236083Y1886248D01*
X-2236739Y1886739D01*
X-2154426Y1996695D01*
X-2154423Y1996698D01*
X-2149111Y2003796D01*
X-2146013Y2012099D01*
X-2146011Y2012105D01*
X-2100719Y2133536D01*
X-2100717Y2133543D01*
X-2098011Y2140799D01*
X-2097182Y2148500D01*
X-2097182Y2148505D01*
X-2091853Y2198075D01*
X-2091852Y2198082D01*
X-2091500Y2201362D01*
X-2091500Y2998638D01*
X-2098011Y3059201D01*
X-2100717Y3066458D01*
X-2100719Y3066463D01*
X-2146011Y3187894D01*
X-2146012Y3187896D01*
X-2149111Y3196204D01*
X-2236739Y3313261D01*
X-2353796Y3400889D01*
X-2490799Y3451989D01*
X-2528545Y3456047D01*
X-2590071Y3480424D01*
X-2630296Y3532974D01*
X-2636703Y3589394D01*
X-2638246Y3589443D01*
X-2638000Y3597234D01*
X-2636780Y3604943D01*
X-2638092Y3618818D01*
X3249500Y3618818D01*
X3250189Y3614246D01*
X3250190Y3614234D01*
X3287912Y3363971D01*
X3287914Y3363961D01*
X3288604Y3359385D01*
X3289968Y3354959D01*
X3289971Y3354951D01*
X3364569Y3113108D01*
X3364574Y3113093D01*
X3365937Y3108677D01*
X3367944Y3104508D01*
X3367949Y3104497D01*
X3477756Y2876481D01*
X3477759Y2876474D01*
X3479772Y2872296D01*
X3627567Y2655521D01*
X3630713Y2652129D01*
X3630719Y2652123D01*
X3773656Y2498074D01*
X3806019Y2463195D01*
X3809641Y2460306D01*
X3809646Y2460302D01*
X4007516Y2302506D01*
X4007519Y2302503D01*
X4011143Y2299614D01*
X4015159Y2297295D01*
X4015161Y2297294D01*
X4234335Y2170753D01*
X4234346Y2170747D01*
X4238357Y2168432D01*
X4242670Y2166739D01*
X4242681Y2166734D01*
X4478261Y2074276D01*
X4478268Y2074273D01*
X4482584Y2072580D01*
X4487102Y2071548D01*
X4487108Y2071547D01*
X4733850Y2015229D01*
X4733858Y2015227D01*
X4738370Y2014198D01*
X4742989Y2013851D01*
X4742995Y2013851D01*
X4932191Y1999673D01*
X4932203Y1999672D01*
X4934506Y1999500D01*
X5063177Y1999500D01*
X5065494Y1999500D01*
X5067797Y1999672D01*
X5067808Y1999673D01*
X5257004Y2013851D01*
X5257008Y2013851D01*
X5261630Y2014198D01*
X5266143Y2015228D01*
X5266149Y2015229D01*
X5512891Y2071547D01*
X5512893Y2071547D01*
X5517416Y2072580D01*
X5521734Y2074275D01*
X5521738Y2074276D01*
X5757318Y2166734D01*
X5757324Y2166737D01*
X5761643Y2168432D01*
X5765658Y2170750D01*
X5765664Y2170753D01*
X5894216Y2244973D01*
X5988857Y2299614D01*
X6193981Y2463195D01*
X6251601Y2525295D01*
X6300671Y2557686D01*
X6359145Y2563832D01*
X6413876Y2542351D01*
X6452561Y2498074D01*
X6466500Y2440954D01*
X6466500Y2401362D01*
X6466852Y2398082D01*
X6466853Y2398075D01*
X6472182Y2348505D01*
X6472182Y2348500D01*
X6473011Y2340799D01*
X6475717Y2333543D01*
X6475719Y2333536D01*
X6521011Y2212105D01*
X6521013Y2212099D01*
X6524111Y2203796D01*
X6529423Y2196698D01*
X6529426Y2196695D01*
X6606426Y2093835D01*
X6606429Y2093831D01*
X6611739Y2086739D01*
X6618831Y2081429D01*
X6618835Y2081426D01*
X6721695Y2004426D01*
X6721698Y2004423D01*
X6728796Y1999111D01*
X6737099Y1996013D01*
X6737105Y1996011D01*
X6858536Y1950719D01*
X6858543Y1950717D01*
X6865799Y1948011D01*
X6873500Y1947182D01*
X6873505Y1947182D01*
X6923075Y1941853D01*
X6923082Y1941852D01*
X6926362Y1941500D01*
X9620328Y1941500D01*
X9623638Y1941500D01*
X9626918Y1941852D01*
X9626924Y1941853D01*
X9676494Y1947182D01*
X9676497Y1947182D01*
X9684201Y1948011D01*
X9691458Y1950717D01*
X9691463Y1950719D01*
X9812894Y1996011D01*
X9812896Y1996012D01*
X9821204Y1999111D01*
X9919347Y2072580D01*
X9931164Y2081426D01*
X9938261Y2086739D01*
X10025889Y2203796D01*
X10076989Y2340799D01*
X10083500Y2401362D01*
X10083500Y5098638D01*
X10076989Y5159201D01*
X10025889Y5296204D01*
X9938261Y5413261D01*
X9821204Y5500889D01*
X9684201Y5551989D01*
X9623638Y5558500D01*
X6926362Y5558500D01*
X6865799Y5551989D01*
X6728796Y5500889D01*
X6611739Y5413261D01*
X6524111Y5296204D01*
X6521012Y5287896D01*
X6521011Y5287894D01*
X6475719Y5166463D01*
X6475717Y5166458D01*
X6473011Y5159201D01*
X6466500Y5098638D01*
X6466500Y5095328D01*
X6466500Y5059046D01*
X6452561Y5001926D01*
X6413876Y4957649D01*
X6359145Y4936168D01*
X6300671Y4942314D01*
X6251601Y4974705D01*
X6234169Y4993492D01*
X6193981Y5036805D01*
X5988857Y5200386D01*
X5761643Y5331568D01*
X5517416Y5427420D01*
X5261630Y5485802D01*
X5065494Y5500500D01*
X4934506Y5500500D01*
X4738370Y5485802D01*
X4482584Y5427420D01*
X4238357Y5331568D01*
X4011143Y5200386D01*
X3806019Y5036805D01*
X3627567Y4844479D01*
X3479772Y4627704D01*
X3477756Y4623519D01*
X3477756Y4623518D01*
X3371944Y4403796D01*
X3365937Y4391323D01*
X3364573Y4386901D01*
X3364569Y4386891D01*
X3289971Y4145048D01*
X3288604Y4140615D01*
X3287913Y4136035D01*
X3287912Y4136028D01*
X3250190Y3885765D01*
X3250189Y3885754D01*
X3249500Y3881182D01*
X3249500Y3618818D01*
X-2638092Y3618818D01*
X-2640950Y3649058D01*
X-2641500Y3660727D01*
X-2641500Y4017500D01*
X-2624887Y4079500D01*
X-2579500Y4124887D01*
X-2517500Y4141500D01*
X-1929672Y4141500D01*
X-1926362Y4141500D01*
X-1923082Y4141852D01*
X-1923075Y4141853D01*
X-1873505Y4147182D01*
X-1873500Y4147182D01*
X-1865799Y4148011D01*
X-1858543Y4150717D01*
X-1858536Y4150719D01*
X-1737105Y4196011D01*
X-1737099Y4196013D01*
X-1728796Y4199111D01*
X-1721698Y4204423D01*
X-1721695Y4204426D01*
X-1618835Y4281426D01*
X-1618831Y4281429D01*
X-1611739Y4286739D01*
X-1606429Y4293831D01*
X-1606426Y4293835D01*
X-1529426Y4396695D01*
X-1529423Y4396698D01*
X-1524111Y4403796D01*
X-1521013Y4412099D01*
X-1521011Y4412105D01*
X-1475719Y4533536D01*
X-1475717Y4533543D01*
X-1473011Y4540799D01*
X-1472182Y4548500D01*
X-1472182Y4548505D01*
X-1466853Y4598075D01*
X-1466852Y4598082D01*
X-1466500Y4601362D01*
X-1466500Y4640954D01*
X-1452561Y4698074D01*
X-1413876Y4742351D01*
X-1359145Y4763832D01*
X-1300671Y4757686D01*
X-1251601Y4725295D01*
X-1193981Y4663195D01*
X-988857Y4499614D01*
X-894216Y4444973D01*
X-765664Y4370753D01*
X-765658Y4370750D01*
X-761643Y4368432D01*
X-757324Y4366737D01*
X-757318Y4366734D01*
X-521738Y4274276D01*
X-521734Y4274275D01*
X-517416Y4272580D01*
X-512893Y4271547D01*
X-512891Y4271547D01*
X-266149Y4215229D01*
X-266143Y4215228D01*
X-261630Y4214198D01*
X-257008Y4213851D01*
X-257004Y4213851D01*
X-67808Y4199673D01*
X-67797Y4199672D01*
X-65494Y4199500D01*
X63177Y4199500D01*
X65494Y4199500D01*
X67797Y4199672D01*
X67808Y4199673D01*
X257004Y4213851D01*
X257008Y4213851D01*
X261630Y4214198D01*
X266143Y4215228D01*
X266149Y4215229D01*
X512891Y4271547D01*
X512893Y4271547D01*
X517416Y4272580D01*
X521734Y4274275D01*
X521738Y4274276D01*
X757318Y4366734D01*
X757324Y4366737D01*
X761643Y4368432D01*
X765658Y4370750D01*
X765664Y4370753D01*
X894216Y4444973D01*
X988857Y4499614D01*
X1193981Y4663195D01*
X1372433Y4855521D01*
X1520228Y5072296D01*
X1634063Y5308677D01*
X1641648Y5333265D01*
X1688805Y5486148D01*
X1711396Y5559385D01*
X1750500Y5818818D01*
X1750500Y6081182D01*
X1711396Y6340615D01*
X1634063Y6591323D01*
X1520228Y6827704D01*
X1372433Y7044479D01*
X1193981Y7236805D01*
X988857Y7400386D01*
X761643Y7531568D01*
X517416Y7627420D01*
X261630Y7685802D01*
X65494Y7700500D01*
X-65494Y7700500D01*
X-261630Y7685802D01*
X-517416Y7627420D01*
X-761643Y7531568D01*
X-988857Y7400386D01*
X-1193981Y7236805D01*
X-1251601Y7174705D01*
X-1300671Y7142314D01*
X-1359145Y7136168D01*
X-1413876Y7157649D01*
X-1452561Y7201926D01*
X-1466500Y7259046D01*
X-1466500Y7295328D01*
X-1466500Y7298638D01*
X-1473011Y7359201D01*
X-1475717Y7366458D01*
X-1475719Y7366463D01*
X-1521011Y7487894D01*
X-1521012Y7487896D01*
X-1524111Y7496204D01*
X-1611739Y7613261D01*
X-1728796Y7700889D01*
X-1865799Y7751989D01*
X-1926362Y7758500D01*
X-4623638Y7758500D01*
X-4684201Y7751989D01*
X-4821204Y7700889D01*
X-4938261Y7613261D01*
X-5025889Y7496204D01*
X-5076989Y7359201D01*
X-5083500Y7298638D01*
X-5083500Y4601362D01*
X-5076989Y4540799D01*
X-5025889Y4403796D01*
X-4938261Y4286739D01*
X-4931164Y4281426D01*
X-4919347Y4272580D01*
X-4821204Y4199111D01*
X-4812896Y4196012D01*
X-4812894Y4196011D01*
X-4691463Y4150719D01*
X-4691458Y4150717D01*
X-4684201Y4148011D01*
X-4676497Y4147182D01*
X-4676494Y4147182D01*
X-4626924Y4141853D01*
X-4626918Y4141852D01*
X-4623638Y4141500D01*
X-4032500Y4141500D01*
X-3970500Y4124887D01*
X-3925113Y4079500D01*
X-3908500Y4017500D01*
X-3908500Y3938766D01*
X-3917939Y3891313D01*
X-3944819Y3851085D01*
X-4301086Y3494819D01*
X-4341314Y3467939D01*
X-4388767Y3458500D01*
X-4648638Y3458500D01*
X-4709201Y3451989D01*
X-4846204Y3400889D01*
X-4963261Y3313261D01*
X-5050889Y3196204D01*
X-5101989Y3059201D01*
X-5108500Y2998638D01*
X-5108500Y2201362D01*
X-8924500Y2201362D01*
X-8924500Y11901362D01*
X7916500Y11901362D01*
X7916852Y11898082D01*
X7916853Y11898075D01*
X7922182Y11848505D01*
X7922182Y11848500D01*
X7923011Y11840799D01*
X7925717Y11833543D01*
X7925719Y11833536D01*
X7971011Y11712105D01*
X7971013Y11712099D01*
X7974111Y11703796D01*
X7979423Y11696698D01*
X7979426Y11696695D01*
X8056426Y11593835D01*
X8056429Y11593831D01*
X8061739Y11586739D01*
X8068831Y11581429D01*
X8068835Y11581426D01*
X8171695Y11504426D01*
X8171698Y11504423D01*
X8178796Y11499111D01*
X8187099Y11496013D01*
X8187105Y11496011D01*
X8308536Y11450719D01*
X8308543Y11450717D01*
X8315799Y11448011D01*
X8323500Y11447182D01*
X8323505Y11447182D01*
X8373075Y11441853D01*
X8373082Y11441852D01*
X8376362Y11441500D01*
X11070328Y11441500D01*
X11073638Y11441500D01*
X11076918Y11441852D01*
X11076924Y11441853D01*
X11126494Y11447182D01*
X11126497Y11447182D01*
X11134201Y11448011D01*
X11141458Y11450717D01*
X11141463Y11450719D01*
X11262894Y11496011D01*
X11262896Y11496012D01*
X11271204Y11499111D01*
X11369347Y11572580D01*
X11381164Y11581426D01*
X11388261Y11586739D01*
X11475889Y11703796D01*
X11526989Y11840799D01*
X11533500Y11901362D01*
X11533500Y11940954D01*
X11547439Y11998074D01*
X11586124Y12042351D01*
X11640855Y12063832D01*
X11699329Y12057686D01*
X11748399Y12025295D01*
X11802863Y11966595D01*
X11802872Y11966586D01*
X11806019Y11963195D01*
X11809641Y11960306D01*
X11809646Y11960302D01*
X12007516Y11802506D01*
X12007519Y11802503D01*
X12011143Y11799614D01*
X12015159Y11797295D01*
X12015161Y11797294D01*
X12234335Y11670753D01*
X12234346Y11670747D01*
X12238357Y11668432D01*
X12242670Y11666739D01*
X12242681Y11666734D01*
X12478261Y11574276D01*
X12478268Y11574273D01*
X12482584Y11572580D01*
X12487102Y11571548D01*
X12487108Y11571547D01*
X12733850Y11515229D01*
X12733858Y11515227D01*
X12738370Y11514198D01*
X12742989Y11513851D01*
X12742995Y11513851D01*
X12932191Y11499673D01*
X12932203Y11499672D01*
X12934506Y11499500D01*
X13063177Y11499500D01*
X13065494Y11499500D01*
X13067797Y11499672D01*
X13067808Y11499673D01*
X13257004Y11513851D01*
X13257008Y11513851D01*
X13261630Y11514198D01*
X13266143Y11515228D01*
X13266149Y11515229D01*
X13512891Y11571547D01*
X13512893Y11571547D01*
X13517416Y11572580D01*
X13521734Y11574275D01*
X13521738Y11574276D01*
X13757318Y11666734D01*
X13757324Y11666737D01*
X13761643Y11668432D01*
X13765658Y11670750D01*
X13765664Y11670753D01*
X13894216Y11744973D01*
X13988857Y11799614D01*
X14193981Y11963195D01*
X14372433Y12155521D01*
X14520228Y12372296D01*
X14634063Y12608677D01*
X14641648Y12633265D01*
X14688805Y12786148D01*
X14711396Y12859385D01*
X14750500Y13118818D01*
X14750500Y13381182D01*
X14711396Y13640615D01*
X14634063Y13891323D01*
X14520228Y14127704D01*
X14372433Y14344479D01*
X14193981Y14536805D01*
X13988857Y14700386D01*
X13761643Y14831568D01*
X13517416Y14927420D01*
X13261630Y14985802D01*
X13065494Y15000500D01*
X12934506Y15000500D01*
X12738370Y14985802D01*
X12482584Y14927420D01*
X12238357Y14831568D01*
X12011143Y14700386D01*
X11806019Y14536805D01*
X11802865Y14533406D01*
X11802863Y14533404D01*
X11748399Y14474705D01*
X11699329Y14442314D01*
X11640855Y14436168D01*
X11586124Y14457649D01*
X11547439Y14501926D01*
X11533500Y14559046D01*
X11533500Y14595328D01*
X11533500Y14598638D01*
X11526989Y14659201D01*
X11475889Y14796204D01*
X11388261Y14913261D01*
X11271204Y15000889D01*
X11134201Y15051989D01*
X11073638Y15058500D01*
X8376362Y15058500D01*
X8315799Y15051989D01*
X8178796Y15000889D01*
X8061739Y14913261D01*
X7974111Y14796204D01*
X7971012Y14787896D01*
X7971011Y14787894D01*
X7925719Y14666463D01*
X7925717Y14666458D01*
X7923011Y14659201D01*
X7916500Y14598638D01*
X7916500Y11901362D01*
X-8924500Y11901362D01*
X-8924500Y17052645D01*
X-6605157Y17052645D01*
X-6595148Y16842541D01*
X-6545558Y16638129D01*
X-6543102Y16632751D01*
X-6498580Y16535260D01*
X-6458179Y16446795D01*
X-6336169Y16275456D01*
X-6183937Y16130303D01*
X-6006986Y16016584D01*
X-5811712Y15938407D01*
X-5805908Y15937288D01*
X-5805907Y15937288D01*
X-5610968Y15899717D01*
X-5610965Y15899716D01*
X-5605171Y15898600D01*
X-5450486Y15898600D01*
X-5447532Y15898600D01*
X-5444603Y15898879D01*
X-5444596Y15898880D01*
X-5296491Y15913022D01*
X-5296485Y15913023D01*
X-5290611Y15913584D01*
X-5284943Y15915248D01*
X-5284939Y15915249D01*
X-5094454Y15971180D01*
X-5094448Y15971182D01*
X-5088789Y15972844D01*
X-5083544Y15975547D01*
X-5083539Y15975550D01*
X-4907079Y16066522D01*
X-4907071Y16066526D01*
X-4901830Y16069229D01*
X-4897187Y16072880D01*
X-4741135Y16195599D01*
X-4741128Y16195605D01*
X-4736490Y16199253D01*
X-4732626Y16203711D01*
X-4732621Y16203717D01*
X-4602611Y16353756D01*
X-4602605Y16353763D01*
X-4598745Y16358219D01*
X-4548652Y16444982D01*
X-4496530Y16535260D01*
X-4496527Y16535264D01*
X-4493574Y16540381D01*
X-4491643Y16545960D01*
X-4491639Y16545969D01*
X-4426709Y16733572D01*
X-4426706Y16733581D01*
X-4424778Y16739154D01*
X-4423938Y16744990D01*
X-4423937Y16744998D01*
X-4395682Y16941515D01*
X-4395681Y16941521D01*
X-4394843Y16947355D01*
X-4395123Y16953239D01*
X-4395123Y16953246D01*
X-4404571Y17151561D01*
X-4404852Y17157459D01*
X-4428516Y17255001D01*
X-4453049Y17356130D01*
X-4453049Y17356132D01*
X-4454442Y17361871D01*
X-4456895Y17367242D01*
X-4456897Y17367248D01*
X-4539363Y17547824D01*
X-4539365Y17547828D01*
X-4541821Y17553205D01*
X-4663831Y17724544D01*
X-4816063Y17869697D01*
X-4993014Y17983416D01*
X-5188288Y18061593D01*
X-5394829Y18101400D01*
X-5552468Y18101400D01*
X-5709389Y18086416D01*
X-5911211Y18027156D01*
X-6098170Y17930771D01*
X-6263510Y17800747D01*
X-6401255Y17641781D01*
X-6506426Y17459619D01*
X-6575222Y17260846D01*
X-6605157Y17052645D01*
X-8924500Y17052645D01*
X-8924500Y34052645D01*
X-6605157Y34052645D01*
X-6595148Y33842541D01*
X-6545558Y33638129D01*
X-6543102Y33632751D01*
X-6474147Y33481759D01*
X-6458179Y33446795D01*
X-6336169Y33275456D01*
X-6183937Y33130303D01*
X-6006986Y33016584D01*
X-5909348Y32977495D01*
X-5878972Y32965334D01*
X-5811712Y32938407D01*
X-5805908Y32937288D01*
X-5805907Y32937288D01*
X-5610968Y32899717D01*
X-5610965Y32899716D01*
X-5605171Y32898600D01*
X-5450486Y32898600D01*
X-5447532Y32898600D01*
X-5444603Y32898879D01*
X-5444596Y32898880D01*
X-5296491Y32913022D01*
X-5296485Y32913023D01*
X-5290611Y32913584D01*
X-5284943Y32915248D01*
X-5284939Y32915249D01*
X-5094454Y32971180D01*
X-5094448Y32971182D01*
X-5088789Y32972844D01*
X-5083544Y32975547D01*
X-5083539Y32975550D01*
X-4907079Y33066522D01*
X-4907071Y33066526D01*
X-4901830Y33069229D01*
X-4872402Y33092371D01*
X-4741135Y33195599D01*
X-4741128Y33195605D01*
X-4736490Y33199253D01*
X-4732626Y33203711D01*
X-4732621Y33203717D01*
X-4602611Y33353756D01*
X-4602605Y33353763D01*
X-4598745Y33358219D01*
X-4595792Y33363333D01*
X-4496530Y33535260D01*
X-4496527Y33535264D01*
X-4493574Y33540381D01*
X-4491643Y33545960D01*
X-4491639Y33545969D01*
X-4426709Y33733572D01*
X-4426706Y33733581D01*
X-4424778Y33739154D01*
X-4423938Y33744990D01*
X-4423937Y33744998D01*
X-4395682Y33941515D01*
X-4395681Y33941521D01*
X-4394843Y33947355D01*
X-4395123Y33953239D01*
X-4395123Y33953246D01*
X-4404571Y34151561D01*
X-4404852Y34157459D01*
X-4428516Y34255001D01*
X-4453049Y34356130D01*
X-4453049Y34356132D01*
X-4454442Y34361871D01*
X-4456895Y34367242D01*
X-4456897Y34367248D01*
X-4539363Y34547824D01*
X-4539365Y34547828D01*
X-4541821Y34553205D01*
X-4663831Y34724544D01*
X-4816063Y34869697D01*
X-4993014Y34983416D01*
X-5188288Y35061593D01*
X-5394829Y35101400D01*
X-5552468Y35101400D01*
X-5709389Y35086416D01*
X-5911211Y35027156D01*
X-6098170Y34930771D01*
X-6263510Y34800747D01*
X-6401255Y34641781D01*
X-6506426Y34459619D01*
X-6575222Y34260846D01*
X-6605157Y34052645D01*
X-8924500Y34052645D01*
X-8924500Y40995125D01*
X-8924118Y41004854D01*
X-8907727Y41213113D01*
X-8904683Y41232331D01*
X-8857058Y41430705D01*
X-8851045Y41449211D01*
X-8772972Y41637694D01*
X-8764138Y41655031D01*
X-8657543Y41828977D01*
X-8646106Y41844719D01*
X-8513610Y41999852D01*
X-8499852Y42013610D01*
X-8344719Y42146106D01*
X-8328977Y42157543D01*
X-8155031Y42264138D01*
X-8137694Y42272972D01*
X-7949211Y42351045D01*
X-7930705Y42357058D01*
X-7732331Y42404683D01*
X-7713113Y42407727D01*
X-7504854Y42424118D01*
X-7495125Y42424500D01*
X-7475469Y42424500D01*
X25475469Y42424500D01*
X25495125Y42424500D01*
X25504854Y42424118D01*
G37*
%TD.AperFunction*%
%TA.AperFunction,NonConductor*%
G36*
X22240385Y30296552D02*
G01*
X22277985Y30252529D01*
X22291500Y30196234D01*
X22291500Y29982500D01*
X22274887Y29920500D01*
X22229500Y29875113D01*
X22167500Y29858500D01*
X22032500Y29858500D01*
X21970500Y29875113D01*
X21925113Y29920500D01*
X21908500Y29982500D01*
X21908500Y30061234D01*
X21917939Y30108687D01*
X21944819Y30148915D01*
X22079819Y30283915D01*
X22129182Y30314165D01*
X22186898Y30318707D01*
X22240385Y30296552D01*
G37*
%TD.AperFunction*%
%TA.AperFunction,NonConductor*%
G36*
X11699329Y29057686D02*
G01*
X11748399Y29025295D01*
X11802863Y28966595D01*
X11802872Y28966586D01*
X11806019Y28963195D01*
X11809641Y28960306D01*
X11809646Y28960302D01*
X12007516Y28802506D01*
X12007519Y28802503D01*
X12011143Y28799614D01*
X12015159Y28797295D01*
X12015161Y28797294D01*
X12234335Y28670753D01*
X12234346Y28670747D01*
X12238357Y28668432D01*
X12242670Y28666739D01*
X12242681Y28666734D01*
X12478261Y28574276D01*
X12478268Y28574273D01*
X12482584Y28572580D01*
X12487102Y28571548D01*
X12487108Y28571547D01*
X12733850Y28515229D01*
X12733858Y28515227D01*
X12738370Y28514198D01*
X12742987Y28513851D01*
X12742994Y28513851D01*
X12910396Y28501306D01*
X12961839Y28485775D01*
X13001881Y28449938D01*
X13023001Y28400526D01*
X13021234Y28346819D01*
X13018440Y28335938D01*
X13018439Y28335933D01*
X13016500Y28328380D01*
X13016500Y28320578D01*
X13016500Y28307965D01*
X13014973Y28288567D01*
X13011780Y28268407D01*
X13012514Y28260641D01*
X13012514Y28260638D01*
X13015950Y28224292D01*
X13016500Y28212623D01*
X13016500Y26017015D01*
X13007061Y25969562D01*
X12980181Y25929334D01*
X12216234Y25165387D01*
X12160642Y25133292D01*
X12096451Y25133296D01*
X12040866Y25165393D01*
X12031807Y25174453D01*
X11888601Y25259145D01*
X11728831Y25305562D01*
X11691502Y25308500D01*
X11689057Y25308500D01*
X11138767Y25308500D01*
X11091314Y25317939D01*
X11051086Y25344819D01*
X10394819Y26001086D01*
X10367939Y26041314D01*
X10358500Y26088767D01*
X10358500Y28317500D01*
X10375113Y28379500D01*
X10420500Y28424887D01*
X10482500Y28441500D01*
X11070328Y28441500D01*
X11073638Y28441500D01*
X11076918Y28441852D01*
X11076924Y28441853D01*
X11126494Y28447182D01*
X11126497Y28447182D01*
X11134201Y28448011D01*
X11141458Y28450717D01*
X11141463Y28450719D01*
X11262894Y28496011D01*
X11262896Y28496012D01*
X11271204Y28499111D01*
X11369347Y28572580D01*
X11381164Y28581426D01*
X11388261Y28586739D01*
X11475889Y28703796D01*
X11526989Y28840799D01*
X11533500Y28901362D01*
X11533500Y28940954D01*
X11547439Y28998074D01*
X11586124Y29042351D01*
X11640855Y29063832D01*
X11699329Y29057686D01*
G37*
%TD.AperFunction*%
%TA.AperFunction,NonConductor*%
G36*
X13412632Y19854401D02*
G01*
X13455631Y19820465D01*
X13479814Y19771315D01*
X13480460Y19716541D01*
X13479241Y19710848D01*
X13477113Y19704426D01*
X13476425Y19697697D01*
X13476425Y19697695D01*
X13466819Y19603674D01*
X13466818Y19603660D01*
X13466500Y19600545D01*
X13466500Y19597398D01*
X13466500Y19425517D01*
X13452985Y19369222D01*
X13415385Y19325199D01*
X13361898Y19303044D01*
X13304182Y19307586D01*
X13254819Y19337836D01*
X12937837Y19654819D01*
X12907587Y19704182D01*
X12903045Y19761898D01*
X12925200Y19815385D01*
X12969223Y19852985D01*
X13025518Y19866500D01*
X13359208Y19866500D01*
X13412632Y19854401D01*
G37*
%TD.AperFunction*%
%TA.AperFunction,NonConductor*%
G36*
X17233687Y19857061D02*
G01*
X17273915Y19830181D01*
X17933132Y19170963D01*
X17966617Y19109640D01*
X17961633Y19039948D01*
X17919761Y18984015D01*
X17854297Y18959598D01*
X17719637Y18949967D01*
X17444982Y18890219D01*
X17181625Y18791992D01*
X16934927Y18657285D01*
X16709912Y18488841D01*
X16511159Y18290088D01*
X16342715Y18065073D01*
X16340589Y18061179D01*
X16340588Y18061178D01*
X16210131Y17822264D01*
X16210128Y17822257D01*
X16208008Y17818375D01*
X16206462Y17814232D01*
X16206460Y17814226D01*
X16143806Y17646243D01*
X16109781Y17555018D01*
X16108840Y17550692D01*
X16050975Y17284696D01*
X16050973Y17284687D01*
X16050033Y17280363D01*
X16049717Y17275949D01*
X16049716Y17275940D01*
X16040821Y17151561D01*
X16029981Y17000000D01*
X16030297Y16995582D01*
X16039951Y16860595D01*
X16029785Y16801853D01*
X15993382Y16754644D01*
X15939154Y16729879D01*
X15879637Y16733283D01*
X15828588Y16764066D01*
X14712833Y17879821D01*
X14682585Y17929182D01*
X14678043Y17986898D01*
X14700198Y18040385D01*
X14744221Y18077985D01*
X14800516Y18091500D01*
X15572395Y18091500D01*
X15572414Y18091500D01*
X15575544Y18091501D01*
X15578657Y18091819D01*
X15578676Y18091820D01*
X15672686Y18101424D01*
X15672690Y18101424D01*
X15679426Y18102113D01*
X15715176Y18113959D01*
X15840877Y18155611D01*
X15840880Y18155612D01*
X15847738Y18157885D01*
X15853881Y18161674D01*
X15853887Y18161677D01*
X15977626Y18238001D01*
X15998652Y18250970D01*
X16124030Y18376348D01*
X16217115Y18527262D01*
X16272887Y18695574D01*
X16283500Y18799455D01*
X16283499Y19600544D01*
X16272887Y19704426D01*
X16270755Y19710857D01*
X16269539Y19716542D01*
X16270187Y19771316D01*
X16294369Y19820466D01*
X16337368Y19854401D01*
X16390792Y19866500D01*
X17186234Y19866500D01*
X17233687Y19857061D01*
G37*
%TD.AperFunction*%
%TA.AperFunction,NonConductor*%
G36*
X20123280Y16962822D02*
G01*
X20170963Y16933131D01*
X21738052Y15366042D01*
X21766553Y15321694D01*
X21774055Y15269515D01*
X21759203Y15218934D01*
X21724681Y15179094D01*
X21674310Y15141387D01*
X21626358Y15119488D01*
X21573642Y15119488D01*
X21525689Y15141387D01*
X21446204Y15200889D01*
X21309201Y15251989D01*
X21248638Y15258500D01*
X20551362Y15258500D01*
X20490799Y15251989D01*
X20353796Y15200889D01*
X20236739Y15113261D01*
X20214228Y15083189D01*
X20170465Y15046616D01*
X20114961Y15033500D01*
X18984615Y15033500D01*
X18922105Y15050409D01*
X18876642Y15096525D01*
X18860628Y15159271D01*
X18878428Y15221533D01*
X18925188Y15266332D01*
X19061178Y15340588D01*
X19061179Y15340589D01*
X19065073Y15342715D01*
X19290088Y15511159D01*
X19488841Y15709912D01*
X19657285Y15934927D01*
X19791992Y16181625D01*
X19890219Y16444982D01*
X19949967Y16719637D01*
X19959598Y16854296D01*
X19976191Y16907960D01*
X20014760Y16948798D01*
X20067389Y16968427D01*
X20123280Y16962822D01*
G37*
%TD.AperFunction*%
%TA.AperFunction,NonConductor*%
G36*
X22240385Y13296552D02*
G01*
X22277985Y13252529D01*
X22291500Y13196234D01*
X22291500Y12982500D01*
X22274887Y12920500D01*
X22229500Y12875113D01*
X22167500Y12858500D01*
X22032500Y12858500D01*
X21970500Y12875113D01*
X21925113Y12920500D01*
X21908500Y12982500D01*
X21908500Y13061234D01*
X21917939Y13108687D01*
X21944819Y13148915D01*
X22079819Y13283915D01*
X22129182Y13314165D01*
X22186898Y13318707D01*
X22240385Y13296552D01*
G37*
%TD.AperFunction*%
%TA.AperFunction,NonConductor*%
G36*
X16083941Y860827D02*
G01*
X16139855Y824894D01*
X16169180Y765249D01*
X16163493Y699028D01*
X16111327Y559166D01*
X16111326Y559161D01*
X16109781Y555018D01*
X16108840Y550692D01*
X16050975Y284696D01*
X16050973Y284687D01*
X16050033Y280363D01*
X16049717Y275949D01*
X16049716Y275940D01*
X16035243Y73569D01*
X16029981Y0D01*
X16030297Y-4418D01*
X16049716Y-275940D01*
X16049717Y-275949D01*
X16050033Y-280363D01*
X16050973Y-284687D01*
X16050975Y-284696D01*
X16087812Y-454030D01*
X16109781Y-555018D01*
X16111325Y-559157D01*
X16111326Y-559161D01*
X16206460Y-814226D01*
X16206462Y-814231D01*
X16208008Y-818375D01*
X16210128Y-822257D01*
X16210131Y-822264D01*
X16340588Y-1061178D01*
X16342715Y-1065073D01*
X16511159Y-1290088D01*
X16709912Y-1488841D01*
X16934927Y-1657285D01*
X17021444Y-1704527D01*
X17074812Y-1733668D01*
X17121572Y-1778467D01*
X17139372Y-1840729D01*
X17123358Y-1903475D01*
X17077895Y-1949591D01*
X17015385Y-1966500D01*
X14815416Y-1966500D01*
X14767963Y-1957061D01*
X14727735Y-1930181D01*
X14198968Y-1401413D01*
X14172088Y-1361185D01*
X14162649Y-1313732D01*
X14162649Y-1018301D01*
X14172088Y-970848D01*
X14198968Y-930620D01*
X15959630Y830042D01*
X16017504Y862725D01*
X16083941Y860827D01*
G37*
%TD.AperFunction*%
M02*
