%TF.GenerationSoftware,KiCad,Pcbnew,(7.0.0-0)*%
%TF.CreationDate,2023-02-22T17:53:04+08:00*%
%TF.ProjectId,thumb,7468756d-622e-46b6-9963-61645f706362,v1.0.0*%
%TF.SameCoordinates,Original*%
%TF.FileFunction,Legend,Bot*%
%TF.FilePolarity,Positive*%
%FSLAX46Y46*%
G04 Gerber Fmt 4.6, Leading zero omitted, Abs format (unit mm)*
G04 Created by KiCad (PCBNEW (7.0.0-0)) date 2023-02-22 17:53:04*
%MOMM*%
%LPD*%
G01*
G04 APERTURE LIST*
%ADD10C,0.150000*%
%ADD11C,0.120000*%
G04 APERTURE END LIST*
D10*
%TO.C,S1*%
X16857142Y30727857D02*
X16809523Y30680238D01*
X16809523Y30680238D02*
X16666666Y30632619D01*
X16666666Y30632619D02*
X16571428Y30632619D01*
X16571428Y30632619D02*
X16428571Y30680238D01*
X16428571Y30680238D02*
X16333333Y30775476D01*
X16333333Y30775476D02*
X16285714Y30870714D01*
X16285714Y30870714D02*
X16238095Y31061190D01*
X16238095Y31061190D02*
X16238095Y31204047D01*
X16238095Y31204047D02*
X16285714Y31394523D01*
X16285714Y31394523D02*
X16333333Y31489761D01*
X16333333Y31489761D02*
X16428571Y31585000D01*
X16428571Y31585000D02*
X16571428Y31632619D01*
X16571428Y31632619D02*
X16666666Y31632619D01*
X16666666Y31632619D02*
X16809523Y31585000D01*
X16809523Y31585000D02*
X16857142Y31537380D01*
X17761904Y31632619D02*
X17285714Y31632619D01*
X17285714Y31632619D02*
X17238095Y31156428D01*
X17238095Y31156428D02*
X17285714Y31204047D01*
X17285714Y31204047D02*
X17380952Y31251666D01*
X17380952Y31251666D02*
X17619047Y31251666D01*
X17619047Y31251666D02*
X17714285Y31204047D01*
X17714285Y31204047D02*
X17761904Y31156428D01*
X17761904Y31156428D02*
X17809523Y31061190D01*
X17809523Y31061190D02*
X17809523Y30823095D01*
X17809523Y30823095D02*
X17761904Y30727857D01*
X17761904Y30727857D02*
X17714285Y30680238D01*
X17714285Y30680238D02*
X17619047Y30632619D01*
X17619047Y30632619D02*
X17380952Y30632619D01*
X17380952Y30632619D02*
X17285714Y30680238D01*
X17285714Y30680238D02*
X17238095Y30727857D01*
X18809523Y30632619D02*
X18476190Y31108809D01*
X18238095Y30632619D02*
X18238095Y31632619D01*
X18238095Y31632619D02*
X18619047Y31632619D01*
X18619047Y31632619D02*
X18714285Y31585000D01*
X18714285Y31585000D02*
X18761904Y31537380D01*
X18761904Y31537380D02*
X18809523Y31442142D01*
X18809523Y31442142D02*
X18809523Y31299285D01*
X18809523Y31299285D02*
X18761904Y31204047D01*
X18761904Y31204047D02*
X18714285Y31156428D01*
X18714285Y31156428D02*
X18619047Y31108809D01*
X18619047Y31108809D02*
X18238095Y31108809D01*
X19428571Y31632619D02*
X19523809Y31632619D01*
X19523809Y31632619D02*
X19619047Y31585000D01*
X19619047Y31585000D02*
X19666666Y31537380D01*
X19666666Y31537380D02*
X19714285Y31442142D01*
X19714285Y31442142D02*
X19761904Y31251666D01*
X19761904Y31251666D02*
X19761904Y31013571D01*
X19761904Y31013571D02*
X19714285Y30823095D01*
X19714285Y30823095D02*
X19666666Y30727857D01*
X19666666Y30727857D02*
X19619047Y30680238D01*
X19619047Y30680238D02*
X19523809Y30632619D01*
X19523809Y30632619D02*
X19428571Y30632619D01*
X19428571Y30632619D02*
X19333333Y30680238D01*
X19333333Y30680238D02*
X19285714Y30727857D01*
X19285714Y30727857D02*
X19238095Y30823095D01*
X19238095Y30823095D02*
X19190476Y31013571D01*
X19190476Y31013571D02*
X19190476Y31251666D01*
X19190476Y31251666D02*
X19238095Y31442142D01*
X19238095Y31442142D02*
X19285714Y31537380D01*
X19285714Y31537380D02*
X19333333Y31585000D01*
X19333333Y31585000D02*
X19428571Y31632619D01*
%TO.C,S2*%
X16857142Y13727857D02*
X16809523Y13680238D01*
X16809523Y13680238D02*
X16666666Y13632619D01*
X16666666Y13632619D02*
X16571428Y13632619D01*
X16571428Y13632619D02*
X16428571Y13680238D01*
X16428571Y13680238D02*
X16333333Y13775476D01*
X16333333Y13775476D02*
X16285714Y13870714D01*
X16285714Y13870714D02*
X16238095Y14061190D01*
X16238095Y14061190D02*
X16238095Y14204047D01*
X16238095Y14204047D02*
X16285714Y14394523D01*
X16285714Y14394523D02*
X16333333Y14489761D01*
X16333333Y14489761D02*
X16428571Y14585000D01*
X16428571Y14585000D02*
X16571428Y14632619D01*
X16571428Y14632619D02*
X16666666Y14632619D01*
X16666666Y14632619D02*
X16809523Y14585000D01*
X16809523Y14585000D02*
X16857142Y14537380D01*
X17761904Y14632619D02*
X17285714Y14632619D01*
X17285714Y14632619D02*
X17238095Y14156428D01*
X17238095Y14156428D02*
X17285714Y14204047D01*
X17285714Y14204047D02*
X17380952Y14251666D01*
X17380952Y14251666D02*
X17619047Y14251666D01*
X17619047Y14251666D02*
X17714285Y14204047D01*
X17714285Y14204047D02*
X17761904Y14156428D01*
X17761904Y14156428D02*
X17809523Y14061190D01*
X17809523Y14061190D02*
X17809523Y13823095D01*
X17809523Y13823095D02*
X17761904Y13727857D01*
X17761904Y13727857D02*
X17714285Y13680238D01*
X17714285Y13680238D02*
X17619047Y13632619D01*
X17619047Y13632619D02*
X17380952Y13632619D01*
X17380952Y13632619D02*
X17285714Y13680238D01*
X17285714Y13680238D02*
X17238095Y13727857D01*
X18809523Y13632619D02*
X18476190Y14108809D01*
X18238095Y13632619D02*
X18238095Y14632619D01*
X18238095Y14632619D02*
X18619047Y14632619D01*
X18619047Y14632619D02*
X18714285Y14585000D01*
X18714285Y14585000D02*
X18761904Y14537380D01*
X18761904Y14537380D02*
X18809523Y14442142D01*
X18809523Y14442142D02*
X18809523Y14299285D01*
X18809523Y14299285D02*
X18761904Y14204047D01*
X18761904Y14204047D02*
X18714285Y14156428D01*
X18714285Y14156428D02*
X18619047Y14108809D01*
X18619047Y14108809D02*
X18238095Y14108809D01*
X19761904Y13632619D02*
X19190476Y13632619D01*
X19476190Y13632619D02*
X19476190Y14632619D01*
X19476190Y14632619D02*
X19380952Y14489761D01*
X19380952Y14489761D02*
X19285714Y14394523D01*
X19285714Y14394523D02*
X19190476Y14346904D01*
%TO.C,S3*%
X16857142Y-3272142D02*
X16809523Y-3319761D01*
X16809523Y-3319761D02*
X16666666Y-3367380D01*
X16666666Y-3367380D02*
X16571428Y-3367380D01*
X16571428Y-3367380D02*
X16428571Y-3319761D01*
X16428571Y-3319761D02*
X16333333Y-3224523D01*
X16333333Y-3224523D02*
X16285714Y-3129285D01*
X16285714Y-3129285D02*
X16238095Y-2938809D01*
X16238095Y-2938809D02*
X16238095Y-2795952D01*
X16238095Y-2795952D02*
X16285714Y-2605476D01*
X16285714Y-2605476D02*
X16333333Y-2510238D01*
X16333333Y-2510238D02*
X16428571Y-2415000D01*
X16428571Y-2415000D02*
X16571428Y-2367380D01*
X16571428Y-2367380D02*
X16666666Y-2367380D01*
X16666666Y-2367380D02*
X16809523Y-2415000D01*
X16809523Y-2415000D02*
X16857142Y-2462619D01*
X17761904Y-2367380D02*
X17285714Y-2367380D01*
X17285714Y-2367380D02*
X17238095Y-2843571D01*
X17238095Y-2843571D02*
X17285714Y-2795952D01*
X17285714Y-2795952D02*
X17380952Y-2748333D01*
X17380952Y-2748333D02*
X17619047Y-2748333D01*
X17619047Y-2748333D02*
X17714285Y-2795952D01*
X17714285Y-2795952D02*
X17761904Y-2843571D01*
X17761904Y-2843571D02*
X17809523Y-2938809D01*
X17809523Y-2938809D02*
X17809523Y-3176904D01*
X17809523Y-3176904D02*
X17761904Y-3272142D01*
X17761904Y-3272142D02*
X17714285Y-3319761D01*
X17714285Y-3319761D02*
X17619047Y-3367380D01*
X17619047Y-3367380D02*
X17380952Y-3367380D01*
X17380952Y-3367380D02*
X17285714Y-3319761D01*
X17285714Y-3319761D02*
X17238095Y-3272142D01*
X18809523Y-3367380D02*
X18476190Y-2891190D01*
X18238095Y-3367380D02*
X18238095Y-2367380D01*
X18238095Y-2367380D02*
X18619047Y-2367380D01*
X18619047Y-2367380D02*
X18714285Y-2415000D01*
X18714285Y-2415000D02*
X18761904Y-2462619D01*
X18761904Y-2462619D02*
X18809523Y-2557857D01*
X18809523Y-2557857D02*
X18809523Y-2700714D01*
X18809523Y-2700714D02*
X18761904Y-2795952D01*
X18761904Y-2795952D02*
X18714285Y-2843571D01*
X18714285Y-2843571D02*
X18619047Y-2891190D01*
X18619047Y-2891190D02*
X18238095Y-2891190D01*
X19190476Y-2462619D02*
X19238095Y-2415000D01*
X19238095Y-2415000D02*
X19333333Y-2367380D01*
X19333333Y-2367380D02*
X19571428Y-2367380D01*
X19571428Y-2367380D02*
X19666666Y-2415000D01*
X19666666Y-2415000D02*
X19714285Y-2462619D01*
X19714285Y-2462619D02*
X19761904Y-2557857D01*
X19761904Y-2557857D02*
X19761904Y-2653095D01*
X19761904Y-2653095D02*
X19714285Y-2795952D01*
X19714285Y-2795952D02*
X19142857Y-3367380D01*
X19142857Y-3367380D02*
X19761904Y-3367380D01*
%TO.C,S4*%
X-1142857Y36727857D02*
X-1190476Y36680238D01*
X-1190476Y36680238D02*
X-1333333Y36632619D01*
X-1333333Y36632619D02*
X-1428571Y36632619D01*
X-1428571Y36632619D02*
X-1571428Y36680238D01*
X-1571428Y36680238D02*
X-1666666Y36775476D01*
X-1666666Y36775476D02*
X-1714285Y36870714D01*
X-1714285Y36870714D02*
X-1761904Y37061190D01*
X-1761904Y37061190D02*
X-1761904Y37204047D01*
X-1761904Y37204047D02*
X-1714285Y37394523D01*
X-1714285Y37394523D02*
X-1666666Y37489761D01*
X-1666666Y37489761D02*
X-1571428Y37585000D01*
X-1571428Y37585000D02*
X-1428571Y37632619D01*
X-1428571Y37632619D02*
X-1333333Y37632619D01*
X-1333333Y37632619D02*
X-1190476Y37585000D01*
X-1190476Y37585000D02*
X-1142857Y37537380D01*
X-285714Y37632619D02*
X-476190Y37632619D01*
X-476190Y37632619D02*
X-571428Y37585000D01*
X-571428Y37585000D02*
X-619047Y37537380D01*
X-619047Y37537380D02*
X-714285Y37394523D01*
X-714285Y37394523D02*
X-761904Y37204047D01*
X-761904Y37204047D02*
X-761904Y36823095D01*
X-761904Y36823095D02*
X-714285Y36727857D01*
X-714285Y36727857D02*
X-666666Y36680238D01*
X-666666Y36680238D02*
X-571428Y36632619D01*
X-571428Y36632619D02*
X-380952Y36632619D01*
X-380952Y36632619D02*
X-285714Y36680238D01*
X-285714Y36680238D02*
X-238095Y36727857D01*
X-238095Y36727857D02*
X-190476Y36823095D01*
X-190476Y36823095D02*
X-190476Y37061190D01*
X-190476Y37061190D02*
X-238095Y37156428D01*
X-238095Y37156428D02*
X-285714Y37204047D01*
X-285714Y37204047D02*
X-380952Y37251666D01*
X-380952Y37251666D02*
X-571428Y37251666D01*
X-571428Y37251666D02*
X-666666Y37204047D01*
X-666666Y37204047D02*
X-714285Y37156428D01*
X-714285Y37156428D02*
X-761904Y37061190D01*
X809523Y36632619D02*
X476190Y37108809D01*
X238095Y36632619D02*
X238095Y37632619D01*
X238095Y37632619D02*
X619047Y37632619D01*
X619047Y37632619D02*
X714285Y37585000D01*
X714285Y37585000D02*
X761904Y37537380D01*
X761904Y37537380D02*
X809523Y37442142D01*
X809523Y37442142D02*
X809523Y37299285D01*
X809523Y37299285D02*
X761904Y37204047D01*
X761904Y37204047D02*
X714285Y37156428D01*
X714285Y37156428D02*
X619047Y37108809D01*
X619047Y37108809D02*
X238095Y37108809D01*
X1428571Y37632619D02*
X1523809Y37632619D01*
X1523809Y37632619D02*
X1619047Y37585000D01*
X1619047Y37585000D02*
X1666666Y37537380D01*
X1666666Y37537380D02*
X1714285Y37442142D01*
X1714285Y37442142D02*
X1761904Y37251666D01*
X1761904Y37251666D02*
X1761904Y37013571D01*
X1761904Y37013571D02*
X1714285Y36823095D01*
X1714285Y36823095D02*
X1666666Y36727857D01*
X1666666Y36727857D02*
X1619047Y36680238D01*
X1619047Y36680238D02*
X1523809Y36632619D01*
X1523809Y36632619D02*
X1428571Y36632619D01*
X1428571Y36632619D02*
X1333333Y36680238D01*
X1333333Y36680238D02*
X1285714Y36727857D01*
X1285714Y36727857D02*
X1238095Y36823095D01*
X1238095Y36823095D02*
X1190476Y37013571D01*
X1190476Y37013571D02*
X1190476Y37251666D01*
X1190476Y37251666D02*
X1238095Y37442142D01*
X1238095Y37442142D02*
X1285714Y37537380D01*
X1285714Y37537380D02*
X1333333Y37585000D01*
X1333333Y37585000D02*
X1428571Y37632619D01*
%TO.C,S5*%
X-1142857Y19727857D02*
X-1190476Y19680238D01*
X-1190476Y19680238D02*
X-1333333Y19632619D01*
X-1333333Y19632619D02*
X-1428571Y19632619D01*
X-1428571Y19632619D02*
X-1571428Y19680238D01*
X-1571428Y19680238D02*
X-1666666Y19775476D01*
X-1666666Y19775476D02*
X-1714285Y19870714D01*
X-1714285Y19870714D02*
X-1761904Y20061190D01*
X-1761904Y20061190D02*
X-1761904Y20204047D01*
X-1761904Y20204047D02*
X-1714285Y20394523D01*
X-1714285Y20394523D02*
X-1666666Y20489761D01*
X-1666666Y20489761D02*
X-1571428Y20585000D01*
X-1571428Y20585000D02*
X-1428571Y20632619D01*
X-1428571Y20632619D02*
X-1333333Y20632619D01*
X-1333333Y20632619D02*
X-1190476Y20585000D01*
X-1190476Y20585000D02*
X-1142857Y20537380D01*
X-285714Y20632619D02*
X-476190Y20632619D01*
X-476190Y20632619D02*
X-571428Y20585000D01*
X-571428Y20585000D02*
X-619047Y20537380D01*
X-619047Y20537380D02*
X-714285Y20394523D01*
X-714285Y20394523D02*
X-761904Y20204047D01*
X-761904Y20204047D02*
X-761904Y19823095D01*
X-761904Y19823095D02*
X-714285Y19727857D01*
X-714285Y19727857D02*
X-666666Y19680238D01*
X-666666Y19680238D02*
X-571428Y19632619D01*
X-571428Y19632619D02*
X-380952Y19632619D01*
X-380952Y19632619D02*
X-285714Y19680238D01*
X-285714Y19680238D02*
X-238095Y19727857D01*
X-238095Y19727857D02*
X-190476Y19823095D01*
X-190476Y19823095D02*
X-190476Y20061190D01*
X-190476Y20061190D02*
X-238095Y20156428D01*
X-238095Y20156428D02*
X-285714Y20204047D01*
X-285714Y20204047D02*
X-380952Y20251666D01*
X-380952Y20251666D02*
X-571428Y20251666D01*
X-571428Y20251666D02*
X-666666Y20204047D01*
X-666666Y20204047D02*
X-714285Y20156428D01*
X-714285Y20156428D02*
X-761904Y20061190D01*
X809523Y19632619D02*
X476190Y20108809D01*
X238095Y19632619D02*
X238095Y20632619D01*
X238095Y20632619D02*
X619047Y20632619D01*
X619047Y20632619D02*
X714285Y20585000D01*
X714285Y20585000D02*
X761904Y20537380D01*
X761904Y20537380D02*
X809523Y20442142D01*
X809523Y20442142D02*
X809523Y20299285D01*
X809523Y20299285D02*
X761904Y20204047D01*
X761904Y20204047D02*
X714285Y20156428D01*
X714285Y20156428D02*
X619047Y20108809D01*
X619047Y20108809D02*
X238095Y20108809D01*
X1761904Y19632619D02*
X1190476Y19632619D01*
X1476190Y19632619D02*
X1476190Y20632619D01*
X1476190Y20632619D02*
X1380952Y20489761D01*
X1380952Y20489761D02*
X1285714Y20394523D01*
X1285714Y20394523D02*
X1190476Y20346904D01*
%TO.C,S6*%
X-1142857Y2727857D02*
X-1190476Y2680238D01*
X-1190476Y2680238D02*
X-1333333Y2632619D01*
X-1333333Y2632619D02*
X-1428571Y2632619D01*
X-1428571Y2632619D02*
X-1571428Y2680238D01*
X-1571428Y2680238D02*
X-1666666Y2775476D01*
X-1666666Y2775476D02*
X-1714285Y2870714D01*
X-1714285Y2870714D02*
X-1761904Y3061190D01*
X-1761904Y3061190D02*
X-1761904Y3204047D01*
X-1761904Y3204047D02*
X-1714285Y3394523D01*
X-1714285Y3394523D02*
X-1666666Y3489761D01*
X-1666666Y3489761D02*
X-1571428Y3585000D01*
X-1571428Y3585000D02*
X-1428571Y3632619D01*
X-1428571Y3632619D02*
X-1333333Y3632619D01*
X-1333333Y3632619D02*
X-1190476Y3585000D01*
X-1190476Y3585000D02*
X-1142857Y3537380D01*
X-285714Y3632619D02*
X-476190Y3632619D01*
X-476190Y3632619D02*
X-571428Y3585000D01*
X-571428Y3585000D02*
X-619047Y3537380D01*
X-619047Y3537380D02*
X-714285Y3394523D01*
X-714285Y3394523D02*
X-761904Y3204047D01*
X-761904Y3204047D02*
X-761904Y2823095D01*
X-761904Y2823095D02*
X-714285Y2727857D01*
X-714285Y2727857D02*
X-666666Y2680238D01*
X-666666Y2680238D02*
X-571428Y2632619D01*
X-571428Y2632619D02*
X-380952Y2632619D01*
X-380952Y2632619D02*
X-285714Y2680238D01*
X-285714Y2680238D02*
X-238095Y2727857D01*
X-238095Y2727857D02*
X-190476Y2823095D01*
X-190476Y2823095D02*
X-190476Y3061190D01*
X-190476Y3061190D02*
X-238095Y3156428D01*
X-238095Y3156428D02*
X-285714Y3204047D01*
X-285714Y3204047D02*
X-380952Y3251666D01*
X-380952Y3251666D02*
X-571428Y3251666D01*
X-571428Y3251666D02*
X-666666Y3204047D01*
X-666666Y3204047D02*
X-714285Y3156428D01*
X-714285Y3156428D02*
X-761904Y3061190D01*
X809523Y2632619D02*
X476190Y3108809D01*
X238095Y2632619D02*
X238095Y3632619D01*
X238095Y3632619D02*
X619047Y3632619D01*
X619047Y3632619D02*
X714285Y3585000D01*
X714285Y3585000D02*
X761904Y3537380D01*
X761904Y3537380D02*
X809523Y3442142D01*
X809523Y3442142D02*
X809523Y3299285D01*
X809523Y3299285D02*
X761904Y3204047D01*
X761904Y3204047D02*
X714285Y3156428D01*
X714285Y3156428D02*
X619047Y3108809D01*
X619047Y3108809D02*
X238095Y3108809D01*
X1190476Y3537380D02*
X1238095Y3585000D01*
X1238095Y3585000D02*
X1333333Y3632619D01*
X1333333Y3632619D02*
X1571428Y3632619D01*
X1571428Y3632619D02*
X1666666Y3585000D01*
X1666666Y3585000D02*
X1714285Y3537380D01*
X1714285Y3537380D02*
X1761904Y3442142D01*
X1761904Y3442142D02*
X1761904Y3346904D01*
X1761904Y3346904D02*
X1714285Y3204047D01*
X1714285Y3204047D02*
X1142857Y2632619D01*
X1142857Y2632619D02*
X1761904Y2632619D01*
%TO.C,JC1*%
X17833333Y19732619D02*
X17500000Y20208809D01*
X17261905Y19732619D02*
X17261905Y20732619D01*
X17261905Y20732619D02*
X17642857Y20732619D01*
X17642857Y20732619D02*
X17738095Y20685000D01*
X17738095Y20685000D02*
X17785714Y20637380D01*
X17785714Y20637380D02*
X17833333Y20542142D01*
X17833333Y20542142D02*
X17833333Y20399285D01*
X17833333Y20399285D02*
X17785714Y20304047D01*
X17785714Y20304047D02*
X17738095Y20256428D01*
X17738095Y20256428D02*
X17642857Y20208809D01*
X17642857Y20208809D02*
X17261905Y20208809D01*
X18214286Y20637380D02*
X18261905Y20685000D01*
X18261905Y20685000D02*
X18357143Y20732619D01*
X18357143Y20732619D02*
X18595238Y20732619D01*
X18595238Y20732619D02*
X18690476Y20685000D01*
X18690476Y20685000D02*
X18738095Y20637380D01*
X18738095Y20637380D02*
X18785714Y20542142D01*
X18785714Y20542142D02*
X18785714Y20446904D01*
X18785714Y20446904D02*
X18738095Y20304047D01*
X18738095Y20304047D02*
X18166667Y19732619D01*
X18166667Y19732619D02*
X18785714Y19732619D01*
X17833333Y20932619D02*
X17500000Y21408809D01*
X17261905Y20932619D02*
X17261905Y21932619D01*
X17261905Y21932619D02*
X17642857Y21932619D01*
X17642857Y21932619D02*
X17738095Y21885000D01*
X17738095Y21885000D02*
X17785714Y21837380D01*
X17785714Y21837380D02*
X17833333Y21742142D01*
X17833333Y21742142D02*
X17833333Y21599285D01*
X17833333Y21599285D02*
X17785714Y21504047D01*
X17785714Y21504047D02*
X17738095Y21456428D01*
X17738095Y21456428D02*
X17642857Y21408809D01*
X17642857Y21408809D02*
X17261905Y21408809D01*
X18785714Y20932619D02*
X18214286Y20932619D01*
X18500000Y20932619D02*
X18500000Y21932619D01*
X18500000Y21932619D02*
X18404762Y21789761D01*
X18404762Y21789761D02*
X18309524Y21694523D01*
X18309524Y21694523D02*
X18214286Y21646904D01*
X17833333Y22132619D02*
X17500000Y22608809D01*
X17261905Y22132619D02*
X17261905Y23132619D01*
X17261905Y23132619D02*
X17642857Y23132619D01*
X17642857Y23132619D02*
X17738095Y23085000D01*
X17738095Y23085000D02*
X17785714Y23037380D01*
X17785714Y23037380D02*
X17833333Y22942142D01*
X17833333Y22942142D02*
X17833333Y22799285D01*
X17833333Y22799285D02*
X17785714Y22704047D01*
X17785714Y22704047D02*
X17738095Y22656428D01*
X17738095Y22656428D02*
X17642857Y22608809D01*
X17642857Y22608809D02*
X17261905Y22608809D01*
X18452381Y23132619D02*
X18547619Y23132619D01*
X18547619Y23132619D02*
X18642857Y23085000D01*
X18642857Y23085000D02*
X18690476Y23037380D01*
X18690476Y23037380D02*
X18738095Y22942142D01*
X18738095Y22942142D02*
X18785714Y22751666D01*
X18785714Y22751666D02*
X18785714Y22513571D01*
X18785714Y22513571D02*
X18738095Y22323095D01*
X18738095Y22323095D02*
X18690476Y22227857D01*
X18690476Y22227857D02*
X18642857Y22180238D01*
X18642857Y22180238D02*
X18547619Y22132619D01*
X18547619Y22132619D02*
X18452381Y22132619D01*
X18452381Y22132619D02*
X18357143Y22180238D01*
X18357143Y22180238D02*
X18309524Y22227857D01*
X18309524Y22227857D02*
X18261905Y22323095D01*
X18261905Y22323095D02*
X18214286Y22513571D01*
X18214286Y22513571D02*
X18214286Y22751666D01*
X18214286Y22751666D02*
X18261905Y22942142D01*
X18261905Y22942142D02*
X18309524Y23037380D01*
X18309524Y23037380D02*
X18357143Y23085000D01*
X18357143Y23085000D02*
X18452381Y23132619D01*
X17833333Y23427857D02*
X17785714Y23380238D01*
X17785714Y23380238D02*
X17642857Y23332619D01*
X17642857Y23332619D02*
X17547619Y23332619D01*
X17547619Y23332619D02*
X17404762Y23380238D01*
X17404762Y23380238D02*
X17309524Y23475476D01*
X17309524Y23475476D02*
X17261905Y23570714D01*
X17261905Y23570714D02*
X17214286Y23761190D01*
X17214286Y23761190D02*
X17214286Y23904047D01*
X17214286Y23904047D02*
X17261905Y24094523D01*
X17261905Y24094523D02*
X17309524Y24189761D01*
X17309524Y24189761D02*
X17404762Y24285000D01*
X17404762Y24285000D02*
X17547619Y24332619D01*
X17547619Y24332619D02*
X17642857Y24332619D01*
X17642857Y24332619D02*
X17785714Y24285000D01*
X17785714Y24285000D02*
X17833333Y24237380D01*
X18690476Y24332619D02*
X18500000Y24332619D01*
X18500000Y24332619D02*
X18404762Y24285000D01*
X18404762Y24285000D02*
X18357143Y24237380D01*
X18357143Y24237380D02*
X18261905Y24094523D01*
X18261905Y24094523D02*
X18214286Y23904047D01*
X18214286Y23904047D02*
X18214286Y23523095D01*
X18214286Y23523095D02*
X18261905Y23427857D01*
X18261905Y23427857D02*
X18309524Y23380238D01*
X18309524Y23380238D02*
X18404762Y23332619D01*
X18404762Y23332619D02*
X18595238Y23332619D01*
X18595238Y23332619D02*
X18690476Y23380238D01*
X18690476Y23380238D02*
X18738095Y23427857D01*
X18738095Y23427857D02*
X18785714Y23523095D01*
X18785714Y23523095D02*
X18785714Y23761190D01*
X18785714Y23761190D02*
X18738095Y23856428D01*
X18738095Y23856428D02*
X18690476Y23904047D01*
X18690476Y23904047D02*
X18595238Y23951666D01*
X18595238Y23951666D02*
X18404762Y23951666D01*
X18404762Y23951666D02*
X18309524Y23904047D01*
X18309524Y23904047D02*
X18261905Y23856428D01*
X18261905Y23856428D02*
X18214286Y23761190D01*
X17833333Y24627857D02*
X17785714Y24580238D01*
X17785714Y24580238D02*
X17642857Y24532619D01*
X17642857Y24532619D02*
X17547619Y24532619D01*
X17547619Y24532619D02*
X17404762Y24580238D01*
X17404762Y24580238D02*
X17309524Y24675476D01*
X17309524Y24675476D02*
X17261905Y24770714D01*
X17261905Y24770714D02*
X17214286Y24961190D01*
X17214286Y24961190D02*
X17214286Y25104047D01*
X17214286Y25104047D02*
X17261905Y25294523D01*
X17261905Y25294523D02*
X17309524Y25389761D01*
X17309524Y25389761D02*
X17404762Y25485000D01*
X17404762Y25485000D02*
X17547619Y25532619D01*
X17547619Y25532619D02*
X17642857Y25532619D01*
X17642857Y25532619D02*
X17785714Y25485000D01*
X17785714Y25485000D02*
X17833333Y25437380D01*
X18738095Y25532619D02*
X18261905Y25532619D01*
X18261905Y25532619D02*
X18214286Y25056428D01*
X18214286Y25056428D02*
X18261905Y25104047D01*
X18261905Y25104047D02*
X18357143Y25151666D01*
X18357143Y25151666D02*
X18595238Y25151666D01*
X18595238Y25151666D02*
X18690476Y25104047D01*
X18690476Y25104047D02*
X18738095Y25056428D01*
X18738095Y25056428D02*
X18785714Y24961190D01*
X18785714Y24961190D02*
X18785714Y24723095D01*
X18785714Y24723095D02*
X18738095Y24627857D01*
X18738095Y24627857D02*
X18690476Y24580238D01*
X18690476Y24580238D02*
X18595238Y24532619D01*
X18595238Y24532619D02*
X18357143Y24532619D01*
X18357143Y24532619D02*
X18261905Y24580238D01*
X18261905Y24580238D02*
X18214286Y24627857D01*
D11*
%TO.C,D1*%
X22300000Y30800000D02*
X20450000Y30800000D01*
X22300000Y32000000D02*
X20450000Y32000000D01*
X20450000Y32000000D02*
X20450000Y30800000D01*
%TO.C,D2*%
X22300000Y13800000D02*
X20450000Y13800000D01*
X22300000Y15000000D02*
X20450000Y15000000D01*
X20450000Y15000000D02*
X20450000Y13800000D01*
%TO.C,D3*%
X22300000Y-3200000D02*
X20450000Y-3200000D01*
X22300000Y-2000000D02*
X20450000Y-2000000D01*
X20450000Y-2000000D02*
X20450000Y-3200000D01*
%TO.C,D4*%
X-4300000Y37200000D02*
X-2450000Y37200000D01*
X-4300000Y36000000D02*
X-2450000Y36000000D01*
X-2450000Y36000000D02*
X-2450000Y37200000D01*
%TO.C,D5*%
X-4300000Y20200000D02*
X-2450000Y20200000D01*
X-4300000Y19000000D02*
X-2450000Y19000000D01*
X-2450000Y19000000D02*
X-2450000Y20200000D01*
%TO.C,D6*%
X-4300000Y3200000D02*
X-2450000Y3200000D01*
X-4300000Y2000000D02*
X-2450000Y2000000D01*
X-2450000Y2000000D02*
X-2450000Y3200000D01*
%TD*%
M02*
