%TF.GenerationSoftware,KiCad,Pcbnew,(7.0.0-0)*%
%TF.CreationDate,2023-02-20T17:01:43+08:00*%
%TF.ProjectId,left,6c656674-2e6b-4696-9361-645f70636258,v1.0.0*%
%TF.SameCoordinates,Original*%
%TF.FileFunction,Drillmap*%
%TF.FilePolarity,Positive*%
%FSLAX45Y45*%
G04 Gerber Fmt 4.5, Leading zero omitted, Abs format (unit mm)*
G04 Created by KiCad (PCBNEW (7.0.0-0)) date 2023-02-20 17:01:43*
%MOMM*%
%LPD*%
G01*
G04 APERTURE LIST*
%ADD10C,0.150000*%
%ADD11C,0.200000*%
%ADD12C,0.030000*%
%ADD13C,0.040000*%
%ADD14C,0.100000*%
%ADD15C,0.109220*%
%ADD16C,0.127000*%
G04 APERTURE END LIST*
D10*
X-551000Y-850000D02*
X951000Y-850000D01*
X1100000Y-701000D02*
X1100000Y101000D01*
X-551000Y5950000D02*
X2351000Y5950000D01*
X4700000Y5799000D02*
X4700000Y6101000D01*
X4551000Y6250000D02*
X2649000Y6250000D01*
X2500000Y6101000D02*
X2500000Y6099000D01*
X5965037Y5650000D02*
X4849000Y5650000D01*
X1249000Y250000D02*
X8151000Y250000D01*
X8300000Y399000D02*
X8300000Y5201000D01*
X8151000Y5350000D02*
X6748999Y5350000D01*
X6599999Y5499332D02*
G75*
G03*
X6076194Y5699777I-299999J668D01*
G01*
X-700000Y-701000D02*
X-700000Y5801000D01*
X951000Y-850000D02*
G75*
G03*
X1100000Y-701000I0J149000D01*
G01*
X1249000Y250000D02*
G75*
G03*
X1100000Y101000I0J-149000D01*
G01*
X8151000Y250000D02*
G75*
G03*
X8300000Y399000I0J149000D01*
G01*
X8300000Y5201000D02*
G75*
G03*
X8151000Y5350000I-149000J0D01*
G01*
X6599999Y5499332D02*
G75*
G03*
X6748999Y5350000I149000J-332D01*
G01*
X5965037Y5650000D02*
G75*
G03*
X6076194Y5699777I0J149000D01*
G01*
X4700000Y5799000D02*
G75*
G03*
X4849000Y5650000I149000J0D01*
G01*
X4700000Y6101000D02*
G75*
G03*
X4551000Y6250000I-149000J0D01*
G01*
X2649000Y6250000D02*
G75*
G03*
X2500000Y6101000I0J-149000D01*
G01*
X2351000Y5950000D02*
G75*
G03*
X2500000Y6099000I0J149000D01*
G01*
X-551000Y5950000D02*
G75*
G03*
X-700000Y5801000I0J-149000D01*
G01*
X-700000Y-701000D02*
G75*
G03*
X-551000Y-850000I149000J0D01*
G01*
D11*
D12*
X-342500Y4010000D02*
X-312500Y3980000D01*
X-312500Y4010000D02*
X-342500Y3980000D01*
X-342500Y2310000D02*
X-312500Y2280000D01*
X-312500Y2310000D02*
X-342500Y2280000D01*
X-342500Y610000D02*
X-312500Y580000D01*
X-312500Y610000D02*
X-342500Y580000D01*
X812500Y3790000D02*
X842500Y3760000D01*
X842500Y3790000D02*
X812500Y3760000D01*
X812500Y2090000D02*
X842500Y2060000D01*
X842500Y2090000D02*
X812500Y2060000D01*
X812500Y390000D02*
X842500Y360000D01*
X842500Y390000D02*
X812500Y360000D01*
X1457500Y5710000D02*
X1487500Y5680000D01*
X1487500Y5710000D02*
X1457500Y5680000D01*
X1457500Y4010000D02*
X1487500Y3980000D01*
X1487500Y4010000D02*
X1457500Y3980000D01*
X1457500Y2310000D02*
X1487500Y2280000D01*
X1487500Y2310000D02*
X1457500Y2280000D01*
X2612500Y5490000D02*
X2642500Y5460000D01*
X2642500Y5490000D02*
X2612500Y5460000D01*
X2612500Y3790000D02*
X2642500Y3760000D01*
X2642500Y3790000D02*
X2612500Y3760000D01*
X2612500Y2090000D02*
X2642500Y2060000D01*
X2642500Y2090000D02*
X2612500Y2060000D01*
X2757500Y5040000D02*
X2787500Y5010000D01*
X2787500Y5040000D02*
X2757500Y5010000D01*
X3257500Y4310000D02*
X3287500Y4280000D01*
X3287500Y4310000D02*
X3257500Y4280000D01*
X3257500Y2610000D02*
X3287500Y2580000D01*
X3287500Y2610000D02*
X3257500Y2580000D01*
X3912500Y4820000D02*
X3942500Y4790000D01*
X3942500Y4820000D02*
X3912500Y4790000D01*
X4412500Y4090000D02*
X4442500Y4060000D01*
X4442500Y4090000D02*
X4412500Y4060000D01*
X4412500Y2390000D02*
X4442500Y2360000D01*
X4442500Y2390000D02*
X4412500Y2360000D01*
X4557500Y4440000D02*
X4587500Y4410000D01*
X4587500Y4440000D02*
X4557500Y4410000D01*
X4557500Y2740000D02*
X4587500Y2710000D01*
X4587500Y2740000D02*
X4557500Y2710000D01*
X5057500Y2010000D02*
X5087500Y1980000D01*
X5087500Y2010000D02*
X5057500Y1980000D01*
X5712500Y4220000D02*
X5742500Y4190000D01*
X5742500Y4220000D02*
X5712500Y4190000D01*
X5712500Y2520000D02*
X5742500Y2490000D01*
X5742500Y2520000D02*
X5712500Y2490000D01*
X6212500Y1790000D02*
X6242500Y1760000D01*
X6242500Y1790000D02*
X6212500Y1760000D01*
X6857500Y1710000D02*
X6887500Y1680000D01*
X6887500Y1710000D02*
X6857500Y1680000D01*
X8012500Y1490000D02*
X8042500Y1460000D01*
X8042500Y1490000D02*
X8012500Y1460000D01*
D13*
X5000Y1960000D02*
G75*
G03*
X5000Y1960000I-20000J0D01*
G01*
X320000Y0D02*
G75*
G03*
X320000Y0I-20000J0D01*
G01*
X860000Y4710000D02*
G75*
G03*
X860000Y4710000I-20000J0D01*
G01*
X1455000Y2900000D02*
G75*
G03*
X1455000Y2900000I-20000J0D01*
G01*
X1460000Y2795000D02*
G75*
G03*
X1460000Y2795000I-20000J0D01*
G01*
X1745000Y935000D02*
G75*
G03*
X1745000Y935000I-20000J0D01*
G01*
X3230000Y995000D02*
G75*
G03*
X3230000Y995000I-20000J0D01*
G01*
X3295000Y2095000D02*
G75*
G03*
X3295000Y2095000I-20000J0D01*
G01*
X4300000Y3025000D02*
G75*
G03*
X4300000Y3025000I-20000J0D01*
G01*
X4450000Y3290000D02*
G75*
G03*
X4450000Y3290000I-20000J0D01*
G01*
X4595000Y5900000D02*
G75*
G03*
X4595000Y5900000I-20000J0D01*
G01*
X5040000Y3060000D02*
G75*
G03*
X5040000Y3060000I-20000J0D01*
G01*
X5115000Y4985000D02*
G75*
G03*
X5115000Y4985000I-20000J0D01*
G01*
X5660000Y3740000D02*
G75*
G03*
X5660000Y3740000I-20000J0D01*
G01*
X5720000Y3050000D02*
G75*
G03*
X5720000Y3050000I-20000J0D01*
G01*
X5980000Y5550000D02*
G75*
G03*
X5980000Y5550000I-20000J0D01*
G01*
X6080000Y5470000D02*
G75*
G03*
X6080000Y5470000I-20000J0D01*
G01*
X7800000Y4110000D02*
G75*
G03*
X7800000Y4110000I-20000J0D01*
G01*
D14*
X-254000Y5838000D02*
X-254000Y5738000D01*
X-304000Y5788000D02*
X-204000Y5788000D01*
X-254000Y4388000D02*
X-254000Y4288000D01*
X-304000Y4338000D02*
X-204000Y4338000D01*
X-4000Y4388000D02*
X-4000Y4288000D01*
X-54000Y4338000D02*
X46000Y4338000D01*
X246000Y5838000D02*
X246000Y5738000D01*
X196000Y5788000D02*
X296000Y5788000D01*
X246000Y4388000D02*
X246000Y4288000D01*
X196000Y4338000D02*
X296000Y4338000D01*
D15*
X6476615Y4808385D02*
X6476615Y4885616D01*
X6399384Y4885616D01*
X6399384Y4808385D01*
X6476615Y4808385D01*
X6476615Y4554385D02*
X6476615Y4631616D01*
X6399384Y4631616D01*
X6399384Y4554385D01*
X6476615Y4554385D01*
X6476615Y4300385D02*
X6476615Y4377616D01*
X6399384Y4377616D01*
X6399384Y4300385D01*
X6476615Y4300385D01*
X6476615Y4046384D02*
X6476615Y4123615D01*
X6399384Y4123615D01*
X6399384Y4046384D01*
X6476615Y4046384D01*
X6476615Y3792384D02*
X6476615Y3869615D01*
X6399384Y3869615D01*
X6399384Y3792384D01*
X6476615Y3792384D01*
X6476615Y3538384D02*
X6476615Y3615615D01*
X6399384Y3615615D01*
X6399384Y3538384D01*
X6476615Y3538384D01*
X6476615Y3284384D02*
X6476615Y3361615D01*
X6399384Y3361615D01*
X6399384Y3284384D01*
X6476615Y3284384D01*
X6476615Y3030384D02*
X6476615Y3107615D01*
X6399384Y3107615D01*
X6399384Y3030384D01*
X6476615Y3030384D01*
X6476615Y2776385D02*
X6476615Y2853615D01*
X6399384Y2853615D01*
X6399384Y2776385D01*
X6476615Y2776385D01*
X6476615Y2522385D02*
X6476615Y2599616D01*
X6399384Y2599616D01*
X6399384Y2522385D01*
X6476615Y2522385D01*
X6476615Y2268385D02*
X6476615Y2345616D01*
X6399384Y2345616D01*
X6399384Y2268385D01*
X6476615Y2268385D01*
X6476615Y2014384D02*
X6476615Y2091615D01*
X6399384Y2091615D01*
X6399384Y2014384D01*
X6476615Y2014384D01*
X8000615Y4808385D02*
X8000615Y4885616D01*
X7923384Y4885616D01*
X7923384Y4808385D01*
X8000615Y4808385D01*
X8000615Y4554385D02*
X8000615Y4631616D01*
X7923384Y4631616D01*
X7923384Y4554385D01*
X8000615Y4554385D01*
X8000615Y4300385D02*
X8000615Y4377616D01*
X7923384Y4377616D01*
X7923384Y4300385D01*
X8000615Y4300385D01*
X8000615Y4046384D02*
X8000615Y4123615D01*
X7923384Y4123615D01*
X7923384Y4046384D01*
X8000615Y4046384D01*
X8000615Y3792384D02*
X8000615Y3869615D01*
X7923384Y3869615D01*
X7923384Y3792384D01*
X8000615Y3792384D01*
X8000615Y3538384D02*
X8000615Y3615615D01*
X7923384Y3615615D01*
X7923384Y3538384D01*
X8000615Y3538384D01*
X8000615Y3284384D02*
X8000615Y3361615D01*
X7923384Y3361615D01*
X7923384Y3284384D01*
X8000615Y3284384D01*
X8000615Y3030384D02*
X8000615Y3107615D01*
X7923384Y3107615D01*
X7923384Y3030384D01*
X8000615Y3030384D01*
X8000615Y2776385D02*
X8000615Y2853615D01*
X7923384Y2853615D01*
X7923384Y2776385D01*
X8000615Y2776385D01*
X8000615Y2522385D02*
X8000615Y2599616D01*
X7923384Y2599616D01*
X7923384Y2522385D01*
X8000615Y2522385D01*
X8000615Y2268385D02*
X8000615Y2345616D01*
X7923384Y2345616D01*
X7923384Y2268385D01*
X8000615Y2268385D01*
X8000615Y2014384D02*
X8000615Y2091615D01*
X7923384Y2091615D01*
X7923384Y2014384D01*
X8000615Y2014384D01*
D16*
X6700000Y4056500D02*
X6763500Y4120000D01*
X6700000Y4183500D01*
X6636500Y4120000D01*
X6700000Y4056500D01*
X6700000Y2356500D02*
X6763500Y2420000D01*
X6700000Y2483500D01*
X6636500Y2420000D01*
X6700000Y2356500D01*
X7200000Y3846500D02*
X7263500Y3910000D01*
X7200000Y3973500D01*
X7136500Y3910000D01*
X7200000Y3846500D01*
X7200000Y2146500D02*
X7263500Y2210000D01*
X7200000Y2273500D01*
X7136500Y2210000D01*
X7200000Y2146500D01*
D10*
X-639000Y5163000D02*
X-489000Y5013000D01*
X-489000Y5163000D02*
X-639000Y5013000D01*
X-489000Y5088000D02*
G75*
G03*
X-489000Y5088000I-75000J0D01*
G01*
D11*
X-489000Y5023000D02*
X-489000Y5153000D01*
X-489000Y5153000D02*
G75*
G03*
X-639000Y5153000I-75000J0D01*
G01*
X-639000Y5153000D02*
X-639000Y5023000D01*
X-639000Y5023000D02*
G75*
G03*
X-489000Y5023000I75000J0D01*
G01*
D10*
X481000Y5163000D02*
X631000Y5013000D01*
X631000Y5163000D02*
X481000Y5013000D01*
X631000Y5088000D02*
G75*
G03*
X631000Y5088000I-75000J0D01*
G01*
D11*
X631000Y5023000D02*
X631000Y5153000D01*
X631000Y5153000D02*
G75*
G03*
X481000Y5153000I-75000J0D01*
G01*
X481000Y5153000D02*
X481000Y5023000D01*
X481000Y5023000D02*
G75*
G03*
X631000Y5023000I75000J0D01*
G01*
X-459881Y-1150976D02*
X-459881Y-950976D01*
X-459881Y-950976D02*
X-412262Y-950976D01*
X-412262Y-950976D02*
X-383690Y-960500D01*
X-383690Y-960500D02*
X-364643Y-979548D01*
X-364643Y-979548D02*
X-355119Y-998595D01*
X-355119Y-998595D02*
X-345595Y-1036690D01*
X-345595Y-1036690D02*
X-345595Y-1065262D01*
X-345595Y-1065262D02*
X-355119Y-1103357D01*
X-355119Y-1103357D02*
X-364643Y-1122405D01*
X-364643Y-1122405D02*
X-383690Y-1141452D01*
X-383690Y-1141452D02*
X-412262Y-1150976D01*
X-412262Y-1150976D02*
X-459881Y-1150976D01*
X-259881Y-1150976D02*
X-259881Y-1017643D01*
X-259881Y-1055738D02*
X-250357Y-1036690D01*
X-250357Y-1036690D02*
X-240833Y-1027167D01*
X-240833Y-1027167D02*
X-221786Y-1017643D01*
X-221786Y-1017643D02*
X-202738Y-1017643D01*
X-136071Y-1150976D02*
X-136071Y-1017643D01*
X-136071Y-950976D02*
X-145595Y-960500D01*
X-145595Y-960500D02*
X-136071Y-970024D01*
X-136071Y-970024D02*
X-126548Y-960500D01*
X-126548Y-960500D02*
X-136071Y-950976D01*
X-136071Y-950976D02*
X-136071Y-970024D01*
X-12262Y-1150976D02*
X-31309Y-1141452D01*
X-31309Y-1141452D02*
X-40833Y-1122405D01*
X-40833Y-1122405D02*
X-40833Y-950976D01*
X92500Y-1150976D02*
X73452Y-1141452D01*
X73452Y-1141452D02*
X63928Y-1122405D01*
X63928Y-1122405D02*
X63928Y-950976D01*
X288690Y-1150976D02*
X288690Y-950976D01*
X288690Y-950976D02*
X355357Y-1093833D01*
X355357Y-1093833D02*
X422024Y-950976D01*
X422024Y-950976D02*
X422024Y-1150976D01*
X602976Y-1150976D02*
X602976Y-1046214D01*
X602976Y-1046214D02*
X593452Y-1027167D01*
X593452Y-1027167D02*
X574405Y-1017643D01*
X574405Y-1017643D02*
X536309Y-1017643D01*
X536309Y-1017643D02*
X517262Y-1027167D01*
X602976Y-1141452D02*
X583929Y-1150976D01*
X583929Y-1150976D02*
X536309Y-1150976D01*
X536309Y-1150976D02*
X517262Y-1141452D01*
X517262Y-1141452D02*
X507738Y-1122405D01*
X507738Y-1122405D02*
X507738Y-1103357D01*
X507738Y-1103357D02*
X517262Y-1084310D01*
X517262Y-1084310D02*
X536309Y-1074786D01*
X536309Y-1074786D02*
X583929Y-1074786D01*
X583929Y-1074786D02*
X602976Y-1065262D01*
X698214Y-1017643D02*
X698214Y-1217643D01*
X698214Y-1027167D02*
X717262Y-1017643D01*
X717262Y-1017643D02*
X755357Y-1017643D01*
X755357Y-1017643D02*
X774405Y-1027167D01*
X774405Y-1027167D02*
X783928Y-1036690D01*
X783928Y-1036690D02*
X793452Y-1055738D01*
X793452Y-1055738D02*
X793452Y-1112881D01*
X793452Y-1112881D02*
X783928Y-1131929D01*
X783928Y-1131929D02*
X774405Y-1141452D01*
X774405Y-1141452D02*
X755357Y-1150976D01*
X755357Y-1150976D02*
X717262Y-1150976D01*
X717262Y-1150976D02*
X698214Y-1141452D01*
X879167Y-1131929D02*
X888690Y-1141452D01*
X888690Y-1141452D02*
X879167Y-1150976D01*
X879167Y-1150976D02*
X869643Y-1141452D01*
X869643Y-1141452D02*
X879167Y-1131929D01*
X879167Y-1131929D02*
X879167Y-1150976D01*
X879167Y-1027167D02*
X888690Y-1036690D01*
X888690Y-1036690D02*
X879167Y-1046214D01*
X879167Y-1046214D02*
X869643Y-1036690D01*
X869643Y-1036690D02*
X879167Y-1027167D01*
X879167Y-1027167D02*
X879167Y-1046214D01*
D12*
X-737500Y-1482500D02*
X-707500Y-1512500D01*
X-707500Y-1482500D02*
X-737500Y-1512500D01*
D11*
X-421786Y-1370976D02*
X-402738Y-1370976D01*
X-402738Y-1370976D02*
X-383690Y-1380500D01*
X-383690Y-1380500D02*
X-374167Y-1390024D01*
X-374167Y-1390024D02*
X-364643Y-1409071D01*
X-364643Y-1409071D02*
X-355119Y-1447167D01*
X-355119Y-1447167D02*
X-355119Y-1494786D01*
X-355119Y-1494786D02*
X-364643Y-1532881D01*
X-364643Y-1532881D02*
X-374167Y-1551928D01*
X-374167Y-1551928D02*
X-383690Y-1561452D01*
X-383690Y-1561452D02*
X-402738Y-1570976D01*
X-402738Y-1570976D02*
X-421786Y-1570976D01*
X-421786Y-1570976D02*
X-440833Y-1561452D01*
X-440833Y-1561452D02*
X-450357Y-1551928D01*
X-450357Y-1551928D02*
X-459881Y-1532881D01*
X-459881Y-1532881D02*
X-469405Y-1494786D01*
X-469405Y-1494786D02*
X-469405Y-1447167D01*
X-469405Y-1447167D02*
X-459881Y-1409071D01*
X-459881Y-1409071D02*
X-450357Y-1390024D01*
X-450357Y-1390024D02*
X-440833Y-1380500D01*
X-440833Y-1380500D02*
X-421786Y-1370976D01*
X-269405Y-1551928D02*
X-259881Y-1561452D01*
X-259881Y-1561452D02*
X-269405Y-1570976D01*
X-269405Y-1570976D02*
X-278929Y-1561452D01*
X-278929Y-1561452D02*
X-269405Y-1551928D01*
X-269405Y-1551928D02*
X-269405Y-1570976D01*
X-193214Y-1370976D02*
X-69405Y-1370976D01*
X-69405Y-1370976D02*
X-136071Y-1447167D01*
X-136071Y-1447167D02*
X-107500Y-1447167D01*
X-107500Y-1447167D02*
X-88452Y-1456690D01*
X-88452Y-1456690D02*
X-78929Y-1466214D01*
X-78929Y-1466214D02*
X-69405Y-1485262D01*
X-69405Y-1485262D02*
X-69405Y-1532881D01*
X-69405Y-1532881D02*
X-78929Y-1551928D01*
X-78929Y-1551928D02*
X-88452Y-1561452D01*
X-88452Y-1561452D02*
X-107500Y-1570976D01*
X-107500Y-1570976D02*
X-164643Y-1570976D01*
X-164643Y-1570976D02*
X-183690Y-1561452D01*
X-183690Y-1561452D02*
X-193214Y-1551928D01*
X54405Y-1370976D02*
X73452Y-1370976D01*
X73452Y-1370976D02*
X92500Y-1380500D01*
X92500Y-1380500D02*
X102024Y-1390024D01*
X102024Y-1390024D02*
X111548Y-1409071D01*
X111548Y-1409071D02*
X121071Y-1447167D01*
X121071Y-1447167D02*
X121071Y-1494786D01*
X121071Y-1494786D02*
X111548Y-1532881D01*
X111548Y-1532881D02*
X102024Y-1551928D01*
X102024Y-1551928D02*
X92500Y-1561452D01*
X92500Y-1561452D02*
X73452Y-1570976D01*
X73452Y-1570976D02*
X54405Y-1570976D01*
X54405Y-1570976D02*
X35357Y-1561452D01*
X35357Y-1561452D02*
X25833Y-1551928D01*
X25833Y-1551928D02*
X16309Y-1532881D01*
X16309Y-1532881D02*
X6786Y-1494786D01*
X6786Y-1494786D02*
X6786Y-1447167D01*
X6786Y-1447167D02*
X16309Y-1409071D01*
X16309Y-1409071D02*
X25833Y-1390024D01*
X25833Y-1390024D02*
X35357Y-1380500D01*
X35357Y-1380500D02*
X54405Y-1370976D01*
X244881Y-1370976D02*
X263929Y-1370976D01*
X263929Y-1370976D02*
X282976Y-1380500D01*
X282976Y-1380500D02*
X292500Y-1390024D01*
X292500Y-1390024D02*
X302024Y-1409071D01*
X302024Y-1409071D02*
X311548Y-1447167D01*
X311548Y-1447167D02*
X311548Y-1494786D01*
X311548Y-1494786D02*
X302024Y-1532881D01*
X302024Y-1532881D02*
X292500Y-1551928D01*
X292500Y-1551928D02*
X282976Y-1561452D01*
X282976Y-1561452D02*
X263929Y-1570976D01*
X263929Y-1570976D02*
X244881Y-1570976D01*
X244881Y-1570976D02*
X225833Y-1561452D01*
X225833Y-1561452D02*
X216309Y-1551928D01*
X216309Y-1551928D02*
X206786Y-1532881D01*
X206786Y-1532881D02*
X197262Y-1494786D01*
X197262Y-1494786D02*
X197262Y-1447167D01*
X197262Y-1447167D02*
X206786Y-1409071D01*
X206786Y-1409071D02*
X216309Y-1390024D01*
X216309Y-1390024D02*
X225833Y-1380500D01*
X225833Y-1380500D02*
X244881Y-1370976D01*
X397262Y-1570976D02*
X397262Y-1437643D01*
X397262Y-1456690D02*
X406786Y-1447167D01*
X406786Y-1447167D02*
X425833Y-1437643D01*
X425833Y-1437643D02*
X454405Y-1437643D01*
X454405Y-1437643D02*
X473452Y-1447167D01*
X473452Y-1447167D02*
X482976Y-1466214D01*
X482976Y-1466214D02*
X482976Y-1570976D01*
X482976Y-1466214D02*
X492500Y-1447167D01*
X492500Y-1447167D02*
X511548Y-1437643D01*
X511548Y-1437643D02*
X540119Y-1437643D01*
X540119Y-1437643D02*
X559167Y-1447167D01*
X559167Y-1447167D02*
X568691Y-1466214D01*
X568691Y-1466214D02*
X568691Y-1570976D01*
X663929Y-1570976D02*
X663929Y-1437643D01*
X663929Y-1456690D02*
X673452Y-1447167D01*
X673452Y-1447167D02*
X692500Y-1437643D01*
X692500Y-1437643D02*
X721071Y-1437643D01*
X721071Y-1437643D02*
X740119Y-1447167D01*
X740119Y-1447167D02*
X749643Y-1466214D01*
X749643Y-1466214D02*
X749643Y-1570976D01*
X749643Y-1466214D02*
X759167Y-1447167D01*
X759167Y-1447167D02*
X778214Y-1437643D01*
X778214Y-1437643D02*
X806786Y-1437643D01*
X806786Y-1437643D02*
X825833Y-1447167D01*
X825833Y-1447167D02*
X835357Y-1466214D01*
X835357Y-1466214D02*
X835357Y-1570976D01*
X1193452Y-1361452D02*
X1022024Y-1618595D01*
X1418214Y-1370976D02*
X1437262Y-1370976D01*
X1437262Y-1370976D02*
X1456310Y-1380500D01*
X1456310Y-1380500D02*
X1465833Y-1390024D01*
X1465833Y-1390024D02*
X1475357Y-1409071D01*
X1475357Y-1409071D02*
X1484881Y-1447167D01*
X1484881Y-1447167D02*
X1484881Y-1494786D01*
X1484881Y-1494786D02*
X1475357Y-1532881D01*
X1475357Y-1532881D02*
X1465833Y-1551928D01*
X1465833Y-1551928D02*
X1456310Y-1561452D01*
X1456310Y-1561452D02*
X1437262Y-1570976D01*
X1437262Y-1570976D02*
X1418214Y-1570976D01*
X1418214Y-1570976D02*
X1399167Y-1561452D01*
X1399167Y-1561452D02*
X1389643Y-1551928D01*
X1389643Y-1551928D02*
X1380119Y-1532881D01*
X1380119Y-1532881D02*
X1370595Y-1494786D01*
X1370595Y-1494786D02*
X1370595Y-1447167D01*
X1370595Y-1447167D02*
X1380119Y-1409071D01*
X1380119Y-1409071D02*
X1389643Y-1390024D01*
X1389643Y-1390024D02*
X1399167Y-1380500D01*
X1399167Y-1380500D02*
X1418214Y-1370976D01*
X1570595Y-1551928D02*
X1580119Y-1561452D01*
X1580119Y-1561452D02*
X1570595Y-1570976D01*
X1570595Y-1570976D02*
X1561071Y-1561452D01*
X1561071Y-1561452D02*
X1570595Y-1551928D01*
X1570595Y-1551928D02*
X1570595Y-1570976D01*
X1703929Y-1370976D02*
X1722976Y-1370976D01*
X1722976Y-1370976D02*
X1742024Y-1380500D01*
X1742024Y-1380500D02*
X1751548Y-1390024D01*
X1751548Y-1390024D02*
X1761071Y-1409071D01*
X1761071Y-1409071D02*
X1770595Y-1447167D01*
X1770595Y-1447167D02*
X1770595Y-1494786D01*
X1770595Y-1494786D02*
X1761071Y-1532881D01*
X1761071Y-1532881D02*
X1751548Y-1551928D01*
X1751548Y-1551928D02*
X1742024Y-1561452D01*
X1742024Y-1561452D02*
X1722976Y-1570976D01*
X1722976Y-1570976D02*
X1703929Y-1570976D01*
X1703929Y-1570976D02*
X1684881Y-1561452D01*
X1684881Y-1561452D02*
X1675357Y-1551928D01*
X1675357Y-1551928D02*
X1665833Y-1532881D01*
X1665833Y-1532881D02*
X1656310Y-1494786D01*
X1656310Y-1494786D02*
X1656310Y-1447167D01*
X1656310Y-1447167D02*
X1665833Y-1409071D01*
X1665833Y-1409071D02*
X1675357Y-1390024D01*
X1675357Y-1390024D02*
X1684881Y-1380500D01*
X1684881Y-1380500D02*
X1703929Y-1370976D01*
X1961071Y-1570976D02*
X1846786Y-1570976D01*
X1903929Y-1570976D02*
X1903929Y-1370976D01*
X1903929Y-1370976D02*
X1884881Y-1399548D01*
X1884881Y-1399548D02*
X1865833Y-1418595D01*
X1865833Y-1418595D02*
X1846786Y-1428119D01*
X2151548Y-1570976D02*
X2037262Y-1570976D01*
X2094405Y-1570976D02*
X2094405Y-1370976D01*
X2094405Y-1370976D02*
X2075357Y-1399548D01*
X2075357Y-1399548D02*
X2056310Y-1418595D01*
X2056310Y-1418595D02*
X2037262Y-1428119D01*
X2265833Y-1456690D02*
X2246786Y-1447167D01*
X2246786Y-1447167D02*
X2237262Y-1437643D01*
X2237262Y-1437643D02*
X2227738Y-1418595D01*
X2227738Y-1418595D02*
X2227738Y-1409071D01*
X2227738Y-1409071D02*
X2237262Y-1390024D01*
X2237262Y-1390024D02*
X2246786Y-1380500D01*
X2246786Y-1380500D02*
X2265833Y-1370976D01*
X2265833Y-1370976D02*
X2303929Y-1370976D01*
X2303929Y-1370976D02*
X2322976Y-1380500D01*
X2322976Y-1380500D02*
X2332500Y-1390024D01*
X2332500Y-1390024D02*
X2342024Y-1409071D01*
X2342024Y-1409071D02*
X2342024Y-1418595D01*
X2342024Y-1418595D02*
X2332500Y-1437643D01*
X2332500Y-1437643D02*
X2322976Y-1447167D01*
X2322976Y-1447167D02*
X2303929Y-1456690D01*
X2303929Y-1456690D02*
X2265833Y-1456690D01*
X2265833Y-1456690D02*
X2246786Y-1466214D01*
X2246786Y-1466214D02*
X2237262Y-1475738D01*
X2237262Y-1475738D02*
X2227738Y-1494786D01*
X2227738Y-1494786D02*
X2227738Y-1532881D01*
X2227738Y-1532881D02*
X2237262Y-1551928D01*
X2237262Y-1551928D02*
X2246786Y-1561452D01*
X2246786Y-1561452D02*
X2265833Y-1570976D01*
X2265833Y-1570976D02*
X2303929Y-1570976D01*
X2303929Y-1570976D02*
X2322976Y-1561452D01*
X2322976Y-1561452D02*
X2332500Y-1551928D01*
X2332500Y-1551928D02*
X2342024Y-1532881D01*
X2342024Y-1532881D02*
X2342024Y-1494786D01*
X2342024Y-1494786D02*
X2332500Y-1475738D01*
X2332500Y-1475738D02*
X2322976Y-1466214D01*
X2322976Y-1466214D02*
X2303929Y-1456690D01*
X2418214Y-1370976D02*
X2418214Y-1409071D01*
X2494405Y-1370976D02*
X2494405Y-1409071D01*
X2757262Y-1647167D02*
X2747738Y-1637643D01*
X2747738Y-1637643D02*
X2728691Y-1609071D01*
X2728691Y-1609071D02*
X2719167Y-1590024D01*
X2719167Y-1590024D02*
X2709643Y-1561452D01*
X2709643Y-1561452D02*
X2700119Y-1513833D01*
X2700119Y-1513833D02*
X2700119Y-1475738D01*
X2700119Y-1475738D02*
X2709643Y-1428119D01*
X2709643Y-1428119D02*
X2719167Y-1399548D01*
X2719167Y-1399548D02*
X2728691Y-1380500D01*
X2728691Y-1380500D02*
X2747738Y-1351929D01*
X2747738Y-1351929D02*
X2757262Y-1342405D01*
X2823929Y-1390024D02*
X2833452Y-1380500D01*
X2833452Y-1380500D02*
X2852500Y-1370976D01*
X2852500Y-1370976D02*
X2900119Y-1370976D01*
X2900119Y-1370976D02*
X2919167Y-1380500D01*
X2919167Y-1380500D02*
X2928691Y-1390024D01*
X2928691Y-1390024D02*
X2938214Y-1409071D01*
X2938214Y-1409071D02*
X2938214Y-1428119D01*
X2938214Y-1428119D02*
X2928691Y-1456690D01*
X2928691Y-1456690D02*
X2814405Y-1570976D01*
X2814405Y-1570976D02*
X2938214Y-1570976D01*
X3109643Y-1370976D02*
X3071548Y-1370976D01*
X3071548Y-1370976D02*
X3052500Y-1380500D01*
X3052500Y-1380500D02*
X3042976Y-1390024D01*
X3042976Y-1390024D02*
X3023929Y-1418595D01*
X3023929Y-1418595D02*
X3014405Y-1456690D01*
X3014405Y-1456690D02*
X3014405Y-1532881D01*
X3014405Y-1532881D02*
X3023929Y-1551928D01*
X3023929Y-1551928D02*
X3033452Y-1561452D01*
X3033452Y-1561452D02*
X3052500Y-1570976D01*
X3052500Y-1570976D02*
X3090595Y-1570976D01*
X3090595Y-1570976D02*
X3109643Y-1561452D01*
X3109643Y-1561452D02*
X3119167Y-1551928D01*
X3119167Y-1551928D02*
X3128691Y-1532881D01*
X3128691Y-1532881D02*
X3128691Y-1485262D01*
X3128691Y-1485262D02*
X3119167Y-1466214D01*
X3119167Y-1466214D02*
X3109643Y-1456690D01*
X3109643Y-1456690D02*
X3090595Y-1447167D01*
X3090595Y-1447167D02*
X3052500Y-1447167D01*
X3052500Y-1447167D02*
X3033452Y-1456690D01*
X3033452Y-1456690D02*
X3023929Y-1466214D01*
X3023929Y-1466214D02*
X3014405Y-1485262D01*
X3334405Y-1570976D02*
X3334405Y-1370976D01*
X3420119Y-1570976D02*
X3420119Y-1466214D01*
X3420119Y-1466214D02*
X3410595Y-1447167D01*
X3410595Y-1447167D02*
X3391548Y-1437643D01*
X3391548Y-1437643D02*
X3362976Y-1437643D01*
X3362976Y-1437643D02*
X3343929Y-1447167D01*
X3343929Y-1447167D02*
X3334405Y-1456690D01*
X3543929Y-1570976D02*
X3524881Y-1561452D01*
X3524881Y-1561452D02*
X3515357Y-1551928D01*
X3515357Y-1551928D02*
X3505833Y-1532881D01*
X3505833Y-1532881D02*
X3505833Y-1475738D01*
X3505833Y-1475738D02*
X3515357Y-1456690D01*
X3515357Y-1456690D02*
X3524881Y-1447167D01*
X3524881Y-1447167D02*
X3543929Y-1437643D01*
X3543929Y-1437643D02*
X3572500Y-1437643D01*
X3572500Y-1437643D02*
X3591548Y-1447167D01*
X3591548Y-1447167D02*
X3601072Y-1456690D01*
X3601072Y-1456690D02*
X3610595Y-1475738D01*
X3610595Y-1475738D02*
X3610595Y-1532881D01*
X3610595Y-1532881D02*
X3601072Y-1551928D01*
X3601072Y-1551928D02*
X3591548Y-1561452D01*
X3591548Y-1561452D02*
X3572500Y-1570976D01*
X3572500Y-1570976D02*
X3543929Y-1570976D01*
X3724881Y-1570976D02*
X3705833Y-1561452D01*
X3705833Y-1561452D02*
X3696310Y-1542405D01*
X3696310Y-1542405D02*
X3696310Y-1370976D01*
X3877262Y-1561452D02*
X3858214Y-1570976D01*
X3858214Y-1570976D02*
X3820119Y-1570976D01*
X3820119Y-1570976D02*
X3801072Y-1561452D01*
X3801072Y-1561452D02*
X3791548Y-1542405D01*
X3791548Y-1542405D02*
X3791548Y-1466214D01*
X3791548Y-1466214D02*
X3801072Y-1447167D01*
X3801072Y-1447167D02*
X3820119Y-1437643D01*
X3820119Y-1437643D02*
X3858214Y-1437643D01*
X3858214Y-1437643D02*
X3877262Y-1447167D01*
X3877262Y-1447167D02*
X3886786Y-1466214D01*
X3886786Y-1466214D02*
X3886786Y-1485262D01*
X3886786Y-1485262D02*
X3791548Y-1504309D01*
X3962976Y-1561452D02*
X3982024Y-1570976D01*
X3982024Y-1570976D02*
X4020119Y-1570976D01*
X4020119Y-1570976D02*
X4039167Y-1561452D01*
X4039167Y-1561452D02*
X4048691Y-1542405D01*
X4048691Y-1542405D02*
X4048691Y-1532881D01*
X4048691Y-1532881D02*
X4039167Y-1513833D01*
X4039167Y-1513833D02*
X4020119Y-1504309D01*
X4020119Y-1504309D02*
X3991548Y-1504309D01*
X3991548Y-1504309D02*
X3972500Y-1494786D01*
X3972500Y-1494786D02*
X3962976Y-1475738D01*
X3962976Y-1475738D02*
X3962976Y-1466214D01*
X3962976Y-1466214D02*
X3972500Y-1447167D01*
X3972500Y-1447167D02*
X3991548Y-1437643D01*
X3991548Y-1437643D02*
X4020119Y-1437643D01*
X4020119Y-1437643D02*
X4039167Y-1447167D01*
X4115357Y-1647167D02*
X4124881Y-1637643D01*
X4124881Y-1637643D02*
X4143929Y-1609071D01*
X4143929Y-1609071D02*
X4153453Y-1590024D01*
X4153453Y-1590024D02*
X4162976Y-1561452D01*
X4162976Y-1561452D02*
X4172500Y-1513833D01*
X4172500Y-1513833D02*
X4172500Y-1475738D01*
X4172500Y-1475738D02*
X4162976Y-1428119D01*
X4162976Y-1428119D02*
X4153453Y-1399548D01*
X4153453Y-1399548D02*
X4143929Y-1380500D01*
X4143929Y-1380500D02*
X4124881Y-1351929D01*
X4124881Y-1351929D02*
X4115357Y-1342405D01*
D13*
X-707500Y-1761500D02*
G75*
G03*
X-707500Y-1761500I-20000J0D01*
G01*
D11*
X-421786Y-1634976D02*
X-402738Y-1634976D01*
X-402738Y-1634976D02*
X-383690Y-1644500D01*
X-383690Y-1644500D02*
X-374167Y-1654024D01*
X-374167Y-1654024D02*
X-364643Y-1673071D01*
X-364643Y-1673071D02*
X-355119Y-1711167D01*
X-355119Y-1711167D02*
X-355119Y-1758786D01*
X-355119Y-1758786D02*
X-364643Y-1796881D01*
X-364643Y-1796881D02*
X-374167Y-1815928D01*
X-374167Y-1815928D02*
X-383690Y-1825452D01*
X-383690Y-1825452D02*
X-402738Y-1834976D01*
X-402738Y-1834976D02*
X-421786Y-1834976D01*
X-421786Y-1834976D02*
X-440833Y-1825452D01*
X-440833Y-1825452D02*
X-450357Y-1815928D01*
X-450357Y-1815928D02*
X-459881Y-1796881D01*
X-459881Y-1796881D02*
X-469405Y-1758786D01*
X-469405Y-1758786D02*
X-469405Y-1711167D01*
X-469405Y-1711167D02*
X-459881Y-1673071D01*
X-459881Y-1673071D02*
X-450357Y-1654024D01*
X-450357Y-1654024D02*
X-440833Y-1644500D01*
X-440833Y-1644500D02*
X-421786Y-1634976D01*
X-269405Y-1815928D02*
X-259881Y-1825452D01*
X-259881Y-1825452D02*
X-269405Y-1834976D01*
X-269405Y-1834976D02*
X-278929Y-1825452D01*
X-278929Y-1825452D02*
X-269405Y-1815928D01*
X-269405Y-1815928D02*
X-269405Y-1834976D01*
X-88452Y-1701643D02*
X-88452Y-1834976D01*
X-136071Y-1625452D02*
X-183690Y-1768309D01*
X-183690Y-1768309D02*
X-59881Y-1768309D01*
X54405Y-1634976D02*
X73452Y-1634976D01*
X73452Y-1634976D02*
X92500Y-1644500D01*
X92500Y-1644500D02*
X102024Y-1654024D01*
X102024Y-1654024D02*
X111548Y-1673071D01*
X111548Y-1673071D02*
X121071Y-1711167D01*
X121071Y-1711167D02*
X121071Y-1758786D01*
X121071Y-1758786D02*
X111548Y-1796881D01*
X111548Y-1796881D02*
X102024Y-1815928D01*
X102024Y-1815928D02*
X92500Y-1825452D01*
X92500Y-1825452D02*
X73452Y-1834976D01*
X73452Y-1834976D02*
X54405Y-1834976D01*
X54405Y-1834976D02*
X35357Y-1825452D01*
X35357Y-1825452D02*
X25833Y-1815928D01*
X25833Y-1815928D02*
X16309Y-1796881D01*
X16309Y-1796881D02*
X6786Y-1758786D01*
X6786Y-1758786D02*
X6786Y-1711167D01*
X6786Y-1711167D02*
X16309Y-1673071D01*
X16309Y-1673071D02*
X25833Y-1654024D01*
X25833Y-1654024D02*
X35357Y-1644500D01*
X35357Y-1644500D02*
X54405Y-1634976D01*
X244881Y-1634976D02*
X263929Y-1634976D01*
X263929Y-1634976D02*
X282976Y-1644500D01*
X282976Y-1644500D02*
X292500Y-1654024D01*
X292500Y-1654024D02*
X302024Y-1673071D01*
X302024Y-1673071D02*
X311548Y-1711167D01*
X311548Y-1711167D02*
X311548Y-1758786D01*
X311548Y-1758786D02*
X302024Y-1796881D01*
X302024Y-1796881D02*
X292500Y-1815928D01*
X292500Y-1815928D02*
X282976Y-1825452D01*
X282976Y-1825452D02*
X263929Y-1834976D01*
X263929Y-1834976D02*
X244881Y-1834976D01*
X244881Y-1834976D02*
X225833Y-1825452D01*
X225833Y-1825452D02*
X216309Y-1815928D01*
X216309Y-1815928D02*
X206786Y-1796881D01*
X206786Y-1796881D02*
X197262Y-1758786D01*
X197262Y-1758786D02*
X197262Y-1711167D01*
X197262Y-1711167D02*
X206786Y-1673071D01*
X206786Y-1673071D02*
X216309Y-1654024D01*
X216309Y-1654024D02*
X225833Y-1644500D01*
X225833Y-1644500D02*
X244881Y-1634976D01*
X397262Y-1834976D02*
X397262Y-1701643D01*
X397262Y-1720690D02*
X406786Y-1711167D01*
X406786Y-1711167D02*
X425833Y-1701643D01*
X425833Y-1701643D02*
X454405Y-1701643D01*
X454405Y-1701643D02*
X473452Y-1711167D01*
X473452Y-1711167D02*
X482976Y-1730214D01*
X482976Y-1730214D02*
X482976Y-1834976D01*
X482976Y-1730214D02*
X492500Y-1711167D01*
X492500Y-1711167D02*
X511548Y-1701643D01*
X511548Y-1701643D02*
X540119Y-1701643D01*
X540119Y-1701643D02*
X559167Y-1711167D01*
X559167Y-1711167D02*
X568691Y-1730214D01*
X568691Y-1730214D02*
X568691Y-1834976D01*
X663929Y-1834976D02*
X663929Y-1701643D01*
X663929Y-1720690D02*
X673452Y-1711167D01*
X673452Y-1711167D02*
X692500Y-1701643D01*
X692500Y-1701643D02*
X721071Y-1701643D01*
X721071Y-1701643D02*
X740119Y-1711167D01*
X740119Y-1711167D02*
X749643Y-1730214D01*
X749643Y-1730214D02*
X749643Y-1834976D01*
X749643Y-1730214D02*
X759167Y-1711167D01*
X759167Y-1711167D02*
X778214Y-1701643D01*
X778214Y-1701643D02*
X806786Y-1701643D01*
X806786Y-1701643D02*
X825833Y-1711167D01*
X825833Y-1711167D02*
X835357Y-1730214D01*
X835357Y-1730214D02*
X835357Y-1834976D01*
X1193452Y-1625452D02*
X1022024Y-1882595D01*
X1418214Y-1634976D02*
X1437262Y-1634976D01*
X1437262Y-1634976D02*
X1456310Y-1644500D01*
X1456310Y-1644500D02*
X1465833Y-1654024D01*
X1465833Y-1654024D02*
X1475357Y-1673071D01*
X1475357Y-1673071D02*
X1484881Y-1711167D01*
X1484881Y-1711167D02*
X1484881Y-1758786D01*
X1484881Y-1758786D02*
X1475357Y-1796881D01*
X1475357Y-1796881D02*
X1465833Y-1815928D01*
X1465833Y-1815928D02*
X1456310Y-1825452D01*
X1456310Y-1825452D02*
X1437262Y-1834976D01*
X1437262Y-1834976D02*
X1418214Y-1834976D01*
X1418214Y-1834976D02*
X1399167Y-1825452D01*
X1399167Y-1825452D02*
X1389643Y-1815928D01*
X1389643Y-1815928D02*
X1380119Y-1796881D01*
X1380119Y-1796881D02*
X1370595Y-1758786D01*
X1370595Y-1758786D02*
X1370595Y-1711167D01*
X1370595Y-1711167D02*
X1380119Y-1673071D01*
X1380119Y-1673071D02*
X1389643Y-1654024D01*
X1389643Y-1654024D02*
X1399167Y-1644500D01*
X1399167Y-1644500D02*
X1418214Y-1634976D01*
X1570595Y-1815928D02*
X1580119Y-1825452D01*
X1580119Y-1825452D02*
X1570595Y-1834976D01*
X1570595Y-1834976D02*
X1561071Y-1825452D01*
X1561071Y-1825452D02*
X1570595Y-1815928D01*
X1570595Y-1815928D02*
X1570595Y-1834976D01*
X1703929Y-1634976D02*
X1722976Y-1634976D01*
X1722976Y-1634976D02*
X1742024Y-1644500D01*
X1742024Y-1644500D02*
X1751548Y-1654024D01*
X1751548Y-1654024D02*
X1761071Y-1673071D01*
X1761071Y-1673071D02*
X1770595Y-1711167D01*
X1770595Y-1711167D02*
X1770595Y-1758786D01*
X1770595Y-1758786D02*
X1761071Y-1796881D01*
X1761071Y-1796881D02*
X1751548Y-1815928D01*
X1751548Y-1815928D02*
X1742024Y-1825452D01*
X1742024Y-1825452D02*
X1722976Y-1834976D01*
X1722976Y-1834976D02*
X1703929Y-1834976D01*
X1703929Y-1834976D02*
X1684881Y-1825452D01*
X1684881Y-1825452D02*
X1675357Y-1815928D01*
X1675357Y-1815928D02*
X1665833Y-1796881D01*
X1665833Y-1796881D02*
X1656310Y-1758786D01*
X1656310Y-1758786D02*
X1656310Y-1711167D01*
X1656310Y-1711167D02*
X1665833Y-1673071D01*
X1665833Y-1673071D02*
X1675357Y-1654024D01*
X1675357Y-1654024D02*
X1684881Y-1644500D01*
X1684881Y-1644500D02*
X1703929Y-1634976D01*
X1961071Y-1834976D02*
X1846786Y-1834976D01*
X1903929Y-1834976D02*
X1903929Y-1634976D01*
X1903929Y-1634976D02*
X1884881Y-1663548D01*
X1884881Y-1663548D02*
X1865833Y-1682595D01*
X1865833Y-1682595D02*
X1846786Y-1692119D01*
X2142024Y-1634976D02*
X2046786Y-1634976D01*
X2046786Y-1634976D02*
X2037262Y-1730214D01*
X2037262Y-1730214D02*
X2046786Y-1720690D01*
X2046786Y-1720690D02*
X2065833Y-1711167D01*
X2065833Y-1711167D02*
X2113453Y-1711167D01*
X2113453Y-1711167D02*
X2132500Y-1720690D01*
X2132500Y-1720690D02*
X2142024Y-1730214D01*
X2142024Y-1730214D02*
X2151548Y-1749262D01*
X2151548Y-1749262D02*
X2151548Y-1796881D01*
X2151548Y-1796881D02*
X2142024Y-1815928D01*
X2142024Y-1815928D02*
X2132500Y-1825452D01*
X2132500Y-1825452D02*
X2113453Y-1834976D01*
X2113453Y-1834976D02*
X2065833Y-1834976D01*
X2065833Y-1834976D02*
X2046786Y-1825452D01*
X2046786Y-1825452D02*
X2037262Y-1815928D01*
X2218214Y-1634976D02*
X2351548Y-1634976D01*
X2351548Y-1634976D02*
X2265833Y-1834976D01*
X2418214Y-1634976D02*
X2418214Y-1673071D01*
X2494405Y-1634976D02*
X2494405Y-1673071D01*
X2757262Y-1911167D02*
X2747738Y-1901643D01*
X2747738Y-1901643D02*
X2728691Y-1873071D01*
X2728691Y-1873071D02*
X2719167Y-1854024D01*
X2719167Y-1854024D02*
X2709643Y-1825452D01*
X2709643Y-1825452D02*
X2700119Y-1777833D01*
X2700119Y-1777833D02*
X2700119Y-1739738D01*
X2700119Y-1739738D02*
X2709643Y-1692119D01*
X2709643Y-1692119D02*
X2719167Y-1663548D01*
X2719167Y-1663548D02*
X2728691Y-1644500D01*
X2728691Y-1644500D02*
X2747738Y-1615928D01*
X2747738Y-1615928D02*
X2757262Y-1606405D01*
X2938214Y-1834976D02*
X2823929Y-1834976D01*
X2881071Y-1834976D02*
X2881071Y-1634976D01*
X2881071Y-1634976D02*
X2862024Y-1663548D01*
X2862024Y-1663548D02*
X2842976Y-1682595D01*
X2842976Y-1682595D02*
X2823929Y-1692119D01*
X3052500Y-1720690D02*
X3033452Y-1711167D01*
X3033452Y-1711167D02*
X3023929Y-1701643D01*
X3023929Y-1701643D02*
X3014405Y-1682595D01*
X3014405Y-1682595D02*
X3014405Y-1673071D01*
X3014405Y-1673071D02*
X3023929Y-1654024D01*
X3023929Y-1654024D02*
X3033452Y-1644500D01*
X3033452Y-1644500D02*
X3052500Y-1634976D01*
X3052500Y-1634976D02*
X3090595Y-1634976D01*
X3090595Y-1634976D02*
X3109643Y-1644500D01*
X3109643Y-1644500D02*
X3119167Y-1654024D01*
X3119167Y-1654024D02*
X3128691Y-1673071D01*
X3128691Y-1673071D02*
X3128691Y-1682595D01*
X3128691Y-1682595D02*
X3119167Y-1701643D01*
X3119167Y-1701643D02*
X3109643Y-1711167D01*
X3109643Y-1711167D02*
X3090595Y-1720690D01*
X3090595Y-1720690D02*
X3052500Y-1720690D01*
X3052500Y-1720690D02*
X3033452Y-1730214D01*
X3033452Y-1730214D02*
X3023929Y-1739738D01*
X3023929Y-1739738D02*
X3014405Y-1758786D01*
X3014405Y-1758786D02*
X3014405Y-1796881D01*
X3014405Y-1796881D02*
X3023929Y-1815928D01*
X3023929Y-1815928D02*
X3033452Y-1825452D01*
X3033452Y-1825452D02*
X3052500Y-1834976D01*
X3052500Y-1834976D02*
X3090595Y-1834976D01*
X3090595Y-1834976D02*
X3109643Y-1825452D01*
X3109643Y-1825452D02*
X3119167Y-1815928D01*
X3119167Y-1815928D02*
X3128691Y-1796881D01*
X3128691Y-1796881D02*
X3128691Y-1758786D01*
X3128691Y-1758786D02*
X3119167Y-1739738D01*
X3119167Y-1739738D02*
X3109643Y-1730214D01*
X3109643Y-1730214D02*
X3090595Y-1720690D01*
X3334405Y-1834976D02*
X3334405Y-1634976D01*
X3420119Y-1834976D02*
X3420119Y-1730214D01*
X3420119Y-1730214D02*
X3410595Y-1711167D01*
X3410595Y-1711167D02*
X3391548Y-1701643D01*
X3391548Y-1701643D02*
X3362976Y-1701643D01*
X3362976Y-1701643D02*
X3343929Y-1711167D01*
X3343929Y-1711167D02*
X3334405Y-1720690D01*
X3543929Y-1834976D02*
X3524881Y-1825452D01*
X3524881Y-1825452D02*
X3515357Y-1815928D01*
X3515357Y-1815928D02*
X3505833Y-1796881D01*
X3505833Y-1796881D02*
X3505833Y-1739738D01*
X3505833Y-1739738D02*
X3515357Y-1720690D01*
X3515357Y-1720690D02*
X3524881Y-1711167D01*
X3524881Y-1711167D02*
X3543929Y-1701643D01*
X3543929Y-1701643D02*
X3572500Y-1701643D01*
X3572500Y-1701643D02*
X3591548Y-1711167D01*
X3591548Y-1711167D02*
X3601072Y-1720690D01*
X3601072Y-1720690D02*
X3610595Y-1739738D01*
X3610595Y-1739738D02*
X3610595Y-1796881D01*
X3610595Y-1796881D02*
X3601072Y-1815928D01*
X3601072Y-1815928D02*
X3591548Y-1825452D01*
X3591548Y-1825452D02*
X3572500Y-1834976D01*
X3572500Y-1834976D02*
X3543929Y-1834976D01*
X3724881Y-1834976D02*
X3705833Y-1825452D01*
X3705833Y-1825452D02*
X3696310Y-1806405D01*
X3696310Y-1806405D02*
X3696310Y-1634976D01*
X3877262Y-1825452D02*
X3858214Y-1834976D01*
X3858214Y-1834976D02*
X3820119Y-1834976D01*
X3820119Y-1834976D02*
X3801072Y-1825452D01*
X3801072Y-1825452D02*
X3791548Y-1806405D01*
X3791548Y-1806405D02*
X3791548Y-1730214D01*
X3791548Y-1730214D02*
X3801072Y-1711167D01*
X3801072Y-1711167D02*
X3820119Y-1701643D01*
X3820119Y-1701643D02*
X3858214Y-1701643D01*
X3858214Y-1701643D02*
X3877262Y-1711167D01*
X3877262Y-1711167D02*
X3886786Y-1730214D01*
X3886786Y-1730214D02*
X3886786Y-1749262D01*
X3886786Y-1749262D02*
X3791548Y-1768309D01*
X3962976Y-1825452D02*
X3982024Y-1834976D01*
X3982024Y-1834976D02*
X4020119Y-1834976D01*
X4020119Y-1834976D02*
X4039167Y-1825452D01*
X4039167Y-1825452D02*
X4048691Y-1806405D01*
X4048691Y-1806405D02*
X4048691Y-1796881D01*
X4048691Y-1796881D02*
X4039167Y-1777833D01*
X4039167Y-1777833D02*
X4020119Y-1768309D01*
X4020119Y-1768309D02*
X3991548Y-1768309D01*
X3991548Y-1768309D02*
X3972500Y-1758786D01*
X3972500Y-1758786D02*
X3962976Y-1739738D01*
X3962976Y-1739738D02*
X3962976Y-1730214D01*
X3962976Y-1730214D02*
X3972500Y-1711167D01*
X3972500Y-1711167D02*
X3991548Y-1701643D01*
X3991548Y-1701643D02*
X4020119Y-1701643D01*
X4020119Y-1701643D02*
X4039167Y-1711167D01*
X4115357Y-1911167D02*
X4124881Y-1901643D01*
X4124881Y-1901643D02*
X4143929Y-1873071D01*
X4143929Y-1873071D02*
X4153453Y-1854024D01*
X4153453Y-1854024D02*
X4162976Y-1825452D01*
X4162976Y-1825452D02*
X4172500Y-1777833D01*
X4172500Y-1777833D02*
X4172500Y-1739738D01*
X4172500Y-1739738D02*
X4162976Y-1692119D01*
X4162976Y-1692119D02*
X4153453Y-1663548D01*
X4153453Y-1663548D02*
X4143929Y-1644500D01*
X4143929Y-1644500D02*
X4124881Y-1615928D01*
X4124881Y-1615928D02*
X4115357Y-1606405D01*
D14*
X-757500Y-1975500D02*
X-757500Y-2075500D01*
X-807500Y-2025500D02*
X-707500Y-2025500D01*
D11*
X-355119Y-2098976D02*
X-469405Y-2098976D01*
X-412262Y-2098976D02*
X-412262Y-1898976D01*
X-412262Y-1898976D02*
X-431309Y-1927548D01*
X-431309Y-1927548D02*
X-450357Y-1946595D01*
X-450357Y-1946595D02*
X-469405Y-1956119D01*
X-269405Y-2079928D02*
X-259881Y-2089452D01*
X-259881Y-2089452D02*
X-269405Y-2098976D01*
X-269405Y-2098976D02*
X-278929Y-2089452D01*
X-278929Y-2089452D02*
X-269405Y-2079928D01*
X-269405Y-2079928D02*
X-269405Y-2098976D01*
X-136071Y-1898976D02*
X-117024Y-1898976D01*
X-117024Y-1898976D02*
X-97976Y-1908500D01*
X-97976Y-1908500D02*
X-88452Y-1918024D01*
X-88452Y-1918024D02*
X-78929Y-1937071D01*
X-78929Y-1937071D02*
X-69405Y-1975167D01*
X-69405Y-1975167D02*
X-69405Y-2022786D01*
X-69405Y-2022786D02*
X-78929Y-2060881D01*
X-78929Y-2060881D02*
X-88452Y-2079928D01*
X-88452Y-2079928D02*
X-97976Y-2089452D01*
X-97976Y-2089452D02*
X-117024Y-2098976D01*
X-117024Y-2098976D02*
X-136071Y-2098976D01*
X-136071Y-2098976D02*
X-155119Y-2089452D01*
X-155119Y-2089452D02*
X-164643Y-2079928D01*
X-164643Y-2079928D02*
X-174167Y-2060881D01*
X-174167Y-2060881D02*
X-183690Y-2022786D01*
X-183690Y-2022786D02*
X-183690Y-1975167D01*
X-183690Y-1975167D02*
X-174167Y-1937071D01*
X-174167Y-1937071D02*
X-164643Y-1918024D01*
X-164643Y-1918024D02*
X-155119Y-1908500D01*
X-155119Y-1908500D02*
X-136071Y-1898976D01*
X54405Y-1898976D02*
X73452Y-1898976D01*
X73452Y-1898976D02*
X92500Y-1908500D01*
X92500Y-1908500D02*
X102024Y-1918024D01*
X102024Y-1918024D02*
X111548Y-1937071D01*
X111548Y-1937071D02*
X121071Y-1975167D01*
X121071Y-1975167D02*
X121071Y-2022786D01*
X121071Y-2022786D02*
X111548Y-2060881D01*
X111548Y-2060881D02*
X102024Y-2079928D01*
X102024Y-2079928D02*
X92500Y-2089452D01*
X92500Y-2089452D02*
X73452Y-2098976D01*
X73452Y-2098976D02*
X54405Y-2098976D01*
X54405Y-2098976D02*
X35357Y-2089452D01*
X35357Y-2089452D02*
X25833Y-2079928D01*
X25833Y-2079928D02*
X16309Y-2060881D01*
X16309Y-2060881D02*
X6786Y-2022786D01*
X6786Y-2022786D02*
X6786Y-1975167D01*
X6786Y-1975167D02*
X16309Y-1937071D01*
X16309Y-1937071D02*
X25833Y-1918024D01*
X25833Y-1918024D02*
X35357Y-1908500D01*
X35357Y-1908500D02*
X54405Y-1898976D01*
X244881Y-1898976D02*
X263929Y-1898976D01*
X263929Y-1898976D02*
X282976Y-1908500D01*
X282976Y-1908500D02*
X292500Y-1918024D01*
X292500Y-1918024D02*
X302024Y-1937071D01*
X302024Y-1937071D02*
X311548Y-1975167D01*
X311548Y-1975167D02*
X311548Y-2022786D01*
X311548Y-2022786D02*
X302024Y-2060881D01*
X302024Y-2060881D02*
X292500Y-2079928D01*
X292500Y-2079928D02*
X282976Y-2089452D01*
X282976Y-2089452D02*
X263929Y-2098976D01*
X263929Y-2098976D02*
X244881Y-2098976D01*
X244881Y-2098976D02*
X225833Y-2089452D01*
X225833Y-2089452D02*
X216309Y-2079928D01*
X216309Y-2079928D02*
X206786Y-2060881D01*
X206786Y-2060881D02*
X197262Y-2022786D01*
X197262Y-2022786D02*
X197262Y-1975167D01*
X197262Y-1975167D02*
X206786Y-1937071D01*
X206786Y-1937071D02*
X216309Y-1918024D01*
X216309Y-1918024D02*
X225833Y-1908500D01*
X225833Y-1908500D02*
X244881Y-1898976D01*
X397262Y-2098976D02*
X397262Y-1965643D01*
X397262Y-1984690D02*
X406786Y-1975167D01*
X406786Y-1975167D02*
X425833Y-1965643D01*
X425833Y-1965643D02*
X454405Y-1965643D01*
X454405Y-1965643D02*
X473452Y-1975167D01*
X473452Y-1975167D02*
X482976Y-1994214D01*
X482976Y-1994214D02*
X482976Y-2098976D01*
X482976Y-1994214D02*
X492500Y-1975167D01*
X492500Y-1975167D02*
X511548Y-1965643D01*
X511548Y-1965643D02*
X540119Y-1965643D01*
X540119Y-1965643D02*
X559167Y-1975167D01*
X559167Y-1975167D02*
X568691Y-1994214D01*
X568691Y-1994214D02*
X568691Y-2098976D01*
X663929Y-2098976D02*
X663929Y-1965643D01*
X663929Y-1984690D02*
X673452Y-1975167D01*
X673452Y-1975167D02*
X692500Y-1965643D01*
X692500Y-1965643D02*
X721071Y-1965643D01*
X721071Y-1965643D02*
X740119Y-1975167D01*
X740119Y-1975167D02*
X749643Y-1994214D01*
X749643Y-1994214D02*
X749643Y-2098976D01*
X749643Y-1994214D02*
X759167Y-1975167D01*
X759167Y-1975167D02*
X778214Y-1965643D01*
X778214Y-1965643D02*
X806786Y-1965643D01*
X806786Y-1965643D02*
X825833Y-1975167D01*
X825833Y-1975167D02*
X835357Y-1994214D01*
X835357Y-1994214D02*
X835357Y-2098976D01*
X1193452Y-1889452D02*
X1022024Y-2146595D01*
X1418214Y-1898976D02*
X1437262Y-1898976D01*
X1437262Y-1898976D02*
X1456310Y-1908500D01*
X1456310Y-1908500D02*
X1465833Y-1918024D01*
X1465833Y-1918024D02*
X1475357Y-1937071D01*
X1475357Y-1937071D02*
X1484881Y-1975167D01*
X1484881Y-1975167D02*
X1484881Y-2022786D01*
X1484881Y-2022786D02*
X1475357Y-2060881D01*
X1475357Y-2060881D02*
X1465833Y-2079928D01*
X1465833Y-2079928D02*
X1456310Y-2089452D01*
X1456310Y-2089452D02*
X1437262Y-2098976D01*
X1437262Y-2098976D02*
X1418214Y-2098976D01*
X1418214Y-2098976D02*
X1399167Y-2089452D01*
X1399167Y-2089452D02*
X1389643Y-2079928D01*
X1389643Y-2079928D02*
X1380119Y-2060881D01*
X1380119Y-2060881D02*
X1370595Y-2022786D01*
X1370595Y-2022786D02*
X1370595Y-1975167D01*
X1370595Y-1975167D02*
X1380119Y-1937071D01*
X1380119Y-1937071D02*
X1389643Y-1918024D01*
X1389643Y-1918024D02*
X1399167Y-1908500D01*
X1399167Y-1908500D02*
X1418214Y-1898976D01*
X1570595Y-2079928D02*
X1580119Y-2089452D01*
X1580119Y-2089452D02*
X1570595Y-2098976D01*
X1570595Y-2098976D02*
X1561071Y-2089452D01*
X1561071Y-2089452D02*
X1570595Y-2079928D01*
X1570595Y-2079928D02*
X1570595Y-2098976D01*
X1703929Y-1898976D02*
X1722976Y-1898976D01*
X1722976Y-1898976D02*
X1742024Y-1908500D01*
X1742024Y-1908500D02*
X1751548Y-1918024D01*
X1751548Y-1918024D02*
X1761071Y-1937071D01*
X1761071Y-1937071D02*
X1770595Y-1975167D01*
X1770595Y-1975167D02*
X1770595Y-2022786D01*
X1770595Y-2022786D02*
X1761071Y-2060881D01*
X1761071Y-2060881D02*
X1751548Y-2079928D01*
X1751548Y-2079928D02*
X1742024Y-2089452D01*
X1742024Y-2089452D02*
X1722976Y-2098976D01*
X1722976Y-2098976D02*
X1703929Y-2098976D01*
X1703929Y-2098976D02*
X1684881Y-2089452D01*
X1684881Y-2089452D02*
X1675357Y-2079928D01*
X1675357Y-2079928D02*
X1665833Y-2060881D01*
X1665833Y-2060881D02*
X1656310Y-2022786D01*
X1656310Y-2022786D02*
X1656310Y-1975167D01*
X1656310Y-1975167D02*
X1665833Y-1937071D01*
X1665833Y-1937071D02*
X1675357Y-1918024D01*
X1675357Y-1918024D02*
X1684881Y-1908500D01*
X1684881Y-1908500D02*
X1703929Y-1898976D01*
X1837262Y-1898976D02*
X1961071Y-1898976D01*
X1961071Y-1898976D02*
X1894405Y-1975167D01*
X1894405Y-1975167D02*
X1922976Y-1975167D01*
X1922976Y-1975167D02*
X1942024Y-1984690D01*
X1942024Y-1984690D02*
X1951548Y-1994214D01*
X1951548Y-1994214D02*
X1961071Y-2013262D01*
X1961071Y-2013262D02*
X1961071Y-2060881D01*
X1961071Y-2060881D02*
X1951548Y-2079928D01*
X1951548Y-2079928D02*
X1942024Y-2089452D01*
X1942024Y-2089452D02*
X1922976Y-2098976D01*
X1922976Y-2098976D02*
X1865833Y-2098976D01*
X1865833Y-2098976D02*
X1846786Y-2089452D01*
X1846786Y-2089452D02*
X1837262Y-2079928D01*
X2056310Y-2098976D02*
X2094405Y-2098976D01*
X2094405Y-2098976D02*
X2113453Y-2089452D01*
X2113453Y-2089452D02*
X2122976Y-2079928D01*
X2122976Y-2079928D02*
X2142024Y-2051357D01*
X2142024Y-2051357D02*
X2151548Y-2013262D01*
X2151548Y-2013262D02*
X2151548Y-1937071D01*
X2151548Y-1937071D02*
X2142024Y-1918024D01*
X2142024Y-1918024D02*
X2132500Y-1908500D01*
X2132500Y-1908500D02*
X2113453Y-1898976D01*
X2113453Y-1898976D02*
X2075357Y-1898976D01*
X2075357Y-1898976D02*
X2056310Y-1908500D01*
X2056310Y-1908500D02*
X2046786Y-1918024D01*
X2046786Y-1918024D02*
X2037262Y-1937071D01*
X2037262Y-1937071D02*
X2037262Y-1984690D01*
X2037262Y-1984690D02*
X2046786Y-2003738D01*
X2046786Y-2003738D02*
X2056310Y-2013262D01*
X2056310Y-2013262D02*
X2075357Y-2022786D01*
X2075357Y-2022786D02*
X2113453Y-2022786D01*
X2113453Y-2022786D02*
X2132500Y-2013262D01*
X2132500Y-2013262D02*
X2142024Y-2003738D01*
X2142024Y-2003738D02*
X2151548Y-1984690D01*
X2322976Y-1965643D02*
X2322976Y-2098976D01*
X2275357Y-1889452D02*
X2227738Y-2032309D01*
X2227738Y-2032309D02*
X2351548Y-2032309D01*
X2418214Y-1898976D02*
X2418214Y-1937071D01*
X2494405Y-1898976D02*
X2494405Y-1937071D01*
X2757262Y-2175167D02*
X2747738Y-2165643D01*
X2747738Y-2165643D02*
X2728691Y-2137071D01*
X2728691Y-2137071D02*
X2719167Y-2118024D01*
X2719167Y-2118024D02*
X2709643Y-2089452D01*
X2709643Y-2089452D02*
X2700119Y-2041833D01*
X2700119Y-2041833D02*
X2700119Y-2003738D01*
X2700119Y-2003738D02*
X2709643Y-1956119D01*
X2709643Y-1956119D02*
X2719167Y-1927548D01*
X2719167Y-1927548D02*
X2728691Y-1908500D01*
X2728691Y-1908500D02*
X2747738Y-1879928D01*
X2747738Y-1879928D02*
X2757262Y-1870405D01*
X2928691Y-1898976D02*
X2833452Y-1898976D01*
X2833452Y-1898976D02*
X2823929Y-1994214D01*
X2823929Y-1994214D02*
X2833452Y-1984690D01*
X2833452Y-1984690D02*
X2852500Y-1975167D01*
X2852500Y-1975167D02*
X2900119Y-1975167D01*
X2900119Y-1975167D02*
X2919167Y-1984690D01*
X2919167Y-1984690D02*
X2928691Y-1994214D01*
X2928691Y-1994214D02*
X2938214Y-2013262D01*
X2938214Y-2013262D02*
X2938214Y-2060881D01*
X2938214Y-2060881D02*
X2928691Y-2079928D01*
X2928691Y-2079928D02*
X2919167Y-2089452D01*
X2919167Y-2089452D02*
X2900119Y-2098976D01*
X2900119Y-2098976D02*
X2852500Y-2098976D01*
X2852500Y-2098976D02*
X2833452Y-2089452D01*
X2833452Y-2089452D02*
X2823929Y-2079928D01*
X3143929Y-2098976D02*
X3143929Y-1898976D01*
X3229643Y-2098976D02*
X3229643Y-1994214D01*
X3229643Y-1994214D02*
X3220119Y-1975167D01*
X3220119Y-1975167D02*
X3201072Y-1965643D01*
X3201072Y-1965643D02*
X3172500Y-1965643D01*
X3172500Y-1965643D02*
X3153452Y-1975167D01*
X3153452Y-1975167D02*
X3143929Y-1984690D01*
X3353452Y-2098976D02*
X3334405Y-2089452D01*
X3334405Y-2089452D02*
X3324881Y-2079928D01*
X3324881Y-2079928D02*
X3315357Y-2060881D01*
X3315357Y-2060881D02*
X3315357Y-2003738D01*
X3315357Y-2003738D02*
X3324881Y-1984690D01*
X3324881Y-1984690D02*
X3334405Y-1975167D01*
X3334405Y-1975167D02*
X3353452Y-1965643D01*
X3353452Y-1965643D02*
X3382024Y-1965643D01*
X3382024Y-1965643D02*
X3401072Y-1975167D01*
X3401072Y-1975167D02*
X3410595Y-1984690D01*
X3410595Y-1984690D02*
X3420119Y-2003738D01*
X3420119Y-2003738D02*
X3420119Y-2060881D01*
X3420119Y-2060881D02*
X3410595Y-2079928D01*
X3410595Y-2079928D02*
X3401072Y-2089452D01*
X3401072Y-2089452D02*
X3382024Y-2098976D01*
X3382024Y-2098976D02*
X3353452Y-2098976D01*
X3534405Y-2098976D02*
X3515357Y-2089452D01*
X3515357Y-2089452D02*
X3505833Y-2070405D01*
X3505833Y-2070405D02*
X3505833Y-1898976D01*
X3686786Y-2089452D02*
X3667738Y-2098976D01*
X3667738Y-2098976D02*
X3629643Y-2098976D01*
X3629643Y-2098976D02*
X3610595Y-2089452D01*
X3610595Y-2089452D02*
X3601072Y-2070405D01*
X3601072Y-2070405D02*
X3601072Y-1994214D01*
X3601072Y-1994214D02*
X3610595Y-1975167D01*
X3610595Y-1975167D02*
X3629643Y-1965643D01*
X3629643Y-1965643D02*
X3667738Y-1965643D01*
X3667738Y-1965643D02*
X3686786Y-1975167D01*
X3686786Y-1975167D02*
X3696310Y-1994214D01*
X3696310Y-1994214D02*
X3696310Y-2013262D01*
X3696310Y-2013262D02*
X3601072Y-2032309D01*
X3772500Y-2089452D02*
X3791548Y-2098976D01*
X3791548Y-2098976D02*
X3829643Y-2098976D01*
X3829643Y-2098976D02*
X3848691Y-2089452D01*
X3848691Y-2089452D02*
X3858214Y-2070405D01*
X3858214Y-2070405D02*
X3858214Y-2060881D01*
X3858214Y-2060881D02*
X3848691Y-2041833D01*
X3848691Y-2041833D02*
X3829643Y-2032309D01*
X3829643Y-2032309D02*
X3801072Y-2032309D01*
X3801072Y-2032309D02*
X3782024Y-2022786D01*
X3782024Y-2022786D02*
X3772500Y-2003738D01*
X3772500Y-2003738D02*
X3772500Y-1994214D01*
X3772500Y-1994214D02*
X3782024Y-1975167D01*
X3782024Y-1975167D02*
X3801072Y-1965643D01*
X3801072Y-1965643D02*
X3829643Y-1965643D01*
X3829643Y-1965643D02*
X3848691Y-1975167D01*
X3924881Y-2175167D02*
X3934405Y-2165643D01*
X3934405Y-2165643D02*
X3953453Y-2137071D01*
X3953453Y-2137071D02*
X3962976Y-2118024D01*
X3962976Y-2118024D02*
X3972500Y-2089452D01*
X3972500Y-2089452D02*
X3982024Y-2041833D01*
X3982024Y-2041833D02*
X3982024Y-2003738D01*
X3982024Y-2003738D02*
X3972500Y-1956119D01*
X3972500Y-1956119D02*
X3962976Y-1927548D01*
X3962976Y-1927548D02*
X3953453Y-1908500D01*
X3953453Y-1908500D02*
X3934405Y-1879928D01*
X3934405Y-1879928D02*
X3924881Y-1870405D01*
D15*
X-723494Y-2328116D02*
X-723494Y-2250885D01*
X-800725Y-2250885D01*
X-800725Y-2328116D01*
X-723494Y-2328116D01*
D11*
X-355119Y-2362976D02*
X-469405Y-2362976D01*
X-412262Y-2362976D02*
X-412262Y-2162976D01*
X-412262Y-2162976D02*
X-431309Y-2191548D01*
X-431309Y-2191548D02*
X-450357Y-2210595D01*
X-450357Y-2210595D02*
X-469405Y-2220119D01*
X-269405Y-2343929D02*
X-259881Y-2353452D01*
X-259881Y-2353452D02*
X-269405Y-2362976D01*
X-269405Y-2362976D02*
X-278929Y-2353452D01*
X-278929Y-2353452D02*
X-269405Y-2343929D01*
X-269405Y-2343929D02*
X-269405Y-2362976D01*
X-136071Y-2162976D02*
X-117024Y-2162976D01*
X-117024Y-2162976D02*
X-97976Y-2172500D01*
X-97976Y-2172500D02*
X-88452Y-2182024D01*
X-88452Y-2182024D02*
X-78929Y-2201071D01*
X-78929Y-2201071D02*
X-69405Y-2239167D01*
X-69405Y-2239167D02*
X-69405Y-2286786D01*
X-69405Y-2286786D02*
X-78929Y-2324881D01*
X-78929Y-2324881D02*
X-88452Y-2343929D01*
X-88452Y-2343929D02*
X-97976Y-2353452D01*
X-97976Y-2353452D02*
X-117024Y-2362976D01*
X-117024Y-2362976D02*
X-136071Y-2362976D01*
X-136071Y-2362976D02*
X-155119Y-2353452D01*
X-155119Y-2353452D02*
X-164643Y-2343929D01*
X-164643Y-2343929D02*
X-174167Y-2324881D01*
X-174167Y-2324881D02*
X-183690Y-2286786D01*
X-183690Y-2286786D02*
X-183690Y-2239167D01*
X-183690Y-2239167D02*
X-174167Y-2201071D01*
X-174167Y-2201071D02*
X-164643Y-2182024D01*
X-164643Y-2182024D02*
X-155119Y-2172500D01*
X-155119Y-2172500D02*
X-136071Y-2162976D01*
X25833Y-2362976D02*
X63928Y-2362976D01*
X63928Y-2362976D02*
X82976Y-2353452D01*
X82976Y-2353452D02*
X92500Y-2343929D01*
X92500Y-2343929D02*
X111548Y-2315357D01*
X111548Y-2315357D02*
X121071Y-2277262D01*
X121071Y-2277262D02*
X121071Y-2201071D01*
X121071Y-2201071D02*
X111548Y-2182024D01*
X111548Y-2182024D02*
X102024Y-2172500D01*
X102024Y-2172500D02*
X82976Y-2162976D01*
X82976Y-2162976D02*
X44881Y-2162976D01*
X44881Y-2162976D02*
X25833Y-2172500D01*
X25833Y-2172500D02*
X16309Y-2182024D01*
X16309Y-2182024D02*
X6786Y-2201071D01*
X6786Y-2201071D02*
X6786Y-2248690D01*
X6786Y-2248690D02*
X16309Y-2267738D01*
X16309Y-2267738D02*
X25833Y-2277262D01*
X25833Y-2277262D02*
X44881Y-2286786D01*
X44881Y-2286786D02*
X82976Y-2286786D01*
X82976Y-2286786D02*
X102024Y-2277262D01*
X102024Y-2277262D02*
X111548Y-2267738D01*
X111548Y-2267738D02*
X121071Y-2248690D01*
X197262Y-2182024D02*
X206786Y-2172500D01*
X206786Y-2172500D02*
X225833Y-2162976D01*
X225833Y-2162976D02*
X273452Y-2162976D01*
X273452Y-2162976D02*
X292500Y-2172500D01*
X292500Y-2172500D02*
X302024Y-2182024D01*
X302024Y-2182024D02*
X311548Y-2201071D01*
X311548Y-2201071D02*
X311548Y-2220119D01*
X311548Y-2220119D02*
X302024Y-2248690D01*
X302024Y-2248690D02*
X187738Y-2362976D01*
X187738Y-2362976D02*
X311548Y-2362976D01*
X397262Y-2362976D02*
X397262Y-2229643D01*
X397262Y-2248690D02*
X406786Y-2239167D01*
X406786Y-2239167D02*
X425833Y-2229643D01*
X425833Y-2229643D02*
X454405Y-2229643D01*
X454405Y-2229643D02*
X473452Y-2239167D01*
X473452Y-2239167D02*
X482976Y-2258214D01*
X482976Y-2258214D02*
X482976Y-2362976D01*
X482976Y-2258214D02*
X492500Y-2239167D01*
X492500Y-2239167D02*
X511548Y-2229643D01*
X511548Y-2229643D02*
X540119Y-2229643D01*
X540119Y-2229643D02*
X559167Y-2239167D01*
X559167Y-2239167D02*
X568691Y-2258214D01*
X568691Y-2258214D02*
X568691Y-2362976D01*
X663929Y-2362976D02*
X663929Y-2229643D01*
X663929Y-2248690D02*
X673452Y-2239167D01*
X673452Y-2239167D02*
X692500Y-2229643D01*
X692500Y-2229643D02*
X721071Y-2229643D01*
X721071Y-2229643D02*
X740119Y-2239167D01*
X740119Y-2239167D02*
X749643Y-2258214D01*
X749643Y-2258214D02*
X749643Y-2362976D01*
X749643Y-2258214D02*
X759167Y-2239167D01*
X759167Y-2239167D02*
X778214Y-2229643D01*
X778214Y-2229643D02*
X806786Y-2229643D01*
X806786Y-2229643D02*
X825833Y-2239167D01*
X825833Y-2239167D02*
X835357Y-2258214D01*
X835357Y-2258214D02*
X835357Y-2362976D01*
X1193452Y-2153452D02*
X1022024Y-2410595D01*
X1418214Y-2162976D02*
X1437262Y-2162976D01*
X1437262Y-2162976D02*
X1456310Y-2172500D01*
X1456310Y-2172500D02*
X1465833Y-2182024D01*
X1465833Y-2182024D02*
X1475357Y-2201071D01*
X1475357Y-2201071D02*
X1484881Y-2239167D01*
X1484881Y-2239167D02*
X1484881Y-2286786D01*
X1484881Y-2286786D02*
X1475357Y-2324881D01*
X1475357Y-2324881D02*
X1465833Y-2343929D01*
X1465833Y-2343929D02*
X1456310Y-2353452D01*
X1456310Y-2353452D02*
X1437262Y-2362976D01*
X1437262Y-2362976D02*
X1418214Y-2362976D01*
X1418214Y-2362976D02*
X1399167Y-2353452D01*
X1399167Y-2353452D02*
X1389643Y-2343929D01*
X1389643Y-2343929D02*
X1380119Y-2324881D01*
X1380119Y-2324881D02*
X1370595Y-2286786D01*
X1370595Y-2286786D02*
X1370595Y-2239167D01*
X1370595Y-2239167D02*
X1380119Y-2201071D01*
X1380119Y-2201071D02*
X1389643Y-2182024D01*
X1389643Y-2182024D02*
X1399167Y-2172500D01*
X1399167Y-2172500D02*
X1418214Y-2162976D01*
X1570595Y-2343929D02*
X1580119Y-2353452D01*
X1580119Y-2353452D02*
X1570595Y-2362976D01*
X1570595Y-2362976D02*
X1561071Y-2353452D01*
X1561071Y-2353452D02*
X1570595Y-2343929D01*
X1570595Y-2343929D02*
X1570595Y-2362976D01*
X1703929Y-2162976D02*
X1722976Y-2162976D01*
X1722976Y-2162976D02*
X1742024Y-2172500D01*
X1742024Y-2172500D02*
X1751548Y-2182024D01*
X1751548Y-2182024D02*
X1761071Y-2201071D01*
X1761071Y-2201071D02*
X1770595Y-2239167D01*
X1770595Y-2239167D02*
X1770595Y-2286786D01*
X1770595Y-2286786D02*
X1761071Y-2324881D01*
X1761071Y-2324881D02*
X1751548Y-2343929D01*
X1751548Y-2343929D02*
X1742024Y-2353452D01*
X1742024Y-2353452D02*
X1722976Y-2362976D01*
X1722976Y-2362976D02*
X1703929Y-2362976D01*
X1703929Y-2362976D02*
X1684881Y-2353452D01*
X1684881Y-2353452D02*
X1675357Y-2343929D01*
X1675357Y-2343929D02*
X1665833Y-2324881D01*
X1665833Y-2324881D02*
X1656310Y-2286786D01*
X1656310Y-2286786D02*
X1656310Y-2239167D01*
X1656310Y-2239167D02*
X1665833Y-2201071D01*
X1665833Y-2201071D02*
X1675357Y-2182024D01*
X1675357Y-2182024D02*
X1684881Y-2172500D01*
X1684881Y-2172500D02*
X1703929Y-2162976D01*
X1942024Y-2229643D02*
X1942024Y-2362976D01*
X1894405Y-2153452D02*
X1846786Y-2296310D01*
X1846786Y-2296310D02*
X1970595Y-2296310D01*
X2027738Y-2162976D02*
X2151548Y-2162976D01*
X2151548Y-2162976D02*
X2084881Y-2239167D01*
X2084881Y-2239167D02*
X2113453Y-2239167D01*
X2113453Y-2239167D02*
X2132500Y-2248690D01*
X2132500Y-2248690D02*
X2142024Y-2258214D01*
X2142024Y-2258214D02*
X2151548Y-2277262D01*
X2151548Y-2277262D02*
X2151548Y-2324881D01*
X2151548Y-2324881D02*
X2142024Y-2343929D01*
X2142024Y-2343929D02*
X2132500Y-2353452D01*
X2132500Y-2353452D02*
X2113453Y-2362976D01*
X2113453Y-2362976D02*
X2056310Y-2362976D01*
X2056310Y-2362976D02*
X2037262Y-2353452D01*
X2037262Y-2353452D02*
X2027738Y-2343929D01*
X2275357Y-2162976D02*
X2294405Y-2162976D01*
X2294405Y-2162976D02*
X2313453Y-2172500D01*
X2313453Y-2172500D02*
X2322976Y-2182024D01*
X2322976Y-2182024D02*
X2332500Y-2201071D01*
X2332500Y-2201071D02*
X2342024Y-2239167D01*
X2342024Y-2239167D02*
X2342024Y-2286786D01*
X2342024Y-2286786D02*
X2332500Y-2324881D01*
X2332500Y-2324881D02*
X2322976Y-2343929D01*
X2322976Y-2343929D02*
X2313453Y-2353452D01*
X2313453Y-2353452D02*
X2294405Y-2362976D01*
X2294405Y-2362976D02*
X2275357Y-2362976D01*
X2275357Y-2362976D02*
X2256310Y-2353452D01*
X2256310Y-2353452D02*
X2246786Y-2343929D01*
X2246786Y-2343929D02*
X2237262Y-2324881D01*
X2237262Y-2324881D02*
X2227738Y-2286786D01*
X2227738Y-2286786D02*
X2227738Y-2239167D01*
X2227738Y-2239167D02*
X2237262Y-2201071D01*
X2237262Y-2201071D02*
X2246786Y-2182024D01*
X2246786Y-2182024D02*
X2256310Y-2172500D01*
X2256310Y-2172500D02*
X2275357Y-2162976D01*
X2418214Y-2162976D02*
X2418214Y-2201071D01*
X2494405Y-2162976D02*
X2494405Y-2201071D01*
X2757262Y-2439167D02*
X2747738Y-2429643D01*
X2747738Y-2429643D02*
X2728691Y-2401071D01*
X2728691Y-2401071D02*
X2719167Y-2382024D01*
X2719167Y-2382024D02*
X2709643Y-2353452D01*
X2709643Y-2353452D02*
X2700119Y-2305833D01*
X2700119Y-2305833D02*
X2700119Y-2267738D01*
X2700119Y-2267738D02*
X2709643Y-2220119D01*
X2709643Y-2220119D02*
X2719167Y-2191548D01*
X2719167Y-2191548D02*
X2728691Y-2172500D01*
X2728691Y-2172500D02*
X2747738Y-2143929D01*
X2747738Y-2143929D02*
X2757262Y-2134405D01*
X2823929Y-2182024D02*
X2833452Y-2172500D01*
X2833452Y-2172500D02*
X2852500Y-2162976D01*
X2852500Y-2162976D02*
X2900119Y-2162976D01*
X2900119Y-2162976D02*
X2919167Y-2172500D01*
X2919167Y-2172500D02*
X2928691Y-2182024D01*
X2928691Y-2182024D02*
X2938214Y-2201071D01*
X2938214Y-2201071D02*
X2938214Y-2220119D01*
X2938214Y-2220119D02*
X2928691Y-2248690D01*
X2928691Y-2248690D02*
X2814405Y-2362976D01*
X2814405Y-2362976D02*
X2938214Y-2362976D01*
X3109643Y-2229643D02*
X3109643Y-2362976D01*
X3062024Y-2153452D02*
X3014405Y-2296310D01*
X3014405Y-2296310D02*
X3138214Y-2296310D01*
X3334405Y-2362976D02*
X3334405Y-2162976D01*
X3420119Y-2362976D02*
X3420119Y-2258214D01*
X3420119Y-2258214D02*
X3410595Y-2239167D01*
X3410595Y-2239167D02*
X3391548Y-2229643D01*
X3391548Y-2229643D02*
X3362976Y-2229643D01*
X3362976Y-2229643D02*
X3343929Y-2239167D01*
X3343929Y-2239167D02*
X3334405Y-2248690D01*
X3543929Y-2362976D02*
X3524881Y-2353452D01*
X3524881Y-2353452D02*
X3515357Y-2343929D01*
X3515357Y-2343929D02*
X3505833Y-2324881D01*
X3505833Y-2324881D02*
X3505833Y-2267738D01*
X3505833Y-2267738D02*
X3515357Y-2248690D01*
X3515357Y-2248690D02*
X3524881Y-2239167D01*
X3524881Y-2239167D02*
X3543929Y-2229643D01*
X3543929Y-2229643D02*
X3572500Y-2229643D01*
X3572500Y-2229643D02*
X3591548Y-2239167D01*
X3591548Y-2239167D02*
X3601072Y-2248690D01*
X3601072Y-2248690D02*
X3610595Y-2267738D01*
X3610595Y-2267738D02*
X3610595Y-2324881D01*
X3610595Y-2324881D02*
X3601072Y-2343929D01*
X3601072Y-2343929D02*
X3591548Y-2353452D01*
X3591548Y-2353452D02*
X3572500Y-2362976D01*
X3572500Y-2362976D02*
X3543929Y-2362976D01*
X3724881Y-2362976D02*
X3705833Y-2353452D01*
X3705833Y-2353452D02*
X3696310Y-2334405D01*
X3696310Y-2334405D02*
X3696310Y-2162976D01*
X3877262Y-2353452D02*
X3858214Y-2362976D01*
X3858214Y-2362976D02*
X3820119Y-2362976D01*
X3820119Y-2362976D02*
X3801072Y-2353452D01*
X3801072Y-2353452D02*
X3791548Y-2334405D01*
X3791548Y-2334405D02*
X3791548Y-2258214D01*
X3791548Y-2258214D02*
X3801072Y-2239167D01*
X3801072Y-2239167D02*
X3820119Y-2229643D01*
X3820119Y-2229643D02*
X3858214Y-2229643D01*
X3858214Y-2229643D02*
X3877262Y-2239167D01*
X3877262Y-2239167D02*
X3886786Y-2258214D01*
X3886786Y-2258214D02*
X3886786Y-2277262D01*
X3886786Y-2277262D02*
X3791548Y-2296310D01*
X3962976Y-2353452D02*
X3982024Y-2362976D01*
X3982024Y-2362976D02*
X4020119Y-2362976D01*
X4020119Y-2362976D02*
X4039167Y-2353452D01*
X4039167Y-2353452D02*
X4048691Y-2334405D01*
X4048691Y-2334405D02*
X4048691Y-2324881D01*
X4048691Y-2324881D02*
X4039167Y-2305833D01*
X4039167Y-2305833D02*
X4020119Y-2296310D01*
X4020119Y-2296310D02*
X3991548Y-2296310D01*
X3991548Y-2296310D02*
X3972500Y-2286786D01*
X3972500Y-2286786D02*
X3962976Y-2267738D01*
X3962976Y-2267738D02*
X3962976Y-2258214D01*
X3962976Y-2258214D02*
X3972500Y-2239167D01*
X3972500Y-2239167D02*
X3991548Y-2229643D01*
X3991548Y-2229643D02*
X4020119Y-2229643D01*
X4020119Y-2229643D02*
X4039167Y-2239167D01*
X4115357Y-2439167D02*
X4124881Y-2429643D01*
X4124881Y-2429643D02*
X4143929Y-2401071D01*
X4143929Y-2401071D02*
X4153453Y-2382024D01*
X4153453Y-2382024D02*
X4162976Y-2353452D01*
X4162976Y-2353452D02*
X4172500Y-2305833D01*
X4172500Y-2305833D02*
X4172500Y-2267738D01*
X4172500Y-2267738D02*
X4162976Y-2220119D01*
X4162976Y-2220119D02*
X4153453Y-2191548D01*
X4153453Y-2191548D02*
X4143929Y-2172500D01*
X4143929Y-2172500D02*
X4124881Y-2143929D01*
X4124881Y-2143929D02*
X4115357Y-2134405D01*
D16*
X-771000Y-2617000D02*
X-707500Y-2553500D01*
X-771000Y-2490000D01*
X-834500Y-2553500D01*
X-771000Y-2617000D01*
D11*
X-355119Y-2626976D02*
X-469405Y-2626976D01*
X-412262Y-2626976D02*
X-412262Y-2426976D01*
X-412262Y-2426976D02*
X-431309Y-2455548D01*
X-431309Y-2455548D02*
X-450357Y-2474595D01*
X-450357Y-2474595D02*
X-469405Y-2484119D01*
X-269405Y-2607929D02*
X-259881Y-2617452D01*
X-259881Y-2617452D02*
X-269405Y-2626976D01*
X-269405Y-2626976D02*
X-278929Y-2617452D01*
X-278929Y-2617452D02*
X-269405Y-2607929D01*
X-269405Y-2607929D02*
X-269405Y-2626976D01*
X-183690Y-2446024D02*
X-174167Y-2436500D01*
X-174167Y-2436500D02*
X-155119Y-2426976D01*
X-155119Y-2426976D02*
X-107500Y-2426976D01*
X-107500Y-2426976D02*
X-88452Y-2436500D01*
X-88452Y-2436500D02*
X-78929Y-2446024D01*
X-78929Y-2446024D02*
X-69405Y-2465071D01*
X-69405Y-2465071D02*
X-69405Y-2484119D01*
X-69405Y-2484119D02*
X-78929Y-2512690D01*
X-78929Y-2512690D02*
X-193214Y-2626976D01*
X-193214Y-2626976D02*
X-69405Y-2626976D01*
X-2738Y-2426976D02*
X130595Y-2426976D01*
X130595Y-2426976D02*
X44881Y-2626976D01*
X244881Y-2426976D02*
X263929Y-2426976D01*
X263929Y-2426976D02*
X282976Y-2436500D01*
X282976Y-2436500D02*
X292500Y-2446024D01*
X292500Y-2446024D02*
X302024Y-2465071D01*
X302024Y-2465071D02*
X311548Y-2503167D01*
X311548Y-2503167D02*
X311548Y-2550786D01*
X311548Y-2550786D02*
X302024Y-2588881D01*
X302024Y-2588881D02*
X292500Y-2607929D01*
X292500Y-2607929D02*
X282976Y-2617452D01*
X282976Y-2617452D02*
X263929Y-2626976D01*
X263929Y-2626976D02*
X244881Y-2626976D01*
X244881Y-2626976D02*
X225833Y-2617452D01*
X225833Y-2617452D02*
X216309Y-2607929D01*
X216309Y-2607929D02*
X206786Y-2588881D01*
X206786Y-2588881D02*
X197262Y-2550786D01*
X197262Y-2550786D02*
X197262Y-2503167D01*
X197262Y-2503167D02*
X206786Y-2465071D01*
X206786Y-2465071D02*
X216309Y-2446024D01*
X216309Y-2446024D02*
X225833Y-2436500D01*
X225833Y-2436500D02*
X244881Y-2426976D01*
X397262Y-2626976D02*
X397262Y-2493643D01*
X397262Y-2512690D02*
X406786Y-2503167D01*
X406786Y-2503167D02*
X425833Y-2493643D01*
X425833Y-2493643D02*
X454405Y-2493643D01*
X454405Y-2493643D02*
X473452Y-2503167D01*
X473452Y-2503167D02*
X482976Y-2522214D01*
X482976Y-2522214D02*
X482976Y-2626976D01*
X482976Y-2522214D02*
X492500Y-2503167D01*
X492500Y-2503167D02*
X511548Y-2493643D01*
X511548Y-2493643D02*
X540119Y-2493643D01*
X540119Y-2493643D02*
X559167Y-2503167D01*
X559167Y-2503167D02*
X568691Y-2522214D01*
X568691Y-2522214D02*
X568691Y-2626976D01*
X663929Y-2626976D02*
X663929Y-2493643D01*
X663929Y-2512690D02*
X673452Y-2503167D01*
X673452Y-2503167D02*
X692500Y-2493643D01*
X692500Y-2493643D02*
X721071Y-2493643D01*
X721071Y-2493643D02*
X740119Y-2503167D01*
X740119Y-2503167D02*
X749643Y-2522214D01*
X749643Y-2522214D02*
X749643Y-2626976D01*
X749643Y-2522214D02*
X759167Y-2503167D01*
X759167Y-2503167D02*
X778214Y-2493643D01*
X778214Y-2493643D02*
X806786Y-2493643D01*
X806786Y-2493643D02*
X825833Y-2503167D01*
X825833Y-2503167D02*
X835357Y-2522214D01*
X835357Y-2522214D02*
X835357Y-2626976D01*
X1193452Y-2417452D02*
X1022024Y-2674595D01*
X1418214Y-2426976D02*
X1437262Y-2426976D01*
X1437262Y-2426976D02*
X1456310Y-2436500D01*
X1456310Y-2436500D02*
X1465833Y-2446024D01*
X1465833Y-2446024D02*
X1475357Y-2465071D01*
X1475357Y-2465071D02*
X1484881Y-2503167D01*
X1484881Y-2503167D02*
X1484881Y-2550786D01*
X1484881Y-2550786D02*
X1475357Y-2588881D01*
X1475357Y-2588881D02*
X1465833Y-2607929D01*
X1465833Y-2607929D02*
X1456310Y-2617452D01*
X1456310Y-2617452D02*
X1437262Y-2626976D01*
X1437262Y-2626976D02*
X1418214Y-2626976D01*
X1418214Y-2626976D02*
X1399167Y-2617452D01*
X1399167Y-2617452D02*
X1389643Y-2607929D01*
X1389643Y-2607929D02*
X1380119Y-2588881D01*
X1380119Y-2588881D02*
X1370595Y-2550786D01*
X1370595Y-2550786D02*
X1370595Y-2503167D01*
X1370595Y-2503167D02*
X1380119Y-2465071D01*
X1380119Y-2465071D02*
X1389643Y-2446024D01*
X1389643Y-2446024D02*
X1399167Y-2436500D01*
X1399167Y-2436500D02*
X1418214Y-2426976D01*
X1570595Y-2607929D02*
X1580119Y-2617452D01*
X1580119Y-2617452D02*
X1570595Y-2626976D01*
X1570595Y-2626976D02*
X1561071Y-2617452D01*
X1561071Y-2617452D02*
X1570595Y-2607929D01*
X1570595Y-2607929D02*
X1570595Y-2626976D01*
X1703929Y-2426976D02*
X1722976Y-2426976D01*
X1722976Y-2426976D02*
X1742024Y-2436500D01*
X1742024Y-2436500D02*
X1751548Y-2446024D01*
X1751548Y-2446024D02*
X1761071Y-2465071D01*
X1761071Y-2465071D02*
X1770595Y-2503167D01*
X1770595Y-2503167D02*
X1770595Y-2550786D01*
X1770595Y-2550786D02*
X1761071Y-2588881D01*
X1761071Y-2588881D02*
X1751548Y-2607929D01*
X1751548Y-2607929D02*
X1742024Y-2617452D01*
X1742024Y-2617452D02*
X1722976Y-2626976D01*
X1722976Y-2626976D02*
X1703929Y-2626976D01*
X1703929Y-2626976D02*
X1684881Y-2617452D01*
X1684881Y-2617452D02*
X1675357Y-2607929D01*
X1675357Y-2607929D02*
X1665833Y-2588881D01*
X1665833Y-2588881D02*
X1656310Y-2550786D01*
X1656310Y-2550786D02*
X1656310Y-2503167D01*
X1656310Y-2503167D02*
X1665833Y-2465071D01*
X1665833Y-2465071D02*
X1675357Y-2446024D01*
X1675357Y-2446024D02*
X1684881Y-2436500D01*
X1684881Y-2436500D02*
X1703929Y-2426976D01*
X1951548Y-2426976D02*
X1856310Y-2426976D01*
X1856310Y-2426976D02*
X1846786Y-2522214D01*
X1846786Y-2522214D02*
X1856310Y-2512690D01*
X1856310Y-2512690D02*
X1875357Y-2503167D01*
X1875357Y-2503167D02*
X1922976Y-2503167D01*
X1922976Y-2503167D02*
X1942024Y-2512690D01*
X1942024Y-2512690D02*
X1951548Y-2522214D01*
X1951548Y-2522214D02*
X1961071Y-2541262D01*
X1961071Y-2541262D02*
X1961071Y-2588881D01*
X1961071Y-2588881D02*
X1951548Y-2607929D01*
X1951548Y-2607929D02*
X1942024Y-2617452D01*
X1942024Y-2617452D02*
X1922976Y-2626976D01*
X1922976Y-2626976D02*
X1875357Y-2626976D01*
X1875357Y-2626976D02*
X1856310Y-2617452D01*
X1856310Y-2617452D02*
X1846786Y-2607929D01*
X2084881Y-2426976D02*
X2103929Y-2426976D01*
X2103929Y-2426976D02*
X2122976Y-2436500D01*
X2122976Y-2436500D02*
X2132500Y-2446024D01*
X2132500Y-2446024D02*
X2142024Y-2465071D01*
X2142024Y-2465071D02*
X2151548Y-2503167D01*
X2151548Y-2503167D02*
X2151548Y-2550786D01*
X2151548Y-2550786D02*
X2142024Y-2588881D01*
X2142024Y-2588881D02*
X2132500Y-2607929D01*
X2132500Y-2607929D02*
X2122976Y-2617452D01*
X2122976Y-2617452D02*
X2103929Y-2626976D01*
X2103929Y-2626976D02*
X2084881Y-2626976D01*
X2084881Y-2626976D02*
X2065833Y-2617452D01*
X2065833Y-2617452D02*
X2056310Y-2607929D01*
X2056310Y-2607929D02*
X2046786Y-2588881D01*
X2046786Y-2588881D02*
X2037262Y-2550786D01*
X2037262Y-2550786D02*
X2037262Y-2503167D01*
X2037262Y-2503167D02*
X2046786Y-2465071D01*
X2046786Y-2465071D02*
X2056310Y-2446024D01*
X2056310Y-2446024D02*
X2065833Y-2436500D01*
X2065833Y-2436500D02*
X2084881Y-2426976D01*
X2275357Y-2426976D02*
X2294405Y-2426976D01*
X2294405Y-2426976D02*
X2313453Y-2436500D01*
X2313453Y-2436500D02*
X2322976Y-2446024D01*
X2322976Y-2446024D02*
X2332500Y-2465071D01*
X2332500Y-2465071D02*
X2342024Y-2503167D01*
X2342024Y-2503167D02*
X2342024Y-2550786D01*
X2342024Y-2550786D02*
X2332500Y-2588881D01*
X2332500Y-2588881D02*
X2322976Y-2607929D01*
X2322976Y-2607929D02*
X2313453Y-2617452D01*
X2313453Y-2617452D02*
X2294405Y-2626976D01*
X2294405Y-2626976D02*
X2275357Y-2626976D01*
X2275357Y-2626976D02*
X2256310Y-2617452D01*
X2256310Y-2617452D02*
X2246786Y-2607929D01*
X2246786Y-2607929D02*
X2237262Y-2588881D01*
X2237262Y-2588881D02*
X2227738Y-2550786D01*
X2227738Y-2550786D02*
X2227738Y-2503167D01*
X2227738Y-2503167D02*
X2237262Y-2465071D01*
X2237262Y-2465071D02*
X2246786Y-2446024D01*
X2246786Y-2446024D02*
X2256310Y-2436500D01*
X2256310Y-2436500D02*
X2275357Y-2426976D01*
X2418214Y-2426976D02*
X2418214Y-2465071D01*
X2494405Y-2426976D02*
X2494405Y-2465071D01*
X2757262Y-2703167D02*
X2747738Y-2693643D01*
X2747738Y-2693643D02*
X2728691Y-2665071D01*
X2728691Y-2665071D02*
X2719167Y-2646024D01*
X2719167Y-2646024D02*
X2709643Y-2617452D01*
X2709643Y-2617452D02*
X2700119Y-2569833D01*
X2700119Y-2569833D02*
X2700119Y-2531738D01*
X2700119Y-2531738D02*
X2709643Y-2484119D01*
X2709643Y-2484119D02*
X2719167Y-2455548D01*
X2719167Y-2455548D02*
X2728691Y-2436500D01*
X2728691Y-2436500D02*
X2747738Y-2407929D01*
X2747738Y-2407929D02*
X2757262Y-2398405D01*
X2919167Y-2493643D02*
X2919167Y-2626976D01*
X2871548Y-2417452D02*
X2823929Y-2560310D01*
X2823929Y-2560310D02*
X2947738Y-2560310D01*
X3143929Y-2626976D02*
X3143929Y-2426976D01*
X3229643Y-2626976D02*
X3229643Y-2522214D01*
X3229643Y-2522214D02*
X3220119Y-2503167D01*
X3220119Y-2503167D02*
X3201072Y-2493643D01*
X3201072Y-2493643D02*
X3172500Y-2493643D01*
X3172500Y-2493643D02*
X3153452Y-2503167D01*
X3153452Y-2503167D02*
X3143929Y-2512690D01*
X3353452Y-2626976D02*
X3334405Y-2617452D01*
X3334405Y-2617452D02*
X3324881Y-2607929D01*
X3324881Y-2607929D02*
X3315357Y-2588881D01*
X3315357Y-2588881D02*
X3315357Y-2531738D01*
X3315357Y-2531738D02*
X3324881Y-2512690D01*
X3324881Y-2512690D02*
X3334405Y-2503167D01*
X3334405Y-2503167D02*
X3353452Y-2493643D01*
X3353452Y-2493643D02*
X3382024Y-2493643D01*
X3382024Y-2493643D02*
X3401072Y-2503167D01*
X3401072Y-2503167D02*
X3410595Y-2512690D01*
X3410595Y-2512690D02*
X3420119Y-2531738D01*
X3420119Y-2531738D02*
X3420119Y-2588881D01*
X3420119Y-2588881D02*
X3410595Y-2607929D01*
X3410595Y-2607929D02*
X3401072Y-2617452D01*
X3401072Y-2617452D02*
X3382024Y-2626976D01*
X3382024Y-2626976D02*
X3353452Y-2626976D01*
X3534405Y-2626976D02*
X3515357Y-2617452D01*
X3515357Y-2617452D02*
X3505833Y-2598405D01*
X3505833Y-2598405D02*
X3505833Y-2426976D01*
X3686786Y-2617452D02*
X3667738Y-2626976D01*
X3667738Y-2626976D02*
X3629643Y-2626976D01*
X3629643Y-2626976D02*
X3610595Y-2617452D01*
X3610595Y-2617452D02*
X3601072Y-2598405D01*
X3601072Y-2598405D02*
X3601072Y-2522214D01*
X3601072Y-2522214D02*
X3610595Y-2503167D01*
X3610595Y-2503167D02*
X3629643Y-2493643D01*
X3629643Y-2493643D02*
X3667738Y-2493643D01*
X3667738Y-2493643D02*
X3686786Y-2503167D01*
X3686786Y-2503167D02*
X3696310Y-2522214D01*
X3696310Y-2522214D02*
X3696310Y-2541262D01*
X3696310Y-2541262D02*
X3601072Y-2560310D01*
X3772500Y-2617452D02*
X3791548Y-2626976D01*
X3791548Y-2626976D02*
X3829643Y-2626976D01*
X3829643Y-2626976D02*
X3848691Y-2617452D01*
X3848691Y-2617452D02*
X3858214Y-2598405D01*
X3858214Y-2598405D02*
X3858214Y-2588881D01*
X3858214Y-2588881D02*
X3848691Y-2569833D01*
X3848691Y-2569833D02*
X3829643Y-2560310D01*
X3829643Y-2560310D02*
X3801072Y-2560310D01*
X3801072Y-2560310D02*
X3782024Y-2550786D01*
X3782024Y-2550786D02*
X3772500Y-2531738D01*
X3772500Y-2531738D02*
X3772500Y-2522214D01*
X3772500Y-2522214D02*
X3782024Y-2503167D01*
X3782024Y-2503167D02*
X3801072Y-2493643D01*
X3801072Y-2493643D02*
X3829643Y-2493643D01*
X3829643Y-2493643D02*
X3848691Y-2503167D01*
X3924881Y-2703167D02*
X3934405Y-2693643D01*
X3934405Y-2693643D02*
X3953453Y-2665071D01*
X3953453Y-2665071D02*
X3962976Y-2646024D01*
X3962976Y-2646024D02*
X3972500Y-2617452D01*
X3972500Y-2617452D02*
X3982024Y-2569833D01*
X3982024Y-2569833D02*
X3982024Y-2531738D01*
X3982024Y-2531738D02*
X3972500Y-2484119D01*
X3972500Y-2484119D02*
X3962976Y-2455548D01*
X3962976Y-2455548D02*
X3953453Y-2436500D01*
X3953453Y-2436500D02*
X3934405Y-2407929D01*
X3934405Y-2407929D02*
X3924881Y-2398405D01*
D10*
X-857500Y-2742500D02*
X-707500Y-2892500D01*
X-707500Y-2742500D02*
X-857500Y-2892500D01*
X-707500Y-2817500D02*
G75*
G03*
X-707500Y-2817500I-75000J0D01*
G01*
D11*
X-355119Y-2890976D02*
X-469405Y-2890976D01*
X-412262Y-2890976D02*
X-412262Y-2690976D01*
X-412262Y-2690976D02*
X-431309Y-2719548D01*
X-431309Y-2719548D02*
X-450357Y-2738595D01*
X-450357Y-2738595D02*
X-469405Y-2748119D01*
X-269405Y-2871928D02*
X-259881Y-2881452D01*
X-259881Y-2881452D02*
X-269405Y-2890976D01*
X-269405Y-2890976D02*
X-278929Y-2881452D01*
X-278929Y-2881452D02*
X-269405Y-2871928D01*
X-269405Y-2871928D02*
X-269405Y-2890976D01*
X-78929Y-2690976D02*
X-174167Y-2690976D01*
X-174167Y-2690976D02*
X-183690Y-2786214D01*
X-183690Y-2786214D02*
X-174167Y-2776690D01*
X-174167Y-2776690D02*
X-155119Y-2767167D01*
X-155119Y-2767167D02*
X-107500Y-2767167D01*
X-107500Y-2767167D02*
X-88452Y-2776690D01*
X-88452Y-2776690D02*
X-78929Y-2786214D01*
X-78929Y-2786214D02*
X-69405Y-2805262D01*
X-69405Y-2805262D02*
X-69405Y-2852881D01*
X-69405Y-2852881D02*
X-78929Y-2871928D01*
X-78929Y-2871928D02*
X-88452Y-2881452D01*
X-88452Y-2881452D02*
X-107500Y-2890976D01*
X-107500Y-2890976D02*
X-155119Y-2890976D01*
X-155119Y-2890976D02*
X-174167Y-2881452D01*
X-174167Y-2881452D02*
X-183690Y-2871928D01*
X54405Y-2690976D02*
X73452Y-2690976D01*
X73452Y-2690976D02*
X92500Y-2700500D01*
X92500Y-2700500D02*
X102024Y-2710024D01*
X102024Y-2710024D02*
X111548Y-2729071D01*
X111548Y-2729071D02*
X121071Y-2767167D01*
X121071Y-2767167D02*
X121071Y-2814786D01*
X121071Y-2814786D02*
X111548Y-2852881D01*
X111548Y-2852881D02*
X102024Y-2871928D01*
X102024Y-2871928D02*
X92500Y-2881452D01*
X92500Y-2881452D02*
X73452Y-2890976D01*
X73452Y-2890976D02*
X54405Y-2890976D01*
X54405Y-2890976D02*
X35357Y-2881452D01*
X35357Y-2881452D02*
X25833Y-2871928D01*
X25833Y-2871928D02*
X16309Y-2852881D01*
X16309Y-2852881D02*
X6786Y-2814786D01*
X6786Y-2814786D02*
X6786Y-2767167D01*
X6786Y-2767167D02*
X16309Y-2729071D01*
X16309Y-2729071D02*
X25833Y-2710024D01*
X25833Y-2710024D02*
X35357Y-2700500D01*
X35357Y-2700500D02*
X54405Y-2690976D01*
X244881Y-2690976D02*
X263929Y-2690976D01*
X263929Y-2690976D02*
X282976Y-2700500D01*
X282976Y-2700500D02*
X292500Y-2710024D01*
X292500Y-2710024D02*
X302024Y-2729071D01*
X302024Y-2729071D02*
X311548Y-2767167D01*
X311548Y-2767167D02*
X311548Y-2814786D01*
X311548Y-2814786D02*
X302024Y-2852881D01*
X302024Y-2852881D02*
X292500Y-2871928D01*
X292500Y-2871928D02*
X282976Y-2881452D01*
X282976Y-2881452D02*
X263929Y-2890976D01*
X263929Y-2890976D02*
X244881Y-2890976D01*
X244881Y-2890976D02*
X225833Y-2881452D01*
X225833Y-2881452D02*
X216309Y-2871928D01*
X216309Y-2871928D02*
X206786Y-2852881D01*
X206786Y-2852881D02*
X197262Y-2814786D01*
X197262Y-2814786D02*
X197262Y-2767167D01*
X197262Y-2767167D02*
X206786Y-2729071D01*
X206786Y-2729071D02*
X216309Y-2710024D01*
X216309Y-2710024D02*
X225833Y-2700500D01*
X225833Y-2700500D02*
X244881Y-2690976D01*
X397262Y-2890976D02*
X397262Y-2757643D01*
X397262Y-2776690D02*
X406786Y-2767167D01*
X406786Y-2767167D02*
X425833Y-2757643D01*
X425833Y-2757643D02*
X454405Y-2757643D01*
X454405Y-2757643D02*
X473452Y-2767167D01*
X473452Y-2767167D02*
X482976Y-2786214D01*
X482976Y-2786214D02*
X482976Y-2890976D01*
X482976Y-2786214D02*
X492500Y-2767167D01*
X492500Y-2767167D02*
X511548Y-2757643D01*
X511548Y-2757643D02*
X540119Y-2757643D01*
X540119Y-2757643D02*
X559167Y-2767167D01*
X559167Y-2767167D02*
X568691Y-2786214D01*
X568691Y-2786214D02*
X568691Y-2890976D01*
X663929Y-2890976D02*
X663929Y-2757643D01*
X663929Y-2776690D02*
X673452Y-2767167D01*
X673452Y-2767167D02*
X692500Y-2757643D01*
X692500Y-2757643D02*
X721071Y-2757643D01*
X721071Y-2757643D02*
X740119Y-2767167D01*
X740119Y-2767167D02*
X749643Y-2786214D01*
X749643Y-2786214D02*
X749643Y-2890976D01*
X749643Y-2786214D02*
X759167Y-2767167D01*
X759167Y-2767167D02*
X778214Y-2757643D01*
X778214Y-2757643D02*
X806786Y-2757643D01*
X806786Y-2757643D02*
X825833Y-2767167D01*
X825833Y-2767167D02*
X835357Y-2786214D01*
X835357Y-2786214D02*
X835357Y-2890976D01*
X1193452Y-2681452D02*
X1022024Y-2938595D01*
X1418214Y-2690976D02*
X1437262Y-2690976D01*
X1437262Y-2690976D02*
X1456310Y-2700500D01*
X1456310Y-2700500D02*
X1465833Y-2710024D01*
X1465833Y-2710024D02*
X1475357Y-2729071D01*
X1475357Y-2729071D02*
X1484881Y-2767167D01*
X1484881Y-2767167D02*
X1484881Y-2814786D01*
X1484881Y-2814786D02*
X1475357Y-2852881D01*
X1475357Y-2852881D02*
X1465833Y-2871928D01*
X1465833Y-2871928D02*
X1456310Y-2881452D01*
X1456310Y-2881452D02*
X1437262Y-2890976D01*
X1437262Y-2890976D02*
X1418214Y-2890976D01*
X1418214Y-2890976D02*
X1399167Y-2881452D01*
X1399167Y-2881452D02*
X1389643Y-2871928D01*
X1389643Y-2871928D02*
X1380119Y-2852881D01*
X1380119Y-2852881D02*
X1370595Y-2814786D01*
X1370595Y-2814786D02*
X1370595Y-2767167D01*
X1370595Y-2767167D02*
X1380119Y-2729071D01*
X1380119Y-2729071D02*
X1389643Y-2710024D01*
X1389643Y-2710024D02*
X1399167Y-2700500D01*
X1399167Y-2700500D02*
X1418214Y-2690976D01*
X1570595Y-2871928D02*
X1580119Y-2881452D01*
X1580119Y-2881452D02*
X1570595Y-2890976D01*
X1570595Y-2890976D02*
X1561071Y-2881452D01*
X1561071Y-2881452D02*
X1570595Y-2871928D01*
X1570595Y-2871928D02*
X1570595Y-2890976D01*
X1703929Y-2690976D02*
X1722976Y-2690976D01*
X1722976Y-2690976D02*
X1742024Y-2700500D01*
X1742024Y-2700500D02*
X1751548Y-2710024D01*
X1751548Y-2710024D02*
X1761071Y-2729071D01*
X1761071Y-2729071D02*
X1770595Y-2767167D01*
X1770595Y-2767167D02*
X1770595Y-2814786D01*
X1770595Y-2814786D02*
X1761071Y-2852881D01*
X1761071Y-2852881D02*
X1751548Y-2871928D01*
X1751548Y-2871928D02*
X1742024Y-2881452D01*
X1742024Y-2881452D02*
X1722976Y-2890976D01*
X1722976Y-2890976D02*
X1703929Y-2890976D01*
X1703929Y-2890976D02*
X1684881Y-2881452D01*
X1684881Y-2881452D02*
X1675357Y-2871928D01*
X1675357Y-2871928D02*
X1665833Y-2852881D01*
X1665833Y-2852881D02*
X1656310Y-2814786D01*
X1656310Y-2814786D02*
X1656310Y-2767167D01*
X1656310Y-2767167D02*
X1665833Y-2729071D01*
X1665833Y-2729071D02*
X1675357Y-2710024D01*
X1675357Y-2710024D02*
X1684881Y-2700500D01*
X1684881Y-2700500D02*
X1703929Y-2690976D01*
X1951548Y-2690976D02*
X1856310Y-2690976D01*
X1856310Y-2690976D02*
X1846786Y-2786214D01*
X1846786Y-2786214D02*
X1856310Y-2776690D01*
X1856310Y-2776690D02*
X1875357Y-2767167D01*
X1875357Y-2767167D02*
X1922976Y-2767167D01*
X1922976Y-2767167D02*
X1942024Y-2776690D01*
X1942024Y-2776690D02*
X1951548Y-2786214D01*
X1951548Y-2786214D02*
X1961071Y-2805262D01*
X1961071Y-2805262D02*
X1961071Y-2852881D01*
X1961071Y-2852881D02*
X1951548Y-2871928D01*
X1951548Y-2871928D02*
X1942024Y-2881452D01*
X1942024Y-2881452D02*
X1922976Y-2890976D01*
X1922976Y-2890976D02*
X1875357Y-2890976D01*
X1875357Y-2890976D02*
X1856310Y-2881452D01*
X1856310Y-2881452D02*
X1846786Y-2871928D01*
X2056310Y-2890976D02*
X2094405Y-2890976D01*
X2094405Y-2890976D02*
X2113453Y-2881452D01*
X2113453Y-2881452D02*
X2122976Y-2871928D01*
X2122976Y-2871928D02*
X2142024Y-2843357D01*
X2142024Y-2843357D02*
X2151548Y-2805262D01*
X2151548Y-2805262D02*
X2151548Y-2729071D01*
X2151548Y-2729071D02*
X2142024Y-2710024D01*
X2142024Y-2710024D02*
X2132500Y-2700500D01*
X2132500Y-2700500D02*
X2113453Y-2690976D01*
X2113453Y-2690976D02*
X2075357Y-2690976D01*
X2075357Y-2690976D02*
X2056310Y-2700500D01*
X2056310Y-2700500D02*
X2046786Y-2710024D01*
X2046786Y-2710024D02*
X2037262Y-2729071D01*
X2037262Y-2729071D02*
X2037262Y-2776690D01*
X2037262Y-2776690D02*
X2046786Y-2795738D01*
X2046786Y-2795738D02*
X2056310Y-2805262D01*
X2056310Y-2805262D02*
X2075357Y-2814786D01*
X2075357Y-2814786D02*
X2113453Y-2814786D01*
X2113453Y-2814786D02*
X2132500Y-2805262D01*
X2132500Y-2805262D02*
X2142024Y-2795738D01*
X2142024Y-2795738D02*
X2151548Y-2776690D01*
X2342024Y-2890976D02*
X2227738Y-2890976D01*
X2284881Y-2890976D02*
X2284881Y-2690976D01*
X2284881Y-2690976D02*
X2265833Y-2719548D01*
X2265833Y-2719548D02*
X2246786Y-2738595D01*
X2246786Y-2738595D02*
X2227738Y-2748119D01*
X2418214Y-2690976D02*
X2418214Y-2729071D01*
X2494405Y-2690976D02*
X2494405Y-2729071D01*
X2757262Y-2967167D02*
X2747738Y-2957643D01*
X2747738Y-2957643D02*
X2728691Y-2929071D01*
X2728691Y-2929071D02*
X2719167Y-2910024D01*
X2719167Y-2910024D02*
X2709643Y-2881452D01*
X2709643Y-2881452D02*
X2700119Y-2833833D01*
X2700119Y-2833833D02*
X2700119Y-2795738D01*
X2700119Y-2795738D02*
X2709643Y-2748119D01*
X2709643Y-2748119D02*
X2719167Y-2719548D01*
X2719167Y-2719548D02*
X2728691Y-2700500D01*
X2728691Y-2700500D02*
X2747738Y-2671929D01*
X2747738Y-2671929D02*
X2757262Y-2662405D01*
X2871548Y-2690976D02*
X2890595Y-2690976D01*
X2890595Y-2690976D02*
X2909643Y-2700500D01*
X2909643Y-2700500D02*
X2919167Y-2710024D01*
X2919167Y-2710024D02*
X2928691Y-2729071D01*
X2928691Y-2729071D02*
X2938214Y-2767167D01*
X2938214Y-2767167D02*
X2938214Y-2814786D01*
X2938214Y-2814786D02*
X2928691Y-2852881D01*
X2928691Y-2852881D02*
X2919167Y-2871928D01*
X2919167Y-2871928D02*
X2909643Y-2881452D01*
X2909643Y-2881452D02*
X2890595Y-2890976D01*
X2890595Y-2890976D02*
X2871548Y-2890976D01*
X2871548Y-2890976D02*
X2852500Y-2881452D01*
X2852500Y-2881452D02*
X2842976Y-2871928D01*
X2842976Y-2871928D02*
X2833452Y-2852881D01*
X2833452Y-2852881D02*
X2823929Y-2814786D01*
X2823929Y-2814786D02*
X2823929Y-2767167D01*
X2823929Y-2767167D02*
X2833452Y-2729071D01*
X2833452Y-2729071D02*
X2842976Y-2710024D01*
X2842976Y-2710024D02*
X2852500Y-2700500D01*
X2852500Y-2700500D02*
X2871548Y-2690976D01*
X3143929Y-2890976D02*
X3143929Y-2690976D01*
X3229643Y-2890976D02*
X3229643Y-2786214D01*
X3229643Y-2786214D02*
X3220119Y-2767167D01*
X3220119Y-2767167D02*
X3201072Y-2757643D01*
X3201072Y-2757643D02*
X3172500Y-2757643D01*
X3172500Y-2757643D02*
X3153452Y-2767167D01*
X3153452Y-2767167D02*
X3143929Y-2776690D01*
X3353452Y-2890976D02*
X3334405Y-2881452D01*
X3334405Y-2881452D02*
X3324881Y-2871928D01*
X3324881Y-2871928D02*
X3315357Y-2852881D01*
X3315357Y-2852881D02*
X3315357Y-2795738D01*
X3315357Y-2795738D02*
X3324881Y-2776690D01*
X3324881Y-2776690D02*
X3334405Y-2767167D01*
X3334405Y-2767167D02*
X3353452Y-2757643D01*
X3353452Y-2757643D02*
X3382024Y-2757643D01*
X3382024Y-2757643D02*
X3401072Y-2767167D01*
X3401072Y-2767167D02*
X3410595Y-2776690D01*
X3410595Y-2776690D02*
X3420119Y-2795738D01*
X3420119Y-2795738D02*
X3420119Y-2852881D01*
X3420119Y-2852881D02*
X3410595Y-2871928D01*
X3410595Y-2871928D02*
X3401072Y-2881452D01*
X3401072Y-2881452D02*
X3382024Y-2890976D01*
X3382024Y-2890976D02*
X3353452Y-2890976D01*
X3534405Y-2890976D02*
X3515357Y-2881452D01*
X3515357Y-2881452D02*
X3505833Y-2862405D01*
X3505833Y-2862405D02*
X3505833Y-2690976D01*
X3686786Y-2881452D02*
X3667738Y-2890976D01*
X3667738Y-2890976D02*
X3629643Y-2890976D01*
X3629643Y-2890976D02*
X3610595Y-2881452D01*
X3610595Y-2881452D02*
X3601072Y-2862405D01*
X3601072Y-2862405D02*
X3601072Y-2786214D01*
X3601072Y-2786214D02*
X3610595Y-2767167D01*
X3610595Y-2767167D02*
X3629643Y-2757643D01*
X3629643Y-2757643D02*
X3667738Y-2757643D01*
X3667738Y-2757643D02*
X3686786Y-2767167D01*
X3686786Y-2767167D02*
X3696310Y-2786214D01*
X3696310Y-2786214D02*
X3696310Y-2805262D01*
X3696310Y-2805262D02*
X3601072Y-2824309D01*
X3772500Y-2881452D02*
X3791548Y-2890976D01*
X3791548Y-2890976D02*
X3829643Y-2890976D01*
X3829643Y-2890976D02*
X3848691Y-2881452D01*
X3848691Y-2881452D02*
X3858214Y-2862405D01*
X3858214Y-2862405D02*
X3858214Y-2852881D01*
X3858214Y-2852881D02*
X3848691Y-2833833D01*
X3848691Y-2833833D02*
X3829643Y-2824309D01*
X3829643Y-2824309D02*
X3801072Y-2824309D01*
X3801072Y-2824309D02*
X3782024Y-2814786D01*
X3782024Y-2814786D02*
X3772500Y-2795738D01*
X3772500Y-2795738D02*
X3772500Y-2786214D01*
X3772500Y-2786214D02*
X3782024Y-2767167D01*
X3782024Y-2767167D02*
X3801072Y-2757643D01*
X3801072Y-2757643D02*
X3829643Y-2757643D01*
X3829643Y-2757643D02*
X3848691Y-2767167D01*
X4063929Y-2814786D02*
X4216310Y-2814786D01*
X4140119Y-2890976D02*
X4140119Y-2738595D01*
X4422024Y-2710024D02*
X4431548Y-2700500D01*
X4431548Y-2700500D02*
X4450595Y-2690976D01*
X4450595Y-2690976D02*
X4498215Y-2690976D01*
X4498215Y-2690976D02*
X4517262Y-2700500D01*
X4517262Y-2700500D02*
X4526786Y-2710024D01*
X4526786Y-2710024D02*
X4536310Y-2729071D01*
X4536310Y-2729071D02*
X4536310Y-2748119D01*
X4536310Y-2748119D02*
X4526786Y-2776690D01*
X4526786Y-2776690D02*
X4412500Y-2890976D01*
X4412500Y-2890976D02*
X4536310Y-2890976D01*
X4732500Y-2881452D02*
X4751548Y-2890976D01*
X4751548Y-2890976D02*
X4789643Y-2890976D01*
X4789643Y-2890976D02*
X4808691Y-2881452D01*
X4808691Y-2881452D02*
X4818215Y-2862405D01*
X4818215Y-2862405D02*
X4818215Y-2852881D01*
X4818215Y-2852881D02*
X4808691Y-2833833D01*
X4808691Y-2833833D02*
X4789643Y-2824309D01*
X4789643Y-2824309D02*
X4761072Y-2824309D01*
X4761072Y-2824309D02*
X4742024Y-2814786D01*
X4742024Y-2814786D02*
X4732500Y-2795738D01*
X4732500Y-2795738D02*
X4732500Y-2786214D01*
X4732500Y-2786214D02*
X4742024Y-2767167D01*
X4742024Y-2767167D02*
X4761072Y-2757643D01*
X4761072Y-2757643D02*
X4789643Y-2757643D01*
X4789643Y-2757643D02*
X4808691Y-2767167D01*
X4932500Y-2890976D02*
X4913453Y-2881452D01*
X4913453Y-2881452D02*
X4903929Y-2862405D01*
X4903929Y-2862405D02*
X4903929Y-2690976D01*
X5037262Y-2890976D02*
X5018215Y-2881452D01*
X5018215Y-2881452D02*
X5008691Y-2871928D01*
X5008691Y-2871928D02*
X4999167Y-2852881D01*
X4999167Y-2852881D02*
X4999167Y-2795738D01*
X4999167Y-2795738D02*
X5008691Y-2776690D01*
X5008691Y-2776690D02*
X5018215Y-2767167D01*
X5018215Y-2767167D02*
X5037262Y-2757643D01*
X5037262Y-2757643D02*
X5065834Y-2757643D01*
X5065834Y-2757643D02*
X5084881Y-2767167D01*
X5084881Y-2767167D02*
X5094405Y-2776690D01*
X5094405Y-2776690D02*
X5103929Y-2795738D01*
X5103929Y-2795738D02*
X5103929Y-2852881D01*
X5103929Y-2852881D02*
X5094405Y-2871928D01*
X5094405Y-2871928D02*
X5084881Y-2881452D01*
X5084881Y-2881452D02*
X5065834Y-2890976D01*
X5065834Y-2890976D02*
X5037262Y-2890976D01*
X5161072Y-2757643D02*
X5237262Y-2757643D01*
X5189643Y-2690976D02*
X5189643Y-2862405D01*
X5189643Y-2862405D02*
X5199167Y-2881452D01*
X5199167Y-2881452D02*
X5218215Y-2890976D01*
X5218215Y-2890976D02*
X5237262Y-2890976D01*
X5294405Y-2881452D02*
X5313453Y-2890976D01*
X5313453Y-2890976D02*
X5351548Y-2890976D01*
X5351548Y-2890976D02*
X5370596Y-2881452D01*
X5370596Y-2881452D02*
X5380119Y-2862405D01*
X5380119Y-2862405D02*
X5380119Y-2852881D01*
X5380119Y-2852881D02*
X5370596Y-2833833D01*
X5370596Y-2833833D02*
X5351548Y-2824309D01*
X5351548Y-2824309D02*
X5322976Y-2824309D01*
X5322976Y-2824309D02*
X5303929Y-2814786D01*
X5303929Y-2814786D02*
X5294405Y-2795738D01*
X5294405Y-2795738D02*
X5294405Y-2786214D01*
X5294405Y-2786214D02*
X5303929Y-2767167D01*
X5303929Y-2767167D02*
X5322976Y-2757643D01*
X5322976Y-2757643D02*
X5351548Y-2757643D01*
X5351548Y-2757643D02*
X5370596Y-2767167D01*
X5446786Y-2967167D02*
X5456310Y-2957643D01*
X5456310Y-2957643D02*
X5475357Y-2929071D01*
X5475357Y-2929071D02*
X5484881Y-2910024D01*
X5484881Y-2910024D02*
X5494405Y-2881452D01*
X5494405Y-2881452D02*
X5503929Y-2833833D01*
X5503929Y-2833833D02*
X5503929Y-2795738D01*
X5503929Y-2795738D02*
X5494405Y-2748119D01*
X5494405Y-2748119D02*
X5484881Y-2719548D01*
X5484881Y-2719548D02*
X5475357Y-2700500D01*
X5475357Y-2700500D02*
X5456310Y-2671929D01*
X5456310Y-2671929D02*
X5446786Y-2662405D01*
M02*
