0
SECTION
2
HEADER
9
$INSUNITS
70
4
0
ENDSEC
0
SECTION
2
TABLES
0
TABLE
2
LTYPE
0
LTYPE
72
65
70
64
2
CONTINUOUS
3
______
73
0
40
0
0
ENDTAB
0
TABLE
2
LAYER
0
ENDTAB
0
ENDSEC
0
SECTION
2
ENTITIES
0
LINE
8
0
10
-8.75
20
-8.25
11
8.75
21
-8.25
0
LINE
8
0
10
8.75
20
-8.25
11
8.75
21
8.25
0
LINE
8
0
10
8.75
20
8.25
11
-8.75
21
8.25
0
LINE
8
0
10
-8.75
20
8.25
11
-8.75
21
-8.25
0
LINE
8
0
10
-8.75
20
8.75
11
8.75
21
8.75
0
LINE
8
0
10
8.75
20
8.75
11
8.75
21
25.25
0
LINE
8
0
10
8.75
20
25.25
11
-8.75
21
25.25
0
LINE
8
0
10
-8.75
20
25.25
11
-8.75
21
8.75
0
LINE
8
0
10
-8.75
20
25.75
11
8.75
21
25.75
0
LINE
8
0
10
8.75
20
25.75
11
8.75
21
42.25
0
LINE
8
0
10
8.75
20
42.25
11
-8.75
21
42.25
0
LINE
8
0
10
-8.75
20
42.25
11
-8.75
21
25.75
0
LINE
8
0
10
9.25
20
-5.25
11
26.75
21
-5.25
0
LINE
8
0
10
26.75
20
-5.25
11
26.75
21
11.25
0
LINE
8
0
10
26.75
20
11.25
11
9.25
21
11.25
0
LINE
8
0
10
9.25
20
11.25
11
9.25
21
-5.25
0
LINE
8
0
10
9.25
20
11.75
11
26.75
21
11.75
0
LINE
8
0
10
26.75
20
11.75
11
26.75
21
28.25
0
LINE
8
0
10
26.75
20
28.25
11
9.25
21
28.25
0
LINE
8
0
10
9.25
20
28.25
11
9.25
21
11.75
0
LINE
8
0
10
9.25
20
28.75
11
26.75
21
28.75
0
LINE
8
0
10
26.75
20
28.75
11
26.75
21
45.25
0
LINE
8
0
10
26.75
20
45.25
11
9.25
21
45.25
0
LINE
8
0
10
9.25
20
45.25
11
9.25
21
28.75
0
LINE
8
0
10
27.25
20
0.75
11
44.75
21
0.75
0
LINE
8
0
10
44.75
20
0.75
11
44.75
21
17.25
0
LINE
8
0
10
44.75
20
17.25
11
27.25
21
17.25
0
LINE
8
0
10
27.25
20
17.25
11
27.25
21
0.75
0
LINE
8
0
10
27.25
20
17.75
11
44.75
21
17.75
0
LINE
8
0
10
44.75
20
17.75
11
44.75
21
34.25
0
LINE
8
0
10
44.75
20
34.25
11
27.25
21
34.25
0
LINE
8
0
10
27.25
20
34.25
11
27.25
21
17.75
0
LINE
8
0
10
27.25
20
34.75
11
44.75
21
34.75
0
LINE
8
0
10
44.75
20
34.75
11
44.75
21
51.25
0
LINE
8
0
10
44.75
20
51.25
11
27.25
21
51.25
0
LINE
8
0
10
27.25
20
51.25
11
27.25
21
34.75
0
LINE
8
0
10
45.25
20
-2.25
11
62.75
21
-2.25
0
LINE
8
0
10
62.75
20
-2.25
11
62.75
21
14.25
0
LINE
8
0
10
62.75
20
14.25
11
45.25
21
14.25
0
LINE
8
0
10
45.25
20
14.25
11
45.25
21
-2.25
0
LINE
8
0
10
45.25
20
14.75
11
62.75
21
14.75
0
LINE
8
0
10
62.75
20
14.75
11
62.75
21
31.25
0
LINE
8
0
10
62.75
20
31.25
11
45.25
21
31.25
0
LINE
8
0
10
45.25
20
31.25
11
45.25
21
14.75
0
LINE
8
0
10
45.25
20
31.75
11
62.75
21
31.75
0
LINE
8
0
10
62.75
20
31.75
11
62.75
21
48.25
0
LINE
8
0
10
62.75
20
48.25
11
45.25
21
48.25
0
LINE
8
0
10
45.25
20
48.25
11
45.25
21
31.75
0
LINE
8
0
10
63.25
20
-19.25
11
80.75
21
-19.25
0
LINE
8
0
10
80.75
20
-19.25
11
80.75
21
-2.75
0
LINE
8
0
10
80.75
20
-2.75
11
63.25
21
-2.75
0
LINE
8
0
10
63.25
20
-2.75
11
63.25
21
-19.25
0
LINE
8
0
10
63.25
20
-2.25
11
80.75
21
-2.25
0
LINE
8
0
10
80.75
20
-2.25
11
80.75
21
14.25
0
LINE
8
0
10
80.75
20
14.25
11
63.25
21
14.25
0
LINE
8
0
10
63.25
20
14.25
11
63.25
21
-2.25
0
LINE
8
0
10
63.25
20
14.75
11
80.75
21
14.75
0
LINE
8
0
10
80.75
20
14.75
11
80.75
21
31.25
0
LINE
8
0
10
80.75
20
31.25
11
63.25
21
31.25
0
LINE
8
0
10
63.25
20
31.25
11
63.25
21
14.75
0
LINE
8
0
10
63.25
20
31.75
11
80.75
21
31.75
0
LINE
8
0
10
80.75
20
31.75
11
80.75
21
48.25
0
LINE
8
0
10
80.75
20
48.25
11
63.25
21
48.25
0
LINE
8
0
10
63.25
20
48.25
11
63.25
21
31.75
0
ENDSEC
0
EOF