%TF.GenerationSoftware,KiCad,Pcbnew,(7.0.0-0)*%
%TF.CreationDate,2023-02-22T17:52:08+08:00*%
%TF.ProjectId,right,72696768-742e-46b6-9963-61645f706362,v1.0.0*%
%TF.SameCoordinates,Original*%
%TF.FileFunction,Soldermask,Bot*%
%TF.FilePolarity,Negative*%
%FSLAX46Y46*%
G04 Gerber Fmt 4.6, Leading zero omitted, Abs format (unit mm)*
G04 Created by KiCad (PCBNEW (7.0.0-0)) date 2023-02-22 17:52:08*
%MOMM*%
%LPD*%
G01*
G04 APERTURE LIST*
G04 Aperture macros list*
%AMRoundRect*
0 Rectangle with rounded corners*
0 $1 Rounding radius*
0 $2 $3 $4 $5 $6 $7 $8 $9 X,Y pos of 4 corners*
0 Add a 4 corners polygon primitive as box body*
4,1,4,$2,$3,$4,$5,$6,$7,$8,$9,$2,$3,0*
0 Add four circle primitives for the rounded corners*
1,1,$1+$1,$2,$3*
1,1,$1+$1,$4,$5*
1,1,$1+$1,$6,$7*
1,1,$1+$1,$8,$9*
0 Add four rect primitives between the rounded corners*
20,1,$1+$1,$2,$3,$4,$5,0*
20,1,$1+$1,$4,$5,$6,$7,0*
20,1,$1+$1,$6,$7,$8,$9,0*
20,1,$1+$1,$8,$9,$2,$3,0*%
G04 Aperture macros list end*
%ADD10C,3.529000*%
%ADD11C,1.801800*%
%ADD12C,3.100000*%
%ADD13RoundRect,0.050000X-1.300000X-1.300000X1.300000X-1.300000X1.300000X1.300000X-1.300000X1.300000X0*%
%ADD14RoundRect,0.050000X-0.300000X-0.350000X0.300000X-0.350000X0.300000X0.350000X-0.300000X0.350000X0*%
%ADD15RoundRect,0.050000X0.300000X0.350000X-0.300000X0.350000X-0.300000X-0.350000X0.300000X-0.350000X0*%
%ADD16C,2.132000*%
%ADD17RoundRect,0.050000X1.000000X-1.000000X1.000000X1.000000X-1.000000X1.000000X-1.000000X-1.000000X0*%
%ADD18C,2.100000*%
%ADD19C,1.600000*%
%ADD20RoundRect,0.050000X1.000000X-1.600000X1.000000X1.600000X-1.000000X1.600000X-1.000000X-1.600000X0*%
%ADD21C,1.000000*%
%ADD22RoundRect,0.050000X-0.300000X0.762000X-0.300000X-0.762000X0.300000X-0.762000X0.300000X0.762000X0*%
%ADD23RoundRect,0.050000X0.600000X0.350000X-0.600000X0.350000X-0.600000X-0.350000X0.600000X-0.350000X0*%
%ADD24RoundRect,0.431000X0.619000X0.381000X-0.619000X0.381000X-0.619000X-0.381000X0.619000X-0.381000X0*%
%ADD25RoundRect,0.428000X0.622000X0.378000X-0.622000X0.378000X-0.622000X-0.378000X0.622000X-0.378000X0*%
%ADD26RoundRect,0.050000X-0.876300X0.876300X-0.876300X-0.876300X0.876300X-0.876300X0.876300X0.876300X0*%
%ADD27C,1.852600*%
%ADD28RoundRect,0.200000X0.625000X-0.150000X0.625000X0.150000X-0.625000X0.150000X-0.625000X-0.150000X0*%
%ADD29RoundRect,0.300000X0.650000X-0.350000X0.650000X0.350000X-0.650000X0.350000X-0.650000X-0.350000X0*%
%ADD30C,2.300000*%
G04 APERTURE END LIST*
D10*
%TO.C,S1*%
X72000000Y23000000D03*
D11*
X77500000Y23000000D03*
X66500000Y23000000D03*
D12*
X67000000Y19250000D03*
X72000000Y17050000D03*
D13*
X75275000Y17050000D03*
X63725000Y19250000D03*
%TD*%
D14*
%TO.C,D1*%
X74900000Y20400000D03*
X76300000Y20400000D03*
%TD*%
D10*
%TO.C,S2*%
X72000000Y6000000D03*
D11*
X77500000Y6000000D03*
X66500000Y6000000D03*
D12*
X67000000Y2250000D03*
X72000000Y50000D03*
D13*
X75275000Y50000D03*
X63725000Y2250000D03*
%TD*%
D14*
%TO.C,D2*%
X74900000Y3400000D03*
X76300000Y3400000D03*
%TD*%
D10*
%TO.C,S3*%
X72000000Y-11000000D03*
D11*
X77500000Y-11000000D03*
X66500000Y-11000000D03*
D12*
X67000000Y-14750000D03*
X72000000Y-16950000D03*
D13*
X75275000Y-16950000D03*
X63725000Y-14750000D03*
%TD*%
D14*
%TO.C,D3*%
X74900000Y-13600000D03*
X76300000Y-13600000D03*
%TD*%
D10*
%TO.C,S4*%
X54000000Y40000000D03*
D11*
X48500000Y40000000D03*
X59500000Y40000000D03*
D12*
X59000000Y43750000D03*
X54000000Y45950000D03*
D13*
X50725000Y45950000D03*
X62275000Y43750000D03*
%TD*%
D15*
%TO.C,D4*%
X51100000Y42600000D03*
X49700000Y42600000D03*
%TD*%
D10*
%TO.C,S5*%
X54000000Y23000000D03*
D11*
X48500000Y23000000D03*
X59500000Y23000000D03*
D12*
X59000000Y26750000D03*
X54000000Y28950000D03*
D13*
X50725000Y28950000D03*
X62275000Y26750000D03*
%TD*%
D15*
%TO.C,D5*%
X51100000Y25600000D03*
X49700000Y25600000D03*
%TD*%
D10*
%TO.C,S6*%
X54000000Y6000000D03*
D11*
X48500000Y6000000D03*
X59500000Y6000000D03*
D12*
X59000000Y9750000D03*
X54000000Y11950000D03*
D13*
X50725000Y11950000D03*
X62275000Y9750000D03*
%TD*%
D15*
%TO.C,D6*%
X51100000Y8600000D03*
X49700000Y8600000D03*
%TD*%
D10*
%TO.C,S7*%
X36000000Y43000000D03*
D11*
X30500000Y43000000D03*
X41500000Y43000000D03*
D12*
X41000000Y46750000D03*
X36000000Y48950000D03*
D13*
X32725000Y48950000D03*
X44275000Y46750000D03*
%TD*%
D15*
%TO.C,D7*%
X33100000Y45600000D03*
X31700000Y45600000D03*
%TD*%
D10*
%TO.C,S8*%
X36000000Y26000000D03*
D11*
X30500000Y26000000D03*
X41500000Y26000000D03*
D12*
X41000000Y29750000D03*
X36000000Y31950000D03*
D13*
X32725000Y31950000D03*
X44275000Y29750000D03*
%TD*%
D15*
%TO.C,D8*%
X33100000Y28600000D03*
X31700000Y28600000D03*
%TD*%
D10*
%TO.C,S9*%
X36000000Y9000000D03*
D11*
X30500000Y9000000D03*
X41500000Y9000000D03*
D12*
X41000000Y12750000D03*
X36000000Y14950000D03*
D13*
X32725000Y14950000D03*
X44275000Y12750000D03*
%TD*%
D15*
%TO.C,D9*%
X33100000Y11600000D03*
X31700000Y11600000D03*
%TD*%
D10*
%TO.C,S10*%
X18000000Y37000000D03*
D11*
X12500000Y37000000D03*
X23500000Y37000000D03*
D12*
X23000000Y40750000D03*
X18000000Y42950000D03*
D13*
X14725000Y42950000D03*
X26275000Y40750000D03*
%TD*%
D15*
%TO.C,D10*%
X15100000Y39600000D03*
X13700000Y39600000D03*
%TD*%
D10*
%TO.C,S11*%
X18000000Y20000000D03*
D11*
X12500000Y20000000D03*
X23500000Y20000000D03*
D12*
X23000000Y23750000D03*
X18000000Y25950000D03*
D13*
X14725000Y25950000D03*
X26275000Y23750000D03*
%TD*%
D15*
%TO.C,D11*%
X15100000Y22600000D03*
X13700000Y22600000D03*
%TD*%
D10*
%TO.C,S12*%
X18000000Y3000000D03*
D11*
X12500000Y3000000D03*
X23500000Y3000000D03*
D12*
X23000000Y6750000D03*
X18000000Y8950000D03*
D13*
X14725000Y8950000D03*
X26275000Y6750000D03*
%TD*%
D15*
%TO.C,D12*%
X15100000Y5600000D03*
X13700000Y5600000D03*
%TD*%
D10*
%TO.C,S13*%
X0Y34000000D03*
D11*
X5500000Y34000000D03*
X-5500000Y34000000D03*
D16*
X-5000000Y30200000D03*
X0Y28100000D03*
%TD*%
D14*
%TO.C,D13*%
X2900000Y31400000D03*
X4300000Y31400000D03*
%TD*%
D10*
%TO.C,S14*%
X0Y17000000D03*
D11*
X5500000Y17000000D03*
X-5500000Y17000000D03*
D16*
X-5000000Y13200000D03*
X0Y11100000D03*
%TD*%
D14*
%TO.C,D14*%
X2900000Y14400000D03*
X4300000Y14400000D03*
%TD*%
D10*
%TO.C,S15*%
X0Y0D03*
D11*
X5500000Y0D03*
X-5500000Y0D03*
D12*
X-5000000Y-3750000D03*
X0Y-5950000D03*
D13*
X3275000Y-5950000D03*
X-8275000Y-3750000D03*
%TD*%
D14*
%TO.C,D15*%
X2900000Y-2600000D03*
X4300000Y-2600000D03*
%TD*%
D17*
%TO.C,ROT1*%
X69460000Y32380000D03*
D18*
X71960000Y32380000D03*
X74460000Y32380000D03*
D19*
X69460000Y46880000D03*
X74460000Y46880000D03*
D20*
X66360000Y39880000D03*
X77560000Y39880000D03*
%TD*%
D15*
%TO.C,D16*%
X76700000Y44000000D03*
X75300000Y44000000D03*
%TD*%
D21*
%TO.C,SS1*%
X55500000Y-5930000D03*
X52500000Y-5930000D03*
D22*
X56250000Y-3680000D03*
X53250000Y-3680000D03*
X51750000Y-3680000D03*
D23*
X57600000Y-7080000D03*
X57600000Y-4780000D03*
X50400000Y-7080000D03*
X50400000Y-4780000D03*
%TD*%
D24*
%TO.C,SB1*%
X29750000Y50000000D03*
D25*
X26250000Y50000000D03*
%TD*%
D26*
%TO.C,MCU1*%
X-7620000Y37470000D03*
D27*
X-7620000Y34930000D03*
X-7620000Y32390000D03*
X-7620000Y29850000D03*
X-7620000Y27310000D03*
X-7620000Y24770000D03*
X-7620000Y22230000D03*
X-7620000Y19690000D03*
X-7620000Y17150000D03*
X-7620000Y14610000D03*
X-7620000Y12070000D03*
X-7620000Y9530000D03*
X7620000Y37470000D03*
X7620000Y34930000D03*
X7620000Y32390000D03*
X7620000Y29850000D03*
X7620000Y27310000D03*
X7620000Y24770000D03*
X7620000Y22230000D03*
X7620000Y19690000D03*
X7620000Y17150000D03*
X7620000Y14610000D03*
X7620000Y12070000D03*
X7620000Y9530000D03*
%TD*%
D28*
%TO.C,JB1*%
X56000000Y18000000D03*
X56000000Y17000000D03*
D29*
X52125000Y19300000D03*
X52125000Y15700000D03*
%TD*%
D28*
%TO.C,JC1*%
X38000000Y3000000D03*
X38000000Y2000000D03*
X38000000Y1000000D03*
X38000000Y0D03*
X38000000Y-1000000D03*
D29*
X34125000Y-2300000D03*
X34125000Y4300000D03*
%TD*%
D30*
%TO.C,H1*%
X63000000Y-2500000D03*
%TD*%
%TO.C,H2*%
X63000000Y31500000D03*
%TD*%
%TO.C,H3*%
X45000000Y500000D03*
%TD*%
%TO.C,H4*%
X45000000Y34500000D03*
%TD*%
%TO.C,H5*%
X9000000Y3000000D03*
%TD*%
%TO.C,H6*%
X11500000Y28500000D03*
%TD*%
M02*
