%TF.GenerationSoftware,KiCad,Pcbnew,(7.0.0-0)*%
%TF.CreationDate,2023-02-22T17:52:02+08:00*%
%TF.ProjectId,right,72696768-742e-46b6-9963-61645f706362,v1.0.0*%
%TF.SameCoordinates,Original*%
%TF.FileFunction,NonPlated,1,2,NPTH,Drill*%
%TF.FilePolarity,Positive*%
%FSLAX46Y46*%
G04 Gerber Fmt 4.6, Leading zero omitted, Abs format (unit mm)*
G04 Created by KiCad (PCBNEW (7.0.0-0)) date 2023-02-22 17:52:02*
%MOMM*%
%LPD*%
G01*
G04 APERTURE LIST*
%TA.AperFunction,ComponentDrill*%
%ADD10C,0.900000*%
%TD*%
%TA.AperFunction,ComponentDrill*%
%ADD11C,1.701800*%
%TD*%
%TA.AperFunction,ComponentDrill*%
%ADD12C,2.200000*%
%TD*%
%TA.AperFunction,ComponentDrill*%
%ADD13C,3.000000*%
%TD*%
%TA.AperFunction,ComponentDrill*%
%ADD14C,3.429000*%
%TD*%
G04 APERTURE END LIST*
D10*
%TO.C,SS1*%
X52500000Y-5930000D03*
X55500000Y-5930000D03*
D11*
%TO.C,S13*%
X-5500000Y34000000D03*
%TO.C,S14*%
X-5500000Y17000000D03*
%TO.C,S15*%
X-5500000Y0D03*
%TO.C,S13*%
X5500000Y34000000D03*
%TO.C,S14*%
X5500000Y17000000D03*
%TO.C,S15*%
X5500000Y0D03*
%TO.C,S10*%
X12500000Y37000000D03*
%TO.C,S11*%
X12500000Y20000000D03*
%TO.C,S12*%
X12500000Y3000000D03*
%TO.C,S10*%
X23500000Y37000000D03*
%TO.C,S11*%
X23500000Y20000000D03*
%TO.C,S12*%
X23500000Y3000000D03*
%TO.C,S7*%
X30500000Y43000000D03*
%TO.C,S8*%
X30500000Y26000000D03*
%TO.C,S9*%
X30500000Y9000000D03*
%TO.C,S7*%
X41500000Y43000000D03*
%TO.C,S8*%
X41500000Y26000000D03*
%TO.C,S9*%
X41500000Y9000000D03*
%TO.C,S4*%
X48500000Y40000000D03*
%TO.C,S5*%
X48500000Y23000000D03*
%TO.C,S6*%
X48500000Y6000000D03*
%TO.C,S4*%
X59500000Y40000000D03*
%TO.C,S5*%
X59500000Y23000000D03*
%TO.C,S6*%
X59500000Y6000000D03*
%TO.C,S1*%
X66500000Y23000000D03*
%TO.C,S2*%
X66500000Y6000000D03*
%TO.C,S3*%
X66500000Y-11000000D03*
%TO.C,S1*%
X77500000Y23000000D03*
%TO.C,S2*%
X77500000Y6000000D03*
%TO.C,S3*%
X77500000Y-11000000D03*
D12*
%TO.C,H5*%
X9000000Y3000000D03*
%TO.C,H6*%
X11500000Y28500000D03*
%TO.C,H4*%
X45000000Y34500000D03*
%TO.C,H3*%
X45000000Y500000D03*
%TO.C,H2*%
X63000000Y31500000D03*
%TO.C,H1*%
X63000000Y-2500000D03*
D13*
%TO.C,S15*%
X-5000000Y-3750000D03*
X0Y-5950000D03*
%TO.C,S10*%
X18000000Y42950000D03*
%TO.C,S11*%
X18000000Y25950000D03*
%TO.C,S12*%
X18000000Y8950000D03*
%TO.C,S10*%
X23000000Y40750000D03*
%TO.C,S11*%
X23000000Y23750000D03*
%TO.C,S12*%
X23000000Y6750000D03*
%TO.C,S7*%
X36000000Y48950000D03*
%TO.C,S8*%
X36000000Y31950000D03*
%TO.C,S9*%
X36000000Y14950000D03*
%TO.C,S7*%
X41000000Y46750000D03*
%TO.C,S8*%
X41000000Y29750000D03*
%TO.C,S9*%
X41000000Y12750000D03*
%TO.C,S4*%
X54000000Y45950000D03*
%TO.C,S5*%
X54000000Y28950000D03*
%TO.C,S6*%
X54000000Y11950000D03*
%TO.C,S4*%
X59000000Y43750000D03*
%TO.C,S5*%
X59000000Y26750000D03*
%TO.C,S6*%
X59000000Y9750000D03*
%TO.C,S1*%
X67000000Y19250000D03*
%TO.C,S2*%
X67000000Y2250000D03*
%TO.C,S3*%
X67000000Y-14750000D03*
%TO.C,S1*%
X72000000Y17050000D03*
%TO.C,S2*%
X72000000Y50000D03*
%TO.C,S3*%
X72000000Y-16950000D03*
D14*
%TO.C,S13*%
X0Y34000000D03*
%TO.C,S14*%
X0Y17000000D03*
%TO.C,S15*%
X0Y0D03*
%TO.C,S10*%
X18000000Y37000000D03*
%TO.C,S11*%
X18000000Y20000000D03*
%TO.C,S12*%
X18000000Y3000000D03*
%TO.C,S7*%
X36000000Y43000000D03*
%TO.C,S8*%
X36000000Y26000000D03*
%TO.C,S9*%
X36000000Y9000000D03*
%TO.C,S4*%
X54000000Y40000000D03*
%TO.C,S5*%
X54000000Y23000000D03*
%TO.C,S6*%
X54000000Y6000000D03*
%TO.C,S1*%
X72000000Y23000000D03*
%TO.C,S2*%
X72000000Y6000000D03*
%TO.C,S3*%
X72000000Y-11000000D03*
M02*
