%TF.GenerationSoftware,KiCad,Pcbnew,(7.0.0-0)*%
%TF.CreationDate,2023-06-30T11:37:03+08:00*%
%TF.ProjectId,cirque-connector,63697271-7565-42d6-936f-6e6e6563746f,rev?*%
%TF.SameCoordinates,Original*%
%TF.FileFunction,Drillmap*%
%TF.FilePolarity,Positive*%
%FSLAX45Y45*%
G04 Gerber Fmt 4.5, Leading zero omitted, Abs format (unit mm)*
G04 Created by KiCad (PCBNEW (7.0.0-0)) date 2023-06-30 11:37:03*
%MOMM*%
%LPD*%
G01*
G04 APERTURE LIST*
%ADD10C,0.050000*%
%ADD11C,0.200000*%
%ADD12C,0.100000*%
G04 APERTURE END LIST*
D10*
X2800000Y-5100000D02*
X4300000Y-5100000D01*
X2800000Y-8500000D02*
X4300000Y-8500000D01*
X4300000Y-5100000D02*
X4300000Y-8500000D01*
X2800000Y-5100000D02*
X2800000Y-8500000D01*
D11*
D12*
X4050000Y-5448000D02*
X4150000Y-5548000D01*
X4150000Y-5448000D02*
X4050000Y-5548000D01*
X4050000Y-5702000D02*
X4150000Y-5802000D01*
X4150000Y-5702000D02*
X4050000Y-5802000D01*
X4050000Y-5956000D02*
X4150000Y-6056000D01*
X4150000Y-5956000D02*
X4050000Y-6056000D01*
X4050000Y-6210000D02*
X4150000Y-6310000D01*
X4150000Y-6210000D02*
X4050000Y-6310000D01*
X4050000Y-6464000D02*
X4150000Y-6564000D01*
X4150000Y-6464000D02*
X4050000Y-6564000D01*
X4050000Y-6718000D02*
X4150000Y-6818000D01*
X4150000Y-6718000D02*
X4050000Y-6818000D01*
X4050000Y-6972000D02*
X4150000Y-7072000D01*
X4150000Y-6972000D02*
X4050000Y-7072000D01*
X4050000Y-7226000D02*
X4150000Y-7326000D01*
X4150000Y-7226000D02*
X4050000Y-7326000D01*
X4050000Y-7480000D02*
X4150000Y-7580000D01*
X4150000Y-7480000D02*
X4050000Y-7580000D01*
X4050000Y-7734000D02*
X4150000Y-7834000D01*
X4150000Y-7734000D02*
X4050000Y-7834000D01*
X4050000Y-7988000D02*
X4150000Y-8088000D01*
X4150000Y-7988000D02*
X4050000Y-8088000D01*
X4050000Y-8242000D02*
X4150000Y-8342000D01*
X4150000Y-8242000D02*
X4050000Y-8342000D01*
D11*
X3045119Y-8795976D02*
X3045119Y-8595976D01*
X3045119Y-8595976D02*
X3092738Y-8595976D01*
X3092738Y-8595976D02*
X3121309Y-8605500D01*
X3121309Y-8605500D02*
X3140357Y-8624548D01*
X3140357Y-8624548D02*
X3149881Y-8643595D01*
X3149881Y-8643595D02*
X3159405Y-8681690D01*
X3159405Y-8681690D02*
X3159405Y-8710262D01*
X3159405Y-8710262D02*
X3149881Y-8748357D01*
X3149881Y-8748357D02*
X3140357Y-8767405D01*
X3140357Y-8767405D02*
X3121309Y-8786452D01*
X3121309Y-8786452D02*
X3092738Y-8795976D01*
X3092738Y-8795976D02*
X3045119Y-8795976D01*
X3245119Y-8795976D02*
X3245119Y-8662643D01*
X3245119Y-8700738D02*
X3254643Y-8681690D01*
X3254643Y-8681690D02*
X3264167Y-8672167D01*
X3264167Y-8672167D02*
X3283214Y-8662643D01*
X3283214Y-8662643D02*
X3302262Y-8662643D01*
X3368928Y-8795976D02*
X3368928Y-8662643D01*
X3368928Y-8595976D02*
X3359405Y-8605500D01*
X3359405Y-8605500D02*
X3368928Y-8615024D01*
X3368928Y-8615024D02*
X3378452Y-8605500D01*
X3378452Y-8605500D02*
X3368928Y-8595976D01*
X3368928Y-8595976D02*
X3368928Y-8615024D01*
X3492738Y-8795976D02*
X3473690Y-8786452D01*
X3473690Y-8786452D02*
X3464167Y-8767405D01*
X3464167Y-8767405D02*
X3464167Y-8595976D01*
X3597500Y-8795976D02*
X3578452Y-8786452D01*
X3578452Y-8786452D02*
X3568928Y-8767405D01*
X3568928Y-8767405D02*
X3568928Y-8595976D01*
X3793690Y-8795976D02*
X3793690Y-8595976D01*
X3793690Y-8595976D02*
X3860357Y-8738833D01*
X3860357Y-8738833D02*
X3927024Y-8595976D01*
X3927024Y-8595976D02*
X3927024Y-8795976D01*
X4107976Y-8795976D02*
X4107976Y-8691214D01*
X4107976Y-8691214D02*
X4098452Y-8672167D01*
X4098452Y-8672167D02*
X4079405Y-8662643D01*
X4079405Y-8662643D02*
X4041309Y-8662643D01*
X4041309Y-8662643D02*
X4022262Y-8672167D01*
X4107976Y-8786452D02*
X4088928Y-8795976D01*
X4088928Y-8795976D02*
X4041309Y-8795976D01*
X4041309Y-8795976D02*
X4022262Y-8786452D01*
X4022262Y-8786452D02*
X4012738Y-8767405D01*
X4012738Y-8767405D02*
X4012738Y-8748357D01*
X4012738Y-8748357D02*
X4022262Y-8729310D01*
X4022262Y-8729310D02*
X4041309Y-8719786D01*
X4041309Y-8719786D02*
X4088928Y-8719786D01*
X4088928Y-8719786D02*
X4107976Y-8710262D01*
X4203214Y-8662643D02*
X4203214Y-8862643D01*
X4203214Y-8672167D02*
X4222262Y-8662643D01*
X4222262Y-8662643D02*
X4260357Y-8662643D01*
X4260357Y-8662643D02*
X4279405Y-8672167D01*
X4279405Y-8672167D02*
X4288929Y-8681690D01*
X4288929Y-8681690D02*
X4298452Y-8700738D01*
X4298452Y-8700738D02*
X4298452Y-8757881D01*
X4298452Y-8757881D02*
X4288929Y-8776929D01*
X4288929Y-8776929D02*
X4279405Y-8786452D01*
X4279405Y-8786452D02*
X4260357Y-8795976D01*
X4260357Y-8795976D02*
X4222262Y-8795976D01*
X4222262Y-8795976D02*
X4203214Y-8786452D01*
X4384167Y-8776929D02*
X4393690Y-8786452D01*
X4393690Y-8786452D02*
X4384167Y-8795976D01*
X4384167Y-8795976D02*
X4374643Y-8786452D01*
X4374643Y-8786452D02*
X4384167Y-8776929D01*
X4384167Y-8776929D02*
X4384167Y-8795976D01*
X4384167Y-8672167D02*
X4393690Y-8681690D01*
X4393690Y-8681690D02*
X4384167Y-8691214D01*
X4384167Y-8691214D02*
X4374643Y-8681690D01*
X4374643Y-8681690D02*
X4384167Y-8672167D01*
X4384167Y-8672167D02*
X4384167Y-8691214D01*
D12*
X2697500Y-9092500D02*
X2797500Y-9192500D01*
X2797500Y-9092500D02*
X2697500Y-9192500D01*
D11*
X3149881Y-9215976D02*
X3035595Y-9215976D01*
X3092738Y-9215976D02*
X3092738Y-9015976D01*
X3092738Y-9015976D02*
X3073690Y-9044548D01*
X3073690Y-9044548D02*
X3054643Y-9063595D01*
X3054643Y-9063595D02*
X3035595Y-9073119D01*
X3235595Y-9196929D02*
X3245119Y-9206452D01*
X3245119Y-9206452D02*
X3235595Y-9215976D01*
X3235595Y-9215976D02*
X3226071Y-9206452D01*
X3226071Y-9206452D02*
X3235595Y-9196929D01*
X3235595Y-9196929D02*
X3235595Y-9215976D01*
X3368928Y-9015976D02*
X3387976Y-9015976D01*
X3387976Y-9015976D02*
X3407024Y-9025500D01*
X3407024Y-9025500D02*
X3416548Y-9035024D01*
X3416548Y-9035024D02*
X3426071Y-9054071D01*
X3426071Y-9054071D02*
X3435595Y-9092167D01*
X3435595Y-9092167D02*
X3435595Y-9139786D01*
X3435595Y-9139786D02*
X3426071Y-9177881D01*
X3426071Y-9177881D02*
X3416548Y-9196929D01*
X3416548Y-9196929D02*
X3407024Y-9206452D01*
X3407024Y-9206452D02*
X3387976Y-9215976D01*
X3387976Y-9215976D02*
X3368928Y-9215976D01*
X3368928Y-9215976D02*
X3349881Y-9206452D01*
X3349881Y-9206452D02*
X3340357Y-9196929D01*
X3340357Y-9196929D02*
X3330833Y-9177881D01*
X3330833Y-9177881D02*
X3321309Y-9139786D01*
X3321309Y-9139786D02*
X3321309Y-9092167D01*
X3321309Y-9092167D02*
X3330833Y-9054071D01*
X3330833Y-9054071D02*
X3340357Y-9035024D01*
X3340357Y-9035024D02*
X3349881Y-9025500D01*
X3349881Y-9025500D02*
X3368928Y-9015976D01*
X3559405Y-9015976D02*
X3578452Y-9015976D01*
X3578452Y-9015976D02*
X3597500Y-9025500D01*
X3597500Y-9025500D02*
X3607024Y-9035024D01*
X3607024Y-9035024D02*
X3616548Y-9054071D01*
X3616548Y-9054071D02*
X3626071Y-9092167D01*
X3626071Y-9092167D02*
X3626071Y-9139786D01*
X3626071Y-9139786D02*
X3616548Y-9177881D01*
X3616548Y-9177881D02*
X3607024Y-9196929D01*
X3607024Y-9196929D02*
X3597500Y-9206452D01*
X3597500Y-9206452D02*
X3578452Y-9215976D01*
X3578452Y-9215976D02*
X3559405Y-9215976D01*
X3559405Y-9215976D02*
X3540357Y-9206452D01*
X3540357Y-9206452D02*
X3530833Y-9196929D01*
X3530833Y-9196929D02*
X3521309Y-9177881D01*
X3521309Y-9177881D02*
X3511786Y-9139786D01*
X3511786Y-9139786D02*
X3511786Y-9092167D01*
X3511786Y-9092167D02*
X3521309Y-9054071D01*
X3521309Y-9054071D02*
X3530833Y-9035024D01*
X3530833Y-9035024D02*
X3540357Y-9025500D01*
X3540357Y-9025500D02*
X3559405Y-9015976D01*
X3749881Y-9015976D02*
X3768929Y-9015976D01*
X3768929Y-9015976D02*
X3787976Y-9025500D01*
X3787976Y-9025500D02*
X3797500Y-9035024D01*
X3797500Y-9035024D02*
X3807024Y-9054071D01*
X3807024Y-9054071D02*
X3816548Y-9092167D01*
X3816548Y-9092167D02*
X3816548Y-9139786D01*
X3816548Y-9139786D02*
X3807024Y-9177881D01*
X3807024Y-9177881D02*
X3797500Y-9196929D01*
X3797500Y-9196929D02*
X3787976Y-9206452D01*
X3787976Y-9206452D02*
X3768929Y-9215976D01*
X3768929Y-9215976D02*
X3749881Y-9215976D01*
X3749881Y-9215976D02*
X3730833Y-9206452D01*
X3730833Y-9206452D02*
X3721309Y-9196929D01*
X3721309Y-9196929D02*
X3711786Y-9177881D01*
X3711786Y-9177881D02*
X3702262Y-9139786D01*
X3702262Y-9139786D02*
X3702262Y-9092167D01*
X3702262Y-9092167D02*
X3711786Y-9054071D01*
X3711786Y-9054071D02*
X3721309Y-9035024D01*
X3721309Y-9035024D02*
X3730833Y-9025500D01*
X3730833Y-9025500D02*
X3749881Y-9015976D01*
X3902262Y-9215976D02*
X3902262Y-9082643D01*
X3902262Y-9101690D02*
X3911786Y-9092167D01*
X3911786Y-9092167D02*
X3930833Y-9082643D01*
X3930833Y-9082643D02*
X3959405Y-9082643D01*
X3959405Y-9082643D02*
X3978452Y-9092167D01*
X3978452Y-9092167D02*
X3987976Y-9111214D01*
X3987976Y-9111214D02*
X3987976Y-9215976D01*
X3987976Y-9111214D02*
X3997500Y-9092167D01*
X3997500Y-9092167D02*
X4016548Y-9082643D01*
X4016548Y-9082643D02*
X4045119Y-9082643D01*
X4045119Y-9082643D02*
X4064167Y-9092167D01*
X4064167Y-9092167D02*
X4073690Y-9111214D01*
X4073690Y-9111214D02*
X4073690Y-9215976D01*
X4168929Y-9215976D02*
X4168929Y-9082643D01*
X4168929Y-9101690D02*
X4178452Y-9092167D01*
X4178452Y-9092167D02*
X4197500Y-9082643D01*
X4197500Y-9082643D02*
X4226072Y-9082643D01*
X4226072Y-9082643D02*
X4245119Y-9092167D01*
X4245119Y-9092167D02*
X4254643Y-9111214D01*
X4254643Y-9111214D02*
X4254643Y-9215976D01*
X4254643Y-9111214D02*
X4264167Y-9092167D01*
X4264167Y-9092167D02*
X4283214Y-9082643D01*
X4283214Y-9082643D02*
X4311786Y-9082643D01*
X4311786Y-9082643D02*
X4330833Y-9092167D01*
X4330833Y-9092167D02*
X4340357Y-9111214D01*
X4340357Y-9111214D02*
X4340357Y-9215976D01*
X4698452Y-9006452D02*
X4527024Y-9263595D01*
X4923214Y-9015976D02*
X4942262Y-9015976D01*
X4942262Y-9015976D02*
X4961310Y-9025500D01*
X4961310Y-9025500D02*
X4970833Y-9035024D01*
X4970833Y-9035024D02*
X4980357Y-9054071D01*
X4980357Y-9054071D02*
X4989881Y-9092167D01*
X4989881Y-9092167D02*
X4989881Y-9139786D01*
X4989881Y-9139786D02*
X4980357Y-9177881D01*
X4980357Y-9177881D02*
X4970833Y-9196929D01*
X4970833Y-9196929D02*
X4961310Y-9206452D01*
X4961310Y-9206452D02*
X4942262Y-9215976D01*
X4942262Y-9215976D02*
X4923214Y-9215976D01*
X4923214Y-9215976D02*
X4904167Y-9206452D01*
X4904167Y-9206452D02*
X4894643Y-9196929D01*
X4894643Y-9196929D02*
X4885119Y-9177881D01*
X4885119Y-9177881D02*
X4875595Y-9139786D01*
X4875595Y-9139786D02*
X4875595Y-9092167D01*
X4875595Y-9092167D02*
X4885119Y-9054071D01*
X4885119Y-9054071D02*
X4894643Y-9035024D01*
X4894643Y-9035024D02*
X4904167Y-9025500D01*
X4904167Y-9025500D02*
X4923214Y-9015976D01*
X5075595Y-9196929D02*
X5085119Y-9206452D01*
X5085119Y-9206452D02*
X5075595Y-9215976D01*
X5075595Y-9215976D02*
X5066072Y-9206452D01*
X5066072Y-9206452D02*
X5075595Y-9196929D01*
X5075595Y-9196929D02*
X5075595Y-9215976D01*
X5208929Y-9015976D02*
X5227976Y-9015976D01*
X5227976Y-9015976D02*
X5247024Y-9025500D01*
X5247024Y-9025500D02*
X5256548Y-9035024D01*
X5256548Y-9035024D02*
X5266072Y-9054071D01*
X5266072Y-9054071D02*
X5275595Y-9092167D01*
X5275595Y-9092167D02*
X5275595Y-9139786D01*
X5275595Y-9139786D02*
X5266072Y-9177881D01*
X5266072Y-9177881D02*
X5256548Y-9196929D01*
X5256548Y-9196929D02*
X5247024Y-9206452D01*
X5247024Y-9206452D02*
X5227976Y-9215976D01*
X5227976Y-9215976D02*
X5208929Y-9215976D01*
X5208929Y-9215976D02*
X5189881Y-9206452D01*
X5189881Y-9206452D02*
X5180357Y-9196929D01*
X5180357Y-9196929D02*
X5170833Y-9177881D01*
X5170833Y-9177881D02*
X5161310Y-9139786D01*
X5161310Y-9139786D02*
X5161310Y-9092167D01*
X5161310Y-9092167D02*
X5170833Y-9054071D01*
X5170833Y-9054071D02*
X5180357Y-9035024D01*
X5180357Y-9035024D02*
X5189881Y-9025500D01*
X5189881Y-9025500D02*
X5208929Y-9015976D01*
X5342262Y-9015976D02*
X5466072Y-9015976D01*
X5466072Y-9015976D02*
X5399405Y-9092167D01*
X5399405Y-9092167D02*
X5427976Y-9092167D01*
X5427976Y-9092167D02*
X5447024Y-9101690D01*
X5447024Y-9101690D02*
X5456548Y-9111214D01*
X5456548Y-9111214D02*
X5466072Y-9130262D01*
X5466072Y-9130262D02*
X5466072Y-9177881D01*
X5466072Y-9177881D02*
X5456548Y-9196929D01*
X5456548Y-9196929D02*
X5447024Y-9206452D01*
X5447024Y-9206452D02*
X5427976Y-9215976D01*
X5427976Y-9215976D02*
X5370833Y-9215976D01*
X5370833Y-9215976D02*
X5351786Y-9206452D01*
X5351786Y-9206452D02*
X5342262Y-9196929D01*
X5561310Y-9215976D02*
X5599405Y-9215976D01*
X5599405Y-9215976D02*
X5618452Y-9206452D01*
X5618452Y-9206452D02*
X5627976Y-9196929D01*
X5627976Y-9196929D02*
X5647024Y-9168357D01*
X5647024Y-9168357D02*
X5656548Y-9130262D01*
X5656548Y-9130262D02*
X5656548Y-9054071D01*
X5656548Y-9054071D02*
X5647024Y-9035024D01*
X5647024Y-9035024D02*
X5637500Y-9025500D01*
X5637500Y-9025500D02*
X5618452Y-9015976D01*
X5618452Y-9015976D02*
X5580357Y-9015976D01*
X5580357Y-9015976D02*
X5561310Y-9025500D01*
X5561310Y-9025500D02*
X5551786Y-9035024D01*
X5551786Y-9035024D02*
X5542262Y-9054071D01*
X5542262Y-9054071D02*
X5542262Y-9101690D01*
X5542262Y-9101690D02*
X5551786Y-9120738D01*
X5551786Y-9120738D02*
X5561310Y-9130262D01*
X5561310Y-9130262D02*
X5580357Y-9139786D01*
X5580357Y-9139786D02*
X5618452Y-9139786D01*
X5618452Y-9139786D02*
X5637500Y-9130262D01*
X5637500Y-9130262D02*
X5647024Y-9120738D01*
X5647024Y-9120738D02*
X5656548Y-9101690D01*
X5827976Y-9082643D02*
X5827976Y-9215976D01*
X5780357Y-9006452D02*
X5732738Y-9149310D01*
X5732738Y-9149310D02*
X5856548Y-9149310D01*
X5923214Y-9015976D02*
X5923214Y-9054071D01*
X5999405Y-9015976D02*
X5999405Y-9054071D01*
X6262262Y-9292167D02*
X6252738Y-9282643D01*
X6252738Y-9282643D02*
X6233691Y-9254071D01*
X6233691Y-9254071D02*
X6224167Y-9235024D01*
X6224167Y-9235024D02*
X6214643Y-9206452D01*
X6214643Y-9206452D02*
X6205119Y-9158833D01*
X6205119Y-9158833D02*
X6205119Y-9120738D01*
X6205119Y-9120738D02*
X6214643Y-9073119D01*
X6214643Y-9073119D02*
X6224167Y-9044548D01*
X6224167Y-9044548D02*
X6233691Y-9025500D01*
X6233691Y-9025500D02*
X6252738Y-8996929D01*
X6252738Y-8996929D02*
X6262262Y-8987405D01*
X6443214Y-9215976D02*
X6328929Y-9215976D01*
X6386071Y-9215976D02*
X6386071Y-9015976D01*
X6386071Y-9015976D02*
X6367024Y-9044548D01*
X6367024Y-9044548D02*
X6347976Y-9063595D01*
X6347976Y-9063595D02*
X6328929Y-9073119D01*
X6519405Y-9035024D02*
X6528929Y-9025500D01*
X6528929Y-9025500D02*
X6547976Y-9015976D01*
X6547976Y-9015976D02*
X6595595Y-9015976D01*
X6595595Y-9015976D02*
X6614643Y-9025500D01*
X6614643Y-9025500D02*
X6624167Y-9035024D01*
X6624167Y-9035024D02*
X6633691Y-9054071D01*
X6633691Y-9054071D02*
X6633691Y-9073119D01*
X6633691Y-9073119D02*
X6624167Y-9101690D01*
X6624167Y-9101690D02*
X6509881Y-9215976D01*
X6509881Y-9215976D02*
X6633691Y-9215976D01*
X6839405Y-9215976D02*
X6839405Y-9015976D01*
X6925119Y-9215976D02*
X6925119Y-9111214D01*
X6925119Y-9111214D02*
X6915595Y-9092167D01*
X6915595Y-9092167D02*
X6896548Y-9082643D01*
X6896548Y-9082643D02*
X6867976Y-9082643D01*
X6867976Y-9082643D02*
X6848929Y-9092167D01*
X6848929Y-9092167D02*
X6839405Y-9101690D01*
X7048929Y-9215976D02*
X7029881Y-9206452D01*
X7029881Y-9206452D02*
X7020357Y-9196929D01*
X7020357Y-9196929D02*
X7010833Y-9177881D01*
X7010833Y-9177881D02*
X7010833Y-9120738D01*
X7010833Y-9120738D02*
X7020357Y-9101690D01*
X7020357Y-9101690D02*
X7029881Y-9092167D01*
X7029881Y-9092167D02*
X7048929Y-9082643D01*
X7048929Y-9082643D02*
X7077500Y-9082643D01*
X7077500Y-9082643D02*
X7096548Y-9092167D01*
X7096548Y-9092167D02*
X7106072Y-9101690D01*
X7106072Y-9101690D02*
X7115595Y-9120738D01*
X7115595Y-9120738D02*
X7115595Y-9177881D01*
X7115595Y-9177881D02*
X7106072Y-9196929D01*
X7106072Y-9196929D02*
X7096548Y-9206452D01*
X7096548Y-9206452D02*
X7077500Y-9215976D01*
X7077500Y-9215976D02*
X7048929Y-9215976D01*
X7229881Y-9215976D02*
X7210833Y-9206452D01*
X7210833Y-9206452D02*
X7201310Y-9187405D01*
X7201310Y-9187405D02*
X7201310Y-9015976D01*
X7382262Y-9206452D02*
X7363214Y-9215976D01*
X7363214Y-9215976D02*
X7325119Y-9215976D01*
X7325119Y-9215976D02*
X7306072Y-9206452D01*
X7306072Y-9206452D02*
X7296548Y-9187405D01*
X7296548Y-9187405D02*
X7296548Y-9111214D01*
X7296548Y-9111214D02*
X7306072Y-9092167D01*
X7306072Y-9092167D02*
X7325119Y-9082643D01*
X7325119Y-9082643D02*
X7363214Y-9082643D01*
X7363214Y-9082643D02*
X7382262Y-9092167D01*
X7382262Y-9092167D02*
X7391786Y-9111214D01*
X7391786Y-9111214D02*
X7391786Y-9130262D01*
X7391786Y-9130262D02*
X7296548Y-9149310D01*
X7467976Y-9206452D02*
X7487024Y-9215976D01*
X7487024Y-9215976D02*
X7525119Y-9215976D01*
X7525119Y-9215976D02*
X7544167Y-9206452D01*
X7544167Y-9206452D02*
X7553691Y-9187405D01*
X7553691Y-9187405D02*
X7553691Y-9177881D01*
X7553691Y-9177881D02*
X7544167Y-9158833D01*
X7544167Y-9158833D02*
X7525119Y-9149310D01*
X7525119Y-9149310D02*
X7496548Y-9149310D01*
X7496548Y-9149310D02*
X7477500Y-9139786D01*
X7477500Y-9139786D02*
X7467976Y-9120738D01*
X7467976Y-9120738D02*
X7467976Y-9111214D01*
X7467976Y-9111214D02*
X7477500Y-9092167D01*
X7477500Y-9092167D02*
X7496548Y-9082643D01*
X7496548Y-9082643D02*
X7525119Y-9082643D01*
X7525119Y-9082643D02*
X7544167Y-9092167D01*
X7620357Y-9292167D02*
X7629881Y-9282643D01*
X7629881Y-9282643D02*
X7648929Y-9254071D01*
X7648929Y-9254071D02*
X7658453Y-9235024D01*
X7658453Y-9235024D02*
X7667976Y-9206452D01*
X7667976Y-9206452D02*
X7677500Y-9158833D01*
X7677500Y-9158833D02*
X7677500Y-9120738D01*
X7677500Y-9120738D02*
X7667976Y-9073119D01*
X7667976Y-9073119D02*
X7658453Y-9044548D01*
X7658453Y-9044548D02*
X7648929Y-9025500D01*
X7648929Y-9025500D02*
X7629881Y-8996929D01*
X7629881Y-8996929D02*
X7620357Y-8987405D01*
M02*
