%TF.GenerationSoftware,KiCad,Pcbnew,(7.0.0-0)*%
%TF.CreationDate,2023-06-30T11:37:03+08:00*%
%TF.ProjectId,cirque-connector,63697271-7565-42d6-936f-6e6e6563746f,rev?*%
%TF.SameCoordinates,Original*%
%TF.FileFunction,Drillmap*%
%TF.FilePolarity,Positive*%
%FSLAX45Y45*%
G04 Gerber Fmt 4.5, Leading zero omitted, Abs format (unit mm)*
G04 Created by KiCad (PCBNEW (7.0.0-0)) date 2023-06-30 11:37:03*
%MOMM*%
%LPD*%
G01*
G04 APERTURE LIST*
%ADD10C,0.050000*%
%ADD11C,0.200000*%
%ADD12C,0.220000*%
G04 APERTURE END LIST*
D10*
X2800000Y-5100000D02*
X4300000Y-5100000D01*
X2800000Y-8500000D02*
X4300000Y-8500000D01*
X4300000Y-5100000D02*
X4300000Y-8500000D01*
X2800000Y-5100000D02*
X2800000Y-8500000D01*
D11*
D12*
X2890000Y-5190000D02*
X3110000Y-5410000D01*
X3110000Y-5190000D02*
X2890000Y-5410000D01*
X2890000Y-8190000D02*
X3110000Y-8410000D01*
X3110000Y-8190000D02*
X2890000Y-8410000D01*
X3590000Y-5190000D02*
X3810000Y-5410000D01*
X3810000Y-5190000D02*
X3590000Y-5410000D01*
X3590000Y-8190000D02*
X3810000Y-8410000D01*
X3810000Y-8190000D02*
X3590000Y-8410000D01*
D11*
X3045119Y-8795976D02*
X3045119Y-8595976D01*
X3045119Y-8595976D02*
X3092738Y-8595976D01*
X3092738Y-8595976D02*
X3121309Y-8605500D01*
X3121309Y-8605500D02*
X3140357Y-8624548D01*
X3140357Y-8624548D02*
X3149881Y-8643595D01*
X3149881Y-8643595D02*
X3159405Y-8681690D01*
X3159405Y-8681690D02*
X3159405Y-8710262D01*
X3159405Y-8710262D02*
X3149881Y-8748357D01*
X3149881Y-8748357D02*
X3140357Y-8767405D01*
X3140357Y-8767405D02*
X3121309Y-8786452D01*
X3121309Y-8786452D02*
X3092738Y-8795976D01*
X3092738Y-8795976D02*
X3045119Y-8795976D01*
X3245119Y-8795976D02*
X3245119Y-8662643D01*
X3245119Y-8700738D02*
X3254643Y-8681690D01*
X3254643Y-8681690D02*
X3264167Y-8672167D01*
X3264167Y-8672167D02*
X3283214Y-8662643D01*
X3283214Y-8662643D02*
X3302262Y-8662643D01*
X3368928Y-8795976D02*
X3368928Y-8662643D01*
X3368928Y-8595976D02*
X3359405Y-8605500D01*
X3359405Y-8605500D02*
X3368928Y-8615024D01*
X3368928Y-8615024D02*
X3378452Y-8605500D01*
X3378452Y-8605500D02*
X3368928Y-8595976D01*
X3368928Y-8595976D02*
X3368928Y-8615024D01*
X3492738Y-8795976D02*
X3473690Y-8786452D01*
X3473690Y-8786452D02*
X3464167Y-8767405D01*
X3464167Y-8767405D02*
X3464167Y-8595976D01*
X3597500Y-8795976D02*
X3578452Y-8786452D01*
X3578452Y-8786452D02*
X3568928Y-8767405D01*
X3568928Y-8767405D02*
X3568928Y-8595976D01*
X3793690Y-8795976D02*
X3793690Y-8595976D01*
X3793690Y-8595976D02*
X3860357Y-8738833D01*
X3860357Y-8738833D02*
X3927024Y-8595976D01*
X3927024Y-8595976D02*
X3927024Y-8795976D01*
X4107976Y-8795976D02*
X4107976Y-8691214D01*
X4107976Y-8691214D02*
X4098452Y-8672167D01*
X4098452Y-8672167D02*
X4079405Y-8662643D01*
X4079405Y-8662643D02*
X4041309Y-8662643D01*
X4041309Y-8662643D02*
X4022262Y-8672167D01*
X4107976Y-8786452D02*
X4088928Y-8795976D01*
X4088928Y-8795976D02*
X4041309Y-8795976D01*
X4041309Y-8795976D02*
X4022262Y-8786452D01*
X4022262Y-8786452D02*
X4012738Y-8767405D01*
X4012738Y-8767405D02*
X4012738Y-8748357D01*
X4012738Y-8748357D02*
X4022262Y-8729310D01*
X4022262Y-8729310D02*
X4041309Y-8719786D01*
X4041309Y-8719786D02*
X4088928Y-8719786D01*
X4088928Y-8719786D02*
X4107976Y-8710262D01*
X4203214Y-8662643D02*
X4203214Y-8862643D01*
X4203214Y-8672167D02*
X4222262Y-8662643D01*
X4222262Y-8662643D02*
X4260357Y-8662643D01*
X4260357Y-8662643D02*
X4279405Y-8672167D01*
X4279405Y-8672167D02*
X4288929Y-8681690D01*
X4288929Y-8681690D02*
X4298452Y-8700738D01*
X4298452Y-8700738D02*
X4298452Y-8757881D01*
X4298452Y-8757881D02*
X4288929Y-8776929D01*
X4288929Y-8776929D02*
X4279405Y-8786452D01*
X4279405Y-8786452D02*
X4260357Y-8795976D01*
X4260357Y-8795976D02*
X4222262Y-8795976D01*
X4222262Y-8795976D02*
X4203214Y-8786452D01*
X4384167Y-8776929D02*
X4393690Y-8786452D01*
X4393690Y-8786452D02*
X4384167Y-8795976D01*
X4384167Y-8795976D02*
X4374643Y-8786452D01*
X4374643Y-8786452D02*
X4384167Y-8776929D01*
X4384167Y-8776929D02*
X4384167Y-8795976D01*
X4384167Y-8672167D02*
X4393690Y-8681690D01*
X4393690Y-8681690D02*
X4384167Y-8691214D01*
X4384167Y-8691214D02*
X4374643Y-8681690D01*
X4374643Y-8681690D02*
X4384167Y-8672167D01*
X4384167Y-8672167D02*
X4384167Y-8691214D01*
X2597500Y-9042500D02*
X2797500Y-9242500D01*
X2797500Y-9042500D02*
X2597500Y-9242500D01*
X3035595Y-9035024D02*
X3045119Y-9025500D01*
X3045119Y-9025500D02*
X3064167Y-9015976D01*
X3064167Y-9015976D02*
X3111786Y-9015976D01*
X3111786Y-9015976D02*
X3130833Y-9025500D01*
X3130833Y-9025500D02*
X3140357Y-9035024D01*
X3140357Y-9035024D02*
X3149881Y-9054071D01*
X3149881Y-9054071D02*
X3149881Y-9073119D01*
X3149881Y-9073119D02*
X3140357Y-9101690D01*
X3140357Y-9101690D02*
X3026071Y-9215976D01*
X3026071Y-9215976D02*
X3149881Y-9215976D01*
X3235595Y-9196929D02*
X3245119Y-9206452D01*
X3245119Y-9206452D02*
X3235595Y-9215976D01*
X3235595Y-9215976D02*
X3226071Y-9206452D01*
X3226071Y-9206452D02*
X3235595Y-9196929D01*
X3235595Y-9196929D02*
X3235595Y-9215976D01*
X3321309Y-9035024D02*
X3330833Y-9025500D01*
X3330833Y-9025500D02*
X3349881Y-9015976D01*
X3349881Y-9015976D02*
X3397500Y-9015976D01*
X3397500Y-9015976D02*
X3416548Y-9025500D01*
X3416548Y-9025500D02*
X3426071Y-9035024D01*
X3426071Y-9035024D02*
X3435595Y-9054071D01*
X3435595Y-9054071D02*
X3435595Y-9073119D01*
X3435595Y-9073119D02*
X3426071Y-9101690D01*
X3426071Y-9101690D02*
X3311786Y-9215976D01*
X3311786Y-9215976D02*
X3435595Y-9215976D01*
X3559405Y-9015976D02*
X3578452Y-9015976D01*
X3578452Y-9015976D02*
X3597500Y-9025500D01*
X3597500Y-9025500D02*
X3607024Y-9035024D01*
X3607024Y-9035024D02*
X3616548Y-9054071D01*
X3616548Y-9054071D02*
X3626071Y-9092167D01*
X3626071Y-9092167D02*
X3626071Y-9139786D01*
X3626071Y-9139786D02*
X3616548Y-9177881D01*
X3616548Y-9177881D02*
X3607024Y-9196929D01*
X3607024Y-9196929D02*
X3597500Y-9206452D01*
X3597500Y-9206452D02*
X3578452Y-9215976D01*
X3578452Y-9215976D02*
X3559405Y-9215976D01*
X3559405Y-9215976D02*
X3540357Y-9206452D01*
X3540357Y-9206452D02*
X3530833Y-9196929D01*
X3530833Y-9196929D02*
X3521309Y-9177881D01*
X3521309Y-9177881D02*
X3511786Y-9139786D01*
X3511786Y-9139786D02*
X3511786Y-9092167D01*
X3511786Y-9092167D02*
X3521309Y-9054071D01*
X3521309Y-9054071D02*
X3530833Y-9035024D01*
X3530833Y-9035024D02*
X3540357Y-9025500D01*
X3540357Y-9025500D02*
X3559405Y-9015976D01*
X3749881Y-9015976D02*
X3768929Y-9015976D01*
X3768929Y-9015976D02*
X3787976Y-9025500D01*
X3787976Y-9025500D02*
X3797500Y-9035024D01*
X3797500Y-9035024D02*
X3807024Y-9054071D01*
X3807024Y-9054071D02*
X3816548Y-9092167D01*
X3816548Y-9092167D02*
X3816548Y-9139786D01*
X3816548Y-9139786D02*
X3807024Y-9177881D01*
X3807024Y-9177881D02*
X3797500Y-9196929D01*
X3797500Y-9196929D02*
X3787976Y-9206452D01*
X3787976Y-9206452D02*
X3768929Y-9215976D01*
X3768929Y-9215976D02*
X3749881Y-9215976D01*
X3749881Y-9215976D02*
X3730833Y-9206452D01*
X3730833Y-9206452D02*
X3721309Y-9196929D01*
X3721309Y-9196929D02*
X3711786Y-9177881D01*
X3711786Y-9177881D02*
X3702262Y-9139786D01*
X3702262Y-9139786D02*
X3702262Y-9092167D01*
X3702262Y-9092167D02*
X3711786Y-9054071D01*
X3711786Y-9054071D02*
X3721309Y-9035024D01*
X3721309Y-9035024D02*
X3730833Y-9025500D01*
X3730833Y-9025500D02*
X3749881Y-9015976D01*
X3902262Y-9215976D02*
X3902262Y-9082643D01*
X3902262Y-9101690D02*
X3911786Y-9092167D01*
X3911786Y-9092167D02*
X3930833Y-9082643D01*
X3930833Y-9082643D02*
X3959405Y-9082643D01*
X3959405Y-9082643D02*
X3978452Y-9092167D01*
X3978452Y-9092167D02*
X3987976Y-9111214D01*
X3987976Y-9111214D02*
X3987976Y-9215976D01*
X3987976Y-9111214D02*
X3997500Y-9092167D01*
X3997500Y-9092167D02*
X4016548Y-9082643D01*
X4016548Y-9082643D02*
X4045119Y-9082643D01*
X4045119Y-9082643D02*
X4064167Y-9092167D01*
X4064167Y-9092167D02*
X4073690Y-9111214D01*
X4073690Y-9111214D02*
X4073690Y-9215976D01*
X4168929Y-9215976D02*
X4168929Y-9082643D01*
X4168929Y-9101690D02*
X4178452Y-9092167D01*
X4178452Y-9092167D02*
X4197500Y-9082643D01*
X4197500Y-9082643D02*
X4226072Y-9082643D01*
X4226072Y-9082643D02*
X4245119Y-9092167D01*
X4245119Y-9092167D02*
X4254643Y-9111214D01*
X4254643Y-9111214D02*
X4254643Y-9215976D01*
X4254643Y-9111214D02*
X4264167Y-9092167D01*
X4264167Y-9092167D02*
X4283214Y-9082643D01*
X4283214Y-9082643D02*
X4311786Y-9082643D01*
X4311786Y-9082643D02*
X4330833Y-9092167D01*
X4330833Y-9092167D02*
X4340357Y-9111214D01*
X4340357Y-9111214D02*
X4340357Y-9215976D01*
X4698452Y-9006452D02*
X4527024Y-9263595D01*
X4923214Y-9015976D02*
X4942262Y-9015976D01*
X4942262Y-9015976D02*
X4961310Y-9025500D01*
X4961310Y-9025500D02*
X4970833Y-9035024D01*
X4970833Y-9035024D02*
X4980357Y-9054071D01*
X4980357Y-9054071D02*
X4989881Y-9092167D01*
X4989881Y-9092167D02*
X4989881Y-9139786D01*
X4989881Y-9139786D02*
X4980357Y-9177881D01*
X4980357Y-9177881D02*
X4970833Y-9196929D01*
X4970833Y-9196929D02*
X4961310Y-9206452D01*
X4961310Y-9206452D02*
X4942262Y-9215976D01*
X4942262Y-9215976D02*
X4923214Y-9215976D01*
X4923214Y-9215976D02*
X4904167Y-9206452D01*
X4904167Y-9206452D02*
X4894643Y-9196929D01*
X4894643Y-9196929D02*
X4885119Y-9177881D01*
X4885119Y-9177881D02*
X4875595Y-9139786D01*
X4875595Y-9139786D02*
X4875595Y-9092167D01*
X4875595Y-9092167D02*
X4885119Y-9054071D01*
X4885119Y-9054071D02*
X4894643Y-9035024D01*
X4894643Y-9035024D02*
X4904167Y-9025500D01*
X4904167Y-9025500D02*
X4923214Y-9015976D01*
X5075595Y-9196929D02*
X5085119Y-9206452D01*
X5085119Y-9206452D02*
X5075595Y-9215976D01*
X5075595Y-9215976D02*
X5066072Y-9206452D01*
X5066072Y-9206452D02*
X5075595Y-9196929D01*
X5075595Y-9196929D02*
X5075595Y-9215976D01*
X5208929Y-9015976D02*
X5227976Y-9015976D01*
X5227976Y-9015976D02*
X5247024Y-9025500D01*
X5247024Y-9025500D02*
X5256548Y-9035024D01*
X5256548Y-9035024D02*
X5266072Y-9054071D01*
X5266072Y-9054071D02*
X5275595Y-9092167D01*
X5275595Y-9092167D02*
X5275595Y-9139786D01*
X5275595Y-9139786D02*
X5266072Y-9177881D01*
X5266072Y-9177881D02*
X5256548Y-9196929D01*
X5256548Y-9196929D02*
X5247024Y-9206452D01*
X5247024Y-9206452D02*
X5227976Y-9215976D01*
X5227976Y-9215976D02*
X5208929Y-9215976D01*
X5208929Y-9215976D02*
X5189881Y-9206452D01*
X5189881Y-9206452D02*
X5180357Y-9196929D01*
X5180357Y-9196929D02*
X5170833Y-9177881D01*
X5170833Y-9177881D02*
X5161310Y-9139786D01*
X5161310Y-9139786D02*
X5161310Y-9092167D01*
X5161310Y-9092167D02*
X5170833Y-9054071D01*
X5170833Y-9054071D02*
X5180357Y-9035024D01*
X5180357Y-9035024D02*
X5189881Y-9025500D01*
X5189881Y-9025500D02*
X5208929Y-9015976D01*
X5389881Y-9101690D02*
X5370833Y-9092167D01*
X5370833Y-9092167D02*
X5361310Y-9082643D01*
X5361310Y-9082643D02*
X5351786Y-9063595D01*
X5351786Y-9063595D02*
X5351786Y-9054071D01*
X5351786Y-9054071D02*
X5361310Y-9035024D01*
X5361310Y-9035024D02*
X5370833Y-9025500D01*
X5370833Y-9025500D02*
X5389881Y-9015976D01*
X5389881Y-9015976D02*
X5427976Y-9015976D01*
X5427976Y-9015976D02*
X5447024Y-9025500D01*
X5447024Y-9025500D02*
X5456548Y-9035024D01*
X5456548Y-9035024D02*
X5466072Y-9054071D01*
X5466072Y-9054071D02*
X5466072Y-9063595D01*
X5466072Y-9063595D02*
X5456548Y-9082643D01*
X5456548Y-9082643D02*
X5447024Y-9092167D01*
X5447024Y-9092167D02*
X5427976Y-9101690D01*
X5427976Y-9101690D02*
X5389881Y-9101690D01*
X5389881Y-9101690D02*
X5370833Y-9111214D01*
X5370833Y-9111214D02*
X5361310Y-9120738D01*
X5361310Y-9120738D02*
X5351786Y-9139786D01*
X5351786Y-9139786D02*
X5351786Y-9177881D01*
X5351786Y-9177881D02*
X5361310Y-9196929D01*
X5361310Y-9196929D02*
X5370833Y-9206452D01*
X5370833Y-9206452D02*
X5389881Y-9215976D01*
X5389881Y-9215976D02*
X5427976Y-9215976D01*
X5427976Y-9215976D02*
X5447024Y-9206452D01*
X5447024Y-9206452D02*
X5456548Y-9196929D01*
X5456548Y-9196929D02*
X5466072Y-9177881D01*
X5466072Y-9177881D02*
X5466072Y-9139786D01*
X5466072Y-9139786D02*
X5456548Y-9120738D01*
X5456548Y-9120738D02*
X5447024Y-9111214D01*
X5447024Y-9111214D02*
X5427976Y-9101690D01*
X5637500Y-9015976D02*
X5599405Y-9015976D01*
X5599405Y-9015976D02*
X5580357Y-9025500D01*
X5580357Y-9025500D02*
X5570833Y-9035024D01*
X5570833Y-9035024D02*
X5551786Y-9063595D01*
X5551786Y-9063595D02*
X5542262Y-9101690D01*
X5542262Y-9101690D02*
X5542262Y-9177881D01*
X5542262Y-9177881D02*
X5551786Y-9196929D01*
X5551786Y-9196929D02*
X5561310Y-9206452D01*
X5561310Y-9206452D02*
X5580357Y-9215976D01*
X5580357Y-9215976D02*
X5618452Y-9215976D01*
X5618452Y-9215976D02*
X5637500Y-9206452D01*
X5637500Y-9206452D02*
X5647024Y-9196929D01*
X5647024Y-9196929D02*
X5656548Y-9177881D01*
X5656548Y-9177881D02*
X5656548Y-9130262D01*
X5656548Y-9130262D02*
X5647024Y-9111214D01*
X5647024Y-9111214D02*
X5637500Y-9101690D01*
X5637500Y-9101690D02*
X5618452Y-9092167D01*
X5618452Y-9092167D02*
X5580357Y-9092167D01*
X5580357Y-9092167D02*
X5561310Y-9101690D01*
X5561310Y-9101690D02*
X5551786Y-9111214D01*
X5551786Y-9111214D02*
X5542262Y-9130262D01*
X5827976Y-9015976D02*
X5789881Y-9015976D01*
X5789881Y-9015976D02*
X5770833Y-9025500D01*
X5770833Y-9025500D02*
X5761310Y-9035024D01*
X5761310Y-9035024D02*
X5742262Y-9063595D01*
X5742262Y-9063595D02*
X5732738Y-9101690D01*
X5732738Y-9101690D02*
X5732738Y-9177881D01*
X5732738Y-9177881D02*
X5742262Y-9196929D01*
X5742262Y-9196929D02*
X5751786Y-9206452D01*
X5751786Y-9206452D02*
X5770833Y-9215976D01*
X5770833Y-9215976D02*
X5808929Y-9215976D01*
X5808929Y-9215976D02*
X5827976Y-9206452D01*
X5827976Y-9206452D02*
X5837500Y-9196929D01*
X5837500Y-9196929D02*
X5847024Y-9177881D01*
X5847024Y-9177881D02*
X5847024Y-9130262D01*
X5847024Y-9130262D02*
X5837500Y-9111214D01*
X5837500Y-9111214D02*
X5827976Y-9101690D01*
X5827976Y-9101690D02*
X5808929Y-9092167D01*
X5808929Y-9092167D02*
X5770833Y-9092167D01*
X5770833Y-9092167D02*
X5751786Y-9101690D01*
X5751786Y-9101690D02*
X5742262Y-9111214D01*
X5742262Y-9111214D02*
X5732738Y-9130262D01*
X5923214Y-9015976D02*
X5923214Y-9054071D01*
X5999405Y-9015976D02*
X5999405Y-9054071D01*
X6262262Y-9292167D02*
X6252738Y-9282643D01*
X6252738Y-9282643D02*
X6233691Y-9254071D01*
X6233691Y-9254071D02*
X6224167Y-9235024D01*
X6224167Y-9235024D02*
X6214643Y-9206452D01*
X6214643Y-9206452D02*
X6205119Y-9158833D01*
X6205119Y-9158833D02*
X6205119Y-9120738D01*
X6205119Y-9120738D02*
X6214643Y-9073119D01*
X6214643Y-9073119D02*
X6224167Y-9044548D01*
X6224167Y-9044548D02*
X6233691Y-9025500D01*
X6233691Y-9025500D02*
X6252738Y-8996929D01*
X6252738Y-8996929D02*
X6262262Y-8987405D01*
X6424167Y-9082643D02*
X6424167Y-9215976D01*
X6376548Y-9006452D02*
X6328929Y-9149310D01*
X6328929Y-9149310D02*
X6452738Y-9149310D01*
X6648929Y-9215976D02*
X6648929Y-9015976D01*
X6734643Y-9215976D02*
X6734643Y-9111214D01*
X6734643Y-9111214D02*
X6725119Y-9092167D01*
X6725119Y-9092167D02*
X6706072Y-9082643D01*
X6706072Y-9082643D02*
X6677500Y-9082643D01*
X6677500Y-9082643D02*
X6658452Y-9092167D01*
X6658452Y-9092167D02*
X6648929Y-9101690D01*
X6858452Y-9215976D02*
X6839405Y-9206452D01*
X6839405Y-9206452D02*
X6829881Y-9196929D01*
X6829881Y-9196929D02*
X6820357Y-9177881D01*
X6820357Y-9177881D02*
X6820357Y-9120738D01*
X6820357Y-9120738D02*
X6829881Y-9101690D01*
X6829881Y-9101690D02*
X6839405Y-9092167D01*
X6839405Y-9092167D02*
X6858452Y-9082643D01*
X6858452Y-9082643D02*
X6887024Y-9082643D01*
X6887024Y-9082643D02*
X6906072Y-9092167D01*
X6906072Y-9092167D02*
X6915595Y-9101690D01*
X6915595Y-9101690D02*
X6925119Y-9120738D01*
X6925119Y-9120738D02*
X6925119Y-9177881D01*
X6925119Y-9177881D02*
X6915595Y-9196929D01*
X6915595Y-9196929D02*
X6906072Y-9206452D01*
X6906072Y-9206452D02*
X6887024Y-9215976D01*
X6887024Y-9215976D02*
X6858452Y-9215976D01*
X7039405Y-9215976D02*
X7020357Y-9206452D01*
X7020357Y-9206452D02*
X7010833Y-9187405D01*
X7010833Y-9187405D02*
X7010833Y-9015976D01*
X7191786Y-9206452D02*
X7172738Y-9215976D01*
X7172738Y-9215976D02*
X7134643Y-9215976D01*
X7134643Y-9215976D02*
X7115595Y-9206452D01*
X7115595Y-9206452D02*
X7106072Y-9187405D01*
X7106072Y-9187405D02*
X7106072Y-9111214D01*
X7106072Y-9111214D02*
X7115595Y-9092167D01*
X7115595Y-9092167D02*
X7134643Y-9082643D01*
X7134643Y-9082643D02*
X7172738Y-9082643D01*
X7172738Y-9082643D02*
X7191786Y-9092167D01*
X7191786Y-9092167D02*
X7201310Y-9111214D01*
X7201310Y-9111214D02*
X7201310Y-9130262D01*
X7201310Y-9130262D02*
X7106072Y-9149310D01*
X7277500Y-9206452D02*
X7296548Y-9215976D01*
X7296548Y-9215976D02*
X7334643Y-9215976D01*
X7334643Y-9215976D02*
X7353691Y-9206452D01*
X7353691Y-9206452D02*
X7363214Y-9187405D01*
X7363214Y-9187405D02*
X7363214Y-9177881D01*
X7363214Y-9177881D02*
X7353691Y-9158833D01*
X7353691Y-9158833D02*
X7334643Y-9149310D01*
X7334643Y-9149310D02*
X7306072Y-9149310D01*
X7306072Y-9149310D02*
X7287024Y-9139786D01*
X7287024Y-9139786D02*
X7277500Y-9120738D01*
X7277500Y-9120738D02*
X7277500Y-9111214D01*
X7277500Y-9111214D02*
X7287024Y-9092167D01*
X7287024Y-9092167D02*
X7306072Y-9082643D01*
X7306072Y-9082643D02*
X7334643Y-9082643D01*
X7334643Y-9082643D02*
X7353691Y-9092167D01*
X7429881Y-9292167D02*
X7439405Y-9282643D01*
X7439405Y-9282643D02*
X7458453Y-9254071D01*
X7458453Y-9254071D02*
X7467976Y-9235024D01*
X7467976Y-9235024D02*
X7477500Y-9206452D01*
X7477500Y-9206452D02*
X7487024Y-9158833D01*
X7487024Y-9158833D02*
X7487024Y-9120738D01*
X7487024Y-9120738D02*
X7477500Y-9073119D01*
X7477500Y-9073119D02*
X7467976Y-9044548D01*
X7467976Y-9044548D02*
X7458453Y-9025500D01*
X7458453Y-9025500D02*
X7439405Y-8996929D01*
X7439405Y-8996929D02*
X7429881Y-8987405D01*
X7759405Y-9292167D02*
X7749881Y-9282643D01*
X7749881Y-9282643D02*
X7730833Y-9254071D01*
X7730833Y-9254071D02*
X7721310Y-9235024D01*
X7721310Y-9235024D02*
X7711786Y-9206452D01*
X7711786Y-9206452D02*
X7702262Y-9158833D01*
X7702262Y-9158833D02*
X7702262Y-9120738D01*
X7702262Y-9120738D02*
X7711786Y-9073119D01*
X7711786Y-9073119D02*
X7721310Y-9044548D01*
X7721310Y-9044548D02*
X7730833Y-9025500D01*
X7730833Y-9025500D02*
X7749881Y-8996929D01*
X7749881Y-8996929D02*
X7759405Y-8987405D01*
X7835595Y-9082643D02*
X7835595Y-9215976D01*
X7835595Y-9101690D02*
X7845119Y-9092167D01*
X7845119Y-9092167D02*
X7864167Y-9082643D01*
X7864167Y-9082643D02*
X7892738Y-9082643D01*
X7892738Y-9082643D02*
X7911786Y-9092167D01*
X7911786Y-9092167D02*
X7921310Y-9111214D01*
X7921310Y-9111214D02*
X7921310Y-9215976D01*
X8045119Y-9215976D02*
X8026072Y-9206452D01*
X8026072Y-9206452D02*
X8016548Y-9196929D01*
X8016548Y-9196929D02*
X8007024Y-9177881D01*
X8007024Y-9177881D02*
X8007024Y-9120738D01*
X8007024Y-9120738D02*
X8016548Y-9101690D01*
X8016548Y-9101690D02*
X8026072Y-9092167D01*
X8026072Y-9092167D02*
X8045119Y-9082643D01*
X8045119Y-9082643D02*
X8073691Y-9082643D01*
X8073691Y-9082643D02*
X8092738Y-9092167D01*
X8092738Y-9092167D02*
X8102262Y-9101690D01*
X8102262Y-9101690D02*
X8111786Y-9120738D01*
X8111786Y-9120738D02*
X8111786Y-9177881D01*
X8111786Y-9177881D02*
X8102262Y-9196929D01*
X8102262Y-9196929D02*
X8092738Y-9206452D01*
X8092738Y-9206452D02*
X8073691Y-9215976D01*
X8073691Y-9215976D02*
X8045119Y-9215976D01*
X8168929Y-9082643D02*
X8245119Y-9082643D01*
X8197500Y-9015976D02*
X8197500Y-9187405D01*
X8197500Y-9187405D02*
X8207024Y-9206452D01*
X8207024Y-9206452D02*
X8226072Y-9215976D01*
X8226072Y-9215976D02*
X8245119Y-9215976D01*
X8431786Y-9082643D02*
X8431786Y-9282643D01*
X8431786Y-9092167D02*
X8450834Y-9082643D01*
X8450834Y-9082643D02*
X8488929Y-9082643D01*
X8488929Y-9082643D02*
X8507976Y-9092167D01*
X8507976Y-9092167D02*
X8517500Y-9101690D01*
X8517500Y-9101690D02*
X8527024Y-9120738D01*
X8527024Y-9120738D02*
X8527024Y-9177881D01*
X8527024Y-9177881D02*
X8517500Y-9196929D01*
X8517500Y-9196929D02*
X8507976Y-9206452D01*
X8507976Y-9206452D02*
X8488929Y-9215976D01*
X8488929Y-9215976D02*
X8450834Y-9215976D01*
X8450834Y-9215976D02*
X8431786Y-9206452D01*
X8641310Y-9215976D02*
X8622262Y-9206452D01*
X8622262Y-9206452D02*
X8612738Y-9187405D01*
X8612738Y-9187405D02*
X8612738Y-9015976D01*
X8803215Y-9215976D02*
X8803215Y-9111214D01*
X8803215Y-9111214D02*
X8793691Y-9092167D01*
X8793691Y-9092167D02*
X8774643Y-9082643D01*
X8774643Y-9082643D02*
X8736548Y-9082643D01*
X8736548Y-9082643D02*
X8717500Y-9092167D01*
X8803215Y-9206452D02*
X8784167Y-9215976D01*
X8784167Y-9215976D02*
X8736548Y-9215976D01*
X8736548Y-9215976D02*
X8717500Y-9206452D01*
X8717500Y-9206452D02*
X8707976Y-9187405D01*
X8707976Y-9187405D02*
X8707976Y-9168357D01*
X8707976Y-9168357D02*
X8717500Y-9149310D01*
X8717500Y-9149310D02*
X8736548Y-9139786D01*
X8736548Y-9139786D02*
X8784167Y-9139786D01*
X8784167Y-9139786D02*
X8803215Y-9130262D01*
X8869881Y-9082643D02*
X8946072Y-9082643D01*
X8898453Y-9015976D02*
X8898453Y-9187405D01*
X8898453Y-9187405D02*
X8907976Y-9206452D01*
X8907976Y-9206452D02*
X8927024Y-9215976D01*
X8927024Y-9215976D02*
X8946072Y-9215976D01*
X9088929Y-9206452D02*
X9069881Y-9215976D01*
X9069881Y-9215976D02*
X9031786Y-9215976D01*
X9031786Y-9215976D02*
X9012738Y-9206452D01*
X9012738Y-9206452D02*
X9003215Y-9187405D01*
X9003215Y-9187405D02*
X9003215Y-9111214D01*
X9003215Y-9111214D02*
X9012738Y-9092167D01*
X9012738Y-9092167D02*
X9031786Y-9082643D01*
X9031786Y-9082643D02*
X9069881Y-9082643D01*
X9069881Y-9082643D02*
X9088929Y-9092167D01*
X9088929Y-9092167D02*
X9098453Y-9111214D01*
X9098453Y-9111214D02*
X9098453Y-9130262D01*
X9098453Y-9130262D02*
X9003215Y-9149310D01*
X9269881Y-9215976D02*
X9269881Y-9015976D01*
X9269881Y-9206452D02*
X9250834Y-9215976D01*
X9250834Y-9215976D02*
X9212738Y-9215976D01*
X9212738Y-9215976D02*
X9193691Y-9206452D01*
X9193691Y-9206452D02*
X9184167Y-9196929D01*
X9184167Y-9196929D02*
X9174643Y-9177881D01*
X9174643Y-9177881D02*
X9174643Y-9120738D01*
X9174643Y-9120738D02*
X9184167Y-9101690D01*
X9184167Y-9101690D02*
X9193691Y-9092167D01*
X9193691Y-9092167D02*
X9212738Y-9082643D01*
X9212738Y-9082643D02*
X9250834Y-9082643D01*
X9250834Y-9082643D02*
X9269881Y-9092167D01*
X9346072Y-9292167D02*
X9355596Y-9282643D01*
X9355596Y-9282643D02*
X9374643Y-9254071D01*
X9374643Y-9254071D02*
X9384167Y-9235024D01*
X9384167Y-9235024D02*
X9393691Y-9206452D01*
X9393691Y-9206452D02*
X9403215Y-9158833D01*
X9403215Y-9158833D02*
X9403215Y-9120738D01*
X9403215Y-9120738D02*
X9393691Y-9073119D01*
X9393691Y-9073119D02*
X9384167Y-9044548D01*
X9384167Y-9044548D02*
X9374643Y-9025500D01*
X9374643Y-9025500D02*
X9355596Y-8996929D01*
X9355596Y-8996929D02*
X9346072Y-8987405D01*
M02*
