%TF.GenerationSoftware,KiCad,Pcbnew,(7.0.0-0)*%
%TF.CreationDate,2023-06-30T11:37:05+08:00*%
%TF.ProjectId,cirque-connector,63697271-7565-42d6-936f-6e6e6563746f,rev?*%
%TF.SameCoordinates,Original*%
%TF.FileFunction,Copper,L2,Bot*%
%TF.FilePolarity,Positive*%
%FSLAX46Y46*%
G04 Gerber Fmt 4.6, Leading zero omitted, Abs format (unit mm)*
G04 Created by KiCad (PCBNEW (7.0.0-0)) date 2023-06-30 11:37:05*
%MOMM*%
%LPD*%
G01*
G04 APERTURE LIST*
%TA.AperFunction,ComponentPad*%
%ADD10R,1.700000X1.700000*%
%TD*%
%TA.AperFunction,ComponentPad*%
%ADD11O,1.700000X1.700000*%
%TD*%
G04 APERTURE END LIST*
D10*
%TO.P,J2,1,Pin_1*%
%TO.N,/3V*%
X40999999Y-54979999D03*
D11*
%TO.P,J2,2,Pin_2*%
%TO.N,/GND*%
X40999999Y-57519999D03*
%TO.P,J2,3,Pin_3*%
%TO.N,/SDA*%
X40999999Y-60059999D03*
%TO.P,J2,4,Pin_4*%
%TO.N,/SCL*%
X40999999Y-62599999D03*
%TO.P,J2,5,Pin_5*%
%TO.N,Net-(J1-Pin_5)*%
X40999999Y-65139999D03*
%TO.P,J2,6,Pin_6*%
%TO.N,/B2*%
X40999999Y-67679999D03*
%TO.P,J2,7,Pin_7*%
%TO.N,Net-(J1-Pin_7)*%
X40999999Y-70219999D03*
%TO.P,J2,8,Pin_8*%
%TO.N,/SI*%
X40999999Y-72759999D03*
%TO.P,J2,9,Pin_9*%
%TO.N,/DR*%
X40999999Y-75299999D03*
%TO.P,J2,10,Pin_10*%
%TO.N,/SS*%
X40999999Y-77839999D03*
%TO.P,J2,11,Pin_11*%
%TO.N,/SO*%
X40999999Y-80379999D03*
%TO.P,J2,12,Pin_12*%
%TO.N,/SCK*%
X40999999Y-82919999D03*
%TD*%
%TA.AperFunction,Conductor*%
%TO.N,/GND*%
G36*
X42927500Y-51027113D02*
G01*
X42972887Y-51072500D01*
X42989500Y-51134500D01*
X42989500Y-84865500D01*
X42972887Y-84927500D01*
X42927500Y-84972887D01*
X42865500Y-84989500D01*
X28134500Y-84989500D01*
X28072500Y-84972887D01*
X28027113Y-84927500D01*
X28010500Y-84865500D01*
X28010500Y-83000000D01*
X28644341Y-83000000D01*
X28664937Y-83235408D01*
X28666336Y-83240630D01*
X28666337Y-83240634D01*
X28724694Y-83458430D01*
X28724697Y-83458438D01*
X28726097Y-83463663D01*
X28825965Y-83677829D01*
X28961505Y-83871401D01*
X29128599Y-84038495D01*
X29322171Y-84174035D01*
X29536337Y-84273903D01*
X29541567Y-84275304D01*
X29541569Y-84275305D01*
X29583619Y-84286572D01*
X29764592Y-84335063D01*
X29941034Y-84350500D01*
X30056258Y-84350500D01*
X30058966Y-84350500D01*
X30235408Y-84335063D01*
X30463663Y-84273903D01*
X30677829Y-84174035D01*
X30871401Y-84038495D01*
X31038495Y-83871401D01*
X31174035Y-83677830D01*
X31273903Y-83463663D01*
X31335063Y-83235408D01*
X31355659Y-83000000D01*
X35644341Y-83000000D01*
X35664937Y-83235408D01*
X35666336Y-83240630D01*
X35666337Y-83240634D01*
X35724694Y-83458430D01*
X35724697Y-83458438D01*
X35726097Y-83463663D01*
X35825965Y-83677829D01*
X35961505Y-83871401D01*
X36128599Y-84038495D01*
X36322171Y-84174035D01*
X36536337Y-84273903D01*
X36541567Y-84275304D01*
X36541569Y-84275305D01*
X36583619Y-84286572D01*
X36764592Y-84335063D01*
X36941034Y-84350500D01*
X37056258Y-84350500D01*
X37058966Y-84350500D01*
X37235408Y-84335063D01*
X37463663Y-84273903D01*
X37677829Y-84174035D01*
X37871401Y-84038495D01*
X38038495Y-83871401D01*
X38174035Y-83677830D01*
X38273903Y-83463663D01*
X38335063Y-83235408D01*
X38355659Y-83000000D01*
X38348660Y-82920000D01*
X39644341Y-82920000D01*
X39664937Y-83155408D01*
X39666336Y-83160630D01*
X39666337Y-83160634D01*
X39724694Y-83378430D01*
X39724697Y-83378438D01*
X39726097Y-83383663D01*
X39728385Y-83388570D01*
X39728386Y-83388572D01*
X39823678Y-83592927D01*
X39823681Y-83592933D01*
X39825965Y-83597830D01*
X39829064Y-83602257D01*
X39829066Y-83602259D01*
X39958399Y-83786966D01*
X39958402Y-83786970D01*
X39961505Y-83791401D01*
X40128599Y-83958495D01*
X40322170Y-84094035D01*
X40536337Y-84193903D01*
X40764592Y-84255063D01*
X41000000Y-84275659D01*
X41235408Y-84255063D01*
X41463663Y-84193903D01*
X41677830Y-84094035D01*
X41871401Y-83958495D01*
X42038495Y-83791401D01*
X42174035Y-83597830D01*
X42273903Y-83383663D01*
X42335063Y-83155408D01*
X42355659Y-82920000D01*
X42335063Y-82684592D01*
X42273903Y-82456337D01*
X42174035Y-82242171D01*
X42038495Y-82048599D01*
X41871401Y-81881505D01*
X41866968Y-81878401D01*
X41866961Y-81878395D01*
X41685842Y-81751575D01*
X41646976Y-81707257D01*
X41632965Y-81650000D01*
X41646976Y-81592743D01*
X41685842Y-81548425D01*
X41866961Y-81421604D01*
X41866961Y-81421603D01*
X41871401Y-81418495D01*
X42038495Y-81251401D01*
X42174035Y-81057830D01*
X42273903Y-80843663D01*
X42335063Y-80615408D01*
X42355659Y-80380000D01*
X42335063Y-80144592D01*
X42273903Y-79916337D01*
X42174035Y-79702171D01*
X42038495Y-79508599D01*
X41871401Y-79341505D01*
X41866968Y-79338401D01*
X41866961Y-79338395D01*
X41685842Y-79211575D01*
X41646976Y-79167257D01*
X41632965Y-79110000D01*
X41646976Y-79052743D01*
X41685842Y-79008425D01*
X41866961Y-78881604D01*
X41866961Y-78881603D01*
X41871401Y-78878495D01*
X42038495Y-78711401D01*
X42174035Y-78517830D01*
X42273903Y-78303663D01*
X42335063Y-78075408D01*
X42355659Y-77840000D01*
X42335063Y-77604592D01*
X42273903Y-77376337D01*
X42174035Y-77162171D01*
X42038495Y-76968599D01*
X41871401Y-76801505D01*
X41866968Y-76798401D01*
X41866961Y-76798395D01*
X41685842Y-76671575D01*
X41646976Y-76627257D01*
X41632965Y-76570000D01*
X41646976Y-76512743D01*
X41685842Y-76468425D01*
X41866961Y-76341604D01*
X41866961Y-76341603D01*
X41871401Y-76338495D01*
X42038495Y-76171401D01*
X42174035Y-75977830D01*
X42273903Y-75763663D01*
X42335063Y-75535408D01*
X42355659Y-75300000D01*
X42335063Y-75064592D01*
X42273903Y-74836337D01*
X42174035Y-74622171D01*
X42038495Y-74428599D01*
X41871401Y-74261505D01*
X41866968Y-74258401D01*
X41866961Y-74258395D01*
X41685842Y-74131575D01*
X41646976Y-74087257D01*
X41632965Y-74030000D01*
X41646976Y-73972743D01*
X41685842Y-73928425D01*
X41866961Y-73801604D01*
X41866961Y-73801603D01*
X41871401Y-73798495D01*
X42038495Y-73631401D01*
X42174035Y-73437830D01*
X42273903Y-73223663D01*
X42335063Y-72995408D01*
X42355659Y-72760000D01*
X42335063Y-72524592D01*
X42273903Y-72296337D01*
X42174035Y-72082171D01*
X42038495Y-71888599D01*
X41871401Y-71721505D01*
X41866968Y-71718401D01*
X41866961Y-71718395D01*
X41685842Y-71591575D01*
X41646976Y-71547257D01*
X41632965Y-71490000D01*
X41646976Y-71432743D01*
X41685842Y-71388425D01*
X41866961Y-71261604D01*
X41866961Y-71261603D01*
X41871401Y-71258495D01*
X42038495Y-71091401D01*
X42174035Y-70897830D01*
X42273903Y-70683663D01*
X42335063Y-70455408D01*
X42355659Y-70220000D01*
X42335063Y-69984592D01*
X42273903Y-69756337D01*
X42174035Y-69542171D01*
X42038495Y-69348599D01*
X41871401Y-69181505D01*
X41866968Y-69178401D01*
X41866961Y-69178395D01*
X41685842Y-69051575D01*
X41646976Y-69007257D01*
X41632965Y-68950000D01*
X41646976Y-68892743D01*
X41685842Y-68848425D01*
X41866961Y-68721604D01*
X41866961Y-68721603D01*
X41871401Y-68718495D01*
X42038495Y-68551401D01*
X42174035Y-68357830D01*
X42273903Y-68143663D01*
X42335063Y-67915408D01*
X42355659Y-67680000D01*
X42335063Y-67444592D01*
X42273903Y-67216337D01*
X42174035Y-67002171D01*
X42038495Y-66808599D01*
X41871401Y-66641505D01*
X41866968Y-66638401D01*
X41866961Y-66638395D01*
X41685842Y-66511575D01*
X41646976Y-66467257D01*
X41632965Y-66410000D01*
X41646976Y-66352743D01*
X41685842Y-66308425D01*
X41866961Y-66181604D01*
X41866961Y-66181603D01*
X41871401Y-66178495D01*
X42038495Y-66011401D01*
X42174035Y-65817830D01*
X42273903Y-65603663D01*
X42335063Y-65375408D01*
X42355659Y-65140000D01*
X42335063Y-64904592D01*
X42273903Y-64676337D01*
X42174035Y-64462171D01*
X42038495Y-64268599D01*
X41871401Y-64101505D01*
X41866970Y-64098402D01*
X41866966Y-64098399D01*
X41685841Y-63971574D01*
X41646976Y-63927256D01*
X41632965Y-63869999D01*
X41646976Y-63812742D01*
X41685839Y-63768426D01*
X41871401Y-63638495D01*
X42038495Y-63471401D01*
X42174035Y-63277830D01*
X42273903Y-63063663D01*
X42335063Y-62835408D01*
X42355659Y-62600000D01*
X42335063Y-62364592D01*
X42273903Y-62136337D01*
X42174035Y-61922171D01*
X42038495Y-61728599D01*
X41871401Y-61561505D01*
X41866968Y-61558401D01*
X41866961Y-61558395D01*
X41685842Y-61431575D01*
X41646976Y-61387257D01*
X41632965Y-61330000D01*
X41646976Y-61272743D01*
X41685842Y-61228425D01*
X41866961Y-61101604D01*
X41866961Y-61101603D01*
X41871401Y-61098495D01*
X42038495Y-60931401D01*
X42174035Y-60737830D01*
X42273903Y-60523663D01*
X42335063Y-60295408D01*
X42355659Y-60060000D01*
X42335063Y-59824592D01*
X42273903Y-59596337D01*
X42174035Y-59382171D01*
X42038495Y-59188599D01*
X41871401Y-59021505D01*
X41866970Y-59018402D01*
X41866966Y-59018399D01*
X41685405Y-58891269D01*
X41646540Y-58846951D01*
X41632529Y-58789694D01*
X41646540Y-58732437D01*
X41685406Y-58688119D01*
X41866638Y-58561219D01*
X41874909Y-58554278D01*
X42034278Y-58394909D01*
X42041215Y-58386643D01*
X42170498Y-58202008D01*
X42175886Y-58192676D01*
X42271143Y-57988397D01*
X42274831Y-57978263D01*
X42326943Y-57783780D01*
X42327311Y-57772551D01*
X42316369Y-57770000D01*
X39683631Y-57770000D01*
X39672688Y-57772551D01*
X39673056Y-57783780D01*
X39725168Y-57978263D01*
X39728856Y-57988397D01*
X39824113Y-58192676D01*
X39829501Y-58202008D01*
X39958784Y-58386643D01*
X39965721Y-58394909D01*
X40125090Y-58554278D01*
X40133356Y-58561215D01*
X40314595Y-58688120D01*
X40353460Y-58732438D01*
X40367471Y-58789695D01*
X40353460Y-58846952D01*
X40314594Y-58891270D01*
X40133034Y-59018399D01*
X40133029Y-59018402D01*
X40128599Y-59021505D01*
X40124775Y-59025328D01*
X40124769Y-59025334D01*
X39965334Y-59184769D01*
X39965328Y-59184775D01*
X39961505Y-59188599D01*
X39958402Y-59193029D01*
X39958399Y-59193034D01*
X39829073Y-59377731D01*
X39829068Y-59377738D01*
X39825965Y-59382171D01*
X39823677Y-59387077D01*
X39823675Y-59387081D01*
X39728386Y-59591427D01*
X39728383Y-59591432D01*
X39726097Y-59596337D01*
X39724698Y-59601557D01*
X39724694Y-59601569D01*
X39666337Y-59819365D01*
X39666335Y-59819371D01*
X39664937Y-59824592D01*
X39644341Y-60060000D01*
X39664937Y-60295408D01*
X39666336Y-60300630D01*
X39666337Y-60300634D01*
X39724694Y-60518430D01*
X39724697Y-60518438D01*
X39726097Y-60523663D01*
X39728385Y-60528570D01*
X39728386Y-60528572D01*
X39823678Y-60732927D01*
X39823681Y-60732933D01*
X39825965Y-60737830D01*
X39829064Y-60742257D01*
X39829066Y-60742259D01*
X39958399Y-60926966D01*
X39958402Y-60926970D01*
X39961505Y-60931401D01*
X40128599Y-61098495D01*
X40133032Y-61101599D01*
X40133038Y-61101604D01*
X40314158Y-61228425D01*
X40353024Y-61272743D01*
X40367035Y-61330000D01*
X40353024Y-61387257D01*
X40314159Y-61431575D01*
X40133041Y-61558395D01*
X40128599Y-61561505D01*
X40124775Y-61565328D01*
X40124769Y-61565334D01*
X39965334Y-61724769D01*
X39965328Y-61724775D01*
X39961505Y-61728599D01*
X39958402Y-61733029D01*
X39958399Y-61733034D01*
X39829073Y-61917731D01*
X39829068Y-61917738D01*
X39825965Y-61922171D01*
X39823677Y-61927077D01*
X39823675Y-61927081D01*
X39728386Y-62131427D01*
X39728383Y-62131432D01*
X39726097Y-62136337D01*
X39724698Y-62141557D01*
X39724694Y-62141569D01*
X39666337Y-62359365D01*
X39666335Y-62359371D01*
X39664937Y-62364592D01*
X39644341Y-62600000D01*
X39664937Y-62835408D01*
X39666336Y-62840630D01*
X39666337Y-62840634D01*
X39724694Y-63058430D01*
X39724697Y-63058438D01*
X39726097Y-63063663D01*
X39728385Y-63068570D01*
X39728386Y-63068572D01*
X39823678Y-63272927D01*
X39823681Y-63272933D01*
X39825965Y-63277830D01*
X39829064Y-63282257D01*
X39829066Y-63282259D01*
X39958399Y-63466966D01*
X39958402Y-63466970D01*
X39961505Y-63471401D01*
X40128599Y-63638495D01*
X40133032Y-63641599D01*
X40133038Y-63641604D01*
X40314158Y-63768425D01*
X40353024Y-63812743D01*
X40367035Y-63870000D01*
X40353024Y-63927257D01*
X40314160Y-63971574D01*
X40128599Y-64101505D01*
X40124775Y-64105328D01*
X40124769Y-64105334D01*
X39965334Y-64264769D01*
X39965328Y-64264775D01*
X39961505Y-64268599D01*
X39958402Y-64273029D01*
X39958399Y-64273034D01*
X39829073Y-64457731D01*
X39829068Y-64457738D01*
X39825965Y-64462171D01*
X39823677Y-64467077D01*
X39823675Y-64467081D01*
X39728386Y-64671427D01*
X39728383Y-64671432D01*
X39726097Y-64676337D01*
X39724698Y-64681557D01*
X39724694Y-64681569D01*
X39666337Y-64899365D01*
X39666335Y-64899371D01*
X39664937Y-64904592D01*
X39644341Y-65140000D01*
X39664937Y-65375408D01*
X39666336Y-65380630D01*
X39666337Y-65380634D01*
X39724694Y-65598430D01*
X39724697Y-65598438D01*
X39726097Y-65603663D01*
X39728385Y-65608570D01*
X39728386Y-65608572D01*
X39823678Y-65812927D01*
X39823681Y-65812933D01*
X39825965Y-65817830D01*
X39829064Y-65822257D01*
X39829066Y-65822259D01*
X39958399Y-66006966D01*
X39958402Y-66006970D01*
X39961505Y-66011401D01*
X40128599Y-66178495D01*
X40133032Y-66181599D01*
X40133038Y-66181604D01*
X40314158Y-66308425D01*
X40353024Y-66352743D01*
X40367035Y-66410000D01*
X40353024Y-66467257D01*
X40314159Y-66511575D01*
X40133041Y-66638395D01*
X40128599Y-66641505D01*
X40124775Y-66645328D01*
X40124769Y-66645334D01*
X39965334Y-66804769D01*
X39965328Y-66804775D01*
X39961505Y-66808599D01*
X39958402Y-66813029D01*
X39958399Y-66813034D01*
X39829073Y-66997731D01*
X39829068Y-66997738D01*
X39825965Y-67002171D01*
X39823677Y-67007077D01*
X39823675Y-67007081D01*
X39728386Y-67211427D01*
X39728383Y-67211432D01*
X39726097Y-67216337D01*
X39724698Y-67221557D01*
X39724694Y-67221569D01*
X39666337Y-67439365D01*
X39666335Y-67439371D01*
X39664937Y-67444592D01*
X39644341Y-67680000D01*
X39664937Y-67915408D01*
X39666336Y-67920630D01*
X39666337Y-67920634D01*
X39724694Y-68138430D01*
X39724697Y-68138438D01*
X39726097Y-68143663D01*
X39728385Y-68148570D01*
X39728386Y-68148572D01*
X39823678Y-68352927D01*
X39823681Y-68352933D01*
X39825965Y-68357830D01*
X39829064Y-68362257D01*
X39829066Y-68362259D01*
X39958399Y-68546966D01*
X39958402Y-68546970D01*
X39961505Y-68551401D01*
X40128599Y-68718495D01*
X40133032Y-68721599D01*
X40133038Y-68721604D01*
X40314158Y-68848425D01*
X40353024Y-68892743D01*
X40367035Y-68950000D01*
X40353024Y-69007257D01*
X40314159Y-69051575D01*
X40133041Y-69178395D01*
X40128599Y-69181505D01*
X40124775Y-69185328D01*
X40124769Y-69185334D01*
X39965334Y-69344769D01*
X39965328Y-69344775D01*
X39961505Y-69348599D01*
X39958402Y-69353029D01*
X39958399Y-69353034D01*
X39829073Y-69537731D01*
X39829068Y-69537738D01*
X39825965Y-69542171D01*
X39823677Y-69547077D01*
X39823675Y-69547081D01*
X39728386Y-69751427D01*
X39728383Y-69751432D01*
X39726097Y-69756337D01*
X39724698Y-69761557D01*
X39724694Y-69761569D01*
X39666337Y-69979365D01*
X39666335Y-69979371D01*
X39664937Y-69984592D01*
X39644341Y-70220000D01*
X39664937Y-70455408D01*
X39666336Y-70460630D01*
X39666337Y-70460634D01*
X39724694Y-70678430D01*
X39724697Y-70678438D01*
X39726097Y-70683663D01*
X39728385Y-70688570D01*
X39728386Y-70688572D01*
X39823678Y-70892927D01*
X39823681Y-70892933D01*
X39825965Y-70897830D01*
X39829064Y-70902257D01*
X39829066Y-70902259D01*
X39958399Y-71086966D01*
X39958402Y-71086970D01*
X39961505Y-71091401D01*
X40128599Y-71258495D01*
X40133032Y-71261599D01*
X40133038Y-71261604D01*
X40314158Y-71388425D01*
X40353024Y-71432743D01*
X40367035Y-71490000D01*
X40353024Y-71547257D01*
X40314159Y-71591575D01*
X40133041Y-71718395D01*
X40128599Y-71721505D01*
X40124775Y-71725328D01*
X40124769Y-71725334D01*
X39965334Y-71884769D01*
X39965328Y-71884775D01*
X39961505Y-71888599D01*
X39958402Y-71893029D01*
X39958399Y-71893034D01*
X39829073Y-72077731D01*
X39829068Y-72077738D01*
X39825965Y-72082171D01*
X39823677Y-72087077D01*
X39823675Y-72087081D01*
X39728386Y-72291427D01*
X39728383Y-72291432D01*
X39726097Y-72296337D01*
X39724698Y-72301557D01*
X39724694Y-72301569D01*
X39666337Y-72519365D01*
X39666335Y-72519371D01*
X39664937Y-72524592D01*
X39644341Y-72760000D01*
X39664937Y-72995408D01*
X39666336Y-73000630D01*
X39666337Y-73000634D01*
X39724694Y-73218430D01*
X39724697Y-73218438D01*
X39726097Y-73223663D01*
X39728385Y-73228570D01*
X39728386Y-73228572D01*
X39823678Y-73432927D01*
X39823681Y-73432933D01*
X39825965Y-73437830D01*
X39829064Y-73442257D01*
X39829066Y-73442259D01*
X39958399Y-73626966D01*
X39958402Y-73626970D01*
X39961505Y-73631401D01*
X40128599Y-73798495D01*
X40133032Y-73801599D01*
X40133038Y-73801604D01*
X40314158Y-73928425D01*
X40353024Y-73972743D01*
X40367035Y-74030000D01*
X40353024Y-74087257D01*
X40314159Y-74131575D01*
X40133041Y-74258395D01*
X40128599Y-74261505D01*
X40124775Y-74265328D01*
X40124769Y-74265334D01*
X39965334Y-74424769D01*
X39965328Y-74424775D01*
X39961505Y-74428599D01*
X39958402Y-74433029D01*
X39958399Y-74433034D01*
X39829073Y-74617731D01*
X39829068Y-74617738D01*
X39825965Y-74622171D01*
X39823677Y-74627077D01*
X39823675Y-74627081D01*
X39728386Y-74831427D01*
X39728383Y-74831432D01*
X39726097Y-74836337D01*
X39724698Y-74841557D01*
X39724694Y-74841569D01*
X39666337Y-75059365D01*
X39666335Y-75059371D01*
X39664937Y-75064592D01*
X39644341Y-75300000D01*
X39664937Y-75535408D01*
X39666336Y-75540630D01*
X39666337Y-75540634D01*
X39724694Y-75758430D01*
X39724697Y-75758438D01*
X39726097Y-75763663D01*
X39728385Y-75768570D01*
X39728386Y-75768572D01*
X39823678Y-75972927D01*
X39823681Y-75972933D01*
X39825965Y-75977830D01*
X39829064Y-75982257D01*
X39829066Y-75982259D01*
X39958399Y-76166966D01*
X39958402Y-76166970D01*
X39961505Y-76171401D01*
X40128599Y-76338495D01*
X40133032Y-76341599D01*
X40133038Y-76341604D01*
X40314158Y-76468425D01*
X40353024Y-76512743D01*
X40367035Y-76570000D01*
X40353024Y-76627257D01*
X40314159Y-76671575D01*
X40133041Y-76798395D01*
X40128599Y-76801505D01*
X40124775Y-76805328D01*
X40124769Y-76805334D01*
X39965334Y-76964769D01*
X39965328Y-76964775D01*
X39961505Y-76968599D01*
X39958402Y-76973029D01*
X39958399Y-76973034D01*
X39829073Y-77157731D01*
X39829068Y-77157738D01*
X39825965Y-77162171D01*
X39823677Y-77167077D01*
X39823675Y-77167081D01*
X39728386Y-77371427D01*
X39728383Y-77371432D01*
X39726097Y-77376337D01*
X39724698Y-77381557D01*
X39724694Y-77381569D01*
X39666337Y-77599365D01*
X39666335Y-77599371D01*
X39664937Y-77604592D01*
X39644341Y-77840000D01*
X39664937Y-78075408D01*
X39666336Y-78080630D01*
X39666337Y-78080634D01*
X39724694Y-78298430D01*
X39724697Y-78298438D01*
X39726097Y-78303663D01*
X39728385Y-78308570D01*
X39728386Y-78308572D01*
X39823678Y-78512927D01*
X39823681Y-78512933D01*
X39825965Y-78517830D01*
X39829064Y-78522257D01*
X39829066Y-78522259D01*
X39958399Y-78706966D01*
X39958402Y-78706970D01*
X39961505Y-78711401D01*
X40128599Y-78878495D01*
X40133032Y-78881599D01*
X40133038Y-78881604D01*
X40314158Y-79008425D01*
X40353024Y-79052743D01*
X40367035Y-79110000D01*
X40353024Y-79167257D01*
X40314159Y-79211575D01*
X40133041Y-79338395D01*
X40128599Y-79341505D01*
X40124775Y-79345328D01*
X40124769Y-79345334D01*
X39965334Y-79504769D01*
X39965328Y-79504775D01*
X39961505Y-79508599D01*
X39958402Y-79513029D01*
X39958399Y-79513034D01*
X39829073Y-79697731D01*
X39829068Y-79697738D01*
X39825965Y-79702171D01*
X39823677Y-79707077D01*
X39823675Y-79707081D01*
X39728386Y-79911427D01*
X39728383Y-79911432D01*
X39726097Y-79916337D01*
X39724698Y-79921557D01*
X39724694Y-79921569D01*
X39666337Y-80139365D01*
X39666335Y-80139371D01*
X39664937Y-80144592D01*
X39644341Y-80380000D01*
X39664937Y-80615408D01*
X39666336Y-80620630D01*
X39666337Y-80620634D01*
X39724694Y-80838430D01*
X39724697Y-80838438D01*
X39726097Y-80843663D01*
X39728385Y-80848570D01*
X39728386Y-80848572D01*
X39823678Y-81052927D01*
X39823681Y-81052933D01*
X39825965Y-81057830D01*
X39829064Y-81062257D01*
X39829066Y-81062259D01*
X39958399Y-81246966D01*
X39958402Y-81246970D01*
X39961505Y-81251401D01*
X40128599Y-81418495D01*
X40133032Y-81421599D01*
X40133038Y-81421604D01*
X40314158Y-81548425D01*
X40353024Y-81592743D01*
X40367035Y-81650000D01*
X40353024Y-81707257D01*
X40314159Y-81751575D01*
X40133041Y-81878395D01*
X40128599Y-81881505D01*
X40124775Y-81885328D01*
X40124769Y-81885334D01*
X39965334Y-82044769D01*
X39965328Y-82044775D01*
X39961505Y-82048599D01*
X39958402Y-82053029D01*
X39958399Y-82053034D01*
X39829073Y-82237731D01*
X39829068Y-82237738D01*
X39825965Y-82242171D01*
X39823677Y-82247077D01*
X39823675Y-82247081D01*
X39728386Y-82451427D01*
X39728383Y-82451432D01*
X39726097Y-82456337D01*
X39724698Y-82461557D01*
X39724694Y-82461569D01*
X39666337Y-82679365D01*
X39666335Y-82679371D01*
X39664937Y-82684592D01*
X39664465Y-82689977D01*
X39664465Y-82689982D01*
X39657466Y-82769982D01*
X39644341Y-82920000D01*
X38348660Y-82920000D01*
X38335063Y-82764592D01*
X38273903Y-82536337D01*
X38174035Y-82322171D01*
X38038495Y-82128599D01*
X37871401Y-81961505D01*
X37677829Y-81825965D01*
X37609908Y-81794292D01*
X37468572Y-81728386D01*
X37468570Y-81728385D01*
X37463663Y-81726097D01*
X37458438Y-81724697D01*
X37458430Y-81724694D01*
X37240634Y-81666337D01*
X37240630Y-81666336D01*
X37235408Y-81664937D01*
X37230020Y-81664465D01*
X37230017Y-81664465D01*
X37061664Y-81649736D01*
X37061662Y-81649735D01*
X37058966Y-81649500D01*
X36941034Y-81649500D01*
X36938338Y-81649735D01*
X36938335Y-81649736D01*
X36769982Y-81664465D01*
X36769977Y-81664465D01*
X36764592Y-81664937D01*
X36759371Y-81666335D01*
X36759365Y-81666337D01*
X36541569Y-81724694D01*
X36541557Y-81724698D01*
X36536337Y-81726097D01*
X36531432Y-81728383D01*
X36531427Y-81728386D01*
X36327081Y-81823675D01*
X36327077Y-81823677D01*
X36322171Y-81825965D01*
X36317738Y-81829068D01*
X36317731Y-81829073D01*
X36133034Y-81958399D01*
X36133029Y-81958402D01*
X36128599Y-81961505D01*
X36124775Y-81965328D01*
X36124769Y-81965334D01*
X35965336Y-82124767D01*
X35965330Y-82124773D01*
X35961505Y-82128599D01*
X35958406Y-82133023D01*
X35958399Y-82133033D01*
X35829066Y-82317740D01*
X35829061Y-82317747D01*
X35825965Y-82322170D01*
X35823683Y-82327061D01*
X35823678Y-82327072D01*
X35728386Y-82531427D01*
X35728383Y-82531432D01*
X35726097Y-82536337D01*
X35724698Y-82541557D01*
X35724694Y-82541569D01*
X35666337Y-82759365D01*
X35666335Y-82759371D01*
X35664937Y-82764592D01*
X35644341Y-83000000D01*
X31355659Y-83000000D01*
X31335063Y-82764592D01*
X31273903Y-82536337D01*
X31174035Y-82322171D01*
X31038495Y-82128599D01*
X30871401Y-81961505D01*
X30677829Y-81825965D01*
X30609908Y-81794292D01*
X30468572Y-81728386D01*
X30468570Y-81728385D01*
X30463663Y-81726097D01*
X30458438Y-81724697D01*
X30458430Y-81724694D01*
X30240634Y-81666337D01*
X30240630Y-81666336D01*
X30235408Y-81664937D01*
X30230020Y-81664465D01*
X30230017Y-81664465D01*
X30061664Y-81649736D01*
X30061662Y-81649735D01*
X30058966Y-81649500D01*
X29941034Y-81649500D01*
X29938338Y-81649735D01*
X29938335Y-81649736D01*
X29769982Y-81664465D01*
X29769977Y-81664465D01*
X29764592Y-81664937D01*
X29759371Y-81666335D01*
X29759365Y-81666337D01*
X29541569Y-81724694D01*
X29541557Y-81724698D01*
X29536337Y-81726097D01*
X29531432Y-81728383D01*
X29531427Y-81728386D01*
X29327081Y-81823675D01*
X29327077Y-81823677D01*
X29322171Y-81825965D01*
X29317738Y-81829068D01*
X29317731Y-81829073D01*
X29133034Y-81958399D01*
X29133029Y-81958402D01*
X29128599Y-81961505D01*
X29124775Y-81965328D01*
X29124769Y-81965334D01*
X28965336Y-82124767D01*
X28965330Y-82124773D01*
X28961505Y-82128599D01*
X28958406Y-82133023D01*
X28958399Y-82133033D01*
X28829066Y-82317740D01*
X28829061Y-82317747D01*
X28825965Y-82322170D01*
X28823683Y-82327061D01*
X28823678Y-82327072D01*
X28728386Y-82531427D01*
X28728383Y-82531432D01*
X28726097Y-82536337D01*
X28724698Y-82541557D01*
X28724694Y-82541569D01*
X28666337Y-82759365D01*
X28666335Y-82759371D01*
X28664937Y-82764592D01*
X28644341Y-83000000D01*
X28010500Y-83000000D01*
X28010500Y-55874578D01*
X39649500Y-55874578D01*
X39649501Y-55877872D01*
X39649853Y-55881150D01*
X39649854Y-55881161D01*
X39655079Y-55929768D01*
X39655080Y-55929773D01*
X39655909Y-55937483D01*
X39658619Y-55944749D01*
X39658620Y-55944753D01*
X39692217Y-56034831D01*
X39706204Y-56072331D01*
X39792454Y-56187546D01*
X39907669Y-56273796D01*
X40039598Y-56323002D01*
X40089977Y-56357981D01*
X40117431Y-56412825D01*
X40115242Y-56474118D01*
X40083947Y-56526865D01*
X39965714Y-56645098D01*
X39958784Y-56653357D01*
X39829508Y-56837982D01*
X39824110Y-56847332D01*
X39728856Y-57051602D01*
X39725168Y-57061736D01*
X39673056Y-57256219D01*
X39672688Y-57267448D01*
X39683631Y-57270000D01*
X42316369Y-57270000D01*
X42327311Y-57267448D01*
X42326943Y-57256219D01*
X42274831Y-57061736D01*
X42271143Y-57051602D01*
X42175889Y-56847332D01*
X42170491Y-56837982D01*
X42041215Y-56653357D01*
X42034280Y-56645092D01*
X41916053Y-56526865D01*
X41884757Y-56474119D01*
X41882568Y-56412825D01*
X41910022Y-56357981D01*
X41960398Y-56323003D01*
X42092331Y-56273796D01*
X42207546Y-56187546D01*
X42293796Y-56072331D01*
X42344091Y-55937483D01*
X42350500Y-55877873D01*
X42350499Y-54082128D01*
X42344091Y-54022517D01*
X42293796Y-53887669D01*
X42207546Y-53772454D01*
X42092331Y-53686204D01*
X41957483Y-53635909D01*
X41949770Y-53635079D01*
X41949767Y-53635079D01*
X41901180Y-53629855D01*
X41901169Y-53629854D01*
X41897873Y-53629500D01*
X41894550Y-53629500D01*
X40105439Y-53629500D01*
X40105420Y-53629500D01*
X40102128Y-53629501D01*
X40098850Y-53629853D01*
X40098838Y-53629854D01*
X40050231Y-53635079D01*
X40050225Y-53635080D01*
X40042517Y-53635909D01*
X40035252Y-53638618D01*
X40035246Y-53638620D01*
X39915980Y-53683104D01*
X39915978Y-53683104D01*
X39907669Y-53686204D01*
X39900572Y-53691516D01*
X39900568Y-53691519D01*
X39799550Y-53767141D01*
X39799546Y-53767144D01*
X39792454Y-53772454D01*
X39787144Y-53779546D01*
X39787141Y-53779550D01*
X39711519Y-53880568D01*
X39711516Y-53880572D01*
X39706204Y-53887669D01*
X39703104Y-53895978D01*
X39703104Y-53895980D01*
X39658620Y-54015247D01*
X39658619Y-54015250D01*
X39655909Y-54022517D01*
X39655079Y-54030227D01*
X39655079Y-54030232D01*
X39649855Y-54078819D01*
X39649854Y-54078831D01*
X39649500Y-54082127D01*
X39649500Y-54085448D01*
X39649500Y-54085449D01*
X39649500Y-55874560D01*
X39649500Y-55874578D01*
X28010500Y-55874578D01*
X28010500Y-53000000D01*
X28644341Y-53000000D01*
X28664937Y-53235408D01*
X28666336Y-53240630D01*
X28666337Y-53240634D01*
X28724694Y-53458430D01*
X28724697Y-53458438D01*
X28726097Y-53463663D01*
X28825965Y-53677829D01*
X28829072Y-53682266D01*
X28829073Y-53682268D01*
X28914350Y-53804057D01*
X28961505Y-53871401D01*
X29128599Y-54038495D01*
X29322171Y-54174035D01*
X29536337Y-54273903D01*
X29764592Y-54335063D01*
X29941034Y-54350500D01*
X30056258Y-54350500D01*
X30058966Y-54350500D01*
X30235408Y-54335063D01*
X30463663Y-54273903D01*
X30677829Y-54174035D01*
X30871401Y-54038495D01*
X31038495Y-53871401D01*
X31174035Y-53677830D01*
X31273903Y-53463663D01*
X31335063Y-53235408D01*
X31355659Y-53000000D01*
X35644341Y-53000000D01*
X35664937Y-53235408D01*
X35666336Y-53240630D01*
X35666337Y-53240634D01*
X35724694Y-53458430D01*
X35724697Y-53458438D01*
X35726097Y-53463663D01*
X35825965Y-53677829D01*
X35829072Y-53682266D01*
X35829073Y-53682268D01*
X35914350Y-53804057D01*
X35961505Y-53871401D01*
X36128599Y-54038495D01*
X36322171Y-54174035D01*
X36536337Y-54273903D01*
X36764592Y-54335063D01*
X36941034Y-54350500D01*
X37056258Y-54350500D01*
X37058966Y-54350500D01*
X37235408Y-54335063D01*
X37463663Y-54273903D01*
X37677829Y-54174035D01*
X37871401Y-54038495D01*
X38038495Y-53871401D01*
X38174035Y-53677830D01*
X38273903Y-53463663D01*
X38335063Y-53235408D01*
X38355659Y-53000000D01*
X38335063Y-52764592D01*
X38273903Y-52536337D01*
X38174035Y-52322171D01*
X38038495Y-52128599D01*
X37871401Y-51961505D01*
X37677829Y-51825965D01*
X37463663Y-51726097D01*
X37458438Y-51724697D01*
X37458430Y-51724694D01*
X37240634Y-51666337D01*
X37240630Y-51666336D01*
X37235408Y-51664937D01*
X37230020Y-51664465D01*
X37230017Y-51664465D01*
X37061664Y-51649736D01*
X37061662Y-51649735D01*
X37058966Y-51649500D01*
X36941034Y-51649500D01*
X36938338Y-51649735D01*
X36938335Y-51649736D01*
X36769982Y-51664465D01*
X36769977Y-51664465D01*
X36764592Y-51664937D01*
X36759371Y-51666335D01*
X36759365Y-51666337D01*
X36541569Y-51724694D01*
X36541557Y-51724698D01*
X36536337Y-51726097D01*
X36531432Y-51728383D01*
X36531427Y-51728386D01*
X36327081Y-51823675D01*
X36327077Y-51823677D01*
X36322171Y-51825965D01*
X36317738Y-51829068D01*
X36317731Y-51829073D01*
X36133034Y-51958399D01*
X36133029Y-51958402D01*
X36128599Y-51961505D01*
X36124775Y-51965328D01*
X36124769Y-51965334D01*
X35965336Y-52124767D01*
X35965330Y-52124773D01*
X35961505Y-52128599D01*
X35958406Y-52133023D01*
X35958399Y-52133033D01*
X35829066Y-52317740D01*
X35829061Y-52317747D01*
X35825965Y-52322170D01*
X35823683Y-52327061D01*
X35823678Y-52327072D01*
X35728386Y-52531427D01*
X35728383Y-52531432D01*
X35726097Y-52536337D01*
X35724698Y-52541557D01*
X35724694Y-52541569D01*
X35666337Y-52759365D01*
X35666335Y-52759371D01*
X35664937Y-52764592D01*
X35644341Y-53000000D01*
X31355659Y-53000000D01*
X31335063Y-52764592D01*
X31273903Y-52536337D01*
X31174035Y-52322171D01*
X31038495Y-52128599D01*
X30871401Y-51961505D01*
X30677829Y-51825965D01*
X30463663Y-51726097D01*
X30458438Y-51724697D01*
X30458430Y-51724694D01*
X30240634Y-51666337D01*
X30240630Y-51666336D01*
X30235408Y-51664937D01*
X30230020Y-51664465D01*
X30230017Y-51664465D01*
X30061664Y-51649736D01*
X30061662Y-51649735D01*
X30058966Y-51649500D01*
X29941034Y-51649500D01*
X29938338Y-51649735D01*
X29938335Y-51649736D01*
X29769982Y-51664465D01*
X29769977Y-51664465D01*
X29764592Y-51664937D01*
X29759371Y-51666335D01*
X29759365Y-51666337D01*
X29541569Y-51724694D01*
X29541557Y-51724698D01*
X29536337Y-51726097D01*
X29531432Y-51728383D01*
X29531427Y-51728386D01*
X29327081Y-51823675D01*
X29327077Y-51823677D01*
X29322171Y-51825965D01*
X29317738Y-51829068D01*
X29317731Y-51829073D01*
X29133034Y-51958399D01*
X29133029Y-51958402D01*
X29128599Y-51961505D01*
X29124775Y-51965328D01*
X29124769Y-51965334D01*
X28965336Y-52124767D01*
X28965330Y-52124773D01*
X28961505Y-52128599D01*
X28958406Y-52133023D01*
X28958399Y-52133033D01*
X28829066Y-52317740D01*
X28829061Y-52317747D01*
X28825965Y-52322170D01*
X28823683Y-52327061D01*
X28823678Y-52327072D01*
X28728386Y-52531427D01*
X28728383Y-52531432D01*
X28726097Y-52536337D01*
X28724698Y-52541557D01*
X28724694Y-52541569D01*
X28666337Y-52759365D01*
X28666335Y-52759371D01*
X28664937Y-52764592D01*
X28644341Y-53000000D01*
X28010500Y-53000000D01*
X28010500Y-51134500D01*
X28027113Y-51072500D01*
X28072500Y-51027113D01*
X28134500Y-51010500D01*
X42865500Y-51010500D01*
X42927500Y-51027113D01*
G37*
%TD.AperFunction*%
%TD*%
M02*
