%TF.GenerationSoftware,KiCad,Pcbnew,(7.0.0-0)*%
%TF.CreationDate,2023-06-30T11:37:05+08:00*%
%TF.ProjectId,cirque-connector,63697271-7565-42d6-936f-6e6e6563746f,rev?*%
%TF.SameCoordinates,Original*%
%TF.FileFunction,Legend,Bot*%
%TF.FilePolarity,Positive*%
%FSLAX46Y46*%
G04 Gerber Fmt 4.6, Leading zero omitted, Abs format (unit mm)*
G04 Created by KiCad (PCBNEW (7.0.0-0)) date 2023-06-30 11:37:05*
%MOMM*%
%LPD*%
G01*
G04 APERTURE LIST*
%ADD10C,0.200000*%
G04 APERTURE END LIST*
D10*
G36*
X37912192Y-80354185D02*
G01*
X37957321Y-80399314D01*
X37985714Y-80512883D01*
X37985714Y-80754929D01*
X37957321Y-80868493D01*
X37912192Y-80913623D01*
X37871630Y-80933904D01*
X37766462Y-80933904D01*
X37725902Y-80913624D01*
X37680771Y-80868493D01*
X37652380Y-80754927D01*
X37652380Y-80512883D01*
X37680771Y-80399314D01*
X37725901Y-80354185D01*
X37766464Y-80333904D01*
X37871630Y-80333904D01*
X37912192Y-80354185D01*
G37*
G36*
X37909523Y-75368952D02*
G01*
X37828192Y-75368952D01*
X37808303Y-75365285D01*
X37799353Y-75368952D01*
X37728367Y-75368952D01*
X37687807Y-75348672D01*
X37672662Y-75333526D01*
X37652380Y-75292963D01*
X37652380Y-75225892D01*
X37672661Y-75185331D01*
X37687808Y-75170184D01*
X37728369Y-75149904D01*
X37909523Y-75149904D01*
X37909523Y-75368952D01*
G37*
G36*
X38709523Y-75749904D02*
G01*
X38635274Y-75749904D01*
X38558780Y-75724406D01*
X38510756Y-75676383D01*
X38484827Y-75624524D01*
X38452380Y-75494735D01*
X38452380Y-75405070D01*
X38484828Y-75275280D01*
X38510756Y-75223426D01*
X38558778Y-75175403D01*
X38635275Y-75149904D01*
X38709523Y-75149904D01*
X38709523Y-75749904D01*
G37*
G36*
X38709523Y-70565904D02*
G01*
X38528367Y-70565904D01*
X38487807Y-70545624D01*
X38472661Y-70530478D01*
X38452380Y-70489916D01*
X38452380Y-70422845D01*
X38472661Y-70382283D01*
X38482589Y-70372355D01*
X38550264Y-70349796D01*
X38554044Y-70350477D01*
X38562772Y-70346857D01*
X38709523Y-70346857D01*
X38709523Y-70565904D01*
G37*
G36*
X38709523Y-70146857D02*
G01*
X38566464Y-70146857D01*
X38525901Y-70126575D01*
X38510756Y-70111430D01*
X38490476Y-70070870D01*
X38490476Y-70041891D01*
X38510755Y-70001331D01*
X38525903Y-69986184D01*
X38566464Y-69965904D01*
X38709523Y-69965904D01*
X38709523Y-70146857D01*
G37*
G36*
X38709523Y-67973904D02*
G01*
X38528367Y-67973904D01*
X38487807Y-67953624D01*
X38472661Y-67938478D01*
X38452380Y-67897916D01*
X38452380Y-67830845D01*
X38472661Y-67790283D01*
X38482589Y-67780355D01*
X38550264Y-67757796D01*
X38554044Y-67758477D01*
X38562772Y-67754857D01*
X38709523Y-67754857D01*
X38709523Y-67973904D01*
G37*
G36*
X38709523Y-67554857D02*
G01*
X38566464Y-67554857D01*
X38525901Y-67534575D01*
X38510756Y-67519430D01*
X38490476Y-67478870D01*
X38490476Y-67449891D01*
X38510755Y-67409331D01*
X38525903Y-67394184D01*
X38566464Y-67373904D01*
X38709523Y-67373904D01*
X38709523Y-67554857D01*
G37*
G36*
X38709523Y-65381904D02*
G01*
X38528367Y-65381904D01*
X38487807Y-65361624D01*
X38472661Y-65346478D01*
X38452380Y-65305916D01*
X38452380Y-65238845D01*
X38472661Y-65198283D01*
X38482589Y-65188355D01*
X38550264Y-65165796D01*
X38554044Y-65166477D01*
X38562772Y-65162857D01*
X38709523Y-65162857D01*
X38709523Y-65381904D01*
G37*
G36*
X38709523Y-64962857D02*
G01*
X38566464Y-64962857D01*
X38525901Y-64942575D01*
X38510756Y-64927430D01*
X38490476Y-64886870D01*
X38490476Y-64857891D01*
X38510755Y-64817331D01*
X38525903Y-64802184D01*
X38566464Y-64781904D01*
X38709523Y-64781904D01*
X38709523Y-64962857D01*
G37*
G36*
X37146971Y-59969333D02*
G01*
X37043503Y-59969333D01*
X37095236Y-59814131D01*
X37146971Y-59969333D01*
G37*
G36*
X37947618Y-60197904D02*
G01*
X37873369Y-60197904D01*
X37796875Y-60172406D01*
X37748851Y-60124383D01*
X37722922Y-60072524D01*
X37690475Y-59942735D01*
X37690475Y-59853070D01*
X37722923Y-59723280D01*
X37748851Y-59671426D01*
X37796873Y-59623403D01*
X37873370Y-59597904D01*
X37947618Y-59597904D01*
X37947618Y-60197904D01*
G37*
G36*
X37071428Y-57605904D02*
G01*
X36997179Y-57605904D01*
X36920685Y-57580406D01*
X36872661Y-57532383D01*
X36846732Y-57480524D01*
X36814285Y-57350735D01*
X36814285Y-57261070D01*
X36846733Y-57131280D01*
X36872661Y-57079426D01*
X36920683Y-57031403D01*
X36997180Y-57005904D01*
X37071428Y-57005904D01*
X37071428Y-57605904D01*
G37*
G36*
X39414286Y-84214286D02*
G01*
X35807619Y-84214286D01*
X35807619Y-82818469D01*
X36686518Y-82818469D01*
X36699002Y-82875852D01*
X37001295Y-83178145D01*
X36701848Y-83577407D01*
X36686525Y-83618375D01*
X36698957Y-83675770D01*
X36740444Y-83717332D01*
X36797816Y-83729867D01*
X36852857Y-83709394D01*
X37144151Y-83321001D01*
X37147618Y-83324468D01*
X37147618Y-83640283D01*
X37159941Y-83682251D01*
X37204323Y-83720708D01*
X37262450Y-83729065D01*
X37315869Y-83704670D01*
X37347618Y-83655267D01*
X37347618Y-83542280D01*
X37486518Y-83542280D01*
X37499002Y-83599663D01*
X37554050Y-83654710D01*
X37569092Y-83673392D01*
X37588479Y-83679854D01*
X37606419Y-83689650D01*
X37615843Y-83688975D01*
X37699337Y-83716806D01*
X37713493Y-83725904D01*
X37741048Y-83725904D01*
X37768586Y-83726900D01*
X37770266Y-83725904D01*
X37806508Y-83725904D01*
X37822813Y-83730058D01*
X37848948Y-83721346D01*
X37875394Y-83713581D01*
X37876673Y-83712104D01*
X37959845Y-83684380D01*
X37983281Y-83679282D01*
X37997730Y-83664832D01*
X38014514Y-83653168D01*
X38018125Y-83644437D01*
X38071366Y-83591196D01*
X38085835Y-83582603D01*
X38098159Y-83557953D01*
X38111363Y-83533773D01*
X38111223Y-83531824D01*
X38129095Y-83496080D01*
X38137510Y-83488168D01*
X38141969Y-83470331D01*
X38143491Y-83467288D01*
X38145445Y-83456427D01*
X38178736Y-83323266D01*
X38185714Y-83312410D01*
X38185714Y-83295359D01*
X38186216Y-83293351D01*
X38185714Y-83280998D01*
X38185714Y-83185219D01*
X38189850Y-83172993D01*
X38185714Y-83156449D01*
X38185714Y-83154382D01*
X38182235Y-83142534D01*
X38148952Y-83009404D01*
X38150192Y-82997922D01*
X38141971Y-82981480D01*
X38141145Y-82978176D01*
X38135555Y-82968649D01*
X38104574Y-82906686D01*
X38100997Y-82890242D01*
X38081510Y-82870756D01*
X38064908Y-82852907D01*
X38286846Y-82852907D01*
X38297300Y-82910694D01*
X38337336Y-82953657D01*
X38394243Y-82968154D01*
X38520989Y-82925904D01*
X38671631Y-82925904D01*
X38712191Y-82946185D01*
X38727338Y-82961332D01*
X38747619Y-83001893D01*
X38747619Y-83030868D01*
X38727337Y-83071430D01*
X38712192Y-83086575D01*
X38660334Y-83112505D01*
X38535883Y-83143617D01*
X38524399Y-83142378D01*
X38507955Y-83150599D01*
X38504654Y-83151425D01*
X38495137Y-83157008D01*
X38433156Y-83187997D01*
X38416718Y-83191574D01*
X38397247Y-83211044D01*
X38377058Y-83229825D01*
X38376573Y-83231718D01*
X38366727Y-83241564D01*
X38352259Y-83250158D01*
X38339934Y-83274807D01*
X38326731Y-83298988D01*
X38326870Y-83300936D01*
X38303442Y-83347793D01*
X38290476Y-83367970D01*
X38290476Y-83388406D01*
X38286856Y-83408521D01*
X38290476Y-83417249D01*
X38290476Y-83468138D01*
X38287902Y-83491981D01*
X38297040Y-83510257D01*
X38302799Y-83529870D01*
X38309940Y-83536057D01*
X38333520Y-83583219D01*
X38337098Y-83599662D01*
X38356580Y-83619145D01*
X38375349Y-83639322D01*
X38377241Y-83639805D01*
X38387089Y-83649654D01*
X38395682Y-83664121D01*
X38420323Y-83676441D01*
X38444512Y-83689649D01*
X38446460Y-83689509D01*
X38493317Y-83712937D01*
X38513494Y-83725904D01*
X38533930Y-83725904D01*
X38554046Y-83729524D01*
X38562774Y-83725904D01*
X38720794Y-83725904D01*
X38737099Y-83730058D01*
X38763234Y-83721346D01*
X38789680Y-83713581D01*
X38790959Y-83712104D01*
X38892883Y-83678130D01*
X38928800Y-83653168D01*
X38951249Y-83598903D01*
X38940796Y-83541116D01*
X38900760Y-83498153D01*
X38843853Y-83483655D01*
X38717106Y-83525904D01*
X38566464Y-83525904D01*
X38525901Y-83505623D01*
X38510757Y-83490479D01*
X38490476Y-83449916D01*
X38490476Y-83420940D01*
X38510756Y-83380378D01*
X38525903Y-83365231D01*
X38577757Y-83339304D01*
X38702212Y-83308191D01*
X38713697Y-83309431D01*
X38730140Y-83301209D01*
X38733441Y-83300384D01*
X38742960Y-83294798D01*
X38804936Y-83263810D01*
X38821376Y-83260234D01*
X38840851Y-83240759D01*
X38861037Y-83221982D01*
X38861520Y-83220089D01*
X38871369Y-83210241D01*
X38885833Y-83201651D01*
X38898147Y-83177022D01*
X38911363Y-83152820D01*
X38911223Y-83150871D01*
X38934654Y-83104012D01*
X38947619Y-83083839D01*
X38947619Y-83063405D01*
X38951239Y-83043290D01*
X38947619Y-83034562D01*
X38947619Y-82983668D01*
X38950193Y-82959825D01*
X38941053Y-82941546D01*
X38935296Y-82921938D01*
X38928155Y-82915750D01*
X38904571Y-82868585D01*
X38900996Y-82852147D01*
X38881524Y-82832675D01*
X38862744Y-82812486D01*
X38860850Y-82812001D01*
X38851005Y-82802156D01*
X38842413Y-82787689D01*
X38817761Y-82775363D01*
X38793582Y-82762160D01*
X38791634Y-82762299D01*
X38744776Y-82738870D01*
X38724601Y-82725904D01*
X38704166Y-82725904D01*
X38684051Y-82722284D01*
X38675322Y-82725904D01*
X38517300Y-82725904D01*
X38500993Y-82721750D01*
X38474849Y-82730464D01*
X38448414Y-82738227D01*
X38447134Y-82739703D01*
X38345211Y-82773679D01*
X38309294Y-82798641D01*
X38286846Y-82852907D01*
X38064908Y-82852907D01*
X38062745Y-82850581D01*
X38060851Y-82850096D01*
X38007852Y-82797098D01*
X37992812Y-82778417D01*
X37973423Y-82771954D01*
X37955487Y-82762160D01*
X37946063Y-82762833D01*
X37862565Y-82735001D01*
X37848410Y-82725904D01*
X37820855Y-82725904D01*
X37793318Y-82724908D01*
X37791638Y-82725904D01*
X37755395Y-82725904D01*
X37739088Y-82721750D01*
X37712944Y-82730464D01*
X37686509Y-82738227D01*
X37685229Y-82739703D01*
X37602053Y-82767429D01*
X37578624Y-82772526D01*
X37564174Y-82786975D01*
X37547389Y-82798641D01*
X37543777Y-82807372D01*
X37509598Y-82841551D01*
X37488635Y-82879940D01*
X37492824Y-82938516D01*
X37528016Y-82985528D01*
X37583038Y-83006052D01*
X37640422Y-82993569D01*
X37682588Y-82951403D01*
X37759084Y-82925904D01*
X37802819Y-82925904D01*
X37879314Y-82951402D01*
X37927338Y-82999426D01*
X37953265Y-83051280D01*
X37985714Y-83181073D01*
X37985714Y-83270738D01*
X37953265Y-83400524D01*
X37927337Y-83452382D01*
X37879315Y-83500405D01*
X37802820Y-83525904D01*
X37759084Y-83525904D01*
X37682588Y-83500405D01*
X37651017Y-83468835D01*
X37612627Y-83447873D01*
X37554051Y-83452064D01*
X37507041Y-83487257D01*
X37486518Y-83542280D01*
X37347618Y-83542280D01*
X37347618Y-83301091D01*
X37351575Y-83290482D01*
X37347618Y-83272292D01*
X37347618Y-82811525D01*
X37335295Y-82769557D01*
X37290913Y-82731100D01*
X37232786Y-82722743D01*
X37179367Y-82747138D01*
X37147618Y-82796541D01*
X37147618Y-83041625D01*
X36851018Y-82745026D01*
X36812629Y-82724064D01*
X36754053Y-82728253D01*
X36707041Y-82763446D01*
X36686518Y-82818469D01*
X35807619Y-82818469D01*
X35807619Y-80763005D01*
X37448244Y-80763005D01*
X37452380Y-80779549D01*
X37452380Y-80781617D01*
X37455859Y-80793466D01*
X37493085Y-80942370D01*
X37499002Y-80969568D01*
X37510705Y-80981271D01*
X37519082Y-80995549D01*
X37531045Y-81001611D01*
X37587090Y-81057654D01*
X37595682Y-81072120D01*
X37620306Y-81084432D01*
X37644513Y-81097650D01*
X37646463Y-81097510D01*
X37693314Y-81120936D01*
X37713493Y-81133904D01*
X37733929Y-81133904D01*
X37754044Y-81137524D01*
X37762772Y-81133904D01*
X37889852Y-81133904D01*
X37913695Y-81136478D01*
X37931971Y-81127339D01*
X37951584Y-81121581D01*
X37957771Y-81114439D01*
X38004933Y-81090859D01*
X38021376Y-81087282D01*
X38040855Y-81067802D01*
X38061036Y-81049031D01*
X38061520Y-81047137D01*
X38117232Y-80991425D01*
X38137510Y-80972359D01*
X38141524Y-80956302D01*
X38149458Y-80941773D01*
X38148501Y-80928395D01*
X38178736Y-80807457D01*
X38185714Y-80796601D01*
X38185714Y-80779550D01*
X38186216Y-80777542D01*
X38185714Y-80765189D01*
X38185714Y-80517029D01*
X38189850Y-80504803D01*
X38185714Y-80488259D01*
X38185714Y-80486192D01*
X38182235Y-80474344D01*
X38145008Y-80325441D01*
X38139092Y-80298242D01*
X38127388Y-80286538D01*
X38119011Y-80272260D01*
X38107047Y-80266198D01*
X38101756Y-80260907D01*
X38286846Y-80260907D01*
X38297300Y-80318694D01*
X38337336Y-80361657D01*
X38394243Y-80376154D01*
X38520989Y-80333904D01*
X38671631Y-80333904D01*
X38712191Y-80354185D01*
X38727338Y-80369332D01*
X38747619Y-80409893D01*
X38747619Y-80438868D01*
X38727337Y-80479430D01*
X38712192Y-80494575D01*
X38660334Y-80520505D01*
X38535883Y-80551617D01*
X38524399Y-80550378D01*
X38507955Y-80558599D01*
X38504654Y-80559425D01*
X38495137Y-80565008D01*
X38433156Y-80595997D01*
X38416718Y-80599574D01*
X38397247Y-80619044D01*
X38377058Y-80637825D01*
X38376573Y-80639718D01*
X38366727Y-80649564D01*
X38352259Y-80658158D01*
X38339934Y-80682807D01*
X38326731Y-80706988D01*
X38326870Y-80708936D01*
X38303442Y-80755793D01*
X38290476Y-80775970D01*
X38290476Y-80796406D01*
X38286856Y-80816521D01*
X38290476Y-80825249D01*
X38290476Y-80876138D01*
X38287902Y-80899981D01*
X38297040Y-80918257D01*
X38302799Y-80937870D01*
X38309940Y-80944057D01*
X38333520Y-80991219D01*
X38337098Y-81007662D01*
X38356580Y-81027145D01*
X38375349Y-81047322D01*
X38377241Y-81047805D01*
X38387089Y-81057654D01*
X38395682Y-81072121D01*
X38420323Y-81084441D01*
X38444512Y-81097649D01*
X38446460Y-81097509D01*
X38493317Y-81120937D01*
X38513494Y-81133904D01*
X38533930Y-81133904D01*
X38554046Y-81137524D01*
X38562774Y-81133904D01*
X38720794Y-81133904D01*
X38737099Y-81138058D01*
X38763234Y-81129346D01*
X38789680Y-81121581D01*
X38790959Y-81120104D01*
X38892883Y-81086130D01*
X38928800Y-81061168D01*
X38951249Y-81006903D01*
X38940796Y-80949116D01*
X38900760Y-80906153D01*
X38843853Y-80891655D01*
X38717106Y-80933904D01*
X38566464Y-80933904D01*
X38525901Y-80913623D01*
X38510757Y-80898479D01*
X38490476Y-80857916D01*
X38490476Y-80828940D01*
X38510756Y-80788378D01*
X38525903Y-80773231D01*
X38577757Y-80747304D01*
X38702212Y-80716191D01*
X38713697Y-80717431D01*
X38730140Y-80709209D01*
X38733441Y-80708384D01*
X38742960Y-80702798D01*
X38804936Y-80671810D01*
X38821376Y-80668234D01*
X38840851Y-80648759D01*
X38861037Y-80629982D01*
X38861520Y-80628089D01*
X38871369Y-80618241D01*
X38885833Y-80609651D01*
X38898147Y-80585022D01*
X38911363Y-80560820D01*
X38911223Y-80558871D01*
X38934654Y-80512012D01*
X38947619Y-80491839D01*
X38947619Y-80471405D01*
X38951239Y-80451290D01*
X38947619Y-80442562D01*
X38947619Y-80391668D01*
X38950193Y-80367825D01*
X38941053Y-80349546D01*
X38935296Y-80329938D01*
X38928155Y-80323750D01*
X38904571Y-80276585D01*
X38900996Y-80260147D01*
X38881524Y-80240675D01*
X38862744Y-80220486D01*
X38860850Y-80220001D01*
X38851005Y-80210156D01*
X38842413Y-80195689D01*
X38817761Y-80183363D01*
X38793582Y-80170160D01*
X38791634Y-80170299D01*
X38744776Y-80146870D01*
X38724601Y-80133904D01*
X38704166Y-80133904D01*
X38684051Y-80130284D01*
X38675322Y-80133904D01*
X38517300Y-80133904D01*
X38500993Y-80129750D01*
X38474849Y-80138464D01*
X38448414Y-80146227D01*
X38447134Y-80147703D01*
X38345211Y-80181679D01*
X38309294Y-80206641D01*
X38286846Y-80260907D01*
X38101756Y-80260907D01*
X38051005Y-80210156D01*
X38042413Y-80195689D01*
X38017764Y-80183364D01*
X37993582Y-80170160D01*
X37991634Y-80170299D01*
X37944775Y-80146869D01*
X37924600Y-80133904D01*
X37904165Y-80133904D01*
X37884050Y-80130284D01*
X37875322Y-80133904D01*
X37748239Y-80133904D01*
X37724396Y-80131330D01*
X37706117Y-80140469D01*
X37686509Y-80146227D01*
X37680321Y-80153367D01*
X37633159Y-80176949D01*
X37616719Y-80180526D01*
X37597241Y-80200002D01*
X37577057Y-80218779D01*
X37576573Y-80220671D01*
X37520863Y-80276379D01*
X37500582Y-80295450D01*
X37496567Y-80311508D01*
X37488635Y-80326036D01*
X37489591Y-80339411D01*
X37459356Y-80460351D01*
X37452380Y-80471208D01*
X37452380Y-80488259D01*
X37451878Y-80490267D01*
X37452380Y-80502613D01*
X37452380Y-80750779D01*
X37448244Y-80763005D01*
X35807619Y-80763005D01*
X35807619Y-77668907D01*
X37524941Y-77668907D01*
X37535395Y-77726694D01*
X37575431Y-77769657D01*
X37632338Y-77784154D01*
X37759084Y-77741904D01*
X37909726Y-77741904D01*
X37950286Y-77762185D01*
X37965433Y-77777332D01*
X37985714Y-77817893D01*
X37985714Y-77846868D01*
X37965432Y-77887430D01*
X37950287Y-77902575D01*
X37898429Y-77928505D01*
X37773978Y-77959617D01*
X37762494Y-77958378D01*
X37746050Y-77966599D01*
X37742749Y-77967425D01*
X37733232Y-77973008D01*
X37671251Y-78003997D01*
X37654813Y-78007574D01*
X37635342Y-78027044D01*
X37615153Y-78045825D01*
X37614668Y-78047718D01*
X37604822Y-78057564D01*
X37590354Y-78066158D01*
X37578029Y-78090807D01*
X37564826Y-78114988D01*
X37564965Y-78116936D01*
X37541537Y-78163793D01*
X37528571Y-78183970D01*
X37528571Y-78204406D01*
X37524951Y-78224521D01*
X37528571Y-78233249D01*
X37528571Y-78284138D01*
X37525997Y-78307981D01*
X37535135Y-78326257D01*
X37540894Y-78345870D01*
X37548035Y-78352057D01*
X37571615Y-78399219D01*
X37575193Y-78415662D01*
X37594675Y-78435145D01*
X37613444Y-78455322D01*
X37615336Y-78455805D01*
X37625184Y-78465654D01*
X37633777Y-78480121D01*
X37658418Y-78492441D01*
X37682607Y-78505649D01*
X37684555Y-78505509D01*
X37731412Y-78528937D01*
X37751589Y-78541904D01*
X37772025Y-78541904D01*
X37792141Y-78545524D01*
X37800869Y-78541904D01*
X37958889Y-78541904D01*
X37975194Y-78546058D01*
X38001329Y-78537346D01*
X38027775Y-78529581D01*
X38029054Y-78528104D01*
X38130978Y-78494130D01*
X38166895Y-78469168D01*
X38189344Y-78414903D01*
X38178891Y-78357116D01*
X38138855Y-78314153D01*
X38081948Y-78299655D01*
X37955201Y-78341904D01*
X37804559Y-78341904D01*
X37763996Y-78321623D01*
X37748852Y-78306479D01*
X37728571Y-78265916D01*
X37728571Y-78236940D01*
X37748851Y-78196378D01*
X37763998Y-78181231D01*
X37815852Y-78155304D01*
X37940307Y-78124191D01*
X37951792Y-78125431D01*
X37968235Y-78117209D01*
X37971536Y-78116384D01*
X37981055Y-78110798D01*
X38043031Y-78079810D01*
X38059471Y-78076234D01*
X38078946Y-78056759D01*
X38099132Y-78037982D01*
X38099615Y-78036089D01*
X38109464Y-78026241D01*
X38123928Y-78017651D01*
X38136242Y-77993022D01*
X38149458Y-77968820D01*
X38149318Y-77966871D01*
X38172749Y-77920012D01*
X38185714Y-77899839D01*
X38185714Y-77879405D01*
X38189334Y-77859290D01*
X38185714Y-77850562D01*
X38185714Y-77799668D01*
X38188288Y-77775825D01*
X38179148Y-77757546D01*
X38173391Y-77737938D01*
X38166250Y-77731750D01*
X38142666Y-77684585D01*
X38139256Y-77668907D01*
X38286846Y-77668907D01*
X38297300Y-77726694D01*
X38337336Y-77769657D01*
X38394243Y-77784154D01*
X38520989Y-77741904D01*
X38671631Y-77741904D01*
X38712191Y-77762185D01*
X38727338Y-77777332D01*
X38747619Y-77817893D01*
X38747619Y-77846868D01*
X38727337Y-77887430D01*
X38712192Y-77902575D01*
X38660334Y-77928505D01*
X38535883Y-77959617D01*
X38524399Y-77958378D01*
X38507955Y-77966599D01*
X38504654Y-77967425D01*
X38495137Y-77973008D01*
X38433156Y-78003997D01*
X38416718Y-78007574D01*
X38397247Y-78027044D01*
X38377058Y-78045825D01*
X38376573Y-78047718D01*
X38366727Y-78057564D01*
X38352259Y-78066158D01*
X38339934Y-78090807D01*
X38326731Y-78114988D01*
X38326870Y-78116936D01*
X38303442Y-78163793D01*
X38290476Y-78183970D01*
X38290476Y-78204406D01*
X38286856Y-78224521D01*
X38290476Y-78233249D01*
X38290476Y-78284138D01*
X38287902Y-78307981D01*
X38297040Y-78326257D01*
X38302799Y-78345870D01*
X38309940Y-78352057D01*
X38333520Y-78399219D01*
X38337098Y-78415662D01*
X38356580Y-78435145D01*
X38375349Y-78455322D01*
X38377241Y-78455805D01*
X38387089Y-78465654D01*
X38395682Y-78480121D01*
X38420323Y-78492441D01*
X38444512Y-78505649D01*
X38446460Y-78505509D01*
X38493317Y-78528937D01*
X38513494Y-78541904D01*
X38533930Y-78541904D01*
X38554046Y-78545524D01*
X38562774Y-78541904D01*
X38720794Y-78541904D01*
X38737099Y-78546058D01*
X38763234Y-78537346D01*
X38789680Y-78529581D01*
X38790959Y-78528104D01*
X38892883Y-78494130D01*
X38928800Y-78469168D01*
X38951249Y-78414903D01*
X38940796Y-78357116D01*
X38900760Y-78314153D01*
X38843853Y-78299655D01*
X38717106Y-78341904D01*
X38566464Y-78341904D01*
X38525901Y-78321623D01*
X38510757Y-78306479D01*
X38490476Y-78265916D01*
X38490476Y-78236940D01*
X38510756Y-78196378D01*
X38525903Y-78181231D01*
X38577757Y-78155304D01*
X38702212Y-78124191D01*
X38713697Y-78125431D01*
X38730140Y-78117209D01*
X38733441Y-78116384D01*
X38742960Y-78110798D01*
X38804936Y-78079810D01*
X38821376Y-78076234D01*
X38840851Y-78056759D01*
X38861037Y-78037982D01*
X38861520Y-78036089D01*
X38871369Y-78026241D01*
X38885833Y-78017651D01*
X38898147Y-77993022D01*
X38911363Y-77968820D01*
X38911223Y-77966871D01*
X38934654Y-77920012D01*
X38947619Y-77899839D01*
X38947619Y-77879405D01*
X38951239Y-77859290D01*
X38947619Y-77850562D01*
X38947619Y-77799668D01*
X38950193Y-77775825D01*
X38941053Y-77757546D01*
X38935296Y-77737938D01*
X38928155Y-77731750D01*
X38904571Y-77684585D01*
X38900996Y-77668147D01*
X38881524Y-77648675D01*
X38862744Y-77628486D01*
X38860850Y-77628001D01*
X38851005Y-77618156D01*
X38842413Y-77603689D01*
X38817761Y-77591363D01*
X38793582Y-77578160D01*
X38791634Y-77578299D01*
X38744776Y-77554870D01*
X38724601Y-77541904D01*
X38704166Y-77541904D01*
X38684051Y-77538284D01*
X38675322Y-77541904D01*
X38517300Y-77541904D01*
X38500993Y-77537750D01*
X38474849Y-77546464D01*
X38448414Y-77554227D01*
X38447134Y-77555703D01*
X38345211Y-77589679D01*
X38309294Y-77614641D01*
X38286846Y-77668907D01*
X38139256Y-77668907D01*
X38139091Y-77668147D01*
X38119619Y-77648675D01*
X38100839Y-77628486D01*
X38098945Y-77628001D01*
X38089100Y-77618156D01*
X38080508Y-77603689D01*
X38055856Y-77591363D01*
X38031677Y-77578160D01*
X38029729Y-77578299D01*
X37982871Y-77554870D01*
X37962696Y-77541904D01*
X37942261Y-77541904D01*
X37922146Y-77538284D01*
X37913417Y-77541904D01*
X37755395Y-77541904D01*
X37739088Y-77537750D01*
X37712944Y-77546464D01*
X37686509Y-77554227D01*
X37685229Y-77555703D01*
X37583306Y-77589679D01*
X37547389Y-77614641D01*
X37524941Y-77668907D01*
X35807619Y-77668907D01*
X35807619Y-75845786D01*
X37448239Y-75845786D01*
X37462545Y-75902742D01*
X37505372Y-75942922D01*
X37563124Y-75953571D01*
X37617465Y-75931305D01*
X37871112Y-75568952D01*
X37909523Y-75568952D01*
X37909523Y-75864283D01*
X37921846Y-75906251D01*
X37966228Y-75944708D01*
X38024355Y-75953065D01*
X38077774Y-75928670D01*
X38109523Y-75879267D01*
X38109523Y-75502815D01*
X38248244Y-75502815D01*
X38252380Y-75519359D01*
X38252380Y-75521426D01*
X38255858Y-75533273D01*
X38289141Y-75666403D01*
X38287902Y-75677886D01*
X38296123Y-75694328D01*
X38296949Y-75697632D01*
X38302537Y-75707157D01*
X38333520Y-75769124D01*
X38337098Y-75785567D01*
X38356577Y-75805046D01*
X38375349Y-75825227D01*
X38377242Y-75825711D01*
X38430239Y-75878708D01*
X38445282Y-75897392D01*
X38464669Y-75903854D01*
X38482607Y-75913649D01*
X38492031Y-75912974D01*
X38575527Y-75940806D01*
X38589684Y-75949904D01*
X38617240Y-75949904D01*
X38644777Y-75950900D01*
X38646457Y-75949904D01*
X38802369Y-75949904D01*
X38824355Y-75953065D01*
X38844558Y-75943838D01*
X38865870Y-75937581D01*
X38870852Y-75931830D01*
X38877774Y-75928670D01*
X38889782Y-75909984D01*
X38904327Y-75893199D01*
X38905409Y-75885667D01*
X38909523Y-75879267D01*
X38909523Y-75857058D01*
X38912684Y-75835072D01*
X38909523Y-75828150D01*
X38909523Y-75057058D01*
X38912684Y-75035072D01*
X38903457Y-75014868D01*
X38897200Y-74993557D01*
X38891449Y-74988574D01*
X38888289Y-74981653D01*
X38869603Y-74969644D01*
X38852818Y-74955100D01*
X38845286Y-74954017D01*
X38838886Y-74949904D01*
X38816677Y-74949904D01*
X38794691Y-74946743D01*
X38787769Y-74949904D01*
X38631586Y-74949904D01*
X38615280Y-74945750D01*
X38589142Y-74954462D01*
X38562700Y-74962227D01*
X38561420Y-74963703D01*
X38478252Y-74991427D01*
X38454813Y-74996526D01*
X38440361Y-75010977D01*
X38423579Y-75022641D01*
X38419967Y-75031372D01*
X38366725Y-75084614D01*
X38352260Y-75093206D01*
X38339942Y-75117840D01*
X38326731Y-75142036D01*
X38326870Y-75143985D01*
X38308999Y-75179727D01*
X38300584Y-75187640D01*
X38296124Y-75205476D01*
X38294603Y-75208520D01*
X38292648Y-75219381D01*
X38259357Y-75352541D01*
X38252380Y-75363398D01*
X38252380Y-75380449D01*
X38251878Y-75382457D01*
X38252380Y-75394803D01*
X38252380Y-75490589D01*
X38248244Y-75502815D01*
X38109523Y-75502815D01*
X38109523Y-75476106D01*
X38112684Y-75454120D01*
X38109523Y-75447198D01*
X38109523Y-75057058D01*
X38112684Y-75035072D01*
X38103457Y-75014868D01*
X38097200Y-74993557D01*
X38091449Y-74988574D01*
X38088289Y-74981653D01*
X38069603Y-74969644D01*
X38052818Y-74955100D01*
X38045286Y-74954017D01*
X38038886Y-74949904D01*
X38016677Y-74949904D01*
X37994691Y-74946743D01*
X37987769Y-74949904D01*
X37710144Y-74949904D01*
X37686301Y-74947330D01*
X37668022Y-74956469D01*
X37648414Y-74962227D01*
X37642226Y-74969367D01*
X37595061Y-74992951D01*
X37578623Y-74996527D01*
X37559151Y-75015998D01*
X37538962Y-75034779D01*
X37538477Y-75036672D01*
X37528632Y-75046517D01*
X37514165Y-75055110D01*
X37501839Y-75079761D01*
X37488636Y-75103941D01*
X37488775Y-75105888D01*
X37465346Y-75152746D01*
X37452380Y-75172922D01*
X37452380Y-75193357D01*
X37448760Y-75213472D01*
X37452380Y-75222201D01*
X37452380Y-75311187D01*
X37449806Y-75335030D01*
X37458944Y-75353306D01*
X37464703Y-75372918D01*
X37471844Y-75379106D01*
X37495425Y-75426267D01*
X37499002Y-75442708D01*
X37518477Y-75462184D01*
X37537255Y-75482370D01*
X37539147Y-75482853D01*
X37548994Y-75492701D01*
X37557587Y-75507168D01*
X37582223Y-75519486D01*
X37606416Y-75532697D01*
X37608366Y-75532557D01*
X37641026Y-75548887D01*
X37462211Y-75804337D01*
X37448239Y-75845786D01*
X35807619Y-75845786D01*
X35807619Y-73272283D01*
X37947618Y-73272283D01*
X37959941Y-73314251D01*
X38004323Y-73352708D01*
X38062450Y-73361065D01*
X38115869Y-73336670D01*
X38147618Y-73287267D01*
X38147618Y-72484907D01*
X38286846Y-72484907D01*
X38297300Y-72542694D01*
X38337336Y-72585657D01*
X38394243Y-72600154D01*
X38520989Y-72557904D01*
X38671631Y-72557904D01*
X38712191Y-72578185D01*
X38727338Y-72593332D01*
X38747619Y-72633893D01*
X38747619Y-72662868D01*
X38727337Y-72703430D01*
X38712192Y-72718575D01*
X38660334Y-72744505D01*
X38535883Y-72775617D01*
X38524399Y-72774378D01*
X38507955Y-72782599D01*
X38504654Y-72783425D01*
X38495137Y-72789008D01*
X38433156Y-72819997D01*
X38416718Y-72823574D01*
X38397247Y-72843044D01*
X38377058Y-72861825D01*
X38376573Y-72863718D01*
X38366727Y-72873564D01*
X38352259Y-72882158D01*
X38339934Y-72906807D01*
X38326731Y-72930988D01*
X38326870Y-72932936D01*
X38303442Y-72979793D01*
X38290476Y-72999970D01*
X38290476Y-73020406D01*
X38286856Y-73040521D01*
X38290476Y-73049249D01*
X38290476Y-73100138D01*
X38287902Y-73123981D01*
X38297040Y-73142257D01*
X38302799Y-73161870D01*
X38309940Y-73168057D01*
X38333520Y-73215219D01*
X38337098Y-73231662D01*
X38356580Y-73251145D01*
X38375349Y-73271322D01*
X38377241Y-73271805D01*
X38387089Y-73281654D01*
X38395682Y-73296121D01*
X38420323Y-73308441D01*
X38444512Y-73321649D01*
X38446460Y-73321509D01*
X38493317Y-73344937D01*
X38513494Y-73357904D01*
X38533930Y-73357904D01*
X38554046Y-73361524D01*
X38562774Y-73357904D01*
X38720794Y-73357904D01*
X38737099Y-73362058D01*
X38763234Y-73353346D01*
X38789680Y-73345581D01*
X38790959Y-73344104D01*
X38892883Y-73310130D01*
X38928800Y-73285168D01*
X38951249Y-73230903D01*
X38940796Y-73173116D01*
X38900760Y-73130153D01*
X38843853Y-73115655D01*
X38717106Y-73157904D01*
X38566464Y-73157904D01*
X38525901Y-73137623D01*
X38510757Y-73122479D01*
X38490476Y-73081916D01*
X38490476Y-73052940D01*
X38510756Y-73012378D01*
X38525903Y-72997231D01*
X38577757Y-72971304D01*
X38702212Y-72940191D01*
X38713697Y-72941431D01*
X38730140Y-72933209D01*
X38733441Y-72932384D01*
X38742960Y-72926798D01*
X38804936Y-72895810D01*
X38821376Y-72892234D01*
X38840851Y-72872759D01*
X38861037Y-72853982D01*
X38861520Y-72852089D01*
X38871369Y-72842241D01*
X38885833Y-72833651D01*
X38898147Y-72809022D01*
X38911363Y-72784820D01*
X38911223Y-72782871D01*
X38934654Y-72736012D01*
X38947619Y-72715839D01*
X38947619Y-72695405D01*
X38951239Y-72675290D01*
X38947619Y-72666562D01*
X38947619Y-72615668D01*
X38950193Y-72591825D01*
X38941053Y-72573546D01*
X38935296Y-72553938D01*
X38928155Y-72547750D01*
X38904571Y-72500585D01*
X38900996Y-72484147D01*
X38881524Y-72464675D01*
X38862744Y-72444486D01*
X38860850Y-72444001D01*
X38851005Y-72434156D01*
X38842413Y-72419689D01*
X38817761Y-72407363D01*
X38793582Y-72394160D01*
X38791634Y-72394299D01*
X38744776Y-72370870D01*
X38724601Y-72357904D01*
X38704166Y-72357904D01*
X38684051Y-72354284D01*
X38675322Y-72357904D01*
X38517300Y-72357904D01*
X38500993Y-72353750D01*
X38474849Y-72362464D01*
X38448414Y-72370227D01*
X38447134Y-72371703D01*
X38345211Y-72405679D01*
X38309294Y-72430641D01*
X38286846Y-72484907D01*
X38147618Y-72484907D01*
X38147618Y-72443525D01*
X38135295Y-72401557D01*
X38090913Y-72363100D01*
X38032786Y-72354743D01*
X37979367Y-72379138D01*
X37947618Y-72428541D01*
X37947618Y-73272283D01*
X35807619Y-73272283D01*
X35807619Y-70334235D01*
X37486856Y-70334235D01*
X37490476Y-70342963D01*
X37490476Y-70508138D01*
X37487902Y-70531981D01*
X37497040Y-70550257D01*
X37502799Y-70569870D01*
X37509940Y-70576057D01*
X37533520Y-70623219D01*
X37537098Y-70639662D01*
X37556580Y-70659145D01*
X37575349Y-70679322D01*
X37577241Y-70679805D01*
X37587089Y-70689654D01*
X37595682Y-70704121D01*
X37620323Y-70716441D01*
X37644512Y-70729649D01*
X37646460Y-70729509D01*
X37693317Y-70752937D01*
X37713494Y-70765904D01*
X37733930Y-70765904D01*
X37754046Y-70769524D01*
X37762774Y-70765904D01*
X37966043Y-70765904D01*
X37989886Y-70768478D01*
X38008162Y-70759339D01*
X38027775Y-70753581D01*
X38033962Y-70746439D01*
X38081124Y-70722859D01*
X38097567Y-70719282D01*
X38117050Y-70699799D01*
X38137227Y-70681031D01*
X38137710Y-70679138D01*
X38166592Y-70650258D01*
X38187554Y-70611868D01*
X38183364Y-70553292D01*
X38148172Y-70506281D01*
X38093149Y-70485758D01*
X38035766Y-70498241D01*
X37988384Y-70545622D01*
X37947821Y-70565904D01*
X37766464Y-70565904D01*
X37725901Y-70545623D01*
X37710757Y-70530479D01*
X37690476Y-70489916D01*
X37690476Y-70410425D01*
X38248760Y-70410425D01*
X38252380Y-70419153D01*
X38252380Y-70508139D01*
X38249806Y-70531982D01*
X38258944Y-70550258D01*
X38264703Y-70569870D01*
X38271844Y-70576058D01*
X38295426Y-70623220D01*
X38299003Y-70639662D01*
X38318486Y-70659145D01*
X38337255Y-70679323D01*
X38339147Y-70679806D01*
X38348995Y-70689655D01*
X38357587Y-70704120D01*
X38382214Y-70716433D01*
X38406417Y-70729649D01*
X38408366Y-70729509D01*
X38455219Y-70752936D01*
X38475398Y-70765904D01*
X38495834Y-70765904D01*
X38515949Y-70769524D01*
X38524677Y-70765904D01*
X38802369Y-70765904D01*
X38824355Y-70769065D01*
X38844558Y-70759838D01*
X38865870Y-70753581D01*
X38870852Y-70747830D01*
X38877774Y-70744670D01*
X38889782Y-70725984D01*
X38904327Y-70709199D01*
X38905409Y-70701667D01*
X38909523Y-70695267D01*
X38909523Y-70673058D01*
X38912684Y-70651072D01*
X38909523Y-70644150D01*
X38909523Y-70254011D01*
X38912684Y-70232025D01*
X38909523Y-70225103D01*
X38909523Y-69873058D01*
X38912684Y-69851072D01*
X38903457Y-69830868D01*
X38897200Y-69809557D01*
X38891449Y-69804574D01*
X38888289Y-69797653D01*
X38869603Y-69785644D01*
X38852818Y-69771100D01*
X38845286Y-69770017D01*
X38838886Y-69765904D01*
X38816677Y-69765904D01*
X38794691Y-69762743D01*
X38787769Y-69765904D01*
X38548241Y-69765904D01*
X38524398Y-69763330D01*
X38506120Y-69772468D01*
X38486510Y-69778227D01*
X38480322Y-69785368D01*
X38433157Y-69808950D01*
X38416718Y-69812527D01*
X38397246Y-69831998D01*
X38377057Y-69850779D01*
X38376572Y-69852672D01*
X38366726Y-69862518D01*
X38352260Y-69871111D01*
X38339942Y-69895745D01*
X38326731Y-69919941D01*
X38326870Y-69921890D01*
X38303443Y-69968743D01*
X38290476Y-69988922D01*
X38290476Y-70009358D01*
X38286856Y-70029473D01*
X38290476Y-70038201D01*
X38290476Y-70089091D01*
X38287902Y-70112934D01*
X38297040Y-70131210D01*
X38302799Y-70150823D01*
X38309940Y-70157011D01*
X38333520Y-70204171D01*
X38337098Y-70220614D01*
X38344079Y-70227595D01*
X38343778Y-70228323D01*
X38328632Y-70243469D01*
X38314165Y-70252062D01*
X38301840Y-70276710D01*
X38288636Y-70300893D01*
X38288775Y-70302840D01*
X38265345Y-70349699D01*
X38252380Y-70369875D01*
X38252380Y-70390310D01*
X38248760Y-70410425D01*
X37690476Y-70410425D01*
X37690476Y-70346653D01*
X37710755Y-70306093D01*
X37725902Y-70290945D01*
X37766463Y-70270666D01*
X37828041Y-70270666D01*
X37828263Y-70270807D01*
X37857522Y-70270666D01*
X37871521Y-70270666D01*
X37871754Y-70270597D01*
X37886988Y-70270524D01*
X37899349Y-70262494D01*
X37913489Y-70258343D01*
X37923462Y-70246832D01*
X37936236Y-70238536D01*
X37942293Y-70225100D01*
X37951946Y-70213961D01*
X37954113Y-70198885D01*
X37960374Y-70185000D01*
X37958205Y-70170420D01*
X37960303Y-70155834D01*
X37953976Y-70141980D01*
X37951736Y-70126914D01*
X37942030Y-70115822D01*
X37935908Y-70102415D01*
X37923093Y-70094179D01*
X37810853Y-69965904D01*
X38100093Y-69965904D01*
X38142061Y-69953581D01*
X38180518Y-69909199D01*
X38188875Y-69851072D01*
X38164480Y-69797653D01*
X38115077Y-69765904D01*
X37619577Y-69765904D01*
X37619355Y-69765763D01*
X37590199Y-69765904D01*
X37576097Y-69765904D01*
X37575860Y-69765973D01*
X37560630Y-69766047D01*
X37548270Y-69774074D01*
X37534129Y-69778227D01*
X37524154Y-69789738D01*
X37511382Y-69798034D01*
X37505324Y-69811469D01*
X37495672Y-69822609D01*
X37493504Y-69837684D01*
X37487244Y-69851570D01*
X37489412Y-69866148D01*
X37487315Y-69880736D01*
X37493642Y-69894591D01*
X37495883Y-69909656D01*
X37505586Y-69920745D01*
X37511710Y-69934155D01*
X37524526Y-69942391D01*
X37661869Y-70099355D01*
X37633158Y-70113711D01*
X37616717Y-70117288D01*
X37597241Y-70136763D01*
X37577058Y-70155539D01*
X37576573Y-70157432D01*
X37566724Y-70167281D01*
X37552260Y-70175873D01*
X37539945Y-70200502D01*
X37526730Y-70224705D01*
X37526869Y-70226654D01*
X37503443Y-70273505D01*
X37490476Y-70293684D01*
X37490476Y-70314120D01*
X37486856Y-70334235D01*
X35807619Y-70334235D01*
X35807619Y-67506243D01*
X37486322Y-67506243D01*
X37495035Y-67532383D01*
X37502799Y-67558823D01*
X37504275Y-67560102D01*
X37531999Y-67643273D01*
X37537098Y-67666709D01*
X37551547Y-67681158D01*
X37563212Y-67697942D01*
X37571942Y-67701553D01*
X37844293Y-67973904D01*
X37576097Y-67973904D01*
X37534129Y-67986227D01*
X37495672Y-68030609D01*
X37487315Y-68088736D01*
X37511710Y-68142155D01*
X37561113Y-68173904D01*
X38060190Y-68173904D01*
X38063560Y-68175744D01*
X38089289Y-68173904D01*
X38100093Y-68173904D01*
X38103571Y-68172882D01*
X38122136Y-68171555D01*
X38131199Y-68164770D01*
X38142061Y-68161581D01*
X38154248Y-68147515D01*
X38169148Y-68136362D01*
X38173104Y-68125754D01*
X38180518Y-68117199D01*
X38183166Y-68098778D01*
X38189671Y-68081339D01*
X38187264Y-68070275D01*
X38188875Y-68059072D01*
X38181144Y-68042144D01*
X38177188Y-68023956D01*
X38169182Y-68015950D01*
X38164480Y-68005653D01*
X38148822Y-67995590D01*
X37971657Y-67818425D01*
X38248760Y-67818425D01*
X38252380Y-67827153D01*
X38252380Y-67916139D01*
X38249806Y-67939982D01*
X38258944Y-67958258D01*
X38264703Y-67977870D01*
X38271844Y-67984058D01*
X38295426Y-68031220D01*
X38299003Y-68047662D01*
X38318486Y-68067145D01*
X38337255Y-68087323D01*
X38339147Y-68087806D01*
X38348995Y-68097655D01*
X38357587Y-68112120D01*
X38382214Y-68124433D01*
X38406417Y-68137649D01*
X38408366Y-68137509D01*
X38455219Y-68160936D01*
X38475398Y-68173904D01*
X38495834Y-68173904D01*
X38515949Y-68177524D01*
X38524677Y-68173904D01*
X38802369Y-68173904D01*
X38824355Y-68177065D01*
X38844558Y-68167838D01*
X38865870Y-68161581D01*
X38870852Y-68155830D01*
X38877774Y-68152670D01*
X38889782Y-68133984D01*
X38904327Y-68117199D01*
X38905409Y-68109667D01*
X38909523Y-68103267D01*
X38909523Y-68081058D01*
X38912684Y-68059072D01*
X38909523Y-68052150D01*
X38909523Y-67662011D01*
X38912684Y-67640025D01*
X38909523Y-67633103D01*
X38909523Y-67281058D01*
X38912684Y-67259072D01*
X38903457Y-67238868D01*
X38897200Y-67217557D01*
X38891449Y-67212574D01*
X38888289Y-67205653D01*
X38869603Y-67193644D01*
X38852818Y-67179100D01*
X38845286Y-67178017D01*
X38838886Y-67173904D01*
X38816677Y-67173904D01*
X38794691Y-67170743D01*
X38787769Y-67173904D01*
X38548241Y-67173904D01*
X38524398Y-67171330D01*
X38506120Y-67180468D01*
X38486510Y-67186227D01*
X38480322Y-67193368D01*
X38433157Y-67216950D01*
X38416718Y-67220527D01*
X38397246Y-67239998D01*
X38377057Y-67258779D01*
X38376572Y-67260672D01*
X38366726Y-67270518D01*
X38352260Y-67279111D01*
X38339942Y-67303745D01*
X38326731Y-67327941D01*
X38326870Y-67329890D01*
X38303443Y-67376743D01*
X38290476Y-67396922D01*
X38290476Y-67417358D01*
X38286856Y-67437473D01*
X38290476Y-67446201D01*
X38290476Y-67497091D01*
X38287902Y-67520934D01*
X38297040Y-67539210D01*
X38302799Y-67558823D01*
X38309940Y-67565011D01*
X38333520Y-67612171D01*
X38337098Y-67628614D01*
X38344079Y-67635595D01*
X38343778Y-67636323D01*
X38328632Y-67651469D01*
X38314165Y-67660062D01*
X38301840Y-67684710D01*
X38288636Y-67708893D01*
X38288775Y-67710840D01*
X38265345Y-67757699D01*
X38252380Y-67777875D01*
X38252380Y-67798310D01*
X38248760Y-67818425D01*
X37971657Y-67818425D01*
X37715974Y-67562743D01*
X37690476Y-67486249D01*
X37690476Y-67449891D01*
X37710755Y-67409331D01*
X37725903Y-67394184D01*
X37766464Y-67373904D01*
X37909726Y-67373904D01*
X37950287Y-67394185D01*
X37987077Y-67430974D01*
X38025467Y-67451936D01*
X38084043Y-67447745D01*
X38131053Y-67412552D01*
X38151576Y-67357529D01*
X38139092Y-67300146D01*
X38089099Y-67250155D01*
X38080508Y-67235689D01*
X38055862Y-67223365D01*
X38031675Y-67210159D01*
X38029727Y-67210298D01*
X37982871Y-67186870D01*
X37962696Y-67173904D01*
X37942261Y-67173904D01*
X37922146Y-67170284D01*
X37913417Y-67173904D01*
X37748241Y-67173904D01*
X37724398Y-67171330D01*
X37706120Y-67180468D01*
X37686510Y-67186227D01*
X37680322Y-67193368D01*
X37633157Y-67216950D01*
X37616718Y-67220527D01*
X37597246Y-67239998D01*
X37577057Y-67258779D01*
X37576572Y-67260672D01*
X37566726Y-67270518D01*
X37552260Y-67279111D01*
X37539942Y-67303745D01*
X37526731Y-67327941D01*
X37526870Y-67329890D01*
X37503443Y-67376743D01*
X37490476Y-67396922D01*
X37490476Y-67417358D01*
X37486856Y-67437473D01*
X37490476Y-67446201D01*
X37490476Y-67489936D01*
X37486322Y-67506243D01*
X35807619Y-67506243D01*
X35807619Y-65496736D01*
X37487315Y-65496736D01*
X37511710Y-65550155D01*
X37561113Y-65581904D01*
X37811893Y-65581904D01*
X37833879Y-65585065D01*
X37840801Y-65581904D01*
X38061998Y-65581904D01*
X38103966Y-65569581D01*
X38142423Y-65525199D01*
X38150780Y-65467072D01*
X38126385Y-65413653D01*
X38076982Y-65381904D01*
X37919047Y-65381904D01*
X37919047Y-65226425D01*
X38248760Y-65226425D01*
X38252380Y-65235153D01*
X38252380Y-65324139D01*
X38249806Y-65347982D01*
X38258944Y-65366258D01*
X38264703Y-65385870D01*
X38271844Y-65392058D01*
X38295426Y-65439220D01*
X38299003Y-65455662D01*
X38318486Y-65475145D01*
X38337255Y-65495323D01*
X38339147Y-65495806D01*
X38348995Y-65505655D01*
X38357587Y-65520120D01*
X38382214Y-65532433D01*
X38406417Y-65545649D01*
X38408366Y-65545509D01*
X38455219Y-65568936D01*
X38475398Y-65581904D01*
X38495834Y-65581904D01*
X38515949Y-65585524D01*
X38524677Y-65581904D01*
X38802369Y-65581904D01*
X38824355Y-65585065D01*
X38844558Y-65575838D01*
X38865870Y-65569581D01*
X38870852Y-65563830D01*
X38877774Y-65560670D01*
X38889782Y-65541984D01*
X38904327Y-65525199D01*
X38905409Y-65517667D01*
X38909523Y-65511267D01*
X38909523Y-65489058D01*
X38912684Y-65467072D01*
X38909523Y-65460150D01*
X38909523Y-65070011D01*
X38912684Y-65048025D01*
X38909523Y-65041103D01*
X38909523Y-64689058D01*
X38912684Y-64667072D01*
X38903457Y-64646868D01*
X38897200Y-64625557D01*
X38891449Y-64620574D01*
X38888289Y-64613653D01*
X38869603Y-64601644D01*
X38852818Y-64587100D01*
X38845286Y-64586017D01*
X38838886Y-64581904D01*
X38816677Y-64581904D01*
X38794691Y-64578743D01*
X38787769Y-64581904D01*
X38548241Y-64581904D01*
X38524398Y-64579330D01*
X38506120Y-64588468D01*
X38486510Y-64594227D01*
X38480322Y-64601368D01*
X38433157Y-64624950D01*
X38416718Y-64628527D01*
X38397246Y-64647998D01*
X38377057Y-64666779D01*
X38376572Y-64668672D01*
X38366726Y-64678518D01*
X38352260Y-64687111D01*
X38339942Y-64711745D01*
X38326731Y-64735941D01*
X38326870Y-64737890D01*
X38303443Y-64784743D01*
X38290476Y-64804922D01*
X38290476Y-64825358D01*
X38286856Y-64845473D01*
X38290476Y-64854201D01*
X38290476Y-64905091D01*
X38287902Y-64928934D01*
X38297040Y-64947210D01*
X38302799Y-64966823D01*
X38309940Y-64973011D01*
X38333520Y-65020171D01*
X38337098Y-65036614D01*
X38344079Y-65043595D01*
X38343778Y-65044323D01*
X38328632Y-65059469D01*
X38314165Y-65068062D01*
X38301840Y-65092710D01*
X38288636Y-65116893D01*
X38288775Y-65118840D01*
X38265345Y-65165699D01*
X38252380Y-65185875D01*
X38252380Y-65206310D01*
X38248760Y-65226425D01*
X37919047Y-65226425D01*
X37919047Y-64957993D01*
X37925091Y-64961015D01*
X37949274Y-64974220D01*
X37951221Y-64974080D01*
X38015758Y-65006349D01*
X38058806Y-65014096D01*
X38113051Y-64991598D01*
X38146522Y-64943345D01*
X38148592Y-64884656D01*
X38118604Y-64834165D01*
X38030664Y-64790194D01*
X37972952Y-64732482D01*
X37910704Y-64639111D01*
X37906724Y-64625557D01*
X37894750Y-64615182D01*
X37894276Y-64614470D01*
X37883902Y-64605781D01*
X37862342Y-64587100D01*
X37861440Y-64586970D01*
X37860743Y-64586386D01*
X37832457Y-64582803D01*
X37804215Y-64578743D01*
X37803386Y-64579121D01*
X37802483Y-64579007D01*
X37776739Y-64591290D01*
X37750796Y-64603138D01*
X37750303Y-64603903D01*
X37749482Y-64604296D01*
X37734460Y-64628557D01*
X37719047Y-64652541D01*
X37719047Y-64653451D01*
X37718567Y-64654226D01*
X37719047Y-64682781D01*
X37719047Y-65381904D01*
X37576097Y-65381904D01*
X37534129Y-65394227D01*
X37495672Y-65438609D01*
X37487315Y-65496736D01*
X35807619Y-65496736D01*
X35807619Y-62904736D01*
X36763505Y-62904736D01*
X36787900Y-62958155D01*
X36837303Y-62989904D01*
X37240464Y-62989904D01*
X37262450Y-62993065D01*
X37282653Y-62983838D01*
X37303965Y-62977581D01*
X37308947Y-62971830D01*
X37315869Y-62968670D01*
X37327877Y-62949984D01*
X37342422Y-62933199D01*
X37343504Y-62925667D01*
X37347618Y-62919267D01*
X37347618Y-62897058D01*
X37350779Y-62875072D01*
X37347618Y-62868150D01*
X37347618Y-62806280D01*
X37486518Y-62806280D01*
X37499002Y-62863663D01*
X37554050Y-62918710D01*
X37569092Y-62937392D01*
X37588479Y-62943854D01*
X37606419Y-62953650D01*
X37615843Y-62952975D01*
X37699337Y-62980806D01*
X37713493Y-62989904D01*
X37741048Y-62989904D01*
X37768586Y-62990900D01*
X37770266Y-62989904D01*
X37806508Y-62989904D01*
X37822813Y-62994058D01*
X37848948Y-62985346D01*
X37875394Y-62977581D01*
X37876673Y-62976104D01*
X37959845Y-62948380D01*
X37983281Y-62943282D01*
X37997730Y-62928832D01*
X38014514Y-62917168D01*
X38018125Y-62908437D01*
X38071366Y-62855196D01*
X38085835Y-62846603D01*
X38098159Y-62821953D01*
X38111363Y-62797773D01*
X38111223Y-62795824D01*
X38129095Y-62760080D01*
X38137510Y-62752168D01*
X38141969Y-62734331D01*
X38143491Y-62731288D01*
X38145445Y-62720427D01*
X38178736Y-62587266D01*
X38185714Y-62576410D01*
X38185714Y-62559359D01*
X38186216Y-62557351D01*
X38185714Y-62544998D01*
X38185714Y-62449219D01*
X38189850Y-62436993D01*
X38185714Y-62420449D01*
X38185714Y-62418382D01*
X38182235Y-62406534D01*
X38148952Y-62273404D01*
X38150192Y-62261922D01*
X38141971Y-62245480D01*
X38141145Y-62242176D01*
X38135555Y-62232649D01*
X38104574Y-62170686D01*
X38100997Y-62154242D01*
X38081510Y-62134756D01*
X38064908Y-62116907D01*
X38286846Y-62116907D01*
X38297300Y-62174694D01*
X38337336Y-62217657D01*
X38394243Y-62232154D01*
X38520989Y-62189904D01*
X38671631Y-62189904D01*
X38712191Y-62210185D01*
X38727338Y-62225332D01*
X38747619Y-62265893D01*
X38747619Y-62294868D01*
X38727337Y-62335430D01*
X38712192Y-62350575D01*
X38660334Y-62376505D01*
X38535883Y-62407617D01*
X38524399Y-62406378D01*
X38507955Y-62414599D01*
X38504654Y-62415425D01*
X38495137Y-62421008D01*
X38433156Y-62451997D01*
X38416718Y-62455574D01*
X38397247Y-62475044D01*
X38377058Y-62493825D01*
X38376573Y-62495718D01*
X38366727Y-62505564D01*
X38352259Y-62514158D01*
X38339934Y-62538807D01*
X38326731Y-62562988D01*
X38326870Y-62564936D01*
X38303442Y-62611793D01*
X38290476Y-62631970D01*
X38290476Y-62652406D01*
X38286856Y-62672521D01*
X38290476Y-62681249D01*
X38290476Y-62732138D01*
X38287902Y-62755981D01*
X38297040Y-62774257D01*
X38302799Y-62793870D01*
X38309940Y-62800057D01*
X38333520Y-62847219D01*
X38337098Y-62863662D01*
X38356580Y-62883145D01*
X38375349Y-62903322D01*
X38377241Y-62903805D01*
X38387089Y-62913654D01*
X38395682Y-62928121D01*
X38420323Y-62940441D01*
X38444512Y-62953649D01*
X38446460Y-62953509D01*
X38493317Y-62976937D01*
X38513494Y-62989904D01*
X38533930Y-62989904D01*
X38554046Y-62993524D01*
X38562774Y-62989904D01*
X38720794Y-62989904D01*
X38737099Y-62994058D01*
X38763234Y-62985346D01*
X38789680Y-62977581D01*
X38790959Y-62976104D01*
X38892883Y-62942130D01*
X38928800Y-62917168D01*
X38951249Y-62862903D01*
X38940796Y-62805116D01*
X38900760Y-62762153D01*
X38843853Y-62747655D01*
X38717106Y-62789904D01*
X38566464Y-62789904D01*
X38525901Y-62769623D01*
X38510757Y-62754479D01*
X38490476Y-62713916D01*
X38490476Y-62684940D01*
X38510756Y-62644378D01*
X38525903Y-62629231D01*
X38577757Y-62603304D01*
X38702212Y-62572191D01*
X38713697Y-62573431D01*
X38730140Y-62565209D01*
X38733441Y-62564384D01*
X38742960Y-62558798D01*
X38804936Y-62527810D01*
X38821376Y-62524234D01*
X38840851Y-62504759D01*
X38861037Y-62485982D01*
X38861520Y-62484089D01*
X38871369Y-62474241D01*
X38885833Y-62465651D01*
X38898147Y-62441022D01*
X38911363Y-62416820D01*
X38911223Y-62414871D01*
X38934654Y-62368012D01*
X38947619Y-62347839D01*
X38947619Y-62327405D01*
X38951239Y-62307290D01*
X38947619Y-62298562D01*
X38947619Y-62247668D01*
X38950193Y-62223825D01*
X38941053Y-62205546D01*
X38935296Y-62185938D01*
X38928155Y-62179750D01*
X38904571Y-62132585D01*
X38900996Y-62116147D01*
X38881524Y-62096675D01*
X38862744Y-62076486D01*
X38860850Y-62076001D01*
X38851005Y-62066156D01*
X38842413Y-62051689D01*
X38817761Y-62039363D01*
X38793582Y-62026160D01*
X38791634Y-62026299D01*
X38744776Y-62002870D01*
X38724601Y-61989904D01*
X38704166Y-61989904D01*
X38684051Y-61986284D01*
X38675322Y-61989904D01*
X38517300Y-61989904D01*
X38500993Y-61985750D01*
X38474849Y-61994464D01*
X38448414Y-62002227D01*
X38447134Y-62003703D01*
X38345211Y-62037679D01*
X38309294Y-62062641D01*
X38286846Y-62116907D01*
X38064908Y-62116907D01*
X38062745Y-62114581D01*
X38060851Y-62114096D01*
X38007852Y-62061098D01*
X37992812Y-62042417D01*
X37973423Y-62035954D01*
X37955487Y-62026160D01*
X37946063Y-62026833D01*
X37862565Y-61999001D01*
X37848410Y-61989904D01*
X37820855Y-61989904D01*
X37793318Y-61988908D01*
X37791638Y-61989904D01*
X37755395Y-61989904D01*
X37739088Y-61985750D01*
X37712944Y-61994464D01*
X37686509Y-62002227D01*
X37685229Y-62003703D01*
X37602053Y-62031429D01*
X37578624Y-62036526D01*
X37564174Y-62050975D01*
X37547389Y-62062641D01*
X37543777Y-62071372D01*
X37509598Y-62105551D01*
X37488635Y-62143940D01*
X37492824Y-62202516D01*
X37528016Y-62249528D01*
X37583038Y-62270052D01*
X37640422Y-62257569D01*
X37682588Y-62215403D01*
X37759084Y-62189904D01*
X37802819Y-62189904D01*
X37879314Y-62215402D01*
X37927338Y-62263426D01*
X37953265Y-62315280D01*
X37985714Y-62445073D01*
X37985714Y-62534738D01*
X37953265Y-62664524D01*
X37927337Y-62716382D01*
X37879315Y-62764405D01*
X37802820Y-62789904D01*
X37759084Y-62789904D01*
X37682588Y-62764405D01*
X37651017Y-62732835D01*
X37612627Y-62711873D01*
X37554051Y-62716064D01*
X37507041Y-62751257D01*
X37486518Y-62806280D01*
X37347618Y-62806280D01*
X37347618Y-62075525D01*
X37335295Y-62033557D01*
X37290913Y-61995100D01*
X37232786Y-61986743D01*
X37179367Y-62011138D01*
X37147618Y-62060541D01*
X37147618Y-62789904D01*
X36852287Y-62789904D01*
X36810319Y-62802227D01*
X36771862Y-62846609D01*
X36763505Y-62904736D01*
X35807619Y-62904736D01*
X35807619Y-60323634D01*
X36727575Y-60323634D01*
X36757518Y-60374152D01*
X36810020Y-60400461D01*
X36868412Y-60394211D01*
X36914154Y-60357383D01*
X36976837Y-60169333D01*
X37213638Y-60169333D01*
X37271583Y-60343168D01*
X37296545Y-60379085D01*
X37350810Y-60401534D01*
X37408597Y-60391081D01*
X37451561Y-60351045D01*
X37466058Y-60294137D01*
X37388062Y-60060151D01*
X37388875Y-60054501D01*
X37378892Y-60032642D01*
X37351616Y-59950815D01*
X37486339Y-59950815D01*
X37490475Y-59967359D01*
X37490475Y-59969426D01*
X37493953Y-59981273D01*
X37527236Y-60114403D01*
X37525997Y-60125886D01*
X37534218Y-60142328D01*
X37535044Y-60145632D01*
X37540632Y-60155157D01*
X37571615Y-60217124D01*
X37575193Y-60233567D01*
X37594672Y-60253046D01*
X37613444Y-60273227D01*
X37615337Y-60273711D01*
X37668334Y-60326708D01*
X37683377Y-60345392D01*
X37702764Y-60351854D01*
X37720702Y-60361649D01*
X37730126Y-60360974D01*
X37813622Y-60388806D01*
X37827779Y-60397904D01*
X37855335Y-60397904D01*
X37882872Y-60398900D01*
X37884552Y-60397904D01*
X38040464Y-60397904D01*
X38062450Y-60401065D01*
X38082653Y-60391838D01*
X38103965Y-60385581D01*
X38108947Y-60379830D01*
X38115869Y-60376670D01*
X38127877Y-60357984D01*
X38142422Y-60341199D01*
X38143504Y-60333667D01*
X38147618Y-60327267D01*
X38147618Y-60305058D01*
X38150779Y-60283072D01*
X38147618Y-60276150D01*
X38147618Y-59524907D01*
X38286846Y-59524907D01*
X38297300Y-59582694D01*
X38337336Y-59625657D01*
X38394243Y-59640154D01*
X38520989Y-59597904D01*
X38671631Y-59597904D01*
X38712191Y-59618185D01*
X38727338Y-59633332D01*
X38747619Y-59673893D01*
X38747619Y-59702868D01*
X38727337Y-59743430D01*
X38712192Y-59758575D01*
X38660334Y-59784505D01*
X38535883Y-59815617D01*
X38524399Y-59814378D01*
X38507955Y-59822599D01*
X38504654Y-59823425D01*
X38495137Y-59829008D01*
X38433156Y-59859997D01*
X38416718Y-59863574D01*
X38397247Y-59883044D01*
X38377058Y-59901825D01*
X38376573Y-59903718D01*
X38366727Y-59913564D01*
X38352259Y-59922158D01*
X38339934Y-59946807D01*
X38326731Y-59970988D01*
X38326870Y-59972936D01*
X38303442Y-60019793D01*
X38290476Y-60039970D01*
X38290476Y-60060406D01*
X38286856Y-60080521D01*
X38290476Y-60089249D01*
X38290476Y-60140138D01*
X38287902Y-60163981D01*
X38297040Y-60182257D01*
X38302799Y-60201870D01*
X38309940Y-60208057D01*
X38333520Y-60255219D01*
X38337098Y-60271662D01*
X38356580Y-60291145D01*
X38375349Y-60311322D01*
X38377241Y-60311805D01*
X38387089Y-60321654D01*
X38395682Y-60336121D01*
X38420323Y-60348441D01*
X38444512Y-60361649D01*
X38446460Y-60361509D01*
X38493317Y-60384937D01*
X38513494Y-60397904D01*
X38533930Y-60397904D01*
X38554046Y-60401524D01*
X38562774Y-60397904D01*
X38720794Y-60397904D01*
X38737099Y-60402058D01*
X38763234Y-60393346D01*
X38789680Y-60385581D01*
X38790959Y-60384104D01*
X38892883Y-60350130D01*
X38928800Y-60325168D01*
X38951249Y-60270903D01*
X38940796Y-60213116D01*
X38900760Y-60170153D01*
X38843853Y-60155655D01*
X38717106Y-60197904D01*
X38566464Y-60197904D01*
X38525901Y-60177623D01*
X38510757Y-60162479D01*
X38490476Y-60121916D01*
X38490476Y-60092940D01*
X38510756Y-60052378D01*
X38525903Y-60037231D01*
X38577757Y-60011304D01*
X38702212Y-59980191D01*
X38713697Y-59981431D01*
X38730140Y-59973209D01*
X38733441Y-59972384D01*
X38742960Y-59966798D01*
X38804936Y-59935810D01*
X38821376Y-59932234D01*
X38840851Y-59912759D01*
X38861037Y-59893982D01*
X38861520Y-59892089D01*
X38871369Y-59882241D01*
X38885833Y-59873651D01*
X38898147Y-59849022D01*
X38911363Y-59824820D01*
X38911223Y-59822871D01*
X38934654Y-59776012D01*
X38947619Y-59755839D01*
X38947619Y-59735405D01*
X38951239Y-59715290D01*
X38947619Y-59706562D01*
X38947619Y-59655668D01*
X38950193Y-59631825D01*
X38941053Y-59613546D01*
X38935296Y-59593938D01*
X38928155Y-59587750D01*
X38904571Y-59540585D01*
X38900996Y-59524147D01*
X38881524Y-59504675D01*
X38862744Y-59484486D01*
X38860850Y-59484001D01*
X38851005Y-59474156D01*
X38842413Y-59459689D01*
X38817761Y-59447363D01*
X38793582Y-59434160D01*
X38791634Y-59434299D01*
X38744776Y-59410870D01*
X38724601Y-59397904D01*
X38704166Y-59397904D01*
X38684051Y-59394284D01*
X38675322Y-59397904D01*
X38517300Y-59397904D01*
X38500993Y-59393750D01*
X38474849Y-59402464D01*
X38448414Y-59410227D01*
X38447134Y-59411703D01*
X38345211Y-59445679D01*
X38309294Y-59470641D01*
X38286846Y-59524907D01*
X38147618Y-59524907D01*
X38147618Y-59505058D01*
X38150779Y-59483072D01*
X38141552Y-59462868D01*
X38135295Y-59441557D01*
X38129544Y-59436574D01*
X38126384Y-59429653D01*
X38107698Y-59417644D01*
X38090913Y-59403100D01*
X38083381Y-59402017D01*
X38076981Y-59397904D01*
X38054772Y-59397904D01*
X38032786Y-59394743D01*
X38025864Y-59397904D01*
X37869681Y-59397904D01*
X37853375Y-59393750D01*
X37827237Y-59402462D01*
X37800795Y-59410227D01*
X37799515Y-59411703D01*
X37716347Y-59439427D01*
X37692908Y-59444526D01*
X37678456Y-59458977D01*
X37661674Y-59470641D01*
X37658062Y-59479372D01*
X37604820Y-59532614D01*
X37590355Y-59541206D01*
X37578037Y-59565840D01*
X37564826Y-59590036D01*
X37564965Y-59591985D01*
X37547094Y-59627727D01*
X37538679Y-59635640D01*
X37534219Y-59653476D01*
X37532698Y-59656520D01*
X37530743Y-59667381D01*
X37497452Y-59800541D01*
X37490475Y-59811398D01*
X37490475Y-59828449D01*
X37489973Y-59830457D01*
X37490475Y-59842803D01*
X37490475Y-59938589D01*
X37486339Y-59950815D01*
X37351616Y-59950815D01*
X37195825Y-59483442D01*
X37196233Y-59472174D01*
X37186718Y-59456122D01*
X37185558Y-59452640D01*
X37179420Y-59443808D01*
X37166290Y-59421656D01*
X37162813Y-59419913D01*
X37160596Y-59416723D01*
X37136810Y-59406883D01*
X37113788Y-59395346D01*
X37109922Y-59395759D01*
X37106331Y-59394274D01*
X37081000Y-59398855D01*
X37055396Y-59401597D01*
X37052367Y-59404035D01*
X37048544Y-59404727D01*
X37029710Y-59422277D01*
X37009654Y-59438425D01*
X37008425Y-59442111D01*
X37005580Y-59444763D01*
X36999222Y-59469720D01*
X36816176Y-60018860D01*
X36809957Y-60026038D01*
X36807054Y-60046225D01*
X36729156Y-60279922D01*
X36727575Y-60323634D01*
X35807619Y-60323634D01*
X35807619Y-57358815D01*
X36610149Y-57358815D01*
X36614285Y-57375359D01*
X36614285Y-57377426D01*
X36617763Y-57389273D01*
X36651046Y-57522403D01*
X36649807Y-57533886D01*
X36658028Y-57550328D01*
X36658854Y-57553632D01*
X36664442Y-57563157D01*
X36695425Y-57625124D01*
X36699003Y-57641567D01*
X36718482Y-57661046D01*
X36737254Y-57681227D01*
X36739147Y-57681711D01*
X36792144Y-57734708D01*
X36807187Y-57753392D01*
X36826574Y-57759854D01*
X36844512Y-57769649D01*
X36853936Y-57768974D01*
X36937432Y-57796806D01*
X36951589Y-57805904D01*
X36979145Y-57805904D01*
X37006682Y-57806900D01*
X37008362Y-57805904D01*
X37164274Y-57805904D01*
X37186260Y-57809065D01*
X37206463Y-57799838D01*
X37227775Y-57793581D01*
X37232757Y-57787830D01*
X37239679Y-57784670D01*
X37251687Y-57765984D01*
X37266232Y-57749199D01*
X37267314Y-57741667D01*
X37271428Y-57735267D01*
X37271428Y-57713058D01*
X37271677Y-57711327D01*
X37448299Y-57711327D01*
X37457165Y-57736582D01*
X37464703Y-57762251D01*
X37466822Y-57764087D01*
X37467753Y-57766737D01*
X37488866Y-57783188D01*
X37509085Y-57800708D01*
X37511862Y-57801107D01*
X37514076Y-57802832D01*
X37540727Y-57805257D01*
X37567212Y-57809065D01*
X37569764Y-57807899D01*
X37572560Y-57808154D01*
X37596290Y-57795785D01*
X37620631Y-57784670D01*
X37622148Y-57782308D01*
X37624636Y-57781012D01*
X37637907Y-57757787D01*
X37652380Y-57735267D01*
X37652380Y-57732460D01*
X37909523Y-57282460D01*
X37909523Y-57720283D01*
X37921846Y-57762251D01*
X37966228Y-57800708D01*
X38024355Y-57809065D01*
X38077774Y-57784670D01*
X38109523Y-57735267D01*
X38109523Y-57622280D01*
X38248423Y-57622280D01*
X38252380Y-57640468D01*
X38252380Y-57644093D01*
X38255423Y-57654458D01*
X38260907Y-57679663D01*
X38263621Y-57682377D01*
X38264703Y-57686061D01*
X38284198Y-57702954D01*
X38315955Y-57734710D01*
X38330997Y-57753392D01*
X38350384Y-57759854D01*
X38368324Y-57769650D01*
X38377748Y-57768975D01*
X38461242Y-57796806D01*
X38475398Y-57805904D01*
X38502953Y-57805904D01*
X38530491Y-57806900D01*
X38532171Y-57805904D01*
X38568413Y-57805904D01*
X38584718Y-57810058D01*
X38610853Y-57801346D01*
X38637299Y-57793581D01*
X38638578Y-57792104D01*
X38721750Y-57764380D01*
X38745186Y-57759282D01*
X38759635Y-57744832D01*
X38776419Y-57733168D01*
X38780030Y-57724437D01*
X38833271Y-57671196D01*
X38847740Y-57662603D01*
X38860064Y-57637953D01*
X38873268Y-57613773D01*
X38873128Y-57611824D01*
X38891000Y-57576080D01*
X38899415Y-57568168D01*
X38903874Y-57550331D01*
X38905396Y-57547288D01*
X38907350Y-57536427D01*
X38940641Y-57403266D01*
X38947619Y-57392410D01*
X38947619Y-57375359D01*
X38948121Y-57373351D01*
X38947619Y-57360998D01*
X38947619Y-57265219D01*
X38951755Y-57252993D01*
X38947619Y-57236449D01*
X38947619Y-57234382D01*
X38944140Y-57222534D01*
X38910857Y-57089404D01*
X38912097Y-57077922D01*
X38903876Y-57061480D01*
X38903050Y-57058176D01*
X38897460Y-57048649D01*
X38866479Y-56986686D01*
X38862902Y-56970242D01*
X38843415Y-56950756D01*
X38824650Y-56930581D01*
X38822756Y-56930096D01*
X38769757Y-56877098D01*
X38754717Y-56858417D01*
X38735328Y-56851954D01*
X38717392Y-56842160D01*
X38707968Y-56842833D01*
X38624470Y-56815001D01*
X38610315Y-56805904D01*
X38582760Y-56805904D01*
X38555223Y-56804908D01*
X38553543Y-56805904D01*
X38472049Y-56805904D01*
X38448206Y-56803330D01*
X38429927Y-56812469D01*
X38410319Y-56818227D01*
X38404131Y-56825367D01*
X38332893Y-56860988D01*
X38300867Y-56890779D01*
X38286319Y-56947675D01*
X38304840Y-57003402D01*
X38350549Y-57040271D01*
X38408935Y-57046574D01*
X38490274Y-57005904D01*
X38564724Y-57005904D01*
X38641219Y-57031402D01*
X38689243Y-57079426D01*
X38715170Y-57131280D01*
X38747619Y-57261073D01*
X38747619Y-57350738D01*
X38715170Y-57480524D01*
X38689242Y-57532382D01*
X38641220Y-57580405D01*
X38564725Y-57605904D01*
X38520989Y-57605904D01*
X38452380Y-57583035D01*
X38452380Y-57463047D01*
X38519140Y-57463047D01*
X38561108Y-57450724D01*
X38599565Y-57406342D01*
X38607922Y-57348215D01*
X38583527Y-57294796D01*
X38534124Y-57263047D01*
X38359534Y-57263047D01*
X38337548Y-57259886D01*
X38317344Y-57269112D01*
X38296033Y-57275370D01*
X38291050Y-57281120D01*
X38284129Y-57284281D01*
X38272120Y-57302966D01*
X38257576Y-57319752D01*
X38256493Y-57327283D01*
X38252380Y-57333684D01*
X38252380Y-57355893D01*
X38249219Y-57377879D01*
X38252380Y-57384801D01*
X38252380Y-57611671D01*
X38248423Y-57622280D01*
X38109523Y-57622280D01*
X38109523Y-56917635D01*
X38113604Y-56900481D01*
X38104737Y-56875225D01*
X38097200Y-56849557D01*
X38095080Y-56847720D01*
X38094150Y-56845071D01*
X38073036Y-56828619D01*
X38052818Y-56811100D01*
X38050040Y-56810700D01*
X38047827Y-56808976D01*
X38021175Y-56806550D01*
X37994691Y-56802743D01*
X37992138Y-56803908D01*
X37989343Y-56803654D01*
X37965612Y-56816022D01*
X37941272Y-56827138D01*
X37939754Y-56829499D01*
X37937267Y-56830796D01*
X37923995Y-56854020D01*
X37909523Y-56876541D01*
X37909523Y-56879348D01*
X37652380Y-57329348D01*
X37652380Y-56891525D01*
X37640057Y-56849557D01*
X37595675Y-56811100D01*
X37537548Y-56802743D01*
X37484129Y-56827138D01*
X37452380Y-56876541D01*
X37452380Y-57694173D01*
X37448299Y-57711327D01*
X37271677Y-57711327D01*
X37274589Y-57691072D01*
X37271428Y-57684150D01*
X37271428Y-56913058D01*
X37274589Y-56891072D01*
X37265362Y-56870868D01*
X37259105Y-56849557D01*
X37253354Y-56844574D01*
X37250194Y-56837653D01*
X37231508Y-56825644D01*
X37214723Y-56811100D01*
X37207191Y-56810017D01*
X37200791Y-56805904D01*
X37178582Y-56805904D01*
X37156596Y-56802743D01*
X37149674Y-56805904D01*
X36993491Y-56805904D01*
X36977185Y-56801750D01*
X36951047Y-56810462D01*
X36924605Y-56818227D01*
X36923325Y-56819703D01*
X36840157Y-56847427D01*
X36816718Y-56852526D01*
X36802266Y-56866977D01*
X36785484Y-56878641D01*
X36781872Y-56887372D01*
X36728630Y-56940614D01*
X36714165Y-56949206D01*
X36701847Y-56973840D01*
X36688636Y-56998036D01*
X36688775Y-56999985D01*
X36670904Y-57035727D01*
X36662489Y-57043640D01*
X36658029Y-57061476D01*
X36656508Y-57064520D01*
X36654553Y-57075381D01*
X36621262Y-57208541D01*
X36614285Y-57219398D01*
X36614285Y-57236449D01*
X36613783Y-57238457D01*
X36614285Y-57250803D01*
X36614285Y-57346589D01*
X36610149Y-57358815D01*
X35807619Y-57358815D01*
X35807619Y-54317671D01*
X37524417Y-54317671D01*
X37794648Y-55128365D01*
X37794241Y-55139634D01*
X37803755Y-55155686D01*
X37804916Y-55159168D01*
X37811053Y-55167999D01*
X37824184Y-55190152D01*
X37827660Y-55191894D01*
X37829878Y-55195085D01*
X37853666Y-55204926D01*
X37876685Y-55216461D01*
X37880549Y-55216047D01*
X37884143Y-55217534D01*
X37909479Y-55212950D01*
X37935078Y-55210211D01*
X37938106Y-55207772D01*
X37941930Y-55207081D01*
X37960763Y-55189530D01*
X37980820Y-55173383D01*
X37982048Y-55169696D01*
X37984894Y-55167045D01*
X37991252Y-55142086D01*
X38111202Y-54782235D01*
X38286856Y-54782235D01*
X38290476Y-54790963D01*
X38290476Y-54956138D01*
X38287902Y-54979981D01*
X38297040Y-54998257D01*
X38302799Y-55017870D01*
X38309940Y-55024057D01*
X38333520Y-55071219D01*
X38337098Y-55087662D01*
X38356580Y-55107145D01*
X38375349Y-55127322D01*
X38377241Y-55127805D01*
X38387089Y-55137654D01*
X38395682Y-55152121D01*
X38420323Y-55164441D01*
X38444512Y-55177649D01*
X38446460Y-55177509D01*
X38493317Y-55200937D01*
X38513494Y-55213904D01*
X38533930Y-55213904D01*
X38554046Y-55217524D01*
X38562774Y-55213904D01*
X38766043Y-55213904D01*
X38789886Y-55216478D01*
X38808162Y-55207339D01*
X38827775Y-55201581D01*
X38833962Y-55194439D01*
X38881124Y-55170859D01*
X38897567Y-55167282D01*
X38917050Y-55147799D01*
X38937227Y-55129031D01*
X38937710Y-55127138D01*
X38966592Y-55098258D01*
X38987554Y-55059868D01*
X38983364Y-55001292D01*
X38948172Y-54954281D01*
X38893149Y-54933758D01*
X38835766Y-54946241D01*
X38788384Y-54993622D01*
X38747821Y-55013904D01*
X38566464Y-55013904D01*
X38525901Y-54993623D01*
X38510757Y-54978479D01*
X38490476Y-54937916D01*
X38490476Y-54794653D01*
X38510755Y-54754093D01*
X38525902Y-54738945D01*
X38566463Y-54718666D01*
X38628041Y-54718666D01*
X38628263Y-54718807D01*
X38657522Y-54718666D01*
X38671521Y-54718666D01*
X38671754Y-54718597D01*
X38686988Y-54718524D01*
X38699349Y-54710494D01*
X38713489Y-54706343D01*
X38723462Y-54694832D01*
X38736236Y-54686536D01*
X38742293Y-54673100D01*
X38751946Y-54661961D01*
X38754113Y-54646885D01*
X38760374Y-54633000D01*
X38758205Y-54618420D01*
X38760303Y-54603834D01*
X38753976Y-54589980D01*
X38751736Y-54574914D01*
X38742030Y-54563822D01*
X38735908Y-54550415D01*
X38723093Y-54542179D01*
X38610853Y-54413904D01*
X38900093Y-54413904D01*
X38942061Y-54401581D01*
X38980518Y-54357199D01*
X38988875Y-54299072D01*
X38964480Y-54245653D01*
X38915077Y-54213904D01*
X38419577Y-54213904D01*
X38419355Y-54213763D01*
X38390199Y-54213904D01*
X38376097Y-54213904D01*
X38375860Y-54213973D01*
X38360630Y-54214047D01*
X38348270Y-54222074D01*
X38334129Y-54226227D01*
X38324154Y-54237738D01*
X38311382Y-54246034D01*
X38305324Y-54259469D01*
X38295672Y-54270609D01*
X38293504Y-54285684D01*
X38287244Y-54299570D01*
X38289412Y-54314148D01*
X38287315Y-54328736D01*
X38293642Y-54342591D01*
X38295883Y-54357656D01*
X38305586Y-54368745D01*
X38311710Y-54382155D01*
X38324526Y-54390391D01*
X38461869Y-54547355D01*
X38433158Y-54561711D01*
X38416717Y-54565288D01*
X38397241Y-54584763D01*
X38377058Y-54603539D01*
X38376573Y-54605432D01*
X38366724Y-54615281D01*
X38352260Y-54623873D01*
X38339945Y-54648502D01*
X38326730Y-54672705D01*
X38326869Y-54674654D01*
X38303443Y-54721505D01*
X38290476Y-54741684D01*
X38290476Y-54762120D01*
X38286856Y-54782235D01*
X38111202Y-54782235D01*
X38261319Y-54331886D01*
X38262900Y-54288175D01*
X38232957Y-54237656D01*
X38180455Y-54211347D01*
X38122063Y-54217597D01*
X38076321Y-54254425D01*
X37895237Y-54797676D01*
X37718892Y-54268640D01*
X37693930Y-54232723D01*
X37639665Y-54210274D01*
X37581878Y-54220727D01*
X37538914Y-54260763D01*
X37524417Y-54317671D01*
X35807619Y-54317671D01*
X35807619Y-53573714D01*
X39414286Y-53573714D01*
X39414286Y-84214286D01*
G37*
M02*
