%TF.GenerationSoftware,KiCad,Pcbnew,(7.0.0-0)*%
%TF.CreationDate,2023-06-30T11:37:05+08:00*%
%TF.ProjectId,cirque-connector,63697271-7565-42d6-936f-6e6e6563746f,rev?*%
%TF.SameCoordinates,Original*%
%TF.FileFunction,Legend,Top*%
%TF.FilePolarity,Positive*%
%FSLAX46Y46*%
G04 Gerber Fmt 4.6, Leading zero omitted, Abs format (unit mm)*
G04 Created by KiCad (PCBNEW (7.0.0-0)) date 2023-06-30 11:37:05*
%MOMM*%
%LPD*%
G01*
G04 APERTURE LIST*
%ADD10C,0.200000*%
%ADD11C,0.150000*%
%ADD12C,0.152000*%
%ADD13C,0.120000*%
%ADD14C,0.254000*%
G04 APERTURE END LIST*
D10*
X37314285Y-54113904D02*
X37809523Y-54113904D01*
X37809523Y-54113904D02*
X37542857Y-54418666D01*
X37542857Y-54418666D02*
X37657142Y-54418666D01*
X37657142Y-54418666D02*
X37733333Y-54456761D01*
X37733333Y-54456761D02*
X37771428Y-54494857D01*
X37771428Y-54494857D02*
X37809523Y-54571047D01*
X37809523Y-54571047D02*
X37809523Y-54761523D01*
X37809523Y-54761523D02*
X37771428Y-54837714D01*
X37771428Y-54837714D02*
X37733333Y-54875809D01*
X37733333Y-54875809D02*
X37657142Y-54913904D01*
X37657142Y-54913904D02*
X37428571Y-54913904D01*
X37428571Y-54913904D02*
X37352380Y-54875809D01*
X37352380Y-54875809D02*
X37314285Y-54837714D01*
X38038095Y-54113904D02*
X38304762Y-54913904D01*
X38304762Y-54913904D02*
X38571428Y-54113904D01*
X37809523Y-56744000D02*
X37733333Y-56705904D01*
X37733333Y-56705904D02*
X37619047Y-56705904D01*
X37619047Y-56705904D02*
X37504761Y-56744000D01*
X37504761Y-56744000D02*
X37428571Y-56820190D01*
X37428571Y-56820190D02*
X37390476Y-56896380D01*
X37390476Y-56896380D02*
X37352380Y-57048761D01*
X37352380Y-57048761D02*
X37352380Y-57163047D01*
X37352380Y-57163047D02*
X37390476Y-57315428D01*
X37390476Y-57315428D02*
X37428571Y-57391619D01*
X37428571Y-57391619D02*
X37504761Y-57467809D01*
X37504761Y-57467809D02*
X37619047Y-57505904D01*
X37619047Y-57505904D02*
X37695238Y-57505904D01*
X37695238Y-57505904D02*
X37809523Y-57467809D01*
X37809523Y-57467809D02*
X37847619Y-57429714D01*
X37847619Y-57429714D02*
X37847619Y-57163047D01*
X37847619Y-57163047D02*
X37695238Y-57163047D01*
X38190476Y-57505904D02*
X38190476Y-56705904D01*
X38190476Y-56705904D02*
X38647619Y-57505904D01*
X38647619Y-57505904D02*
X38647619Y-56705904D01*
X39028571Y-57505904D02*
X39028571Y-56705904D01*
X39028571Y-56705904D02*
X39219047Y-56705904D01*
X39219047Y-56705904D02*
X39333333Y-56744000D01*
X39333333Y-56744000D02*
X39409523Y-56820190D01*
X39409523Y-56820190D02*
X39447618Y-56896380D01*
X39447618Y-56896380D02*
X39485714Y-57048761D01*
X39485714Y-57048761D02*
X39485714Y-57163047D01*
X39485714Y-57163047D02*
X39447618Y-57315428D01*
X39447618Y-57315428D02*
X39409523Y-57391619D01*
X39409523Y-57391619D02*
X39333333Y-57467809D01*
X39333333Y-57467809D02*
X39219047Y-57505904D01*
X39219047Y-57505904D02*
X39028571Y-57505904D01*
X37352380Y-60059809D02*
X37466666Y-60097904D01*
X37466666Y-60097904D02*
X37657142Y-60097904D01*
X37657142Y-60097904D02*
X37733333Y-60059809D01*
X37733333Y-60059809D02*
X37771428Y-60021714D01*
X37771428Y-60021714D02*
X37809523Y-59945523D01*
X37809523Y-59945523D02*
X37809523Y-59869333D01*
X37809523Y-59869333D02*
X37771428Y-59793142D01*
X37771428Y-59793142D02*
X37733333Y-59755047D01*
X37733333Y-59755047D02*
X37657142Y-59716952D01*
X37657142Y-59716952D02*
X37504761Y-59678857D01*
X37504761Y-59678857D02*
X37428571Y-59640761D01*
X37428571Y-59640761D02*
X37390476Y-59602666D01*
X37390476Y-59602666D02*
X37352380Y-59526476D01*
X37352380Y-59526476D02*
X37352380Y-59450285D01*
X37352380Y-59450285D02*
X37390476Y-59374095D01*
X37390476Y-59374095D02*
X37428571Y-59336000D01*
X37428571Y-59336000D02*
X37504761Y-59297904D01*
X37504761Y-59297904D02*
X37695238Y-59297904D01*
X37695238Y-59297904D02*
X37809523Y-59336000D01*
X38152381Y-60097904D02*
X38152381Y-59297904D01*
X38152381Y-59297904D02*
X38342857Y-59297904D01*
X38342857Y-59297904D02*
X38457143Y-59336000D01*
X38457143Y-59336000D02*
X38533333Y-59412190D01*
X38533333Y-59412190D02*
X38571428Y-59488380D01*
X38571428Y-59488380D02*
X38609524Y-59640761D01*
X38609524Y-59640761D02*
X38609524Y-59755047D01*
X38609524Y-59755047D02*
X38571428Y-59907428D01*
X38571428Y-59907428D02*
X38533333Y-59983619D01*
X38533333Y-59983619D02*
X38457143Y-60059809D01*
X38457143Y-60059809D02*
X38342857Y-60097904D01*
X38342857Y-60097904D02*
X38152381Y-60097904D01*
X38914285Y-59869333D02*
X39295238Y-59869333D01*
X38838095Y-60097904D02*
X39104762Y-59297904D01*
X39104762Y-59297904D02*
X39371428Y-60097904D01*
X37352380Y-62651809D02*
X37466666Y-62689904D01*
X37466666Y-62689904D02*
X37657142Y-62689904D01*
X37657142Y-62689904D02*
X37733333Y-62651809D01*
X37733333Y-62651809D02*
X37771428Y-62613714D01*
X37771428Y-62613714D02*
X37809523Y-62537523D01*
X37809523Y-62537523D02*
X37809523Y-62461333D01*
X37809523Y-62461333D02*
X37771428Y-62385142D01*
X37771428Y-62385142D02*
X37733333Y-62347047D01*
X37733333Y-62347047D02*
X37657142Y-62308952D01*
X37657142Y-62308952D02*
X37504761Y-62270857D01*
X37504761Y-62270857D02*
X37428571Y-62232761D01*
X37428571Y-62232761D02*
X37390476Y-62194666D01*
X37390476Y-62194666D02*
X37352380Y-62118476D01*
X37352380Y-62118476D02*
X37352380Y-62042285D01*
X37352380Y-62042285D02*
X37390476Y-61966095D01*
X37390476Y-61966095D02*
X37428571Y-61928000D01*
X37428571Y-61928000D02*
X37504761Y-61889904D01*
X37504761Y-61889904D02*
X37695238Y-61889904D01*
X37695238Y-61889904D02*
X37809523Y-61928000D01*
X38609524Y-62613714D02*
X38571428Y-62651809D01*
X38571428Y-62651809D02*
X38457143Y-62689904D01*
X38457143Y-62689904D02*
X38380952Y-62689904D01*
X38380952Y-62689904D02*
X38266666Y-62651809D01*
X38266666Y-62651809D02*
X38190476Y-62575619D01*
X38190476Y-62575619D02*
X38152381Y-62499428D01*
X38152381Y-62499428D02*
X38114285Y-62347047D01*
X38114285Y-62347047D02*
X38114285Y-62232761D01*
X38114285Y-62232761D02*
X38152381Y-62080380D01*
X38152381Y-62080380D02*
X38190476Y-62004190D01*
X38190476Y-62004190D02*
X38266666Y-61928000D01*
X38266666Y-61928000D02*
X38380952Y-61889904D01*
X38380952Y-61889904D02*
X38457143Y-61889904D01*
X38457143Y-61889904D02*
X38571428Y-61928000D01*
X38571428Y-61928000D02*
X38609524Y-61966095D01*
X39333333Y-62689904D02*
X38952381Y-62689904D01*
X38952381Y-62689904D02*
X38952381Y-61889904D01*
X37657142Y-64862857D02*
X37771428Y-64900952D01*
X37771428Y-64900952D02*
X37809523Y-64939047D01*
X37809523Y-64939047D02*
X37847619Y-65015238D01*
X37847619Y-65015238D02*
X37847619Y-65129523D01*
X37847619Y-65129523D02*
X37809523Y-65205714D01*
X37809523Y-65205714D02*
X37771428Y-65243809D01*
X37771428Y-65243809D02*
X37695238Y-65281904D01*
X37695238Y-65281904D02*
X37390476Y-65281904D01*
X37390476Y-65281904D02*
X37390476Y-64481904D01*
X37390476Y-64481904D02*
X37657142Y-64481904D01*
X37657142Y-64481904D02*
X37733333Y-64520000D01*
X37733333Y-64520000D02*
X37771428Y-64558095D01*
X37771428Y-64558095D02*
X37809523Y-64634285D01*
X37809523Y-64634285D02*
X37809523Y-64710476D01*
X37809523Y-64710476D02*
X37771428Y-64786666D01*
X37771428Y-64786666D02*
X37733333Y-64824761D01*
X37733333Y-64824761D02*
X37657142Y-64862857D01*
X37657142Y-64862857D02*
X37390476Y-64862857D01*
X38609523Y-65281904D02*
X38152380Y-65281904D01*
X38380952Y-65281904D02*
X38380952Y-64481904D01*
X38380952Y-64481904D02*
X38304761Y-64596190D01*
X38304761Y-64596190D02*
X38228571Y-64672380D01*
X38228571Y-64672380D02*
X38152380Y-64710476D01*
X37657142Y-67454857D02*
X37771428Y-67492952D01*
X37771428Y-67492952D02*
X37809523Y-67531047D01*
X37809523Y-67531047D02*
X37847619Y-67607238D01*
X37847619Y-67607238D02*
X37847619Y-67721523D01*
X37847619Y-67721523D02*
X37809523Y-67797714D01*
X37809523Y-67797714D02*
X37771428Y-67835809D01*
X37771428Y-67835809D02*
X37695238Y-67873904D01*
X37695238Y-67873904D02*
X37390476Y-67873904D01*
X37390476Y-67873904D02*
X37390476Y-67073904D01*
X37390476Y-67073904D02*
X37657142Y-67073904D01*
X37657142Y-67073904D02*
X37733333Y-67112000D01*
X37733333Y-67112000D02*
X37771428Y-67150095D01*
X37771428Y-67150095D02*
X37809523Y-67226285D01*
X37809523Y-67226285D02*
X37809523Y-67302476D01*
X37809523Y-67302476D02*
X37771428Y-67378666D01*
X37771428Y-67378666D02*
X37733333Y-67416761D01*
X37733333Y-67416761D02*
X37657142Y-67454857D01*
X37657142Y-67454857D02*
X37390476Y-67454857D01*
X38152380Y-67150095D02*
X38190476Y-67112000D01*
X38190476Y-67112000D02*
X38266666Y-67073904D01*
X38266666Y-67073904D02*
X38457142Y-67073904D01*
X38457142Y-67073904D02*
X38533333Y-67112000D01*
X38533333Y-67112000D02*
X38571428Y-67150095D01*
X38571428Y-67150095D02*
X38609523Y-67226285D01*
X38609523Y-67226285D02*
X38609523Y-67302476D01*
X38609523Y-67302476D02*
X38571428Y-67416761D01*
X38571428Y-67416761D02*
X38114285Y-67873904D01*
X38114285Y-67873904D02*
X38609523Y-67873904D01*
X37657142Y-70046857D02*
X37771428Y-70084952D01*
X37771428Y-70084952D02*
X37809523Y-70123047D01*
X37809523Y-70123047D02*
X37847619Y-70199238D01*
X37847619Y-70199238D02*
X37847619Y-70313523D01*
X37847619Y-70313523D02*
X37809523Y-70389714D01*
X37809523Y-70389714D02*
X37771428Y-70427809D01*
X37771428Y-70427809D02*
X37695238Y-70465904D01*
X37695238Y-70465904D02*
X37390476Y-70465904D01*
X37390476Y-70465904D02*
X37390476Y-69665904D01*
X37390476Y-69665904D02*
X37657142Y-69665904D01*
X37657142Y-69665904D02*
X37733333Y-69704000D01*
X37733333Y-69704000D02*
X37771428Y-69742095D01*
X37771428Y-69742095D02*
X37809523Y-69818285D01*
X37809523Y-69818285D02*
X37809523Y-69894476D01*
X37809523Y-69894476D02*
X37771428Y-69970666D01*
X37771428Y-69970666D02*
X37733333Y-70008761D01*
X37733333Y-70008761D02*
X37657142Y-70046857D01*
X37657142Y-70046857D02*
X37390476Y-70046857D01*
X38114285Y-69665904D02*
X38609523Y-69665904D01*
X38609523Y-69665904D02*
X38342857Y-69970666D01*
X38342857Y-69970666D02*
X38457142Y-69970666D01*
X38457142Y-69970666D02*
X38533333Y-70008761D01*
X38533333Y-70008761D02*
X38571428Y-70046857D01*
X38571428Y-70046857D02*
X38609523Y-70123047D01*
X38609523Y-70123047D02*
X38609523Y-70313523D01*
X38609523Y-70313523D02*
X38571428Y-70389714D01*
X38571428Y-70389714D02*
X38533333Y-70427809D01*
X38533333Y-70427809D02*
X38457142Y-70465904D01*
X38457142Y-70465904D02*
X38228571Y-70465904D01*
X38228571Y-70465904D02*
X38152380Y-70427809D01*
X38152380Y-70427809D02*
X38114285Y-70389714D01*
X37352380Y-73019809D02*
X37466666Y-73057904D01*
X37466666Y-73057904D02*
X37657142Y-73057904D01*
X37657142Y-73057904D02*
X37733333Y-73019809D01*
X37733333Y-73019809D02*
X37771428Y-72981714D01*
X37771428Y-72981714D02*
X37809523Y-72905523D01*
X37809523Y-72905523D02*
X37809523Y-72829333D01*
X37809523Y-72829333D02*
X37771428Y-72753142D01*
X37771428Y-72753142D02*
X37733333Y-72715047D01*
X37733333Y-72715047D02*
X37657142Y-72676952D01*
X37657142Y-72676952D02*
X37504761Y-72638857D01*
X37504761Y-72638857D02*
X37428571Y-72600761D01*
X37428571Y-72600761D02*
X37390476Y-72562666D01*
X37390476Y-72562666D02*
X37352380Y-72486476D01*
X37352380Y-72486476D02*
X37352380Y-72410285D01*
X37352380Y-72410285D02*
X37390476Y-72334095D01*
X37390476Y-72334095D02*
X37428571Y-72296000D01*
X37428571Y-72296000D02*
X37504761Y-72257904D01*
X37504761Y-72257904D02*
X37695238Y-72257904D01*
X37695238Y-72257904D02*
X37809523Y-72296000D01*
X38152381Y-73057904D02*
X38152381Y-72257904D01*
X37390476Y-75649904D02*
X37390476Y-74849904D01*
X37390476Y-74849904D02*
X37580952Y-74849904D01*
X37580952Y-74849904D02*
X37695238Y-74888000D01*
X37695238Y-74888000D02*
X37771428Y-74964190D01*
X37771428Y-74964190D02*
X37809523Y-75040380D01*
X37809523Y-75040380D02*
X37847619Y-75192761D01*
X37847619Y-75192761D02*
X37847619Y-75307047D01*
X37847619Y-75307047D02*
X37809523Y-75459428D01*
X37809523Y-75459428D02*
X37771428Y-75535619D01*
X37771428Y-75535619D02*
X37695238Y-75611809D01*
X37695238Y-75611809D02*
X37580952Y-75649904D01*
X37580952Y-75649904D02*
X37390476Y-75649904D01*
X38647619Y-75649904D02*
X38380952Y-75268952D01*
X38190476Y-75649904D02*
X38190476Y-74849904D01*
X38190476Y-74849904D02*
X38495238Y-74849904D01*
X38495238Y-74849904D02*
X38571428Y-74888000D01*
X38571428Y-74888000D02*
X38609523Y-74926095D01*
X38609523Y-74926095D02*
X38647619Y-75002285D01*
X38647619Y-75002285D02*
X38647619Y-75116571D01*
X38647619Y-75116571D02*
X38609523Y-75192761D01*
X38609523Y-75192761D02*
X38571428Y-75230857D01*
X38571428Y-75230857D02*
X38495238Y-75268952D01*
X38495238Y-75268952D02*
X38190476Y-75268952D01*
X37352380Y-78203809D02*
X37466666Y-78241904D01*
X37466666Y-78241904D02*
X37657142Y-78241904D01*
X37657142Y-78241904D02*
X37733333Y-78203809D01*
X37733333Y-78203809D02*
X37771428Y-78165714D01*
X37771428Y-78165714D02*
X37809523Y-78089523D01*
X37809523Y-78089523D02*
X37809523Y-78013333D01*
X37809523Y-78013333D02*
X37771428Y-77937142D01*
X37771428Y-77937142D02*
X37733333Y-77899047D01*
X37733333Y-77899047D02*
X37657142Y-77860952D01*
X37657142Y-77860952D02*
X37504761Y-77822857D01*
X37504761Y-77822857D02*
X37428571Y-77784761D01*
X37428571Y-77784761D02*
X37390476Y-77746666D01*
X37390476Y-77746666D02*
X37352380Y-77670476D01*
X37352380Y-77670476D02*
X37352380Y-77594285D01*
X37352380Y-77594285D02*
X37390476Y-77518095D01*
X37390476Y-77518095D02*
X37428571Y-77480000D01*
X37428571Y-77480000D02*
X37504761Y-77441904D01*
X37504761Y-77441904D02*
X37695238Y-77441904D01*
X37695238Y-77441904D02*
X37809523Y-77480000D01*
X38114285Y-78203809D02*
X38228571Y-78241904D01*
X38228571Y-78241904D02*
X38419047Y-78241904D01*
X38419047Y-78241904D02*
X38495238Y-78203809D01*
X38495238Y-78203809D02*
X38533333Y-78165714D01*
X38533333Y-78165714D02*
X38571428Y-78089523D01*
X38571428Y-78089523D02*
X38571428Y-78013333D01*
X38571428Y-78013333D02*
X38533333Y-77937142D01*
X38533333Y-77937142D02*
X38495238Y-77899047D01*
X38495238Y-77899047D02*
X38419047Y-77860952D01*
X38419047Y-77860952D02*
X38266666Y-77822857D01*
X38266666Y-77822857D02*
X38190476Y-77784761D01*
X38190476Y-77784761D02*
X38152381Y-77746666D01*
X38152381Y-77746666D02*
X38114285Y-77670476D01*
X38114285Y-77670476D02*
X38114285Y-77594285D01*
X38114285Y-77594285D02*
X38152381Y-77518095D01*
X38152381Y-77518095D02*
X38190476Y-77480000D01*
X38190476Y-77480000D02*
X38266666Y-77441904D01*
X38266666Y-77441904D02*
X38457143Y-77441904D01*
X38457143Y-77441904D02*
X38571428Y-77480000D01*
X37352380Y-80795809D02*
X37466666Y-80833904D01*
X37466666Y-80833904D02*
X37657142Y-80833904D01*
X37657142Y-80833904D02*
X37733333Y-80795809D01*
X37733333Y-80795809D02*
X37771428Y-80757714D01*
X37771428Y-80757714D02*
X37809523Y-80681523D01*
X37809523Y-80681523D02*
X37809523Y-80605333D01*
X37809523Y-80605333D02*
X37771428Y-80529142D01*
X37771428Y-80529142D02*
X37733333Y-80491047D01*
X37733333Y-80491047D02*
X37657142Y-80452952D01*
X37657142Y-80452952D02*
X37504761Y-80414857D01*
X37504761Y-80414857D02*
X37428571Y-80376761D01*
X37428571Y-80376761D02*
X37390476Y-80338666D01*
X37390476Y-80338666D02*
X37352380Y-80262476D01*
X37352380Y-80262476D02*
X37352380Y-80186285D01*
X37352380Y-80186285D02*
X37390476Y-80110095D01*
X37390476Y-80110095D02*
X37428571Y-80072000D01*
X37428571Y-80072000D02*
X37504761Y-80033904D01*
X37504761Y-80033904D02*
X37695238Y-80033904D01*
X37695238Y-80033904D02*
X37809523Y-80072000D01*
X38304762Y-80033904D02*
X38457143Y-80033904D01*
X38457143Y-80033904D02*
X38533333Y-80072000D01*
X38533333Y-80072000D02*
X38609524Y-80148190D01*
X38609524Y-80148190D02*
X38647619Y-80300571D01*
X38647619Y-80300571D02*
X38647619Y-80567238D01*
X38647619Y-80567238D02*
X38609524Y-80719619D01*
X38609524Y-80719619D02*
X38533333Y-80795809D01*
X38533333Y-80795809D02*
X38457143Y-80833904D01*
X38457143Y-80833904D02*
X38304762Y-80833904D01*
X38304762Y-80833904D02*
X38228571Y-80795809D01*
X38228571Y-80795809D02*
X38152381Y-80719619D01*
X38152381Y-80719619D02*
X38114285Y-80567238D01*
X38114285Y-80567238D02*
X38114285Y-80300571D01*
X38114285Y-80300571D02*
X38152381Y-80148190D01*
X38152381Y-80148190D02*
X38228571Y-80072000D01*
X38228571Y-80072000D02*
X38304762Y-80033904D01*
X37352380Y-83387809D02*
X37466666Y-83425904D01*
X37466666Y-83425904D02*
X37657142Y-83425904D01*
X37657142Y-83425904D02*
X37733333Y-83387809D01*
X37733333Y-83387809D02*
X37771428Y-83349714D01*
X37771428Y-83349714D02*
X37809523Y-83273523D01*
X37809523Y-83273523D02*
X37809523Y-83197333D01*
X37809523Y-83197333D02*
X37771428Y-83121142D01*
X37771428Y-83121142D02*
X37733333Y-83083047D01*
X37733333Y-83083047D02*
X37657142Y-83044952D01*
X37657142Y-83044952D02*
X37504761Y-83006857D01*
X37504761Y-83006857D02*
X37428571Y-82968761D01*
X37428571Y-82968761D02*
X37390476Y-82930666D01*
X37390476Y-82930666D02*
X37352380Y-82854476D01*
X37352380Y-82854476D02*
X37352380Y-82778285D01*
X37352380Y-82778285D02*
X37390476Y-82702095D01*
X37390476Y-82702095D02*
X37428571Y-82664000D01*
X37428571Y-82664000D02*
X37504761Y-82625904D01*
X37504761Y-82625904D02*
X37695238Y-82625904D01*
X37695238Y-82625904D02*
X37809523Y-82664000D01*
X38609524Y-83349714D02*
X38571428Y-83387809D01*
X38571428Y-83387809D02*
X38457143Y-83425904D01*
X38457143Y-83425904D02*
X38380952Y-83425904D01*
X38380952Y-83425904D02*
X38266666Y-83387809D01*
X38266666Y-83387809D02*
X38190476Y-83311619D01*
X38190476Y-83311619D02*
X38152381Y-83235428D01*
X38152381Y-83235428D02*
X38114285Y-83083047D01*
X38114285Y-83083047D02*
X38114285Y-82968761D01*
X38114285Y-82968761D02*
X38152381Y-82816380D01*
X38152381Y-82816380D02*
X38190476Y-82740190D01*
X38190476Y-82740190D02*
X38266666Y-82664000D01*
X38266666Y-82664000D02*
X38380952Y-82625904D01*
X38380952Y-82625904D02*
X38457143Y-82625904D01*
X38457143Y-82625904D02*
X38571428Y-82664000D01*
X38571428Y-82664000D02*
X38609524Y-82702095D01*
X38952381Y-83425904D02*
X38952381Y-82625904D01*
X39409524Y-83425904D02*
X39066666Y-82968761D01*
X39409524Y-82625904D02*
X38952381Y-83083047D01*
D11*
%TO.C,J2*%
X40666666Y-52017380D02*
X40666666Y-52731666D01*
X40666666Y-52731666D02*
X40619047Y-52874523D01*
X40619047Y-52874523D02*
X40523809Y-52969761D01*
X40523809Y-52969761D02*
X40380952Y-53017380D01*
X40380952Y-53017380D02*
X40285714Y-53017380D01*
X41095238Y-52112619D02*
X41142857Y-52065000D01*
X41142857Y-52065000D02*
X41238095Y-52017380D01*
X41238095Y-52017380D02*
X41476190Y-52017380D01*
X41476190Y-52017380D02*
X41571428Y-52065000D01*
X41571428Y-52065000D02*
X41619047Y-52112619D01*
X41619047Y-52112619D02*
X41666666Y-52207857D01*
X41666666Y-52207857D02*
X41666666Y-52303095D01*
X41666666Y-52303095D02*
X41619047Y-52445952D01*
X41619047Y-52445952D02*
X41047619Y-53017380D01*
X41047619Y-53017380D02*
X41666666Y-53017380D01*
D12*
%TO.C,J1*%
X31276916Y-65860713D02*
X32093345Y-65860713D01*
X32093345Y-65860713D02*
X32256630Y-65915142D01*
X32256630Y-65915142D02*
X32365487Y-66023999D01*
X32365487Y-66023999D02*
X32419916Y-66187285D01*
X32419916Y-66187285D02*
X32419916Y-66296142D01*
X32419916Y-64717713D02*
X32419916Y-65370856D01*
X32419916Y-65044285D02*
X31276916Y-65044285D01*
X31276916Y-65044285D02*
X31440202Y-65153142D01*
X31440202Y-65153142D02*
X31549059Y-65261999D01*
X31549059Y-65261999D02*
X31603487Y-65370856D01*
D13*
%TO.C,J2*%
X39670000Y-53650000D02*
X41000000Y-53650000D01*
X39670000Y-54980000D02*
X39670000Y-53650000D01*
X39670000Y-56250000D02*
X39670000Y-84250000D01*
X39670000Y-56250000D02*
X42330000Y-56250000D01*
X39670000Y-84250000D02*
X42330000Y-84250000D01*
X42330000Y-56250000D02*
X42330000Y-84250000D01*
D14*
%TO.C,J1*%
X35886000Y-59200000D02*
X35886000Y-61569000D01*
X34225000Y-59200000D02*
X35886000Y-59200000D01*
X29391000Y-59200000D02*
X31774000Y-59200000D01*
X35886000Y-70200000D02*
X35886000Y-67831000D01*
X34225000Y-70200000D02*
X35886000Y-70200000D01*
X29391000Y-70200000D02*
X29391000Y-59200000D01*
X29391000Y-70200000D02*
X31774000Y-70200000D01*
X36521000Y-61271000D02*
G75*
G03*
X36521000Y-61271000I-127000J0D01*
G01*
%TD*%
M02*
