%TF.GenerationSoftware,KiCad,Pcbnew,(7.0.0-0)*%
%TF.CreationDate,2023-06-29T18:43:16+08:00*%
%TF.ProjectId,cirque-connector,63697271-7565-42d6-936f-6e6e6563746f,rev?*%
%TF.SameCoordinates,Original*%
%TF.FileFunction,Copper,L1,Top*%
%TF.FilePolarity,Positive*%
%FSLAX46Y46*%
G04 Gerber Fmt 4.6, Leading zero omitted, Abs format (unit mm)*
G04 Created by KiCad (PCBNEW (7.0.0-0)) date 2023-06-29 18:43:16*
%MOMM*%
%LPD*%
G01*
G04 APERTURE LIST*
%TA.AperFunction,ComponentPad*%
%ADD10R,1.700000X1.700000*%
%TD*%
%TA.AperFunction,ComponentPad*%
%ADD11O,1.700000X1.700000*%
%TD*%
%TA.AperFunction,SMDPad,CuDef*%
%ADD12R,1.250000X0.280000*%
%TD*%
%TA.AperFunction,SMDPad,CuDef*%
%ADD13R,2.000000X1.800000*%
%TD*%
%TA.AperFunction,Conductor*%
%ADD14C,0.200000*%
%TD*%
G04 APERTURE END LIST*
D10*
%TO.P,J2,1,Pin_1*%
%TO.N,/3V*%
X40999999Y-54979999D03*
D11*
%TO.P,J2,2,Pin_2*%
%TO.N,/GND*%
X40999999Y-57519999D03*
%TO.P,J2,3,Pin_3*%
%TO.N,/SDA*%
X40999999Y-60059999D03*
%TO.P,J2,4,Pin_4*%
%TO.N,/SCL*%
X40999999Y-62599999D03*
%TO.P,J2,5,Pin_5*%
%TO.N,Net-(J1-Pin_5)*%
X40999999Y-65139999D03*
%TO.P,J2,6,Pin_6*%
%TO.N,/B2*%
X40999999Y-67679999D03*
%TO.P,J2,7,Pin_7*%
%TO.N,Net-(J1-Pin_7)*%
X40999999Y-70219999D03*
%TO.P,J2,8,Pin_8*%
%TO.N,/SI*%
X40999999Y-72759999D03*
%TO.P,J2,9,Pin_9*%
%TO.N,/DR*%
X40999999Y-75299999D03*
%TO.P,J2,10,Pin_10*%
%TO.N,/SS*%
X40999999Y-77839999D03*
%TO.P,J2,11,Pin_11*%
%TO.N,/SO*%
X40999999Y-80379999D03*
%TO.P,J2,12,Pin_12*%
%TO.N,/SCK*%
X40999999Y-82919999D03*
%TD*%
D12*
%TO.P,J1,1,Pin_1*%
%TO.N,/3V*%
X35723999Y-61949999D03*
%TO.P,J1,2,Pin_2*%
%TO.N,/GND*%
X35723999Y-62449999D03*
%TO.P,J1,3,Pin_3*%
%TO.N,/SDA*%
X35723999Y-62949999D03*
%TO.P,J1,4,Pin_4*%
%TO.N,/SCL*%
X35723999Y-63449999D03*
%TO.P,J1,5,Pin_5*%
%TO.N,Net-(J1-Pin_5)*%
X35723999Y-63949999D03*
%TO.P,J1,6,Pin_6*%
%TO.N,/B2*%
X35723999Y-64449999D03*
%TO.P,J1,7,Pin_7*%
%TO.N,Net-(J1-Pin_7)*%
X35723999Y-64949999D03*
%TO.P,J1,8,Pin_8*%
%TO.N,/SI*%
X35723999Y-65449999D03*
%TO.P,J1,9,Pin_9*%
%TO.N,/DR*%
X35723999Y-65949999D03*
%TO.P,J1,10,Pin_10*%
%TO.N,/SS*%
X35723999Y-66449999D03*
%TO.P,J1,11,Pin_11*%
%TO.N,/SO*%
X35723999Y-66949999D03*
%TO.P,J1,12,Pin_12*%
%TO.N,/SCK*%
X35723999Y-67449999D03*
D13*
%TO.P,J1,13*%
%TO.N,N/C*%
X32999999Y-69249999D03*
%TO.P,J1,14*%
X32999999Y-60149999D03*
%TD*%
D14*
%TO.N,/3V*%
X35724000Y-61950000D02*
X35724000Y-60256000D01*
X35724000Y-60256000D02*
X41000000Y-54980000D01*
%TO.N,/GND*%
X35724000Y-62450000D02*
X36589000Y-62450000D01*
X36589000Y-62450000D02*
X41000000Y-58039000D01*
X41000000Y-58039000D02*
X41000000Y-57520000D01*
%TO.N,/SDA*%
X38110000Y-62950000D02*
X41000000Y-60060000D01*
X35724000Y-62950000D02*
X38110000Y-62950000D01*
%TO.N,/SCL*%
X35724000Y-63450000D02*
X40150000Y-63450000D01*
X40150000Y-63450000D02*
X41000000Y-62600000D01*
%TO.N,Net-(J1-Pin_5)*%
X35724000Y-63950000D02*
X39810000Y-63950000D01*
X39810000Y-63950000D02*
X41000000Y-65140000D01*
%TO.N,/B2*%
X35724000Y-64450000D02*
X37770000Y-64450000D01*
X37770000Y-64450000D02*
X41000000Y-67680000D01*
%TO.N,Net-(J1-Pin_7)*%
X39850000Y-67530500D02*
X39850000Y-68156346D01*
X40523654Y-68830000D02*
X41000000Y-68830000D01*
X37269500Y-64950000D02*
X39850000Y-67530500D01*
X39850000Y-68156346D02*
X40523654Y-68830000D01*
X41000000Y-68830000D02*
X41000000Y-70220000D01*
X35724000Y-64950000D02*
X37269500Y-64950000D01*
%TO.N,/SI*%
X39000000Y-67246186D02*
X39000000Y-70760000D01*
X37203814Y-65450000D02*
X39000000Y-67246186D01*
X39000000Y-70760000D02*
X41000000Y-72760000D01*
X35724000Y-65450000D02*
X37203814Y-65450000D01*
%TO.N,/DR*%
X38600000Y-67411872D02*
X38600000Y-72900000D01*
X35724000Y-65950000D02*
X37138128Y-65950000D01*
X38600000Y-72900000D02*
X41000000Y-75300000D01*
X37138128Y-65950000D02*
X38600000Y-67411872D01*
%TO.N,/SS*%
X38000000Y-74840000D02*
X41000000Y-77840000D01*
X38000000Y-67861000D02*
X38000000Y-74840000D01*
X36589000Y-66450000D02*
X38000000Y-67861000D01*
X35724000Y-66450000D02*
X36589000Y-66450000D01*
%TO.N,/SO*%
X37000000Y-76380000D02*
X41000000Y-80380000D01*
X37000000Y-67426686D02*
X37000000Y-76380000D01*
X36523314Y-66950000D02*
X37000000Y-67426686D01*
X35724000Y-66950000D02*
X36523314Y-66950000D01*
%TO.N,/SCK*%
X35724000Y-77644000D02*
X41000000Y-82920000D01*
X35724000Y-67450000D02*
X35724000Y-77644000D01*
%TD*%
%TA.AperFunction,Conductor*%
%TO.N,/GND*%
G36*
X42927500Y-51027113D02*
G01*
X42972887Y-51072500D01*
X42989500Y-51134500D01*
X42989500Y-84865500D01*
X42972887Y-84927500D01*
X42927500Y-84972887D01*
X42865500Y-84989500D01*
X28134500Y-84989500D01*
X28072500Y-84972887D01*
X28027113Y-84927500D01*
X28010500Y-84865500D01*
X28010500Y-83000000D01*
X28644341Y-83000000D01*
X28664937Y-83235408D01*
X28666336Y-83240630D01*
X28666337Y-83240634D01*
X28724694Y-83458430D01*
X28724697Y-83458438D01*
X28726097Y-83463663D01*
X28825965Y-83677829D01*
X28961505Y-83871401D01*
X29128599Y-84038495D01*
X29322171Y-84174035D01*
X29536337Y-84273903D01*
X29541567Y-84275304D01*
X29541569Y-84275305D01*
X29583619Y-84286572D01*
X29764592Y-84335063D01*
X29941034Y-84350500D01*
X30056258Y-84350500D01*
X30058966Y-84350500D01*
X30235408Y-84335063D01*
X30463663Y-84273903D01*
X30677829Y-84174035D01*
X30871401Y-84038495D01*
X31038495Y-83871401D01*
X31174035Y-83677830D01*
X31273903Y-83463663D01*
X31335063Y-83235408D01*
X31355659Y-83000000D01*
X35644341Y-83000000D01*
X35664937Y-83235408D01*
X35666336Y-83240630D01*
X35666337Y-83240634D01*
X35724694Y-83458430D01*
X35724697Y-83458438D01*
X35726097Y-83463663D01*
X35825965Y-83677829D01*
X35961505Y-83871401D01*
X36128599Y-84038495D01*
X36322171Y-84174035D01*
X36536337Y-84273903D01*
X36541567Y-84275304D01*
X36541569Y-84275305D01*
X36583619Y-84286572D01*
X36764592Y-84335063D01*
X36941034Y-84350500D01*
X37056258Y-84350500D01*
X37058966Y-84350500D01*
X37235408Y-84335063D01*
X37463663Y-84273903D01*
X37677829Y-84174035D01*
X37871401Y-84038495D01*
X38038495Y-83871401D01*
X38174035Y-83677830D01*
X38273903Y-83463663D01*
X38335063Y-83235408D01*
X38355659Y-83000000D01*
X38335063Y-82764592D01*
X38273903Y-82536337D01*
X38174035Y-82322171D01*
X38038495Y-82128599D01*
X37871401Y-81961505D01*
X37677829Y-81825965D01*
X37609908Y-81794292D01*
X37468572Y-81728386D01*
X37468570Y-81728385D01*
X37463663Y-81726097D01*
X37458438Y-81724697D01*
X37458430Y-81724694D01*
X37240634Y-81666337D01*
X37240630Y-81666336D01*
X37235408Y-81664937D01*
X37230020Y-81664465D01*
X37230017Y-81664465D01*
X37061664Y-81649736D01*
X37061662Y-81649735D01*
X37058966Y-81649500D01*
X36941034Y-81649500D01*
X36938338Y-81649735D01*
X36938335Y-81649736D01*
X36769982Y-81664465D01*
X36769977Y-81664465D01*
X36764592Y-81664937D01*
X36759371Y-81666335D01*
X36759365Y-81666337D01*
X36541569Y-81724694D01*
X36541557Y-81724698D01*
X36536337Y-81726097D01*
X36531432Y-81728383D01*
X36531427Y-81728386D01*
X36327081Y-81823675D01*
X36327077Y-81823677D01*
X36322171Y-81825965D01*
X36317738Y-81829068D01*
X36317731Y-81829073D01*
X36133034Y-81958399D01*
X36133029Y-81958402D01*
X36128599Y-81961505D01*
X36124775Y-81965328D01*
X36124769Y-81965334D01*
X35965336Y-82124767D01*
X35965330Y-82124773D01*
X35961505Y-82128599D01*
X35958406Y-82133023D01*
X35958399Y-82133033D01*
X35829066Y-82317740D01*
X35829061Y-82317747D01*
X35825965Y-82322170D01*
X35823683Y-82327061D01*
X35823678Y-82327072D01*
X35728386Y-82531427D01*
X35728383Y-82531432D01*
X35726097Y-82536337D01*
X35724698Y-82541557D01*
X35724694Y-82541569D01*
X35666337Y-82759365D01*
X35666335Y-82759371D01*
X35664937Y-82764592D01*
X35644341Y-83000000D01*
X31355659Y-83000000D01*
X31335063Y-82764592D01*
X31273903Y-82536337D01*
X31174035Y-82322171D01*
X31038495Y-82128599D01*
X30871401Y-81961505D01*
X30677829Y-81825965D01*
X30609908Y-81794292D01*
X30468572Y-81728386D01*
X30468570Y-81728385D01*
X30463663Y-81726097D01*
X30458438Y-81724697D01*
X30458430Y-81724694D01*
X30240634Y-81666337D01*
X30240630Y-81666336D01*
X30235408Y-81664937D01*
X30230020Y-81664465D01*
X30230017Y-81664465D01*
X30061664Y-81649736D01*
X30061662Y-81649735D01*
X30058966Y-81649500D01*
X29941034Y-81649500D01*
X29938338Y-81649735D01*
X29938335Y-81649736D01*
X29769982Y-81664465D01*
X29769977Y-81664465D01*
X29764592Y-81664937D01*
X29759371Y-81666335D01*
X29759365Y-81666337D01*
X29541569Y-81724694D01*
X29541557Y-81724698D01*
X29536337Y-81726097D01*
X29531432Y-81728383D01*
X29531427Y-81728386D01*
X29327081Y-81823675D01*
X29327077Y-81823677D01*
X29322171Y-81825965D01*
X29317738Y-81829068D01*
X29317731Y-81829073D01*
X29133034Y-81958399D01*
X29133029Y-81958402D01*
X29128599Y-81961505D01*
X29124775Y-81965328D01*
X29124769Y-81965334D01*
X28965336Y-82124767D01*
X28965330Y-82124773D01*
X28961505Y-82128599D01*
X28958406Y-82133023D01*
X28958399Y-82133033D01*
X28829066Y-82317740D01*
X28829061Y-82317747D01*
X28825965Y-82322170D01*
X28823683Y-82327061D01*
X28823678Y-82327072D01*
X28728386Y-82531427D01*
X28728383Y-82531432D01*
X28726097Y-82536337D01*
X28724698Y-82541557D01*
X28724694Y-82541569D01*
X28666337Y-82759365D01*
X28666335Y-82759371D01*
X28664937Y-82764592D01*
X28644341Y-83000000D01*
X28010500Y-83000000D01*
X28010500Y-70194578D01*
X31499500Y-70194578D01*
X31499501Y-70197872D01*
X31499853Y-70201150D01*
X31499854Y-70201161D01*
X31505079Y-70249768D01*
X31505080Y-70249773D01*
X31505909Y-70257483D01*
X31508619Y-70264749D01*
X31508620Y-70264753D01*
X31542217Y-70354831D01*
X31556204Y-70392331D01*
X31642454Y-70507546D01*
X31757669Y-70593796D01*
X31892517Y-70644091D01*
X31952127Y-70650500D01*
X34047872Y-70650499D01*
X34107483Y-70644091D01*
X34242331Y-70593796D01*
X34357546Y-70507546D01*
X34443796Y-70392331D01*
X34494091Y-70257483D01*
X34500500Y-70197873D01*
X34500499Y-68302128D01*
X34494091Y-68242517D01*
X34443796Y-68107669D01*
X34357546Y-67992454D01*
X34288076Y-67940449D01*
X34249431Y-67911519D01*
X34249430Y-67911518D01*
X34242331Y-67906204D01*
X34107483Y-67855909D01*
X34099770Y-67855079D01*
X34099767Y-67855079D01*
X34051180Y-67849855D01*
X34051169Y-67849854D01*
X34047873Y-67849500D01*
X34044550Y-67849500D01*
X31955439Y-67849500D01*
X31955420Y-67849500D01*
X31952128Y-67849501D01*
X31948850Y-67849853D01*
X31948838Y-67849854D01*
X31900231Y-67855079D01*
X31900225Y-67855080D01*
X31892517Y-67855909D01*
X31885252Y-67858618D01*
X31885246Y-67858620D01*
X31765980Y-67903104D01*
X31765978Y-67903104D01*
X31757669Y-67906204D01*
X31750572Y-67911516D01*
X31750568Y-67911519D01*
X31649550Y-67987141D01*
X31649546Y-67987144D01*
X31642454Y-67992454D01*
X31637144Y-67999546D01*
X31637141Y-67999550D01*
X31561519Y-68100568D01*
X31561516Y-68100572D01*
X31556204Y-68107669D01*
X31553104Y-68115978D01*
X31553104Y-68115980D01*
X31508620Y-68235247D01*
X31508619Y-68235250D01*
X31505909Y-68242517D01*
X31505079Y-68250227D01*
X31505079Y-68250232D01*
X31499855Y-68298819D01*
X31499854Y-68298831D01*
X31499500Y-68302127D01*
X31499500Y-68305448D01*
X31499500Y-68305449D01*
X31499500Y-70194560D01*
X31499500Y-70194578D01*
X28010500Y-70194578D01*
X28010500Y-67634578D01*
X34598500Y-67634578D01*
X34598501Y-67637872D01*
X34598853Y-67641150D01*
X34598854Y-67641161D01*
X34604079Y-67689768D01*
X34604080Y-67689773D01*
X34604909Y-67697483D01*
X34607619Y-67704749D01*
X34607620Y-67704753D01*
X34641217Y-67794831D01*
X34655204Y-67832331D01*
X34660518Y-67839430D01*
X34660519Y-67839431D01*
X34672854Y-67855909D01*
X34741454Y-67947546D01*
X34856669Y-68033796D01*
X34991517Y-68084091D01*
X35007985Y-68085861D01*
X35012758Y-68086375D01*
X35069005Y-68106975D01*
X35109032Y-68151537D01*
X35123500Y-68209664D01*
X35123500Y-77596513D01*
X35122438Y-77612698D01*
X35118318Y-77644000D01*
X35119379Y-77652059D01*
X35123500Y-77683361D01*
X35137894Y-77792702D01*
X35137895Y-77792708D01*
X35138956Y-77800762D01*
X35142065Y-77808268D01*
X35142066Y-77808271D01*
X35157444Y-77845396D01*
X35199464Y-77946841D01*
X35295718Y-78072282D01*
X35302164Y-78077228D01*
X35320769Y-78091504D01*
X35332964Y-78102199D01*
X39667233Y-82436468D01*
X39699327Y-82492055D01*
X39699327Y-82556241D01*
X39666337Y-82679362D01*
X39666334Y-82679376D01*
X39664937Y-82684592D01*
X39664465Y-82689977D01*
X39664465Y-82689982D01*
X39657466Y-82769982D01*
X39644341Y-82920000D01*
X39664937Y-83155408D01*
X39666336Y-83160630D01*
X39666337Y-83160634D01*
X39724694Y-83378430D01*
X39724697Y-83378438D01*
X39726097Y-83383663D01*
X39728385Y-83388570D01*
X39728386Y-83388572D01*
X39823678Y-83592927D01*
X39823681Y-83592933D01*
X39825965Y-83597830D01*
X39829064Y-83602257D01*
X39829066Y-83602259D01*
X39958399Y-83786966D01*
X39958402Y-83786970D01*
X39961505Y-83791401D01*
X40128599Y-83958495D01*
X40322170Y-84094035D01*
X40536337Y-84193903D01*
X40764592Y-84255063D01*
X41000000Y-84275659D01*
X41235408Y-84255063D01*
X41463663Y-84193903D01*
X41677830Y-84094035D01*
X41871401Y-83958495D01*
X42038495Y-83791401D01*
X42174035Y-83597830D01*
X42273903Y-83383663D01*
X42335063Y-83155408D01*
X42355659Y-82920000D01*
X42335063Y-82684592D01*
X42286572Y-82503619D01*
X42275305Y-82461569D01*
X42275304Y-82461567D01*
X42273903Y-82456337D01*
X42174035Y-82242171D01*
X42038495Y-82048599D01*
X41871401Y-81881505D01*
X41866968Y-81878401D01*
X41866961Y-81878395D01*
X41685842Y-81751575D01*
X41646976Y-81707257D01*
X41632965Y-81650000D01*
X41646976Y-81592743D01*
X41685842Y-81548425D01*
X41866961Y-81421604D01*
X41866961Y-81421603D01*
X41871401Y-81418495D01*
X42038495Y-81251401D01*
X42174035Y-81057830D01*
X42273903Y-80843663D01*
X42335063Y-80615408D01*
X42355659Y-80380000D01*
X42335063Y-80144592D01*
X42286572Y-79963619D01*
X42275305Y-79921569D01*
X42275304Y-79921567D01*
X42273903Y-79916337D01*
X42174035Y-79702171D01*
X42038495Y-79508599D01*
X41871401Y-79341505D01*
X41866968Y-79338401D01*
X41866961Y-79338395D01*
X41685842Y-79211575D01*
X41646976Y-79167257D01*
X41632965Y-79110000D01*
X41646976Y-79052743D01*
X41685842Y-79008425D01*
X41866961Y-78881604D01*
X41866961Y-78881603D01*
X41871401Y-78878495D01*
X42038495Y-78711401D01*
X42174035Y-78517830D01*
X42273903Y-78303663D01*
X42335063Y-78075408D01*
X42355659Y-77840000D01*
X42335063Y-77604592D01*
X42286572Y-77423619D01*
X42275305Y-77381569D01*
X42275304Y-77381567D01*
X42273903Y-77376337D01*
X42174035Y-77162171D01*
X42038495Y-76968599D01*
X41871401Y-76801505D01*
X41866968Y-76798401D01*
X41866961Y-76798395D01*
X41685842Y-76671575D01*
X41646976Y-76627257D01*
X41632965Y-76570000D01*
X41646976Y-76512743D01*
X41685842Y-76468425D01*
X41866961Y-76341604D01*
X41866961Y-76341603D01*
X41871401Y-76338495D01*
X42038495Y-76171401D01*
X42174035Y-75977830D01*
X42273903Y-75763663D01*
X42335063Y-75535408D01*
X42355659Y-75300000D01*
X42335063Y-75064592D01*
X42286572Y-74883619D01*
X42275305Y-74841569D01*
X42275304Y-74841567D01*
X42273903Y-74836337D01*
X42174035Y-74622171D01*
X42038495Y-74428599D01*
X41871401Y-74261505D01*
X41866968Y-74258401D01*
X41866961Y-74258395D01*
X41685842Y-74131575D01*
X41646976Y-74087257D01*
X41632965Y-74030000D01*
X41646976Y-73972743D01*
X41685842Y-73928425D01*
X41866961Y-73801604D01*
X41866961Y-73801603D01*
X41871401Y-73798495D01*
X42038495Y-73631401D01*
X42174035Y-73437830D01*
X42273903Y-73223663D01*
X42335063Y-72995408D01*
X42355659Y-72760000D01*
X42335063Y-72524592D01*
X42286572Y-72343619D01*
X42275305Y-72301569D01*
X42275304Y-72301567D01*
X42273903Y-72296337D01*
X42174035Y-72082171D01*
X42038495Y-71888599D01*
X41871401Y-71721505D01*
X41866968Y-71718401D01*
X41866961Y-71718395D01*
X41685842Y-71591575D01*
X41646976Y-71547257D01*
X41632965Y-71490000D01*
X41646976Y-71432743D01*
X41685842Y-71388425D01*
X41866961Y-71261604D01*
X41866961Y-71261603D01*
X41871401Y-71258495D01*
X42038495Y-71091401D01*
X42174035Y-70897830D01*
X42273903Y-70683663D01*
X42335063Y-70455408D01*
X42355659Y-70220000D01*
X42335063Y-69984592D01*
X42273903Y-69756337D01*
X42174035Y-69542171D01*
X42038495Y-69348599D01*
X41871401Y-69181505D01*
X41866968Y-69178401D01*
X41866961Y-69178395D01*
X41685842Y-69051575D01*
X41646976Y-69007257D01*
X41632965Y-68950000D01*
X41646976Y-68892743D01*
X41685842Y-68848425D01*
X41866961Y-68721604D01*
X41866961Y-68721603D01*
X41871401Y-68718495D01*
X42038495Y-68551401D01*
X42174035Y-68357830D01*
X42273903Y-68143663D01*
X42335063Y-67915408D01*
X42355659Y-67680000D01*
X42335063Y-67444592D01*
X42273903Y-67216337D01*
X42174035Y-67002171D01*
X42038495Y-66808599D01*
X41871401Y-66641505D01*
X41866968Y-66638401D01*
X41866961Y-66638395D01*
X41685842Y-66511575D01*
X41646976Y-66467257D01*
X41632965Y-66410000D01*
X41646976Y-66352743D01*
X41685842Y-66308425D01*
X41866961Y-66181604D01*
X41866961Y-66181603D01*
X41871401Y-66178495D01*
X42038495Y-66011401D01*
X42174035Y-65817830D01*
X42273903Y-65603663D01*
X42335063Y-65375408D01*
X42355659Y-65140000D01*
X42335063Y-64904592D01*
X42283678Y-64712818D01*
X42275305Y-64681569D01*
X42275304Y-64681567D01*
X42273903Y-64676337D01*
X42174035Y-64462171D01*
X42038495Y-64268599D01*
X41871401Y-64101505D01*
X41866970Y-64098402D01*
X41866966Y-64098399D01*
X41685841Y-63971574D01*
X41646976Y-63927256D01*
X41632965Y-63869999D01*
X41646976Y-63812742D01*
X41685839Y-63768426D01*
X41871401Y-63638495D01*
X42038495Y-63471401D01*
X42174035Y-63277830D01*
X42273903Y-63063663D01*
X42335063Y-62835408D01*
X42355659Y-62600000D01*
X42335063Y-62364592D01*
X42273903Y-62136337D01*
X42174035Y-61922171D01*
X42038495Y-61728599D01*
X41871401Y-61561505D01*
X41866968Y-61558401D01*
X41866961Y-61558395D01*
X41685842Y-61431575D01*
X41646976Y-61387257D01*
X41632965Y-61330000D01*
X41646976Y-61272743D01*
X41685842Y-61228425D01*
X41866961Y-61101604D01*
X41866961Y-61101603D01*
X41871401Y-61098495D01*
X42038495Y-60931401D01*
X42174035Y-60737830D01*
X42273903Y-60523663D01*
X42335063Y-60295408D01*
X42355659Y-60060000D01*
X42335063Y-59824592D01*
X42273903Y-59596337D01*
X42174035Y-59382171D01*
X42038495Y-59188599D01*
X41871401Y-59021505D01*
X41866970Y-59018402D01*
X41866966Y-59018399D01*
X41685405Y-58891269D01*
X41646540Y-58846951D01*
X41632529Y-58789694D01*
X41646540Y-58732437D01*
X41685406Y-58688119D01*
X41866638Y-58561219D01*
X41874909Y-58554278D01*
X42034278Y-58394909D01*
X42041215Y-58386643D01*
X42170498Y-58202008D01*
X42175886Y-58192676D01*
X42271143Y-57988397D01*
X42274831Y-57978263D01*
X42326943Y-57783780D01*
X42327311Y-57772551D01*
X42316369Y-57770000D01*
X39683631Y-57770000D01*
X39672688Y-57772551D01*
X39673056Y-57783780D01*
X39725168Y-57978263D01*
X39728856Y-57988397D01*
X39824113Y-58192676D01*
X39829501Y-58202008D01*
X39958784Y-58386643D01*
X39965721Y-58394909D01*
X40125090Y-58554278D01*
X40133356Y-58561215D01*
X40314595Y-58688120D01*
X40353460Y-58732438D01*
X40367471Y-58789695D01*
X40353460Y-58846952D01*
X40314594Y-58891270D01*
X40133034Y-59018399D01*
X40133029Y-59018402D01*
X40128599Y-59021505D01*
X40124775Y-59025328D01*
X40124769Y-59025334D01*
X39965334Y-59184769D01*
X39965328Y-59184775D01*
X39961505Y-59188599D01*
X39958402Y-59193029D01*
X39958399Y-59193034D01*
X39829073Y-59377731D01*
X39829068Y-59377738D01*
X39825965Y-59382171D01*
X39823677Y-59387077D01*
X39823675Y-59387081D01*
X39728386Y-59591427D01*
X39728383Y-59591432D01*
X39726097Y-59596337D01*
X39724698Y-59601557D01*
X39724694Y-59601569D01*
X39666337Y-59819365D01*
X39666335Y-59819371D01*
X39664937Y-59824592D01*
X39664465Y-59829977D01*
X39664465Y-59829982D01*
X39652690Y-59964567D01*
X39644341Y-60060000D01*
X39644813Y-60065395D01*
X39664227Y-60287302D01*
X39664937Y-60295408D01*
X39666336Y-60300630D01*
X39666337Y-60300634D01*
X39699327Y-60423756D01*
X39699327Y-60487943D01*
X39667233Y-60543530D01*
X37897584Y-62313181D01*
X37857356Y-62340061D01*
X37809903Y-62349500D01*
X36969772Y-62349500D01*
X36911645Y-62335032D01*
X36867082Y-62295004D01*
X36846483Y-62238756D01*
X36843993Y-62215598D01*
X36843993Y-62189093D01*
X36849500Y-62137873D01*
X36849499Y-61762128D01*
X36843091Y-61702517D01*
X36792796Y-61567669D01*
X36706546Y-61452454D01*
X36671161Y-61425965D01*
X36598431Y-61371519D01*
X36598430Y-61371518D01*
X36591331Y-61366204D01*
X36456483Y-61315909D01*
X36448770Y-61315079D01*
X36448767Y-61315079D01*
X36435242Y-61313625D01*
X36378995Y-61293025D01*
X36338968Y-61248463D01*
X36324500Y-61190336D01*
X36324500Y-60556097D01*
X36333939Y-60508644D01*
X36360819Y-60468416D01*
X36884142Y-59945093D01*
X39534031Y-57295202D01*
X39587659Y-57263653D01*
X39649867Y-57262127D01*
X39683630Y-57270000D01*
X42316369Y-57270000D01*
X42327311Y-57267448D01*
X42326943Y-57256219D01*
X42274831Y-57061736D01*
X42271143Y-57051602D01*
X42175889Y-56847332D01*
X42170491Y-56837982D01*
X42041215Y-56653357D01*
X42034280Y-56645092D01*
X41916053Y-56526865D01*
X41884757Y-56474119D01*
X41882568Y-56412825D01*
X41910022Y-56357981D01*
X41960398Y-56323003D01*
X42092331Y-56273796D01*
X42207546Y-56187546D01*
X42293796Y-56072331D01*
X42344091Y-55937483D01*
X42350500Y-55877873D01*
X42350499Y-54082128D01*
X42344091Y-54022517D01*
X42293796Y-53887669D01*
X42207546Y-53772454D01*
X42092331Y-53686204D01*
X41957483Y-53635909D01*
X41949770Y-53635079D01*
X41949767Y-53635079D01*
X41901180Y-53629855D01*
X41901169Y-53629854D01*
X41897873Y-53629500D01*
X41894550Y-53629500D01*
X40105439Y-53629500D01*
X40105420Y-53629500D01*
X40102128Y-53629501D01*
X40098850Y-53629853D01*
X40098838Y-53629854D01*
X40050231Y-53635079D01*
X40050225Y-53635080D01*
X40042517Y-53635909D01*
X40035252Y-53638618D01*
X40035246Y-53638620D01*
X39915980Y-53683104D01*
X39915978Y-53683104D01*
X39907669Y-53686204D01*
X39900572Y-53691516D01*
X39900568Y-53691519D01*
X39799550Y-53767141D01*
X39799546Y-53767144D01*
X39792454Y-53772454D01*
X39787144Y-53779546D01*
X39787141Y-53779550D01*
X39711519Y-53880568D01*
X39711516Y-53880572D01*
X39706204Y-53887669D01*
X39703104Y-53895978D01*
X39703104Y-53895980D01*
X39658620Y-54015247D01*
X39658619Y-54015250D01*
X39655909Y-54022517D01*
X39655079Y-54030227D01*
X39655079Y-54030232D01*
X39649855Y-54078819D01*
X39649854Y-54078831D01*
X39649500Y-54082127D01*
X39649500Y-54085449D01*
X39649500Y-55429902D01*
X39640061Y-55477355D01*
X39613181Y-55517583D01*
X35332965Y-59797798D01*
X35320774Y-59808490D01*
X35302164Y-59822770D01*
X35302156Y-59822777D01*
X35295718Y-59827718D01*
X35290777Y-59834156D01*
X35290774Y-59834160D01*
X35205652Y-59945093D01*
X35205650Y-59945095D01*
X35199464Y-59953158D01*
X35199464Y-59953159D01*
X35194314Y-59965590D01*
X35194314Y-59965591D01*
X35142066Y-60091728D01*
X35142064Y-60091733D01*
X35138956Y-60099238D01*
X35137896Y-60107289D01*
X35137894Y-60107297D01*
X35119702Y-60245482D01*
X35118318Y-60256000D01*
X35119379Y-60264059D01*
X35122439Y-60287302D01*
X35123500Y-60303487D01*
X35123500Y-61190336D01*
X35109032Y-61248464D01*
X35069003Y-61293027D01*
X35012754Y-61313626D01*
X34999231Y-61315079D01*
X34999225Y-61315080D01*
X34991517Y-61315909D01*
X34984252Y-61318618D01*
X34984246Y-61318620D01*
X34864980Y-61363104D01*
X34864978Y-61363104D01*
X34856669Y-61366204D01*
X34849572Y-61371516D01*
X34849568Y-61371519D01*
X34748550Y-61447141D01*
X34748546Y-61447144D01*
X34741454Y-61452454D01*
X34736144Y-61459546D01*
X34736141Y-61459550D01*
X34660519Y-61560568D01*
X34660516Y-61560572D01*
X34655204Y-61567669D01*
X34652104Y-61575978D01*
X34652104Y-61575980D01*
X34607620Y-61695247D01*
X34607619Y-61695250D01*
X34604909Y-61702517D01*
X34604079Y-61710227D01*
X34604079Y-61710232D01*
X34598855Y-61758819D01*
X34598854Y-61758831D01*
X34598500Y-61762127D01*
X34598500Y-61765448D01*
X34598500Y-61765449D01*
X34598500Y-62134560D01*
X34598500Y-62134578D01*
X34598501Y-62137872D01*
X34598852Y-62141145D01*
X34598854Y-62141166D01*
X34604006Y-62189093D01*
X34604006Y-62215596D01*
X34599353Y-62258878D01*
X34599000Y-62265482D01*
X34599000Y-62293674D01*
X34602450Y-62306549D01*
X34602843Y-62306655D01*
X34640253Y-62323739D01*
X34670018Y-62352120D01*
X34687662Y-62375690D01*
X34709560Y-62423643D01*
X34709560Y-62476359D01*
X34687660Y-62524312D01*
X34670016Y-62547881D01*
X34640253Y-62576259D01*
X34602846Y-62593343D01*
X34602450Y-62593448D01*
X34599000Y-62606326D01*
X34599000Y-62634518D01*
X34599353Y-62641116D01*
X34604007Y-62684403D01*
X34604007Y-62710906D01*
X34598500Y-62762127D01*
X34598500Y-62765448D01*
X34598500Y-62765449D01*
X34598500Y-63134560D01*
X34598500Y-63134578D01*
X34598501Y-63137872D01*
X34598853Y-63141150D01*
X34598854Y-63141161D01*
X34603755Y-63186747D01*
X34603755Y-63213250D01*
X34598500Y-63262127D01*
X34598500Y-63265448D01*
X34598500Y-63265449D01*
X34598500Y-63634560D01*
X34598500Y-63634578D01*
X34598501Y-63637872D01*
X34598853Y-63641150D01*
X34598854Y-63641161D01*
X34603755Y-63686747D01*
X34603755Y-63713250D01*
X34598500Y-63762127D01*
X34598500Y-63765448D01*
X34598500Y-63765449D01*
X34598500Y-64134560D01*
X34598500Y-64134578D01*
X34598501Y-64137872D01*
X34598853Y-64141150D01*
X34598854Y-64141161D01*
X34603755Y-64186747D01*
X34603755Y-64213250D01*
X34598500Y-64262127D01*
X34598500Y-64265448D01*
X34598500Y-64265449D01*
X34598500Y-64634560D01*
X34598500Y-64634578D01*
X34598501Y-64637872D01*
X34598853Y-64641150D01*
X34598854Y-64641161D01*
X34603755Y-64686747D01*
X34603755Y-64713250D01*
X34598500Y-64762127D01*
X34598500Y-64765448D01*
X34598500Y-64765449D01*
X34598500Y-65134560D01*
X34598500Y-65134578D01*
X34598501Y-65137872D01*
X34598853Y-65141150D01*
X34598854Y-65141161D01*
X34603755Y-65186747D01*
X34603755Y-65213250D01*
X34598500Y-65262127D01*
X34598500Y-65265448D01*
X34598500Y-65265449D01*
X34598500Y-65634560D01*
X34598500Y-65634578D01*
X34598501Y-65637872D01*
X34598853Y-65641150D01*
X34598854Y-65641161D01*
X34603755Y-65686747D01*
X34603755Y-65713250D01*
X34598500Y-65762127D01*
X34598500Y-65765448D01*
X34598500Y-65765449D01*
X34598500Y-66134560D01*
X34598500Y-66134578D01*
X34598501Y-66137872D01*
X34598853Y-66141150D01*
X34598854Y-66141161D01*
X34603755Y-66186747D01*
X34603755Y-66213250D01*
X34598500Y-66262127D01*
X34598500Y-66265448D01*
X34598500Y-66265449D01*
X34598500Y-66634560D01*
X34598500Y-66634578D01*
X34598501Y-66637872D01*
X34598853Y-66641150D01*
X34598854Y-66641161D01*
X34603755Y-66686747D01*
X34603755Y-66713250D01*
X34598500Y-66762127D01*
X34598500Y-66765448D01*
X34598500Y-66765449D01*
X34598500Y-67134560D01*
X34598500Y-67134578D01*
X34598501Y-67137872D01*
X34598853Y-67141150D01*
X34598854Y-67141161D01*
X34603755Y-67186747D01*
X34603755Y-67213250D01*
X34598500Y-67262127D01*
X34598500Y-67265448D01*
X34598500Y-67265449D01*
X34598500Y-67634560D01*
X34598500Y-67634578D01*
X28010500Y-67634578D01*
X28010500Y-61094578D01*
X31499500Y-61094578D01*
X31499501Y-61097872D01*
X31499853Y-61101150D01*
X31499854Y-61101161D01*
X31505079Y-61149768D01*
X31505080Y-61149773D01*
X31505909Y-61157483D01*
X31508619Y-61164749D01*
X31508620Y-61164753D01*
X31534461Y-61234035D01*
X31556204Y-61292331D01*
X31561518Y-61299430D01*
X31561519Y-61299431D01*
X31627265Y-61387257D01*
X31642454Y-61407546D01*
X31757669Y-61493796D01*
X31892517Y-61544091D01*
X31952127Y-61550500D01*
X34047872Y-61550499D01*
X34107483Y-61544091D01*
X34242331Y-61493796D01*
X34357546Y-61407546D01*
X34443796Y-61292331D01*
X34494091Y-61157483D01*
X34500500Y-61097873D01*
X34500499Y-59202128D01*
X34494091Y-59142517D01*
X34443796Y-59007669D01*
X34357546Y-58892454D01*
X34242331Y-58806204D01*
X34107483Y-58755909D01*
X34099770Y-58755079D01*
X34099767Y-58755079D01*
X34051180Y-58749855D01*
X34051169Y-58749854D01*
X34047873Y-58749500D01*
X34044550Y-58749500D01*
X31955439Y-58749500D01*
X31955420Y-58749500D01*
X31952128Y-58749501D01*
X31948850Y-58749853D01*
X31948838Y-58749854D01*
X31900231Y-58755079D01*
X31900225Y-58755080D01*
X31892517Y-58755909D01*
X31885252Y-58758618D01*
X31885246Y-58758620D01*
X31765980Y-58803104D01*
X31765978Y-58803104D01*
X31757669Y-58806204D01*
X31750572Y-58811516D01*
X31750568Y-58811519D01*
X31649550Y-58887141D01*
X31649546Y-58887144D01*
X31642454Y-58892454D01*
X31637144Y-58899546D01*
X31637141Y-58899550D01*
X31561519Y-59000568D01*
X31561516Y-59000572D01*
X31556204Y-59007669D01*
X31553104Y-59015978D01*
X31553104Y-59015980D01*
X31508620Y-59135247D01*
X31508619Y-59135250D01*
X31505909Y-59142517D01*
X31505079Y-59150227D01*
X31505079Y-59150232D01*
X31499855Y-59198819D01*
X31499854Y-59198831D01*
X31499500Y-59202127D01*
X31499500Y-59205448D01*
X31499500Y-59205449D01*
X31499500Y-61094560D01*
X31499500Y-61094578D01*
X28010500Y-61094578D01*
X28010500Y-53000000D01*
X28644341Y-53000000D01*
X28664937Y-53235408D01*
X28666336Y-53240630D01*
X28666337Y-53240634D01*
X28724694Y-53458430D01*
X28724697Y-53458438D01*
X28726097Y-53463663D01*
X28825965Y-53677829D01*
X28829072Y-53682266D01*
X28829073Y-53682268D01*
X28914350Y-53804057D01*
X28961505Y-53871401D01*
X29128599Y-54038495D01*
X29322171Y-54174035D01*
X29536337Y-54273903D01*
X29764592Y-54335063D01*
X29941034Y-54350500D01*
X30056258Y-54350500D01*
X30058966Y-54350500D01*
X30235408Y-54335063D01*
X30463663Y-54273903D01*
X30677829Y-54174035D01*
X30871401Y-54038495D01*
X31038495Y-53871401D01*
X31174035Y-53677830D01*
X31273903Y-53463663D01*
X31335063Y-53235408D01*
X31355659Y-53000000D01*
X35644341Y-53000000D01*
X35664937Y-53235408D01*
X35666336Y-53240630D01*
X35666337Y-53240634D01*
X35724694Y-53458430D01*
X35724697Y-53458438D01*
X35726097Y-53463663D01*
X35825965Y-53677829D01*
X35829072Y-53682266D01*
X35829073Y-53682268D01*
X35914350Y-53804057D01*
X35961505Y-53871401D01*
X36128599Y-54038495D01*
X36322171Y-54174035D01*
X36536337Y-54273903D01*
X36764592Y-54335063D01*
X36941034Y-54350500D01*
X37056258Y-54350500D01*
X37058966Y-54350500D01*
X37235408Y-54335063D01*
X37463663Y-54273903D01*
X37677829Y-54174035D01*
X37871401Y-54038495D01*
X38038495Y-53871401D01*
X38174035Y-53677830D01*
X38273903Y-53463663D01*
X38335063Y-53235408D01*
X38355659Y-53000000D01*
X38335063Y-52764592D01*
X38273903Y-52536337D01*
X38174035Y-52322171D01*
X38038495Y-52128599D01*
X37871401Y-51961505D01*
X37677829Y-51825965D01*
X37463663Y-51726097D01*
X37458438Y-51724697D01*
X37458430Y-51724694D01*
X37240634Y-51666337D01*
X37240630Y-51666336D01*
X37235408Y-51664937D01*
X37230020Y-51664465D01*
X37230017Y-51664465D01*
X37061664Y-51649736D01*
X37061662Y-51649735D01*
X37058966Y-51649500D01*
X36941034Y-51649500D01*
X36938338Y-51649735D01*
X36938335Y-51649736D01*
X36769982Y-51664465D01*
X36769977Y-51664465D01*
X36764592Y-51664937D01*
X36759371Y-51666335D01*
X36759365Y-51666337D01*
X36541569Y-51724694D01*
X36541557Y-51724698D01*
X36536337Y-51726097D01*
X36531432Y-51728383D01*
X36531427Y-51728386D01*
X36327081Y-51823675D01*
X36327077Y-51823677D01*
X36322171Y-51825965D01*
X36317738Y-51829068D01*
X36317731Y-51829073D01*
X36133034Y-51958399D01*
X36133029Y-51958402D01*
X36128599Y-51961505D01*
X36124775Y-51965328D01*
X36124769Y-51965334D01*
X35965336Y-52124767D01*
X35965330Y-52124773D01*
X35961505Y-52128599D01*
X35958406Y-52133023D01*
X35958399Y-52133033D01*
X35829066Y-52317740D01*
X35829061Y-52317747D01*
X35825965Y-52322170D01*
X35823683Y-52327061D01*
X35823678Y-52327072D01*
X35728386Y-52531427D01*
X35728383Y-52531432D01*
X35726097Y-52536337D01*
X35724698Y-52541557D01*
X35724694Y-52541569D01*
X35666337Y-52759365D01*
X35666335Y-52759371D01*
X35664937Y-52764592D01*
X35644341Y-53000000D01*
X31355659Y-53000000D01*
X31335063Y-52764592D01*
X31273903Y-52536337D01*
X31174035Y-52322171D01*
X31038495Y-52128599D01*
X30871401Y-51961505D01*
X30677829Y-51825965D01*
X30463663Y-51726097D01*
X30458438Y-51724697D01*
X30458430Y-51724694D01*
X30240634Y-51666337D01*
X30240630Y-51666336D01*
X30235408Y-51664937D01*
X30230020Y-51664465D01*
X30230017Y-51664465D01*
X30061664Y-51649736D01*
X30061662Y-51649735D01*
X30058966Y-51649500D01*
X29941034Y-51649500D01*
X29938338Y-51649735D01*
X29938335Y-51649736D01*
X29769982Y-51664465D01*
X29769977Y-51664465D01*
X29764592Y-51664937D01*
X29759371Y-51666335D01*
X29759365Y-51666337D01*
X29541569Y-51724694D01*
X29541557Y-51724698D01*
X29536337Y-51726097D01*
X29531432Y-51728383D01*
X29531427Y-51728386D01*
X29327081Y-51823675D01*
X29327077Y-51823677D01*
X29322171Y-51825965D01*
X29317738Y-51829068D01*
X29317731Y-51829073D01*
X29133034Y-51958399D01*
X29133029Y-51958402D01*
X29128599Y-51961505D01*
X29124775Y-51965328D01*
X29124769Y-51965334D01*
X28965336Y-52124767D01*
X28965330Y-52124773D01*
X28961505Y-52128599D01*
X28958406Y-52133023D01*
X28958399Y-52133033D01*
X28829066Y-52317740D01*
X28829061Y-52317747D01*
X28825965Y-52322170D01*
X28823683Y-52327061D01*
X28823678Y-52327072D01*
X28728386Y-52531427D01*
X28728383Y-52531432D01*
X28726097Y-52536337D01*
X28724698Y-52541557D01*
X28724694Y-52541569D01*
X28666337Y-52759365D01*
X28666335Y-52759371D01*
X28664937Y-52764592D01*
X28644341Y-53000000D01*
X28010500Y-53000000D01*
X28010500Y-51134500D01*
X28027113Y-51072500D01*
X28072500Y-51027113D01*
X28134500Y-51010500D01*
X42865500Y-51010500D01*
X42927500Y-51027113D01*
G37*
%TD.AperFunction*%
%TD*%
M02*
