%TF.GenerationSoftware,KiCad,Pcbnew,7.0.6-0*%
%TF.CreationDate,2023-08-01T13:24:21+08:00*%
%TF.ProjectId,thumb,7468756d-622e-46b6-9963-61645f706362,v1.0.0*%
%TF.SameCoordinates,Original*%
%TF.FileFunction,Legend,Bot*%
%TF.FilePolarity,Positive*%
%FSLAX46Y46*%
G04 Gerber Fmt 4.6, Leading zero omitted, Abs format (unit mm)*
G04 Created by KiCad (PCBNEW 7.0.6-0) date 2023-08-01 13:24:21*
%MOMM*%
%LPD*%
G01*
G04 APERTURE LIST*
%ADD10C,0.150000*%
%ADD11C,0.120000*%
G04 APERTURE END LIST*
D10*
X17833333Y18645180D02*
X17500000Y19121371D01*
X17261905Y18645180D02*
X17261905Y19645180D01*
X17261905Y19645180D02*
X17642857Y19645180D01*
X17642857Y19645180D02*
X17738095Y19597561D01*
X17738095Y19597561D02*
X17785714Y19549942D01*
X17785714Y19549942D02*
X17833333Y19454704D01*
X17833333Y19454704D02*
X17833333Y19311847D01*
X17833333Y19311847D02*
X17785714Y19216609D01*
X17785714Y19216609D02*
X17738095Y19168990D01*
X17738095Y19168990D02*
X17642857Y19121371D01*
X17642857Y19121371D02*
X17261905Y19121371D01*
X18214286Y19549942D02*
X18261905Y19597561D01*
X18261905Y19597561D02*
X18357143Y19645180D01*
X18357143Y19645180D02*
X18595238Y19645180D01*
X18595238Y19645180D02*
X18690476Y19597561D01*
X18690476Y19597561D02*
X18738095Y19549942D01*
X18738095Y19549942D02*
X18785714Y19454704D01*
X18785714Y19454704D02*
X18785714Y19359466D01*
X18785714Y19359466D02*
X18738095Y19216609D01*
X18738095Y19216609D02*
X18166667Y18645180D01*
X18166667Y18645180D02*
X18785714Y18645180D01*
X17833333Y19845180D02*
X17500000Y20321371D01*
X17261905Y19845180D02*
X17261905Y20845180D01*
X17261905Y20845180D02*
X17642857Y20845180D01*
X17642857Y20845180D02*
X17738095Y20797561D01*
X17738095Y20797561D02*
X17785714Y20749942D01*
X17785714Y20749942D02*
X17833333Y20654704D01*
X17833333Y20654704D02*
X17833333Y20511847D01*
X17833333Y20511847D02*
X17785714Y20416609D01*
X17785714Y20416609D02*
X17738095Y20368990D01*
X17738095Y20368990D02*
X17642857Y20321371D01*
X17642857Y20321371D02*
X17261905Y20321371D01*
X18785714Y19845180D02*
X18214286Y19845180D01*
X18500000Y19845180D02*
X18500000Y20845180D01*
X18500000Y20845180D02*
X18404762Y20702323D01*
X18404762Y20702323D02*
X18309524Y20607085D01*
X18309524Y20607085D02*
X18214286Y20559466D01*
X17833333Y21045180D02*
X17500000Y21521371D01*
X17261905Y21045180D02*
X17261905Y22045180D01*
X17261905Y22045180D02*
X17642857Y22045180D01*
X17642857Y22045180D02*
X17738095Y21997561D01*
X17738095Y21997561D02*
X17785714Y21949942D01*
X17785714Y21949942D02*
X17833333Y21854704D01*
X17833333Y21854704D02*
X17833333Y21711847D01*
X17833333Y21711847D02*
X17785714Y21616609D01*
X17785714Y21616609D02*
X17738095Y21568990D01*
X17738095Y21568990D02*
X17642857Y21521371D01*
X17642857Y21521371D02*
X17261905Y21521371D01*
X18452381Y22045180D02*
X18547619Y22045180D01*
X18547619Y22045180D02*
X18642857Y21997561D01*
X18642857Y21997561D02*
X18690476Y21949942D01*
X18690476Y21949942D02*
X18738095Y21854704D01*
X18738095Y21854704D02*
X18785714Y21664228D01*
X18785714Y21664228D02*
X18785714Y21426133D01*
X18785714Y21426133D02*
X18738095Y21235657D01*
X18738095Y21235657D02*
X18690476Y21140419D01*
X18690476Y21140419D02*
X18642857Y21092800D01*
X18642857Y21092800D02*
X18547619Y21045180D01*
X18547619Y21045180D02*
X18452381Y21045180D01*
X18452381Y21045180D02*
X18357143Y21092800D01*
X18357143Y21092800D02*
X18309524Y21140419D01*
X18309524Y21140419D02*
X18261905Y21235657D01*
X18261905Y21235657D02*
X18214286Y21426133D01*
X18214286Y21426133D02*
X18214286Y21664228D01*
X18214286Y21664228D02*
X18261905Y21854704D01*
X18261905Y21854704D02*
X18309524Y21949942D01*
X18309524Y21949942D02*
X18357143Y21997561D01*
X18357143Y21997561D02*
X18452381Y22045180D01*
X17833333Y22340419D02*
X17785714Y22292800D01*
X17785714Y22292800D02*
X17642857Y22245180D01*
X17642857Y22245180D02*
X17547619Y22245180D01*
X17547619Y22245180D02*
X17404762Y22292800D01*
X17404762Y22292800D02*
X17309524Y22388038D01*
X17309524Y22388038D02*
X17261905Y22483276D01*
X17261905Y22483276D02*
X17214286Y22673752D01*
X17214286Y22673752D02*
X17214286Y22816609D01*
X17214286Y22816609D02*
X17261905Y23007085D01*
X17261905Y23007085D02*
X17309524Y23102323D01*
X17309524Y23102323D02*
X17404762Y23197561D01*
X17404762Y23197561D02*
X17547619Y23245180D01*
X17547619Y23245180D02*
X17642857Y23245180D01*
X17642857Y23245180D02*
X17785714Y23197561D01*
X17785714Y23197561D02*
X17833333Y23149942D01*
X18690476Y23245180D02*
X18500000Y23245180D01*
X18500000Y23245180D02*
X18404762Y23197561D01*
X18404762Y23197561D02*
X18357143Y23149942D01*
X18357143Y23149942D02*
X18261905Y23007085D01*
X18261905Y23007085D02*
X18214286Y22816609D01*
X18214286Y22816609D02*
X18214286Y22435657D01*
X18214286Y22435657D02*
X18261905Y22340419D01*
X18261905Y22340419D02*
X18309524Y22292800D01*
X18309524Y22292800D02*
X18404762Y22245180D01*
X18404762Y22245180D02*
X18595238Y22245180D01*
X18595238Y22245180D02*
X18690476Y22292800D01*
X18690476Y22292800D02*
X18738095Y22340419D01*
X18738095Y22340419D02*
X18785714Y22435657D01*
X18785714Y22435657D02*
X18785714Y22673752D01*
X18785714Y22673752D02*
X18738095Y22768990D01*
X18738095Y22768990D02*
X18690476Y22816609D01*
X18690476Y22816609D02*
X18595238Y22864228D01*
X18595238Y22864228D02*
X18404762Y22864228D01*
X18404762Y22864228D02*
X18309524Y22816609D01*
X18309524Y22816609D02*
X18261905Y22768990D01*
X18261905Y22768990D02*
X18214286Y22673752D01*
X17833333Y23540419D02*
X17785714Y23492800D01*
X17785714Y23492800D02*
X17642857Y23445180D01*
X17642857Y23445180D02*
X17547619Y23445180D01*
X17547619Y23445180D02*
X17404762Y23492800D01*
X17404762Y23492800D02*
X17309524Y23588038D01*
X17309524Y23588038D02*
X17261905Y23683276D01*
X17261905Y23683276D02*
X17214286Y23873752D01*
X17214286Y23873752D02*
X17214286Y24016609D01*
X17214286Y24016609D02*
X17261905Y24207085D01*
X17261905Y24207085D02*
X17309524Y24302323D01*
X17309524Y24302323D02*
X17404762Y24397561D01*
X17404762Y24397561D02*
X17547619Y24445180D01*
X17547619Y24445180D02*
X17642857Y24445180D01*
X17642857Y24445180D02*
X17785714Y24397561D01*
X17785714Y24397561D02*
X17833333Y24349942D01*
X18738095Y24445180D02*
X18261905Y24445180D01*
X18261905Y24445180D02*
X18214286Y23968990D01*
X18214286Y23968990D02*
X18261905Y24016609D01*
X18261905Y24016609D02*
X18357143Y24064228D01*
X18357143Y24064228D02*
X18595238Y24064228D01*
X18595238Y24064228D02*
X18690476Y24016609D01*
X18690476Y24016609D02*
X18738095Y23968990D01*
X18738095Y23968990D02*
X18785714Y23873752D01*
X18785714Y23873752D02*
X18785714Y23635657D01*
X18785714Y23635657D02*
X18738095Y23540419D01*
X18738095Y23540419D02*
X18690476Y23492800D01*
X18690476Y23492800D02*
X18595238Y23445180D01*
X18595238Y23445180D02*
X18357143Y23445180D01*
X18357143Y23445180D02*
X18261905Y23492800D01*
X18261905Y23492800D02*
X18214286Y23540419D01*
X16476190Y30640419D02*
X16428571Y30592800D01*
X16428571Y30592800D02*
X16285714Y30545180D01*
X16285714Y30545180D02*
X16190476Y30545180D01*
X16190476Y30545180D02*
X16047619Y30592800D01*
X16047619Y30592800D02*
X15952381Y30688038D01*
X15952381Y30688038D02*
X15904762Y30783276D01*
X15904762Y30783276D02*
X15857143Y30973752D01*
X15857143Y30973752D02*
X15857143Y31116609D01*
X15857143Y31116609D02*
X15904762Y31307085D01*
X15904762Y31307085D02*
X15952381Y31402323D01*
X15952381Y31402323D02*
X16047619Y31497561D01*
X16047619Y31497561D02*
X16190476Y31545180D01*
X16190476Y31545180D02*
X16285714Y31545180D01*
X16285714Y31545180D02*
X16428571Y31497561D01*
X16428571Y31497561D02*
X16476190Y31449942D01*
X17380952Y31545180D02*
X16904762Y31545180D01*
X16904762Y31545180D02*
X16857143Y31068990D01*
X16857143Y31068990D02*
X16904762Y31116609D01*
X16904762Y31116609D02*
X17000000Y31164228D01*
X17000000Y31164228D02*
X17238095Y31164228D01*
X17238095Y31164228D02*
X17333333Y31116609D01*
X17333333Y31116609D02*
X17380952Y31068990D01*
X17380952Y31068990D02*
X17428571Y30973752D01*
X17428571Y30973752D02*
X17428571Y30735657D01*
X17428571Y30735657D02*
X17380952Y30640419D01*
X17380952Y30640419D02*
X17333333Y30592800D01*
X17333333Y30592800D02*
X17238095Y30545180D01*
X17238095Y30545180D02*
X17000000Y30545180D01*
X17000000Y30545180D02*
X16904762Y30592800D01*
X16904762Y30592800D02*
X16857143Y30640419D01*
X17619048Y30449942D02*
X18380952Y30449942D01*
X19190476Y30545180D02*
X18857143Y31021371D01*
X18619048Y30545180D02*
X18619048Y31545180D01*
X18619048Y31545180D02*
X19000000Y31545180D01*
X19000000Y31545180D02*
X19095238Y31497561D01*
X19095238Y31497561D02*
X19142857Y31449942D01*
X19142857Y31449942D02*
X19190476Y31354704D01*
X19190476Y31354704D02*
X19190476Y31211847D01*
X19190476Y31211847D02*
X19142857Y31116609D01*
X19142857Y31116609D02*
X19095238Y31068990D01*
X19095238Y31068990D02*
X19000000Y31021371D01*
X19000000Y31021371D02*
X18619048Y31021371D01*
X19809524Y31545180D02*
X19904762Y31545180D01*
X19904762Y31545180D02*
X20000000Y31497561D01*
X20000000Y31497561D02*
X20047619Y31449942D01*
X20047619Y31449942D02*
X20095238Y31354704D01*
X20095238Y31354704D02*
X20142857Y31164228D01*
X20142857Y31164228D02*
X20142857Y30926133D01*
X20142857Y30926133D02*
X20095238Y30735657D01*
X20095238Y30735657D02*
X20047619Y30640419D01*
X20047619Y30640419D02*
X20000000Y30592800D01*
X20000000Y30592800D02*
X19904762Y30545180D01*
X19904762Y30545180D02*
X19809524Y30545180D01*
X19809524Y30545180D02*
X19714286Y30592800D01*
X19714286Y30592800D02*
X19666667Y30640419D01*
X19666667Y30640419D02*
X19619048Y30735657D01*
X19619048Y30735657D02*
X19571429Y30926133D01*
X19571429Y30926133D02*
X19571429Y31164228D01*
X19571429Y31164228D02*
X19619048Y31354704D01*
X19619048Y31354704D02*
X19666667Y31449942D01*
X19666667Y31449942D02*
X19714286Y31497561D01*
X19714286Y31497561D02*
X19809524Y31545180D01*
X16476190Y13640419D02*
X16428571Y13592800D01*
X16428571Y13592800D02*
X16285714Y13545180D01*
X16285714Y13545180D02*
X16190476Y13545180D01*
X16190476Y13545180D02*
X16047619Y13592800D01*
X16047619Y13592800D02*
X15952381Y13688038D01*
X15952381Y13688038D02*
X15904762Y13783276D01*
X15904762Y13783276D02*
X15857143Y13973752D01*
X15857143Y13973752D02*
X15857143Y14116609D01*
X15857143Y14116609D02*
X15904762Y14307085D01*
X15904762Y14307085D02*
X15952381Y14402323D01*
X15952381Y14402323D02*
X16047619Y14497561D01*
X16047619Y14497561D02*
X16190476Y14545180D01*
X16190476Y14545180D02*
X16285714Y14545180D01*
X16285714Y14545180D02*
X16428571Y14497561D01*
X16428571Y14497561D02*
X16476190Y14449942D01*
X17380952Y14545180D02*
X16904762Y14545180D01*
X16904762Y14545180D02*
X16857143Y14068990D01*
X16857143Y14068990D02*
X16904762Y14116609D01*
X16904762Y14116609D02*
X17000000Y14164228D01*
X17000000Y14164228D02*
X17238095Y14164228D01*
X17238095Y14164228D02*
X17333333Y14116609D01*
X17333333Y14116609D02*
X17380952Y14068990D01*
X17380952Y14068990D02*
X17428571Y13973752D01*
X17428571Y13973752D02*
X17428571Y13735657D01*
X17428571Y13735657D02*
X17380952Y13640419D01*
X17380952Y13640419D02*
X17333333Y13592800D01*
X17333333Y13592800D02*
X17238095Y13545180D01*
X17238095Y13545180D02*
X17000000Y13545180D01*
X17000000Y13545180D02*
X16904762Y13592800D01*
X16904762Y13592800D02*
X16857143Y13640419D01*
X17619048Y13449942D02*
X18380952Y13449942D01*
X19190476Y13545180D02*
X18857143Y14021371D01*
X18619048Y13545180D02*
X18619048Y14545180D01*
X18619048Y14545180D02*
X19000000Y14545180D01*
X19000000Y14545180D02*
X19095238Y14497561D01*
X19095238Y14497561D02*
X19142857Y14449942D01*
X19142857Y14449942D02*
X19190476Y14354704D01*
X19190476Y14354704D02*
X19190476Y14211847D01*
X19190476Y14211847D02*
X19142857Y14116609D01*
X19142857Y14116609D02*
X19095238Y14068990D01*
X19095238Y14068990D02*
X19000000Y14021371D01*
X19000000Y14021371D02*
X18619048Y14021371D01*
X20142857Y13545180D02*
X19571429Y13545180D01*
X19857143Y13545180D02*
X19857143Y14545180D01*
X19857143Y14545180D02*
X19761905Y14402323D01*
X19761905Y14402323D02*
X19666667Y14307085D01*
X19666667Y14307085D02*
X19571429Y14259466D01*
X16476190Y-3359580D02*
X16428571Y-3407200D01*
X16428571Y-3407200D02*
X16285714Y-3454819D01*
X16285714Y-3454819D02*
X16190476Y-3454819D01*
X16190476Y-3454819D02*
X16047619Y-3407200D01*
X16047619Y-3407200D02*
X15952381Y-3311961D01*
X15952381Y-3311961D02*
X15904762Y-3216723D01*
X15904762Y-3216723D02*
X15857143Y-3026247D01*
X15857143Y-3026247D02*
X15857143Y-2883390D01*
X15857143Y-2883390D02*
X15904762Y-2692914D01*
X15904762Y-2692914D02*
X15952381Y-2597676D01*
X15952381Y-2597676D02*
X16047619Y-2502438D01*
X16047619Y-2502438D02*
X16190476Y-2454819D01*
X16190476Y-2454819D02*
X16285714Y-2454819D01*
X16285714Y-2454819D02*
X16428571Y-2502438D01*
X16428571Y-2502438D02*
X16476190Y-2550057D01*
X17380952Y-2454819D02*
X16904762Y-2454819D01*
X16904762Y-2454819D02*
X16857143Y-2931009D01*
X16857143Y-2931009D02*
X16904762Y-2883390D01*
X16904762Y-2883390D02*
X17000000Y-2835771D01*
X17000000Y-2835771D02*
X17238095Y-2835771D01*
X17238095Y-2835771D02*
X17333333Y-2883390D01*
X17333333Y-2883390D02*
X17380952Y-2931009D01*
X17380952Y-2931009D02*
X17428571Y-3026247D01*
X17428571Y-3026247D02*
X17428571Y-3264342D01*
X17428571Y-3264342D02*
X17380952Y-3359580D01*
X17380952Y-3359580D02*
X17333333Y-3407200D01*
X17333333Y-3407200D02*
X17238095Y-3454819D01*
X17238095Y-3454819D02*
X17000000Y-3454819D01*
X17000000Y-3454819D02*
X16904762Y-3407200D01*
X16904762Y-3407200D02*
X16857143Y-3359580D01*
X17619048Y-3550057D02*
X18380952Y-3550057D01*
X19190476Y-3454819D02*
X18857143Y-2978628D01*
X18619048Y-3454819D02*
X18619048Y-2454819D01*
X18619048Y-2454819D02*
X19000000Y-2454819D01*
X19000000Y-2454819D02*
X19095238Y-2502438D01*
X19095238Y-2502438D02*
X19142857Y-2550057D01*
X19142857Y-2550057D02*
X19190476Y-2645295D01*
X19190476Y-2645295D02*
X19190476Y-2788152D01*
X19190476Y-2788152D02*
X19142857Y-2883390D01*
X19142857Y-2883390D02*
X19095238Y-2931009D01*
X19095238Y-2931009D02*
X19000000Y-2978628D01*
X19000000Y-2978628D02*
X18619048Y-2978628D01*
X19571429Y-2550057D02*
X19619048Y-2502438D01*
X19619048Y-2502438D02*
X19714286Y-2454819D01*
X19714286Y-2454819D02*
X19952381Y-2454819D01*
X19952381Y-2454819D02*
X20047619Y-2502438D01*
X20047619Y-2502438D02*
X20095238Y-2550057D01*
X20095238Y-2550057D02*
X20142857Y-2645295D01*
X20142857Y-2645295D02*
X20142857Y-2740533D01*
X20142857Y-2740533D02*
X20095238Y-2883390D01*
X20095238Y-2883390D02*
X19523810Y-3454819D01*
X19523810Y-3454819D02*
X20142857Y-3454819D01*
X-1523809Y36640419D02*
X-1571428Y36592800D01*
X-1571428Y36592800D02*
X-1714285Y36545180D01*
X-1714285Y36545180D02*
X-1809523Y36545180D01*
X-1809523Y36545180D02*
X-1952380Y36592800D01*
X-1952380Y36592800D02*
X-2047618Y36688038D01*
X-2047618Y36688038D02*
X-2095237Y36783276D01*
X-2095237Y36783276D02*
X-2142856Y36973752D01*
X-2142856Y36973752D02*
X-2142856Y37116609D01*
X-2142856Y37116609D02*
X-2095237Y37307085D01*
X-2095237Y37307085D02*
X-2047618Y37402323D01*
X-2047618Y37402323D02*
X-1952380Y37497561D01*
X-1952380Y37497561D02*
X-1809523Y37545180D01*
X-1809523Y37545180D02*
X-1714285Y37545180D01*
X-1714285Y37545180D02*
X-1571428Y37497561D01*
X-1571428Y37497561D02*
X-1523809Y37449942D01*
X-666666Y37545180D02*
X-857142Y37545180D01*
X-857142Y37545180D02*
X-952380Y37497561D01*
X-952380Y37497561D02*
X-999999Y37449942D01*
X-999999Y37449942D02*
X-1095237Y37307085D01*
X-1095237Y37307085D02*
X-1142856Y37116609D01*
X-1142856Y37116609D02*
X-1142856Y36735657D01*
X-1142856Y36735657D02*
X-1095237Y36640419D01*
X-1095237Y36640419D02*
X-1047618Y36592800D01*
X-1047618Y36592800D02*
X-952380Y36545180D01*
X-952380Y36545180D02*
X-761904Y36545180D01*
X-761904Y36545180D02*
X-666666Y36592800D01*
X-666666Y36592800D02*
X-619047Y36640419D01*
X-619047Y36640419D02*
X-571428Y36735657D01*
X-571428Y36735657D02*
X-571428Y36973752D01*
X-571428Y36973752D02*
X-619047Y37068990D01*
X-619047Y37068990D02*
X-666666Y37116609D01*
X-666666Y37116609D02*
X-761904Y37164228D01*
X-761904Y37164228D02*
X-952380Y37164228D01*
X-952380Y37164228D02*
X-1047618Y37116609D01*
X-1047618Y37116609D02*
X-1095237Y37068990D01*
X-1095237Y37068990D02*
X-1142856Y36973752D01*
X-380952Y36449942D02*
X380952Y36449942D01*
X1190476Y36545180D02*
X857143Y37021371D01*
X619048Y36545180D02*
X619048Y37545180D01*
X619048Y37545180D02*
X1000000Y37545180D01*
X1000000Y37545180D02*
X1095238Y37497561D01*
X1095238Y37497561D02*
X1142857Y37449942D01*
X1142857Y37449942D02*
X1190476Y37354704D01*
X1190476Y37354704D02*
X1190476Y37211847D01*
X1190476Y37211847D02*
X1142857Y37116609D01*
X1142857Y37116609D02*
X1095238Y37068990D01*
X1095238Y37068990D02*
X1000000Y37021371D01*
X1000000Y37021371D02*
X619048Y37021371D01*
X1809524Y37545180D02*
X1904762Y37545180D01*
X1904762Y37545180D02*
X2000000Y37497561D01*
X2000000Y37497561D02*
X2047619Y37449942D01*
X2047619Y37449942D02*
X2095238Y37354704D01*
X2095238Y37354704D02*
X2142857Y37164228D01*
X2142857Y37164228D02*
X2142857Y36926133D01*
X2142857Y36926133D02*
X2095238Y36735657D01*
X2095238Y36735657D02*
X2047619Y36640419D01*
X2047619Y36640419D02*
X2000000Y36592800D01*
X2000000Y36592800D02*
X1904762Y36545180D01*
X1904762Y36545180D02*
X1809524Y36545180D01*
X1809524Y36545180D02*
X1714286Y36592800D01*
X1714286Y36592800D02*
X1666667Y36640419D01*
X1666667Y36640419D02*
X1619048Y36735657D01*
X1619048Y36735657D02*
X1571429Y36926133D01*
X1571429Y36926133D02*
X1571429Y37164228D01*
X1571429Y37164228D02*
X1619048Y37354704D01*
X1619048Y37354704D02*
X1666667Y37449942D01*
X1666667Y37449942D02*
X1714286Y37497561D01*
X1714286Y37497561D02*
X1809524Y37545180D01*
X-1523809Y19640419D02*
X-1571428Y19592800D01*
X-1571428Y19592800D02*
X-1714285Y19545180D01*
X-1714285Y19545180D02*
X-1809523Y19545180D01*
X-1809523Y19545180D02*
X-1952380Y19592800D01*
X-1952380Y19592800D02*
X-2047618Y19688038D01*
X-2047618Y19688038D02*
X-2095237Y19783276D01*
X-2095237Y19783276D02*
X-2142856Y19973752D01*
X-2142856Y19973752D02*
X-2142856Y20116609D01*
X-2142856Y20116609D02*
X-2095237Y20307085D01*
X-2095237Y20307085D02*
X-2047618Y20402323D01*
X-2047618Y20402323D02*
X-1952380Y20497561D01*
X-1952380Y20497561D02*
X-1809523Y20545180D01*
X-1809523Y20545180D02*
X-1714285Y20545180D01*
X-1714285Y20545180D02*
X-1571428Y20497561D01*
X-1571428Y20497561D02*
X-1523809Y20449942D01*
X-666666Y20545180D02*
X-857142Y20545180D01*
X-857142Y20545180D02*
X-952380Y20497561D01*
X-952380Y20497561D02*
X-999999Y20449942D01*
X-999999Y20449942D02*
X-1095237Y20307085D01*
X-1095237Y20307085D02*
X-1142856Y20116609D01*
X-1142856Y20116609D02*
X-1142856Y19735657D01*
X-1142856Y19735657D02*
X-1095237Y19640419D01*
X-1095237Y19640419D02*
X-1047618Y19592800D01*
X-1047618Y19592800D02*
X-952380Y19545180D01*
X-952380Y19545180D02*
X-761904Y19545180D01*
X-761904Y19545180D02*
X-666666Y19592800D01*
X-666666Y19592800D02*
X-619047Y19640419D01*
X-619047Y19640419D02*
X-571428Y19735657D01*
X-571428Y19735657D02*
X-571428Y19973752D01*
X-571428Y19973752D02*
X-619047Y20068990D01*
X-619047Y20068990D02*
X-666666Y20116609D01*
X-666666Y20116609D02*
X-761904Y20164228D01*
X-761904Y20164228D02*
X-952380Y20164228D01*
X-952380Y20164228D02*
X-1047618Y20116609D01*
X-1047618Y20116609D02*
X-1095237Y20068990D01*
X-1095237Y20068990D02*
X-1142856Y19973752D01*
X-380952Y19449942D02*
X380952Y19449942D01*
X1190476Y19545180D02*
X857143Y20021371D01*
X619048Y19545180D02*
X619048Y20545180D01*
X619048Y20545180D02*
X1000000Y20545180D01*
X1000000Y20545180D02*
X1095238Y20497561D01*
X1095238Y20497561D02*
X1142857Y20449942D01*
X1142857Y20449942D02*
X1190476Y20354704D01*
X1190476Y20354704D02*
X1190476Y20211847D01*
X1190476Y20211847D02*
X1142857Y20116609D01*
X1142857Y20116609D02*
X1095238Y20068990D01*
X1095238Y20068990D02*
X1000000Y20021371D01*
X1000000Y20021371D02*
X619048Y20021371D01*
X2142857Y19545180D02*
X1571429Y19545180D01*
X1857143Y19545180D02*
X1857143Y20545180D01*
X1857143Y20545180D02*
X1761905Y20402323D01*
X1761905Y20402323D02*
X1666667Y20307085D01*
X1666667Y20307085D02*
X1571429Y20259466D01*
X-1523809Y2640419D02*
X-1571428Y2592800D01*
X-1571428Y2592800D02*
X-1714285Y2545180D01*
X-1714285Y2545180D02*
X-1809523Y2545180D01*
X-1809523Y2545180D02*
X-1952380Y2592800D01*
X-1952380Y2592800D02*
X-2047618Y2688038D01*
X-2047618Y2688038D02*
X-2095237Y2783276D01*
X-2095237Y2783276D02*
X-2142856Y2973752D01*
X-2142856Y2973752D02*
X-2142856Y3116609D01*
X-2142856Y3116609D02*
X-2095237Y3307085D01*
X-2095237Y3307085D02*
X-2047618Y3402323D01*
X-2047618Y3402323D02*
X-1952380Y3497561D01*
X-1952380Y3497561D02*
X-1809523Y3545180D01*
X-1809523Y3545180D02*
X-1714285Y3545180D01*
X-1714285Y3545180D02*
X-1571428Y3497561D01*
X-1571428Y3497561D02*
X-1523809Y3449942D01*
X-666666Y3545180D02*
X-857142Y3545180D01*
X-857142Y3545180D02*
X-952380Y3497561D01*
X-952380Y3497561D02*
X-999999Y3449942D01*
X-999999Y3449942D02*
X-1095237Y3307085D01*
X-1095237Y3307085D02*
X-1142856Y3116609D01*
X-1142856Y3116609D02*
X-1142856Y2735657D01*
X-1142856Y2735657D02*
X-1095237Y2640419D01*
X-1095237Y2640419D02*
X-1047618Y2592800D01*
X-1047618Y2592800D02*
X-952380Y2545180D01*
X-952380Y2545180D02*
X-761904Y2545180D01*
X-761904Y2545180D02*
X-666666Y2592800D01*
X-666666Y2592800D02*
X-619047Y2640419D01*
X-619047Y2640419D02*
X-571428Y2735657D01*
X-571428Y2735657D02*
X-571428Y2973752D01*
X-571428Y2973752D02*
X-619047Y3068990D01*
X-619047Y3068990D02*
X-666666Y3116609D01*
X-666666Y3116609D02*
X-761904Y3164228D01*
X-761904Y3164228D02*
X-952380Y3164228D01*
X-952380Y3164228D02*
X-1047618Y3116609D01*
X-1047618Y3116609D02*
X-1095237Y3068990D01*
X-1095237Y3068990D02*
X-1142856Y2973752D01*
X-380952Y2449942D02*
X380952Y2449942D01*
X1190476Y2545180D02*
X857143Y3021371D01*
X619048Y2545180D02*
X619048Y3545180D01*
X619048Y3545180D02*
X1000000Y3545180D01*
X1000000Y3545180D02*
X1095238Y3497561D01*
X1095238Y3497561D02*
X1142857Y3449942D01*
X1142857Y3449942D02*
X1190476Y3354704D01*
X1190476Y3354704D02*
X1190476Y3211847D01*
X1190476Y3211847D02*
X1142857Y3116609D01*
X1142857Y3116609D02*
X1095238Y3068990D01*
X1095238Y3068990D02*
X1000000Y3021371D01*
X1000000Y3021371D02*
X619048Y3021371D01*
X1571429Y3449942D02*
X1619048Y3497561D01*
X1619048Y3497561D02*
X1714286Y3545180D01*
X1714286Y3545180D02*
X1952381Y3545180D01*
X1952381Y3545180D02*
X2047619Y3497561D01*
X2047619Y3497561D02*
X2095238Y3449942D01*
X2095238Y3449942D02*
X2142857Y3354704D01*
X2142857Y3354704D02*
X2142857Y3259466D01*
X2142857Y3259466D02*
X2095238Y3116609D01*
X2095238Y3116609D02*
X1523810Y2545180D01*
X1523810Y2545180D02*
X2142857Y2545180D01*
D11*
%TO.C,D1*%
X22300000Y30800000D02*
X20450000Y30800000D01*
X22300000Y32000000D02*
X20450000Y32000000D01*
X20450000Y32000000D02*
X20450000Y30800000D01*
%TO.C,D2*%
X22300000Y13800000D02*
X20450000Y13800000D01*
X22300000Y15000000D02*
X20450000Y15000000D01*
X20450000Y15000000D02*
X20450000Y13800000D01*
%TO.C,D3*%
X22300000Y-3200000D02*
X20450000Y-3200000D01*
X22300000Y-2000000D02*
X20450000Y-2000000D01*
X20450000Y-2000000D02*
X20450000Y-3200000D01*
%TO.C,D4*%
X-4300000Y37200000D02*
X-2450000Y37200000D01*
X-4300000Y36000000D02*
X-2450000Y36000000D01*
X-2450000Y36000000D02*
X-2450000Y37200000D01*
%TO.C,D5*%
X-4300000Y20200000D02*
X-2450000Y20200000D01*
X-4300000Y19000000D02*
X-2450000Y19000000D01*
X-2450000Y19000000D02*
X-2450000Y20200000D01*
%TO.C,D6*%
X-4300000Y3200000D02*
X-2450000Y3200000D01*
X-4300000Y2000000D02*
X-2450000Y2000000D01*
X-2450000Y2000000D02*
X-2450000Y3200000D01*
%TD*%
M02*
