%TF.GenerationSoftware,KiCad,Pcbnew,7.0.6-0*%
%TF.CreationDate,2023-08-01T13:24:21+08:00*%
%TF.ProjectId,thumb,7468756d-622e-46b6-9963-61645f706362,v1.0.0*%
%TF.SameCoordinates,Original*%
%TF.FileFunction,Copper,L2,Bot*%
%TF.FilePolarity,Positive*%
%FSLAX46Y46*%
G04 Gerber Fmt 4.6, Leading zero omitted, Abs format (unit mm)*
G04 Created by KiCad (PCBNEW 7.0.6-0) date 2023-08-01 13:24:21*
%MOMM*%
%LPD*%
G01*
G04 APERTURE LIST*
G04 Aperture macros list*
%AMRoundRect*
0 Rectangle with rounded corners*
0 $1 Rounding radius*
0 $2 $3 $4 $5 $6 $7 $8 $9 X,Y pos of 4 corners*
0 Add a 4 corners polygon primitive as box body*
4,1,4,$2,$3,$4,$5,$6,$7,$8,$9,$2,$3,0*
0 Add four circle primitives for the rounded corners*
1,1,$1+$1,$2,$3*
1,1,$1+$1,$4,$5*
1,1,$1+$1,$6,$7*
1,1,$1+$1,$8,$9*
0 Add four rect primitives between the rounded corners*
20,1,$1+$1,$2,$3,$4,$5,0*
20,1,$1+$1,$4,$5,$6,$7,0*
20,1,$1+$1,$6,$7,$8,$9,0*
20,1,$1+$1,$8,$9,$2,$3,0*%
G04 Aperture macros list end*
%TA.AperFunction,SMDPad,CuDef*%
%ADD10RoundRect,0.150000X-0.625000X0.150000X-0.625000X-0.150000X0.625000X-0.150000X0.625000X0.150000X0*%
%TD*%
%TA.AperFunction,SMDPad,CuDef*%
%ADD11RoundRect,0.250000X-0.650000X0.350000X-0.650000X-0.350000X0.650000X-0.350000X0.650000X0.350000X0*%
%TD*%
%TA.AperFunction,SMDPad,CuDef*%
%ADD12R,2.600000X2.600000*%
%TD*%
%TA.AperFunction,ComponentPad*%
%ADD13C,0.600000*%
%TD*%
%TA.AperFunction,SMDPad,CuDef*%
%ADD14R,0.600000X0.700000*%
%TD*%
%TA.AperFunction,Conductor*%
%ADD15C,0.250000*%
%TD*%
G04 APERTURE END LIST*
D10*
%TO.P,JC1,5*%
%TO.N,R2*%
X11000000Y19500000D03*
%TO.P,JC1,4*%
%TO.N,R1*%
X11000000Y20500000D03*
%TO.P,JC1,3*%
%TO.N,R0*%
X11000000Y21500000D03*
%TO.P,JC1,2*%
%TO.N,C6*%
X11000000Y22500000D03*
%TO.P,JC1,1*%
%TO.N,C5*%
X11000000Y23500000D03*
D11*
%TO.P,JC1,MP*%
%TO.N,N/C*%
X14875000Y24800000D03*
X14875000Y18200000D03*
%TD*%
D12*
%TO.P,S1,1*%
%TO.N,C5_R0D*%
X21275000Y28050000D03*
%TO.P,S1,2*%
%TO.N,C5*%
X9725000Y30250000D03*
D13*
%TO.P,S1,3*%
%TO.N,C5_R0D*%
X21275000Y28050000D03*
%TO.P,S1,4*%
%TO.N,C5*%
X9725000Y30250000D03*
%TD*%
D14*
%TO.P,D1,1*%
%TO.N,R0*%
X20900000Y31400000D03*
%TO.P,D1,2*%
%TO.N,C5_R0D*%
X22300000Y31400000D03*
%TD*%
D12*
%TO.P,S2,1*%
%TO.N,C5_R1D*%
X21275000Y11050000D03*
%TO.P,S2,2*%
%TO.N,C5*%
X9725000Y13250000D03*
D13*
%TO.P,S2,3*%
%TO.N,C5_R1D*%
X21275000Y11050000D03*
%TO.P,S2,4*%
%TO.N,C5*%
X9725000Y13250000D03*
%TD*%
D14*
%TO.P,D2,1*%
%TO.N,R1*%
X20900000Y14400000D03*
%TO.P,D2,2*%
%TO.N,C5_R1D*%
X22300000Y14400000D03*
%TD*%
D12*
%TO.P,S3,1*%
%TO.N,C5_R2D*%
X21275000Y-5950000D03*
%TO.P,S3,2*%
%TO.N,C5*%
X9725000Y-3750000D03*
D13*
%TO.P,S3,3*%
%TO.N,C5_R2D*%
X21275000Y-5950000D03*
%TO.P,S3,4*%
%TO.N,C5*%
X9725000Y-3750000D03*
%TD*%
D14*
%TO.P,D3,1*%
%TO.N,R2*%
X20900000Y-2600000D03*
%TO.P,D3,2*%
%TO.N,C5_R2D*%
X22300000Y-2600000D03*
%TD*%
D12*
%TO.P,S4,1*%
%TO.N,C6_R0D*%
X-3275000Y39950000D03*
%TO.P,S4,2*%
%TO.N,C6*%
X8275000Y37750000D03*
D13*
%TO.P,S4,3*%
%TO.N,C6_R0D*%
X-3275000Y39950000D03*
%TO.P,S4,4*%
%TO.N,C6*%
X8275000Y37750000D03*
%TD*%
D14*
%TO.P,D4,1*%
%TO.N,R0*%
X-2900000Y36600000D03*
%TO.P,D4,2*%
%TO.N,C6_R0D*%
X-4300000Y36600000D03*
%TD*%
D12*
%TO.P,S5,1*%
%TO.N,C6_R1D*%
X-3275000Y22950000D03*
%TO.P,S5,2*%
%TO.N,C6*%
X8275000Y20750000D03*
D13*
%TO.P,S5,3*%
%TO.N,C6_R1D*%
X-3275000Y22950000D03*
%TO.P,S5,4*%
%TO.N,C6*%
X8275000Y20750000D03*
%TD*%
D14*
%TO.P,D5,1*%
%TO.N,R1*%
X-2900000Y19600000D03*
%TO.P,D5,2*%
%TO.N,C6_R1D*%
X-4300000Y19600000D03*
%TD*%
D12*
%TO.P,S6,1*%
%TO.N,C6_R2D*%
X-3275000Y5950000D03*
%TO.P,S6,2*%
%TO.N,C6*%
X8275000Y3750000D03*
D13*
%TO.P,S6,3*%
%TO.N,C6_R2D*%
X-3275000Y5950000D03*
%TO.P,S6,4*%
%TO.N,C6*%
X8275000Y3750000D03*
%TD*%
D14*
%TO.P,D6,1*%
%TO.N,R2*%
X-2900000Y2600000D03*
%TO.P,D6,2*%
%TO.N,C6_R2D*%
X-4300000Y2600000D03*
%TD*%
D15*
%TO.N,C5*%
X9725000Y24775000D02*
X11000000Y23500000D01*
X9725000Y30250000D02*
X9725000Y24775000D01*
%TO.N,C6*%
X13650000Y24350000D02*
X13200000Y23900000D01*
X8275000Y37750000D02*
X10483684Y37750000D01*
X10483684Y37750000D02*
X14875000Y33358684D01*
X11200000Y22700000D02*
X11000000Y22500000D01*
X14875000Y29473350D02*
X13650000Y28248350D01*
X13200000Y22700000D02*
X11200000Y22700000D01*
X13650000Y28248350D02*
X13650000Y24350000D01*
X13200000Y23900000D02*
X13200000Y22700000D01*
X14875000Y33358684D02*
X14875000Y29473350D01*
%TO.N,R0*%
X7907017Y22507017D02*
X9767983Y22507017D01*
X-2900000Y33314035D02*
X7907017Y22507017D01*
X17975000Y21500000D02*
X22925000Y26450000D01*
X9767983Y22507017D02*
X9900000Y22375000D01*
X11000000Y21500000D02*
X17975000Y21500000D01*
X21575000Y32075000D02*
X20900000Y31400000D01*
X9900000Y22375000D02*
X9900000Y22153249D01*
X9900000Y22153249D02*
X10553249Y21500000D01*
X10553249Y21500000D02*
X11000000Y21500000D01*
X22925000Y32075000D02*
X21575000Y32075000D01*
X22925000Y26450000D02*
X22925000Y32075000D01*
X-2900000Y36600000D02*
X-2900000Y33314035D01*
%TO.N,R1*%
X4223350Y18875000D02*
X9650000Y18875000D01*
X9650000Y18875000D02*
X9900000Y19125000D01*
X12358684Y18875000D02*
X9650000Y18875000D01*
X3498350Y19600000D02*
X4223350Y18875000D01*
X11000000Y20500000D02*
X10653249Y20153249D01*
X10653249Y20153249D02*
X9900000Y20153249D01*
X9900000Y19125000D02*
X9900000Y20153249D01*
X20900000Y14400000D02*
X16833684Y14400000D01*
X16833684Y14400000D02*
X12358684Y18875000D01*
X-2900000Y19600000D02*
X3498350Y19600000D01*
%TO.N,R2*%
X2645001Y-5600000D02*
X10006648Y-5600000D01*
X22925000Y8691316D02*
X13529149Y-704535D01*
X14875000Y-2973350D02*
X13529149Y-1627499D01*
X13529149Y-704535D02*
X13529149Y-1627499D01*
X14501650Y-2600000D02*
X13529149Y-1627499D01*
X16500000Y19500000D02*
X11000000Y19500000D01*
X17500000Y20500000D02*
X22925000Y15075000D01*
X13776650Y-5625000D02*
X14875000Y-4526650D01*
X14875000Y-4526650D02*
X14875000Y-2973350D01*
X22925000Y15075000D02*
X22925000Y8691316D01*
X17500000Y20500000D02*
X16500000Y19500000D01*
X-2900000Y2600000D02*
X-2900000Y-54999D01*
X20900000Y-2600000D02*
X14501650Y-2600000D01*
X-2900000Y-54999D02*
X2645001Y-5600000D01*
X10006648Y-5600000D02*
X10031648Y-5625000D01*
X10031648Y-5625000D02*
X13776650Y-5625000D01*
%TO.N,C5_R0D*%
X21275000Y30375000D02*
X22300000Y31400000D01*
X21275000Y28050000D02*
X21275000Y30375000D01*
%TO.N,C5_R1D*%
X21275000Y11050000D02*
X21275000Y13375000D01*
X21275000Y13375000D02*
X22300000Y14400000D01*
%TO.N,C5_R2D*%
X21275000Y-3625000D02*
X22300000Y-2600000D01*
X21275000Y-5950000D02*
X21275000Y-3625000D01*
%TO.N,C6_R0D*%
X-3275000Y37625000D02*
X-4300000Y36600000D01*
X-3275000Y39950000D02*
X-3275000Y37625000D01*
%TO.N,C6_R1D*%
X-3275000Y20625000D02*
X-4300000Y19600000D01*
X-3275000Y22950000D02*
X-3275000Y20625000D01*
%TO.N,C6_R2D*%
X-3275000Y3625000D02*
X-4300000Y2600000D01*
X-3275000Y5950000D02*
X-3275000Y3625000D01*
%TD*%
%TA.AperFunction,NonConductor*%
G36*
X25502427Y42424309D02*
G01*
X25713113Y42407727D01*
X25732331Y42404683D01*
X25930705Y42357058D01*
X25949211Y42351045D01*
X26137694Y42272972D01*
X26155031Y42264139D01*
X26328981Y42157543D01*
X26344722Y42146106D01*
X26499859Y42013606D01*
X26513606Y41999859D01*
X26641029Y41850665D01*
X26646106Y41844722D01*
X26657543Y41828981D01*
X26764139Y41655031D01*
X26772972Y41637694D01*
X26851045Y41449211D01*
X26857058Y41430705D01*
X26904683Y41232331D01*
X26907727Y41213113D01*
X26924308Y41002425D01*
X26924499Y40997559D01*
X26924500Y-6975468D01*
X26924500Y-6997559D01*
X26924309Y-7002426D01*
X26907727Y-7213113D01*
X26904683Y-7232331D01*
X26857058Y-7430705D01*
X26851045Y-7449211D01*
X26772972Y-7637694D01*
X26764139Y-7655031D01*
X26657543Y-7828981D01*
X26646105Y-7844722D01*
X26513606Y-7999859D01*
X26499859Y-8013606D01*
X26350665Y-8141029D01*
X26344722Y-8146106D01*
X26328981Y-8157543D01*
X26155031Y-8264139D01*
X26137694Y-8272972D01*
X25949211Y-8351045D01*
X25930705Y-8357058D01*
X25732331Y-8404683D01*
X25713113Y-8407727D01*
X25502427Y-8424309D01*
X25497560Y-8424500D01*
X-7497560Y-8424500D01*
X-7502427Y-8424309D01*
X-7713113Y-8407727D01*
X-7732331Y-8404683D01*
X-7930705Y-8357058D01*
X-7949211Y-8351045D01*
X-8137694Y-8272972D01*
X-8155031Y-8264138D01*
X-8328977Y-8157543D01*
X-8344719Y-8146106D01*
X-8499852Y-8013610D01*
X-8513610Y-7999852D01*
X-8646106Y-7844719D01*
X-8657543Y-7828977D01*
X-8764138Y-7655031D01*
X-8772972Y-7637694D01*
X-8851045Y-7449211D01*
X-8857058Y-7430705D01*
X-8904683Y-7232331D01*
X-8907727Y-7213113D01*
X-8924309Y-7002426D01*
X-8924500Y-6997559D01*
X-8924500Y52645D01*
X-6605157Y52645D01*
X-6595148Y-157459D01*
X-6545558Y-361871D01*
X-6458179Y-553205D01*
X-6458175Y-553210D01*
X-6369436Y-677828D01*
X-6336169Y-724544D01*
X-6183937Y-869697D01*
X-6006986Y-983416D01*
X-5811712Y-1061593D01*
X-5646479Y-1093438D01*
X-5605172Y-1101400D01*
X-5605171Y-1101400D01*
X-5447539Y-1101400D01*
X-5447532Y-1101400D01*
X-5290611Y-1086416D01*
X-5088789Y-1027156D01*
X-4901830Y-930771D01*
X-4736490Y-800747D01*
X-4598745Y-641781D01*
X-4598743Y-641777D01*
X-4598740Y-641774D01*
X-4493574Y-459620D01*
X-4424779Y-260851D01*
X-4424778Y-260844D01*
X-4424327Y-257710D01*
X-4394843Y-52645D01*
X-4404852Y157459D01*
X-4454442Y361871D01*
X-4509229Y481839D01*
X-4541820Y553204D01*
X-4541824Y553210D01*
X-4663826Y724539D01*
X-4663832Y724545D01*
X-4816060Y869694D01*
X-4816063Y869697D01*
X-4993014Y983416D01*
X-5188288Y1061593D01*
X-5343193Y1091448D01*
X-5394828Y1101400D01*
X-5394829Y1101400D01*
X-5552468Y1101400D01*
X-5709389Y1086416D01*
X-5911211Y1027156D01*
X-6098170Y930771D01*
X-6263510Y800747D01*
X-6401255Y641781D01*
X-6506426Y459619D01*
X-6575222Y260846D01*
X-6605157Y52645D01*
X-8924500Y52645D01*
X-8924500Y2201362D01*
X-5108500Y2201362D01*
X-5108499Y2201345D01*
X-5105157Y2170270D01*
X-5101989Y2140799D01*
X-5101988Y2140797D01*
X-5101988Y2140795D01*
X-5079522Y2080564D01*
X-5050889Y2003796D01*
X-4963261Y1886739D01*
X-4855022Y1805712D01*
X-4846204Y1799111D01*
X-4709203Y1748011D01*
X-4648654Y1741500D01*
X-4648638Y1741500D01*
X-3951345Y1741500D01*
X-3890797Y1748011D01*
X-3890795Y1748011D01*
X-3753793Y1799111D01*
X-3753793Y1799112D01*
X-3731808Y1815570D01*
X-3666344Y1839986D01*
X-3598071Y1825134D01*
X-3548666Y1775728D01*
X-3533499Y1716305D01*
X-3533499Y930771D01*
X-3533499Y28638D01*
X-3535239Y12887D01*
X-3534967Y12862D01*
X-3535700Y5099D01*
X-3535702Y5092D01*
X-3533500Y-64956D01*
X-3533500Y-94855D01*
X-3532614Y-101861D01*
X-3532156Y-107685D01*
X-3530673Y-154889D01*
X-3524981Y-174477D01*
X-3521032Y-193537D01*
X-3518474Y-213796D01*
X-3501082Y-257720D01*
X-3499199Y-263220D01*
X-3486018Y-308592D01*
X-3475625Y-326164D01*
X-3467068Y-343631D01*
X-3459552Y-362616D01*
X-3431791Y-400824D01*
X-3428585Y-405703D01*
X-3404542Y-446361D01*
X-3390100Y-460801D01*
X-3377470Y-475591D01*
X-3365472Y-492106D01*
X-3329067Y-522221D01*
X-3324776Y-526125D01*
X1457770Y-5308673D01*
X2137911Y-5988814D01*
X2147817Y-6001178D01*
X2148027Y-6001005D01*
X2153002Y-6007019D01*
X2204096Y-6055000D01*
X2225225Y-6076129D01*
X2225229Y-6076132D01*
X2225232Y-6076135D01*
X2230806Y-6080458D01*
X2235248Y-6084252D01*
X2269680Y-6116586D01*
X2269684Y-6116589D01*
X2287564Y-6126418D01*
X2303828Y-6137101D01*
X2319961Y-6149614D01*
X2363302Y-6168369D01*
X2368551Y-6170941D01*
X2388628Y-6181978D01*
X2409941Y-6193695D01*
X2429719Y-6198773D01*
X2448120Y-6205073D01*
X2466856Y-6213181D01*
X2511363Y-6220229D01*
X2513504Y-6220569D01*
X2519213Y-6221751D01*
X2564971Y-6233500D01*
X2585385Y-6233500D01*
X2604784Y-6235027D01*
X2624944Y-6238220D01*
X2671966Y-6233775D01*
X2677805Y-6233500D01*
X9819743Y-6233500D01*
X9845758Y-6237202D01*
X9845797Y-6236960D01*
X9853501Y-6238180D01*
X9853503Y-6238181D01*
X9879692Y-6242328D01*
X9900145Y-6245568D01*
X9905861Y-6246751D01*
X9951618Y-6258500D01*
X9972038Y-6258500D01*
X9991437Y-6260027D01*
X10011589Y-6263218D01*
X10011590Y-6263219D01*
X10011590Y-6263218D01*
X10011591Y-6263219D01*
X10058606Y-6258775D01*
X10064444Y-6258500D01*
X13693016Y-6258500D01*
X13708763Y-6260238D01*
X13708789Y-6259968D01*
X13716555Y-6260701D01*
X13716559Y-6260702D01*
X13786608Y-6258500D01*
X13816506Y-6258500D01*
X13816507Y-6258500D01*
X13817872Y-6258327D01*
X13823512Y-6257614D01*
X13829335Y-6257156D01*
X13855358Y-6256338D01*
X13876540Y-6255673D01*
X13886331Y-6252827D01*
X13896131Y-6249980D01*
X13915188Y-6246032D01*
X13935447Y-6243474D01*
X13979371Y-6226082D01*
X13984871Y-6224199D01*
X14030243Y-6211018D01*
X14047815Y-6200625D01*
X14065282Y-6192068D01*
X14084267Y-6184552D01*
X14122476Y-6156790D01*
X14127354Y-6153585D01*
X14168012Y-6129542D01*
X14182452Y-6115100D01*
X14197242Y-6102470D01*
X14213757Y-6090472D01*
X14243872Y-6054067D01*
X14247776Y-6049776D01*
X15263815Y-5033737D01*
X15276180Y-5023833D01*
X15276006Y-5023623D01*
X15282012Y-5018653D01*
X15282018Y-5018650D01*
X15329999Y-4967554D01*
X15351134Y-4946420D01*
X15355463Y-4940837D01*
X15359242Y-4936413D01*
X15391586Y-4901971D01*
X15401423Y-4884074D01*
X15412097Y-4867824D01*
X15424613Y-4851691D01*
X15443372Y-4808339D01*
X15445933Y-4803112D01*
X15468695Y-4761710D01*
X15473774Y-4741924D01*
X15480072Y-4723532D01*
X15488181Y-4704795D01*
X15495568Y-4658151D01*
X15496750Y-4652440D01*
X15508500Y-4606680D01*
X15508499Y-4586262D01*
X15510027Y-4566859D01*
X15513218Y-4546712D01*
X15513219Y-4546707D01*
X15508772Y-4499668D01*
X15508500Y-4493875D01*
X15508500Y-3357500D01*
X15528185Y-3290460D01*
X15580989Y-3244706D01*
X15632500Y-3233500D01*
X20114961Y-3233500D01*
X20182000Y-3253185D01*
X20214229Y-3283191D01*
X20236739Y-3313261D01*
X20353796Y-3400889D01*
X20423185Y-3426770D01*
X20490792Y-3451987D01*
X20490794Y-3451987D01*
X20490799Y-3451989D01*
X20528546Y-3456047D01*
X20593095Y-3482784D01*
X20632943Y-3540177D01*
X20637764Y-3598726D01*
X20636780Y-3604941D01*
X20636780Y-3604942D01*
X20641225Y-3651966D01*
X20641500Y-3657804D01*
X20641500Y-4017500D01*
X20621815Y-4084539D01*
X20569011Y-4130294D01*
X20517500Y-4141500D01*
X19926345Y-4141500D01*
X19865797Y-4148011D01*
X19865795Y-4148011D01*
X19728795Y-4199111D01*
X19611739Y-4286739D01*
X19524111Y-4403795D01*
X19473011Y-4540795D01*
X19473011Y-4540797D01*
X19466500Y-4601345D01*
X19466500Y-4640953D01*
X19446815Y-4707992D01*
X19394011Y-4753747D01*
X19324853Y-4763691D01*
X19261297Y-4734666D01*
X19251602Y-4725294D01*
X19193990Y-4663203D01*
X19193987Y-4663200D01*
X19123113Y-4606680D01*
X18988857Y-4499614D01*
X18761643Y-4368432D01*
X18517416Y-4272580D01*
X18517411Y-4272578D01*
X18517402Y-4272576D01*
X18299818Y-4222914D01*
X18261630Y-4214198D01*
X18261629Y-4214197D01*
X18261625Y-4214197D01*
X18261620Y-4214196D01*
X18065500Y-4199500D01*
X18065494Y-4199500D01*
X17934506Y-4199500D01*
X17934500Y-4199500D01*
X17738379Y-4214196D01*
X17738374Y-4214197D01*
X17482597Y-4272576D01*
X17482578Y-4272582D01*
X17238356Y-4368432D01*
X17011143Y-4499614D01*
X16806014Y-4663198D01*
X16627567Y-4855520D01*
X16479768Y-5072302D01*
X16479767Y-5072303D01*
X16365938Y-5308673D01*
X16288606Y-5559376D01*
X16288605Y-5559381D01*
X16288604Y-5559385D01*
X16273853Y-5657247D01*
X16249500Y-5818812D01*
X16249500Y-6081187D01*
X16263029Y-6170941D01*
X16288604Y-6340615D01*
X16288605Y-6340617D01*
X16288606Y-6340623D01*
X16365938Y-6591326D01*
X16479767Y-6827696D01*
X16479768Y-6827697D01*
X16479770Y-6827700D01*
X16479772Y-6827704D01*
X16597242Y-7000000D01*
X16627567Y-7044479D01*
X16806014Y-7236801D01*
X16806018Y-7236804D01*
X16806019Y-7236805D01*
X17011143Y-7400386D01*
X17238357Y-7531568D01*
X17482584Y-7627420D01*
X17738370Y-7685802D01*
X17738376Y-7685802D01*
X17738379Y-7685803D01*
X17934500Y-7700500D01*
X17934506Y-7700500D01*
X18065500Y-7700500D01*
X18261620Y-7685803D01*
X18261622Y-7685802D01*
X18261630Y-7685802D01*
X18517416Y-7627420D01*
X18761643Y-7531568D01*
X18988857Y-7400386D01*
X19193981Y-7236805D01*
X19198133Y-7232331D01*
X19251601Y-7174705D01*
X19311629Y-7138950D01*
X19381458Y-7141325D01*
X19438919Y-7181075D01*
X19465767Y-7245580D01*
X19466500Y-7259046D01*
X19466500Y-7298654D01*
X19473011Y-7359202D01*
X19473011Y-7359204D01*
X19506583Y-7449211D01*
X19524111Y-7496204D01*
X19611739Y-7613261D01*
X19728796Y-7700889D01*
X19865799Y-7751989D01*
X19893050Y-7754918D01*
X19926345Y-7758499D01*
X19926362Y-7758500D01*
X22623638Y-7758500D01*
X22623654Y-7758499D01*
X22650692Y-7755591D01*
X22684201Y-7751989D01*
X22821204Y-7700889D01*
X22938261Y-7613261D01*
X23025889Y-7496204D01*
X23076989Y-7359201D01*
X23080591Y-7325692D01*
X23083499Y-7298654D01*
X23083500Y-7298637D01*
X23083500Y-4601362D01*
X23083499Y-4601345D01*
X23079791Y-4566859D01*
X23076989Y-4540799D01*
X23025889Y-4403796D01*
X22938261Y-4286739D01*
X22821204Y-4199111D01*
X22684203Y-4148011D01*
X22623654Y-4141500D01*
X22623638Y-4141500D01*
X22032500Y-4141500D01*
X21965461Y-4121815D01*
X21919706Y-4069011D01*
X21908500Y-4017500D01*
X21908500Y-3938766D01*
X21928185Y-3871727D01*
X21944819Y-3851085D01*
X22301086Y-3494819D01*
X22362409Y-3461334D01*
X22388767Y-3458500D01*
X22648638Y-3458500D01*
X22648654Y-3458499D01*
X22675692Y-3455591D01*
X22709201Y-3451989D01*
X22709207Y-3451987D01*
X22723768Y-3446555D01*
X22846204Y-3400889D01*
X22963261Y-3313261D01*
X23050889Y-3196204D01*
X23101989Y-3059201D01*
X23105591Y-3025692D01*
X23108499Y-2998654D01*
X23108500Y-2998637D01*
X23108500Y-2201362D01*
X23108499Y-2201345D01*
X23104909Y-2167959D01*
X23101989Y-2140799D01*
X23081825Y-2086739D01*
X23076543Y-2072576D01*
X23050889Y-2003796D01*
X22963261Y-1886739D01*
X22846204Y-1799111D01*
X22709203Y-1748011D01*
X22648654Y-1741500D01*
X22648638Y-1741500D01*
X21951362Y-1741500D01*
X21951345Y-1741500D01*
X21890797Y-1748011D01*
X21890795Y-1748011D01*
X21753795Y-1799111D01*
X21674311Y-1858613D01*
X21608846Y-1883030D01*
X21540573Y-1868178D01*
X21525689Y-1858613D01*
X21515981Y-1851346D01*
X21446204Y-1799111D01*
X21309203Y-1748011D01*
X21248654Y-1741500D01*
X21248638Y-1741500D01*
X20551362Y-1741500D01*
X20551345Y-1741500D01*
X20490797Y-1748011D01*
X20490795Y-1748011D01*
X20353795Y-1799111D01*
X20304864Y-1835741D01*
X20244283Y-1881092D01*
X20236738Y-1886740D01*
X20236735Y-1886743D01*
X20214229Y-1916809D01*
X20158296Y-1958681D01*
X20114961Y-1966500D01*
X18984616Y-1966500D01*
X18917577Y-1946815D01*
X18871822Y-1894011D01*
X18861878Y-1824853D01*
X18890903Y-1761297D01*
X18925189Y-1733668D01*
X19028495Y-1677258D01*
X19065073Y-1657285D01*
X19290088Y-1488841D01*
X19488841Y-1290088D01*
X19657285Y-1065073D01*
X19791992Y-818375D01*
X19890219Y-555018D01*
X19949967Y-280363D01*
X19970019Y0D01*
X19966254Y52645D01*
X22394843Y52645D01*
X22404852Y-157459D01*
X22454442Y-361871D01*
X22506378Y-475596D01*
X22541820Y-553204D01*
X22541824Y-553210D01*
X22663826Y-724539D01*
X22663831Y-724544D01*
X22816063Y-869697D01*
X22993014Y-983416D01*
X23188288Y-1061593D01*
X23317084Y-1086416D01*
X23394828Y-1101400D01*
X23394829Y-1101400D01*
X23552461Y-1101400D01*
X23552468Y-1101400D01*
X23709389Y-1086416D01*
X23911211Y-1027156D01*
X24098170Y-930771D01*
X24263510Y-800747D01*
X24401255Y-641781D01*
X24506426Y-459619D01*
X24575222Y-260846D01*
X24605157Y-52645D01*
X24595148Y157459D01*
X24545558Y361871D01*
X24458179Y553205D01*
X24395101Y641785D01*
X24336173Y724539D01*
X24336171Y724540D01*
X24336169Y724544D01*
X24183937Y869697D01*
X24006986Y983416D01*
X23811712Y1061593D01*
X23646479Y1093438D01*
X23605172Y1101400D01*
X23605171Y1101400D01*
X23447532Y1101400D01*
X23290611Y1086416D01*
X23088789Y1027156D01*
X22901830Y930771D01*
X22736490Y800747D01*
X22598745Y641781D01*
X22598743Y641777D01*
X22598740Y641774D01*
X22493574Y459620D01*
X22424779Y260851D01*
X22424778Y260847D01*
X22424778Y260846D01*
X22394843Y52645D01*
X19966254Y52645D01*
X19949967Y280363D01*
X19890219Y555018D01*
X19791992Y818375D01*
X19657285Y1065073D01*
X19488841Y1290088D01*
X19290088Y1488841D01*
X19065073Y1657285D01*
X18818375Y1791992D01*
X18555018Y1890219D01*
X18280363Y1949967D01*
X18070175Y1965000D01*
X17929825Y1965000D01*
X17719637Y1949967D01*
X17444982Y1890219D01*
X17300968Y1836504D01*
X17231279Y1831521D01*
X17169956Y1865006D01*
X17136471Y1926329D01*
X17141455Y1996021D01*
X17169956Y2040368D01*
X18748401Y3618812D01*
X23313817Y8184228D01*
X23326178Y8194132D01*
X23326005Y8194342D01*
X23332019Y8199317D01*
X23379984Y8250394D01*
X23401130Y8271540D01*
X23405466Y8277129D01*
X23409252Y8281561D01*
X23441586Y8315995D01*
X23451417Y8333878D01*
X23462102Y8350145D01*
X23474615Y8366276D01*
X23484081Y8388154D01*
X23493371Y8409623D01*
X23495931Y8414849D01*
X23518695Y8456256D01*
X23523772Y8476032D01*
X23530075Y8494440D01*
X23538179Y8513166D01*
X23538180Y8513168D01*
X23538180Y8513169D01*
X23538181Y8513171D01*
X23545569Y8559819D01*
X23546751Y8565528D01*
X23558500Y8611286D01*
X23558500Y8631700D01*
X23560027Y8651099D01*
X23560119Y8651682D01*
X23563220Y8671259D01*
X23558775Y8718282D01*
X23558500Y8724120D01*
X23558500Y14991366D01*
X23560238Y15007114D01*
X23559968Y15007140D01*
X23560702Y15014906D01*
X23560070Y15035000D01*
X23558500Y15084971D01*
X23558500Y15114856D01*
X23557614Y15121858D01*
X23557157Y15127677D01*
X23555674Y15174887D01*
X23555674Y15174889D01*
X23549974Y15194505D01*
X23546033Y15213533D01*
X23543474Y15233797D01*
X23526086Y15277713D01*
X23524199Y15283227D01*
X23511020Y15328588D01*
X23511019Y15328593D01*
X23500619Y15346176D01*
X23492065Y15363639D01*
X23484552Y15382617D01*
X23456775Y15420847D01*
X23453596Y15425687D01*
X23429542Y15466362D01*
X23415099Y15480803D01*
X23402474Y15495586D01*
X23390472Y15512107D01*
X23354067Y15542222D01*
X23349776Y15546126D01*
X23188372Y15707530D01*
X23154889Y15768851D01*
X23159873Y15838543D01*
X23201745Y15894476D01*
X23267209Y15918893D01*
X23299521Y15916968D01*
X23394827Y15898600D01*
X23394829Y15898600D01*
X23552461Y15898600D01*
X23552468Y15898600D01*
X23709389Y15913584D01*
X23911211Y15972844D01*
X24098170Y16069229D01*
X24226254Y16169955D01*
X24263509Y16199252D01*
X24263510Y16199253D01*
X24291259Y16231277D01*
X24401255Y16358219D01*
X24401257Y16358222D01*
X24401259Y16358225D01*
X24506425Y16540379D01*
X24536148Y16626256D01*
X24575222Y16739154D01*
X24605157Y16947355D01*
X24595148Y17157459D01*
X24545558Y17361871D01*
X24458179Y17553205D01*
X24336169Y17724544D01*
X24183937Y17869697D01*
X24006986Y17983416D01*
X23811712Y18061593D01*
X23646479Y18093438D01*
X23605172Y18101400D01*
X23605171Y18101400D01*
X23447532Y18101400D01*
X23290611Y18086416D01*
X23088789Y18027156D01*
X22901830Y17930771D01*
X22736490Y17800747D01*
X22598745Y17641781D01*
X22598743Y17641777D01*
X22598740Y17641774D01*
X22493574Y17459620D01*
X22424779Y17260851D01*
X22424778Y17260847D01*
X22424778Y17260846D01*
X22394843Y17052645D01*
X22404852Y16842541D01*
X22404853Y16842538D01*
X22413305Y16807699D01*
X22409980Y16737908D01*
X22369452Y16680994D01*
X22304587Y16655026D01*
X22235980Y16668250D01*
X22205119Y16690784D01*
X20716402Y18179501D01*
X18185442Y20710461D01*
X18151959Y20771782D01*
X18156943Y20841474D01*
X18198815Y20897407D01*
X18223878Y20911941D01*
X18228590Y20913980D01*
X18246162Y20924372D01*
X18263635Y20932932D01*
X18282617Y20940447D01*
X18320827Y20968209D01*
X18325712Y20971418D01*
X18366359Y20995456D01*
X18366362Y20995458D01*
X18380793Y21009889D01*
X18395589Y21022527D01*
X18412107Y21034528D01*
X18412109Y21034530D01*
X18419900Y21043948D01*
X18442222Y21070931D01*
X18446135Y21075231D01*
X23313814Y25942910D01*
X23326178Y25952816D01*
X23326005Y25953026D01*
X23332019Y25958001D01*
X23380000Y26009095D01*
X23401128Y26030223D01*
X23401131Y26030227D01*
X23401134Y26030230D01*
X23405457Y26035804D01*
X23409251Y26040246D01*
X23441586Y26074679D01*
X23441589Y26074684D01*
X23451420Y26092566D01*
X23462103Y26108829D01*
X23474612Y26124956D01*
X23474614Y26124960D01*
X23493371Y26168307D01*
X23495931Y26173533D01*
X23518695Y26214940D01*
X23523772Y26234716D01*
X23530075Y26253124D01*
X23538179Y26271850D01*
X23538180Y26271852D01*
X23538180Y26271853D01*
X23538181Y26271855D01*
X23545569Y26318503D01*
X23546751Y26324212D01*
X23558500Y26369970D01*
X23558500Y26390384D01*
X23560027Y26409783D01*
X23560119Y26410366D01*
X23563220Y26429943D01*
X23558775Y26476966D01*
X23558500Y26482804D01*
X23558500Y32003393D01*
X23560696Y32026628D01*
X23562275Y32034906D01*
X23558621Y32092981D01*
X23558500Y32096852D01*
X23558500Y32114857D01*
X23558499Y32114857D01*
X23556239Y32132745D01*
X23555879Y32136556D01*
X23552225Y32194650D01*
X23549621Y32202662D01*
X23544528Y32225448D01*
X23543474Y32233797D01*
X23522058Y32287885D01*
X23520741Y32291545D01*
X23502764Y32346875D01*
X23498251Y32353985D01*
X23487651Y32374788D01*
X23484552Y32382617D01*
X23450353Y32429686D01*
X23448180Y32432885D01*
X23417000Y32482018D01*
X23410853Y32487789D01*
X23395421Y32505294D01*
X23390472Y32512107D01*
X23345625Y32549205D01*
X23342766Y32551726D01*
X23300321Y32591586D01*
X23292940Y32595642D01*
X23273638Y32608759D01*
X23267144Y32614133D01*
X23214484Y32638912D01*
X23211060Y32640656D01*
X23160060Y32668695D01*
X23151897Y32670790D01*
X23129931Y32678700D01*
X23122318Y32682283D01*
X23065148Y32693188D01*
X23061417Y32694021D01*
X23005030Y32708500D01*
X23005027Y32708500D01*
X22996605Y32708500D01*
X22973374Y32710696D01*
X22969617Y32711412D01*
X22965094Y32712275D01*
X22907019Y32708621D01*
X22903147Y32708500D01*
X21658634Y32708500D01*
X21642886Y32710238D01*
X21642861Y32709968D01*
X21635096Y32710700D01*
X21635091Y32710702D01*
X21565042Y32708500D01*
X21535144Y32708500D01*
X21528136Y32707614D01*
X21522315Y32707156D01*
X21475110Y32705673D01*
X21455508Y32699977D01*
X21436457Y32696032D01*
X21416203Y32693474D01*
X21415466Y32693182D01*
X21372286Y32676086D01*
X21366757Y32674193D01*
X21356233Y32671135D01*
X21321407Y32661018D01*
X21303829Y32650622D01*
X21286365Y32642067D01*
X21267383Y32634552D01*
X21229181Y32606796D01*
X21224296Y32603587D01*
X21210852Y32595636D01*
X21183638Y32579542D01*
X21183636Y32579540D01*
X21169204Y32565108D01*
X21154409Y32552471D01*
X21141951Y32543420D01*
X21137890Y32540470D01*
X21107781Y32504073D01*
X21103847Y32499751D01*
X20898915Y32294819D01*
X20837592Y32261334D01*
X20811234Y32258500D01*
X20551362Y32258500D01*
X20551345Y32258499D01*
X20520270Y32255157D01*
X20490799Y32251989D01*
X20490796Y32251988D01*
X20490795Y32251988D01*
X20442025Y32233797D01*
X20353796Y32200889D01*
X20236739Y32113261D01*
X20159622Y32010245D01*
X20149111Y31996204D01*
X20098011Y31859204D01*
X20098011Y31859202D01*
X20091500Y31798654D01*
X20091500Y31001345D01*
X20098011Y30940797D01*
X20098011Y30940795D01*
X20149111Y30803795D01*
X20236739Y30686739D01*
X20353795Y30599111D01*
X20490796Y30548011D01*
X20528546Y30543952D01*
X20593097Y30517213D01*
X20632944Y30459820D01*
X20637763Y30401270D01*
X20636780Y30395062D01*
X20636780Y30395058D01*
X20641225Y30348033D01*
X20641500Y30342195D01*
X20641500Y29982500D01*
X20621815Y29915461D01*
X20569011Y29869706D01*
X20517500Y29858500D01*
X19926362Y29858500D01*
X19926345Y29858499D01*
X19895270Y29855157D01*
X19865799Y29851989D01*
X19865796Y29851988D01*
X19865795Y29851988D01*
X19805564Y29829522D01*
X19728796Y29800889D01*
X19611739Y29713261D01*
X19524111Y29596204D01*
X19473011Y29459204D01*
X19473011Y29459202D01*
X19466500Y29398654D01*
X19466500Y29359046D01*
X19446815Y29292007D01*
X19394011Y29246252D01*
X19324853Y29236308D01*
X19261297Y29265333D01*
X19251601Y29274705D01*
X19249962Y29276471D01*
X19193981Y29336805D01*
X18988857Y29500386D01*
X18761643Y29631568D01*
X18517416Y29727420D01*
X18261630Y29785802D01*
X18261622Y29785802D01*
X18261620Y29785803D01*
X18065500Y29800500D01*
X18065494Y29800500D01*
X17934506Y29800500D01*
X17934500Y29800500D01*
X17738379Y29785803D01*
X17738376Y29785802D01*
X17738370Y29785802D01*
X17482584Y29727420D01*
X17238357Y29631568D01*
X17011143Y29500386D01*
X16819527Y29347577D01*
X16806014Y29336801D01*
X16676206Y29196900D01*
X16627567Y29144479D01*
X16479772Y28927704D01*
X16479770Y28927700D01*
X16479768Y28927697D01*
X16479767Y28927696D01*
X16365938Y28691326D01*
X16299725Y28476667D01*
X16288604Y28440615D01*
X16275079Y28350883D01*
X16249500Y28181187D01*
X16249500Y27918812D01*
X16273853Y27757247D01*
X16288604Y27659385D01*
X16288605Y27659382D01*
X16288606Y27659376D01*
X16365938Y27408673D01*
X16479767Y27172303D01*
X16479768Y27172302D01*
X16627567Y26955520D01*
X16806014Y26763198D01*
X17011143Y26599614D01*
X17238356Y26468432D01*
X17482578Y26372582D01*
X17482597Y26372576D01*
X17738374Y26314197D01*
X17738379Y26314196D01*
X17934500Y26299500D01*
X17934506Y26299500D01*
X18065500Y26299500D01*
X18261620Y26314196D01*
X18261625Y26314197D01*
X18261629Y26314197D01*
X18261630Y26314198D01*
X18305570Y26324227D01*
X18517402Y26372576D01*
X18517411Y26372578D01*
X18517416Y26372580D01*
X18761643Y26468432D01*
X18988857Y26599614D01*
X19193981Y26763195D01*
X19193984Y26763198D01*
X19193987Y26763200D01*
X19193990Y26763203D01*
X19251602Y26825294D01*
X19311630Y26861049D01*
X19381459Y26858674D01*
X19438919Y26818923D01*
X19465767Y26754418D01*
X19466500Y26740953D01*
X19466500Y26701345D01*
X19473011Y26640797D01*
X19473011Y26640795D01*
X19524111Y26503795D01*
X19611739Y26386739D01*
X19728795Y26299111D01*
X19865796Y26248011D01*
X19926345Y26241500D01*
X19926362Y26241500D01*
X21521234Y26241500D01*
X21588273Y26221815D01*
X21634028Y26169011D01*
X21643972Y26099853D01*
X21614947Y26036297D01*
X21608915Y26029819D01*
X19675976Y24096881D01*
X17748914Y22169819D01*
X17687591Y22136334D01*
X17661233Y22133500D01*
X13821051Y22133500D01*
X13754012Y22153185D01*
X13708257Y22205989D01*
X13698313Y22275147D01*
X13715121Y22316580D01*
X13712828Y22317841D01*
X13720644Y22332059D01*
X13733761Y22351362D01*
X13739133Y22357856D01*
X13763901Y22410490D01*
X13765669Y22413961D01*
X13773068Y22427420D01*
X13793695Y22464940D01*
X13795790Y22473102D01*
X13803697Y22495062D01*
X13806439Y22500889D01*
X13807283Y22502682D01*
X13818185Y22559837D01*
X13819030Y22563615D01*
X13833500Y22619970D01*
X13833500Y22628393D01*
X13835696Y22651628D01*
X13837275Y22659908D01*
X13836682Y22669313D01*
X13833620Y22717980D01*
X13833499Y22721855D01*
X13833499Y23176836D01*
X13833499Y23586235D01*
X13853184Y23653271D01*
X13869818Y23673913D01*
X13886882Y23690977D01*
X13948205Y23724462D01*
X14013565Y23721002D01*
X14070570Y23702113D01*
X14070568Y23702113D01*
X14174454Y23691500D01*
X14174455Y23691500D01*
X15575537Y23691500D01*
X15575553Y23691501D01*
X15679427Y23702113D01*
X15847735Y23757884D01*
X15847738Y23757885D01*
X15998652Y23850970D01*
X16124030Y23976348D01*
X16217115Y24127262D01*
X16272887Y24295574D01*
X16283500Y24399455D01*
X16283499Y25200544D01*
X16272887Y25304426D01*
X16217115Y25472738D01*
X16124030Y25623652D01*
X15998652Y25749030D01*
X15847738Y25842115D01*
X15679426Y25897887D01*
X15575545Y25908500D01*
X14407499Y25908499D01*
X14340461Y25928184D01*
X14294706Y25980987D01*
X14283500Y26032499D01*
X14283500Y27934584D01*
X14303185Y28001623D01*
X14319819Y28022265D01*
X15263814Y28966260D01*
X15276178Y28976166D01*
X15276005Y28976376D01*
X15282019Y28981351D01*
X15330000Y29032445D01*
X15351129Y29053574D01*
X15351132Y29053578D01*
X15351135Y29053581D01*
X15355458Y29059155D01*
X15359252Y29063597D01*
X15391586Y29098029D01*
X15391589Y29098033D01*
X15401418Y29115913D01*
X15412101Y29132177D01*
X15424616Y29148312D01*
X15443369Y29191651D01*
X15445941Y29196900D01*
X15468694Y29238289D01*
X15468695Y29238290D01*
X15473773Y29258068D01*
X15480074Y29276471D01*
X15487439Y29293491D01*
X15488181Y29295205D01*
X15495569Y29341853D01*
X15496751Y29347562D01*
X15508500Y29393320D01*
X15508500Y29413734D01*
X15510027Y29433133D01*
X15510119Y29433716D01*
X15513220Y29453293D01*
X15508775Y29500316D01*
X15508500Y29506154D01*
X15508500Y33275050D01*
X15510238Y33290798D01*
X15509968Y33290824D01*
X15510702Y33298590D01*
X15508500Y33368655D01*
X15508500Y33398540D01*
X15507614Y33405542D01*
X15507157Y33411361D01*
X15505674Y33458571D01*
X15505674Y33458573D01*
X15499974Y33478189D01*
X15496033Y33497217D01*
X15493474Y33517481D01*
X15476086Y33561397D01*
X15474199Y33566911D01*
X15470115Y33580967D01*
X15461019Y33612277D01*
X15450619Y33629860D01*
X15442065Y33647323D01*
X15434552Y33666301D01*
X15406775Y33704531D01*
X15403596Y33709371D01*
X15379542Y33750046D01*
X15365099Y33764487D01*
X15352474Y33779270D01*
X15340472Y33795791D01*
X15304067Y33825906D01*
X15299776Y33829810D01*
X15129588Y33999998D01*
X16029981Y33999998D01*
X16050033Y33719635D01*
X16050034Y33719628D01*
X16109779Y33444988D01*
X16208008Y33181623D01*
X16208010Y33181619D01*
X16342711Y32934932D01*
X16342716Y32934924D01*
X16511152Y32709919D01*
X16511168Y32709901D01*
X16709901Y32511168D01*
X16709919Y32511152D01*
X16934924Y32342716D01*
X16934932Y32342711D01*
X17181619Y32208010D01*
X17181623Y32208008D01*
X17373091Y32136595D01*
X17444982Y32109781D01*
X17444983Y32109780D01*
X17444988Y32109779D01*
X17719628Y32050034D01*
X17719635Y32050033D01*
X17929825Y32035000D01*
X18070175Y32035000D01*
X18280364Y32050033D01*
X18280371Y32050034D01*
X18555011Y32109779D01*
X18555014Y32109780D01*
X18555018Y32109781D01*
X18799286Y32200888D01*
X18818376Y32208008D01*
X18818380Y32208010D01*
X19065067Y32342711D01*
X19065075Y32342716D01*
X19290080Y32511152D01*
X19290098Y32511168D01*
X19488831Y32709901D01*
X19488847Y32709919D01*
X19657283Y32934924D01*
X19657288Y32934932D01*
X19791989Y33181619D01*
X19791991Y33181623D01*
X19793315Y33185173D01*
X19890219Y33444982D01*
X19949967Y33719637D01*
X19970019Y34000000D01*
X19966254Y34052645D01*
X22394843Y34052645D01*
X22404852Y33842541D01*
X22454442Y33638129D01*
X22471196Y33601443D01*
X22541820Y33446795D01*
X22541824Y33446789D01*
X22663826Y33275460D01*
X22663832Y33275454D01*
X22816060Y33130305D01*
X22816061Y33130304D01*
X22816063Y33130303D01*
X22854194Y33105798D01*
X22993015Y33016583D01*
X23188278Y32938410D01*
X23188291Y32938406D01*
X23394828Y32898600D01*
X23394829Y32898600D01*
X23552461Y32898600D01*
X23552468Y32898600D01*
X23709389Y32913584D01*
X23887368Y32965843D01*
X23911208Y32972843D01*
X23911211Y32972844D01*
X24098170Y33069229D01*
X24233289Y33175487D01*
X24263509Y33199252D01*
X24263510Y33199253D01*
X24276415Y33214146D01*
X24401255Y33358219D01*
X24401257Y33358222D01*
X24401259Y33358225D01*
X24506425Y33540379D01*
X24536148Y33626256D01*
X24575222Y33739154D01*
X24605157Y33947355D01*
X24595148Y34157459D01*
X24545558Y34361871D01*
X24458179Y34553205D01*
X24395101Y34641785D01*
X24336173Y34724539D01*
X24336171Y34724540D01*
X24336169Y34724544D01*
X24183937Y34869697D01*
X24006986Y34983416D01*
X23811712Y35061593D01*
X23646479Y35093438D01*
X23605172Y35101400D01*
X23605171Y35101400D01*
X23447532Y35101400D01*
X23290611Y35086416D01*
X23088789Y35027156D01*
X22901830Y34930771D01*
X22736490Y34800747D01*
X22598745Y34641781D01*
X22598743Y34641777D01*
X22598740Y34641774D01*
X22493574Y34459620D01*
X22424779Y34260851D01*
X22424778Y34260847D01*
X22424778Y34260846D01*
X22394843Y34052645D01*
X19966254Y34052645D01*
X19949967Y34280363D01*
X19890219Y34555018D01*
X19791992Y34818375D01*
X19657285Y35065073D01*
X19488841Y35290088D01*
X19290088Y35488841D01*
X19065073Y35657285D01*
X18818375Y35791992D01*
X18555018Y35890219D01*
X18280363Y35949967D01*
X18070175Y35965000D01*
X17929825Y35965000D01*
X17719637Y35949967D01*
X17444982Y35890219D01*
X17181625Y35791992D01*
X17181623Y35791991D01*
X17181619Y35791989D01*
X16934932Y35657288D01*
X16934924Y35657283D01*
X16709919Y35488847D01*
X16709901Y35488831D01*
X16511168Y35290098D01*
X16511152Y35290080D01*
X16342716Y35065075D01*
X16342711Y35065067D01*
X16208010Y34818380D01*
X16208008Y34818376D01*
X16173011Y34724545D01*
X16109781Y34555018D01*
X16109780Y34555014D01*
X16109779Y34555011D01*
X16050034Y34280371D01*
X16050033Y34280364D01*
X16029981Y34000001D01*
X16029981Y33999998D01*
X15129588Y33999998D01*
X10990770Y38138817D01*
X10980869Y38151178D01*
X10980659Y38151004D01*
X10975686Y38157013D01*
X10975684Y38157018D01*
X10924605Y38204983D01*
X10903454Y38226135D01*
X10897876Y38230461D01*
X10893439Y38234250D01*
X10859005Y38266586D01*
X10841116Y38276419D01*
X10824853Y38287102D01*
X10808725Y38299614D01*
X10765375Y38318371D01*
X10760131Y38320941D01*
X10718748Y38343693D01*
X10718747Y38343693D01*
X10718744Y38343695D01*
X10698957Y38348774D01*
X10680569Y38355070D01*
X10661829Y38363181D01*
X10622696Y38369378D01*
X10615181Y38370569D01*
X10609470Y38371751D01*
X10563714Y38383500D01*
X10563712Y38383500D01*
X10543300Y38383500D01*
X10523901Y38385027D01*
X10523424Y38385102D01*
X10503741Y38388220D01*
X10457477Y38383846D01*
X10456718Y38383775D01*
X10450880Y38383500D01*
X10207500Y38383500D01*
X10140461Y38403185D01*
X10094706Y38455989D01*
X10083500Y38507500D01*
X10083500Y39098637D01*
X10083499Y39098654D01*
X10080591Y39125692D01*
X10076989Y39159201D01*
X10025889Y39296204D01*
X9938261Y39413261D01*
X9821204Y39500889D01*
X9684201Y39551989D01*
X9652623Y39555383D01*
X9623654Y39558499D01*
X9623638Y39558500D01*
X6926362Y39558500D01*
X6926345Y39558499D01*
X6895270Y39555157D01*
X6865799Y39551989D01*
X6865796Y39551988D01*
X6865795Y39551988D01*
X6805564Y39529522D01*
X6728796Y39500889D01*
X6611739Y39413261D01*
X6533448Y39308677D01*
X6524111Y39296204D01*
X6473011Y39159204D01*
X6473011Y39159202D01*
X6466500Y39098654D01*
X6466499Y39098636D01*
X6466499Y39059043D01*
X6446813Y38992004D01*
X6394008Y38946250D01*
X6324849Y38936309D01*
X6261294Y38965335D01*
X6251611Y38974693D01*
X6193981Y39036805D01*
X5988857Y39200386D01*
X5761643Y39331568D01*
X5517416Y39427420D01*
X5261630Y39485802D01*
X5261622Y39485802D01*
X5261620Y39485803D01*
X5065500Y39500500D01*
X5065494Y39500500D01*
X4934506Y39500500D01*
X4934500Y39500500D01*
X4738379Y39485803D01*
X4738376Y39485802D01*
X4738370Y39485802D01*
X4482584Y39427420D01*
X4238357Y39331568D01*
X4011143Y39200386D01*
X3833905Y39059043D01*
X3806014Y39036801D01*
X3627566Y38844479D01*
X3627567Y38844479D01*
X3479772Y38627704D01*
X3479770Y38627700D01*
X3479768Y38627697D01*
X3479767Y38627696D01*
X3365938Y38391326D01*
X3291036Y38148498D01*
X3288604Y38140615D01*
X3270047Y38017500D01*
X3249500Y37881187D01*
X3249500Y37618812D01*
X3268190Y37494819D01*
X3288604Y37359385D01*
X3288605Y37359382D01*
X3288606Y37359376D01*
X3365938Y37108673D01*
X3479767Y36872303D01*
X3479768Y36872302D01*
X3627567Y36655520D01*
X3806014Y36463198D01*
X4011143Y36299614D01*
X4238356Y36168432D01*
X4482578Y36072582D01*
X4482597Y36072576D01*
X4738374Y36014197D01*
X4738379Y36014196D01*
X4934500Y35999500D01*
X4934506Y35999500D01*
X5065500Y35999500D01*
X5261620Y36014196D01*
X5261625Y36014197D01*
X5261629Y36014197D01*
X5261630Y36014198D01*
X5299818Y36022914D01*
X5517402Y36072576D01*
X5517411Y36072578D01*
X5517416Y36072580D01*
X5761643Y36168432D01*
X5988857Y36299614D01*
X6193981Y36463195D01*
X6193985Y36463198D01*
X6251600Y36525294D01*
X6311628Y36561049D01*
X6381457Y36558674D01*
X6438917Y36518924D01*
X6465766Y36454419D01*
X6466499Y36440956D01*
X6466499Y36401363D01*
X6466500Y36401345D01*
X6473011Y36340797D01*
X6473011Y36340795D01*
X6524111Y36203795D01*
X6611739Y36086739D01*
X6728795Y35999111D01*
X6865796Y35948011D01*
X6926345Y35941500D01*
X6926362Y35941500D01*
X9623654Y35941500D01*
X9684202Y35948011D01*
X9684204Y35948011D01*
X9821204Y35999111D01*
X9919341Y36072576D01*
X9938261Y36086739D01*
X10025889Y36203796D01*
X10076989Y36340799D01*
X10080157Y36370270D01*
X10083499Y36401345D01*
X10083500Y36401362D01*
X10083500Y36954917D01*
X10103185Y37021956D01*
X10155989Y37067711D01*
X10225147Y37077655D01*
X10288703Y37048630D01*
X10295181Y37042598D01*
X12115081Y35222697D01*
X12148566Y35161374D01*
X12143582Y35091682D01*
X12101710Y35035749D01*
X12084224Y35024802D01*
X11901830Y34930771D01*
X11736490Y34800747D01*
X11598745Y34641781D01*
X11598743Y34641777D01*
X11598740Y34641774D01*
X11493574Y34459620D01*
X11424779Y34260851D01*
X11424778Y34260847D01*
X11424778Y34260846D01*
X11394843Y34052645D01*
X11404852Y33842541D01*
X11454442Y33638129D01*
X11471196Y33601443D01*
X11541820Y33446795D01*
X11541824Y33446789D01*
X11663826Y33275460D01*
X11663832Y33275454D01*
X11816060Y33130305D01*
X11816061Y33130304D01*
X11816063Y33130303D01*
X11854194Y33105798D01*
X11993015Y33016583D01*
X12188278Y32938410D01*
X12188291Y32938406D01*
X12394828Y32898600D01*
X12394829Y32898600D01*
X12552461Y32898600D01*
X12552468Y32898600D01*
X12709389Y32913584D01*
X12887368Y32965843D01*
X12911208Y32972843D01*
X12911211Y32972844D01*
X13098170Y33069229D01*
X13233289Y33175487D01*
X13263509Y33199252D01*
X13263510Y33199253D01*
X13276415Y33214146D01*
X13401255Y33358219D01*
X13401257Y33358222D01*
X13401259Y33358225D01*
X13506424Y33540377D01*
X13506425Y33540379D01*
X13506426Y33540381D01*
X13516450Y33569344D01*
X13556975Y33626256D01*
X13621840Y33652225D01*
X13690447Y33639004D01*
X13721310Y33616468D01*
X14205181Y33132598D01*
X14238666Y33071275D01*
X14241500Y33044917D01*
X14241500Y31756398D01*
X14221815Y31689359D01*
X14169011Y31643604D01*
X14099853Y31633660D01*
X14040188Y31659450D01*
X13988857Y31700386D01*
X13761643Y31831568D01*
X13517416Y31927420D01*
X13261630Y31985802D01*
X13261622Y31985802D01*
X13261620Y31985803D01*
X13065500Y32000500D01*
X13065494Y32000500D01*
X12934506Y32000500D01*
X12934500Y32000500D01*
X12738379Y31985803D01*
X12738376Y31985802D01*
X12738370Y31985802D01*
X12482584Y31927420D01*
X12238357Y31831568D01*
X12011143Y31700386D01*
X11806019Y31536805D01*
X11806014Y31536801D01*
X11748399Y31474705D01*
X11688371Y31438950D01*
X11618542Y31441325D01*
X11561081Y31481075D01*
X11534233Y31545580D01*
X11533500Y31559046D01*
X11533500Y31598637D01*
X11533499Y31598654D01*
X11529735Y31633660D01*
X11526989Y31659201D01*
X11475889Y31796204D01*
X11388261Y31913261D01*
X11271204Y32000889D01*
X11134201Y32051989D01*
X11102623Y32055383D01*
X11073654Y32058499D01*
X11073638Y32058500D01*
X8376362Y32058500D01*
X8376345Y32058499D01*
X8345270Y32055157D01*
X8315799Y32051989D01*
X8315796Y32051988D01*
X8315795Y32051988D01*
X8269998Y32034906D01*
X8178796Y32000889D01*
X8061739Y31913261D01*
X7975945Y31798654D01*
X7974111Y31796204D01*
X7923011Y31659204D01*
X7923011Y31659202D01*
X7916500Y31598654D01*
X7916500Y28901345D01*
X7923011Y28840797D01*
X7923011Y28840795D01*
X7974111Y28703795D01*
X8061739Y28586739D01*
X8178795Y28499111D01*
X8315796Y28448011D01*
X8376345Y28441500D01*
X8376362Y28441500D01*
X8967500Y28441500D01*
X9034539Y28421815D01*
X9080294Y28369011D01*
X9091500Y28317500D01*
X9091500Y24858631D01*
X9089761Y24842881D01*
X9090032Y24842856D01*
X9089298Y24835094D01*
X9091500Y24765043D01*
X9091500Y24735137D01*
X9092384Y24728143D01*
X9092842Y24722320D01*
X9094326Y24675112D01*
X9094327Y24675109D01*
X9100022Y24655506D01*
X9103966Y24636458D01*
X9105108Y24627423D01*
X9106526Y24616204D01*
X9123913Y24572285D01*
X9125805Y24566759D01*
X9138981Y24521407D01*
X9149374Y24503833D01*
X9157928Y24486372D01*
X9165446Y24467386D01*
X9165447Y24467384D01*
X9193208Y24429172D01*
X9196415Y24424290D01*
X9220457Y24383637D01*
X9234894Y24369201D01*
X9247523Y24354415D01*
X9259528Y24337893D01*
X9259529Y24337891D01*
X9259530Y24337891D01*
X9259532Y24337888D01*
X9295925Y24307780D01*
X9300246Y24303849D01*
X9697034Y23907060D01*
X9730519Y23845737D01*
X9728431Y23784789D01*
X9719439Y23753834D01*
X9719437Y23753824D01*
X9716500Y23716505D01*
X9716500Y23283494D01*
X9717228Y23274244D01*
X9702863Y23205867D01*
X9653811Y23156111D01*
X9593610Y23140517D01*
X8220783Y23140517D01*
X8153744Y23160202D01*
X8133102Y23176836D01*
X-569290Y31879230D01*
X-602775Y31940553D01*
X-597791Y32010245D01*
X-555919Y32066178D01*
X-490455Y32090595D01*
X-455251Y32088077D01*
X-280371Y32050034D01*
X-280364Y32050033D01*
X-70175Y32035000D01*
X70175Y32035000D01*
X280364Y32050033D01*
X280371Y32050034D01*
X555011Y32109779D01*
X555014Y32109780D01*
X555018Y32109781D01*
X799286Y32200888D01*
X818376Y32208008D01*
X818380Y32208010D01*
X1065067Y32342711D01*
X1065075Y32342716D01*
X1290080Y32511152D01*
X1290098Y32511168D01*
X1488831Y32709901D01*
X1488847Y32709919D01*
X1657283Y32934924D01*
X1657288Y32934932D01*
X1791989Y33181619D01*
X1791991Y33181623D01*
X1793315Y33185173D01*
X1890219Y33444982D01*
X1949967Y33719637D01*
X1970019Y34000000D01*
X1966254Y34052645D01*
X4394843Y34052645D01*
X4404852Y33842541D01*
X4454442Y33638129D01*
X4471196Y33601443D01*
X4541820Y33446795D01*
X4541824Y33446789D01*
X4663826Y33275460D01*
X4663832Y33275454D01*
X4816060Y33130305D01*
X4816061Y33130304D01*
X4816063Y33130303D01*
X4854194Y33105798D01*
X4993015Y33016583D01*
X5188278Y32938410D01*
X5188291Y32938406D01*
X5394828Y32898600D01*
X5394829Y32898600D01*
X5552461Y32898600D01*
X5552468Y32898600D01*
X5709389Y32913584D01*
X5887368Y32965843D01*
X5911208Y32972843D01*
X5911211Y32972844D01*
X6098170Y33069229D01*
X6233289Y33175487D01*
X6263509Y33199252D01*
X6263510Y33199253D01*
X6276415Y33214146D01*
X6401255Y33358219D01*
X6401257Y33358222D01*
X6401259Y33358225D01*
X6506425Y33540379D01*
X6536148Y33626256D01*
X6575222Y33739154D01*
X6605157Y33947355D01*
X6602649Y33999999D01*
X7644341Y33999999D01*
X7664936Y33764596D01*
X7664938Y33764586D01*
X7726094Y33536344D01*
X7726098Y33536335D01*
X7825964Y33322171D01*
X7825965Y33322169D01*
X7961505Y33128597D01*
X8128597Y32961505D01*
X8322169Y32825965D01*
X8322171Y32825964D01*
X8536335Y32726098D01*
X8536344Y32726094D01*
X8764586Y32664938D01*
X8764596Y32664936D01*
X8941034Y32649500D01*
X9058966Y32649500D01*
X9235403Y32664936D01*
X9235413Y32664938D01*
X9463655Y32726094D01*
X9463659Y32726096D01*
X9463663Y32726097D01*
X9570746Y32776030D01*
X9677828Y32825964D01*
X9677830Y32825965D01*
X9871402Y32961505D01*
X10038493Y33128597D01*
X10038495Y33128599D01*
X10131447Y33261348D01*
X10174032Y33322165D01*
X10174034Y33322169D01*
X10174035Y33322170D01*
X10273903Y33536337D01*
X10335063Y33764592D01*
X10355659Y34000000D01*
X10335063Y34235408D01*
X10273903Y34463663D01*
X10174035Y34677829D01*
X10038495Y34871401D01*
X9871401Y35038495D01*
X9677829Y35174035D01*
X9463663Y35273903D01*
X9235408Y35335063D01*
X9058966Y35350500D01*
X8941034Y35350500D01*
X8764592Y35335063D01*
X8536337Y35273903D01*
X8322170Y35174035D01*
X8322171Y35174035D01*
X8322169Y35174034D01*
X8128597Y35038494D01*
X8020875Y34930771D01*
X7961505Y34871401D01*
X7960310Y34869694D01*
X7825967Y34677834D01*
X7825965Y34677830D01*
X7726097Y34463663D01*
X7726096Y34463659D01*
X7726094Y34463655D01*
X7664938Y34235413D01*
X7664936Y34235403D01*
X7644341Y34000000D01*
X7644341Y33999999D01*
X6602649Y33999999D01*
X6595148Y34157459D01*
X6545558Y34361871D01*
X6458179Y34553205D01*
X6395101Y34641785D01*
X6336173Y34724539D01*
X6336171Y34724540D01*
X6336169Y34724544D01*
X6183937Y34869697D01*
X6006986Y34983416D01*
X5811712Y35061593D01*
X5646479Y35093438D01*
X5605172Y35101400D01*
X5605171Y35101400D01*
X5447532Y35101400D01*
X5290611Y35086416D01*
X5088789Y35027156D01*
X4901830Y34930771D01*
X4736490Y34800747D01*
X4598745Y34641781D01*
X4598743Y34641777D01*
X4598740Y34641774D01*
X4493574Y34459620D01*
X4424779Y34260851D01*
X4424778Y34260847D01*
X4424778Y34260846D01*
X4394843Y34052645D01*
X1966254Y34052645D01*
X1949967Y34280363D01*
X1890219Y34555018D01*
X1791992Y34818375D01*
X1657285Y35065073D01*
X1488841Y35290088D01*
X1290088Y35488841D01*
X1065073Y35657285D01*
X818375Y35791992D01*
X555018Y35890219D01*
X280363Y35949967D01*
X70175Y35965000D01*
X-70175Y35965000D01*
X-280363Y35949967D01*
X-555018Y35890219D01*
X-818375Y35791992D01*
X-1065073Y35657285D01*
X-1290088Y35488841D01*
X-1488841Y35290088D01*
X-1657285Y35065073D01*
X-1791992Y34818375D01*
X-1890219Y34555018D01*
X-1949967Y34280363D01*
X-1970019Y34000000D01*
X-1949967Y33719637D01*
X-1949966Y33719632D01*
X-1949966Y33719631D01*
X-1911922Y33544748D01*
X-1916906Y33475056D01*
X-1958777Y33419122D01*
X-2024241Y33394705D01*
X-2092514Y33409557D01*
X-2120769Y33430708D01*
X-2230181Y33540120D01*
X-2263666Y33601443D01*
X-2266500Y33627801D01*
X-2266500Y35805712D01*
X-2246815Y35872751D01*
X-2241767Y35880023D01*
X-2234133Y35890220D01*
X-2178153Y35965000D01*
X-2149111Y36003795D01*
X-2098011Y36140795D01*
X-2098011Y36140797D01*
X-2091500Y36201345D01*
X-2091500Y36998654D01*
X-2098011Y37059202D01*
X-2098011Y37059204D01*
X-2149111Y37196204D01*
X-2236739Y37313261D01*
X-2353796Y37400889D01*
X-2423185Y37426770D01*
X-2490792Y37451987D01*
X-2490794Y37451987D01*
X-2490799Y37451989D01*
X-2528546Y37456047D01*
X-2593095Y37482784D01*
X-2632943Y37540177D01*
X-2637764Y37598726D01*
X-2636780Y37604941D01*
X-2636780Y37604942D01*
X-2641225Y37651966D01*
X-2641500Y37657804D01*
X-2641500Y38017500D01*
X-2621815Y38084539D01*
X-2569011Y38130294D01*
X-2517500Y38141500D01*
X-1926345Y38141500D01*
X-1865797Y38148011D01*
X-1865795Y38148011D01*
X-1728795Y38199111D01*
X-1611739Y38286739D01*
X-1524111Y38403795D01*
X-1473011Y38540795D01*
X-1473011Y38540797D01*
X-1466500Y38601345D01*
X-1466500Y38640953D01*
X-1446815Y38707992D01*
X-1394011Y38753747D01*
X-1324853Y38763691D01*
X-1261297Y38734666D01*
X-1251602Y38725294D01*
X-1193990Y38663203D01*
X-1193987Y38663200D01*
X-1193984Y38663198D01*
X-1193981Y38663195D01*
X-988857Y38499614D01*
X-761643Y38368432D01*
X-517416Y38272580D01*
X-517411Y38272578D01*
X-517402Y38272576D01*
X-313929Y38226135D01*
X-261630Y38214198D01*
X-261629Y38214197D01*
X-261625Y38214197D01*
X-261620Y38214196D01*
X-65500Y38199500D01*
X-65494Y38199500D01*
X65500Y38199500D01*
X261620Y38214196D01*
X261625Y38214197D01*
X261629Y38214197D01*
X261630Y38214198D01*
X313929Y38226135D01*
X517402Y38272576D01*
X517411Y38272578D01*
X517416Y38272580D01*
X761643Y38368432D01*
X988857Y38499614D01*
X1193981Y38663195D01*
X1193985Y38663198D01*
X1372432Y38855520D01*
X1427513Y38936309D01*
X1520228Y39072296D01*
X1520231Y39072302D01*
X1520232Y39072303D01*
X1634061Y39308673D01*
X1634063Y39308677D01*
X1711396Y39559385D01*
X1750500Y39818818D01*
X1750500Y40081182D01*
X1711396Y40340615D01*
X1634063Y40591323D01*
X1520228Y40827704D01*
X1372433Y41044479D01*
X1206938Y41222841D01*
X1193985Y41236801D01*
X1193983Y41236801D01*
X1193981Y41236805D01*
X988857Y41400386D01*
X761643Y41531568D01*
X517416Y41627420D01*
X261630Y41685802D01*
X261622Y41685802D01*
X261620Y41685803D01*
X65500Y41700500D01*
X65494Y41700500D01*
X-65494Y41700500D01*
X-65500Y41700500D01*
X-261620Y41685803D01*
X-261622Y41685802D01*
X-261630Y41685802D01*
X-517416Y41627420D01*
X-761643Y41531568D01*
X-988857Y41400386D01*
X-1193981Y41236805D01*
X-1193983Y41236801D01*
X-1193985Y41236801D01*
X-1251601Y41174705D01*
X-1311629Y41138950D01*
X-1381458Y41141325D01*
X-1438919Y41181075D01*
X-1465767Y41245580D01*
X-1466500Y41259046D01*
X-1466500Y41298654D01*
X-1473011Y41359202D01*
X-1473011Y41359204D01*
X-1524111Y41496204D01*
X-1611739Y41613261D01*
X-1728796Y41700889D01*
X-1865799Y41751989D01*
X-1893050Y41754918D01*
X-1926345Y41758499D01*
X-1926362Y41758500D01*
X-4623638Y41758500D01*
X-4623654Y41758499D01*
X-4650692Y41755591D01*
X-4684201Y41751989D01*
X-4821204Y41700889D01*
X-4938261Y41613261D01*
X-5025889Y41496204D01*
X-5076989Y41359201D01*
X-5079510Y41335752D01*
X-5083499Y41298654D01*
X-5083500Y41298637D01*
X-5083500Y38601362D01*
X-5083499Y38601345D01*
X-5080157Y38570270D01*
X-5076989Y38540799D01*
X-5025889Y38403796D01*
X-4938261Y38286739D01*
X-4841358Y38214198D01*
X-4821204Y38199111D01*
X-4684203Y38148011D01*
X-4623654Y38141500D01*
X-4623638Y38141500D01*
X-4032500Y38141500D01*
X-3965461Y38121815D01*
X-3919706Y38069011D01*
X-3908500Y38017500D01*
X-3908500Y37938766D01*
X-3928185Y37871727D01*
X-3944819Y37851085D01*
X-4301086Y37494819D01*
X-4362409Y37461334D01*
X-4388767Y37458500D01*
X-4648638Y37458500D01*
X-4648654Y37458499D01*
X-4675692Y37455591D01*
X-4709201Y37451989D01*
X-4709204Y37451988D01*
X-4723768Y37446555D01*
X-4846204Y37400889D01*
X-4963261Y37313261D01*
X-5050889Y37196204D01*
X-5101989Y37059201D01*
X-5103125Y37048630D01*
X-5108499Y36998654D01*
X-5108500Y36998637D01*
X-5108500Y36201362D01*
X-5108499Y36201345D01*
X-5105157Y36170270D01*
X-5101989Y36140799D01*
X-5101988Y36140797D01*
X-5101988Y36140795D01*
X-5079522Y36080564D01*
X-5050889Y36003796D01*
X-4963261Y35886739D01*
X-4868192Y35815571D01*
X-4846204Y35799111D01*
X-4709203Y35748011D01*
X-4648654Y35741500D01*
X-4648638Y35741500D01*
X-3951345Y35741500D01*
X-3890797Y35748011D01*
X-3890795Y35748011D01*
X-3753794Y35799111D01*
X-3731806Y35815571D01*
X-3666341Y35839985D01*
X-3598069Y35825131D01*
X-3548665Y35775724D01*
X-3533500Y35716304D01*
X-3533500Y34555018D01*
X-3533500Y33397666D01*
X-3535238Y33381917D01*
X-3534968Y33381892D01*
X-3535700Y33374130D01*
X-3535702Y33374126D01*
X-3533499Y33304077D01*
X-3533500Y33274179D01*
X-3532615Y33267180D01*
X-3532156Y33261348D01*
X-3530673Y33214146D01*
X-3526346Y33199252D01*
X-3524979Y33194550D01*
X-3521032Y33175494D01*
X-3518474Y33155238D01*
X-3501084Y33111318D01*
X-3499195Y33105798D01*
X-3486018Y33060442D01*
X-3475622Y33042864D01*
X-3467067Y33025400D01*
X-3459552Y33006418D01*
X-3435158Y32972843D01*
X-3431796Y32968216D01*
X-3428587Y32963331D01*
X-3427507Y32961505D01*
X-3404542Y32922673D01*
X-3404540Y32922671D01*
X-3390108Y32908239D01*
X-3377471Y32893444D01*
X-3368420Y32880986D01*
X-3365470Y32876925D01*
X-3329073Y32846816D01*
X-3324751Y32842882D01*
X6802447Y22715681D01*
X6835932Y22654358D01*
X6830948Y22584666D01*
X6789076Y22528733D01*
X6758105Y22511820D01*
X6728796Y22500889D01*
X6728793Y22500887D01*
X6708642Y22485802D01*
X6611739Y22413261D01*
X6545427Y22324679D01*
X6524111Y22296204D01*
X6473011Y22159204D01*
X6473011Y22159202D01*
X6466500Y22098654D01*
X6466499Y22098636D01*
X6466499Y22059043D01*
X6446813Y21992004D01*
X6394008Y21946250D01*
X6324849Y21936309D01*
X6261294Y21965335D01*
X6251611Y21974693D01*
X6193981Y22036805D01*
X5988857Y22200386D01*
X5761643Y22331568D01*
X5517416Y22427420D01*
X5261630Y22485802D01*
X5261622Y22485802D01*
X5261620Y22485803D01*
X5065500Y22500500D01*
X5065494Y22500500D01*
X4934506Y22500500D01*
X4934500Y22500500D01*
X4738379Y22485803D01*
X4738376Y22485802D01*
X4738370Y22485802D01*
X4482584Y22427420D01*
X4238357Y22331568D01*
X4011143Y22200386D01*
X3833905Y22059043D01*
X3806014Y22036801D01*
X3627566Y21844479D01*
X3627567Y21844479D01*
X3479772Y21627704D01*
X3479770Y21627700D01*
X3479768Y21627697D01*
X3479767Y21627696D01*
X3365938Y21391326D01*
X3306648Y21199111D01*
X3288604Y21140615D01*
X3272614Y21034530D01*
X3249500Y20881187D01*
X3249500Y20618812D01*
X3268190Y20494819D01*
X3286102Y20375979D01*
X3276630Y20306758D01*
X3231236Y20253643D01*
X3164332Y20233503D01*
X3163488Y20233500D01*
X-2114961Y20233500D01*
X-2182000Y20253185D01*
X-2214229Y20283191D01*
X-2236735Y20313256D01*
X-2236738Y20313259D01*
X-2236739Y20313261D01*
X-2353796Y20400889D01*
X-2423185Y20426770D01*
X-2490792Y20451987D01*
X-2490794Y20451987D01*
X-2490799Y20451989D01*
X-2528546Y20456047D01*
X-2593095Y20482784D01*
X-2632943Y20540177D01*
X-2637764Y20598726D01*
X-2636780Y20604941D01*
X-2636780Y20604942D01*
X-2641225Y20651966D01*
X-2641500Y20657804D01*
X-2641500Y21017500D01*
X-2621815Y21084539D01*
X-2569011Y21130294D01*
X-2517500Y21141500D01*
X-1926345Y21141500D01*
X-1865797Y21148011D01*
X-1865795Y21148011D01*
X-1728795Y21199111D01*
X-1611739Y21286739D01*
X-1524111Y21403795D01*
X-1473011Y21540795D01*
X-1473011Y21540797D01*
X-1466500Y21601345D01*
X-1466500Y21640953D01*
X-1446815Y21707992D01*
X-1394011Y21753747D01*
X-1324853Y21763691D01*
X-1261297Y21734666D01*
X-1251602Y21725294D01*
X-1193990Y21663203D01*
X-1193987Y21663200D01*
X-1193984Y21663198D01*
X-1193981Y21663195D01*
X-988857Y21499614D01*
X-761643Y21368432D01*
X-517416Y21272580D01*
X-517411Y21272578D01*
X-517402Y21272576D01*
X-299818Y21222914D01*
X-261630Y21214198D01*
X-261629Y21214197D01*
X-261625Y21214197D01*
X-261620Y21214196D01*
X-65500Y21199500D01*
X-65494Y21199500D01*
X65500Y21199500D01*
X261620Y21214196D01*
X261625Y21214197D01*
X261629Y21214197D01*
X261630Y21214198D01*
X299818Y21222914D01*
X517402Y21272576D01*
X517411Y21272578D01*
X517416Y21272580D01*
X761643Y21368432D01*
X988857Y21499614D01*
X1193981Y21663195D01*
X1193985Y21663198D01*
X1372432Y21855520D01*
X1427513Y21936309D01*
X1520228Y22072296D01*
X1520231Y22072302D01*
X1520232Y22072303D01*
X1634061Y22308673D01*
X1634063Y22308677D01*
X1711396Y22559385D01*
X1750500Y22818818D01*
X1750500Y23081182D01*
X1711396Y23340615D01*
X1634063Y23591323D01*
X1520228Y23827704D01*
X1372433Y24044479D01*
X1204898Y24225039D01*
X1193985Y24236801D01*
X1193983Y24236801D01*
X1193981Y24236805D01*
X988857Y24400386D01*
X761643Y24531568D01*
X517416Y24627420D01*
X261630Y24685802D01*
X261622Y24685802D01*
X261620Y24685803D01*
X65500Y24700500D01*
X65494Y24700500D01*
X-65494Y24700500D01*
X-65500Y24700500D01*
X-261620Y24685803D01*
X-261622Y24685802D01*
X-261630Y24685802D01*
X-517416Y24627420D01*
X-761643Y24531568D01*
X-988857Y24400386D01*
X-1193981Y24236805D01*
X-1193983Y24236801D01*
X-1193985Y24236801D01*
X-1251601Y24174705D01*
X-1311629Y24138950D01*
X-1381458Y24141325D01*
X-1438919Y24181075D01*
X-1465767Y24245580D01*
X-1466500Y24259046D01*
X-1466500Y24298654D01*
X-1473011Y24359202D01*
X-1473011Y24359204D01*
X-1524111Y24496204D01*
X-1542978Y24521407D01*
X-1611739Y24613261D01*
X-1728796Y24700889D01*
X-1865799Y24751989D01*
X-1893050Y24754918D01*
X-1926345Y24758499D01*
X-1926362Y24758500D01*
X-4623638Y24758500D01*
X-4623654Y24758499D01*
X-4650692Y24755591D01*
X-4684201Y24751989D01*
X-4821204Y24700889D01*
X-4938261Y24613261D01*
X-5025889Y24496204D01*
X-5076989Y24359201D01*
X-5079280Y24337891D01*
X-5083499Y24298654D01*
X-5083500Y24298637D01*
X-5083500Y21601362D01*
X-5083499Y21601345D01*
X-5080157Y21570270D01*
X-5076989Y21540799D01*
X-5025889Y21403796D01*
X-4938261Y21286739D01*
X-4919341Y21272576D01*
X-4821204Y21199111D01*
X-4684203Y21148011D01*
X-4623654Y21141500D01*
X-4623638Y21141500D01*
X-4032500Y21141500D01*
X-3965461Y21121815D01*
X-3919706Y21069011D01*
X-3908500Y21017500D01*
X-3908500Y20938766D01*
X-3928185Y20871727D01*
X-3944819Y20851085D01*
X-4301086Y20494819D01*
X-4362409Y20461334D01*
X-4388767Y20458500D01*
X-4648638Y20458500D01*
X-4648654Y20458499D01*
X-4675692Y20455591D01*
X-4709201Y20451989D01*
X-4709204Y20451988D01*
X-4723768Y20446555D01*
X-4846204Y20400889D01*
X-4963261Y20313261D01*
X-5050889Y20196204D01*
X-5101989Y20059201D01*
X-5105591Y20025692D01*
X-5108499Y19998654D01*
X-5108500Y19998637D01*
X-5108500Y19201362D01*
X-5108499Y19201345D01*
X-5105232Y19170963D01*
X-5101989Y19140799D01*
X-5050889Y19003796D01*
X-4963261Y18886739D01*
X-4891955Y18833360D01*
X-4846204Y18799111D01*
X-4709203Y18748011D01*
X-4648654Y18741500D01*
X-4648638Y18741500D01*
X-3951345Y18741500D01*
X-3890797Y18748011D01*
X-3890795Y18748011D01*
X-3753795Y18799111D01*
X-3674311Y18858613D01*
X-3608846Y18883030D01*
X-3540573Y18868178D01*
X-3525690Y18858613D01*
X-3491955Y18833360D01*
X-3446204Y18799111D01*
X-3309203Y18748011D01*
X-3248654Y18741500D01*
X-3248638Y18741500D01*
X-2551345Y18741500D01*
X-2490797Y18748011D01*
X-2490795Y18748011D01*
X-2353795Y18799111D01*
X-2236738Y18886740D01*
X-2236735Y18886743D01*
X-2214229Y18916809D01*
X-2158296Y18958681D01*
X-2114961Y18966500D01*
X-984616Y18966500D01*
X-917577Y18946815D01*
X-871822Y18894011D01*
X-861878Y18824853D01*
X-890903Y18761297D01*
X-925189Y18733668D01*
X-978741Y18704426D01*
X-1065073Y18657285D01*
X-1290088Y18488841D01*
X-1488841Y18290088D01*
X-1657285Y18065073D01*
X-1791992Y17818375D01*
X-1890219Y17555018D01*
X-1949967Y17280363D01*
X-1970019Y17000000D01*
X-1949967Y16719637D01*
X-1890219Y16444982D01*
X-1791992Y16181625D01*
X-1791991Y16181623D01*
X-1791989Y16181619D01*
X-1657288Y15934932D01*
X-1657283Y15934924D01*
X-1488847Y15709919D01*
X-1488831Y15709901D01*
X-1290098Y15511168D01*
X-1290080Y15511152D01*
X-1065075Y15342716D01*
X-1065067Y15342711D01*
X-818380Y15208010D01*
X-818376Y15208008D01*
X-729574Y15174887D01*
X-555018Y15109781D01*
X-555014Y15109780D01*
X-555011Y15109779D01*
X-280371Y15050034D01*
X-280364Y15050033D01*
X-70175Y15035000D01*
X70175Y15035000D01*
X280364Y15050033D01*
X280371Y15050034D01*
X555011Y15109779D01*
X555014Y15109780D01*
X555018Y15109781D01*
X729574Y15174887D01*
X818376Y15208008D01*
X818380Y15208010D01*
X1065067Y15342711D01*
X1065075Y15342716D01*
X1290080Y15511152D01*
X1290098Y15511168D01*
X1488831Y15709901D01*
X1488847Y15709919D01*
X1657283Y15934924D01*
X1657288Y15934932D01*
X1791989Y16181619D01*
X1791991Y16181623D01*
X1791992Y16181625D01*
X1890219Y16444982D01*
X1949967Y16719637D01*
X1970019Y17000000D01*
X1949967Y17280363D01*
X1890219Y17555018D01*
X1791992Y17818375D01*
X1657285Y18065073D01*
X1488841Y18290088D01*
X1290088Y18488841D01*
X1065073Y18657285D01*
X978741Y18704426D01*
X925189Y18733668D01*
X875784Y18783073D01*
X860932Y18851346D01*
X885349Y18916810D01*
X941283Y18958682D01*
X984616Y18966500D01*
X3184584Y18966500D01*
X3251623Y18946815D01*
X3272265Y18930181D01*
X3716262Y18486182D01*
X3726166Y18473820D01*
X3726376Y18473994D01*
X3731347Y18467985D01*
X3782429Y18420015D01*
X3803572Y18398872D01*
X3803589Y18398857D01*
X3809164Y18394531D01*
X3813594Y18390747D01*
X3848021Y18358419D01*
X3848031Y18358412D01*
X3865917Y18348579D01*
X3882170Y18337903D01*
X3898307Y18325386D01*
X3898309Y18325385D01*
X3941660Y18306625D01*
X3946906Y18304055D01*
X3988292Y18281303D01*
X4008070Y18276225D01*
X4026472Y18269925D01*
X4045207Y18261818D01*
X4091845Y18254431D01*
X4097566Y18253246D01*
X4143315Y18241500D01*
X4143320Y18241500D01*
X4163734Y18241500D01*
X4183133Y18239973D01*
X4203291Y18236780D01*
X4203292Y18236780D01*
X4203293Y18236780D01*
X4250316Y18241225D01*
X4256154Y18241500D01*
X4993424Y18241500D01*
X5060463Y18221815D01*
X5106218Y18169011D01*
X5116162Y18099853D01*
X5087137Y18036297D01*
X5050245Y18007285D01*
X4901830Y17930771D01*
X4736490Y17800747D01*
X4598745Y17641781D01*
X4598743Y17641777D01*
X4598740Y17641774D01*
X4493574Y17459620D01*
X4424779Y17260851D01*
X4424778Y17260847D01*
X4424778Y17260846D01*
X4394843Y17052645D01*
X4404852Y16842541D01*
X4454442Y16638129D01*
X4481835Y16578144D01*
X4541820Y16446795D01*
X4541824Y16446789D01*
X4663826Y16275460D01*
X4663832Y16275454D01*
X4816060Y16130305D01*
X4816061Y16130304D01*
X4816063Y16130303D01*
X4904538Y16073443D01*
X4993015Y16016583D01*
X5188278Y15938410D01*
X5188291Y15938406D01*
X5394828Y15898600D01*
X5394829Y15898600D01*
X5552461Y15898600D01*
X5552468Y15898600D01*
X5709389Y15913584D01*
X5911211Y15972844D01*
X6098170Y16069229D01*
X6226254Y16169955D01*
X6263509Y16199252D01*
X6263510Y16199253D01*
X6291259Y16231277D01*
X6401255Y16358219D01*
X6401257Y16358222D01*
X6401259Y16358225D01*
X6506425Y16540379D01*
X6536148Y16626256D01*
X6575222Y16739154D01*
X6605157Y16947355D01*
X6595148Y17157459D01*
X6545558Y17361871D01*
X6458179Y17553205D01*
X6336169Y17724544D01*
X6183937Y17869697D01*
X6006986Y17983416D01*
X5970809Y17997899D01*
X5959610Y18002383D01*
X5904689Y18045574D01*
X5881837Y18111601D01*
X5898310Y18179501D01*
X5948878Y18227716D01*
X6005697Y18241500D01*
X9566366Y18241500D01*
X9582113Y18239761D01*
X9582139Y18240032D01*
X9589905Y18239298D01*
X9589908Y18239298D01*
X9589909Y18239298D01*
X9659958Y18241500D01*
X11993424Y18241500D01*
X12060463Y18221815D01*
X12106218Y18169011D01*
X12116162Y18099853D01*
X12087137Y18036297D01*
X12050245Y18007285D01*
X11901830Y17930771D01*
X11736490Y17800747D01*
X11598745Y17641781D01*
X11598743Y17641777D01*
X11598740Y17641774D01*
X11493574Y17459620D01*
X11424779Y17260851D01*
X11424778Y17260847D01*
X11424778Y17260846D01*
X11394843Y17052645D01*
X11404852Y16842541D01*
X11454442Y16638129D01*
X11481835Y16578144D01*
X11541820Y16446795D01*
X11541824Y16446789D01*
X11663826Y16275460D01*
X11663832Y16275454D01*
X11816060Y16130305D01*
X11816061Y16130304D01*
X11816063Y16130303D01*
X11904538Y16073443D01*
X11993015Y16016583D01*
X12188278Y15938410D01*
X12188291Y15938406D01*
X12394828Y15898600D01*
X12394829Y15898600D01*
X12552461Y15898600D01*
X12552468Y15898600D01*
X12709389Y15913584D01*
X12911211Y15972844D01*
X13098170Y16069229D01*
X13226254Y16169955D01*
X13263509Y16199252D01*
X13263510Y16199253D01*
X13291259Y16231277D01*
X13401255Y16358219D01*
X13401257Y16358222D01*
X13401259Y16358225D01*
X13506424Y16540377D01*
X13506425Y16540379D01*
X13506426Y16540381D01*
X13516450Y16569344D01*
X13556975Y16626256D01*
X13621840Y16652225D01*
X13690447Y16639004D01*
X13721310Y16616468D01*
X16326597Y14011181D01*
X16336505Y13998815D01*
X16336715Y13998989D01*
X16341687Y13992978D01*
X16369372Y13966980D01*
X16392779Y13945000D01*
X16403347Y13934432D01*
X16413916Y13923863D01*
X16413919Y13923861D01*
X16419500Y13919530D01*
X16423932Y13915744D01*
X16458365Y13883412D01*
X16458368Y13883409D01*
X16476253Y13873577D01*
X16492511Y13862898D01*
X16508638Y13850388D01*
X16508646Y13850384D01*
X16551994Y13831625D01*
X16557240Y13829055D01*
X16598626Y13806303D01*
X16618404Y13801225D01*
X16636806Y13794925D01*
X16655541Y13786818D01*
X16702179Y13779431D01*
X16707900Y13778246D01*
X16753649Y13766500D01*
X16753654Y13766500D01*
X16774068Y13766500D01*
X16793467Y13764973D01*
X16813625Y13761780D01*
X16813626Y13761780D01*
X16813627Y13761780D01*
X16860650Y13766225D01*
X16866488Y13766500D01*
X20114961Y13766500D01*
X20182000Y13746815D01*
X20214229Y13716809D01*
X20236735Y13686743D01*
X20236738Y13686740D01*
X20353795Y13599111D01*
X20490796Y13548011D01*
X20528546Y13543952D01*
X20593097Y13517213D01*
X20632944Y13459820D01*
X20637763Y13401270D01*
X20636780Y13395062D01*
X20636780Y13395058D01*
X20641225Y13348033D01*
X20641500Y13342195D01*
X20641500Y12982500D01*
X20621815Y12915461D01*
X20569011Y12869706D01*
X20517500Y12858500D01*
X19926362Y12858500D01*
X19926345Y12858499D01*
X19895270Y12855157D01*
X19865799Y12851989D01*
X19865796Y12851988D01*
X19865795Y12851988D01*
X19805564Y12829522D01*
X19728796Y12800889D01*
X19611739Y12713261D01*
X19533448Y12608677D01*
X19524111Y12596204D01*
X19473011Y12459204D01*
X19473011Y12459202D01*
X19466500Y12398654D01*
X19466500Y12359046D01*
X19446815Y12292007D01*
X19394011Y12246252D01*
X19324853Y12236308D01*
X19261297Y12265333D01*
X19251601Y12274705D01*
X19193985Y12336801D01*
X19193983Y12336801D01*
X19193981Y12336805D01*
X18988857Y12500386D01*
X18761643Y12631568D01*
X18517416Y12727420D01*
X18261630Y12785802D01*
X18261622Y12785802D01*
X18261620Y12785803D01*
X18065500Y12800500D01*
X18065494Y12800500D01*
X17934506Y12800500D01*
X17934500Y12800500D01*
X17738379Y12785803D01*
X17738376Y12785802D01*
X17738370Y12785802D01*
X17482584Y12727420D01*
X17238357Y12631568D01*
X17011143Y12500386D01*
X16806019Y12336805D01*
X16806014Y12336801D01*
X16627567Y12144479D01*
X16479772Y11927704D01*
X16479770Y11927700D01*
X16479768Y11927697D01*
X16479767Y11927696D01*
X16365938Y11691326D01*
X16306648Y11499111D01*
X16288604Y11440615D01*
X16269794Y11315823D01*
X16249500Y11181187D01*
X16249500Y10918812D01*
X16273853Y10757247D01*
X16288604Y10659385D01*
X16288605Y10659382D01*
X16288606Y10659376D01*
X16365938Y10408673D01*
X16479767Y10172303D01*
X16479768Y10172302D01*
X16627567Y9955520D01*
X16806014Y9763198D01*
X17011143Y9599614D01*
X17238356Y9468432D01*
X17482578Y9372582D01*
X17482597Y9372576D01*
X17738374Y9314197D01*
X17738379Y9314196D01*
X17934500Y9299500D01*
X17934506Y9299500D01*
X18065500Y9299500D01*
X18261620Y9314196D01*
X18261625Y9314197D01*
X18261629Y9314197D01*
X18261630Y9314198D01*
X18299818Y9322914D01*
X18517402Y9372576D01*
X18517411Y9372578D01*
X18517416Y9372580D01*
X18761643Y9468432D01*
X18988857Y9599614D01*
X19193981Y9763195D01*
X19193984Y9763198D01*
X19193987Y9763200D01*
X19193990Y9763203D01*
X19251602Y9825294D01*
X19311630Y9861049D01*
X19381459Y9858674D01*
X19438919Y9818923D01*
X19465767Y9754418D01*
X19466500Y9740953D01*
X19466500Y9701345D01*
X19473011Y9640797D01*
X19473011Y9640795D01*
X19524111Y9503795D01*
X19611739Y9386739D01*
X19728795Y9299111D01*
X19865796Y9248011D01*
X19926345Y9241500D01*
X19926362Y9241500D01*
X22167500Y9241500D01*
X22234539Y9221815D01*
X22280294Y9169011D01*
X22291500Y9117500D01*
X22291500Y9005082D01*
X22271815Y8938043D01*
X22255181Y8917401D01*
X13720152Y382373D01*
X13658829Y348888D01*
X13589137Y353872D01*
X13533204Y395744D01*
X13519679Y418536D01*
X13458179Y553205D01*
X13395101Y641785D01*
X13336173Y724539D01*
X13336171Y724540D01*
X13336169Y724544D01*
X13183937Y869697D01*
X13006986Y983416D01*
X12811712Y1061593D01*
X12646479Y1093438D01*
X12605172Y1101400D01*
X12605171Y1101400D01*
X12447532Y1101400D01*
X12290611Y1086416D01*
X12088789Y1027156D01*
X11901830Y930771D01*
X11736490Y800747D01*
X11598745Y641781D01*
X11598743Y641777D01*
X11598740Y641774D01*
X11493574Y459620D01*
X11424779Y260851D01*
X11424778Y260847D01*
X11424778Y260846D01*
X11394843Y52645D01*
X11404852Y-157459D01*
X11454442Y-361871D01*
X11506378Y-475596D01*
X11541820Y-553204D01*
X11541824Y-553210D01*
X11663826Y-724539D01*
X11663831Y-724544D01*
X11816063Y-869697D01*
X11993014Y-983416D01*
X12188288Y-1061593D01*
X12317084Y-1086416D01*
X12394828Y-1101400D01*
X12394829Y-1101400D01*
X12552461Y-1101400D01*
X12552468Y-1101400D01*
X12709389Y-1086416D01*
X12736712Y-1078392D01*
X12806581Y-1078391D01*
X12865359Y-1116165D01*
X12894386Y-1179720D01*
X12895648Y-1197369D01*
X12895648Y-1543865D01*
X12893911Y-1559612D01*
X12894181Y-1559638D01*
X12893447Y-1567404D01*
X12895649Y-1637456D01*
X12895649Y-1667358D01*
X12896533Y-1674355D01*
X12896991Y-1680178D01*
X12898475Y-1727388D01*
X12898476Y-1727390D01*
X12904171Y-1746994D01*
X12908116Y-1766041D01*
X12910675Y-1786296D01*
X12910676Y-1786299D01*
X12910677Y-1786303D01*
X12928062Y-1830215D01*
X12929955Y-1835741D01*
X12933957Y-1849518D01*
X12933760Y-1919387D01*
X12895819Y-1978058D01*
X12832182Y-2006903D01*
X12824149Y-2007769D01*
X12738378Y-2014196D01*
X12738374Y-2014197D01*
X12482597Y-2072576D01*
X12482578Y-2072582D01*
X12238356Y-2168432D01*
X12011143Y-2299614D01*
X11806012Y-2463200D01*
X11806009Y-2463203D01*
X11748398Y-2525294D01*
X11688370Y-2561049D01*
X11618541Y-2558674D01*
X11561081Y-2518923D01*
X11534233Y-2454418D01*
X11533500Y-2440953D01*
X11533500Y-2401362D01*
X11533499Y-2401345D01*
X11530157Y-2370270D01*
X11526989Y-2340799D01*
X11475889Y-2203796D01*
X11388261Y-2086739D01*
X11271204Y-1999111D01*
X11222677Y-1981011D01*
X11134203Y-1948011D01*
X11073654Y-1941500D01*
X11073638Y-1941500D01*
X8376362Y-1941500D01*
X8376345Y-1941500D01*
X8315797Y-1948011D01*
X8315795Y-1948011D01*
X8178795Y-1999111D01*
X8061739Y-2086739D01*
X7974111Y-2203795D01*
X7923011Y-2340795D01*
X7923011Y-2340797D01*
X7916500Y-2401345D01*
X7916500Y-4842500D01*
X7896815Y-4909539D01*
X7844011Y-4955294D01*
X7792500Y-4966500D01*
X2958767Y-4966500D01*
X2891728Y-4946815D01*
X2871086Y-4930181D01*
X108866Y-2167959D01*
X75381Y-2106636D01*
X80365Y-2036944D01*
X122237Y-1981011D01*
X187699Y-1956594D01*
X280363Y-1949967D01*
X555018Y-1890219D01*
X818375Y-1791992D01*
X1065073Y-1657285D01*
X1290088Y-1488841D01*
X1488841Y-1290088D01*
X1657285Y-1065073D01*
X1791992Y-818375D01*
X1890219Y-555018D01*
X1949967Y-280363D01*
X1970019Y0D01*
X1966254Y52645D01*
X4394843Y52645D01*
X4404852Y-157459D01*
X4454442Y-361871D01*
X4506378Y-475596D01*
X4541820Y-553204D01*
X4541824Y-553210D01*
X4663826Y-724539D01*
X4663831Y-724544D01*
X4816063Y-869697D01*
X4993014Y-983416D01*
X5188288Y-1061593D01*
X5317084Y-1086416D01*
X5394828Y-1101400D01*
X5394829Y-1101400D01*
X5552461Y-1101400D01*
X5552468Y-1101400D01*
X5709389Y-1086416D01*
X5911211Y-1027156D01*
X6098170Y-930771D01*
X6263510Y-800747D01*
X6401255Y-641781D01*
X6506426Y-459619D01*
X6575222Y-260846D01*
X6605157Y-52645D01*
X6602649Y0D01*
X7644341Y0D01*
X7664936Y-235403D01*
X7664938Y-235413D01*
X7726094Y-463655D01*
X7726096Y-463659D01*
X7726097Y-463663D01*
X7767854Y-553210D01*
X7825964Y-677828D01*
X7825965Y-677830D01*
X7961505Y-871402D01*
X8128597Y-1038494D01*
X8322169Y-1174034D01*
X8322171Y-1174035D01*
X8536337Y-1273903D01*
X8764592Y-1335063D01*
X8941034Y-1350500D01*
X9058966Y-1350500D01*
X9235408Y-1335063D01*
X9463663Y-1273903D01*
X9677829Y-1174035D01*
X9871401Y-1038495D01*
X10038495Y-871401D01*
X10174035Y-677830D01*
X10273903Y-463663D01*
X10335063Y-235408D01*
X10355659Y0D01*
X10335063Y235408D01*
X10273903Y463663D01*
X10174035Y677829D01*
X10038495Y871401D01*
X9871401Y1038495D01*
X9677829Y1174035D01*
X9463663Y1273903D01*
X9235408Y1335063D01*
X9058966Y1350500D01*
X8941034Y1350500D01*
X8764592Y1335063D01*
X8536337Y1273903D01*
X8322171Y1174035D01*
X8322169Y1174034D01*
X8128597Y1038494D01*
X8020875Y930771D01*
X7961505Y871401D01*
X7934281Y832521D01*
X7825967Y677834D01*
X7825965Y677830D01*
X7726097Y463663D01*
X7726096Y463659D01*
X7726094Y463655D01*
X7664938Y235413D01*
X7664936Y235403D01*
X7644341Y0D01*
X6602649Y0D01*
X6595148Y157459D01*
X6545558Y361871D01*
X6458179Y553205D01*
X6395101Y641785D01*
X6336173Y724539D01*
X6336171Y724540D01*
X6336169Y724544D01*
X6183937Y869697D01*
X6006986Y983416D01*
X5811712Y1061593D01*
X5646479Y1093438D01*
X5605172Y1101400D01*
X5605171Y1101400D01*
X5447532Y1101400D01*
X5290611Y1086416D01*
X5088789Y1027156D01*
X4901830Y930771D01*
X4736490Y800747D01*
X4598745Y641781D01*
X4598743Y641777D01*
X4598740Y641774D01*
X4493574Y459620D01*
X4424779Y260851D01*
X4424778Y260847D01*
X4424778Y260846D01*
X4394843Y52645D01*
X1966254Y52645D01*
X1949967Y280363D01*
X1890219Y555018D01*
X1791992Y818375D01*
X1657285Y1065073D01*
X1488841Y1290088D01*
X1290088Y1488841D01*
X1065073Y1657285D01*
X818375Y1791992D01*
X555018Y1890219D01*
X280363Y1949967D01*
X70175Y1965000D01*
X-70175Y1965000D01*
X-280363Y1949967D01*
X-555018Y1890219D01*
X-818375Y1791992D01*
X-1065073Y1657285D01*
X-1290088Y1488841D01*
X-1488841Y1290088D01*
X-1657285Y1065073D01*
X-1791992Y818375D01*
X-1890219Y555018D01*
X-1949967Y280363D01*
X-1955185Y207405D01*
X-1956594Y187700D01*
X-1981011Y122236D01*
X-2036944Y80364D01*
X-2106636Y75380D01*
X-2167957Y108863D01*
X-2181330Y122236D01*
X-2230181Y171087D01*
X-2263666Y232410D01*
X-2266500Y258768D01*
X-2266500Y1805712D01*
X-2246815Y1872751D01*
X-2241767Y1880023D01*
X-2234133Y1890220D01*
X-2154931Y1996021D01*
X-2149111Y2003795D01*
X-2098011Y2140795D01*
X-2098011Y2140797D01*
X-2091500Y2201345D01*
X-2091500Y2998654D01*
X-2098011Y3059202D01*
X-2098011Y3059204D01*
X-2149111Y3196204D01*
X-2236739Y3313261D01*
X-2353796Y3400889D01*
X-2423185Y3426770D01*
X-2490792Y3451987D01*
X-2490794Y3451987D01*
X-2490799Y3451989D01*
X-2528546Y3456047D01*
X-2593095Y3482784D01*
X-2632943Y3540177D01*
X-2637764Y3598726D01*
X-2636780Y3604941D01*
X-2636780Y3604942D01*
X-2638091Y3618812D01*
X3249500Y3618812D01*
X3268190Y3494819D01*
X3288604Y3359385D01*
X3288605Y3359382D01*
X3288606Y3359376D01*
X3365938Y3108673D01*
X3479767Y2872303D01*
X3479768Y2872302D01*
X3627567Y2655520D01*
X3806014Y2463198D01*
X4011143Y2299614D01*
X4238356Y2168432D01*
X4482578Y2072582D01*
X4482597Y2072576D01*
X4738374Y2014197D01*
X4738379Y2014196D01*
X4934500Y1999500D01*
X4934506Y1999500D01*
X5065500Y1999500D01*
X5261620Y2014196D01*
X5261625Y2014197D01*
X5261629Y2014197D01*
X5261630Y2014198D01*
X5299818Y2022914D01*
X5517402Y2072576D01*
X5517411Y2072578D01*
X5517416Y2072580D01*
X5761643Y2168432D01*
X5988857Y2299614D01*
X6193981Y2463195D01*
X6193985Y2463198D01*
X6251600Y2525294D01*
X6311628Y2561049D01*
X6381457Y2558674D01*
X6438917Y2518924D01*
X6465766Y2454419D01*
X6466499Y2440956D01*
X6466499Y2401363D01*
X6466500Y2401345D01*
X6473011Y2340797D01*
X6473011Y2340795D01*
X6524111Y2203795D01*
X6611739Y2086739D01*
X6728795Y1999111D01*
X6865796Y1948011D01*
X6926345Y1941500D01*
X6926362Y1941500D01*
X9623654Y1941500D01*
X9684202Y1948011D01*
X9684204Y1948011D01*
X9821204Y1999111D01*
X9841358Y2014198D01*
X9938261Y2086739D01*
X10025889Y2203796D01*
X10076989Y2340799D01*
X10080157Y2370270D01*
X10083499Y2401345D01*
X10083500Y2401362D01*
X10083500Y5098637D01*
X10083499Y5098654D01*
X10080591Y5125692D01*
X10076989Y5159201D01*
X10025889Y5296204D01*
X9938261Y5413261D01*
X9821204Y5500889D01*
X9684201Y5551989D01*
X9652623Y5555383D01*
X9623654Y5558499D01*
X9623638Y5558500D01*
X6926362Y5558500D01*
X6926345Y5558499D01*
X6895270Y5555157D01*
X6865799Y5551989D01*
X6865796Y5551988D01*
X6865795Y5551988D01*
X6805564Y5529522D01*
X6728796Y5500889D01*
X6611739Y5413261D01*
X6533448Y5308677D01*
X6524111Y5296204D01*
X6473011Y5159204D01*
X6473011Y5159202D01*
X6466500Y5098654D01*
X6466499Y5098636D01*
X6466499Y5059043D01*
X6446813Y4992004D01*
X6394008Y4946250D01*
X6324849Y4936309D01*
X6261294Y4965335D01*
X6251611Y4974693D01*
X6193981Y5036805D01*
X5988857Y5200386D01*
X5761643Y5331568D01*
X5517416Y5427420D01*
X5261630Y5485802D01*
X5261622Y5485802D01*
X5261620Y5485803D01*
X5065500Y5500500D01*
X5065494Y5500500D01*
X4934506Y5500500D01*
X4934500Y5500500D01*
X4738379Y5485803D01*
X4738376Y5485802D01*
X4738370Y5485802D01*
X4482584Y5427420D01*
X4238357Y5331568D01*
X4011143Y5200386D01*
X3833905Y5059043D01*
X3806014Y5036801D01*
X3627567Y4844479D01*
X3479772Y4627704D01*
X3479770Y4627700D01*
X3479768Y4627697D01*
X3479767Y4627696D01*
X3365938Y4391326D01*
X3306648Y4199111D01*
X3288604Y4140615D01*
X3270047Y4017500D01*
X3249500Y3881187D01*
X3249500Y3618812D01*
X-2638091Y3618812D01*
X-2641225Y3651966D01*
X-2641500Y3657804D01*
X-2641500Y4017500D01*
X-2621815Y4084539D01*
X-2569011Y4130294D01*
X-2517500Y4141500D01*
X-1926345Y4141500D01*
X-1865797Y4148011D01*
X-1865795Y4148011D01*
X-1728795Y4199111D01*
X-1611739Y4286739D01*
X-1524111Y4403795D01*
X-1473011Y4540795D01*
X-1473011Y4540797D01*
X-1466500Y4601345D01*
X-1466500Y4640953D01*
X-1446815Y4707992D01*
X-1394011Y4753747D01*
X-1324853Y4763691D01*
X-1261297Y4734666D01*
X-1251602Y4725294D01*
X-1193990Y4663203D01*
X-1193987Y4663200D01*
X-1193984Y4663198D01*
X-1193981Y4663195D01*
X-988857Y4499614D01*
X-761643Y4368432D01*
X-517416Y4272580D01*
X-517411Y4272578D01*
X-517402Y4272576D01*
X-299818Y4222914D01*
X-261630Y4214198D01*
X-261629Y4214197D01*
X-261625Y4214197D01*
X-261620Y4214196D01*
X-65500Y4199500D01*
X-65494Y4199500D01*
X65500Y4199500D01*
X261620Y4214196D01*
X261625Y4214197D01*
X261629Y4214197D01*
X261630Y4214198D01*
X299818Y4222914D01*
X517402Y4272576D01*
X517411Y4272578D01*
X517416Y4272580D01*
X761643Y4368432D01*
X988857Y4499614D01*
X1193981Y4663195D01*
X1193985Y4663198D01*
X1372432Y4855520D01*
X1427513Y4936309D01*
X1520228Y5072296D01*
X1520231Y5072302D01*
X1520232Y5072303D01*
X1634061Y5308673D01*
X1634063Y5308677D01*
X1711396Y5559385D01*
X1750500Y5818818D01*
X1750500Y6081182D01*
X1711396Y6340615D01*
X1634063Y6591323D01*
X1520228Y6827704D01*
X1372433Y7044479D01*
X1193981Y7236805D01*
X988857Y7400386D01*
X761643Y7531568D01*
X517416Y7627420D01*
X261630Y7685802D01*
X261622Y7685802D01*
X261620Y7685803D01*
X65500Y7700500D01*
X65494Y7700500D01*
X-65494Y7700500D01*
X-65500Y7700500D01*
X-261620Y7685803D01*
X-261622Y7685802D01*
X-261630Y7685802D01*
X-517416Y7627420D01*
X-761643Y7531568D01*
X-988857Y7400386D01*
X-1193981Y7236805D01*
X-1193983Y7236801D01*
X-1193985Y7236801D01*
X-1251601Y7174705D01*
X-1311629Y7138950D01*
X-1381458Y7141325D01*
X-1438919Y7181075D01*
X-1465767Y7245580D01*
X-1466500Y7259046D01*
X-1466500Y7298654D01*
X-1473011Y7359202D01*
X-1473011Y7359204D01*
X-1524111Y7496204D01*
X-1524110Y7496204D01*
X-1611739Y7613261D01*
X-1728796Y7700889D01*
X-1865799Y7751989D01*
X-1893050Y7754918D01*
X-1926345Y7758499D01*
X-1926362Y7758500D01*
X-4623638Y7758500D01*
X-4623654Y7758499D01*
X-4650692Y7755591D01*
X-4684201Y7751989D01*
X-4821204Y7700889D01*
X-4938261Y7613261D01*
X-5025889Y7496204D01*
X-5076989Y7359201D01*
X-5080591Y7325692D01*
X-5083499Y7298654D01*
X-5083500Y7298637D01*
X-5083500Y4601362D01*
X-5083499Y4601345D01*
X-5080157Y4570270D01*
X-5076989Y4540799D01*
X-5025889Y4403796D01*
X-4938261Y4286739D01*
X-4919341Y4272576D01*
X-4821204Y4199111D01*
X-4684203Y4148011D01*
X-4623654Y4141500D01*
X-4623638Y4141500D01*
X-4032500Y4141500D01*
X-3965461Y4121815D01*
X-3919706Y4069011D01*
X-3908500Y4017500D01*
X-3908500Y3938766D01*
X-3928185Y3871727D01*
X-3944819Y3851085D01*
X-4301086Y3494819D01*
X-4362409Y3461334D01*
X-4388767Y3458500D01*
X-4648638Y3458500D01*
X-4648654Y3458499D01*
X-4675692Y3455591D01*
X-4709201Y3451989D01*
X-4709204Y3451988D01*
X-4723768Y3446555D01*
X-4846204Y3400889D01*
X-4963261Y3313261D01*
X-5050889Y3196204D01*
X-5101989Y3059201D01*
X-5105591Y3025692D01*
X-5108499Y2998654D01*
X-5108500Y2998637D01*
X-5108500Y2201362D01*
X-8924500Y2201362D01*
X-8924500Y11901345D01*
X7916500Y11901345D01*
X7923011Y11840797D01*
X7923011Y11840795D01*
X7974111Y11703795D01*
X8061739Y11586739D01*
X8178795Y11499111D01*
X8315796Y11448011D01*
X8376345Y11441500D01*
X8376362Y11441500D01*
X11073654Y11441500D01*
X11134202Y11448011D01*
X11134204Y11448011D01*
X11271204Y11499111D01*
X11369341Y11572576D01*
X11388261Y11586739D01*
X11475889Y11703796D01*
X11526989Y11840799D01*
X11530157Y11870270D01*
X11533499Y11901345D01*
X11533500Y11901362D01*
X11533500Y11940953D01*
X11553185Y12007992D01*
X11605989Y12053747D01*
X11675147Y12063691D01*
X11738703Y12034666D01*
X11748398Y12025294D01*
X11806009Y11963203D01*
X11806012Y11963200D01*
X12011143Y11799614D01*
X12238356Y11668432D01*
X12482578Y11572582D01*
X12482597Y11572576D01*
X12738374Y11514197D01*
X12738379Y11514196D01*
X12934500Y11499500D01*
X12934506Y11499500D01*
X13065500Y11499500D01*
X13261620Y11514196D01*
X13261625Y11514197D01*
X13261629Y11514197D01*
X13261630Y11514198D01*
X13299818Y11522914D01*
X13517402Y11572576D01*
X13517411Y11572578D01*
X13517416Y11572580D01*
X13761643Y11668432D01*
X13988857Y11799614D01*
X14193981Y11963195D01*
X14193985Y11963198D01*
X14372432Y12155520D01*
X14372433Y12155521D01*
X14520228Y12372296D01*
X14520231Y12372302D01*
X14520232Y12372303D01*
X14634061Y12608673D01*
X14634063Y12608677D01*
X14711396Y12859385D01*
X14750500Y13118818D01*
X14750500Y13381182D01*
X14711396Y13640615D01*
X14634063Y13891323D01*
X14520228Y14127704D01*
X14372433Y14344479D01*
X14193981Y14536805D01*
X13988857Y14700386D01*
X13761643Y14831568D01*
X13517416Y14927420D01*
X13261630Y14985802D01*
X13261622Y14985802D01*
X13261620Y14985803D01*
X13065500Y15000500D01*
X13065494Y15000500D01*
X12934506Y15000500D01*
X12934500Y15000500D01*
X12738379Y14985803D01*
X12738376Y14985802D01*
X12738370Y14985802D01*
X12482584Y14927420D01*
X12238357Y14831568D01*
X12011143Y14700386D01*
X11806019Y14536805D01*
X11806014Y14536801D01*
X11748399Y14474705D01*
X11688371Y14438950D01*
X11618542Y14441325D01*
X11561081Y14481075D01*
X11534233Y14545580D01*
X11533500Y14559046D01*
X11533500Y14598637D01*
X11533499Y14598654D01*
X11530591Y14625692D01*
X11526989Y14659201D01*
X11475889Y14796204D01*
X11388261Y14913261D01*
X11271204Y15000889D01*
X11134201Y15051989D01*
X11102623Y15055383D01*
X11073654Y15058499D01*
X11073638Y15058500D01*
X8376362Y15058500D01*
X8376345Y15058499D01*
X8345270Y15055157D01*
X8315799Y15051989D01*
X8315796Y15051988D01*
X8315795Y15051988D01*
X8255564Y15029522D01*
X8178796Y15000889D01*
X8061739Y14913261D01*
X7974111Y14796204D01*
X7923011Y14659204D01*
X7923011Y14659202D01*
X7916500Y14598654D01*
X7916500Y11901345D01*
X-8924500Y11901345D01*
X-8924500Y17052645D01*
X-6605157Y17052645D01*
X-6595148Y16842541D01*
X-6545558Y16638129D01*
X-6500917Y16540379D01*
X-6458179Y16446795D01*
X-6458175Y16446789D01*
X-6336173Y16275460D01*
X-6336169Y16275456D01*
X-6183937Y16130303D01*
X-6006986Y16016584D01*
X-6006984Y16016583D01*
X-5811721Y15938410D01*
X-5811714Y15938407D01*
X-5811712Y15938407D01*
X-5811709Y15938406D01*
X-5811708Y15938406D01*
X-5605172Y15898600D01*
X-5605171Y15898600D01*
X-5447539Y15898600D01*
X-5447532Y15898600D01*
X-5290611Y15913584D01*
X-5290607Y15913585D01*
X-5088791Y15972843D01*
X-4901831Y16069228D01*
X-4736490Y16199252D01*
X-4736489Y16199253D01*
X-4598749Y16358214D01*
X-4598740Y16358225D01*
X-4493574Y16540379D01*
X-4424779Y16739148D01*
X-4424778Y16739155D01*
X-4408223Y16854296D01*
X-4394843Y16947355D01*
X-4404852Y17157459D01*
X-4454442Y17361871D01*
X-4509229Y17481839D01*
X-4541820Y17553204D01*
X-4541824Y17553210D01*
X-4663826Y17724539D01*
X-4663832Y17724545D01*
X-4816060Y17869694D01*
X-4816063Y17869697D01*
X-4993014Y17983416D01*
X-5188288Y18061593D01*
X-5343193Y18091448D01*
X-5394828Y18101400D01*
X-5394829Y18101400D01*
X-5552468Y18101400D01*
X-5709389Y18086416D01*
X-5911211Y18027156D01*
X-6098170Y17930771D01*
X-6263510Y17800747D01*
X-6401255Y17641781D01*
X-6506426Y17459619D01*
X-6575222Y17260846D01*
X-6605157Y17052645D01*
X-8924500Y17052645D01*
X-8924500Y34052645D01*
X-6605157Y34052645D01*
X-6595148Y33842541D01*
X-6545558Y33638129D01*
X-6472509Y33478174D01*
X-6458179Y33446795D01*
X-6458175Y33446789D01*
X-6336173Y33275460D01*
X-6336169Y33275456D01*
X-6183937Y33130303D01*
X-6020699Y33025397D01*
X-6006984Y33016583D01*
X-5811721Y32938410D01*
X-5811714Y32938407D01*
X-5811712Y32938407D01*
X-5811709Y32938406D01*
X-5811708Y32938406D01*
X-5605172Y32898600D01*
X-5605171Y32898600D01*
X-5447539Y32898600D01*
X-5447532Y32898600D01*
X-5290611Y32913584D01*
X-5290607Y32913585D01*
X-5088791Y32972843D01*
X-4901831Y33069228D01*
X-4736490Y33199252D01*
X-4736489Y33199253D01*
X-4598749Y33358214D01*
X-4598740Y33358225D01*
X-4493574Y33540379D01*
X-4424779Y33739148D01*
X-4424778Y33739155D01*
X-4421138Y33764472D01*
X-4394843Y33947355D01*
X-4404852Y34157459D01*
X-4454442Y34361871D01*
X-4509229Y34481839D01*
X-4541820Y34553204D01*
X-4541824Y34553210D01*
X-4663826Y34724539D01*
X-4663832Y34724545D01*
X-4816060Y34869694D01*
X-4816063Y34869697D01*
X-4993014Y34983416D01*
X-5188288Y35061593D01*
X-5344407Y35091682D01*
X-5394828Y35101400D01*
X-5394829Y35101400D01*
X-5552468Y35101400D01*
X-5709389Y35086416D01*
X-5911211Y35027156D01*
X-6098170Y34930771D01*
X-6263510Y34800747D01*
X-6401255Y34641781D01*
X-6506426Y34459619D01*
X-6575222Y34260846D01*
X-6605157Y34052645D01*
X-8924500Y34052645D01*
X-8924500Y40997559D01*
X-8924309Y41002426D01*
X-8907727Y41213113D01*
X-8904683Y41232331D01*
X-8857058Y41430705D01*
X-8851045Y41449211D01*
X-8772972Y41637694D01*
X-8764138Y41655031D01*
X-8657543Y41828977D01*
X-8646106Y41844719D01*
X-8513610Y41999852D01*
X-8499852Y42013610D01*
X-8344719Y42146106D01*
X-8328977Y42157543D01*
X-8155031Y42264138D01*
X-8137694Y42272972D01*
X-7949211Y42351045D01*
X-7930705Y42357058D01*
X-7732331Y42404683D01*
X-7713113Y42407727D01*
X-7502427Y42424309D01*
X-7497560Y42424500D01*
X-7475469Y42424500D01*
X25475469Y42424500D01*
X25497560Y42424500D01*
X25502427Y42424309D01*
G37*
%TD.AperFunction*%
%TA.AperFunction,NonConductor*%
G36*
X22210832Y30312415D02*
G01*
X22266766Y30270544D01*
X22291183Y30205080D01*
X22291499Y30196234D01*
X22291500Y29982501D01*
X22271816Y29915461D01*
X22219012Y29869706D01*
X22167500Y29858500D01*
X22032500Y29858500D01*
X21965461Y29878185D01*
X21919706Y29930989D01*
X21908500Y29982500D01*
X21908500Y30061232D01*
X21928185Y30128271D01*
X21944818Y30148913D01*
X21944817Y30148913D01*
X22079821Y30283916D01*
X22141140Y30317399D01*
X22210832Y30312415D01*
G37*
%TD.AperFunction*%
%TA.AperFunction,NonConductor*%
G36*
X11738703Y29034666D02*
G01*
X11748398Y29025294D01*
X11806009Y28963203D01*
X11806012Y28963200D01*
X12011143Y28799614D01*
X12238356Y28668432D01*
X12482578Y28572582D01*
X12482597Y28572576D01*
X12738374Y28514197D01*
X12738379Y28514196D01*
X12910394Y28501306D01*
X12975775Y28476667D01*
X13017456Y28420591D01*
X13022204Y28350883D01*
X13021233Y28346818D01*
X13016500Y28328384D01*
X13016500Y28307965D01*
X13014973Y28288564D01*
X13011780Y28268407D01*
X13016225Y28221383D01*
X13016500Y28215545D01*
X13016499Y24663766D01*
X12996814Y24596727D01*
X12980180Y24576085D01*
X12811182Y24407087D01*
X12798816Y24397180D01*
X12798990Y24396971D01*
X12792984Y24392003D01*
X12762183Y24359202D01*
X12745015Y24340920D01*
X12723865Y24319770D01*
X12719531Y24314183D01*
X12715745Y24309751D01*
X12702432Y24295574D01*
X12683414Y24275321D01*
X12683412Y24275319D01*
X12673578Y24257431D01*
X12662897Y24241170D01*
X12650384Y24225039D01*
X12631627Y24181693D01*
X12629056Y24176445D01*
X12614106Y24149251D01*
X12606305Y24135060D01*
X12606304Y24135056D01*
X12601228Y24115287D01*
X12594926Y24096881D01*
X12586818Y24078145D01*
X12579430Y24031496D01*
X12578245Y24025773D01*
X12566500Y23980032D01*
X12566500Y23959615D01*
X12564973Y23940214D01*
X12561780Y23920057D01*
X12566225Y23873033D01*
X12566500Y23867195D01*
X12566500Y23457500D01*
X12546815Y23390461D01*
X12494011Y23344706D01*
X12442500Y23333500D01*
X12407500Y23333500D01*
X12340461Y23353185D01*
X12294706Y23405989D01*
X12283500Y23457500D01*
X12283500Y23716505D01*
X12281252Y23745060D01*
X12280562Y23753831D01*
X12234145Y23913601D01*
X12149453Y24056807D01*
X12031807Y24174453D01*
X11888601Y24259145D01*
X11752609Y24298654D01*
X11728835Y24305561D01*
X11728833Y24305561D01*
X11728831Y24305562D01*
X11713899Y24306737D01*
X11691505Y24308500D01*
X11691502Y24308500D01*
X11138767Y24308500D01*
X11071728Y24328185D01*
X11051086Y24344819D01*
X10394819Y25001086D01*
X10361334Y25062409D01*
X10358500Y25088767D01*
X10358500Y28317500D01*
X10378185Y28384539D01*
X10430989Y28430294D01*
X10482500Y28441500D01*
X11073654Y28441500D01*
X11134202Y28448011D01*
X11134204Y28448011D01*
X11271204Y28499111D01*
X11369341Y28572576D01*
X11388261Y28586739D01*
X11475889Y28703796D01*
X11526989Y28840799D01*
X11530157Y28870270D01*
X11533499Y28901345D01*
X11533500Y28901362D01*
X11533500Y28940953D01*
X11553185Y29007992D01*
X11605989Y29053747D01*
X11675147Y29063691D01*
X11738703Y29034666D01*
G37*
%TD.AperFunction*%
%TA.AperFunction,NonConductor*%
G36*
X16738273Y20846815D02*
G01*
X16784028Y20794011D01*
X16793972Y20724853D01*
X16764947Y20661297D01*
X16758918Y20654823D01*
X16504984Y20400889D01*
X16273914Y20169819D01*
X16212591Y20136334D01*
X16186233Y20133500D01*
X12405838Y20133500D01*
X12338799Y20153185D01*
X12293044Y20205989D01*
X12282220Y20267226D01*
X12283500Y20283493D01*
X12283500Y20716507D01*
X12282220Y20732774D01*
X12296586Y20801151D01*
X12345638Y20850906D01*
X12405838Y20866500D01*
X16671234Y20866500D01*
X16738273Y20846815D01*
G37*
%TD.AperFunction*%
%TA.AperFunction,NonConductor*%
G36*
X17543333Y19544915D02*
G01*
X17587680Y19516414D01*
X17933132Y19170963D01*
X17966617Y19109640D01*
X17961633Y19039949D01*
X17919762Y18984015D01*
X17854297Y18959598D01*
X17719637Y18949967D01*
X17444982Y18890219D01*
X17181625Y18791992D01*
X17181623Y18791991D01*
X17181619Y18791989D01*
X16934932Y18657288D01*
X16934924Y18657283D01*
X16709919Y18488847D01*
X16709901Y18488831D01*
X16511168Y18290098D01*
X16511155Y18290083D01*
X16506767Y18284221D01*
X16450834Y18242349D01*
X16381143Y18237363D01*
X16319819Y18270847D01*
X16286333Y18332170D01*
X16283499Y18358530D01*
X16283499Y18600537D01*
X16283498Y18600553D01*
X16277703Y18657283D01*
X16272887Y18704426D01*
X16272886Y18704428D01*
X16272886Y18704431D01*
X16271470Y18711049D01*
X16272926Y18711360D01*
X16270791Y18773315D01*
X16306518Y18833360D01*
X16369036Y18864557D01*
X16390901Y18866500D01*
X16416366Y18866500D01*
X16432113Y18864761D01*
X16432139Y18865032D01*
X16439905Y18864298D01*
X16439908Y18864298D01*
X16439909Y18864298D01*
X16509958Y18866500D01*
X16539856Y18866500D01*
X16539859Y18866500D01*
X16546856Y18867384D01*
X16552679Y18867842D01*
X16599889Y18869326D01*
X16599891Y18869327D01*
X16619495Y18875022D01*
X16638542Y18878967D01*
X16641333Y18879319D01*
X16658797Y18881526D01*
X16658800Y18881527D01*
X16658803Y18881528D01*
X16702716Y18898914D01*
X16708244Y18900806D01*
X16753592Y18913981D01*
X16771162Y18924372D01*
X16788635Y18932932D01*
X16807617Y18940447D01*
X16845827Y18968209D01*
X16850712Y18971418D01*
X16891359Y18995456D01*
X16891362Y18995458D01*
X16905793Y19009889D01*
X16920589Y19022527D01*
X16937107Y19034528D01*
X16937109Y19034530D01*
X16944900Y19043948D01*
X16967222Y19070931D01*
X16971135Y19075231D01*
X17412318Y19516414D01*
X17473641Y19549899D01*
X17543333Y19544915D01*
G37*
%TD.AperFunction*%
%TA.AperFunction,NonConductor*%
G36*
X15978217Y17153186D02*
G01*
X16022982Y17099541D01*
X16032934Y17041289D01*
X16029981Y17000001D01*
X16029981Y16999998D01*
X16050033Y16719635D01*
X16050034Y16719628D01*
X16109779Y16444988D01*
X16163495Y16300969D01*
X16168479Y16231277D01*
X16134994Y16169954D01*
X16073671Y16136470D01*
X16003979Y16141454D01*
X15959632Y16169955D01*
X15682792Y16446795D01*
X15249765Y16879821D01*
X15216282Y16941142D01*
X15221266Y17010833D01*
X15263137Y17066767D01*
X15328602Y17091184D01*
X15337447Y17091500D01*
X15575536Y17091500D01*
X15575553Y17091501D01*
X15679427Y17102113D01*
X15847735Y17157884D01*
X15847738Y17157885D01*
X15847740Y17157886D01*
X15854286Y17160939D01*
X15855316Y17158729D01*
X15911555Y17174114D01*
X15978217Y17153186D01*
G37*
%TD.AperFunction*%
%TA.AperFunction,NonConductor*%
G36*
X20170963Y16933131D02*
G01*
X21738052Y15366042D01*
X21771537Y15304719D01*
X21766553Y15235027D01*
X21724682Y15179095D01*
X21674311Y15141387D01*
X21608847Y15116969D01*
X21540574Y15131820D01*
X21525689Y15141387D01*
X21446207Y15200887D01*
X21446206Y15200888D01*
X21446204Y15200888D01*
X21446204Y15200889D01*
X21309201Y15251989D01*
X21277623Y15255383D01*
X21248654Y15258499D01*
X21248638Y15258500D01*
X20551362Y15258500D01*
X20551345Y15258499D01*
X20520270Y15255157D01*
X20490799Y15251989D01*
X20490796Y15251988D01*
X20490795Y15251988D01*
X20442025Y15233797D01*
X20353796Y15200889D01*
X20236739Y15113261D01*
X20236738Y15113259D01*
X20236735Y15113256D01*
X20214229Y15083191D01*
X20158296Y15041319D01*
X20114961Y15033500D01*
X18984616Y15033500D01*
X18917577Y15053185D01*
X18871822Y15105989D01*
X18861878Y15175147D01*
X18890903Y15238703D01*
X18925189Y15266332D01*
X19065067Y15342711D01*
X19065075Y15342716D01*
X19290080Y15511152D01*
X19290098Y15511168D01*
X19488831Y15709901D01*
X19488847Y15709919D01*
X19657283Y15934924D01*
X19657288Y15934932D01*
X19791989Y16181619D01*
X19791991Y16181623D01*
X19791992Y16181625D01*
X19890219Y16444982D01*
X19949967Y16719637D01*
X19959598Y16854296D01*
X19984015Y16919760D01*
X20039948Y16961632D01*
X20109640Y16966616D01*
X20170963Y16933131D01*
G37*
%TD.AperFunction*%
%TA.AperFunction,NonConductor*%
G36*
X22210833Y13312414D02*
G01*
X22266766Y13270542D01*
X22291183Y13205078D01*
X22291499Y13196233D01*
X22291500Y12982501D01*
X22271816Y12915461D01*
X22219012Y12869706D01*
X22167500Y12858500D01*
X22032500Y12858500D01*
X21965461Y12878185D01*
X21919706Y12930989D01*
X21908500Y12982500D01*
X21908500Y13061233D01*
X21928185Y13128272D01*
X21944819Y13148914D01*
X22079818Y13283913D01*
X22141141Y13317398D01*
X22210833Y13312414D01*
G37*
%TD.AperFunction*%
%TA.AperFunction,NonConductor*%
G36*
X16090646Y858544D02*
G01*
X16146579Y816672D01*
X16170996Y751208D01*
X16163494Y699029D01*
X16109781Y555018D01*
X16109780Y555014D01*
X16109779Y555011D01*
X16050034Y280371D01*
X16050033Y280364D01*
X16029981Y1D01*
X16029981Y-1D01*
X16050033Y-280364D01*
X16050034Y-280371D01*
X16109779Y-555011D01*
X16109781Y-555018D01*
X16155589Y-677834D01*
X16208008Y-818376D01*
X16208010Y-818380D01*
X16342711Y-1065067D01*
X16342716Y-1065075D01*
X16511152Y-1290080D01*
X16511168Y-1290098D01*
X16709901Y-1488831D01*
X16709919Y-1488847D01*
X16934924Y-1657283D01*
X16934932Y-1657288D01*
X17074811Y-1733668D01*
X17124216Y-1783073D01*
X17139068Y-1851346D01*
X17114651Y-1916810D01*
X17058717Y-1958682D01*
X17015384Y-1966500D01*
X14815416Y-1966500D01*
X14748377Y-1946815D01*
X14727735Y-1930181D01*
X14198968Y-1401413D01*
X14165483Y-1340090D01*
X14162649Y-1313732D01*
X14162649Y-1018301D01*
X14182334Y-951262D01*
X14198968Y-930620D01*
X15959631Y830043D01*
X16020954Y863528D01*
X16090646Y858544D01*
G37*
%TD.AperFunction*%
M02*
