M48
; DRILL file {KiCad 7.0.6-0} date 2023 August 01, Tuesday 13:24:19
; FORMAT={-:-/ absolute / inch / decimal}
; #@! TF.CreationDate,2023-08-01T13:24:19+08:00
; #@! TF.GenerationSoftware,Kicad,Pcbnew,7.0.6-0
; #@! TF.FileFunction,NonPlated,1,2,NPTH
FMAT,2
INCH
; #@! TA.AperFunction,NonPlated,NPTH,ComponentDrill
T1C0.0670
; #@! TA.AperFunction,NonPlated,NPTH,ComponentDrill
T2C0.0866
; #@! TA.AperFunction,NonPlated,NPTH,ComponentDrill
T3C0.1181
; #@! TA.AperFunction,NonPlated,NPTH,ComponentDrill
T4C0.1350
%
G90
G05
T1
X-0.2165Y1.3386
X-0.2165Y0.6693
X-0.2165Y0.0
X0.2165Y1.3386
X0.2165Y0.6693
X0.2165Y0.0
X0.4921Y1.3386
X0.4921Y0.6693
X0.4921Y0.0
X0.9252Y1.3386
X0.9252Y0.6693
X0.9252Y0.0
T2
X0.3543Y1.3386
X0.3543Y0.0
T3
X0.0Y1.5728
X0.0Y0.9035
X0.0Y0.2343
X0.1969Y1.4862
X0.1969Y0.8169
X0.1969Y0.1476
X0.5118Y1.1909
X0.5118Y0.5217
X0.5118Y-0.1476
X0.7087Y1.1043
X0.7087Y0.435
X0.7087Y-0.2343
T4
X0.0Y1.3386
X0.0Y0.6693
X0.0Y0.0
X0.7087Y1.3386
X0.7087Y0.6693
X0.7087Y0.0
T0
M30
