%TF.GenerationSoftware,KiCad,Pcbnew,7.0.6-0*%
%TF.CreationDate,2023-08-01T13:24:21+08:00*%
%TF.ProjectId,thumb,7468756d-622e-46b6-9963-61645f706362,v1.0.0*%
%TF.SameCoordinates,Original*%
%TF.FileFunction,Legend,Top*%
%TF.FilePolarity,Positive*%
%FSLAX46Y46*%
G04 Gerber Fmt 4.6, Leading zero omitted, Abs format (unit mm)*
G04 Created by KiCad (PCBNEW 7.0.6-0) date 2023-08-01 13:24:21*
%MOMM*%
%LPD*%
G01*
G04 APERTURE LIST*
%ADD10C,0.150000*%
G04 APERTURE END LIST*
D10*
X25431009Y10142855D02*
X25431009Y9809522D01*
X25954819Y9809522D02*
X24954819Y9809522D01*
X24954819Y9809522D02*
X24954819Y10285712D01*
X25954819Y10809522D02*
X25907200Y10714284D01*
X25907200Y10714284D02*
X25811961Y10666665D01*
X25811961Y10666665D02*
X24954819Y10666665D01*
X25954819Y11619046D02*
X25431009Y11619046D01*
X25431009Y11619046D02*
X25335771Y11571427D01*
X25335771Y11571427D02*
X25288152Y11476189D01*
X25288152Y11476189D02*
X25288152Y11285713D01*
X25288152Y11285713D02*
X25335771Y11190475D01*
X25907200Y11619046D02*
X25954819Y11523808D01*
X25954819Y11523808D02*
X25954819Y11285713D01*
X25954819Y11285713D02*
X25907200Y11190475D01*
X25907200Y11190475D02*
X25811961Y11142856D01*
X25811961Y11142856D02*
X25716723Y11142856D01*
X25716723Y11142856D02*
X25621485Y11190475D01*
X25621485Y11190475D02*
X25573866Y11285713D01*
X25573866Y11285713D02*
X25573866Y11523808D01*
X25573866Y11523808D02*
X25526247Y11619046D01*
X25907200Y12523808D02*
X25954819Y12428570D01*
X25954819Y12428570D02*
X25954819Y12238094D01*
X25954819Y12238094D02*
X25907200Y12142856D01*
X25907200Y12142856D02*
X25859580Y12095237D01*
X25859580Y12095237D02*
X25764342Y12047618D01*
X25764342Y12047618D02*
X25478628Y12047618D01*
X25478628Y12047618D02*
X25383390Y12095237D01*
X25383390Y12095237D02*
X25335771Y12142856D01*
X25335771Y12142856D02*
X25288152Y12238094D01*
X25288152Y12238094D02*
X25288152Y12428570D01*
X25288152Y12428570D02*
X25335771Y12523808D01*
X25288152Y12809523D02*
X25288152Y13190475D01*
X24954819Y12952380D02*
X25811961Y12952380D01*
X25811961Y12952380D02*
X25907200Y12999999D01*
X25907200Y12999999D02*
X25954819Y13095237D01*
X25954819Y13095237D02*
X25954819Y13190475D01*
X25288152Y13428571D02*
X25954819Y13666666D01*
X25288152Y13904761D02*
X25954819Y13666666D01*
X25954819Y13666666D02*
X26192914Y13571428D01*
X26192914Y13571428D02*
X26240533Y13523809D01*
X26240533Y13523809D02*
X26288152Y13428571D01*
X25954819Y14428571D02*
X25907200Y14333333D01*
X25907200Y14333333D02*
X25811961Y14285714D01*
X25811961Y14285714D02*
X24954819Y14285714D01*
X24954819Y16047619D02*
X24954819Y15571429D01*
X24954819Y15571429D02*
X25431009Y15523810D01*
X25431009Y15523810D02*
X25383390Y15571429D01*
X25383390Y15571429D02*
X25335771Y15666667D01*
X25335771Y15666667D02*
X25335771Y15904762D01*
X25335771Y15904762D02*
X25383390Y16000000D01*
X25383390Y16000000D02*
X25431009Y16047619D01*
X25431009Y16047619D02*
X25526247Y16095238D01*
X25526247Y16095238D02*
X25764342Y16095238D01*
X25764342Y16095238D02*
X25859580Y16047619D01*
X25859580Y16047619D02*
X25907200Y16000000D01*
X25907200Y16000000D02*
X25954819Y15904762D01*
X25954819Y15904762D02*
X25954819Y15666667D01*
X25954819Y15666667D02*
X25907200Y15571429D01*
X25907200Y15571429D02*
X25859580Y15523810D01*
X25859580Y16523810D02*
X25907200Y16571429D01*
X25907200Y16571429D02*
X25954819Y16523810D01*
X25954819Y16523810D02*
X25907200Y16476191D01*
X25907200Y16476191D02*
X25859580Y16523810D01*
X25859580Y16523810D02*
X25954819Y16523810D01*
X25954819Y17523809D02*
X25954819Y16952381D01*
X25954819Y17238095D02*
X24954819Y17238095D01*
X24954819Y17238095D02*
X25097676Y17142857D01*
X25097676Y17142857D02*
X25192914Y17047619D01*
X25192914Y17047619D02*
X25240533Y16952381D01*
X26335771Y19000000D02*
X26288152Y18952381D01*
X26288152Y18952381D02*
X26145295Y18857143D01*
X26145295Y18857143D02*
X26050057Y18809524D01*
X26050057Y18809524D02*
X25907200Y18761905D01*
X25907200Y18761905D02*
X25669104Y18714286D01*
X25669104Y18714286D02*
X25478628Y18714286D01*
X25478628Y18714286D02*
X25240533Y18761905D01*
X25240533Y18761905D02*
X25097676Y18809524D01*
X25097676Y18809524D02*
X25002438Y18857143D01*
X25002438Y18857143D02*
X24859580Y18952381D01*
X24859580Y18952381D02*
X24811961Y19000000D01*
X25288152Y19238096D02*
X25288152Y19619048D01*
X24954819Y19380953D02*
X25811961Y19380953D01*
X25811961Y19380953D02*
X25907200Y19428572D01*
X25907200Y19428572D02*
X25954819Y19523810D01*
X25954819Y19523810D02*
X25954819Y19619048D01*
X25954819Y19952382D02*
X24954819Y19952382D01*
X25954819Y20380953D02*
X25431009Y20380953D01*
X25431009Y20380953D02*
X25335771Y20333334D01*
X25335771Y20333334D02*
X25288152Y20238096D01*
X25288152Y20238096D02*
X25288152Y20095239D01*
X25288152Y20095239D02*
X25335771Y20000001D01*
X25335771Y20000001D02*
X25383390Y19952382D01*
X25288152Y21285715D02*
X25954819Y21285715D01*
X25288152Y20857144D02*
X25811961Y20857144D01*
X25811961Y20857144D02*
X25907200Y20904763D01*
X25907200Y20904763D02*
X25954819Y21000001D01*
X25954819Y21000001D02*
X25954819Y21142858D01*
X25954819Y21142858D02*
X25907200Y21238096D01*
X25907200Y21238096D02*
X25859580Y21285715D01*
X25954819Y21761906D02*
X25288152Y21761906D01*
X25383390Y21761906D02*
X25335771Y21809525D01*
X25335771Y21809525D02*
X25288152Y21904763D01*
X25288152Y21904763D02*
X25288152Y22047620D01*
X25288152Y22047620D02*
X25335771Y22142858D01*
X25335771Y22142858D02*
X25431009Y22190477D01*
X25431009Y22190477D02*
X25954819Y22190477D01*
X25431009Y22190477D02*
X25335771Y22238096D01*
X25335771Y22238096D02*
X25288152Y22333334D01*
X25288152Y22333334D02*
X25288152Y22476191D01*
X25288152Y22476191D02*
X25335771Y22571430D01*
X25335771Y22571430D02*
X25431009Y22619049D01*
X25431009Y22619049D02*
X25954819Y22619049D01*
X25954819Y23095239D02*
X24954819Y23095239D01*
X25335771Y23095239D02*
X25288152Y23190477D01*
X25288152Y23190477D02*
X25288152Y23380953D01*
X25288152Y23380953D02*
X25335771Y23476191D01*
X25335771Y23476191D02*
X25383390Y23523810D01*
X25383390Y23523810D02*
X25478628Y23571429D01*
X25478628Y23571429D02*
X25764342Y23571429D01*
X25764342Y23571429D02*
X25859580Y23523810D01*
X25859580Y23523810D02*
X25907200Y23476191D01*
X25907200Y23476191D02*
X25954819Y23380953D01*
X25954819Y23380953D02*
X25954819Y23190477D01*
X25954819Y23190477D02*
X25907200Y23095239D01*
X26335771Y23904763D02*
X26288152Y23952382D01*
X26288152Y23952382D02*
X26145295Y24047620D01*
X26145295Y24047620D02*
X26050057Y24095239D01*
X26050057Y24095239D02*
X25907200Y24142858D01*
X25907200Y24142858D02*
X25669104Y24190477D01*
X25669104Y24190477D02*
X25478628Y24190477D01*
X25478628Y24190477D02*
X25240533Y24142858D01*
X25240533Y24142858D02*
X25097676Y24095239D01*
X25097676Y24095239D02*
X25002438Y24047620D01*
X25002438Y24047620D02*
X24859580Y23952382D01*
X24859580Y23952382D02*
X24811961Y23904763D01*
X16476190Y30640419D02*
X16428571Y30592800D01*
X16428571Y30592800D02*
X16285714Y30545180D01*
X16285714Y30545180D02*
X16190476Y30545180D01*
X16190476Y30545180D02*
X16047619Y30592800D01*
X16047619Y30592800D02*
X15952381Y30688038D01*
X15952381Y30688038D02*
X15904762Y30783276D01*
X15904762Y30783276D02*
X15857143Y30973752D01*
X15857143Y30973752D02*
X15857143Y31116609D01*
X15857143Y31116609D02*
X15904762Y31307085D01*
X15904762Y31307085D02*
X15952381Y31402323D01*
X15952381Y31402323D02*
X16047619Y31497561D01*
X16047619Y31497561D02*
X16190476Y31545180D01*
X16190476Y31545180D02*
X16285714Y31545180D01*
X16285714Y31545180D02*
X16428571Y31497561D01*
X16428571Y31497561D02*
X16476190Y31449942D01*
X17380952Y31545180D02*
X16904762Y31545180D01*
X16904762Y31545180D02*
X16857143Y31068990D01*
X16857143Y31068990D02*
X16904762Y31116609D01*
X16904762Y31116609D02*
X17000000Y31164228D01*
X17000000Y31164228D02*
X17238095Y31164228D01*
X17238095Y31164228D02*
X17333333Y31116609D01*
X17333333Y31116609D02*
X17380952Y31068990D01*
X17380952Y31068990D02*
X17428571Y30973752D01*
X17428571Y30973752D02*
X17428571Y30735657D01*
X17428571Y30735657D02*
X17380952Y30640419D01*
X17380952Y30640419D02*
X17333333Y30592800D01*
X17333333Y30592800D02*
X17238095Y30545180D01*
X17238095Y30545180D02*
X17000000Y30545180D01*
X17000000Y30545180D02*
X16904762Y30592800D01*
X16904762Y30592800D02*
X16857143Y30640419D01*
X17619048Y30449942D02*
X18380952Y30449942D01*
X19190476Y30545180D02*
X18857143Y31021371D01*
X18619048Y30545180D02*
X18619048Y31545180D01*
X18619048Y31545180D02*
X19000000Y31545180D01*
X19000000Y31545180D02*
X19095238Y31497561D01*
X19095238Y31497561D02*
X19142857Y31449942D01*
X19142857Y31449942D02*
X19190476Y31354704D01*
X19190476Y31354704D02*
X19190476Y31211847D01*
X19190476Y31211847D02*
X19142857Y31116609D01*
X19142857Y31116609D02*
X19095238Y31068990D01*
X19095238Y31068990D02*
X19000000Y31021371D01*
X19000000Y31021371D02*
X18619048Y31021371D01*
X19809524Y31545180D02*
X19904762Y31545180D01*
X19904762Y31545180D02*
X20000000Y31497561D01*
X20000000Y31497561D02*
X20047619Y31449942D01*
X20047619Y31449942D02*
X20095238Y31354704D01*
X20095238Y31354704D02*
X20142857Y31164228D01*
X20142857Y31164228D02*
X20142857Y30926133D01*
X20142857Y30926133D02*
X20095238Y30735657D01*
X20095238Y30735657D02*
X20047619Y30640419D01*
X20047619Y30640419D02*
X20000000Y30592800D01*
X20000000Y30592800D02*
X19904762Y30545180D01*
X19904762Y30545180D02*
X19809524Y30545180D01*
X19809524Y30545180D02*
X19714286Y30592800D01*
X19714286Y30592800D02*
X19666667Y30640419D01*
X19666667Y30640419D02*
X19619048Y30735657D01*
X19619048Y30735657D02*
X19571429Y30926133D01*
X19571429Y30926133D02*
X19571429Y31164228D01*
X19571429Y31164228D02*
X19619048Y31354704D01*
X19619048Y31354704D02*
X19666667Y31449942D01*
X19666667Y31449942D02*
X19714286Y31497561D01*
X19714286Y31497561D02*
X19809524Y31545180D01*
X16476190Y13640419D02*
X16428571Y13592800D01*
X16428571Y13592800D02*
X16285714Y13545180D01*
X16285714Y13545180D02*
X16190476Y13545180D01*
X16190476Y13545180D02*
X16047619Y13592800D01*
X16047619Y13592800D02*
X15952381Y13688038D01*
X15952381Y13688038D02*
X15904762Y13783276D01*
X15904762Y13783276D02*
X15857143Y13973752D01*
X15857143Y13973752D02*
X15857143Y14116609D01*
X15857143Y14116609D02*
X15904762Y14307085D01*
X15904762Y14307085D02*
X15952381Y14402323D01*
X15952381Y14402323D02*
X16047619Y14497561D01*
X16047619Y14497561D02*
X16190476Y14545180D01*
X16190476Y14545180D02*
X16285714Y14545180D01*
X16285714Y14545180D02*
X16428571Y14497561D01*
X16428571Y14497561D02*
X16476190Y14449942D01*
X17380952Y14545180D02*
X16904762Y14545180D01*
X16904762Y14545180D02*
X16857143Y14068990D01*
X16857143Y14068990D02*
X16904762Y14116609D01*
X16904762Y14116609D02*
X17000000Y14164228D01*
X17000000Y14164228D02*
X17238095Y14164228D01*
X17238095Y14164228D02*
X17333333Y14116609D01*
X17333333Y14116609D02*
X17380952Y14068990D01*
X17380952Y14068990D02*
X17428571Y13973752D01*
X17428571Y13973752D02*
X17428571Y13735657D01*
X17428571Y13735657D02*
X17380952Y13640419D01*
X17380952Y13640419D02*
X17333333Y13592800D01*
X17333333Y13592800D02*
X17238095Y13545180D01*
X17238095Y13545180D02*
X17000000Y13545180D01*
X17000000Y13545180D02*
X16904762Y13592800D01*
X16904762Y13592800D02*
X16857143Y13640419D01*
X17619048Y13449942D02*
X18380952Y13449942D01*
X19190476Y13545180D02*
X18857143Y14021371D01*
X18619048Y13545180D02*
X18619048Y14545180D01*
X18619048Y14545180D02*
X19000000Y14545180D01*
X19000000Y14545180D02*
X19095238Y14497561D01*
X19095238Y14497561D02*
X19142857Y14449942D01*
X19142857Y14449942D02*
X19190476Y14354704D01*
X19190476Y14354704D02*
X19190476Y14211847D01*
X19190476Y14211847D02*
X19142857Y14116609D01*
X19142857Y14116609D02*
X19095238Y14068990D01*
X19095238Y14068990D02*
X19000000Y14021371D01*
X19000000Y14021371D02*
X18619048Y14021371D01*
X20142857Y13545180D02*
X19571429Y13545180D01*
X19857143Y13545180D02*
X19857143Y14545180D01*
X19857143Y14545180D02*
X19761905Y14402323D01*
X19761905Y14402323D02*
X19666667Y14307085D01*
X19666667Y14307085D02*
X19571429Y14259466D01*
X16476190Y-3359580D02*
X16428571Y-3407200D01*
X16428571Y-3407200D02*
X16285714Y-3454819D01*
X16285714Y-3454819D02*
X16190476Y-3454819D01*
X16190476Y-3454819D02*
X16047619Y-3407200D01*
X16047619Y-3407200D02*
X15952381Y-3311961D01*
X15952381Y-3311961D02*
X15904762Y-3216723D01*
X15904762Y-3216723D02*
X15857143Y-3026247D01*
X15857143Y-3026247D02*
X15857143Y-2883390D01*
X15857143Y-2883390D02*
X15904762Y-2692914D01*
X15904762Y-2692914D02*
X15952381Y-2597676D01*
X15952381Y-2597676D02*
X16047619Y-2502438D01*
X16047619Y-2502438D02*
X16190476Y-2454819D01*
X16190476Y-2454819D02*
X16285714Y-2454819D01*
X16285714Y-2454819D02*
X16428571Y-2502438D01*
X16428571Y-2502438D02*
X16476190Y-2550057D01*
X17380952Y-2454819D02*
X16904762Y-2454819D01*
X16904762Y-2454819D02*
X16857143Y-2931009D01*
X16857143Y-2931009D02*
X16904762Y-2883390D01*
X16904762Y-2883390D02*
X17000000Y-2835771D01*
X17000000Y-2835771D02*
X17238095Y-2835771D01*
X17238095Y-2835771D02*
X17333333Y-2883390D01*
X17333333Y-2883390D02*
X17380952Y-2931009D01*
X17380952Y-2931009D02*
X17428571Y-3026247D01*
X17428571Y-3026247D02*
X17428571Y-3264342D01*
X17428571Y-3264342D02*
X17380952Y-3359580D01*
X17380952Y-3359580D02*
X17333333Y-3407200D01*
X17333333Y-3407200D02*
X17238095Y-3454819D01*
X17238095Y-3454819D02*
X17000000Y-3454819D01*
X17000000Y-3454819D02*
X16904762Y-3407200D01*
X16904762Y-3407200D02*
X16857143Y-3359580D01*
X17619048Y-3550057D02*
X18380952Y-3550057D01*
X19190476Y-3454819D02*
X18857143Y-2978628D01*
X18619048Y-3454819D02*
X18619048Y-2454819D01*
X18619048Y-2454819D02*
X19000000Y-2454819D01*
X19000000Y-2454819D02*
X19095238Y-2502438D01*
X19095238Y-2502438D02*
X19142857Y-2550057D01*
X19142857Y-2550057D02*
X19190476Y-2645295D01*
X19190476Y-2645295D02*
X19190476Y-2788152D01*
X19190476Y-2788152D02*
X19142857Y-2883390D01*
X19142857Y-2883390D02*
X19095238Y-2931009D01*
X19095238Y-2931009D02*
X19000000Y-2978628D01*
X19000000Y-2978628D02*
X18619048Y-2978628D01*
X19571429Y-2550057D02*
X19619048Y-2502438D01*
X19619048Y-2502438D02*
X19714286Y-2454819D01*
X19714286Y-2454819D02*
X19952381Y-2454819D01*
X19952381Y-2454819D02*
X20047619Y-2502438D01*
X20047619Y-2502438D02*
X20095238Y-2550057D01*
X20095238Y-2550057D02*
X20142857Y-2645295D01*
X20142857Y-2645295D02*
X20142857Y-2740533D01*
X20142857Y-2740533D02*
X20095238Y-2883390D01*
X20095238Y-2883390D02*
X19523810Y-3454819D01*
X19523810Y-3454819D02*
X20142857Y-3454819D01*
X-1523809Y36640419D02*
X-1571428Y36592800D01*
X-1571428Y36592800D02*
X-1714285Y36545180D01*
X-1714285Y36545180D02*
X-1809523Y36545180D01*
X-1809523Y36545180D02*
X-1952380Y36592800D01*
X-1952380Y36592800D02*
X-2047618Y36688038D01*
X-2047618Y36688038D02*
X-2095237Y36783276D01*
X-2095237Y36783276D02*
X-2142856Y36973752D01*
X-2142856Y36973752D02*
X-2142856Y37116609D01*
X-2142856Y37116609D02*
X-2095237Y37307085D01*
X-2095237Y37307085D02*
X-2047618Y37402323D01*
X-2047618Y37402323D02*
X-1952380Y37497561D01*
X-1952380Y37497561D02*
X-1809523Y37545180D01*
X-1809523Y37545180D02*
X-1714285Y37545180D01*
X-1714285Y37545180D02*
X-1571428Y37497561D01*
X-1571428Y37497561D02*
X-1523809Y37449942D01*
X-666666Y37545180D02*
X-857142Y37545180D01*
X-857142Y37545180D02*
X-952380Y37497561D01*
X-952380Y37497561D02*
X-999999Y37449942D01*
X-999999Y37449942D02*
X-1095237Y37307085D01*
X-1095237Y37307085D02*
X-1142856Y37116609D01*
X-1142856Y37116609D02*
X-1142856Y36735657D01*
X-1142856Y36735657D02*
X-1095237Y36640419D01*
X-1095237Y36640419D02*
X-1047618Y36592800D01*
X-1047618Y36592800D02*
X-952380Y36545180D01*
X-952380Y36545180D02*
X-761904Y36545180D01*
X-761904Y36545180D02*
X-666666Y36592800D01*
X-666666Y36592800D02*
X-619047Y36640419D01*
X-619047Y36640419D02*
X-571428Y36735657D01*
X-571428Y36735657D02*
X-571428Y36973752D01*
X-571428Y36973752D02*
X-619047Y37068990D01*
X-619047Y37068990D02*
X-666666Y37116609D01*
X-666666Y37116609D02*
X-761904Y37164228D01*
X-761904Y37164228D02*
X-952380Y37164228D01*
X-952380Y37164228D02*
X-1047618Y37116609D01*
X-1047618Y37116609D02*
X-1095237Y37068990D01*
X-1095237Y37068990D02*
X-1142856Y36973752D01*
X-380952Y36449942D02*
X380952Y36449942D01*
X1190476Y36545180D02*
X857143Y37021371D01*
X619048Y36545180D02*
X619048Y37545180D01*
X619048Y37545180D02*
X1000000Y37545180D01*
X1000000Y37545180D02*
X1095238Y37497561D01*
X1095238Y37497561D02*
X1142857Y37449942D01*
X1142857Y37449942D02*
X1190476Y37354704D01*
X1190476Y37354704D02*
X1190476Y37211847D01*
X1190476Y37211847D02*
X1142857Y37116609D01*
X1142857Y37116609D02*
X1095238Y37068990D01*
X1095238Y37068990D02*
X1000000Y37021371D01*
X1000000Y37021371D02*
X619048Y37021371D01*
X1809524Y37545180D02*
X1904762Y37545180D01*
X1904762Y37545180D02*
X2000000Y37497561D01*
X2000000Y37497561D02*
X2047619Y37449942D01*
X2047619Y37449942D02*
X2095238Y37354704D01*
X2095238Y37354704D02*
X2142857Y37164228D01*
X2142857Y37164228D02*
X2142857Y36926133D01*
X2142857Y36926133D02*
X2095238Y36735657D01*
X2095238Y36735657D02*
X2047619Y36640419D01*
X2047619Y36640419D02*
X2000000Y36592800D01*
X2000000Y36592800D02*
X1904762Y36545180D01*
X1904762Y36545180D02*
X1809524Y36545180D01*
X1809524Y36545180D02*
X1714286Y36592800D01*
X1714286Y36592800D02*
X1666667Y36640419D01*
X1666667Y36640419D02*
X1619048Y36735657D01*
X1619048Y36735657D02*
X1571429Y36926133D01*
X1571429Y36926133D02*
X1571429Y37164228D01*
X1571429Y37164228D02*
X1619048Y37354704D01*
X1619048Y37354704D02*
X1666667Y37449942D01*
X1666667Y37449942D02*
X1714286Y37497561D01*
X1714286Y37497561D02*
X1809524Y37545180D01*
X-1523809Y19640419D02*
X-1571428Y19592800D01*
X-1571428Y19592800D02*
X-1714285Y19545180D01*
X-1714285Y19545180D02*
X-1809523Y19545180D01*
X-1809523Y19545180D02*
X-1952380Y19592800D01*
X-1952380Y19592800D02*
X-2047618Y19688038D01*
X-2047618Y19688038D02*
X-2095237Y19783276D01*
X-2095237Y19783276D02*
X-2142856Y19973752D01*
X-2142856Y19973752D02*
X-2142856Y20116609D01*
X-2142856Y20116609D02*
X-2095237Y20307085D01*
X-2095237Y20307085D02*
X-2047618Y20402323D01*
X-2047618Y20402323D02*
X-1952380Y20497561D01*
X-1952380Y20497561D02*
X-1809523Y20545180D01*
X-1809523Y20545180D02*
X-1714285Y20545180D01*
X-1714285Y20545180D02*
X-1571428Y20497561D01*
X-1571428Y20497561D02*
X-1523809Y20449942D01*
X-666666Y20545180D02*
X-857142Y20545180D01*
X-857142Y20545180D02*
X-952380Y20497561D01*
X-952380Y20497561D02*
X-999999Y20449942D01*
X-999999Y20449942D02*
X-1095237Y20307085D01*
X-1095237Y20307085D02*
X-1142856Y20116609D01*
X-1142856Y20116609D02*
X-1142856Y19735657D01*
X-1142856Y19735657D02*
X-1095237Y19640419D01*
X-1095237Y19640419D02*
X-1047618Y19592800D01*
X-1047618Y19592800D02*
X-952380Y19545180D01*
X-952380Y19545180D02*
X-761904Y19545180D01*
X-761904Y19545180D02*
X-666666Y19592800D01*
X-666666Y19592800D02*
X-619047Y19640419D01*
X-619047Y19640419D02*
X-571428Y19735657D01*
X-571428Y19735657D02*
X-571428Y19973752D01*
X-571428Y19973752D02*
X-619047Y20068990D01*
X-619047Y20068990D02*
X-666666Y20116609D01*
X-666666Y20116609D02*
X-761904Y20164228D01*
X-761904Y20164228D02*
X-952380Y20164228D01*
X-952380Y20164228D02*
X-1047618Y20116609D01*
X-1047618Y20116609D02*
X-1095237Y20068990D01*
X-1095237Y20068990D02*
X-1142856Y19973752D01*
X-380952Y19449942D02*
X380952Y19449942D01*
X1190476Y19545180D02*
X857143Y20021371D01*
X619048Y19545180D02*
X619048Y20545180D01*
X619048Y20545180D02*
X1000000Y20545180D01*
X1000000Y20545180D02*
X1095238Y20497561D01*
X1095238Y20497561D02*
X1142857Y20449942D01*
X1142857Y20449942D02*
X1190476Y20354704D01*
X1190476Y20354704D02*
X1190476Y20211847D01*
X1190476Y20211847D02*
X1142857Y20116609D01*
X1142857Y20116609D02*
X1095238Y20068990D01*
X1095238Y20068990D02*
X1000000Y20021371D01*
X1000000Y20021371D02*
X619048Y20021371D01*
X2142857Y19545180D02*
X1571429Y19545180D01*
X1857143Y19545180D02*
X1857143Y20545180D01*
X1857143Y20545180D02*
X1761905Y20402323D01*
X1761905Y20402323D02*
X1666667Y20307085D01*
X1666667Y20307085D02*
X1571429Y20259466D01*
X-1523809Y2640419D02*
X-1571428Y2592800D01*
X-1571428Y2592800D02*
X-1714285Y2545180D01*
X-1714285Y2545180D02*
X-1809523Y2545180D01*
X-1809523Y2545180D02*
X-1952380Y2592800D01*
X-1952380Y2592800D02*
X-2047618Y2688038D01*
X-2047618Y2688038D02*
X-2095237Y2783276D01*
X-2095237Y2783276D02*
X-2142856Y2973752D01*
X-2142856Y2973752D02*
X-2142856Y3116609D01*
X-2142856Y3116609D02*
X-2095237Y3307085D01*
X-2095237Y3307085D02*
X-2047618Y3402323D01*
X-2047618Y3402323D02*
X-1952380Y3497561D01*
X-1952380Y3497561D02*
X-1809523Y3545180D01*
X-1809523Y3545180D02*
X-1714285Y3545180D01*
X-1714285Y3545180D02*
X-1571428Y3497561D01*
X-1571428Y3497561D02*
X-1523809Y3449942D01*
X-666666Y3545180D02*
X-857142Y3545180D01*
X-857142Y3545180D02*
X-952380Y3497561D01*
X-952380Y3497561D02*
X-999999Y3449942D01*
X-999999Y3449942D02*
X-1095237Y3307085D01*
X-1095237Y3307085D02*
X-1142856Y3116609D01*
X-1142856Y3116609D02*
X-1142856Y2735657D01*
X-1142856Y2735657D02*
X-1095237Y2640419D01*
X-1095237Y2640419D02*
X-1047618Y2592800D01*
X-1047618Y2592800D02*
X-952380Y2545180D01*
X-952380Y2545180D02*
X-761904Y2545180D01*
X-761904Y2545180D02*
X-666666Y2592800D01*
X-666666Y2592800D02*
X-619047Y2640419D01*
X-619047Y2640419D02*
X-571428Y2735657D01*
X-571428Y2735657D02*
X-571428Y2973752D01*
X-571428Y2973752D02*
X-619047Y3068990D01*
X-619047Y3068990D02*
X-666666Y3116609D01*
X-666666Y3116609D02*
X-761904Y3164228D01*
X-761904Y3164228D02*
X-952380Y3164228D01*
X-952380Y3164228D02*
X-1047618Y3116609D01*
X-1047618Y3116609D02*
X-1095237Y3068990D01*
X-1095237Y3068990D02*
X-1142856Y2973752D01*
X-380952Y2449942D02*
X380952Y2449942D01*
X1190476Y2545180D02*
X857143Y3021371D01*
X619048Y2545180D02*
X619048Y3545180D01*
X619048Y3545180D02*
X1000000Y3545180D01*
X1000000Y3545180D02*
X1095238Y3497561D01*
X1095238Y3497561D02*
X1142857Y3449942D01*
X1142857Y3449942D02*
X1190476Y3354704D01*
X1190476Y3354704D02*
X1190476Y3211847D01*
X1190476Y3211847D02*
X1142857Y3116609D01*
X1142857Y3116609D02*
X1095238Y3068990D01*
X1095238Y3068990D02*
X1000000Y3021371D01*
X1000000Y3021371D02*
X619048Y3021371D01*
X1571429Y3449942D02*
X1619048Y3497561D01*
X1619048Y3497561D02*
X1714286Y3545180D01*
X1714286Y3545180D02*
X1952381Y3545180D01*
X1952381Y3545180D02*
X2047619Y3497561D01*
X2047619Y3497561D02*
X2095238Y3449942D01*
X2095238Y3449942D02*
X2142857Y3354704D01*
X2142857Y3354704D02*
X2142857Y3259466D01*
X2142857Y3259466D02*
X2095238Y3116609D01*
X2095238Y3116609D02*
X1523810Y2545180D01*
X1523810Y2545180D02*
X2142857Y2545180D01*
M02*
