%TF.GenerationSoftware,KiCad,Pcbnew,7.0.6-0*%
%TF.CreationDate,2023-08-01T13:24:21+08:00*%
%TF.ProjectId,thumb,7468756d-622e-46b6-9963-61645f706362,v1.0.0*%
%TF.SameCoordinates,Original*%
%TF.FileFunction,Copper,L1,Top*%
%TF.FilePolarity,Positive*%
%FSLAX46Y46*%
G04 Gerber Fmt 4.6, Leading zero omitted, Abs format (unit mm)*
G04 Created by KiCad (PCBNEW 7.0.6-0) date 2023-08-01 13:24:21*
%MOMM*%
%LPD*%
G01*
G04 APERTURE LIST*
%TA.AperFunction,ComponentPad*%
%ADD10C,0.600000*%
%TD*%
%TA.AperFunction,Conductor*%
%ADD11C,0.250000*%
%TD*%
G04 APERTURE END LIST*
D10*
%TO.P,S1,3*%
%TO.N,C5_R0D*%
X21275000Y28050000D03*
%TO.P,S1,4*%
%TO.N,C5*%
X9725000Y30250000D03*
%TD*%
%TO.P,S2,3*%
%TO.N,C5_R1D*%
X21275000Y11050000D03*
%TO.P,S2,4*%
%TO.N,C5*%
X9725000Y13250000D03*
%TD*%
%TO.P,S3,3*%
%TO.N,C5_R2D*%
X21275000Y-5950000D03*
%TO.P,S3,4*%
%TO.N,C5*%
X9725000Y-3750000D03*
%TD*%
%TO.P,S4,3*%
%TO.N,C6_R0D*%
X-3275000Y39950000D03*
%TO.P,S4,4*%
%TO.N,C6*%
X8275000Y37750000D03*
%TD*%
%TO.P,S5,3*%
%TO.N,C6_R1D*%
X-3275000Y22950000D03*
%TO.P,S5,4*%
%TO.N,C6*%
X8275000Y20750000D03*
%TD*%
%TO.P,S6,3*%
%TO.N,C6_R2D*%
X-3275000Y5950000D03*
%TO.P,S6,4*%
%TO.N,C6*%
X8275000Y3750000D03*
%TD*%
D11*
%TO.N,C5*%
X13800000Y9175000D02*
X9725000Y13250000D01*
X13007784Y-1225900D02*
X13800000Y-433684D01*
X13800000Y-433684D02*
X13800000Y9175000D01*
X9725000Y-3750000D02*
X12249100Y-1225900D01*
X12249100Y-1225900D02*
X13007784Y-1225900D01*
X9725000Y13250000D02*
X9725000Y30250000D01*
%TO.N,C6*%
X8275000Y20750000D02*
X8275000Y3750000D01*
X4274100Y34507784D02*
X4274100Y24750900D01*
X8275000Y37750000D02*
X5750900Y35225900D01*
X5750900Y35225900D02*
X4992216Y35225900D01*
X4992216Y35225900D02*
X4274100Y34507784D01*
X4274100Y24750900D02*
X8275000Y20750000D01*
%TD*%
%TA.AperFunction,NonConductor*%
G36*
X25502427Y42424309D02*
G01*
X25713113Y42407727D01*
X25732331Y42404683D01*
X25930705Y42357058D01*
X25949211Y42351045D01*
X26137694Y42272972D01*
X26155031Y42264139D01*
X26328981Y42157543D01*
X26344722Y42146106D01*
X26499859Y42013606D01*
X26513606Y41999859D01*
X26641029Y41850665D01*
X26646106Y41844722D01*
X26657543Y41828981D01*
X26764139Y41655031D01*
X26772972Y41637694D01*
X26851045Y41449211D01*
X26857058Y41430705D01*
X26904683Y41232331D01*
X26907727Y41213113D01*
X26924308Y41002425D01*
X26924499Y40997559D01*
X26924500Y-6975468D01*
X26924500Y-6997559D01*
X26924309Y-7002426D01*
X26907727Y-7213113D01*
X26904683Y-7232331D01*
X26857058Y-7430705D01*
X26851045Y-7449211D01*
X26772972Y-7637694D01*
X26764139Y-7655031D01*
X26657543Y-7828981D01*
X26646105Y-7844722D01*
X26513606Y-7999859D01*
X26499859Y-8013606D01*
X26350665Y-8141029D01*
X26344722Y-8146106D01*
X26328981Y-8157543D01*
X26155031Y-8264139D01*
X26137694Y-8272972D01*
X25949211Y-8351045D01*
X25930705Y-8357058D01*
X25732331Y-8404683D01*
X25713113Y-8407727D01*
X25502427Y-8424309D01*
X25497560Y-8424500D01*
X-7497560Y-8424500D01*
X-7502427Y-8424309D01*
X-7713113Y-8407727D01*
X-7732331Y-8404683D01*
X-7930705Y-8357058D01*
X-7949211Y-8351045D01*
X-8137694Y-8272972D01*
X-8155031Y-8264138D01*
X-8328977Y-8157543D01*
X-8344719Y-8146106D01*
X-8499852Y-8013610D01*
X-8513610Y-7999852D01*
X-8646106Y-7844719D01*
X-8657543Y-7828977D01*
X-8764138Y-7655031D01*
X-8772972Y-7637694D01*
X-8851045Y-7449211D01*
X-8857058Y-7430705D01*
X-8904683Y-7232331D01*
X-8907727Y-7213113D01*
X-8924309Y-7002426D01*
X-8924500Y-6997559D01*
X-8924500Y-6081187D01*
X16249500Y-6081187D01*
X16257016Y-6131047D01*
X16288604Y-6340615D01*
X16288605Y-6340617D01*
X16288606Y-6340623D01*
X16365938Y-6591326D01*
X16479767Y-6827696D01*
X16479768Y-6827697D01*
X16479770Y-6827700D01*
X16479772Y-6827704D01*
X16597242Y-7000000D01*
X16627567Y-7044479D01*
X16806014Y-7236801D01*
X16806018Y-7236804D01*
X16806019Y-7236805D01*
X17011143Y-7400386D01*
X17238357Y-7531568D01*
X17482584Y-7627420D01*
X17738370Y-7685802D01*
X17738376Y-7685802D01*
X17738379Y-7685803D01*
X17934500Y-7700500D01*
X17934506Y-7700500D01*
X18065500Y-7700500D01*
X18261620Y-7685803D01*
X18261622Y-7685802D01*
X18261630Y-7685802D01*
X18517416Y-7627420D01*
X18761643Y-7531568D01*
X18988857Y-7400386D01*
X19193981Y-7236805D01*
X19198133Y-7232331D01*
X19233945Y-7193733D01*
X19372433Y-7044479D01*
X19520228Y-6827704D01*
X19634063Y-6591323D01*
X19711396Y-6340615D01*
X19750500Y-6081182D01*
X19750500Y-5950003D01*
X20461384Y-5950003D01*
X20481781Y-6131041D01*
X20481782Y-6131046D01*
X20522949Y-6248693D01*
X20541957Y-6303015D01*
X20638889Y-6457281D01*
X20767719Y-6586111D01*
X20921985Y-6683043D01*
X21093953Y-6743217D01*
X21093958Y-6743218D01*
X21274996Y-6763616D01*
X21275000Y-6763616D01*
X21275004Y-6763616D01*
X21456041Y-6743218D01*
X21456044Y-6743217D01*
X21456047Y-6743217D01*
X21628015Y-6683043D01*
X21782281Y-6586111D01*
X21911111Y-6457281D01*
X22008043Y-6303015D01*
X22068217Y-6131047D01*
X22073835Y-6081187D01*
X22088616Y-5950003D01*
X22088616Y-5949996D01*
X22068218Y-5768958D01*
X22068217Y-5768953D01*
X22068216Y-5768953D01*
X22008043Y-5596985D01*
X21911111Y-5442719D01*
X21782281Y-5313889D01*
X21628015Y-5216957D01*
X21573693Y-5197949D01*
X21456046Y-5156782D01*
X21456041Y-5156781D01*
X21275004Y-5136384D01*
X21274996Y-5136384D01*
X21093958Y-5156781D01*
X21093953Y-5156782D01*
X20921982Y-5216958D01*
X20767718Y-5313889D01*
X20638889Y-5442718D01*
X20541958Y-5596982D01*
X20481782Y-5768953D01*
X20481781Y-5768958D01*
X20461384Y-5949996D01*
X20461384Y-5950003D01*
X19750500Y-5950003D01*
X19750500Y-5818818D01*
X19711396Y-5559385D01*
X19634063Y-5308677D01*
X19622121Y-5283880D01*
X19520232Y-5072303D01*
X19520231Y-5072302D01*
X19520230Y-5072301D01*
X19520228Y-5072296D01*
X19372433Y-4855521D01*
X19362188Y-4844479D01*
X19193985Y-4663198D01*
X19149467Y-4627696D01*
X18988857Y-4499614D01*
X18761643Y-4368432D01*
X18517416Y-4272580D01*
X18517411Y-4272578D01*
X18517402Y-4272576D01*
X18299818Y-4222914D01*
X18261630Y-4214198D01*
X18261629Y-4214197D01*
X18261625Y-4214197D01*
X18261620Y-4214196D01*
X18065500Y-4199500D01*
X18065494Y-4199500D01*
X17934506Y-4199500D01*
X17934500Y-4199500D01*
X17738379Y-4214196D01*
X17738374Y-4214197D01*
X17482597Y-4272576D01*
X17482578Y-4272582D01*
X17238356Y-4368432D01*
X17011143Y-4499614D01*
X16806014Y-4663198D01*
X16627567Y-4855520D01*
X16479768Y-5072302D01*
X16479767Y-5072303D01*
X16365938Y-5308673D01*
X16288606Y-5559376D01*
X16288605Y-5559381D01*
X16288604Y-5559385D01*
X16282937Y-5596982D01*
X16249500Y-5818812D01*
X16249500Y-6081187D01*
X-8924500Y-6081187D01*
X-8924500Y52645D01*
X-6605157Y52645D01*
X-6595148Y-157459D01*
X-6545558Y-361871D01*
X-6458179Y-553205D01*
X-6449651Y-565181D01*
X-6344606Y-712697D01*
X-6336169Y-724544D01*
X-6183937Y-869697D01*
X-6006986Y-983416D01*
X-5811712Y-1061593D01*
X-5646479Y-1093438D01*
X-5605172Y-1101400D01*
X-5605171Y-1101400D01*
X-5447539Y-1101400D01*
X-5447532Y-1101400D01*
X-5290611Y-1086416D01*
X-5088789Y-1027156D01*
X-4901830Y-930771D01*
X-4736490Y-800747D01*
X-4598745Y-641781D01*
X-4598743Y-641777D01*
X-4598740Y-641774D01*
X-4493574Y-459620D01*
X-4424779Y-260851D01*
X-4424778Y-260844D01*
X-4394843Y-52645D01*
X-4397351Y0D01*
X-1970019Y0D01*
X-1949967Y-280363D01*
X-1890219Y-555018D01*
X-1791992Y-818375D01*
X-1657285Y-1065073D01*
X-1488841Y-1290088D01*
X-1290088Y-1488841D01*
X-1065073Y-1657285D01*
X-818375Y-1791992D01*
X-555018Y-1890219D01*
X-280363Y-1949967D01*
X-70175Y-1965000D01*
X70175Y-1965000D01*
X280363Y-1949967D01*
X555018Y-1890219D01*
X818375Y-1791992D01*
X1065073Y-1657285D01*
X1290088Y-1488841D01*
X1488841Y-1290088D01*
X1657285Y-1065073D01*
X1791992Y-818375D01*
X1890219Y-555018D01*
X1949967Y-280363D01*
X1970019Y0D01*
X1966254Y52645D01*
X4394843Y52645D01*
X4404852Y-157459D01*
X4454442Y-361871D01*
X4499082Y-459619D01*
X4541820Y-553204D01*
X4541824Y-553210D01*
X4663826Y-724539D01*
X4663831Y-724544D01*
X4816063Y-869697D01*
X4993014Y-983416D01*
X5188288Y-1061593D01*
X5317084Y-1086416D01*
X5394828Y-1101400D01*
X5394829Y-1101400D01*
X5552461Y-1101400D01*
X5552468Y-1101400D01*
X5709389Y-1086416D01*
X5911211Y-1027156D01*
X6098170Y-930771D01*
X6263510Y-800747D01*
X6401255Y-641781D01*
X6506426Y-459619D01*
X6575222Y-260846D01*
X6605157Y-52645D01*
X6602649Y0D01*
X7644341Y0D01*
X7664936Y-235403D01*
X7664938Y-235413D01*
X7726094Y-463655D01*
X7726096Y-463659D01*
X7726097Y-463663D01*
X7767854Y-553210D01*
X7825964Y-677828D01*
X7825965Y-677830D01*
X7961505Y-871402D01*
X8128597Y-1038494D01*
X8322169Y-1174034D01*
X8322171Y-1174035D01*
X8536337Y-1273903D01*
X8764592Y-1335063D01*
X8941034Y-1350500D01*
X9058966Y-1350500D01*
X9235408Y-1335063D01*
X9463663Y-1273903D01*
X9677829Y-1174035D01*
X9871401Y-1038495D01*
X10038495Y-871401D01*
X10174035Y-677830D01*
X10273903Y-463663D01*
X10335063Y-235408D01*
X10355659Y0D01*
X10335063Y235408D01*
X10273903Y463663D01*
X10174035Y677829D01*
X10038495Y871401D01*
X9871401Y1038495D01*
X9677829Y1174035D01*
X9463663Y1273903D01*
X9235408Y1335063D01*
X9058966Y1350500D01*
X8941034Y1350500D01*
X8764592Y1335063D01*
X8536337Y1273903D01*
X8322171Y1174035D01*
X8322169Y1174034D01*
X8128597Y1038494D01*
X8020875Y930771D01*
X7961505Y871401D01*
X7960310Y869694D01*
X7825967Y677834D01*
X7825965Y677830D01*
X7726097Y463663D01*
X7726096Y463659D01*
X7726094Y463655D01*
X7664938Y235413D01*
X7664936Y235403D01*
X7644341Y0D01*
X6602649Y0D01*
X6595148Y157459D01*
X6545558Y361871D01*
X6458179Y553205D01*
X6395101Y641785D01*
X6336173Y724539D01*
X6336171Y724540D01*
X6336169Y724544D01*
X6183937Y869697D01*
X6006986Y983416D01*
X5811712Y1061593D01*
X5646479Y1093438D01*
X5605172Y1101400D01*
X5605171Y1101400D01*
X5447532Y1101400D01*
X5290611Y1086416D01*
X5088789Y1027156D01*
X4901830Y930771D01*
X4736490Y800747D01*
X4598745Y641781D01*
X4598743Y641777D01*
X4598740Y641774D01*
X4493574Y459620D01*
X4424779Y260851D01*
X4424778Y260847D01*
X4424778Y260846D01*
X4394843Y52645D01*
X1966254Y52645D01*
X1949967Y280363D01*
X1890219Y555018D01*
X1791992Y818375D01*
X1657285Y1065073D01*
X1488841Y1290088D01*
X1290088Y1488841D01*
X1065073Y1657285D01*
X818375Y1791992D01*
X555018Y1890219D01*
X280363Y1949967D01*
X70175Y1965000D01*
X-70175Y1965000D01*
X-280363Y1949967D01*
X-555018Y1890219D01*
X-818375Y1791992D01*
X-1065073Y1657285D01*
X-1290088Y1488841D01*
X-1488841Y1290088D01*
X-1657285Y1065073D01*
X-1791992Y818375D01*
X-1890219Y555018D01*
X-1949967Y280363D01*
X-1970019Y0D01*
X-4397351Y0D01*
X-4404852Y157459D01*
X-4454442Y361871D01*
X-4509229Y481839D01*
X-4541820Y553204D01*
X-4541824Y553210D01*
X-4663826Y724539D01*
X-4663832Y724545D01*
X-4816060Y869694D01*
X-4816063Y869697D01*
X-4993014Y983416D01*
X-5188288Y1061593D01*
X-5343193Y1091448D01*
X-5394828Y1101400D01*
X-5394829Y1101400D01*
X-5552468Y1101400D01*
X-5709389Y1086416D01*
X-5911211Y1027156D01*
X-6098170Y930771D01*
X-6263510Y800747D01*
X-6401255Y641781D01*
X-6506426Y459619D01*
X-6575222Y260846D01*
X-6605157Y52645D01*
X-8924500Y52645D01*
X-8924500Y3618812D01*
X3249500Y3618812D01*
X3273853Y3457247D01*
X3288604Y3359385D01*
X3288605Y3359382D01*
X3288606Y3359376D01*
X3365938Y3108673D01*
X3479767Y2872303D01*
X3479768Y2872302D01*
X3627567Y2655520D01*
X3806014Y2463198D01*
X4011143Y2299614D01*
X4238356Y2168432D01*
X4482578Y2072582D01*
X4482597Y2072576D01*
X4738374Y2014197D01*
X4738379Y2014196D01*
X4934500Y1999500D01*
X4934506Y1999500D01*
X5065500Y1999500D01*
X5261620Y2014196D01*
X5261625Y2014197D01*
X5261629Y2014197D01*
X5261630Y2014198D01*
X5299818Y2022914D01*
X5517402Y2072576D01*
X5517411Y2072578D01*
X5517416Y2072580D01*
X5761643Y2168432D01*
X5988857Y2299614D01*
X6193981Y2463195D01*
X6193985Y2463198D01*
X6372432Y2655520D01*
X6372433Y2655521D01*
X6520228Y2872296D01*
X6520231Y2872302D01*
X6520232Y2872303D01*
X6634061Y3108673D01*
X6634063Y3108677D01*
X6711396Y3359385D01*
X6750500Y3618818D01*
X6750500Y3881182D01*
X6711396Y4140615D01*
X6634063Y4391323D01*
X6520228Y4627704D01*
X6372433Y4844479D01*
X6193981Y5036805D01*
X5988857Y5200386D01*
X5761643Y5331568D01*
X5517416Y5427420D01*
X5261630Y5485802D01*
X5261622Y5485802D01*
X5261620Y5485803D01*
X5065500Y5500500D01*
X5065494Y5500500D01*
X4934506Y5500500D01*
X4934500Y5500500D01*
X4738379Y5485803D01*
X4738376Y5485802D01*
X4738370Y5485802D01*
X4482584Y5427420D01*
X4238357Y5331568D01*
X4011143Y5200386D01*
X3806019Y5036805D01*
X3806014Y5036801D01*
X3627567Y4844479D01*
X3479772Y4627704D01*
X3479770Y4627700D01*
X3479768Y4627697D01*
X3479767Y4627696D01*
X3365938Y4391326D01*
X3306768Y4199500D01*
X3288604Y4140615D01*
X3282937Y4103015D01*
X3249500Y3881187D01*
X3249500Y3618812D01*
X-8924500Y3618812D01*
X-8924500Y5949996D01*
X-4088616Y5949996D01*
X-4073835Y5818812D01*
X-4068217Y5768953D01*
X-4008043Y5596985D01*
X-3911111Y5442719D01*
X-3782281Y5313889D01*
X-3628015Y5216957D01*
X-3580658Y5200386D01*
X-3456046Y5156782D01*
X-3456041Y5156781D01*
X-3275004Y5136384D01*
X-3275000Y5136384D01*
X-3274996Y5136384D01*
X-3093958Y5156781D01*
X-3093953Y5156782D01*
X-2921982Y5216958D01*
X-2767718Y5313889D01*
X-2638889Y5442718D01*
X-2541958Y5596982D01*
X-2481782Y5768953D01*
X-2481781Y5768958D01*
X-2476163Y5818818D01*
X-1750500Y5818818D01*
X-1711396Y5559385D01*
X-1634063Y5308677D01*
X-1634061Y5308673D01*
X-1520232Y5072303D01*
X-1520231Y5072302D01*
X-1520228Y5072296D01*
X-1372433Y4855521D01*
X-1372432Y4855520D01*
X-1193985Y4663198D01*
X-1193981Y4663195D01*
X-988857Y4499614D01*
X-761643Y4368432D01*
X-517416Y4272580D01*
X-517411Y4272578D01*
X-517402Y4272576D01*
X-299818Y4222914D01*
X-261630Y4214198D01*
X-261629Y4214197D01*
X-261625Y4214197D01*
X-261620Y4214196D01*
X-65500Y4199500D01*
X-65494Y4199500D01*
X65500Y4199500D01*
X261620Y4214196D01*
X261625Y4214197D01*
X261629Y4214197D01*
X261630Y4214198D01*
X299818Y4222914D01*
X517402Y4272576D01*
X517411Y4272578D01*
X517416Y4272580D01*
X761643Y4368432D01*
X988857Y4499614D01*
X1193981Y4663195D01*
X1193985Y4663198D01*
X1372432Y4855520D01*
X1372433Y4855521D01*
X1520228Y5072296D01*
X1520231Y5072302D01*
X1520232Y5072303D01*
X1634061Y5308673D01*
X1634063Y5308677D01*
X1711396Y5559385D01*
X1750500Y5818818D01*
X1750500Y6081182D01*
X1711396Y6340615D01*
X1634063Y6591323D01*
X1520228Y6827704D01*
X1372433Y7044479D01*
X1193981Y7236805D01*
X988857Y7400386D01*
X761643Y7531568D01*
X517416Y7627420D01*
X261630Y7685802D01*
X261622Y7685802D01*
X261620Y7685803D01*
X65500Y7700500D01*
X65494Y7700500D01*
X-65494Y7700500D01*
X-65500Y7700500D01*
X-261620Y7685803D01*
X-261622Y7685802D01*
X-261630Y7685802D01*
X-517416Y7627420D01*
X-761643Y7531568D01*
X-988857Y7400386D01*
X-1193981Y7236805D01*
X-1372433Y7044479D01*
X-1520228Y6827704D01*
X-1634063Y6591323D01*
X-1711396Y6340615D01*
X-1750500Y6081182D01*
X-1750500Y5818818D01*
X-2476163Y5818818D01*
X-2461384Y5949996D01*
X-2461384Y5950003D01*
X-2481781Y6131041D01*
X-2481782Y6131046D01*
X-2541958Y6303017D01*
X-2638889Y6457281D01*
X-2767718Y6586110D01*
X-2767719Y6586111D01*
X-2921985Y6683043D01*
X-3093953Y6743217D01*
X-3093958Y6743218D01*
X-3274996Y6763616D01*
X-3275004Y6763616D01*
X-3456041Y6743218D01*
X-3456044Y6743217D01*
X-3456047Y6743217D01*
X-3628015Y6683043D01*
X-3782281Y6586111D01*
X-3911111Y6457281D01*
X-4008043Y6303015D01*
X-4068217Y6131047D01*
X-4068217Y6131046D01*
X-4068218Y6131041D01*
X-4088616Y5950003D01*
X-4088616Y5949996D01*
X-8924500Y5949996D01*
X-8924500Y17052645D01*
X-6605157Y17052645D01*
X-6595148Y16842541D01*
X-6545558Y16638129D01*
X-6500917Y16540379D01*
X-6458179Y16446795D01*
X-6458175Y16446789D01*
X-6336173Y16275460D01*
X-6336169Y16275456D01*
X-6183937Y16130303D01*
X-6006986Y16016584D01*
X-6006984Y16016583D01*
X-5811721Y15938410D01*
X-5811714Y15938407D01*
X-5811712Y15938407D01*
X-5811709Y15938406D01*
X-5811708Y15938406D01*
X-5605172Y15898600D01*
X-5605171Y15898600D01*
X-5447539Y15898600D01*
X-5447532Y15898600D01*
X-5290611Y15913584D01*
X-5290607Y15913585D01*
X-5088791Y15972843D01*
X-4901831Y16069228D01*
X-4736490Y16199252D01*
X-4736489Y16199253D01*
X-4598749Y16358214D01*
X-4598740Y16358225D01*
X-4493574Y16540379D01*
X-4424779Y16739148D01*
X-4424778Y16739155D01*
X-4394843Y16947357D01*
X-4397351Y17000000D01*
X-1970019Y17000000D01*
X-1949967Y16719637D01*
X-1890219Y16444982D01*
X-1791992Y16181625D01*
X-1791991Y16181623D01*
X-1791989Y16181619D01*
X-1657288Y15934932D01*
X-1657283Y15934924D01*
X-1488847Y15709919D01*
X-1488831Y15709901D01*
X-1290098Y15511168D01*
X-1290080Y15511152D01*
X-1065075Y15342716D01*
X-1065067Y15342711D01*
X-818380Y15208010D01*
X-818376Y15208008D01*
X-718532Y15170768D01*
X-555018Y15109781D01*
X-555014Y15109780D01*
X-555011Y15109779D01*
X-280371Y15050034D01*
X-280364Y15050033D01*
X-70175Y15035000D01*
X70175Y15035000D01*
X280364Y15050033D01*
X280371Y15050034D01*
X555011Y15109779D01*
X555014Y15109780D01*
X555018Y15109781D01*
X718532Y15170768D01*
X818376Y15208008D01*
X818380Y15208010D01*
X1065067Y15342711D01*
X1065075Y15342716D01*
X1290080Y15511152D01*
X1290098Y15511168D01*
X1488831Y15709901D01*
X1488847Y15709919D01*
X1657283Y15934924D01*
X1657288Y15934932D01*
X1791989Y16181619D01*
X1791991Y16181623D01*
X1791992Y16181625D01*
X1890219Y16444982D01*
X1949967Y16719637D01*
X1970019Y17000000D01*
X1966254Y17052645D01*
X4394843Y17052645D01*
X4404852Y16842541D01*
X4454442Y16638130D01*
X4541820Y16446795D01*
X4541824Y16446789D01*
X4663826Y16275460D01*
X4663832Y16275454D01*
X4816060Y16130305D01*
X4816061Y16130304D01*
X4816063Y16130303D01*
X4904538Y16073443D01*
X4993015Y16016583D01*
X5188278Y15938410D01*
X5188291Y15938406D01*
X5394828Y15898600D01*
X5394829Y15898600D01*
X5552461Y15898600D01*
X5552468Y15898600D01*
X5709389Y15913584D01*
X5911211Y15972844D01*
X6098170Y16069229D01*
X6218600Y16163936D01*
X6263509Y16199252D01*
X6263510Y16199253D01*
X6263509Y16199253D01*
X6401255Y16358219D01*
X6401257Y16358222D01*
X6401259Y16358225D01*
X6506425Y16540379D01*
X6575220Y16739148D01*
X6575222Y16739154D01*
X6605157Y16947355D01*
X6595148Y17157459D01*
X6545558Y17361871D01*
X6458179Y17553205D01*
X6336169Y17724544D01*
X6183937Y17869697D01*
X6006986Y17983416D01*
X5811712Y18061593D01*
X5646479Y18093438D01*
X5605172Y18101400D01*
X5605171Y18101400D01*
X5447532Y18101400D01*
X5290611Y18086416D01*
X5088789Y18027156D01*
X4901830Y17930771D01*
X4736490Y17800747D01*
X4598745Y17641781D01*
X4598743Y17641777D01*
X4598740Y17641774D01*
X4493574Y17459620D01*
X4424779Y17260851D01*
X4424778Y17260847D01*
X4424778Y17260846D01*
X4394843Y17052645D01*
X1966254Y17052645D01*
X1949967Y17280363D01*
X1890219Y17555018D01*
X1791992Y17818375D01*
X1657285Y18065073D01*
X1488841Y18290088D01*
X1290088Y18488841D01*
X1065073Y18657285D01*
X818375Y18791992D01*
X555018Y18890219D01*
X280363Y18949967D01*
X70175Y18965000D01*
X-70175Y18965000D01*
X-280363Y18949967D01*
X-555018Y18890219D01*
X-818375Y18791992D01*
X-1065073Y18657285D01*
X-1290088Y18488841D01*
X-1488841Y18290088D01*
X-1657285Y18065073D01*
X-1791992Y17818375D01*
X-1890219Y17555018D01*
X-1949967Y17280363D01*
X-1970019Y17000000D01*
X-4397351Y17000000D01*
X-4399859Y17052645D01*
X-4404852Y17157459D01*
X-4454442Y17361871D01*
X-4509229Y17481839D01*
X-4541820Y17553204D01*
X-4541824Y17553210D01*
X-4663826Y17724539D01*
X-4663832Y17724545D01*
X-4816060Y17869694D01*
X-4816063Y17869697D01*
X-4993014Y17983416D01*
X-5188288Y18061593D01*
X-5343193Y18091448D01*
X-5394828Y18101400D01*
X-5394829Y18101400D01*
X-5552468Y18101400D01*
X-5709389Y18086416D01*
X-5911211Y18027156D01*
X-6098170Y17930771D01*
X-6263510Y17800747D01*
X-6401255Y17641781D01*
X-6506426Y17459619D01*
X-6575222Y17260846D01*
X-6605157Y17052645D01*
X-8924500Y17052645D01*
X-8924500Y20618812D01*
X3249500Y20618812D01*
X3273853Y20457247D01*
X3288604Y20359385D01*
X3288605Y20359382D01*
X3288606Y20359376D01*
X3365938Y20108673D01*
X3479767Y19872303D01*
X3479768Y19872302D01*
X3627567Y19655520D01*
X3806014Y19463198D01*
X4011143Y19299614D01*
X4238356Y19168432D01*
X4482578Y19072582D01*
X4482597Y19072576D01*
X4738374Y19014197D01*
X4738379Y19014196D01*
X4934500Y18999500D01*
X4934506Y18999500D01*
X5065500Y18999500D01*
X5261620Y19014196D01*
X5261625Y19014197D01*
X5261629Y19014197D01*
X5261630Y19014198D01*
X5299818Y19022914D01*
X5517402Y19072576D01*
X5517411Y19072578D01*
X5517416Y19072580D01*
X5761643Y19168432D01*
X5988857Y19299614D01*
X6193981Y19463195D01*
X6193985Y19463198D01*
X6372432Y19655520D01*
X6372433Y19655521D01*
X6520228Y19872296D01*
X6520231Y19872302D01*
X6520232Y19872303D01*
X6634061Y20108673D01*
X6634063Y20108677D01*
X6711396Y20359385D01*
X6750500Y20618818D01*
X6750500Y20881182D01*
X6718383Y21094255D01*
X6727855Y21163475D01*
X6773250Y21216589D01*
X6840153Y21236730D01*
X6907325Y21217503D01*
X6928679Y21200414D01*
X7441151Y20687943D01*
X7474636Y20626620D01*
X7476690Y20614147D01*
X7481782Y20568956D01*
X7481782Y20568953D01*
X7541958Y20396982D01*
X7622494Y20268811D01*
X7641500Y20202839D01*
X7641500Y4297160D01*
X7622493Y4231188D01*
X7541960Y4103022D01*
X7541958Y4103019D01*
X7481782Y3931046D01*
X7481781Y3931041D01*
X7461384Y3750003D01*
X7461384Y3749996D01*
X7481781Y3568958D01*
X7481782Y3568953D01*
X7541958Y3396982D01*
X7638889Y3242718D01*
X7767718Y3113889D01*
X7921982Y3016958D01*
X8093953Y2956782D01*
X8093958Y2956781D01*
X8274996Y2936384D01*
X8275000Y2936384D01*
X8275004Y2936384D01*
X8456041Y2956781D01*
X8456046Y2956782D01*
X8573693Y2997949D01*
X8628015Y3016957D01*
X8782281Y3113889D01*
X8911111Y3242719D01*
X9008043Y3396985D01*
X9068217Y3568953D01*
X9073835Y3618812D01*
X9088616Y3749996D01*
X9088616Y3750003D01*
X9068218Y3931041D01*
X9068217Y3931046D01*
X9068217Y3931047D01*
X9008043Y4103015D01*
X9008041Y4103017D01*
X9008041Y4103019D01*
X9008039Y4103022D01*
X8927507Y4231188D01*
X8908500Y4297160D01*
X8908500Y12623746D01*
X8928185Y12690785D01*
X8980989Y12736540D01*
X9050147Y12746484D01*
X9113703Y12717459D01*
X9120181Y12711427D01*
X9217718Y12613889D01*
X9371983Y12516957D01*
X9543953Y12456783D01*
X9589149Y12451690D01*
X9653562Y12424622D01*
X9662943Y12416151D01*
X13130181Y8948914D01*
X13163666Y8887591D01*
X13166500Y8861233D01*
X13166500Y1102765D01*
X13146815Y1035726D01*
X13094011Y989971D01*
X13024853Y980027D01*
X12996419Y987646D01*
X12811712Y1061593D01*
X12646479Y1093438D01*
X12605172Y1101400D01*
X12605171Y1101400D01*
X12447532Y1101400D01*
X12290611Y1086416D01*
X12088789Y1027156D01*
X11901830Y930771D01*
X11736490Y800747D01*
X11598745Y641781D01*
X11598743Y641777D01*
X11598740Y641774D01*
X11493574Y459620D01*
X11424779Y260851D01*
X11424778Y260847D01*
X11424778Y260846D01*
X11394843Y52645D01*
X11404852Y-157459D01*
X11454442Y-361871D01*
X11499082Y-459619D01*
X11541820Y-553204D01*
X11541824Y-553210D01*
X11657307Y-715383D01*
X11663831Y-724544D01*
X11669557Y-730003D01*
X11704491Y-790511D01*
X11701166Y-860302D01*
X11671667Y-907426D01*
X9662942Y-2916151D01*
X9601619Y-2949636D01*
X9589146Y-2951690D01*
X9543955Y-2956782D01*
X9371982Y-3016958D01*
X9217718Y-3113889D01*
X9088889Y-3242718D01*
X8991958Y-3396982D01*
X8931782Y-3568953D01*
X8931781Y-3568958D01*
X8911384Y-3749996D01*
X8911384Y-3750003D01*
X8931781Y-3931041D01*
X8931782Y-3931046D01*
X8972949Y-4048693D01*
X8991957Y-4103015D01*
X9088889Y-4257281D01*
X9217719Y-4386111D01*
X9371985Y-4483043D01*
X9543953Y-4543217D01*
X9543958Y-4543218D01*
X9724996Y-4563616D01*
X9725000Y-4563616D01*
X9725004Y-4563616D01*
X9906041Y-4543218D01*
X9906044Y-4543217D01*
X9906047Y-4543217D01*
X10078015Y-4483043D01*
X10232281Y-4386111D01*
X10361111Y-4257281D01*
X10458043Y-4103015D01*
X10518217Y-3931047D01*
X10523309Y-3885851D01*
X10550374Y-3821439D01*
X10558838Y-3812064D01*
X11071322Y-3299580D01*
X11132643Y-3266097D01*
X11202335Y-3271081D01*
X11258268Y-3312953D01*
X11282685Y-3378417D01*
X11281616Y-3405745D01*
X11249500Y-3618812D01*
X11249500Y-3881187D01*
X11257016Y-3931047D01*
X11288604Y-4140615D01*
X11288605Y-4140617D01*
X11288606Y-4140623D01*
X11365938Y-4391326D01*
X11479767Y-4627696D01*
X11479768Y-4627697D01*
X11479770Y-4627700D01*
X11479772Y-4627704D01*
X11627566Y-4844478D01*
X11627567Y-4844479D01*
X11806014Y-5036801D01*
X11806018Y-5036804D01*
X11806019Y-5036805D01*
X12011143Y-5200386D01*
X12238357Y-5331568D01*
X12482584Y-5427420D01*
X12738370Y-5485802D01*
X12738376Y-5485802D01*
X12738379Y-5485803D01*
X12934500Y-5500500D01*
X12934506Y-5500500D01*
X13065500Y-5500500D01*
X13261620Y-5485803D01*
X13261622Y-5485802D01*
X13261630Y-5485802D01*
X13517416Y-5427420D01*
X13761643Y-5331568D01*
X13988857Y-5200386D01*
X14193981Y-5036805D01*
X14372433Y-4844479D01*
X14520228Y-4627704D01*
X14634063Y-4391323D01*
X14711396Y-4140615D01*
X14750500Y-3881182D01*
X14750500Y-3618818D01*
X14711396Y-3359385D01*
X14634063Y-3108677D01*
X14622121Y-3083880D01*
X14520232Y-2872303D01*
X14520231Y-2872302D01*
X14520230Y-2872301D01*
X14520228Y-2872296D01*
X14372433Y-2655521D01*
X14362441Y-2644753D01*
X14193985Y-2463198D01*
X14154533Y-2431736D01*
X13988857Y-2299614D01*
X13761643Y-2168432D01*
X13517416Y-2072580D01*
X13517407Y-2072578D01*
X13517404Y-2072577D01*
X13319105Y-2027316D01*
X13258127Y-1993207D01*
X13225269Y-1931546D01*
X13230964Y-1861908D01*
X13273404Y-1806405D01*
X13301054Y-1791132D01*
X13315401Y-1785452D01*
X13353610Y-1757690D01*
X13358488Y-1754485D01*
X13399146Y-1730442D01*
X13413586Y-1716000D01*
X13428376Y-1703370D01*
X13444891Y-1691372D01*
X13475006Y-1654967D01*
X13478910Y-1650676D01*
X14188815Y-940771D01*
X14201180Y-930867D01*
X14201006Y-930657D01*
X14207012Y-925687D01*
X14207018Y-925684D01*
X14254999Y-874588D01*
X14276135Y-853453D01*
X14280458Y-847879D01*
X14284257Y-843431D01*
X14316585Y-809006D01*
X14321126Y-800747D01*
X14326420Y-791114D01*
X14337098Y-774858D01*
X14349614Y-758724D01*
X14368374Y-715370D01*
X14370935Y-710142D01*
X14393695Y-668744D01*
X14398774Y-648958D01*
X14405072Y-630566D01*
X14413181Y-611829D01*
X14420569Y-565181D01*
X14421751Y-559470D01*
X14433500Y-513714D01*
X14433500Y-493299D01*
X14435027Y-473898D01*
X14436648Y-463663D01*
X14438220Y-453741D01*
X14433775Y-406717D01*
X14433500Y-400879D01*
X14433500Y-1D01*
X16029981Y-1D01*
X16050033Y-280364D01*
X16050034Y-280371D01*
X16109779Y-555011D01*
X16109781Y-555018D01*
X16155589Y-677834D01*
X16208008Y-818376D01*
X16208010Y-818380D01*
X16342711Y-1065067D01*
X16342716Y-1065075D01*
X16511152Y-1290080D01*
X16511168Y-1290098D01*
X16709901Y-1488831D01*
X16709919Y-1488847D01*
X16934924Y-1657283D01*
X16934932Y-1657288D01*
X17181619Y-1791989D01*
X17181623Y-1791991D01*
X17181625Y-1791992D01*
X17444982Y-1890219D01*
X17719637Y-1949967D01*
X17929825Y-1965000D01*
X18070175Y-1965000D01*
X18280363Y-1949967D01*
X18555018Y-1890219D01*
X18818375Y-1791992D01*
X19065073Y-1657285D01*
X19290088Y-1488841D01*
X19488841Y-1290088D01*
X19657285Y-1065073D01*
X19791992Y-818375D01*
X19890219Y-555018D01*
X19949967Y-280363D01*
X19970019Y0D01*
X19966254Y52645D01*
X22394843Y52645D01*
X22404852Y-157459D01*
X22454442Y-361871D01*
X22499082Y-459619D01*
X22541820Y-553204D01*
X22541824Y-553210D01*
X22663826Y-724539D01*
X22663831Y-724544D01*
X22816063Y-869697D01*
X22993014Y-983416D01*
X23188288Y-1061593D01*
X23317084Y-1086416D01*
X23394828Y-1101400D01*
X23394829Y-1101400D01*
X23552461Y-1101400D01*
X23552468Y-1101400D01*
X23709389Y-1086416D01*
X23911211Y-1027156D01*
X24098170Y-930771D01*
X24263510Y-800747D01*
X24401255Y-641781D01*
X24506426Y-459619D01*
X24575222Y-260846D01*
X24605157Y-52645D01*
X24595148Y157459D01*
X24545558Y361871D01*
X24458179Y553205D01*
X24395101Y641785D01*
X24336173Y724539D01*
X24336171Y724540D01*
X24336169Y724544D01*
X24183937Y869697D01*
X24006986Y983416D01*
X23811712Y1061593D01*
X23646479Y1093438D01*
X23605172Y1101400D01*
X23605171Y1101400D01*
X23447532Y1101400D01*
X23290611Y1086416D01*
X23088789Y1027156D01*
X22901830Y930771D01*
X22736490Y800747D01*
X22598745Y641781D01*
X22598743Y641777D01*
X22598740Y641774D01*
X22493574Y459620D01*
X22424779Y260851D01*
X22424778Y260847D01*
X22424778Y260846D01*
X22394843Y52645D01*
X19966254Y52645D01*
X19949967Y280363D01*
X19890219Y555018D01*
X19791992Y818375D01*
X19657285Y1065073D01*
X19488841Y1290088D01*
X19290088Y1488841D01*
X19065073Y1657285D01*
X18818375Y1791992D01*
X18555018Y1890219D01*
X18280363Y1949967D01*
X18070175Y1965000D01*
X17929825Y1965000D01*
X17719637Y1949967D01*
X17444982Y1890219D01*
X17181625Y1791992D01*
X17181623Y1791991D01*
X17181619Y1791989D01*
X16934932Y1657288D01*
X16934924Y1657283D01*
X16709919Y1488847D01*
X16709901Y1488831D01*
X16511168Y1290098D01*
X16511152Y1290080D01*
X16342716Y1065075D01*
X16342711Y1065067D01*
X16208010Y818380D01*
X16208008Y818376D01*
X16173011Y724545D01*
X16109781Y555018D01*
X16109780Y555014D01*
X16109779Y555011D01*
X16050034Y280371D01*
X16050033Y280364D01*
X16029981Y1D01*
X16029981Y-1D01*
X14433500Y-1D01*
X14433500Y9091366D01*
X14435238Y9107113D01*
X14434968Y9107139D01*
X14435701Y9114905D01*
X14435702Y9114909D01*
X14433499Y9184958D01*
X14433500Y9214856D01*
X14432613Y9221864D01*
X14432156Y9227685D01*
X14430673Y9274890D01*
X14424980Y9294482D01*
X14421032Y9313543D01*
X14420950Y9314196D01*
X14418474Y9333797D01*
X14401081Y9377722D01*
X14399201Y9383212D01*
X14386018Y9428593D01*
X14375626Y9446163D01*
X14367064Y9463643D01*
X14359555Y9482609D01*
X14359552Y9482617D01*
X14331782Y9520836D01*
X14328590Y9525696D01*
X14304542Y9566363D01*
X14290101Y9580803D01*
X14277470Y9595591D01*
X14265472Y9612107D01*
X14229071Y9642219D01*
X14224771Y9646132D01*
X12952091Y10918812D01*
X16249500Y10918812D01*
X16273853Y10757247D01*
X16288604Y10659385D01*
X16288605Y10659382D01*
X16288606Y10659376D01*
X16365938Y10408673D01*
X16479767Y10172303D01*
X16479768Y10172302D01*
X16627567Y9955520D01*
X16806014Y9763198D01*
X17011143Y9599614D01*
X17238356Y9468432D01*
X17482578Y9372582D01*
X17482597Y9372576D01*
X17738374Y9314197D01*
X17738379Y9314196D01*
X17934500Y9299500D01*
X17934506Y9299500D01*
X18065500Y9299500D01*
X18261620Y9314196D01*
X18261625Y9314197D01*
X18261629Y9314197D01*
X18261630Y9314198D01*
X18299818Y9322914D01*
X18517402Y9372576D01*
X18517411Y9372578D01*
X18517416Y9372580D01*
X18761643Y9468432D01*
X18988857Y9599614D01*
X19193981Y9763195D01*
X19193985Y9763198D01*
X19372432Y9955520D01*
X19372433Y9955521D01*
X19520228Y10172296D01*
X19520231Y10172302D01*
X19520232Y10172303D01*
X19634061Y10408673D01*
X19634063Y10408677D01*
X19711396Y10659385D01*
X19750500Y10918818D01*
X19750500Y11049996D01*
X20461384Y11049996D01*
X20481781Y10868958D01*
X20481782Y10868953D01*
X20541958Y10696982D01*
X20638889Y10542718D01*
X20767718Y10413889D01*
X20921982Y10316958D01*
X21093953Y10256782D01*
X21093958Y10256781D01*
X21274996Y10236384D01*
X21275000Y10236384D01*
X21275004Y10236384D01*
X21456041Y10256781D01*
X21456046Y10256782D01*
X21573693Y10297949D01*
X21628015Y10316957D01*
X21782281Y10413889D01*
X21911111Y10542719D01*
X22008043Y10696985D01*
X22068217Y10868953D01*
X22073835Y10918812D01*
X22088616Y11049996D01*
X22088616Y11050003D01*
X22068218Y11231041D01*
X22068217Y11231046D01*
X22068217Y11231047D01*
X22008043Y11403015D01*
X21911111Y11557281D01*
X21782281Y11686111D01*
X21628015Y11783043D01*
X21456047Y11843217D01*
X21456044Y11843217D01*
X21456041Y11843218D01*
X21275004Y11863616D01*
X21274996Y11863616D01*
X21093958Y11843218D01*
X21093953Y11843217D01*
X20921985Y11783043D01*
X20767719Y11686111D01*
X20767718Y11686110D01*
X20638889Y11557281D01*
X20541958Y11403017D01*
X20481782Y11231046D01*
X20481781Y11231041D01*
X20461384Y11050003D01*
X20461384Y11049996D01*
X19750500Y11049996D01*
X19750500Y11181182D01*
X19711396Y11440615D01*
X19634063Y11691323D01*
X19520228Y11927704D01*
X19372433Y12144479D01*
X19193981Y12336805D01*
X18988857Y12500386D01*
X18761643Y12631568D01*
X18517416Y12727420D01*
X18261630Y12785802D01*
X18261622Y12785802D01*
X18261620Y12785803D01*
X18065500Y12800500D01*
X18065494Y12800500D01*
X17934506Y12800500D01*
X17934500Y12800500D01*
X17738379Y12785803D01*
X17738376Y12785802D01*
X17738370Y12785802D01*
X17482584Y12727420D01*
X17238357Y12631568D01*
X17011143Y12500386D01*
X16806019Y12336805D01*
X16806014Y12336801D01*
X16627567Y12144479D01*
X16479772Y11927704D01*
X16479770Y11927700D01*
X16479768Y11927697D01*
X16479767Y11927696D01*
X16365938Y11691326D01*
X16292653Y11453740D01*
X16288604Y11440615D01*
X16282937Y11403017D01*
X16249500Y11181187D01*
X16249500Y10918812D01*
X12952091Y10918812D01*
X12548176Y11322727D01*
X12514693Y11384048D01*
X12519677Y11453740D01*
X12561549Y11509673D01*
X12627013Y11534090D01*
X12663450Y11531297D01*
X12738371Y11514197D01*
X12738379Y11514196D01*
X12934500Y11499500D01*
X12934506Y11499500D01*
X13065500Y11499500D01*
X13261620Y11514196D01*
X13261625Y11514197D01*
X13261629Y11514197D01*
X13261630Y11514198D01*
X13299818Y11522914D01*
X13517402Y11572576D01*
X13517411Y11572578D01*
X13517416Y11572580D01*
X13761643Y11668432D01*
X13988857Y11799614D01*
X14193981Y11963195D01*
X14193985Y11963198D01*
X14372432Y12155520D01*
X14372433Y12155521D01*
X14520228Y12372296D01*
X14520231Y12372302D01*
X14520232Y12372303D01*
X14634061Y12608673D01*
X14634063Y12608677D01*
X14711396Y12859385D01*
X14750500Y13118818D01*
X14750500Y13381182D01*
X14711396Y13640615D01*
X14634063Y13891323D01*
X14520228Y14127704D01*
X14372433Y14344479D01*
X14193981Y14536805D01*
X13988857Y14700386D01*
X13761643Y14831568D01*
X13517416Y14927420D01*
X13261630Y14985802D01*
X13261622Y14985802D01*
X13261620Y14985803D01*
X13065500Y15000500D01*
X13065494Y15000500D01*
X12934506Y15000500D01*
X12934500Y15000500D01*
X12738379Y14985803D01*
X12738376Y14985802D01*
X12738370Y14985802D01*
X12482584Y14927420D01*
X12238357Y14831568D01*
X12011143Y14700386D01*
X11806019Y14536805D01*
X11806014Y14536801D01*
X11627567Y14344479D01*
X11479772Y14127704D01*
X11479770Y14127700D01*
X11479768Y14127697D01*
X11479767Y14127696D01*
X11365938Y13891326D01*
X11324591Y13757281D01*
X11288604Y13640615D01*
X11282938Y13603022D01*
X11249500Y13381187D01*
X11249500Y13118812D01*
X11281616Y12905746D01*
X11272143Y12836521D01*
X11226749Y12783407D01*
X11159845Y12763267D01*
X11092673Y12782495D01*
X11071325Y12799578D01*
X10558845Y13312058D01*
X10525362Y13373379D01*
X10523310Y13385834D01*
X10518217Y13431047D01*
X10458043Y13603015D01*
X10458039Y13603022D01*
X10377507Y13731188D01*
X10358500Y13797160D01*
X10358500Y17052645D01*
X11394843Y17052645D01*
X11404852Y16842541D01*
X11454442Y16638130D01*
X11541820Y16446795D01*
X11541824Y16446789D01*
X11663826Y16275460D01*
X11663832Y16275454D01*
X11816060Y16130305D01*
X11816061Y16130304D01*
X11816063Y16130303D01*
X11904538Y16073443D01*
X11993015Y16016583D01*
X12188278Y15938410D01*
X12188291Y15938406D01*
X12394828Y15898600D01*
X12394829Y15898600D01*
X12552461Y15898600D01*
X12552468Y15898600D01*
X12709389Y15913584D01*
X12911211Y15972844D01*
X13098170Y16069229D01*
X13218600Y16163936D01*
X13263509Y16199252D01*
X13263510Y16199253D01*
X13401255Y16358219D01*
X13401257Y16358222D01*
X13401259Y16358225D01*
X13506425Y16540379D01*
X13575220Y16739148D01*
X13575222Y16739154D01*
X13605157Y16947355D01*
X13602649Y16999998D01*
X16029981Y16999998D01*
X16050033Y16719635D01*
X16050034Y16719628D01*
X16109779Y16444988D01*
X16208008Y16181623D01*
X16208010Y16181619D01*
X16342711Y15934932D01*
X16342716Y15934924D01*
X16511152Y15709919D01*
X16511168Y15709901D01*
X16709901Y15511168D01*
X16709919Y15511152D01*
X16934924Y15342716D01*
X16934932Y15342711D01*
X17181619Y15208010D01*
X17181623Y15208008D01*
X17381309Y15133529D01*
X17444982Y15109781D01*
X17444983Y15109780D01*
X17444988Y15109779D01*
X17719628Y15050034D01*
X17719635Y15050033D01*
X17929825Y15035000D01*
X18070175Y15035000D01*
X18280364Y15050033D01*
X18280371Y15050034D01*
X18555011Y15109779D01*
X18555014Y15109780D01*
X18555018Y15109781D01*
X18718532Y15170768D01*
X18818376Y15208008D01*
X18818380Y15208010D01*
X19065067Y15342711D01*
X19065075Y15342716D01*
X19290080Y15511152D01*
X19290098Y15511168D01*
X19488831Y15709901D01*
X19488847Y15709919D01*
X19657283Y15934924D01*
X19657288Y15934932D01*
X19791989Y16181619D01*
X19791991Y16181623D01*
X19791992Y16181625D01*
X19890219Y16444982D01*
X19949967Y16719637D01*
X19970019Y17000000D01*
X19966254Y17052645D01*
X22394843Y17052645D01*
X22404852Y16842541D01*
X22454442Y16638130D01*
X22541820Y16446795D01*
X22541824Y16446789D01*
X22663826Y16275460D01*
X22663832Y16275454D01*
X22816060Y16130305D01*
X22816061Y16130304D01*
X22816063Y16130303D01*
X22904538Y16073443D01*
X22993015Y16016583D01*
X23188278Y15938410D01*
X23188291Y15938406D01*
X23394828Y15898600D01*
X23394829Y15898600D01*
X23552461Y15898600D01*
X23552468Y15898600D01*
X23709389Y15913584D01*
X23911211Y15972844D01*
X24098170Y16069229D01*
X24218600Y16163936D01*
X24263509Y16199252D01*
X24263510Y16199253D01*
X24263509Y16199253D01*
X24401255Y16358219D01*
X24401257Y16358222D01*
X24401259Y16358225D01*
X24506425Y16540379D01*
X24575220Y16739148D01*
X24575222Y16739154D01*
X24605157Y16947355D01*
X24595148Y17157459D01*
X24545558Y17361871D01*
X24458179Y17553205D01*
X24336169Y17724544D01*
X24183937Y17869697D01*
X24006986Y17983416D01*
X23811712Y18061593D01*
X23646479Y18093438D01*
X23605172Y18101400D01*
X23605171Y18101400D01*
X23447532Y18101400D01*
X23290611Y18086416D01*
X23088789Y18027156D01*
X22901830Y17930771D01*
X22736490Y17800747D01*
X22598745Y17641781D01*
X22598743Y17641777D01*
X22598740Y17641774D01*
X22493574Y17459620D01*
X22424779Y17260851D01*
X22424778Y17260847D01*
X22424778Y17260846D01*
X22394843Y17052645D01*
X19966254Y17052645D01*
X19949967Y17280363D01*
X19890219Y17555018D01*
X19791992Y17818375D01*
X19657285Y18065073D01*
X19488841Y18290088D01*
X19290088Y18488841D01*
X19065073Y18657285D01*
X18818375Y18791992D01*
X18555018Y18890219D01*
X18280363Y18949967D01*
X18070175Y18965000D01*
X17929825Y18965000D01*
X17719637Y18949967D01*
X17444982Y18890219D01*
X17181625Y18791992D01*
X17181623Y18791991D01*
X17181619Y18791989D01*
X16934932Y18657288D01*
X16934924Y18657283D01*
X16709919Y18488847D01*
X16709901Y18488831D01*
X16511168Y18290098D01*
X16511152Y18290080D01*
X16342716Y18065075D01*
X16342711Y18065067D01*
X16208010Y17818380D01*
X16208008Y17818376D01*
X16173011Y17724545D01*
X16109781Y17555018D01*
X16109780Y17555014D01*
X16109779Y17555011D01*
X16050034Y17280371D01*
X16050033Y17280364D01*
X16029981Y17000001D01*
X16029981Y16999998D01*
X13602649Y16999998D01*
X13595148Y17157459D01*
X13545558Y17361871D01*
X13458179Y17553205D01*
X13336169Y17724544D01*
X13183937Y17869697D01*
X13006986Y17983416D01*
X12811712Y18061593D01*
X12646479Y18093438D01*
X12605172Y18101400D01*
X12605171Y18101400D01*
X12447532Y18101400D01*
X12290611Y18086416D01*
X12088789Y18027156D01*
X11901830Y17930771D01*
X11736490Y17800747D01*
X11598745Y17641781D01*
X11598743Y17641777D01*
X11598740Y17641774D01*
X11493574Y17459620D01*
X11424779Y17260851D01*
X11424778Y17260847D01*
X11424778Y17260846D01*
X11394843Y17052645D01*
X10358500Y17052645D01*
X10358500Y27918812D01*
X16249500Y27918812D01*
X16273853Y27757247D01*
X16288604Y27659385D01*
X16288605Y27659382D01*
X16288606Y27659376D01*
X16365938Y27408673D01*
X16479767Y27172303D01*
X16479768Y27172302D01*
X16627567Y26955520D01*
X16806014Y26763198D01*
X17011143Y26599614D01*
X17238356Y26468432D01*
X17482578Y26372582D01*
X17482597Y26372576D01*
X17738374Y26314197D01*
X17738379Y26314196D01*
X17934500Y26299500D01*
X17934506Y26299500D01*
X18065500Y26299500D01*
X18261620Y26314196D01*
X18261625Y26314197D01*
X18261629Y26314197D01*
X18261630Y26314198D01*
X18299818Y26322914D01*
X18517402Y26372576D01*
X18517411Y26372578D01*
X18517416Y26372580D01*
X18761643Y26468432D01*
X18988857Y26599614D01*
X19193981Y26763195D01*
X19193985Y26763198D01*
X19372432Y26955520D01*
X19372433Y26955521D01*
X19520228Y27172296D01*
X19520231Y27172302D01*
X19520232Y27172303D01*
X19634061Y27408673D01*
X19634063Y27408677D01*
X19711396Y27659385D01*
X19750500Y27918818D01*
X19750500Y28049996D01*
X20461384Y28049996D01*
X20481781Y27868958D01*
X20481782Y27868953D01*
X20541958Y27696982D01*
X20638889Y27542718D01*
X20767718Y27413889D01*
X20921982Y27316958D01*
X21093953Y27256782D01*
X21093958Y27256781D01*
X21274996Y27236384D01*
X21275000Y27236384D01*
X21275004Y27236384D01*
X21456041Y27256781D01*
X21456046Y27256782D01*
X21573693Y27297949D01*
X21628015Y27316957D01*
X21782281Y27413889D01*
X21911111Y27542719D01*
X22008043Y27696985D01*
X22068217Y27868953D01*
X22073835Y27918812D01*
X22088616Y28049996D01*
X22088616Y28050003D01*
X22068218Y28231041D01*
X22068217Y28231046D01*
X22068217Y28231047D01*
X22008043Y28403015D01*
X21911111Y28557281D01*
X21782281Y28686111D01*
X21628015Y28783043D01*
X21456047Y28843217D01*
X21456044Y28843217D01*
X21456041Y28843218D01*
X21275004Y28863616D01*
X21274996Y28863616D01*
X21093958Y28843218D01*
X21093953Y28843217D01*
X20921985Y28783043D01*
X20767719Y28686111D01*
X20767718Y28686110D01*
X20638889Y28557281D01*
X20541958Y28403017D01*
X20481782Y28231046D01*
X20481781Y28231041D01*
X20461384Y28050003D01*
X20461384Y28049996D01*
X19750500Y28049996D01*
X19750500Y28181182D01*
X19711396Y28440615D01*
X19634063Y28691323D01*
X19520228Y28927704D01*
X19372433Y29144479D01*
X19193981Y29336805D01*
X18988857Y29500386D01*
X18761643Y29631568D01*
X18517416Y29727420D01*
X18261630Y29785802D01*
X18261622Y29785802D01*
X18261620Y29785803D01*
X18065500Y29800500D01*
X18065494Y29800500D01*
X17934506Y29800500D01*
X17934500Y29800500D01*
X17738379Y29785803D01*
X17738376Y29785802D01*
X17738370Y29785802D01*
X17482584Y29727420D01*
X17238357Y29631568D01*
X17011143Y29500386D01*
X16806019Y29336805D01*
X16806014Y29336801D01*
X16627566Y29144479D01*
X16627567Y29144479D01*
X16479772Y28927704D01*
X16479770Y28927700D01*
X16479768Y28927697D01*
X16479767Y28927696D01*
X16365938Y28691326D01*
X16306768Y28499500D01*
X16288604Y28440615D01*
X16282937Y28403017D01*
X16249500Y28181187D01*
X16249500Y27918812D01*
X10358500Y27918812D01*
X10358500Y29702839D01*
X10377506Y29768811D01*
X10458041Y29896982D01*
X10458043Y29896985D01*
X10518217Y30068953D01*
X10523835Y30118812D01*
X11249500Y30118812D01*
X11273853Y29957247D01*
X11288604Y29859385D01*
X11288605Y29859382D01*
X11288606Y29859376D01*
X11365938Y29608673D01*
X11479767Y29372303D01*
X11479768Y29372302D01*
X11627567Y29155520D01*
X11806014Y28963198D01*
X12011143Y28799614D01*
X12238356Y28668432D01*
X12482578Y28572582D01*
X12482597Y28572576D01*
X12738374Y28514197D01*
X12738379Y28514196D01*
X12934500Y28499500D01*
X12934506Y28499500D01*
X13065500Y28499500D01*
X13261620Y28514196D01*
X13261625Y28514197D01*
X13261629Y28514197D01*
X13261630Y28514198D01*
X13299818Y28522914D01*
X13517402Y28572576D01*
X13517411Y28572578D01*
X13517416Y28572580D01*
X13761643Y28668432D01*
X13988857Y28799614D01*
X14193981Y28963195D01*
X14193985Y28963198D01*
X14372432Y29155520D01*
X14372433Y29155521D01*
X14520228Y29372296D01*
X14520231Y29372302D01*
X14520232Y29372303D01*
X14634061Y29608673D01*
X14634063Y29608677D01*
X14711396Y29859385D01*
X14750500Y30118818D01*
X14750500Y30381182D01*
X14711396Y30640615D01*
X14634063Y30891323D01*
X14520228Y31127704D01*
X14372433Y31344479D01*
X14193981Y31536805D01*
X13988857Y31700386D01*
X13761643Y31831568D01*
X13517416Y31927420D01*
X13261630Y31985802D01*
X13261622Y31985802D01*
X13261620Y31985803D01*
X13065500Y32000500D01*
X13065494Y32000500D01*
X12934506Y32000500D01*
X12934500Y32000500D01*
X12738379Y31985803D01*
X12738376Y31985802D01*
X12738370Y31985802D01*
X12482584Y31927420D01*
X12238357Y31831568D01*
X12011143Y31700386D01*
X11806019Y31536805D01*
X11806014Y31536801D01*
X11627567Y31344479D01*
X11479772Y31127704D01*
X11479770Y31127700D01*
X11479768Y31127697D01*
X11479767Y31127696D01*
X11365938Y30891326D01*
X11324591Y30757281D01*
X11288604Y30640615D01*
X11282937Y30603017D01*
X11249500Y30381187D01*
X11249500Y30118812D01*
X10523835Y30118812D01*
X10538616Y30249996D01*
X10538616Y30250003D01*
X10518218Y30431041D01*
X10518217Y30431046D01*
X10518217Y30431047D01*
X10458043Y30603015D01*
X10361111Y30757281D01*
X10232281Y30886111D01*
X10078015Y30983043D01*
X9906047Y31043217D01*
X9906044Y31043217D01*
X9906041Y31043218D01*
X9725004Y31063616D01*
X9724996Y31063616D01*
X9543958Y31043218D01*
X9543953Y31043217D01*
X9371985Y30983043D01*
X9217719Y30886111D01*
X9217718Y30886110D01*
X9088889Y30757281D01*
X8991958Y30603017D01*
X8931782Y30431046D01*
X8931781Y30431041D01*
X8911384Y30250003D01*
X8911384Y30249996D01*
X8931781Y30068958D01*
X8931782Y30068953D01*
X8991958Y29896982D01*
X9072494Y29768811D01*
X9091500Y29702839D01*
X9091500Y21376253D01*
X9071815Y21309214D01*
X9019011Y21263459D01*
X8949853Y21253515D01*
X8886297Y21282540D01*
X8879846Y21288545D01*
X8782281Y21386111D01*
X8628015Y21483043D01*
X8456047Y21543217D01*
X8410850Y21548309D01*
X8346440Y21575374D01*
X8337065Y21583838D01*
X4943919Y24976985D01*
X4910434Y25038308D01*
X4907600Y25064666D01*
X4907600Y32867568D01*
X4927285Y32934607D01*
X4980089Y32980362D01*
X5049247Y32990306D01*
X5077687Y32982685D01*
X5188278Y32938410D01*
X5188291Y32938406D01*
X5394828Y32898600D01*
X5394829Y32898600D01*
X5552461Y32898600D01*
X5552468Y32898600D01*
X5709389Y32913584D01*
X5911211Y32972844D01*
X6098170Y33069229D01*
X6218600Y33163936D01*
X6263509Y33199252D01*
X6263510Y33199253D01*
X6263509Y33199253D01*
X6401255Y33358219D01*
X6401257Y33358222D01*
X6401259Y33358225D01*
X6506425Y33540379D01*
X6575220Y33739148D01*
X6575222Y33739154D01*
X6605157Y33947355D01*
X6602649Y33999999D01*
X7644341Y33999999D01*
X7664936Y33764596D01*
X7664938Y33764586D01*
X7726094Y33536344D01*
X7726098Y33536335D01*
X7825964Y33322171D01*
X7825965Y33322169D01*
X7961505Y33128597D01*
X8128597Y32961505D01*
X8322169Y32825965D01*
X8322171Y32825964D01*
X8536335Y32726098D01*
X8536344Y32726094D01*
X8764586Y32664938D01*
X8764596Y32664936D01*
X8941034Y32649500D01*
X9058966Y32649500D01*
X9235403Y32664936D01*
X9235413Y32664938D01*
X9463655Y32726094D01*
X9463659Y32726096D01*
X9463663Y32726097D01*
X9570746Y32776030D01*
X9677828Y32825964D01*
X9677830Y32825965D01*
X9871402Y32961505D01*
X10038493Y33128597D01*
X10038495Y33128599D01*
X10141324Y33275454D01*
X10174032Y33322165D01*
X10174034Y33322169D01*
X10174035Y33322170D01*
X10273903Y33536337D01*
X10335063Y33764592D01*
X10355659Y34000000D01*
X10351053Y34052645D01*
X11394843Y34052645D01*
X11404852Y33842541D01*
X11454442Y33638130D01*
X11541820Y33446795D01*
X11541824Y33446789D01*
X11663826Y33275460D01*
X11663832Y33275454D01*
X11816060Y33130305D01*
X11816061Y33130304D01*
X11816063Y33130303D01*
X11818718Y33128597D01*
X11993015Y33016583D01*
X12188278Y32938410D01*
X12188291Y32938406D01*
X12394828Y32898600D01*
X12394829Y32898600D01*
X12552461Y32898600D01*
X12552468Y32898600D01*
X12709389Y32913584D01*
X12911211Y32972844D01*
X13098170Y33069229D01*
X13218600Y33163936D01*
X13263509Y33199252D01*
X13263510Y33199253D01*
X13263509Y33199253D01*
X13401255Y33358219D01*
X13401257Y33358222D01*
X13401259Y33358225D01*
X13506425Y33540379D01*
X13575220Y33739148D01*
X13575222Y33739154D01*
X13605157Y33947355D01*
X13602649Y33999998D01*
X16029981Y33999998D01*
X16050033Y33719635D01*
X16050034Y33719628D01*
X16109779Y33444988D01*
X16208008Y33181623D01*
X16208010Y33181619D01*
X16342711Y32934932D01*
X16342716Y32934924D01*
X16511152Y32709919D01*
X16511168Y32709901D01*
X16709901Y32511168D01*
X16709919Y32511152D01*
X16934924Y32342716D01*
X16934932Y32342711D01*
X17181619Y32208010D01*
X17181623Y32208008D01*
X17381309Y32133529D01*
X17444982Y32109781D01*
X17444983Y32109780D01*
X17444988Y32109779D01*
X17719628Y32050034D01*
X17719635Y32050033D01*
X17929825Y32035000D01*
X18070175Y32035000D01*
X18280364Y32050033D01*
X18280371Y32050034D01*
X18555011Y32109779D01*
X18555014Y32109780D01*
X18555018Y32109781D01*
X18718532Y32170768D01*
X18818376Y32208008D01*
X18818380Y32208010D01*
X19065067Y32342711D01*
X19065075Y32342716D01*
X19290080Y32511152D01*
X19290098Y32511168D01*
X19488831Y32709901D01*
X19488847Y32709919D01*
X19657283Y32934924D01*
X19657288Y32934932D01*
X19791989Y33181619D01*
X19791991Y33181623D01*
X19791992Y33181625D01*
X19890219Y33444982D01*
X19949967Y33719637D01*
X19970019Y34000000D01*
X19966254Y34052645D01*
X22394843Y34052645D01*
X22404852Y33842541D01*
X22454442Y33638130D01*
X22541820Y33446795D01*
X22541824Y33446789D01*
X22663826Y33275460D01*
X22663832Y33275454D01*
X22816060Y33130305D01*
X22816061Y33130304D01*
X22816063Y33130303D01*
X22818718Y33128597D01*
X22993015Y33016583D01*
X23188278Y32938410D01*
X23188291Y32938406D01*
X23394828Y32898600D01*
X23394829Y32898600D01*
X23552461Y32898600D01*
X23552468Y32898600D01*
X23709389Y32913584D01*
X23911211Y32972844D01*
X24098170Y33069229D01*
X24218600Y33163936D01*
X24263509Y33199252D01*
X24263510Y33199253D01*
X24401255Y33358219D01*
X24401257Y33358222D01*
X24401259Y33358225D01*
X24506425Y33540379D01*
X24575220Y33739148D01*
X24575222Y33739154D01*
X24605157Y33947355D01*
X24595148Y34157459D01*
X24545558Y34361871D01*
X24458179Y34553205D01*
X24395101Y34641785D01*
X24336173Y34724539D01*
X24336171Y34724540D01*
X24336169Y34724544D01*
X24183937Y34869697D01*
X24006986Y34983416D01*
X23811712Y35061593D01*
X23646479Y35093438D01*
X23605172Y35101400D01*
X23605171Y35101400D01*
X23447532Y35101400D01*
X23290611Y35086416D01*
X23088789Y35027156D01*
X22901830Y34930771D01*
X22736490Y34800747D01*
X22598745Y34641781D01*
X22598743Y34641777D01*
X22598740Y34641774D01*
X22493574Y34459620D01*
X22424779Y34260851D01*
X22424778Y34260847D01*
X22424778Y34260846D01*
X22394843Y34052645D01*
X19966254Y34052645D01*
X19949967Y34280363D01*
X19890219Y34555018D01*
X19791992Y34818375D01*
X19657285Y35065073D01*
X19488841Y35290088D01*
X19290088Y35488841D01*
X19065073Y35657285D01*
X18818375Y35791992D01*
X18555018Y35890219D01*
X18280363Y35949967D01*
X18070175Y35965000D01*
X17929825Y35965000D01*
X17719637Y35949967D01*
X17444982Y35890219D01*
X17181625Y35791992D01*
X17181623Y35791991D01*
X17181619Y35791989D01*
X16934932Y35657288D01*
X16934924Y35657283D01*
X16709919Y35488847D01*
X16709901Y35488831D01*
X16511168Y35290098D01*
X16511152Y35290080D01*
X16342716Y35065075D01*
X16342711Y35065067D01*
X16208010Y34818380D01*
X16208008Y34818376D01*
X16196229Y34786794D01*
X16109781Y34555018D01*
X16109780Y34555014D01*
X16109779Y34555011D01*
X16050034Y34280371D01*
X16050033Y34280364D01*
X16029981Y34000001D01*
X16029981Y33999998D01*
X13602649Y33999998D01*
X13595148Y34157459D01*
X13545558Y34361871D01*
X13458179Y34553205D01*
X13395101Y34641785D01*
X13336173Y34724539D01*
X13336171Y34724540D01*
X13336169Y34724544D01*
X13183937Y34869697D01*
X13006986Y34983416D01*
X12811712Y35061593D01*
X12646479Y35093438D01*
X12605172Y35101400D01*
X12605171Y35101400D01*
X12447532Y35101400D01*
X12290611Y35086416D01*
X12088789Y35027156D01*
X11901830Y34930771D01*
X11736490Y34800747D01*
X11598745Y34641781D01*
X11598743Y34641777D01*
X11598740Y34641774D01*
X11493574Y34459620D01*
X11424779Y34260851D01*
X11424778Y34260847D01*
X11424778Y34260846D01*
X11394843Y34052645D01*
X10351053Y34052645D01*
X10335063Y34235408D01*
X10273903Y34463663D01*
X10174035Y34677829D01*
X10038495Y34871401D01*
X9871401Y35038495D01*
X9677829Y35174035D01*
X9463663Y35273903D01*
X9235408Y35335063D01*
X9058966Y35350500D01*
X8941034Y35350500D01*
X8764592Y35335063D01*
X8536337Y35273903D01*
X8322170Y35174035D01*
X8322171Y35174035D01*
X8322169Y35174034D01*
X8128597Y35038494D01*
X8038810Y34948706D01*
X7961505Y34871401D01*
X7934494Y34832825D01*
X7825967Y34677834D01*
X7825965Y34677830D01*
X7726097Y34463663D01*
X7726096Y34463659D01*
X7726094Y34463655D01*
X7664938Y34235413D01*
X7664936Y34235403D01*
X7644341Y34000000D01*
X7644341Y33999999D01*
X6602649Y33999999D01*
X6595148Y34157459D01*
X6545558Y34361871D01*
X6458179Y34553205D01*
X6336169Y34724544D01*
X6330445Y34730000D01*
X6295509Y34790506D01*
X6298830Y34860297D01*
X6328331Y34907427D01*
X8337055Y36916151D01*
X8398378Y36949636D01*
X8410850Y36951690D01*
X8436081Y36954533D01*
X8456047Y36956783D01*
X8542030Y36986870D01*
X8628016Y37016957D01*
X8782281Y37113889D01*
X8911110Y37242718D01*
X8925802Y37266099D01*
X9008043Y37396985D01*
X9068217Y37568953D01*
X9073835Y37618812D01*
X9088616Y37749996D01*
X9088616Y37750003D01*
X9068218Y37931041D01*
X9068217Y37931046D01*
X9068217Y37931047D01*
X9008043Y38103015D01*
X8911111Y38257281D01*
X8782281Y38386111D01*
X8628015Y38483043D01*
X8456047Y38543217D01*
X8456044Y38543217D01*
X8456041Y38543218D01*
X8275004Y38563616D01*
X8274996Y38563616D01*
X8093958Y38543218D01*
X8093953Y38543217D01*
X7921985Y38483043D01*
X7767719Y38386111D01*
X7767718Y38386110D01*
X7638889Y38257281D01*
X7541958Y38103017D01*
X7481782Y37931046D01*
X7481781Y37931042D01*
X7476690Y37885853D01*
X7449623Y37821439D01*
X7441151Y37812056D01*
X6928679Y37299584D01*
X6867356Y37266099D01*
X6797664Y37271083D01*
X6741731Y37312955D01*
X6717314Y37378419D01*
X6718382Y37405737D01*
X6750500Y37618818D01*
X6750500Y37881182D01*
X6711396Y38140615D01*
X6634063Y38391323D01*
X6520228Y38627704D01*
X6372433Y38844479D01*
X6193981Y39036805D01*
X5988857Y39200386D01*
X5761643Y39331568D01*
X5517416Y39427420D01*
X5261630Y39485802D01*
X5261622Y39485802D01*
X5261620Y39485803D01*
X5065500Y39500500D01*
X5065494Y39500500D01*
X4934506Y39500500D01*
X4934500Y39500500D01*
X4738379Y39485803D01*
X4738376Y39485802D01*
X4738370Y39485802D01*
X4482584Y39427420D01*
X4238357Y39331568D01*
X4011143Y39200386D01*
X3806019Y39036805D01*
X3806014Y39036801D01*
X3627566Y38844479D01*
X3627567Y38844479D01*
X3479772Y38627704D01*
X3479770Y38627700D01*
X3479768Y38627697D01*
X3479767Y38627696D01*
X3365938Y38391326D01*
X3306768Y38199500D01*
X3288604Y38140615D01*
X3282937Y38103017D01*
X3249500Y37881187D01*
X3249500Y37618812D01*
X3273853Y37457247D01*
X3288604Y37359385D01*
X3288605Y37359382D01*
X3288606Y37359376D01*
X3365938Y37108673D01*
X3479767Y36872303D01*
X3479768Y36872302D01*
X3627567Y36655520D01*
X3806014Y36463198D01*
X4011143Y36299614D01*
X4238356Y36168432D01*
X4482578Y36072582D01*
X4482581Y36072580D01*
X4482584Y36072580D01*
X4482587Y36072579D01*
X4482595Y36072577D01*
X4680895Y36027316D01*
X4741873Y35993207D01*
X4774731Y35931546D01*
X4769036Y35861908D01*
X4726596Y35806405D01*
X4698952Y35791134D01*
X4684599Y35785452D01*
X4684595Y35785449D01*
X4684594Y35785449D01*
X4646393Y35757694D01*
X4641509Y35754486D01*
X4628063Y35746533D01*
X4600853Y35730442D01*
X4600847Y35730436D01*
X4586419Y35716008D01*
X4571623Y35703370D01*
X4555109Y35691372D01*
X4526912Y35657288D01*
X4525006Y35654984D01*
X4521073Y35650662D01*
X3885283Y35014872D01*
X3872923Y35004971D01*
X3873098Y35004761D01*
X3867086Y34999786D01*
X3867082Y34999784D01*
X3851712Y34983416D01*
X3819116Y34948706D01*
X3801182Y34930771D01*
X3797965Y34927554D01*
X3793631Y34921967D01*
X3789844Y34917534D01*
X3757514Y34883105D01*
X3757512Y34883103D01*
X3747678Y34865215D01*
X3736997Y34848954D01*
X3724484Y34832823D01*
X3705727Y34789477D01*
X3703156Y34784229D01*
X3688206Y34757035D01*
X3680405Y34742844D01*
X3680404Y34742840D01*
X3675328Y34723071D01*
X3669026Y34704665D01*
X3660918Y34685929D01*
X3653530Y34639280D01*
X3652345Y34633557D01*
X3640600Y34587816D01*
X3640600Y34567399D01*
X3639073Y34547998D01*
X3635880Y34527841D01*
X3640325Y34480817D01*
X3640600Y34474979D01*
X3640600Y24834531D01*
X3638861Y24818781D01*
X3639132Y24818756D01*
X3638398Y24810994D01*
X3640600Y24740943D01*
X3640600Y24711037D01*
X3641484Y24704043D01*
X3641942Y24698220D01*
X3643426Y24651012D01*
X3643427Y24651009D01*
X3649122Y24631406D01*
X3653067Y24612358D01*
X3655626Y24592104D01*
X3673013Y24548185D01*
X3674905Y24542659D01*
X3688081Y24497307D01*
X3698474Y24479733D01*
X3707028Y24462272D01*
X3714546Y24443286D01*
X3714547Y24443284D01*
X3742308Y24405072D01*
X3745515Y24400190D01*
X3769557Y24359537D01*
X3783994Y24345101D01*
X3796623Y24330315D01*
X3808628Y24313793D01*
X3808629Y24313791D01*
X3808630Y24313791D01*
X3808632Y24313788D01*
X3845025Y24283680D01*
X3849346Y24279749D01*
X5451819Y22677274D01*
X5485304Y22615951D01*
X5480320Y22546259D01*
X5438448Y22490326D01*
X5372984Y22465909D01*
X5336551Y22468701D01*
X5261630Y22485802D01*
X5261623Y22485802D01*
X5261621Y22485803D01*
X5065500Y22500500D01*
X5065494Y22500500D01*
X4934506Y22500500D01*
X4934500Y22500500D01*
X4738379Y22485803D01*
X4738376Y22485802D01*
X4738370Y22485802D01*
X4482584Y22427420D01*
X4238357Y22331568D01*
X4011143Y22200386D01*
X3806019Y22036805D01*
X3806014Y22036801D01*
X3627566Y21844479D01*
X3627567Y21844479D01*
X3479772Y21627704D01*
X3479770Y21627700D01*
X3479768Y21627697D01*
X3479767Y21627696D01*
X3365938Y21391326D01*
X3306768Y21199500D01*
X3288604Y21140615D01*
X3269794Y21015823D01*
X3249500Y20881187D01*
X3249500Y20618812D01*
X-8924500Y20618812D01*
X-8924500Y22949996D01*
X-4088616Y22949996D01*
X-4073835Y22818812D01*
X-4068217Y22768953D01*
X-4008043Y22596985D01*
X-3911111Y22442719D01*
X-3782281Y22313889D01*
X-3628015Y22216957D01*
X-3580658Y22200386D01*
X-3456046Y22156782D01*
X-3456041Y22156781D01*
X-3275004Y22136384D01*
X-3275000Y22136384D01*
X-3274996Y22136384D01*
X-3093958Y22156781D01*
X-3093953Y22156782D01*
X-2921982Y22216958D01*
X-2767718Y22313889D01*
X-2638889Y22442718D01*
X-2541958Y22596982D01*
X-2481782Y22768953D01*
X-2481781Y22768958D01*
X-2476163Y22818818D01*
X-1750500Y22818818D01*
X-1711396Y22559385D01*
X-1634063Y22308677D01*
X-1634061Y22308673D01*
X-1520232Y22072303D01*
X-1520231Y22072302D01*
X-1520228Y22072296D01*
X-1372433Y21855521D01*
X-1372432Y21855520D01*
X-1193985Y21663198D01*
X-1193981Y21663195D01*
X-988857Y21499614D01*
X-761643Y21368432D01*
X-517416Y21272580D01*
X-517411Y21272578D01*
X-517402Y21272576D01*
X-299818Y21222914D01*
X-261630Y21214198D01*
X-261629Y21214197D01*
X-261625Y21214197D01*
X-261620Y21214196D01*
X-65500Y21199500D01*
X-65494Y21199500D01*
X65500Y21199500D01*
X261620Y21214196D01*
X261625Y21214197D01*
X261629Y21214197D01*
X261630Y21214198D01*
X299818Y21222914D01*
X517402Y21272576D01*
X517411Y21272578D01*
X517416Y21272580D01*
X761643Y21368432D01*
X988857Y21499614D01*
X1193981Y21663195D01*
X1193985Y21663198D01*
X1372432Y21855520D01*
X1372433Y21855521D01*
X1520228Y22072296D01*
X1520231Y22072302D01*
X1520232Y22072303D01*
X1634061Y22308673D01*
X1634063Y22308677D01*
X1711396Y22559385D01*
X1750500Y22818818D01*
X1750500Y23081182D01*
X1711396Y23340615D01*
X1634063Y23591323D01*
X1520228Y23827704D01*
X1372433Y24044479D01*
X1193981Y24236805D01*
X988857Y24400386D01*
X761643Y24531568D01*
X517416Y24627420D01*
X261630Y24685802D01*
X261622Y24685802D01*
X261620Y24685803D01*
X65500Y24700500D01*
X65494Y24700500D01*
X-65494Y24700500D01*
X-65500Y24700500D01*
X-261620Y24685803D01*
X-261622Y24685802D01*
X-261630Y24685802D01*
X-517416Y24627420D01*
X-761643Y24531568D01*
X-988857Y24400386D01*
X-1193981Y24236805D01*
X-1372433Y24044479D01*
X-1520228Y23827704D01*
X-1634063Y23591323D01*
X-1711396Y23340615D01*
X-1750500Y23081182D01*
X-1750500Y22818818D01*
X-2476163Y22818818D01*
X-2461384Y22949996D01*
X-2461384Y22950003D01*
X-2481781Y23131041D01*
X-2481782Y23131046D01*
X-2541958Y23303017D01*
X-2638889Y23457281D01*
X-2767718Y23586110D01*
X-2767719Y23586111D01*
X-2921985Y23683043D01*
X-3093953Y23743217D01*
X-3093958Y23743218D01*
X-3274996Y23763616D01*
X-3275004Y23763616D01*
X-3456041Y23743218D01*
X-3456044Y23743217D01*
X-3456047Y23743217D01*
X-3628015Y23683043D01*
X-3782281Y23586111D01*
X-3911111Y23457281D01*
X-4008043Y23303015D01*
X-4068217Y23131047D01*
X-4068217Y23131046D01*
X-4068218Y23131041D01*
X-4088616Y22950003D01*
X-4088616Y22949996D01*
X-8924500Y22949996D01*
X-8924500Y34052645D01*
X-6605157Y34052645D01*
X-6595148Y33842541D01*
X-6545558Y33638129D01*
X-6499071Y33536337D01*
X-6458179Y33446795D01*
X-6458175Y33446789D01*
X-6336173Y33275460D01*
X-6336169Y33275456D01*
X-6183937Y33130303D01*
X-6006986Y33016584D01*
X-6006984Y33016583D01*
X-5811721Y32938410D01*
X-5811714Y32938407D01*
X-5811712Y32938407D01*
X-5811709Y32938406D01*
X-5811708Y32938406D01*
X-5605172Y32898600D01*
X-5605171Y32898600D01*
X-5447539Y32898600D01*
X-5447532Y32898600D01*
X-5290611Y32913584D01*
X-5290607Y32913585D01*
X-5088791Y32972843D01*
X-4901831Y33069228D01*
X-4736490Y33199252D01*
X-4736489Y33199253D01*
X-4598749Y33358214D01*
X-4598740Y33358225D01*
X-4493574Y33540379D01*
X-4424779Y33739148D01*
X-4424778Y33739155D01*
X-4394843Y33947355D01*
X-4397351Y34000000D01*
X-1970019Y34000000D01*
X-1949967Y33719637D01*
X-1890219Y33444982D01*
X-1791992Y33181625D01*
X-1791991Y33181623D01*
X-1791989Y33181619D01*
X-1657288Y32934932D01*
X-1657283Y32934924D01*
X-1488847Y32709919D01*
X-1488831Y32709901D01*
X-1290098Y32511168D01*
X-1290080Y32511152D01*
X-1065075Y32342716D01*
X-1065067Y32342711D01*
X-818380Y32208010D01*
X-818376Y32208008D01*
X-718532Y32170768D01*
X-555018Y32109781D01*
X-555014Y32109780D01*
X-555011Y32109779D01*
X-280371Y32050034D01*
X-280364Y32050033D01*
X-70175Y32035000D01*
X70175Y32035000D01*
X280364Y32050033D01*
X280371Y32050034D01*
X555011Y32109779D01*
X555014Y32109780D01*
X555018Y32109781D01*
X718532Y32170768D01*
X818376Y32208008D01*
X818380Y32208010D01*
X1065067Y32342711D01*
X1065075Y32342716D01*
X1290080Y32511152D01*
X1290098Y32511168D01*
X1488831Y32709901D01*
X1488847Y32709919D01*
X1657283Y32934924D01*
X1657288Y32934932D01*
X1791989Y33181619D01*
X1791991Y33181623D01*
X1791992Y33181625D01*
X1890219Y33444982D01*
X1949967Y33719637D01*
X1970019Y34000000D01*
X1949967Y34280363D01*
X1890219Y34555018D01*
X1791992Y34818375D01*
X1657285Y35065073D01*
X1488841Y35290088D01*
X1290088Y35488841D01*
X1065073Y35657285D01*
X818375Y35791992D01*
X555018Y35890219D01*
X280363Y35949967D01*
X70175Y35965000D01*
X-70175Y35965000D01*
X-280363Y35949967D01*
X-555018Y35890219D01*
X-818375Y35791992D01*
X-1065073Y35657285D01*
X-1290088Y35488841D01*
X-1488841Y35290088D01*
X-1657285Y35065073D01*
X-1791992Y34818375D01*
X-1890219Y34555018D01*
X-1949967Y34280363D01*
X-1970019Y34000000D01*
X-4397351Y34000000D01*
X-4404852Y34157459D01*
X-4454442Y34361871D01*
X-4509229Y34481839D01*
X-4541820Y34553204D01*
X-4541824Y34553210D01*
X-4663826Y34724539D01*
X-4663832Y34724545D01*
X-4794308Y34848954D01*
X-4816063Y34869697D01*
X-4993014Y34983416D01*
X-5188288Y35061593D01*
X-5343193Y35091448D01*
X-5394828Y35101400D01*
X-5394829Y35101400D01*
X-5552468Y35101400D01*
X-5709389Y35086416D01*
X-5911211Y35027156D01*
X-6098170Y34930771D01*
X-6263510Y34800747D01*
X-6401255Y34641781D01*
X-6506426Y34459619D01*
X-6575222Y34260846D01*
X-6605157Y34052645D01*
X-8924500Y34052645D01*
X-8924500Y39949996D01*
X-4088616Y39949996D01*
X-4073835Y39818812D01*
X-4068217Y39768953D01*
X-4008043Y39596985D01*
X-3911111Y39442719D01*
X-3782281Y39313889D01*
X-3628015Y39216957D01*
X-3580658Y39200386D01*
X-3456046Y39156782D01*
X-3456041Y39156781D01*
X-3275004Y39136384D01*
X-3275000Y39136384D01*
X-3274996Y39136384D01*
X-3093958Y39156781D01*
X-3093953Y39156782D01*
X-2921982Y39216958D01*
X-2767718Y39313889D01*
X-2638889Y39442718D01*
X-2541958Y39596982D01*
X-2481782Y39768953D01*
X-2481781Y39768958D01*
X-2476163Y39818818D01*
X-1750500Y39818818D01*
X-1711396Y39559385D01*
X-1634063Y39308677D01*
X-1634061Y39308673D01*
X-1520232Y39072303D01*
X-1520231Y39072302D01*
X-1520228Y39072296D01*
X-1372433Y38855521D01*
X-1372432Y38855520D01*
X-1193985Y38663198D01*
X-1193981Y38663195D01*
X-988857Y38499614D01*
X-761643Y38368432D01*
X-517416Y38272580D01*
X-517411Y38272578D01*
X-517402Y38272576D01*
X-299818Y38222914D01*
X-261630Y38214198D01*
X-261629Y38214197D01*
X-261625Y38214197D01*
X-261620Y38214196D01*
X-65500Y38199500D01*
X-65494Y38199500D01*
X65500Y38199500D01*
X261620Y38214196D01*
X261625Y38214197D01*
X261629Y38214197D01*
X261630Y38214198D01*
X299818Y38222914D01*
X517402Y38272576D01*
X517411Y38272578D01*
X517416Y38272580D01*
X761643Y38368432D01*
X988857Y38499614D01*
X1193981Y38663195D01*
X1193985Y38663198D01*
X1372432Y38855520D01*
X1372433Y38855521D01*
X1520228Y39072296D01*
X1520231Y39072302D01*
X1520232Y39072303D01*
X1634061Y39308673D01*
X1634063Y39308677D01*
X1711396Y39559385D01*
X1750500Y39818818D01*
X1750500Y40081182D01*
X1711396Y40340615D01*
X1634063Y40591323D01*
X1520228Y40827704D01*
X1372433Y41044479D01*
X1206938Y41222841D01*
X1193985Y41236801D01*
X1193983Y41236801D01*
X1193981Y41236805D01*
X988857Y41400386D01*
X761643Y41531568D01*
X517416Y41627420D01*
X261630Y41685802D01*
X261622Y41685802D01*
X261620Y41685803D01*
X65500Y41700500D01*
X65494Y41700500D01*
X-65494Y41700500D01*
X-65500Y41700500D01*
X-261620Y41685803D01*
X-261622Y41685802D01*
X-261630Y41685802D01*
X-517416Y41627420D01*
X-761643Y41531568D01*
X-988857Y41400386D01*
X-1193981Y41236805D01*
X-1193983Y41236801D01*
X-1193985Y41236801D01*
X-1206938Y41222841D01*
X-1372433Y41044479D01*
X-1520228Y40827704D01*
X-1634063Y40591323D01*
X-1711396Y40340615D01*
X-1750500Y40081182D01*
X-1750500Y39818818D01*
X-2476163Y39818818D01*
X-2461384Y39949996D01*
X-2461384Y39950003D01*
X-2481781Y40131041D01*
X-2481782Y40131046D01*
X-2541958Y40303017D01*
X-2638889Y40457281D01*
X-2767718Y40586110D01*
X-2767719Y40586111D01*
X-2921985Y40683043D01*
X-3093953Y40743217D01*
X-3093958Y40743218D01*
X-3274996Y40763616D01*
X-3275004Y40763616D01*
X-3456041Y40743218D01*
X-3456044Y40743217D01*
X-3456047Y40743217D01*
X-3628015Y40683043D01*
X-3782281Y40586111D01*
X-3911111Y40457281D01*
X-4008043Y40303015D01*
X-4068217Y40131047D01*
X-4068217Y40131046D01*
X-4068218Y40131041D01*
X-4088616Y39950003D01*
X-4088616Y39949996D01*
X-8924500Y39949996D01*
X-8924500Y40997559D01*
X-8924309Y41002426D01*
X-8907727Y41213113D01*
X-8904683Y41232331D01*
X-8857058Y41430705D01*
X-8851045Y41449211D01*
X-8772972Y41637694D01*
X-8764138Y41655031D01*
X-8657543Y41828977D01*
X-8646106Y41844719D01*
X-8513610Y41999852D01*
X-8499852Y42013610D01*
X-8344719Y42146106D01*
X-8328977Y42157543D01*
X-8155031Y42264138D01*
X-8137694Y42272972D01*
X-7949211Y42351045D01*
X-7930705Y42357058D01*
X-7732331Y42404683D01*
X-7713113Y42407727D01*
X-7502427Y42424309D01*
X-7497560Y42424500D01*
X-7475469Y42424500D01*
X25475469Y42424500D01*
X25497560Y42424500D01*
X25502427Y42424309D01*
G37*
%TD.AperFunction*%
M02*
