%TF.GenerationSoftware,KiCad,Pcbnew,(7.0.0-0)*%
%TF.CreationDate,2023-02-20T17:01:43+08:00*%
%TF.ProjectId,left,6c656674-2e6b-4696-9361-645f70636258,v1.0.0*%
%TF.SameCoordinates,Original*%
%TF.FileFunction,Drillmap*%
%TF.FilePolarity,Positive*%
%FSLAX45Y45*%
G04 Gerber Fmt 4.5, Leading zero omitted, Abs format (unit mm)*
G04 Created by KiCad (PCBNEW (7.0.0-0)) date 2023-02-20 17:01:43*
%MOMM*%
%LPD*%
G01*
G04 APERTURE LIST*
%ADD10C,0.150000*%
%ADD11C,0.200000*%
%ADD12C,0.090000*%
%ADD13C,0.170180*%
%ADD14C,0.220000*%
%ADD15C,0.300000*%
%ADD16C,0.342900*%
G04 APERTURE END LIST*
D10*
X-551000Y-850000D02*
X951000Y-850000D01*
X1100000Y-701000D02*
X1100000Y101000D01*
X-551000Y5950000D02*
X2351000Y5950000D01*
X4700000Y5799000D02*
X4700000Y6101000D01*
X4551000Y6250000D02*
X2649000Y6250000D01*
X2500000Y6101000D02*
X2500000Y6099000D01*
X5965037Y5650000D02*
X4849000Y5650000D01*
X1249000Y250000D02*
X8151000Y250000D01*
X8300000Y399000D02*
X8300000Y5201000D01*
X8151000Y5350000D02*
X6748999Y5350000D01*
X6599999Y5499332D02*
G75*
G03*
X6076194Y5699777I-299999J668D01*
G01*
X-700000Y-701000D02*
X-700000Y5801000D01*
X951000Y-850000D02*
G75*
G03*
X1100000Y-701000I0J149000D01*
G01*
X1249000Y250000D02*
G75*
G03*
X1100000Y101000I0J-149000D01*
G01*
X8151000Y250000D02*
G75*
G03*
X8300000Y399000I0J149000D01*
G01*
X8300000Y5201000D02*
G75*
G03*
X8151000Y5350000I-149000J0D01*
G01*
X6599999Y5499332D02*
G75*
G03*
X6748999Y5350000I149000J-332D01*
G01*
X5965037Y5650000D02*
G75*
G03*
X6076194Y5699777I0J149000D01*
G01*
X4700000Y5799000D02*
G75*
G03*
X4849000Y5650000I149000J0D01*
G01*
X4700000Y6101000D02*
G75*
G03*
X4551000Y6250000I-149000J0D01*
G01*
X2649000Y6250000D02*
G75*
G03*
X2500000Y6101000I0J-149000D01*
G01*
X2351000Y5950000D02*
G75*
G03*
X2500000Y6099000I0J149000D01*
G01*
X-551000Y5950000D02*
G75*
G03*
X-700000Y5801000I0J-149000D01*
G01*
X-700000Y-701000D02*
G75*
G03*
X-551000Y-850000I149000J0D01*
G01*
D11*
D12*
X1605000Y540000D02*
X1695000Y450000D01*
X1695000Y540000D02*
X1605000Y450000D01*
X1905000Y540000D02*
X1995000Y450000D01*
X1995000Y540000D02*
X1905000Y450000D01*
D13*
X-464910Y3400000D02*
G75*
G03*
X-464910Y3400000I-85090J0D01*
G01*
X-464910Y1700000D02*
G75*
G03*
X-464910Y1700000I-85090J0D01*
G01*
X-464910Y0D02*
G75*
G03*
X-464910Y0I-85090J0D01*
G01*
X635090Y3400000D02*
G75*
G03*
X635090Y3400000I-85090J0D01*
G01*
X635090Y1700000D02*
G75*
G03*
X635090Y1700000I-85090J0D01*
G01*
X635090Y0D02*
G75*
G03*
X635090Y0I-85090J0D01*
G01*
X1335090Y5100000D02*
G75*
G03*
X1335090Y5100000I-85090J0D01*
G01*
X1335090Y3400000D02*
G75*
G03*
X1335090Y3400000I-85090J0D01*
G01*
X1335090Y1700000D02*
G75*
G03*
X1335090Y1700000I-85090J0D01*
G01*
X2435090Y5100000D02*
G75*
G03*
X2435090Y5100000I-85090J0D01*
G01*
X2435090Y3400000D02*
G75*
G03*
X2435090Y3400000I-85090J0D01*
G01*
X2435090Y1700000D02*
G75*
G03*
X2435090Y1700000I-85090J0D01*
G01*
X3135090Y5400000D02*
G75*
G03*
X3135090Y5400000I-85090J0D01*
G01*
X3135090Y3700000D02*
G75*
G03*
X3135090Y3700000I-85090J0D01*
G01*
X3135090Y2000000D02*
G75*
G03*
X3135090Y2000000I-85090J0D01*
G01*
X4235090Y5400000D02*
G75*
G03*
X4235090Y5400000I-85090J0D01*
G01*
X4235090Y3700000D02*
G75*
G03*
X4235090Y3700000I-85090J0D01*
G01*
X4235090Y2000000D02*
G75*
G03*
X4235090Y2000000I-85090J0D01*
G01*
X4935090Y4800000D02*
G75*
G03*
X4935090Y4800000I-85090J0D01*
G01*
X4935090Y3100000D02*
G75*
G03*
X4935090Y3100000I-85090J0D01*
G01*
X4935090Y1400000D02*
G75*
G03*
X4935090Y1400000I-85090J0D01*
G01*
X6035090Y4800000D02*
G75*
G03*
X6035090Y4800000I-85090J0D01*
G01*
X6035090Y3100000D02*
G75*
G03*
X6035090Y3100000I-85090J0D01*
G01*
X6035090Y1400000D02*
G75*
G03*
X6035090Y1400000I-85090J0D01*
G01*
X6735090Y4500000D02*
G75*
G03*
X6735090Y4500000I-85090J0D01*
G01*
X6735090Y2800000D02*
G75*
G03*
X6735090Y2800000I-85090J0D01*
G01*
X6735090Y1100000D02*
G75*
G03*
X6735090Y1100000I-85090J0D01*
G01*
X7835090Y4500000D02*
G75*
G03*
X7835090Y4500000I-85090J0D01*
G01*
X7835090Y2800000D02*
G75*
G03*
X7835090Y2800000I-85090J0D01*
G01*
X7835090Y1100000D02*
G75*
G03*
X7835090Y1100000I-85090J0D01*
G01*
D14*
X900000Y4360000D02*
X900000Y4140000D01*
X790000Y4250000D02*
X1010000Y4250000D01*
X900000Y960000D02*
X900000Y740000D01*
X790000Y850000D02*
X1010000Y850000D01*
X2700000Y4660000D02*
X2700000Y4440000D01*
X2590000Y4550000D02*
X2810000Y4550000D01*
X2700000Y1260000D02*
X2700000Y1040000D01*
X2590000Y1150000D02*
X2810000Y1150000D01*
X6300000Y5610000D02*
X6300000Y5390000D01*
X6190000Y5500000D02*
X6410000Y5500000D01*
X6300000Y660000D02*
X6300000Y440000D01*
X6190000Y550000D02*
X6410000Y550000D01*
D15*
X106067Y3888933D02*
X106067Y4101067D01*
X-106067Y4101067D01*
X-106067Y3888933D01*
X106067Y3888933D01*
X106067Y2188933D02*
X106067Y2401067D01*
X-106067Y2401067D01*
X-106067Y2188933D01*
X106067Y2188933D01*
X106067Y488933D02*
X106067Y701067D01*
X-106067Y701067D01*
X-106067Y488933D01*
X106067Y488933D01*
X606067Y3668933D02*
X606067Y3881067D01*
X393933Y3881067D01*
X393933Y3668933D01*
X606067Y3668933D01*
X606067Y1968933D02*
X606067Y2181067D01*
X393933Y2181067D01*
X393933Y1968933D01*
X606067Y1968933D01*
X606067Y268933D02*
X606067Y481067D01*
X393933Y481067D01*
X393933Y268933D01*
X606067Y268933D01*
X1906067Y5588933D02*
X1906067Y5801067D01*
X1693933Y5801067D01*
X1693933Y5588933D01*
X1906067Y5588933D01*
X1906067Y3888933D02*
X1906067Y4101067D01*
X1693933Y4101067D01*
X1693933Y3888933D01*
X1906067Y3888933D01*
X1906067Y2188933D02*
X1906067Y2401067D01*
X1693933Y2401067D01*
X1693933Y2188933D01*
X1906067Y2188933D01*
X2406067Y5368933D02*
X2406067Y5581067D01*
X2193933Y5581067D01*
X2193933Y5368933D01*
X2406067Y5368933D01*
X2406067Y3668933D02*
X2406067Y3881067D01*
X2193933Y3881067D01*
X2193933Y3668933D01*
X2406067Y3668933D01*
X2406067Y1968933D02*
X2406067Y2181067D01*
X2193933Y2181067D01*
X2193933Y1968933D01*
X2406067Y1968933D01*
X3206067Y4918933D02*
X3206067Y5131067D01*
X2993933Y5131067D01*
X2993933Y4918933D01*
X3206067Y4918933D01*
X3706067Y4698933D02*
X3706067Y4911067D01*
X3493933Y4911067D01*
X3493933Y4698933D01*
X3706067Y4698933D01*
X3706067Y4188933D02*
X3706067Y4401067D01*
X3493933Y4401067D01*
X3493933Y4188933D01*
X3706067Y4188933D01*
X3706067Y2488933D02*
X3706067Y2701067D01*
X3493933Y2701067D01*
X3493933Y2488933D01*
X3706067Y2488933D01*
X4206067Y3968933D02*
X4206067Y4181067D01*
X3993933Y4181067D01*
X3993933Y3968933D01*
X4206067Y3968933D01*
X4206067Y2268933D02*
X4206067Y2481067D01*
X3993933Y2481067D01*
X3993933Y2268933D01*
X4206067Y2268933D01*
X5006067Y4318933D02*
X5006067Y4531067D01*
X4793933Y4531067D01*
X4793933Y4318933D01*
X5006067Y4318933D01*
X5006067Y2618933D02*
X5006067Y2831067D01*
X4793933Y2831067D01*
X4793933Y2618933D01*
X5006067Y2618933D01*
X5506067Y4098933D02*
X5506067Y4311067D01*
X5293933Y4311067D01*
X5293933Y4098933D01*
X5506067Y4098933D01*
X5506067Y2398933D02*
X5506067Y2611067D01*
X5293933Y2611067D01*
X5293933Y2398933D01*
X5506067Y2398933D01*
X5506067Y1888933D02*
X5506067Y2101067D01*
X5293933Y2101067D01*
X5293933Y1888933D01*
X5506067Y1888933D01*
X6006067Y1668933D02*
X6006067Y1881067D01*
X5793933Y1881067D01*
X5793933Y1668933D01*
X6006067Y1668933D01*
X7306067Y1588933D02*
X7306067Y1801067D01*
X7093933Y1801067D01*
X7093933Y1588933D01*
X7306067Y1588933D01*
X7806067Y1368933D02*
X7806067Y1581067D01*
X7593933Y1581067D01*
X7593933Y1368933D01*
X7806067Y1368933D01*
D16*
X0Y3228550D02*
X171450Y3400000D01*
X0Y3571450D01*
X-171450Y3400000D01*
X0Y3228550D01*
X0Y1528550D02*
X171450Y1700000D01*
X0Y1871450D01*
X-171450Y1700000D01*
X0Y1528550D01*
X0Y-171450D02*
X171450Y0D01*
X0Y171450D01*
X-171450Y0D01*
X0Y-171450D01*
X1800000Y4928550D02*
X1971450Y5100000D01*
X1800000Y5271450D01*
X1628550Y5100000D01*
X1800000Y4928550D01*
X1800000Y3228550D02*
X1971450Y3400000D01*
X1800000Y3571450D01*
X1628550Y3400000D01*
X1800000Y3228550D01*
X1800000Y1528550D02*
X1971450Y1700000D01*
X1800000Y1871450D01*
X1628550Y1700000D01*
X1800000Y1528550D01*
X3600000Y5228550D02*
X3771450Y5400000D01*
X3600000Y5571450D01*
X3428550Y5400000D01*
X3600000Y5228550D01*
X3600000Y3528550D02*
X3771450Y3700000D01*
X3600000Y3871450D01*
X3428550Y3700000D01*
X3600000Y3528550D01*
X3600000Y1828550D02*
X3771450Y2000000D01*
X3600000Y2171450D01*
X3428550Y2000000D01*
X3600000Y1828550D01*
X5400000Y4628550D02*
X5571450Y4800000D01*
X5400000Y4971450D01*
X5228550Y4800000D01*
X5400000Y4628550D01*
X5400000Y2928550D02*
X5571450Y3100000D01*
X5400000Y3271450D01*
X5228550Y3100000D01*
X5400000Y2928550D01*
X5400000Y1228550D02*
X5571450Y1400000D01*
X5400000Y1571450D01*
X5228550Y1400000D01*
X5400000Y1228550D01*
X7200000Y4328550D02*
X7371450Y4500000D01*
X7200000Y4671450D01*
X7028550Y4500000D01*
X7200000Y4328550D01*
X7200000Y2628550D02*
X7371450Y2800000D01*
X7200000Y2971450D01*
X7028550Y2800000D01*
X7200000Y2628550D01*
X7200000Y928550D02*
X7371450Y1100000D01*
X7200000Y1271450D01*
X7028550Y1100000D01*
X7200000Y928550D01*
D11*
X-459881Y-1150976D02*
X-459881Y-950976D01*
X-459881Y-950976D02*
X-412262Y-950976D01*
X-412262Y-950976D02*
X-383690Y-960500D01*
X-383690Y-960500D02*
X-364643Y-979548D01*
X-364643Y-979548D02*
X-355119Y-998595D01*
X-355119Y-998595D02*
X-345595Y-1036690D01*
X-345595Y-1036690D02*
X-345595Y-1065262D01*
X-345595Y-1065262D02*
X-355119Y-1103357D01*
X-355119Y-1103357D02*
X-364643Y-1122405D01*
X-364643Y-1122405D02*
X-383690Y-1141452D01*
X-383690Y-1141452D02*
X-412262Y-1150976D01*
X-412262Y-1150976D02*
X-459881Y-1150976D01*
X-259881Y-1150976D02*
X-259881Y-1017643D01*
X-259881Y-1055738D02*
X-250357Y-1036690D01*
X-250357Y-1036690D02*
X-240833Y-1027167D01*
X-240833Y-1027167D02*
X-221786Y-1017643D01*
X-221786Y-1017643D02*
X-202738Y-1017643D01*
X-136071Y-1150976D02*
X-136071Y-1017643D01*
X-136071Y-950976D02*
X-145595Y-960500D01*
X-145595Y-960500D02*
X-136071Y-970024D01*
X-136071Y-970024D02*
X-126548Y-960500D01*
X-126548Y-960500D02*
X-136071Y-950976D01*
X-136071Y-950976D02*
X-136071Y-970024D01*
X-12262Y-1150976D02*
X-31309Y-1141452D01*
X-31309Y-1141452D02*
X-40833Y-1122405D01*
X-40833Y-1122405D02*
X-40833Y-950976D01*
X92500Y-1150976D02*
X73452Y-1141452D01*
X73452Y-1141452D02*
X63928Y-1122405D01*
X63928Y-1122405D02*
X63928Y-950976D01*
X288690Y-1150976D02*
X288690Y-950976D01*
X288690Y-950976D02*
X355357Y-1093833D01*
X355357Y-1093833D02*
X422024Y-950976D01*
X422024Y-950976D02*
X422024Y-1150976D01*
X602976Y-1150976D02*
X602976Y-1046214D01*
X602976Y-1046214D02*
X593452Y-1027167D01*
X593452Y-1027167D02*
X574405Y-1017643D01*
X574405Y-1017643D02*
X536309Y-1017643D01*
X536309Y-1017643D02*
X517262Y-1027167D01*
X602976Y-1141452D02*
X583929Y-1150976D01*
X583929Y-1150976D02*
X536309Y-1150976D01*
X536309Y-1150976D02*
X517262Y-1141452D01*
X517262Y-1141452D02*
X507738Y-1122405D01*
X507738Y-1122405D02*
X507738Y-1103357D01*
X507738Y-1103357D02*
X517262Y-1084310D01*
X517262Y-1084310D02*
X536309Y-1074786D01*
X536309Y-1074786D02*
X583929Y-1074786D01*
X583929Y-1074786D02*
X602976Y-1065262D01*
X698214Y-1017643D02*
X698214Y-1217643D01*
X698214Y-1027167D02*
X717262Y-1017643D01*
X717262Y-1017643D02*
X755357Y-1017643D01*
X755357Y-1017643D02*
X774405Y-1027167D01*
X774405Y-1027167D02*
X783928Y-1036690D01*
X783928Y-1036690D02*
X793452Y-1055738D01*
X793452Y-1055738D02*
X793452Y-1112881D01*
X793452Y-1112881D02*
X783928Y-1131929D01*
X783928Y-1131929D02*
X774405Y-1141452D01*
X774405Y-1141452D02*
X755357Y-1150976D01*
X755357Y-1150976D02*
X717262Y-1150976D01*
X717262Y-1150976D02*
X698214Y-1141452D01*
X879167Y-1131929D02*
X888690Y-1141452D01*
X888690Y-1141452D02*
X879167Y-1150976D01*
X879167Y-1150976D02*
X869643Y-1141452D01*
X869643Y-1141452D02*
X879167Y-1131929D01*
X879167Y-1131929D02*
X879167Y-1150976D01*
X879167Y-1027167D02*
X888690Y-1036690D01*
X888690Y-1036690D02*
X879167Y-1046214D01*
X879167Y-1046214D02*
X869643Y-1036690D01*
X869643Y-1036690D02*
X879167Y-1027167D01*
X879167Y-1027167D02*
X879167Y-1046214D01*
D12*
X-797500Y-1452500D02*
X-707500Y-1542500D01*
X-707500Y-1452500D02*
X-797500Y-1542500D01*
D11*
X-421786Y-1370976D02*
X-402738Y-1370976D01*
X-402738Y-1370976D02*
X-383690Y-1380500D01*
X-383690Y-1380500D02*
X-374167Y-1390024D01*
X-374167Y-1390024D02*
X-364643Y-1409071D01*
X-364643Y-1409071D02*
X-355119Y-1447167D01*
X-355119Y-1447167D02*
X-355119Y-1494786D01*
X-355119Y-1494786D02*
X-364643Y-1532881D01*
X-364643Y-1532881D02*
X-374167Y-1551928D01*
X-374167Y-1551928D02*
X-383690Y-1561452D01*
X-383690Y-1561452D02*
X-402738Y-1570976D01*
X-402738Y-1570976D02*
X-421786Y-1570976D01*
X-421786Y-1570976D02*
X-440833Y-1561452D01*
X-440833Y-1561452D02*
X-450357Y-1551928D01*
X-450357Y-1551928D02*
X-459881Y-1532881D01*
X-459881Y-1532881D02*
X-469405Y-1494786D01*
X-469405Y-1494786D02*
X-469405Y-1447167D01*
X-469405Y-1447167D02*
X-459881Y-1409071D01*
X-459881Y-1409071D02*
X-450357Y-1390024D01*
X-450357Y-1390024D02*
X-440833Y-1380500D01*
X-440833Y-1380500D02*
X-421786Y-1370976D01*
X-269405Y-1551928D02*
X-259881Y-1561452D01*
X-259881Y-1561452D02*
X-269405Y-1570976D01*
X-269405Y-1570976D02*
X-278929Y-1561452D01*
X-278929Y-1561452D02*
X-269405Y-1551928D01*
X-269405Y-1551928D02*
X-269405Y-1570976D01*
X-164643Y-1570976D02*
X-126548Y-1570976D01*
X-126548Y-1570976D02*
X-107500Y-1561452D01*
X-107500Y-1561452D02*
X-97976Y-1551928D01*
X-97976Y-1551928D02*
X-78929Y-1523357D01*
X-78929Y-1523357D02*
X-69405Y-1485262D01*
X-69405Y-1485262D02*
X-69405Y-1409071D01*
X-69405Y-1409071D02*
X-78929Y-1390024D01*
X-78929Y-1390024D02*
X-88452Y-1380500D01*
X-88452Y-1380500D02*
X-107500Y-1370976D01*
X-107500Y-1370976D02*
X-145595Y-1370976D01*
X-145595Y-1370976D02*
X-164643Y-1380500D01*
X-164643Y-1380500D02*
X-174167Y-1390024D01*
X-174167Y-1390024D02*
X-183690Y-1409071D01*
X-183690Y-1409071D02*
X-183690Y-1456690D01*
X-183690Y-1456690D02*
X-174167Y-1475738D01*
X-174167Y-1475738D02*
X-164643Y-1485262D01*
X-164643Y-1485262D02*
X-145595Y-1494786D01*
X-145595Y-1494786D02*
X-107500Y-1494786D01*
X-107500Y-1494786D02*
X-88452Y-1485262D01*
X-88452Y-1485262D02*
X-78929Y-1475738D01*
X-78929Y-1475738D02*
X-69405Y-1456690D01*
X54405Y-1370976D02*
X73452Y-1370976D01*
X73452Y-1370976D02*
X92500Y-1380500D01*
X92500Y-1380500D02*
X102024Y-1390024D01*
X102024Y-1390024D02*
X111548Y-1409071D01*
X111548Y-1409071D02*
X121071Y-1447167D01*
X121071Y-1447167D02*
X121071Y-1494786D01*
X121071Y-1494786D02*
X111548Y-1532881D01*
X111548Y-1532881D02*
X102024Y-1551928D01*
X102024Y-1551928D02*
X92500Y-1561452D01*
X92500Y-1561452D02*
X73452Y-1570976D01*
X73452Y-1570976D02*
X54405Y-1570976D01*
X54405Y-1570976D02*
X35357Y-1561452D01*
X35357Y-1561452D02*
X25833Y-1551928D01*
X25833Y-1551928D02*
X16309Y-1532881D01*
X16309Y-1532881D02*
X6786Y-1494786D01*
X6786Y-1494786D02*
X6786Y-1447167D01*
X6786Y-1447167D02*
X16309Y-1409071D01*
X16309Y-1409071D02*
X25833Y-1390024D01*
X25833Y-1390024D02*
X35357Y-1380500D01*
X35357Y-1380500D02*
X54405Y-1370976D01*
X244881Y-1370976D02*
X263929Y-1370976D01*
X263929Y-1370976D02*
X282976Y-1380500D01*
X282976Y-1380500D02*
X292500Y-1390024D01*
X292500Y-1390024D02*
X302024Y-1409071D01*
X302024Y-1409071D02*
X311548Y-1447167D01*
X311548Y-1447167D02*
X311548Y-1494786D01*
X311548Y-1494786D02*
X302024Y-1532881D01*
X302024Y-1532881D02*
X292500Y-1551928D01*
X292500Y-1551928D02*
X282976Y-1561452D01*
X282976Y-1561452D02*
X263929Y-1570976D01*
X263929Y-1570976D02*
X244881Y-1570976D01*
X244881Y-1570976D02*
X225833Y-1561452D01*
X225833Y-1561452D02*
X216309Y-1551928D01*
X216309Y-1551928D02*
X206786Y-1532881D01*
X206786Y-1532881D02*
X197262Y-1494786D01*
X197262Y-1494786D02*
X197262Y-1447167D01*
X197262Y-1447167D02*
X206786Y-1409071D01*
X206786Y-1409071D02*
X216309Y-1390024D01*
X216309Y-1390024D02*
X225833Y-1380500D01*
X225833Y-1380500D02*
X244881Y-1370976D01*
X397262Y-1570976D02*
X397262Y-1437643D01*
X397262Y-1456690D02*
X406786Y-1447167D01*
X406786Y-1447167D02*
X425833Y-1437643D01*
X425833Y-1437643D02*
X454405Y-1437643D01*
X454405Y-1437643D02*
X473452Y-1447167D01*
X473452Y-1447167D02*
X482976Y-1466214D01*
X482976Y-1466214D02*
X482976Y-1570976D01*
X482976Y-1466214D02*
X492500Y-1447167D01*
X492500Y-1447167D02*
X511548Y-1437643D01*
X511548Y-1437643D02*
X540119Y-1437643D01*
X540119Y-1437643D02*
X559167Y-1447167D01*
X559167Y-1447167D02*
X568691Y-1466214D01*
X568691Y-1466214D02*
X568691Y-1570976D01*
X663929Y-1570976D02*
X663929Y-1437643D01*
X663929Y-1456690D02*
X673452Y-1447167D01*
X673452Y-1447167D02*
X692500Y-1437643D01*
X692500Y-1437643D02*
X721071Y-1437643D01*
X721071Y-1437643D02*
X740119Y-1447167D01*
X740119Y-1447167D02*
X749643Y-1466214D01*
X749643Y-1466214D02*
X749643Y-1570976D01*
X749643Y-1466214D02*
X759167Y-1447167D01*
X759167Y-1447167D02*
X778214Y-1437643D01*
X778214Y-1437643D02*
X806786Y-1437643D01*
X806786Y-1437643D02*
X825833Y-1447167D01*
X825833Y-1447167D02*
X835357Y-1466214D01*
X835357Y-1466214D02*
X835357Y-1570976D01*
X1193452Y-1361452D02*
X1022024Y-1618595D01*
X1418214Y-1370976D02*
X1437262Y-1370976D01*
X1437262Y-1370976D02*
X1456310Y-1380500D01*
X1456310Y-1380500D02*
X1465833Y-1390024D01*
X1465833Y-1390024D02*
X1475357Y-1409071D01*
X1475357Y-1409071D02*
X1484881Y-1447167D01*
X1484881Y-1447167D02*
X1484881Y-1494786D01*
X1484881Y-1494786D02*
X1475357Y-1532881D01*
X1475357Y-1532881D02*
X1465833Y-1551928D01*
X1465833Y-1551928D02*
X1456310Y-1561452D01*
X1456310Y-1561452D02*
X1437262Y-1570976D01*
X1437262Y-1570976D02*
X1418214Y-1570976D01*
X1418214Y-1570976D02*
X1399167Y-1561452D01*
X1399167Y-1561452D02*
X1389643Y-1551928D01*
X1389643Y-1551928D02*
X1380119Y-1532881D01*
X1380119Y-1532881D02*
X1370595Y-1494786D01*
X1370595Y-1494786D02*
X1370595Y-1447167D01*
X1370595Y-1447167D02*
X1380119Y-1409071D01*
X1380119Y-1409071D02*
X1389643Y-1390024D01*
X1389643Y-1390024D02*
X1399167Y-1380500D01*
X1399167Y-1380500D02*
X1418214Y-1370976D01*
X1570595Y-1551928D02*
X1580119Y-1561452D01*
X1580119Y-1561452D02*
X1570595Y-1570976D01*
X1570595Y-1570976D02*
X1561071Y-1561452D01*
X1561071Y-1561452D02*
X1570595Y-1551928D01*
X1570595Y-1551928D02*
X1570595Y-1570976D01*
X1703929Y-1370976D02*
X1722976Y-1370976D01*
X1722976Y-1370976D02*
X1742024Y-1380500D01*
X1742024Y-1380500D02*
X1751548Y-1390024D01*
X1751548Y-1390024D02*
X1761071Y-1409071D01*
X1761071Y-1409071D02*
X1770595Y-1447167D01*
X1770595Y-1447167D02*
X1770595Y-1494786D01*
X1770595Y-1494786D02*
X1761071Y-1532881D01*
X1761071Y-1532881D02*
X1751548Y-1551928D01*
X1751548Y-1551928D02*
X1742024Y-1561452D01*
X1742024Y-1561452D02*
X1722976Y-1570976D01*
X1722976Y-1570976D02*
X1703929Y-1570976D01*
X1703929Y-1570976D02*
X1684881Y-1561452D01*
X1684881Y-1561452D02*
X1675357Y-1551928D01*
X1675357Y-1551928D02*
X1665833Y-1532881D01*
X1665833Y-1532881D02*
X1656310Y-1494786D01*
X1656310Y-1494786D02*
X1656310Y-1447167D01*
X1656310Y-1447167D02*
X1665833Y-1409071D01*
X1665833Y-1409071D02*
X1675357Y-1390024D01*
X1675357Y-1390024D02*
X1684881Y-1380500D01*
X1684881Y-1380500D02*
X1703929Y-1370976D01*
X1837262Y-1370976D02*
X1961071Y-1370976D01*
X1961071Y-1370976D02*
X1894405Y-1447167D01*
X1894405Y-1447167D02*
X1922976Y-1447167D01*
X1922976Y-1447167D02*
X1942024Y-1456690D01*
X1942024Y-1456690D02*
X1951548Y-1466214D01*
X1951548Y-1466214D02*
X1961071Y-1485262D01*
X1961071Y-1485262D02*
X1961071Y-1532881D01*
X1961071Y-1532881D02*
X1951548Y-1551928D01*
X1951548Y-1551928D02*
X1942024Y-1561452D01*
X1942024Y-1561452D02*
X1922976Y-1570976D01*
X1922976Y-1570976D02*
X1865833Y-1570976D01*
X1865833Y-1570976D02*
X1846786Y-1561452D01*
X1846786Y-1561452D02*
X1837262Y-1551928D01*
X2142024Y-1370976D02*
X2046786Y-1370976D01*
X2046786Y-1370976D02*
X2037262Y-1466214D01*
X2037262Y-1466214D02*
X2046786Y-1456690D01*
X2046786Y-1456690D02*
X2065833Y-1447167D01*
X2065833Y-1447167D02*
X2113453Y-1447167D01*
X2113453Y-1447167D02*
X2132500Y-1456690D01*
X2132500Y-1456690D02*
X2142024Y-1466214D01*
X2142024Y-1466214D02*
X2151548Y-1485262D01*
X2151548Y-1485262D02*
X2151548Y-1532881D01*
X2151548Y-1532881D02*
X2142024Y-1551928D01*
X2142024Y-1551928D02*
X2132500Y-1561452D01*
X2132500Y-1561452D02*
X2113453Y-1570976D01*
X2113453Y-1570976D02*
X2065833Y-1570976D01*
X2065833Y-1570976D02*
X2046786Y-1561452D01*
X2046786Y-1561452D02*
X2037262Y-1551928D01*
X2322976Y-1437643D02*
X2322976Y-1570976D01*
X2275357Y-1361452D02*
X2227738Y-1504309D01*
X2227738Y-1504309D02*
X2351548Y-1504309D01*
X2418214Y-1370976D02*
X2418214Y-1409071D01*
X2494405Y-1370976D02*
X2494405Y-1409071D01*
X2757262Y-1647167D02*
X2747738Y-1637643D01*
X2747738Y-1637643D02*
X2728691Y-1609071D01*
X2728691Y-1609071D02*
X2719167Y-1590024D01*
X2719167Y-1590024D02*
X2709643Y-1561452D01*
X2709643Y-1561452D02*
X2700119Y-1513833D01*
X2700119Y-1513833D02*
X2700119Y-1475738D01*
X2700119Y-1475738D02*
X2709643Y-1428119D01*
X2709643Y-1428119D02*
X2719167Y-1399548D01*
X2719167Y-1399548D02*
X2728691Y-1380500D01*
X2728691Y-1380500D02*
X2747738Y-1351929D01*
X2747738Y-1351929D02*
X2757262Y-1342405D01*
X2823929Y-1390024D02*
X2833452Y-1380500D01*
X2833452Y-1380500D02*
X2852500Y-1370976D01*
X2852500Y-1370976D02*
X2900119Y-1370976D01*
X2900119Y-1370976D02*
X2919167Y-1380500D01*
X2919167Y-1380500D02*
X2928691Y-1390024D01*
X2928691Y-1390024D02*
X2938214Y-1409071D01*
X2938214Y-1409071D02*
X2938214Y-1428119D01*
X2938214Y-1428119D02*
X2928691Y-1456690D01*
X2928691Y-1456690D02*
X2814405Y-1570976D01*
X2814405Y-1570976D02*
X2938214Y-1570976D01*
X3143929Y-1570976D02*
X3143929Y-1370976D01*
X3229643Y-1570976D02*
X3229643Y-1466214D01*
X3229643Y-1466214D02*
X3220119Y-1447167D01*
X3220119Y-1447167D02*
X3201072Y-1437643D01*
X3201072Y-1437643D02*
X3172500Y-1437643D01*
X3172500Y-1437643D02*
X3153452Y-1447167D01*
X3153452Y-1447167D02*
X3143929Y-1456690D01*
X3353452Y-1570976D02*
X3334405Y-1561452D01*
X3334405Y-1561452D02*
X3324881Y-1551928D01*
X3324881Y-1551928D02*
X3315357Y-1532881D01*
X3315357Y-1532881D02*
X3315357Y-1475738D01*
X3315357Y-1475738D02*
X3324881Y-1456690D01*
X3324881Y-1456690D02*
X3334405Y-1447167D01*
X3334405Y-1447167D02*
X3353452Y-1437643D01*
X3353452Y-1437643D02*
X3382024Y-1437643D01*
X3382024Y-1437643D02*
X3401072Y-1447167D01*
X3401072Y-1447167D02*
X3410595Y-1456690D01*
X3410595Y-1456690D02*
X3420119Y-1475738D01*
X3420119Y-1475738D02*
X3420119Y-1532881D01*
X3420119Y-1532881D02*
X3410595Y-1551928D01*
X3410595Y-1551928D02*
X3401072Y-1561452D01*
X3401072Y-1561452D02*
X3382024Y-1570976D01*
X3382024Y-1570976D02*
X3353452Y-1570976D01*
X3534405Y-1570976D02*
X3515357Y-1561452D01*
X3515357Y-1561452D02*
X3505833Y-1542405D01*
X3505833Y-1542405D02*
X3505833Y-1370976D01*
X3686786Y-1561452D02*
X3667738Y-1570976D01*
X3667738Y-1570976D02*
X3629643Y-1570976D01*
X3629643Y-1570976D02*
X3610595Y-1561452D01*
X3610595Y-1561452D02*
X3601072Y-1542405D01*
X3601072Y-1542405D02*
X3601072Y-1466214D01*
X3601072Y-1466214D02*
X3610595Y-1447167D01*
X3610595Y-1447167D02*
X3629643Y-1437643D01*
X3629643Y-1437643D02*
X3667738Y-1437643D01*
X3667738Y-1437643D02*
X3686786Y-1447167D01*
X3686786Y-1447167D02*
X3696310Y-1466214D01*
X3696310Y-1466214D02*
X3696310Y-1485262D01*
X3696310Y-1485262D02*
X3601072Y-1504309D01*
X3772500Y-1561452D02*
X3791548Y-1570976D01*
X3791548Y-1570976D02*
X3829643Y-1570976D01*
X3829643Y-1570976D02*
X3848691Y-1561452D01*
X3848691Y-1561452D02*
X3858214Y-1542405D01*
X3858214Y-1542405D02*
X3858214Y-1532881D01*
X3858214Y-1532881D02*
X3848691Y-1513833D01*
X3848691Y-1513833D02*
X3829643Y-1504309D01*
X3829643Y-1504309D02*
X3801072Y-1504309D01*
X3801072Y-1504309D02*
X3782024Y-1494786D01*
X3782024Y-1494786D02*
X3772500Y-1475738D01*
X3772500Y-1475738D02*
X3772500Y-1466214D01*
X3772500Y-1466214D02*
X3782024Y-1447167D01*
X3782024Y-1447167D02*
X3801072Y-1437643D01*
X3801072Y-1437643D02*
X3829643Y-1437643D01*
X3829643Y-1437643D02*
X3848691Y-1447167D01*
X3924881Y-1647167D02*
X3934405Y-1637643D01*
X3934405Y-1637643D02*
X3953453Y-1609071D01*
X3953453Y-1609071D02*
X3962976Y-1590024D01*
X3962976Y-1590024D02*
X3972500Y-1561452D01*
X3972500Y-1561452D02*
X3982024Y-1513833D01*
X3982024Y-1513833D02*
X3982024Y-1475738D01*
X3982024Y-1475738D02*
X3972500Y-1428119D01*
X3972500Y-1428119D02*
X3962976Y-1399548D01*
X3962976Y-1399548D02*
X3953453Y-1380500D01*
X3953453Y-1380500D02*
X3934405Y-1351929D01*
X3934405Y-1351929D02*
X3924881Y-1342405D01*
X4254405Y-1647167D02*
X4244881Y-1637643D01*
X4244881Y-1637643D02*
X4225834Y-1609071D01*
X4225834Y-1609071D02*
X4216310Y-1590024D01*
X4216310Y-1590024D02*
X4206786Y-1561452D01*
X4206786Y-1561452D02*
X4197262Y-1513833D01*
X4197262Y-1513833D02*
X4197262Y-1475738D01*
X4197262Y-1475738D02*
X4206786Y-1428119D01*
X4206786Y-1428119D02*
X4216310Y-1399548D01*
X4216310Y-1399548D02*
X4225834Y-1380500D01*
X4225834Y-1380500D02*
X4244881Y-1351929D01*
X4244881Y-1351929D02*
X4254405Y-1342405D01*
X4330595Y-1437643D02*
X4330595Y-1570976D01*
X4330595Y-1456690D02*
X4340119Y-1447167D01*
X4340119Y-1447167D02*
X4359167Y-1437643D01*
X4359167Y-1437643D02*
X4387738Y-1437643D01*
X4387738Y-1437643D02*
X4406786Y-1447167D01*
X4406786Y-1447167D02*
X4416310Y-1466214D01*
X4416310Y-1466214D02*
X4416310Y-1570976D01*
X4540119Y-1570976D02*
X4521072Y-1561452D01*
X4521072Y-1561452D02*
X4511548Y-1551928D01*
X4511548Y-1551928D02*
X4502024Y-1532881D01*
X4502024Y-1532881D02*
X4502024Y-1475738D01*
X4502024Y-1475738D02*
X4511548Y-1456690D01*
X4511548Y-1456690D02*
X4521072Y-1447167D01*
X4521072Y-1447167D02*
X4540119Y-1437643D01*
X4540119Y-1437643D02*
X4568691Y-1437643D01*
X4568691Y-1437643D02*
X4587738Y-1447167D01*
X4587738Y-1447167D02*
X4597262Y-1456690D01*
X4597262Y-1456690D02*
X4606786Y-1475738D01*
X4606786Y-1475738D02*
X4606786Y-1532881D01*
X4606786Y-1532881D02*
X4597262Y-1551928D01*
X4597262Y-1551928D02*
X4587738Y-1561452D01*
X4587738Y-1561452D02*
X4568691Y-1570976D01*
X4568691Y-1570976D02*
X4540119Y-1570976D01*
X4663929Y-1437643D02*
X4740119Y-1437643D01*
X4692500Y-1370976D02*
X4692500Y-1542405D01*
X4692500Y-1542405D02*
X4702024Y-1561452D01*
X4702024Y-1561452D02*
X4721072Y-1570976D01*
X4721072Y-1570976D02*
X4740119Y-1570976D01*
X4926786Y-1437643D02*
X4926786Y-1637643D01*
X4926786Y-1447167D02*
X4945834Y-1437643D01*
X4945834Y-1437643D02*
X4983929Y-1437643D01*
X4983929Y-1437643D02*
X5002976Y-1447167D01*
X5002976Y-1447167D02*
X5012500Y-1456690D01*
X5012500Y-1456690D02*
X5022024Y-1475738D01*
X5022024Y-1475738D02*
X5022024Y-1532881D01*
X5022024Y-1532881D02*
X5012500Y-1551928D01*
X5012500Y-1551928D02*
X5002976Y-1561452D01*
X5002976Y-1561452D02*
X4983929Y-1570976D01*
X4983929Y-1570976D02*
X4945834Y-1570976D01*
X4945834Y-1570976D02*
X4926786Y-1561452D01*
X5136310Y-1570976D02*
X5117262Y-1561452D01*
X5117262Y-1561452D02*
X5107738Y-1542405D01*
X5107738Y-1542405D02*
X5107738Y-1370976D01*
X5298215Y-1570976D02*
X5298215Y-1466214D01*
X5298215Y-1466214D02*
X5288691Y-1447167D01*
X5288691Y-1447167D02*
X5269643Y-1437643D01*
X5269643Y-1437643D02*
X5231548Y-1437643D01*
X5231548Y-1437643D02*
X5212500Y-1447167D01*
X5298215Y-1561452D02*
X5279167Y-1570976D01*
X5279167Y-1570976D02*
X5231548Y-1570976D01*
X5231548Y-1570976D02*
X5212500Y-1561452D01*
X5212500Y-1561452D02*
X5202976Y-1542405D01*
X5202976Y-1542405D02*
X5202976Y-1523357D01*
X5202976Y-1523357D02*
X5212500Y-1504309D01*
X5212500Y-1504309D02*
X5231548Y-1494786D01*
X5231548Y-1494786D02*
X5279167Y-1494786D01*
X5279167Y-1494786D02*
X5298215Y-1485262D01*
X5364881Y-1437643D02*
X5441072Y-1437643D01*
X5393453Y-1370976D02*
X5393453Y-1542405D01*
X5393453Y-1542405D02*
X5402976Y-1561452D01*
X5402976Y-1561452D02*
X5422024Y-1570976D01*
X5422024Y-1570976D02*
X5441072Y-1570976D01*
X5583929Y-1561452D02*
X5564881Y-1570976D01*
X5564881Y-1570976D02*
X5526786Y-1570976D01*
X5526786Y-1570976D02*
X5507738Y-1561452D01*
X5507738Y-1561452D02*
X5498215Y-1542405D01*
X5498215Y-1542405D02*
X5498215Y-1466214D01*
X5498215Y-1466214D02*
X5507738Y-1447167D01*
X5507738Y-1447167D02*
X5526786Y-1437643D01*
X5526786Y-1437643D02*
X5564881Y-1437643D01*
X5564881Y-1437643D02*
X5583929Y-1447167D01*
X5583929Y-1447167D02*
X5593453Y-1466214D01*
X5593453Y-1466214D02*
X5593453Y-1485262D01*
X5593453Y-1485262D02*
X5498215Y-1504309D01*
X5764881Y-1570976D02*
X5764881Y-1370976D01*
X5764881Y-1561452D02*
X5745834Y-1570976D01*
X5745834Y-1570976D02*
X5707738Y-1570976D01*
X5707738Y-1570976D02*
X5688691Y-1561452D01*
X5688691Y-1561452D02*
X5679167Y-1551928D01*
X5679167Y-1551928D02*
X5669643Y-1532881D01*
X5669643Y-1532881D02*
X5669643Y-1475738D01*
X5669643Y-1475738D02*
X5679167Y-1456690D01*
X5679167Y-1456690D02*
X5688691Y-1447167D01*
X5688691Y-1447167D02*
X5707738Y-1437643D01*
X5707738Y-1437643D02*
X5745834Y-1437643D01*
X5745834Y-1437643D02*
X5764881Y-1447167D01*
X5841072Y-1647167D02*
X5850595Y-1637643D01*
X5850595Y-1637643D02*
X5869643Y-1609071D01*
X5869643Y-1609071D02*
X5879167Y-1590024D01*
X5879167Y-1590024D02*
X5888691Y-1561452D01*
X5888691Y-1561452D02*
X5898214Y-1513833D01*
X5898214Y-1513833D02*
X5898214Y-1475738D01*
X5898214Y-1475738D02*
X5888691Y-1428119D01*
X5888691Y-1428119D02*
X5879167Y-1399548D01*
X5879167Y-1399548D02*
X5869643Y-1380500D01*
X5869643Y-1380500D02*
X5850595Y-1351929D01*
X5850595Y-1351929D02*
X5841072Y-1342405D01*
D13*
X-707500Y-1761500D02*
G75*
G03*
X-707500Y-1761500I-85090J0D01*
G01*
D11*
X-355119Y-1834976D02*
X-469405Y-1834976D01*
X-412262Y-1834976D02*
X-412262Y-1634976D01*
X-412262Y-1634976D02*
X-431309Y-1663548D01*
X-431309Y-1663548D02*
X-450357Y-1682595D01*
X-450357Y-1682595D02*
X-469405Y-1692119D01*
X-269405Y-1815928D02*
X-259881Y-1825452D01*
X-259881Y-1825452D02*
X-269405Y-1834976D01*
X-269405Y-1834976D02*
X-278929Y-1825452D01*
X-278929Y-1825452D02*
X-269405Y-1815928D01*
X-269405Y-1815928D02*
X-269405Y-1834976D01*
X-193214Y-1634976D02*
X-59881Y-1634976D01*
X-59881Y-1634976D02*
X-145595Y-1834976D01*
X54405Y-1634976D02*
X73452Y-1634976D01*
X73452Y-1634976D02*
X92500Y-1644500D01*
X92500Y-1644500D02*
X102024Y-1654024D01*
X102024Y-1654024D02*
X111548Y-1673071D01*
X111548Y-1673071D02*
X121071Y-1711167D01*
X121071Y-1711167D02*
X121071Y-1758786D01*
X121071Y-1758786D02*
X111548Y-1796881D01*
X111548Y-1796881D02*
X102024Y-1815928D01*
X102024Y-1815928D02*
X92500Y-1825452D01*
X92500Y-1825452D02*
X73452Y-1834976D01*
X73452Y-1834976D02*
X54405Y-1834976D01*
X54405Y-1834976D02*
X35357Y-1825452D01*
X35357Y-1825452D02*
X25833Y-1815928D01*
X25833Y-1815928D02*
X16309Y-1796881D01*
X16309Y-1796881D02*
X6786Y-1758786D01*
X6786Y-1758786D02*
X6786Y-1711167D01*
X6786Y-1711167D02*
X16309Y-1673071D01*
X16309Y-1673071D02*
X25833Y-1654024D01*
X25833Y-1654024D02*
X35357Y-1644500D01*
X35357Y-1644500D02*
X54405Y-1634976D01*
X197262Y-1654024D02*
X206786Y-1644500D01*
X206786Y-1644500D02*
X225833Y-1634976D01*
X225833Y-1634976D02*
X273452Y-1634976D01*
X273452Y-1634976D02*
X292500Y-1644500D01*
X292500Y-1644500D02*
X302024Y-1654024D01*
X302024Y-1654024D02*
X311548Y-1673071D01*
X311548Y-1673071D02*
X311548Y-1692119D01*
X311548Y-1692119D02*
X302024Y-1720690D01*
X302024Y-1720690D02*
X187738Y-1834976D01*
X187738Y-1834976D02*
X311548Y-1834976D01*
X397262Y-1834976D02*
X397262Y-1701643D01*
X397262Y-1720690D02*
X406786Y-1711167D01*
X406786Y-1711167D02*
X425833Y-1701643D01*
X425833Y-1701643D02*
X454405Y-1701643D01*
X454405Y-1701643D02*
X473452Y-1711167D01*
X473452Y-1711167D02*
X482976Y-1730214D01*
X482976Y-1730214D02*
X482976Y-1834976D01*
X482976Y-1730214D02*
X492500Y-1711167D01*
X492500Y-1711167D02*
X511548Y-1701643D01*
X511548Y-1701643D02*
X540119Y-1701643D01*
X540119Y-1701643D02*
X559167Y-1711167D01*
X559167Y-1711167D02*
X568691Y-1730214D01*
X568691Y-1730214D02*
X568691Y-1834976D01*
X663929Y-1834976D02*
X663929Y-1701643D01*
X663929Y-1720690D02*
X673452Y-1711167D01*
X673452Y-1711167D02*
X692500Y-1701643D01*
X692500Y-1701643D02*
X721071Y-1701643D01*
X721071Y-1701643D02*
X740119Y-1711167D01*
X740119Y-1711167D02*
X749643Y-1730214D01*
X749643Y-1730214D02*
X749643Y-1834976D01*
X749643Y-1730214D02*
X759167Y-1711167D01*
X759167Y-1711167D02*
X778214Y-1701643D01*
X778214Y-1701643D02*
X806786Y-1701643D01*
X806786Y-1701643D02*
X825833Y-1711167D01*
X825833Y-1711167D02*
X835357Y-1730214D01*
X835357Y-1730214D02*
X835357Y-1834976D01*
X1193452Y-1625452D02*
X1022024Y-1882595D01*
X1418214Y-1634976D02*
X1437262Y-1634976D01*
X1437262Y-1634976D02*
X1456310Y-1644500D01*
X1456310Y-1644500D02*
X1465833Y-1654024D01*
X1465833Y-1654024D02*
X1475357Y-1673071D01*
X1475357Y-1673071D02*
X1484881Y-1711167D01*
X1484881Y-1711167D02*
X1484881Y-1758786D01*
X1484881Y-1758786D02*
X1475357Y-1796881D01*
X1475357Y-1796881D02*
X1465833Y-1815928D01*
X1465833Y-1815928D02*
X1456310Y-1825452D01*
X1456310Y-1825452D02*
X1437262Y-1834976D01*
X1437262Y-1834976D02*
X1418214Y-1834976D01*
X1418214Y-1834976D02*
X1399167Y-1825452D01*
X1399167Y-1825452D02*
X1389643Y-1815928D01*
X1389643Y-1815928D02*
X1380119Y-1796881D01*
X1380119Y-1796881D02*
X1370595Y-1758786D01*
X1370595Y-1758786D02*
X1370595Y-1711167D01*
X1370595Y-1711167D02*
X1380119Y-1673071D01*
X1380119Y-1673071D02*
X1389643Y-1654024D01*
X1389643Y-1654024D02*
X1399167Y-1644500D01*
X1399167Y-1644500D02*
X1418214Y-1634976D01*
X1570595Y-1815928D02*
X1580119Y-1825452D01*
X1580119Y-1825452D02*
X1570595Y-1834976D01*
X1570595Y-1834976D02*
X1561071Y-1825452D01*
X1561071Y-1825452D02*
X1570595Y-1815928D01*
X1570595Y-1815928D02*
X1570595Y-1834976D01*
X1703929Y-1634976D02*
X1722976Y-1634976D01*
X1722976Y-1634976D02*
X1742024Y-1644500D01*
X1742024Y-1644500D02*
X1751548Y-1654024D01*
X1751548Y-1654024D02*
X1761071Y-1673071D01*
X1761071Y-1673071D02*
X1770595Y-1711167D01*
X1770595Y-1711167D02*
X1770595Y-1758786D01*
X1770595Y-1758786D02*
X1761071Y-1796881D01*
X1761071Y-1796881D02*
X1751548Y-1815928D01*
X1751548Y-1815928D02*
X1742024Y-1825452D01*
X1742024Y-1825452D02*
X1722976Y-1834976D01*
X1722976Y-1834976D02*
X1703929Y-1834976D01*
X1703929Y-1834976D02*
X1684881Y-1825452D01*
X1684881Y-1825452D02*
X1675357Y-1815928D01*
X1675357Y-1815928D02*
X1665833Y-1796881D01*
X1665833Y-1796881D02*
X1656310Y-1758786D01*
X1656310Y-1758786D02*
X1656310Y-1711167D01*
X1656310Y-1711167D02*
X1665833Y-1673071D01*
X1665833Y-1673071D02*
X1675357Y-1654024D01*
X1675357Y-1654024D02*
X1684881Y-1644500D01*
X1684881Y-1644500D02*
X1703929Y-1634976D01*
X1942024Y-1634976D02*
X1903929Y-1634976D01*
X1903929Y-1634976D02*
X1884881Y-1644500D01*
X1884881Y-1644500D02*
X1875357Y-1654024D01*
X1875357Y-1654024D02*
X1856310Y-1682595D01*
X1856310Y-1682595D02*
X1846786Y-1720690D01*
X1846786Y-1720690D02*
X1846786Y-1796881D01*
X1846786Y-1796881D02*
X1856310Y-1815928D01*
X1856310Y-1815928D02*
X1865833Y-1825452D01*
X1865833Y-1825452D02*
X1884881Y-1834976D01*
X1884881Y-1834976D02*
X1922976Y-1834976D01*
X1922976Y-1834976D02*
X1942024Y-1825452D01*
X1942024Y-1825452D02*
X1951548Y-1815928D01*
X1951548Y-1815928D02*
X1961071Y-1796881D01*
X1961071Y-1796881D02*
X1961071Y-1749262D01*
X1961071Y-1749262D02*
X1951548Y-1730214D01*
X1951548Y-1730214D02*
X1942024Y-1720690D01*
X1942024Y-1720690D02*
X1922976Y-1711167D01*
X1922976Y-1711167D02*
X1884881Y-1711167D01*
X1884881Y-1711167D02*
X1865833Y-1720690D01*
X1865833Y-1720690D02*
X1856310Y-1730214D01*
X1856310Y-1730214D02*
X1846786Y-1749262D01*
X2027738Y-1634976D02*
X2161072Y-1634976D01*
X2161072Y-1634976D02*
X2075357Y-1834976D01*
X2275357Y-1634976D02*
X2294405Y-1634976D01*
X2294405Y-1634976D02*
X2313453Y-1644500D01*
X2313453Y-1644500D02*
X2322976Y-1654024D01*
X2322976Y-1654024D02*
X2332500Y-1673071D01*
X2332500Y-1673071D02*
X2342024Y-1711167D01*
X2342024Y-1711167D02*
X2342024Y-1758786D01*
X2342024Y-1758786D02*
X2332500Y-1796881D01*
X2332500Y-1796881D02*
X2322976Y-1815928D01*
X2322976Y-1815928D02*
X2313453Y-1825452D01*
X2313453Y-1825452D02*
X2294405Y-1834976D01*
X2294405Y-1834976D02*
X2275357Y-1834976D01*
X2275357Y-1834976D02*
X2256310Y-1825452D01*
X2256310Y-1825452D02*
X2246786Y-1815928D01*
X2246786Y-1815928D02*
X2237262Y-1796881D01*
X2237262Y-1796881D02*
X2227738Y-1758786D01*
X2227738Y-1758786D02*
X2227738Y-1711167D01*
X2227738Y-1711167D02*
X2237262Y-1673071D01*
X2237262Y-1673071D02*
X2246786Y-1654024D01*
X2246786Y-1654024D02*
X2256310Y-1644500D01*
X2256310Y-1644500D02*
X2275357Y-1634976D01*
X2418214Y-1634976D02*
X2418214Y-1673071D01*
X2494405Y-1634976D02*
X2494405Y-1673071D01*
X2757262Y-1911167D02*
X2747738Y-1901643D01*
X2747738Y-1901643D02*
X2728691Y-1873071D01*
X2728691Y-1873071D02*
X2719167Y-1854024D01*
X2719167Y-1854024D02*
X2709643Y-1825452D01*
X2709643Y-1825452D02*
X2700119Y-1777833D01*
X2700119Y-1777833D02*
X2700119Y-1739738D01*
X2700119Y-1739738D02*
X2709643Y-1692119D01*
X2709643Y-1692119D02*
X2719167Y-1663548D01*
X2719167Y-1663548D02*
X2728691Y-1644500D01*
X2728691Y-1644500D02*
X2747738Y-1615928D01*
X2747738Y-1615928D02*
X2757262Y-1606405D01*
X2814405Y-1634976D02*
X2938214Y-1634976D01*
X2938214Y-1634976D02*
X2871548Y-1711167D01*
X2871548Y-1711167D02*
X2900119Y-1711167D01*
X2900119Y-1711167D02*
X2919167Y-1720690D01*
X2919167Y-1720690D02*
X2928691Y-1730214D01*
X2928691Y-1730214D02*
X2938214Y-1749262D01*
X2938214Y-1749262D02*
X2938214Y-1796881D01*
X2938214Y-1796881D02*
X2928691Y-1815928D01*
X2928691Y-1815928D02*
X2919167Y-1825452D01*
X2919167Y-1825452D02*
X2900119Y-1834976D01*
X2900119Y-1834976D02*
X2842976Y-1834976D01*
X2842976Y-1834976D02*
X2823929Y-1825452D01*
X2823929Y-1825452D02*
X2814405Y-1815928D01*
X3062024Y-1634976D02*
X3081072Y-1634976D01*
X3081072Y-1634976D02*
X3100119Y-1644500D01*
X3100119Y-1644500D02*
X3109643Y-1654024D01*
X3109643Y-1654024D02*
X3119167Y-1673071D01*
X3119167Y-1673071D02*
X3128691Y-1711167D01*
X3128691Y-1711167D02*
X3128691Y-1758786D01*
X3128691Y-1758786D02*
X3119167Y-1796881D01*
X3119167Y-1796881D02*
X3109643Y-1815928D01*
X3109643Y-1815928D02*
X3100119Y-1825452D01*
X3100119Y-1825452D02*
X3081072Y-1834976D01*
X3081072Y-1834976D02*
X3062024Y-1834976D01*
X3062024Y-1834976D02*
X3042976Y-1825452D01*
X3042976Y-1825452D02*
X3033452Y-1815928D01*
X3033452Y-1815928D02*
X3023929Y-1796881D01*
X3023929Y-1796881D02*
X3014405Y-1758786D01*
X3014405Y-1758786D02*
X3014405Y-1711167D01*
X3014405Y-1711167D02*
X3023929Y-1673071D01*
X3023929Y-1673071D02*
X3033452Y-1654024D01*
X3033452Y-1654024D02*
X3042976Y-1644500D01*
X3042976Y-1644500D02*
X3062024Y-1634976D01*
X3334405Y-1834976D02*
X3334405Y-1634976D01*
X3420119Y-1834976D02*
X3420119Y-1730214D01*
X3420119Y-1730214D02*
X3410595Y-1711167D01*
X3410595Y-1711167D02*
X3391548Y-1701643D01*
X3391548Y-1701643D02*
X3362976Y-1701643D01*
X3362976Y-1701643D02*
X3343929Y-1711167D01*
X3343929Y-1711167D02*
X3334405Y-1720690D01*
X3543929Y-1834976D02*
X3524881Y-1825452D01*
X3524881Y-1825452D02*
X3515357Y-1815928D01*
X3515357Y-1815928D02*
X3505833Y-1796881D01*
X3505833Y-1796881D02*
X3505833Y-1739738D01*
X3505833Y-1739738D02*
X3515357Y-1720690D01*
X3515357Y-1720690D02*
X3524881Y-1711167D01*
X3524881Y-1711167D02*
X3543929Y-1701643D01*
X3543929Y-1701643D02*
X3572500Y-1701643D01*
X3572500Y-1701643D02*
X3591548Y-1711167D01*
X3591548Y-1711167D02*
X3601072Y-1720690D01*
X3601072Y-1720690D02*
X3610595Y-1739738D01*
X3610595Y-1739738D02*
X3610595Y-1796881D01*
X3610595Y-1796881D02*
X3601072Y-1815928D01*
X3601072Y-1815928D02*
X3591548Y-1825452D01*
X3591548Y-1825452D02*
X3572500Y-1834976D01*
X3572500Y-1834976D02*
X3543929Y-1834976D01*
X3724881Y-1834976D02*
X3705833Y-1825452D01*
X3705833Y-1825452D02*
X3696310Y-1806405D01*
X3696310Y-1806405D02*
X3696310Y-1634976D01*
X3877262Y-1825452D02*
X3858214Y-1834976D01*
X3858214Y-1834976D02*
X3820119Y-1834976D01*
X3820119Y-1834976D02*
X3801072Y-1825452D01*
X3801072Y-1825452D02*
X3791548Y-1806405D01*
X3791548Y-1806405D02*
X3791548Y-1730214D01*
X3791548Y-1730214D02*
X3801072Y-1711167D01*
X3801072Y-1711167D02*
X3820119Y-1701643D01*
X3820119Y-1701643D02*
X3858214Y-1701643D01*
X3858214Y-1701643D02*
X3877262Y-1711167D01*
X3877262Y-1711167D02*
X3886786Y-1730214D01*
X3886786Y-1730214D02*
X3886786Y-1749262D01*
X3886786Y-1749262D02*
X3791548Y-1768309D01*
X3962976Y-1825452D02*
X3982024Y-1834976D01*
X3982024Y-1834976D02*
X4020119Y-1834976D01*
X4020119Y-1834976D02*
X4039167Y-1825452D01*
X4039167Y-1825452D02*
X4048691Y-1806405D01*
X4048691Y-1806405D02*
X4048691Y-1796881D01*
X4048691Y-1796881D02*
X4039167Y-1777833D01*
X4039167Y-1777833D02*
X4020119Y-1768309D01*
X4020119Y-1768309D02*
X3991548Y-1768309D01*
X3991548Y-1768309D02*
X3972500Y-1758786D01*
X3972500Y-1758786D02*
X3962976Y-1739738D01*
X3962976Y-1739738D02*
X3962976Y-1730214D01*
X3962976Y-1730214D02*
X3972500Y-1711167D01*
X3972500Y-1711167D02*
X3991548Y-1701643D01*
X3991548Y-1701643D02*
X4020119Y-1701643D01*
X4020119Y-1701643D02*
X4039167Y-1711167D01*
X4115357Y-1911167D02*
X4124881Y-1901643D01*
X4124881Y-1901643D02*
X4143929Y-1873071D01*
X4143929Y-1873071D02*
X4153453Y-1854024D01*
X4153453Y-1854024D02*
X4162976Y-1825452D01*
X4162976Y-1825452D02*
X4172500Y-1777833D01*
X4172500Y-1777833D02*
X4172500Y-1739738D01*
X4172500Y-1739738D02*
X4162976Y-1692119D01*
X4162976Y-1692119D02*
X4153453Y-1663548D01*
X4153453Y-1663548D02*
X4143929Y-1644500D01*
X4143929Y-1644500D02*
X4124881Y-1615928D01*
X4124881Y-1615928D02*
X4115357Y-1606405D01*
X4444881Y-1911167D02*
X4435357Y-1901643D01*
X4435357Y-1901643D02*
X4416310Y-1873071D01*
X4416310Y-1873071D02*
X4406786Y-1854024D01*
X4406786Y-1854024D02*
X4397262Y-1825452D01*
X4397262Y-1825452D02*
X4387738Y-1777833D01*
X4387738Y-1777833D02*
X4387738Y-1739738D01*
X4387738Y-1739738D02*
X4397262Y-1692119D01*
X4397262Y-1692119D02*
X4406786Y-1663548D01*
X4406786Y-1663548D02*
X4416310Y-1644500D01*
X4416310Y-1644500D02*
X4435357Y-1615928D01*
X4435357Y-1615928D02*
X4444881Y-1606405D01*
X4521072Y-1701643D02*
X4521072Y-1834976D01*
X4521072Y-1720690D02*
X4530595Y-1711167D01*
X4530595Y-1711167D02*
X4549643Y-1701643D01*
X4549643Y-1701643D02*
X4578215Y-1701643D01*
X4578215Y-1701643D02*
X4597262Y-1711167D01*
X4597262Y-1711167D02*
X4606786Y-1730214D01*
X4606786Y-1730214D02*
X4606786Y-1834976D01*
X4730595Y-1834976D02*
X4711548Y-1825452D01*
X4711548Y-1825452D02*
X4702024Y-1815928D01*
X4702024Y-1815928D02*
X4692500Y-1796881D01*
X4692500Y-1796881D02*
X4692500Y-1739738D01*
X4692500Y-1739738D02*
X4702024Y-1720690D01*
X4702024Y-1720690D02*
X4711548Y-1711167D01*
X4711548Y-1711167D02*
X4730595Y-1701643D01*
X4730595Y-1701643D02*
X4759167Y-1701643D01*
X4759167Y-1701643D02*
X4778215Y-1711167D01*
X4778215Y-1711167D02*
X4787738Y-1720690D01*
X4787738Y-1720690D02*
X4797262Y-1739738D01*
X4797262Y-1739738D02*
X4797262Y-1796881D01*
X4797262Y-1796881D02*
X4787738Y-1815928D01*
X4787738Y-1815928D02*
X4778215Y-1825452D01*
X4778215Y-1825452D02*
X4759167Y-1834976D01*
X4759167Y-1834976D02*
X4730595Y-1834976D01*
X4854405Y-1701643D02*
X4930595Y-1701643D01*
X4882976Y-1634976D02*
X4882976Y-1806405D01*
X4882976Y-1806405D02*
X4892500Y-1825452D01*
X4892500Y-1825452D02*
X4911548Y-1834976D01*
X4911548Y-1834976D02*
X4930595Y-1834976D01*
X5117262Y-1701643D02*
X5117262Y-1901643D01*
X5117262Y-1711167D02*
X5136310Y-1701643D01*
X5136310Y-1701643D02*
X5174405Y-1701643D01*
X5174405Y-1701643D02*
X5193453Y-1711167D01*
X5193453Y-1711167D02*
X5202976Y-1720690D01*
X5202976Y-1720690D02*
X5212500Y-1739738D01*
X5212500Y-1739738D02*
X5212500Y-1796881D01*
X5212500Y-1796881D02*
X5202976Y-1815928D01*
X5202976Y-1815928D02*
X5193453Y-1825452D01*
X5193453Y-1825452D02*
X5174405Y-1834976D01*
X5174405Y-1834976D02*
X5136310Y-1834976D01*
X5136310Y-1834976D02*
X5117262Y-1825452D01*
X5326786Y-1834976D02*
X5307738Y-1825452D01*
X5307738Y-1825452D02*
X5298215Y-1806405D01*
X5298215Y-1806405D02*
X5298215Y-1634976D01*
X5488691Y-1834976D02*
X5488691Y-1730214D01*
X5488691Y-1730214D02*
X5479167Y-1711167D01*
X5479167Y-1711167D02*
X5460119Y-1701643D01*
X5460119Y-1701643D02*
X5422024Y-1701643D01*
X5422024Y-1701643D02*
X5402976Y-1711167D01*
X5488691Y-1825452D02*
X5469643Y-1834976D01*
X5469643Y-1834976D02*
X5422024Y-1834976D01*
X5422024Y-1834976D02*
X5402976Y-1825452D01*
X5402976Y-1825452D02*
X5393453Y-1806405D01*
X5393453Y-1806405D02*
X5393453Y-1787357D01*
X5393453Y-1787357D02*
X5402976Y-1768309D01*
X5402976Y-1768309D02*
X5422024Y-1758786D01*
X5422024Y-1758786D02*
X5469643Y-1758786D01*
X5469643Y-1758786D02*
X5488691Y-1749262D01*
X5555357Y-1701643D02*
X5631548Y-1701643D01*
X5583929Y-1634976D02*
X5583929Y-1806405D01*
X5583929Y-1806405D02*
X5593453Y-1825452D01*
X5593453Y-1825452D02*
X5612500Y-1834976D01*
X5612500Y-1834976D02*
X5631548Y-1834976D01*
X5774405Y-1825452D02*
X5755357Y-1834976D01*
X5755357Y-1834976D02*
X5717262Y-1834976D01*
X5717262Y-1834976D02*
X5698214Y-1825452D01*
X5698214Y-1825452D02*
X5688691Y-1806405D01*
X5688691Y-1806405D02*
X5688691Y-1730214D01*
X5688691Y-1730214D02*
X5698214Y-1711167D01*
X5698214Y-1711167D02*
X5717262Y-1701643D01*
X5717262Y-1701643D02*
X5755357Y-1701643D01*
X5755357Y-1701643D02*
X5774405Y-1711167D01*
X5774405Y-1711167D02*
X5783929Y-1730214D01*
X5783929Y-1730214D02*
X5783929Y-1749262D01*
X5783929Y-1749262D02*
X5688691Y-1768309D01*
X5955357Y-1834976D02*
X5955357Y-1634976D01*
X5955357Y-1825452D02*
X5936310Y-1834976D01*
X5936310Y-1834976D02*
X5898214Y-1834976D01*
X5898214Y-1834976D02*
X5879167Y-1825452D01*
X5879167Y-1825452D02*
X5869643Y-1815928D01*
X5869643Y-1815928D02*
X5860119Y-1796881D01*
X5860119Y-1796881D02*
X5860119Y-1739738D01*
X5860119Y-1739738D02*
X5869643Y-1720690D01*
X5869643Y-1720690D02*
X5879167Y-1711167D01*
X5879167Y-1711167D02*
X5898214Y-1701643D01*
X5898214Y-1701643D02*
X5936310Y-1701643D01*
X5936310Y-1701643D02*
X5955357Y-1711167D01*
X6031548Y-1911167D02*
X6041072Y-1901643D01*
X6041072Y-1901643D02*
X6060119Y-1873071D01*
X6060119Y-1873071D02*
X6069643Y-1854024D01*
X6069643Y-1854024D02*
X6079167Y-1825452D01*
X6079167Y-1825452D02*
X6088691Y-1777833D01*
X6088691Y-1777833D02*
X6088691Y-1739738D01*
X6088691Y-1739738D02*
X6079167Y-1692119D01*
X6079167Y-1692119D02*
X6069643Y-1663548D01*
X6069643Y-1663548D02*
X6060119Y-1644500D01*
X6060119Y-1644500D02*
X6041072Y-1615928D01*
X6041072Y-1615928D02*
X6031548Y-1606405D01*
X-807500Y-1951680D02*
X-807500Y-2151680D01*
X-907500Y-2051680D02*
X-707500Y-2051680D01*
X-469405Y-1944204D02*
X-459881Y-1934680D01*
X-459881Y-1934680D02*
X-440833Y-1925156D01*
X-440833Y-1925156D02*
X-393214Y-1925156D01*
X-393214Y-1925156D02*
X-374167Y-1934680D01*
X-374167Y-1934680D02*
X-364643Y-1944204D01*
X-364643Y-1944204D02*
X-355119Y-1963251D01*
X-355119Y-1963251D02*
X-355119Y-1982299D01*
X-355119Y-1982299D02*
X-364643Y-2010870D01*
X-364643Y-2010870D02*
X-478928Y-2125156D01*
X-478928Y-2125156D02*
X-355119Y-2125156D01*
X-269405Y-2106109D02*
X-259881Y-2115632D01*
X-259881Y-2115632D02*
X-269405Y-2125156D01*
X-269405Y-2125156D02*
X-278929Y-2115632D01*
X-278929Y-2115632D02*
X-269405Y-2106109D01*
X-269405Y-2106109D02*
X-269405Y-2125156D01*
X-183690Y-1944204D02*
X-174167Y-1934680D01*
X-174167Y-1934680D02*
X-155119Y-1925156D01*
X-155119Y-1925156D02*
X-107500Y-1925156D01*
X-107500Y-1925156D02*
X-88452Y-1934680D01*
X-88452Y-1934680D02*
X-78929Y-1944204D01*
X-78929Y-1944204D02*
X-69405Y-1963251D01*
X-69405Y-1963251D02*
X-69405Y-1982299D01*
X-69405Y-1982299D02*
X-78929Y-2010870D01*
X-78929Y-2010870D02*
X-193214Y-2125156D01*
X-193214Y-2125156D02*
X-69405Y-2125156D01*
X54405Y-1925156D02*
X73452Y-1925156D01*
X73452Y-1925156D02*
X92500Y-1934680D01*
X92500Y-1934680D02*
X102024Y-1944204D01*
X102024Y-1944204D02*
X111548Y-1963251D01*
X111548Y-1963251D02*
X121071Y-2001347D01*
X121071Y-2001347D02*
X121071Y-2048966D01*
X121071Y-2048966D02*
X111548Y-2087061D01*
X111548Y-2087061D02*
X102024Y-2106109D01*
X102024Y-2106109D02*
X92500Y-2115632D01*
X92500Y-2115632D02*
X73452Y-2125156D01*
X73452Y-2125156D02*
X54405Y-2125156D01*
X54405Y-2125156D02*
X35357Y-2115632D01*
X35357Y-2115632D02*
X25833Y-2106109D01*
X25833Y-2106109D02*
X16309Y-2087061D01*
X16309Y-2087061D02*
X6786Y-2048966D01*
X6786Y-2048966D02*
X6786Y-2001347D01*
X6786Y-2001347D02*
X16309Y-1963251D01*
X16309Y-1963251D02*
X25833Y-1944204D01*
X25833Y-1944204D02*
X35357Y-1934680D01*
X35357Y-1934680D02*
X54405Y-1925156D01*
X244881Y-1925156D02*
X263929Y-1925156D01*
X263929Y-1925156D02*
X282976Y-1934680D01*
X282976Y-1934680D02*
X292500Y-1944204D01*
X292500Y-1944204D02*
X302024Y-1963251D01*
X302024Y-1963251D02*
X311548Y-2001347D01*
X311548Y-2001347D02*
X311548Y-2048966D01*
X311548Y-2048966D02*
X302024Y-2087061D01*
X302024Y-2087061D02*
X292500Y-2106109D01*
X292500Y-2106109D02*
X282976Y-2115632D01*
X282976Y-2115632D02*
X263929Y-2125156D01*
X263929Y-2125156D02*
X244881Y-2125156D01*
X244881Y-2125156D02*
X225833Y-2115632D01*
X225833Y-2115632D02*
X216309Y-2106109D01*
X216309Y-2106109D02*
X206786Y-2087061D01*
X206786Y-2087061D02*
X197262Y-2048966D01*
X197262Y-2048966D02*
X197262Y-2001347D01*
X197262Y-2001347D02*
X206786Y-1963251D01*
X206786Y-1963251D02*
X216309Y-1944204D01*
X216309Y-1944204D02*
X225833Y-1934680D01*
X225833Y-1934680D02*
X244881Y-1925156D01*
X397262Y-2125156D02*
X397262Y-1991823D01*
X397262Y-2010870D02*
X406786Y-2001347D01*
X406786Y-2001347D02*
X425833Y-1991823D01*
X425833Y-1991823D02*
X454405Y-1991823D01*
X454405Y-1991823D02*
X473452Y-2001347D01*
X473452Y-2001347D02*
X482976Y-2020394D01*
X482976Y-2020394D02*
X482976Y-2125156D01*
X482976Y-2020394D02*
X492500Y-2001347D01*
X492500Y-2001347D02*
X511548Y-1991823D01*
X511548Y-1991823D02*
X540119Y-1991823D01*
X540119Y-1991823D02*
X559167Y-2001347D01*
X559167Y-2001347D02*
X568691Y-2020394D01*
X568691Y-2020394D02*
X568691Y-2125156D01*
X663929Y-2125156D02*
X663929Y-1991823D01*
X663929Y-2010870D02*
X673452Y-2001347D01*
X673452Y-2001347D02*
X692500Y-1991823D01*
X692500Y-1991823D02*
X721071Y-1991823D01*
X721071Y-1991823D02*
X740119Y-2001347D01*
X740119Y-2001347D02*
X749643Y-2020394D01*
X749643Y-2020394D02*
X749643Y-2125156D01*
X749643Y-2020394D02*
X759167Y-2001347D01*
X759167Y-2001347D02*
X778214Y-1991823D01*
X778214Y-1991823D02*
X806786Y-1991823D01*
X806786Y-1991823D02*
X825833Y-2001347D01*
X825833Y-2001347D02*
X835357Y-2020394D01*
X835357Y-2020394D02*
X835357Y-2125156D01*
X1193452Y-1915632D02*
X1022024Y-2172775D01*
X1418214Y-1925156D02*
X1437262Y-1925156D01*
X1437262Y-1925156D02*
X1456310Y-1934680D01*
X1456310Y-1934680D02*
X1465833Y-1944204D01*
X1465833Y-1944204D02*
X1475357Y-1963251D01*
X1475357Y-1963251D02*
X1484881Y-2001347D01*
X1484881Y-2001347D02*
X1484881Y-2048966D01*
X1484881Y-2048966D02*
X1475357Y-2087061D01*
X1475357Y-2087061D02*
X1465833Y-2106109D01*
X1465833Y-2106109D02*
X1456310Y-2115632D01*
X1456310Y-2115632D02*
X1437262Y-2125156D01*
X1437262Y-2125156D02*
X1418214Y-2125156D01*
X1418214Y-2125156D02*
X1399167Y-2115632D01*
X1399167Y-2115632D02*
X1389643Y-2106109D01*
X1389643Y-2106109D02*
X1380119Y-2087061D01*
X1380119Y-2087061D02*
X1370595Y-2048966D01*
X1370595Y-2048966D02*
X1370595Y-2001347D01*
X1370595Y-2001347D02*
X1380119Y-1963251D01*
X1380119Y-1963251D02*
X1389643Y-1944204D01*
X1389643Y-1944204D02*
X1399167Y-1934680D01*
X1399167Y-1934680D02*
X1418214Y-1925156D01*
X1570595Y-2106109D02*
X1580119Y-2115632D01*
X1580119Y-2115632D02*
X1570595Y-2125156D01*
X1570595Y-2125156D02*
X1561071Y-2115632D01*
X1561071Y-2115632D02*
X1570595Y-2106109D01*
X1570595Y-2106109D02*
X1570595Y-2125156D01*
X1703929Y-1925156D02*
X1722976Y-1925156D01*
X1722976Y-1925156D02*
X1742024Y-1934680D01*
X1742024Y-1934680D02*
X1751548Y-1944204D01*
X1751548Y-1944204D02*
X1761071Y-1963251D01*
X1761071Y-1963251D02*
X1770595Y-2001347D01*
X1770595Y-2001347D02*
X1770595Y-2048966D01*
X1770595Y-2048966D02*
X1761071Y-2087061D01*
X1761071Y-2087061D02*
X1751548Y-2106109D01*
X1751548Y-2106109D02*
X1742024Y-2115632D01*
X1742024Y-2115632D02*
X1722976Y-2125156D01*
X1722976Y-2125156D02*
X1703929Y-2125156D01*
X1703929Y-2125156D02*
X1684881Y-2115632D01*
X1684881Y-2115632D02*
X1675357Y-2106109D01*
X1675357Y-2106109D02*
X1665833Y-2087061D01*
X1665833Y-2087061D02*
X1656310Y-2048966D01*
X1656310Y-2048966D02*
X1656310Y-2001347D01*
X1656310Y-2001347D02*
X1665833Y-1963251D01*
X1665833Y-1963251D02*
X1675357Y-1944204D01*
X1675357Y-1944204D02*
X1684881Y-1934680D01*
X1684881Y-1934680D02*
X1703929Y-1925156D01*
X1884881Y-2010870D02*
X1865833Y-2001347D01*
X1865833Y-2001347D02*
X1856310Y-1991823D01*
X1856310Y-1991823D02*
X1846786Y-1972775D01*
X1846786Y-1972775D02*
X1846786Y-1963251D01*
X1846786Y-1963251D02*
X1856310Y-1944204D01*
X1856310Y-1944204D02*
X1865833Y-1934680D01*
X1865833Y-1934680D02*
X1884881Y-1925156D01*
X1884881Y-1925156D02*
X1922976Y-1925156D01*
X1922976Y-1925156D02*
X1942024Y-1934680D01*
X1942024Y-1934680D02*
X1951548Y-1944204D01*
X1951548Y-1944204D02*
X1961071Y-1963251D01*
X1961071Y-1963251D02*
X1961071Y-1972775D01*
X1961071Y-1972775D02*
X1951548Y-1991823D01*
X1951548Y-1991823D02*
X1942024Y-2001347D01*
X1942024Y-2001347D02*
X1922976Y-2010870D01*
X1922976Y-2010870D02*
X1884881Y-2010870D01*
X1884881Y-2010870D02*
X1865833Y-2020394D01*
X1865833Y-2020394D02*
X1856310Y-2029918D01*
X1856310Y-2029918D02*
X1846786Y-2048966D01*
X1846786Y-2048966D02*
X1846786Y-2087061D01*
X1846786Y-2087061D02*
X1856310Y-2106109D01*
X1856310Y-2106109D02*
X1865833Y-2115632D01*
X1865833Y-2115632D02*
X1884881Y-2125156D01*
X1884881Y-2125156D02*
X1922976Y-2125156D01*
X1922976Y-2125156D02*
X1942024Y-2115632D01*
X1942024Y-2115632D02*
X1951548Y-2106109D01*
X1951548Y-2106109D02*
X1961071Y-2087061D01*
X1961071Y-2087061D02*
X1961071Y-2048966D01*
X1961071Y-2048966D02*
X1951548Y-2029918D01*
X1951548Y-2029918D02*
X1942024Y-2020394D01*
X1942024Y-2020394D02*
X1922976Y-2010870D01*
X2132500Y-1925156D02*
X2094405Y-1925156D01*
X2094405Y-1925156D02*
X2075357Y-1934680D01*
X2075357Y-1934680D02*
X2065833Y-1944204D01*
X2065833Y-1944204D02*
X2046786Y-1972775D01*
X2046786Y-1972775D02*
X2037262Y-2010870D01*
X2037262Y-2010870D02*
X2037262Y-2087061D01*
X2037262Y-2087061D02*
X2046786Y-2106109D01*
X2046786Y-2106109D02*
X2056310Y-2115632D01*
X2056310Y-2115632D02*
X2075357Y-2125156D01*
X2075357Y-2125156D02*
X2113453Y-2125156D01*
X2113453Y-2125156D02*
X2132500Y-2115632D01*
X2132500Y-2115632D02*
X2142024Y-2106109D01*
X2142024Y-2106109D02*
X2151548Y-2087061D01*
X2151548Y-2087061D02*
X2151548Y-2039442D01*
X2151548Y-2039442D02*
X2142024Y-2020394D01*
X2142024Y-2020394D02*
X2132500Y-2010870D01*
X2132500Y-2010870D02*
X2113453Y-2001347D01*
X2113453Y-2001347D02*
X2075357Y-2001347D01*
X2075357Y-2001347D02*
X2056310Y-2010870D01*
X2056310Y-2010870D02*
X2046786Y-2020394D01*
X2046786Y-2020394D02*
X2037262Y-2039442D01*
X2322976Y-1925156D02*
X2284881Y-1925156D01*
X2284881Y-1925156D02*
X2265833Y-1934680D01*
X2265833Y-1934680D02*
X2256310Y-1944204D01*
X2256310Y-1944204D02*
X2237262Y-1972775D01*
X2237262Y-1972775D02*
X2227738Y-2010870D01*
X2227738Y-2010870D02*
X2227738Y-2087061D01*
X2227738Y-2087061D02*
X2237262Y-2106109D01*
X2237262Y-2106109D02*
X2246786Y-2115632D01*
X2246786Y-2115632D02*
X2265833Y-2125156D01*
X2265833Y-2125156D02*
X2303929Y-2125156D01*
X2303929Y-2125156D02*
X2322976Y-2115632D01*
X2322976Y-2115632D02*
X2332500Y-2106109D01*
X2332500Y-2106109D02*
X2342024Y-2087061D01*
X2342024Y-2087061D02*
X2342024Y-2039442D01*
X2342024Y-2039442D02*
X2332500Y-2020394D01*
X2332500Y-2020394D02*
X2322976Y-2010870D01*
X2322976Y-2010870D02*
X2303929Y-2001347D01*
X2303929Y-2001347D02*
X2265833Y-2001347D01*
X2265833Y-2001347D02*
X2246786Y-2010870D01*
X2246786Y-2010870D02*
X2237262Y-2020394D01*
X2237262Y-2020394D02*
X2227738Y-2039442D01*
X2418214Y-1925156D02*
X2418214Y-1963251D01*
X2494405Y-1925156D02*
X2494405Y-1963251D01*
X2757262Y-2201347D02*
X2747738Y-2191823D01*
X2747738Y-2191823D02*
X2728691Y-2163251D01*
X2728691Y-2163251D02*
X2719167Y-2144204D01*
X2719167Y-2144204D02*
X2709643Y-2115632D01*
X2709643Y-2115632D02*
X2700119Y-2068013D01*
X2700119Y-2068013D02*
X2700119Y-2029918D01*
X2700119Y-2029918D02*
X2709643Y-1982299D01*
X2709643Y-1982299D02*
X2719167Y-1953728D01*
X2719167Y-1953728D02*
X2728691Y-1934680D01*
X2728691Y-1934680D02*
X2747738Y-1906108D01*
X2747738Y-1906108D02*
X2757262Y-1896585D01*
X2919167Y-1925156D02*
X2881071Y-1925156D01*
X2881071Y-1925156D02*
X2862024Y-1934680D01*
X2862024Y-1934680D02*
X2852500Y-1944204D01*
X2852500Y-1944204D02*
X2833452Y-1972775D01*
X2833452Y-1972775D02*
X2823929Y-2010870D01*
X2823929Y-2010870D02*
X2823929Y-2087061D01*
X2823929Y-2087061D02*
X2833452Y-2106109D01*
X2833452Y-2106109D02*
X2842976Y-2115632D01*
X2842976Y-2115632D02*
X2862024Y-2125156D01*
X2862024Y-2125156D02*
X2900119Y-2125156D01*
X2900119Y-2125156D02*
X2919167Y-2115632D01*
X2919167Y-2115632D02*
X2928691Y-2106109D01*
X2928691Y-2106109D02*
X2938214Y-2087061D01*
X2938214Y-2087061D02*
X2938214Y-2039442D01*
X2938214Y-2039442D02*
X2928691Y-2020394D01*
X2928691Y-2020394D02*
X2919167Y-2010870D01*
X2919167Y-2010870D02*
X2900119Y-2001347D01*
X2900119Y-2001347D02*
X2862024Y-2001347D01*
X2862024Y-2001347D02*
X2842976Y-2010870D01*
X2842976Y-2010870D02*
X2833452Y-2020394D01*
X2833452Y-2020394D02*
X2823929Y-2039442D01*
X3143929Y-2125156D02*
X3143929Y-1925156D01*
X3229643Y-2125156D02*
X3229643Y-2020394D01*
X3229643Y-2020394D02*
X3220119Y-2001347D01*
X3220119Y-2001347D02*
X3201072Y-1991823D01*
X3201072Y-1991823D02*
X3172500Y-1991823D01*
X3172500Y-1991823D02*
X3153452Y-2001347D01*
X3153452Y-2001347D02*
X3143929Y-2010870D01*
X3353452Y-2125156D02*
X3334405Y-2115632D01*
X3334405Y-2115632D02*
X3324881Y-2106109D01*
X3324881Y-2106109D02*
X3315357Y-2087061D01*
X3315357Y-2087061D02*
X3315357Y-2029918D01*
X3315357Y-2029918D02*
X3324881Y-2010870D01*
X3324881Y-2010870D02*
X3334405Y-2001347D01*
X3334405Y-2001347D02*
X3353452Y-1991823D01*
X3353452Y-1991823D02*
X3382024Y-1991823D01*
X3382024Y-1991823D02*
X3401072Y-2001347D01*
X3401072Y-2001347D02*
X3410595Y-2010870D01*
X3410595Y-2010870D02*
X3420119Y-2029918D01*
X3420119Y-2029918D02*
X3420119Y-2087061D01*
X3420119Y-2087061D02*
X3410595Y-2106109D01*
X3410595Y-2106109D02*
X3401072Y-2115632D01*
X3401072Y-2115632D02*
X3382024Y-2125156D01*
X3382024Y-2125156D02*
X3353452Y-2125156D01*
X3534405Y-2125156D02*
X3515357Y-2115632D01*
X3515357Y-2115632D02*
X3505833Y-2096585D01*
X3505833Y-2096585D02*
X3505833Y-1925156D01*
X3686786Y-2115632D02*
X3667738Y-2125156D01*
X3667738Y-2125156D02*
X3629643Y-2125156D01*
X3629643Y-2125156D02*
X3610595Y-2115632D01*
X3610595Y-2115632D02*
X3601072Y-2096585D01*
X3601072Y-2096585D02*
X3601072Y-2020394D01*
X3601072Y-2020394D02*
X3610595Y-2001347D01*
X3610595Y-2001347D02*
X3629643Y-1991823D01*
X3629643Y-1991823D02*
X3667738Y-1991823D01*
X3667738Y-1991823D02*
X3686786Y-2001347D01*
X3686786Y-2001347D02*
X3696310Y-2020394D01*
X3696310Y-2020394D02*
X3696310Y-2039442D01*
X3696310Y-2039442D02*
X3601072Y-2058489D01*
X3772500Y-2115632D02*
X3791548Y-2125156D01*
X3791548Y-2125156D02*
X3829643Y-2125156D01*
X3829643Y-2125156D02*
X3848691Y-2115632D01*
X3848691Y-2115632D02*
X3858214Y-2096585D01*
X3858214Y-2096585D02*
X3858214Y-2087061D01*
X3858214Y-2087061D02*
X3848691Y-2068013D01*
X3848691Y-2068013D02*
X3829643Y-2058489D01*
X3829643Y-2058489D02*
X3801072Y-2058489D01*
X3801072Y-2058489D02*
X3782024Y-2048966D01*
X3782024Y-2048966D02*
X3772500Y-2029918D01*
X3772500Y-2029918D02*
X3772500Y-2020394D01*
X3772500Y-2020394D02*
X3782024Y-2001347D01*
X3782024Y-2001347D02*
X3801072Y-1991823D01*
X3801072Y-1991823D02*
X3829643Y-1991823D01*
X3829643Y-1991823D02*
X3848691Y-2001347D01*
X3924881Y-2201347D02*
X3934405Y-2191823D01*
X3934405Y-2191823D02*
X3953453Y-2163251D01*
X3953453Y-2163251D02*
X3962976Y-2144204D01*
X3962976Y-2144204D02*
X3972500Y-2115632D01*
X3972500Y-2115632D02*
X3982024Y-2068013D01*
X3982024Y-2068013D02*
X3982024Y-2029918D01*
X3982024Y-2029918D02*
X3972500Y-1982299D01*
X3972500Y-1982299D02*
X3962976Y-1953728D01*
X3962976Y-1953728D02*
X3953453Y-1934680D01*
X3953453Y-1934680D02*
X3934405Y-1906108D01*
X3934405Y-1906108D02*
X3924881Y-1896585D01*
X4254405Y-2201347D02*
X4244881Y-2191823D01*
X4244881Y-2191823D02*
X4225834Y-2163251D01*
X4225834Y-2163251D02*
X4216310Y-2144204D01*
X4216310Y-2144204D02*
X4206786Y-2115632D01*
X4206786Y-2115632D02*
X4197262Y-2068013D01*
X4197262Y-2068013D02*
X4197262Y-2029918D01*
X4197262Y-2029918D02*
X4206786Y-1982299D01*
X4206786Y-1982299D02*
X4216310Y-1953728D01*
X4216310Y-1953728D02*
X4225834Y-1934680D01*
X4225834Y-1934680D02*
X4244881Y-1906108D01*
X4244881Y-1906108D02*
X4254405Y-1896585D01*
X4330595Y-1991823D02*
X4330595Y-2125156D01*
X4330595Y-2010870D02*
X4340119Y-2001347D01*
X4340119Y-2001347D02*
X4359167Y-1991823D01*
X4359167Y-1991823D02*
X4387738Y-1991823D01*
X4387738Y-1991823D02*
X4406786Y-2001347D01*
X4406786Y-2001347D02*
X4416310Y-2020394D01*
X4416310Y-2020394D02*
X4416310Y-2125156D01*
X4540119Y-2125156D02*
X4521072Y-2115632D01*
X4521072Y-2115632D02*
X4511548Y-2106109D01*
X4511548Y-2106109D02*
X4502024Y-2087061D01*
X4502024Y-2087061D02*
X4502024Y-2029918D01*
X4502024Y-2029918D02*
X4511548Y-2010870D01*
X4511548Y-2010870D02*
X4521072Y-2001347D01*
X4521072Y-2001347D02*
X4540119Y-1991823D01*
X4540119Y-1991823D02*
X4568691Y-1991823D01*
X4568691Y-1991823D02*
X4587738Y-2001347D01*
X4587738Y-2001347D02*
X4597262Y-2010870D01*
X4597262Y-2010870D02*
X4606786Y-2029918D01*
X4606786Y-2029918D02*
X4606786Y-2087061D01*
X4606786Y-2087061D02*
X4597262Y-2106109D01*
X4597262Y-2106109D02*
X4587738Y-2115632D01*
X4587738Y-2115632D02*
X4568691Y-2125156D01*
X4568691Y-2125156D02*
X4540119Y-2125156D01*
X4663929Y-1991823D02*
X4740119Y-1991823D01*
X4692500Y-1925156D02*
X4692500Y-2096585D01*
X4692500Y-2096585D02*
X4702024Y-2115632D01*
X4702024Y-2115632D02*
X4721072Y-2125156D01*
X4721072Y-2125156D02*
X4740119Y-2125156D01*
X4926786Y-1991823D02*
X4926786Y-2191823D01*
X4926786Y-2001347D02*
X4945834Y-1991823D01*
X4945834Y-1991823D02*
X4983929Y-1991823D01*
X4983929Y-1991823D02*
X5002976Y-2001347D01*
X5002976Y-2001347D02*
X5012500Y-2010870D01*
X5012500Y-2010870D02*
X5022024Y-2029918D01*
X5022024Y-2029918D02*
X5022024Y-2087061D01*
X5022024Y-2087061D02*
X5012500Y-2106109D01*
X5012500Y-2106109D02*
X5002976Y-2115632D01*
X5002976Y-2115632D02*
X4983929Y-2125156D01*
X4983929Y-2125156D02*
X4945834Y-2125156D01*
X4945834Y-2125156D02*
X4926786Y-2115632D01*
X5136310Y-2125156D02*
X5117262Y-2115632D01*
X5117262Y-2115632D02*
X5107738Y-2096585D01*
X5107738Y-2096585D02*
X5107738Y-1925156D01*
X5298215Y-2125156D02*
X5298215Y-2020394D01*
X5298215Y-2020394D02*
X5288691Y-2001347D01*
X5288691Y-2001347D02*
X5269643Y-1991823D01*
X5269643Y-1991823D02*
X5231548Y-1991823D01*
X5231548Y-1991823D02*
X5212500Y-2001347D01*
X5298215Y-2115632D02*
X5279167Y-2125156D01*
X5279167Y-2125156D02*
X5231548Y-2125156D01*
X5231548Y-2125156D02*
X5212500Y-2115632D01*
X5212500Y-2115632D02*
X5202976Y-2096585D01*
X5202976Y-2096585D02*
X5202976Y-2077537D01*
X5202976Y-2077537D02*
X5212500Y-2058489D01*
X5212500Y-2058489D02*
X5231548Y-2048966D01*
X5231548Y-2048966D02*
X5279167Y-2048966D01*
X5279167Y-2048966D02*
X5298215Y-2039442D01*
X5364881Y-1991823D02*
X5441072Y-1991823D01*
X5393453Y-1925156D02*
X5393453Y-2096585D01*
X5393453Y-2096585D02*
X5402976Y-2115632D01*
X5402976Y-2115632D02*
X5422024Y-2125156D01*
X5422024Y-2125156D02*
X5441072Y-2125156D01*
X5583929Y-2115632D02*
X5564881Y-2125156D01*
X5564881Y-2125156D02*
X5526786Y-2125156D01*
X5526786Y-2125156D02*
X5507738Y-2115632D01*
X5507738Y-2115632D02*
X5498215Y-2096585D01*
X5498215Y-2096585D02*
X5498215Y-2020394D01*
X5498215Y-2020394D02*
X5507738Y-2001347D01*
X5507738Y-2001347D02*
X5526786Y-1991823D01*
X5526786Y-1991823D02*
X5564881Y-1991823D01*
X5564881Y-1991823D02*
X5583929Y-2001347D01*
X5583929Y-2001347D02*
X5593453Y-2020394D01*
X5593453Y-2020394D02*
X5593453Y-2039442D01*
X5593453Y-2039442D02*
X5498215Y-2058489D01*
X5764881Y-2125156D02*
X5764881Y-1925156D01*
X5764881Y-2115632D02*
X5745834Y-2125156D01*
X5745834Y-2125156D02*
X5707738Y-2125156D01*
X5707738Y-2125156D02*
X5688691Y-2115632D01*
X5688691Y-2115632D02*
X5679167Y-2106109D01*
X5679167Y-2106109D02*
X5669643Y-2087061D01*
X5669643Y-2087061D02*
X5669643Y-2029918D01*
X5669643Y-2029918D02*
X5679167Y-2010870D01*
X5679167Y-2010870D02*
X5688691Y-2001347D01*
X5688691Y-2001347D02*
X5707738Y-1991823D01*
X5707738Y-1991823D02*
X5745834Y-1991823D01*
X5745834Y-1991823D02*
X5764881Y-2001347D01*
X5841072Y-2201347D02*
X5850595Y-2191823D01*
X5850595Y-2191823D02*
X5869643Y-2163251D01*
X5869643Y-2163251D02*
X5879167Y-2144204D01*
X5879167Y-2144204D02*
X5888691Y-2115632D01*
X5888691Y-2115632D02*
X5898214Y-2068013D01*
X5898214Y-2068013D02*
X5898214Y-2029918D01*
X5898214Y-2029918D02*
X5888691Y-1982299D01*
X5888691Y-1982299D02*
X5879167Y-1953728D01*
X5879167Y-1953728D02*
X5869643Y-1934680D01*
X5869643Y-1934680D02*
X5850595Y-1906108D01*
X5850595Y-1906108D02*
X5841072Y-1896585D01*
X-736789Y-2442391D02*
X-736789Y-2300969D01*
X-878211Y-2300969D01*
X-878211Y-2442391D01*
X-736789Y-2442391D01*
X-478928Y-2245156D02*
X-355119Y-2245156D01*
X-355119Y-2245156D02*
X-421786Y-2321347D01*
X-421786Y-2321347D02*
X-393214Y-2321347D01*
X-393214Y-2321347D02*
X-374167Y-2330870D01*
X-374167Y-2330870D02*
X-364643Y-2340394D01*
X-364643Y-2340394D02*
X-355119Y-2359442D01*
X-355119Y-2359442D02*
X-355119Y-2407061D01*
X-355119Y-2407061D02*
X-364643Y-2426109D01*
X-364643Y-2426109D02*
X-374167Y-2435632D01*
X-374167Y-2435632D02*
X-393214Y-2445156D01*
X-393214Y-2445156D02*
X-450357Y-2445156D01*
X-450357Y-2445156D02*
X-469405Y-2435632D01*
X-469405Y-2435632D02*
X-478928Y-2426109D01*
X-269405Y-2426109D02*
X-259881Y-2435632D01*
X-259881Y-2435632D02*
X-269405Y-2445156D01*
X-269405Y-2445156D02*
X-278929Y-2435632D01*
X-278929Y-2435632D02*
X-269405Y-2426109D01*
X-269405Y-2426109D02*
X-269405Y-2445156D01*
X-136071Y-2245156D02*
X-117024Y-2245156D01*
X-117024Y-2245156D02*
X-97976Y-2254680D01*
X-97976Y-2254680D02*
X-88452Y-2264204D01*
X-88452Y-2264204D02*
X-78929Y-2283251D01*
X-78929Y-2283251D02*
X-69405Y-2321347D01*
X-69405Y-2321347D02*
X-69405Y-2368966D01*
X-69405Y-2368966D02*
X-78929Y-2407061D01*
X-78929Y-2407061D02*
X-88452Y-2426109D01*
X-88452Y-2426109D02*
X-97976Y-2435632D01*
X-97976Y-2435632D02*
X-117024Y-2445156D01*
X-117024Y-2445156D02*
X-136071Y-2445156D01*
X-136071Y-2445156D02*
X-155119Y-2435632D01*
X-155119Y-2435632D02*
X-164643Y-2426109D01*
X-164643Y-2426109D02*
X-174167Y-2407061D01*
X-174167Y-2407061D02*
X-183690Y-2368966D01*
X-183690Y-2368966D02*
X-183690Y-2321347D01*
X-183690Y-2321347D02*
X-174167Y-2283251D01*
X-174167Y-2283251D02*
X-164643Y-2264204D01*
X-164643Y-2264204D02*
X-155119Y-2254680D01*
X-155119Y-2254680D02*
X-136071Y-2245156D01*
X54405Y-2245156D02*
X73452Y-2245156D01*
X73452Y-2245156D02*
X92500Y-2254680D01*
X92500Y-2254680D02*
X102024Y-2264204D01*
X102024Y-2264204D02*
X111548Y-2283251D01*
X111548Y-2283251D02*
X121071Y-2321347D01*
X121071Y-2321347D02*
X121071Y-2368966D01*
X121071Y-2368966D02*
X111548Y-2407061D01*
X111548Y-2407061D02*
X102024Y-2426109D01*
X102024Y-2426109D02*
X92500Y-2435632D01*
X92500Y-2435632D02*
X73452Y-2445156D01*
X73452Y-2445156D02*
X54405Y-2445156D01*
X54405Y-2445156D02*
X35357Y-2435632D01*
X35357Y-2435632D02*
X25833Y-2426109D01*
X25833Y-2426109D02*
X16309Y-2407061D01*
X16309Y-2407061D02*
X6786Y-2368966D01*
X6786Y-2368966D02*
X6786Y-2321347D01*
X6786Y-2321347D02*
X16309Y-2283251D01*
X16309Y-2283251D02*
X25833Y-2264204D01*
X25833Y-2264204D02*
X35357Y-2254680D01*
X35357Y-2254680D02*
X54405Y-2245156D01*
X244881Y-2245156D02*
X263929Y-2245156D01*
X263929Y-2245156D02*
X282976Y-2254680D01*
X282976Y-2254680D02*
X292500Y-2264204D01*
X292500Y-2264204D02*
X302024Y-2283251D01*
X302024Y-2283251D02*
X311548Y-2321347D01*
X311548Y-2321347D02*
X311548Y-2368966D01*
X311548Y-2368966D02*
X302024Y-2407061D01*
X302024Y-2407061D02*
X292500Y-2426109D01*
X292500Y-2426109D02*
X282976Y-2435632D01*
X282976Y-2435632D02*
X263929Y-2445156D01*
X263929Y-2445156D02*
X244881Y-2445156D01*
X244881Y-2445156D02*
X225833Y-2435632D01*
X225833Y-2435632D02*
X216309Y-2426109D01*
X216309Y-2426109D02*
X206786Y-2407061D01*
X206786Y-2407061D02*
X197262Y-2368966D01*
X197262Y-2368966D02*
X197262Y-2321347D01*
X197262Y-2321347D02*
X206786Y-2283251D01*
X206786Y-2283251D02*
X216309Y-2264204D01*
X216309Y-2264204D02*
X225833Y-2254680D01*
X225833Y-2254680D02*
X244881Y-2245156D01*
X397262Y-2445156D02*
X397262Y-2311823D01*
X397262Y-2330870D02*
X406786Y-2321347D01*
X406786Y-2321347D02*
X425833Y-2311823D01*
X425833Y-2311823D02*
X454405Y-2311823D01*
X454405Y-2311823D02*
X473452Y-2321347D01*
X473452Y-2321347D02*
X482976Y-2340394D01*
X482976Y-2340394D02*
X482976Y-2445156D01*
X482976Y-2340394D02*
X492500Y-2321347D01*
X492500Y-2321347D02*
X511548Y-2311823D01*
X511548Y-2311823D02*
X540119Y-2311823D01*
X540119Y-2311823D02*
X559167Y-2321347D01*
X559167Y-2321347D02*
X568691Y-2340394D01*
X568691Y-2340394D02*
X568691Y-2445156D01*
X663929Y-2445156D02*
X663929Y-2311823D01*
X663929Y-2330870D02*
X673452Y-2321347D01*
X673452Y-2321347D02*
X692500Y-2311823D01*
X692500Y-2311823D02*
X721071Y-2311823D01*
X721071Y-2311823D02*
X740119Y-2321347D01*
X740119Y-2321347D02*
X749643Y-2340394D01*
X749643Y-2340394D02*
X749643Y-2445156D01*
X749643Y-2340394D02*
X759167Y-2321347D01*
X759167Y-2321347D02*
X778214Y-2311823D01*
X778214Y-2311823D02*
X806786Y-2311823D01*
X806786Y-2311823D02*
X825833Y-2321347D01*
X825833Y-2321347D02*
X835357Y-2340394D01*
X835357Y-2340394D02*
X835357Y-2445156D01*
X1193452Y-2235632D02*
X1022024Y-2492775D01*
X1418214Y-2245156D02*
X1437262Y-2245156D01*
X1437262Y-2245156D02*
X1456310Y-2254680D01*
X1456310Y-2254680D02*
X1465833Y-2264204D01*
X1465833Y-2264204D02*
X1475357Y-2283251D01*
X1475357Y-2283251D02*
X1484881Y-2321347D01*
X1484881Y-2321347D02*
X1484881Y-2368966D01*
X1484881Y-2368966D02*
X1475357Y-2407061D01*
X1475357Y-2407061D02*
X1465833Y-2426109D01*
X1465833Y-2426109D02*
X1456310Y-2435632D01*
X1456310Y-2435632D02*
X1437262Y-2445156D01*
X1437262Y-2445156D02*
X1418214Y-2445156D01*
X1418214Y-2445156D02*
X1399167Y-2435632D01*
X1399167Y-2435632D02*
X1389643Y-2426109D01*
X1389643Y-2426109D02*
X1380119Y-2407061D01*
X1380119Y-2407061D02*
X1370595Y-2368966D01*
X1370595Y-2368966D02*
X1370595Y-2321347D01*
X1370595Y-2321347D02*
X1380119Y-2283251D01*
X1380119Y-2283251D02*
X1389643Y-2264204D01*
X1389643Y-2264204D02*
X1399167Y-2254680D01*
X1399167Y-2254680D02*
X1418214Y-2245156D01*
X1570595Y-2426109D02*
X1580119Y-2435632D01*
X1580119Y-2435632D02*
X1570595Y-2445156D01*
X1570595Y-2445156D02*
X1561071Y-2435632D01*
X1561071Y-2435632D02*
X1570595Y-2426109D01*
X1570595Y-2426109D02*
X1570595Y-2445156D01*
X1770595Y-2445156D02*
X1656310Y-2445156D01*
X1713452Y-2445156D02*
X1713452Y-2245156D01*
X1713452Y-2245156D02*
X1694405Y-2273728D01*
X1694405Y-2273728D02*
X1675357Y-2292775D01*
X1675357Y-2292775D02*
X1656310Y-2302299D01*
X1961071Y-2445156D02*
X1846786Y-2445156D01*
X1903929Y-2445156D02*
X1903929Y-2245156D01*
X1903929Y-2245156D02*
X1884881Y-2273728D01*
X1884881Y-2273728D02*
X1865833Y-2292775D01*
X1865833Y-2292775D02*
X1846786Y-2302299D01*
X2075357Y-2330870D02*
X2056310Y-2321347D01*
X2056310Y-2321347D02*
X2046786Y-2311823D01*
X2046786Y-2311823D02*
X2037262Y-2292775D01*
X2037262Y-2292775D02*
X2037262Y-2283251D01*
X2037262Y-2283251D02*
X2046786Y-2264204D01*
X2046786Y-2264204D02*
X2056310Y-2254680D01*
X2056310Y-2254680D02*
X2075357Y-2245156D01*
X2075357Y-2245156D02*
X2113453Y-2245156D01*
X2113453Y-2245156D02*
X2132500Y-2254680D01*
X2132500Y-2254680D02*
X2142024Y-2264204D01*
X2142024Y-2264204D02*
X2151548Y-2283251D01*
X2151548Y-2283251D02*
X2151548Y-2292775D01*
X2151548Y-2292775D02*
X2142024Y-2311823D01*
X2142024Y-2311823D02*
X2132500Y-2321347D01*
X2132500Y-2321347D02*
X2113453Y-2330870D01*
X2113453Y-2330870D02*
X2075357Y-2330870D01*
X2075357Y-2330870D02*
X2056310Y-2340394D01*
X2056310Y-2340394D02*
X2046786Y-2349918D01*
X2046786Y-2349918D02*
X2037262Y-2368966D01*
X2037262Y-2368966D02*
X2037262Y-2407061D01*
X2037262Y-2407061D02*
X2046786Y-2426109D01*
X2046786Y-2426109D02*
X2056310Y-2435632D01*
X2056310Y-2435632D02*
X2075357Y-2445156D01*
X2075357Y-2445156D02*
X2113453Y-2445156D01*
X2113453Y-2445156D02*
X2132500Y-2435632D01*
X2132500Y-2435632D02*
X2142024Y-2426109D01*
X2142024Y-2426109D02*
X2151548Y-2407061D01*
X2151548Y-2407061D02*
X2151548Y-2368966D01*
X2151548Y-2368966D02*
X2142024Y-2349918D01*
X2142024Y-2349918D02*
X2132500Y-2340394D01*
X2132500Y-2340394D02*
X2113453Y-2330870D01*
X2342024Y-2445156D02*
X2227738Y-2445156D01*
X2284881Y-2445156D02*
X2284881Y-2245156D01*
X2284881Y-2245156D02*
X2265833Y-2273728D01*
X2265833Y-2273728D02*
X2246786Y-2292775D01*
X2246786Y-2292775D02*
X2227738Y-2302299D01*
X2418214Y-2245156D02*
X2418214Y-2283251D01*
X2494405Y-2245156D02*
X2494405Y-2283251D01*
X2757262Y-2521347D02*
X2747738Y-2511823D01*
X2747738Y-2511823D02*
X2728691Y-2483251D01*
X2728691Y-2483251D02*
X2719167Y-2464204D01*
X2719167Y-2464204D02*
X2709643Y-2435632D01*
X2709643Y-2435632D02*
X2700119Y-2388013D01*
X2700119Y-2388013D02*
X2700119Y-2349918D01*
X2700119Y-2349918D02*
X2709643Y-2302299D01*
X2709643Y-2302299D02*
X2719167Y-2273728D01*
X2719167Y-2273728D02*
X2728691Y-2254680D01*
X2728691Y-2254680D02*
X2747738Y-2226109D01*
X2747738Y-2226109D02*
X2757262Y-2216585D01*
X2823929Y-2264204D02*
X2833452Y-2254680D01*
X2833452Y-2254680D02*
X2852500Y-2245156D01*
X2852500Y-2245156D02*
X2900119Y-2245156D01*
X2900119Y-2245156D02*
X2919167Y-2254680D01*
X2919167Y-2254680D02*
X2928691Y-2264204D01*
X2928691Y-2264204D02*
X2938214Y-2283251D01*
X2938214Y-2283251D02*
X2938214Y-2302299D01*
X2938214Y-2302299D02*
X2928691Y-2330870D01*
X2928691Y-2330870D02*
X2814405Y-2445156D01*
X2814405Y-2445156D02*
X2938214Y-2445156D01*
X3109643Y-2245156D02*
X3071548Y-2245156D01*
X3071548Y-2245156D02*
X3052500Y-2254680D01*
X3052500Y-2254680D02*
X3042976Y-2264204D01*
X3042976Y-2264204D02*
X3023929Y-2292775D01*
X3023929Y-2292775D02*
X3014405Y-2330870D01*
X3014405Y-2330870D02*
X3014405Y-2407061D01*
X3014405Y-2407061D02*
X3023929Y-2426109D01*
X3023929Y-2426109D02*
X3033452Y-2435632D01*
X3033452Y-2435632D02*
X3052500Y-2445156D01*
X3052500Y-2445156D02*
X3090595Y-2445156D01*
X3090595Y-2445156D02*
X3109643Y-2435632D01*
X3109643Y-2435632D02*
X3119167Y-2426109D01*
X3119167Y-2426109D02*
X3128691Y-2407061D01*
X3128691Y-2407061D02*
X3128691Y-2359442D01*
X3128691Y-2359442D02*
X3119167Y-2340394D01*
X3119167Y-2340394D02*
X3109643Y-2330870D01*
X3109643Y-2330870D02*
X3090595Y-2321347D01*
X3090595Y-2321347D02*
X3052500Y-2321347D01*
X3052500Y-2321347D02*
X3033452Y-2330870D01*
X3033452Y-2330870D02*
X3023929Y-2340394D01*
X3023929Y-2340394D02*
X3014405Y-2359442D01*
X3334405Y-2445156D02*
X3334405Y-2245156D01*
X3420119Y-2445156D02*
X3420119Y-2340394D01*
X3420119Y-2340394D02*
X3410595Y-2321347D01*
X3410595Y-2321347D02*
X3391548Y-2311823D01*
X3391548Y-2311823D02*
X3362976Y-2311823D01*
X3362976Y-2311823D02*
X3343929Y-2321347D01*
X3343929Y-2321347D02*
X3334405Y-2330870D01*
X3543929Y-2445156D02*
X3524881Y-2435632D01*
X3524881Y-2435632D02*
X3515357Y-2426109D01*
X3515357Y-2426109D02*
X3505833Y-2407061D01*
X3505833Y-2407061D02*
X3505833Y-2349918D01*
X3505833Y-2349918D02*
X3515357Y-2330870D01*
X3515357Y-2330870D02*
X3524881Y-2321347D01*
X3524881Y-2321347D02*
X3543929Y-2311823D01*
X3543929Y-2311823D02*
X3572500Y-2311823D01*
X3572500Y-2311823D02*
X3591548Y-2321347D01*
X3591548Y-2321347D02*
X3601072Y-2330870D01*
X3601072Y-2330870D02*
X3610595Y-2349918D01*
X3610595Y-2349918D02*
X3610595Y-2407061D01*
X3610595Y-2407061D02*
X3601072Y-2426109D01*
X3601072Y-2426109D02*
X3591548Y-2435632D01*
X3591548Y-2435632D02*
X3572500Y-2445156D01*
X3572500Y-2445156D02*
X3543929Y-2445156D01*
X3724881Y-2445156D02*
X3705833Y-2435632D01*
X3705833Y-2435632D02*
X3696310Y-2416585D01*
X3696310Y-2416585D02*
X3696310Y-2245156D01*
X3877262Y-2435632D02*
X3858214Y-2445156D01*
X3858214Y-2445156D02*
X3820119Y-2445156D01*
X3820119Y-2445156D02*
X3801072Y-2435632D01*
X3801072Y-2435632D02*
X3791548Y-2416585D01*
X3791548Y-2416585D02*
X3791548Y-2340394D01*
X3791548Y-2340394D02*
X3801072Y-2321347D01*
X3801072Y-2321347D02*
X3820119Y-2311823D01*
X3820119Y-2311823D02*
X3858214Y-2311823D01*
X3858214Y-2311823D02*
X3877262Y-2321347D01*
X3877262Y-2321347D02*
X3886786Y-2340394D01*
X3886786Y-2340394D02*
X3886786Y-2359442D01*
X3886786Y-2359442D02*
X3791548Y-2378490D01*
X3962976Y-2435632D02*
X3982024Y-2445156D01*
X3982024Y-2445156D02*
X4020119Y-2445156D01*
X4020119Y-2445156D02*
X4039167Y-2435632D01*
X4039167Y-2435632D02*
X4048691Y-2416585D01*
X4048691Y-2416585D02*
X4048691Y-2407061D01*
X4048691Y-2407061D02*
X4039167Y-2388013D01*
X4039167Y-2388013D02*
X4020119Y-2378490D01*
X4020119Y-2378490D02*
X3991548Y-2378490D01*
X3991548Y-2378490D02*
X3972500Y-2368966D01*
X3972500Y-2368966D02*
X3962976Y-2349918D01*
X3962976Y-2349918D02*
X3962976Y-2340394D01*
X3962976Y-2340394D02*
X3972500Y-2321347D01*
X3972500Y-2321347D02*
X3991548Y-2311823D01*
X3991548Y-2311823D02*
X4020119Y-2311823D01*
X4020119Y-2311823D02*
X4039167Y-2321347D01*
X4115357Y-2521347D02*
X4124881Y-2511823D01*
X4124881Y-2511823D02*
X4143929Y-2483251D01*
X4143929Y-2483251D02*
X4153453Y-2464204D01*
X4153453Y-2464204D02*
X4162976Y-2435632D01*
X4162976Y-2435632D02*
X4172500Y-2388013D01*
X4172500Y-2388013D02*
X4172500Y-2349918D01*
X4172500Y-2349918D02*
X4162976Y-2302299D01*
X4162976Y-2302299D02*
X4153453Y-2273728D01*
X4153453Y-2273728D02*
X4143929Y-2254680D01*
X4143929Y-2254680D02*
X4124881Y-2226109D01*
X4124881Y-2226109D02*
X4115357Y-2216585D01*
X4444881Y-2521347D02*
X4435357Y-2511823D01*
X4435357Y-2511823D02*
X4416310Y-2483251D01*
X4416310Y-2483251D02*
X4406786Y-2464204D01*
X4406786Y-2464204D02*
X4397262Y-2435632D01*
X4397262Y-2435632D02*
X4387738Y-2388013D01*
X4387738Y-2388013D02*
X4387738Y-2349918D01*
X4387738Y-2349918D02*
X4397262Y-2302299D01*
X4397262Y-2302299D02*
X4406786Y-2273728D01*
X4406786Y-2273728D02*
X4416310Y-2254680D01*
X4416310Y-2254680D02*
X4435357Y-2226109D01*
X4435357Y-2226109D02*
X4444881Y-2216585D01*
X4521072Y-2311823D02*
X4521072Y-2445156D01*
X4521072Y-2330870D02*
X4530595Y-2321347D01*
X4530595Y-2321347D02*
X4549643Y-2311823D01*
X4549643Y-2311823D02*
X4578215Y-2311823D01*
X4578215Y-2311823D02*
X4597262Y-2321347D01*
X4597262Y-2321347D02*
X4606786Y-2340394D01*
X4606786Y-2340394D02*
X4606786Y-2445156D01*
X4730595Y-2445156D02*
X4711548Y-2435632D01*
X4711548Y-2435632D02*
X4702024Y-2426109D01*
X4702024Y-2426109D02*
X4692500Y-2407061D01*
X4692500Y-2407061D02*
X4692500Y-2349918D01*
X4692500Y-2349918D02*
X4702024Y-2330870D01*
X4702024Y-2330870D02*
X4711548Y-2321347D01*
X4711548Y-2321347D02*
X4730595Y-2311823D01*
X4730595Y-2311823D02*
X4759167Y-2311823D01*
X4759167Y-2311823D02*
X4778215Y-2321347D01*
X4778215Y-2321347D02*
X4787738Y-2330870D01*
X4787738Y-2330870D02*
X4797262Y-2349918D01*
X4797262Y-2349918D02*
X4797262Y-2407061D01*
X4797262Y-2407061D02*
X4787738Y-2426109D01*
X4787738Y-2426109D02*
X4778215Y-2435632D01*
X4778215Y-2435632D02*
X4759167Y-2445156D01*
X4759167Y-2445156D02*
X4730595Y-2445156D01*
X4854405Y-2311823D02*
X4930595Y-2311823D01*
X4882976Y-2245156D02*
X4882976Y-2416585D01*
X4882976Y-2416585D02*
X4892500Y-2435632D01*
X4892500Y-2435632D02*
X4911548Y-2445156D01*
X4911548Y-2445156D02*
X4930595Y-2445156D01*
X5117262Y-2311823D02*
X5117262Y-2511823D01*
X5117262Y-2321347D02*
X5136310Y-2311823D01*
X5136310Y-2311823D02*
X5174405Y-2311823D01*
X5174405Y-2311823D02*
X5193453Y-2321347D01*
X5193453Y-2321347D02*
X5202976Y-2330870D01*
X5202976Y-2330870D02*
X5212500Y-2349918D01*
X5212500Y-2349918D02*
X5212500Y-2407061D01*
X5212500Y-2407061D02*
X5202976Y-2426109D01*
X5202976Y-2426109D02*
X5193453Y-2435632D01*
X5193453Y-2435632D02*
X5174405Y-2445156D01*
X5174405Y-2445156D02*
X5136310Y-2445156D01*
X5136310Y-2445156D02*
X5117262Y-2435632D01*
X5326786Y-2445156D02*
X5307738Y-2435632D01*
X5307738Y-2435632D02*
X5298215Y-2416585D01*
X5298215Y-2416585D02*
X5298215Y-2245156D01*
X5488691Y-2445156D02*
X5488691Y-2340394D01*
X5488691Y-2340394D02*
X5479167Y-2321347D01*
X5479167Y-2321347D02*
X5460119Y-2311823D01*
X5460119Y-2311823D02*
X5422024Y-2311823D01*
X5422024Y-2311823D02*
X5402976Y-2321347D01*
X5488691Y-2435632D02*
X5469643Y-2445156D01*
X5469643Y-2445156D02*
X5422024Y-2445156D01*
X5422024Y-2445156D02*
X5402976Y-2435632D01*
X5402976Y-2435632D02*
X5393453Y-2416585D01*
X5393453Y-2416585D02*
X5393453Y-2397537D01*
X5393453Y-2397537D02*
X5402976Y-2378490D01*
X5402976Y-2378490D02*
X5422024Y-2368966D01*
X5422024Y-2368966D02*
X5469643Y-2368966D01*
X5469643Y-2368966D02*
X5488691Y-2359442D01*
X5555357Y-2311823D02*
X5631548Y-2311823D01*
X5583929Y-2245156D02*
X5583929Y-2416585D01*
X5583929Y-2416585D02*
X5593453Y-2435632D01*
X5593453Y-2435632D02*
X5612500Y-2445156D01*
X5612500Y-2445156D02*
X5631548Y-2445156D01*
X5774405Y-2435632D02*
X5755357Y-2445156D01*
X5755357Y-2445156D02*
X5717262Y-2445156D01*
X5717262Y-2445156D02*
X5698214Y-2435632D01*
X5698214Y-2435632D02*
X5688691Y-2416585D01*
X5688691Y-2416585D02*
X5688691Y-2340394D01*
X5688691Y-2340394D02*
X5698214Y-2321347D01*
X5698214Y-2321347D02*
X5717262Y-2311823D01*
X5717262Y-2311823D02*
X5755357Y-2311823D01*
X5755357Y-2311823D02*
X5774405Y-2321347D01*
X5774405Y-2321347D02*
X5783929Y-2340394D01*
X5783929Y-2340394D02*
X5783929Y-2359442D01*
X5783929Y-2359442D02*
X5688691Y-2378490D01*
X5955357Y-2445156D02*
X5955357Y-2245156D01*
X5955357Y-2435632D02*
X5936310Y-2445156D01*
X5936310Y-2445156D02*
X5898214Y-2445156D01*
X5898214Y-2445156D02*
X5879167Y-2435632D01*
X5879167Y-2435632D02*
X5869643Y-2426109D01*
X5869643Y-2426109D02*
X5860119Y-2407061D01*
X5860119Y-2407061D02*
X5860119Y-2349918D01*
X5860119Y-2349918D02*
X5869643Y-2330870D01*
X5869643Y-2330870D02*
X5879167Y-2321347D01*
X5879167Y-2321347D02*
X5898214Y-2311823D01*
X5898214Y-2311823D02*
X5936310Y-2311823D01*
X5936310Y-2311823D02*
X5955357Y-2321347D01*
X6031548Y-2521347D02*
X6041072Y-2511823D01*
X6041072Y-2511823D02*
X6060119Y-2483251D01*
X6060119Y-2483251D02*
X6069643Y-2464204D01*
X6069643Y-2464204D02*
X6079167Y-2435632D01*
X6079167Y-2435632D02*
X6088691Y-2388013D01*
X6088691Y-2388013D02*
X6088691Y-2349918D01*
X6088691Y-2349918D02*
X6079167Y-2302299D01*
X6079167Y-2302299D02*
X6069643Y-2273728D01*
X6069643Y-2273728D02*
X6060119Y-2254680D01*
X6060119Y-2254680D02*
X6041072Y-2226109D01*
X6041072Y-2226109D02*
X6031548Y-2216585D01*
X-807500Y-2791680D02*
X-707500Y-2691680D01*
X-807500Y-2591680D01*
X-907500Y-2691680D01*
X-807500Y-2791680D01*
X-478928Y-2565156D02*
X-355119Y-2565156D01*
X-355119Y-2565156D02*
X-421786Y-2641347D01*
X-421786Y-2641347D02*
X-393214Y-2641347D01*
X-393214Y-2641347D02*
X-374167Y-2650870D01*
X-374167Y-2650870D02*
X-364643Y-2660394D01*
X-364643Y-2660394D02*
X-355119Y-2679442D01*
X-355119Y-2679442D02*
X-355119Y-2727061D01*
X-355119Y-2727061D02*
X-364643Y-2746109D01*
X-364643Y-2746109D02*
X-374167Y-2755632D01*
X-374167Y-2755632D02*
X-393214Y-2765156D01*
X-393214Y-2765156D02*
X-450357Y-2765156D01*
X-450357Y-2765156D02*
X-469405Y-2755632D01*
X-469405Y-2755632D02*
X-478928Y-2746109D01*
X-269405Y-2746109D02*
X-259881Y-2755632D01*
X-259881Y-2755632D02*
X-269405Y-2765156D01*
X-269405Y-2765156D02*
X-278929Y-2755632D01*
X-278929Y-2755632D02*
X-269405Y-2746109D01*
X-269405Y-2746109D02*
X-269405Y-2765156D01*
X-88452Y-2631823D02*
X-88452Y-2765156D01*
X-136071Y-2555632D02*
X-183690Y-2698490D01*
X-183690Y-2698490D02*
X-59881Y-2698490D01*
X6786Y-2584204D02*
X16309Y-2574680D01*
X16309Y-2574680D02*
X35357Y-2565156D01*
X35357Y-2565156D02*
X82976Y-2565156D01*
X82976Y-2565156D02*
X102024Y-2574680D01*
X102024Y-2574680D02*
X111548Y-2584204D01*
X111548Y-2584204D02*
X121071Y-2603251D01*
X121071Y-2603251D02*
X121071Y-2622299D01*
X121071Y-2622299D02*
X111548Y-2650870D01*
X111548Y-2650870D02*
X-2738Y-2765156D01*
X-2738Y-2765156D02*
X121071Y-2765156D01*
X216309Y-2765156D02*
X254405Y-2765156D01*
X254405Y-2765156D02*
X273452Y-2755632D01*
X273452Y-2755632D02*
X282976Y-2746109D01*
X282976Y-2746109D02*
X302024Y-2717537D01*
X302024Y-2717537D02*
X311548Y-2679442D01*
X311548Y-2679442D02*
X311548Y-2603251D01*
X311548Y-2603251D02*
X302024Y-2584204D01*
X302024Y-2584204D02*
X292500Y-2574680D01*
X292500Y-2574680D02*
X273452Y-2565156D01*
X273452Y-2565156D02*
X235357Y-2565156D01*
X235357Y-2565156D02*
X216309Y-2574680D01*
X216309Y-2574680D02*
X206786Y-2584204D01*
X206786Y-2584204D02*
X197262Y-2603251D01*
X197262Y-2603251D02*
X197262Y-2650870D01*
X197262Y-2650870D02*
X206786Y-2669918D01*
X206786Y-2669918D02*
X216309Y-2679442D01*
X216309Y-2679442D02*
X235357Y-2688966D01*
X235357Y-2688966D02*
X273452Y-2688966D01*
X273452Y-2688966D02*
X292500Y-2679442D01*
X292500Y-2679442D02*
X302024Y-2669918D01*
X302024Y-2669918D02*
X311548Y-2650870D01*
X397262Y-2765156D02*
X397262Y-2631823D01*
X397262Y-2650870D02*
X406786Y-2641347D01*
X406786Y-2641347D02*
X425833Y-2631823D01*
X425833Y-2631823D02*
X454405Y-2631823D01*
X454405Y-2631823D02*
X473452Y-2641347D01*
X473452Y-2641347D02*
X482976Y-2660394D01*
X482976Y-2660394D02*
X482976Y-2765156D01*
X482976Y-2660394D02*
X492500Y-2641347D01*
X492500Y-2641347D02*
X511548Y-2631823D01*
X511548Y-2631823D02*
X540119Y-2631823D01*
X540119Y-2631823D02*
X559167Y-2641347D01*
X559167Y-2641347D02*
X568691Y-2660394D01*
X568691Y-2660394D02*
X568691Y-2765156D01*
X663929Y-2765156D02*
X663929Y-2631823D01*
X663929Y-2650870D02*
X673452Y-2641347D01*
X673452Y-2641347D02*
X692500Y-2631823D01*
X692500Y-2631823D02*
X721071Y-2631823D01*
X721071Y-2631823D02*
X740119Y-2641347D01*
X740119Y-2641347D02*
X749643Y-2660394D01*
X749643Y-2660394D02*
X749643Y-2765156D01*
X749643Y-2660394D02*
X759167Y-2641347D01*
X759167Y-2641347D02*
X778214Y-2631823D01*
X778214Y-2631823D02*
X806786Y-2631823D01*
X806786Y-2631823D02*
X825833Y-2641347D01*
X825833Y-2641347D02*
X835357Y-2660394D01*
X835357Y-2660394D02*
X835357Y-2765156D01*
X1193452Y-2555632D02*
X1022024Y-2812775D01*
X1418214Y-2565156D02*
X1437262Y-2565156D01*
X1437262Y-2565156D02*
X1456310Y-2574680D01*
X1456310Y-2574680D02*
X1465833Y-2584204D01*
X1465833Y-2584204D02*
X1475357Y-2603251D01*
X1475357Y-2603251D02*
X1484881Y-2641347D01*
X1484881Y-2641347D02*
X1484881Y-2688966D01*
X1484881Y-2688966D02*
X1475357Y-2727061D01*
X1475357Y-2727061D02*
X1465833Y-2746109D01*
X1465833Y-2746109D02*
X1456310Y-2755632D01*
X1456310Y-2755632D02*
X1437262Y-2765156D01*
X1437262Y-2765156D02*
X1418214Y-2765156D01*
X1418214Y-2765156D02*
X1399167Y-2755632D01*
X1399167Y-2755632D02*
X1389643Y-2746109D01*
X1389643Y-2746109D02*
X1380119Y-2727061D01*
X1380119Y-2727061D02*
X1370595Y-2688966D01*
X1370595Y-2688966D02*
X1370595Y-2641347D01*
X1370595Y-2641347D02*
X1380119Y-2603251D01*
X1380119Y-2603251D02*
X1389643Y-2584204D01*
X1389643Y-2584204D02*
X1399167Y-2574680D01*
X1399167Y-2574680D02*
X1418214Y-2565156D01*
X1570595Y-2746109D02*
X1580119Y-2755632D01*
X1580119Y-2755632D02*
X1570595Y-2765156D01*
X1570595Y-2765156D02*
X1561071Y-2755632D01*
X1561071Y-2755632D02*
X1570595Y-2746109D01*
X1570595Y-2746109D02*
X1570595Y-2765156D01*
X1770595Y-2765156D02*
X1656310Y-2765156D01*
X1713452Y-2765156D02*
X1713452Y-2565156D01*
X1713452Y-2565156D02*
X1694405Y-2593728D01*
X1694405Y-2593728D02*
X1675357Y-2612775D01*
X1675357Y-2612775D02*
X1656310Y-2622299D01*
X1837262Y-2565156D02*
X1961071Y-2565156D01*
X1961071Y-2565156D02*
X1894405Y-2641347D01*
X1894405Y-2641347D02*
X1922976Y-2641347D01*
X1922976Y-2641347D02*
X1942024Y-2650870D01*
X1942024Y-2650870D02*
X1951548Y-2660394D01*
X1951548Y-2660394D02*
X1961071Y-2679442D01*
X1961071Y-2679442D02*
X1961071Y-2727061D01*
X1961071Y-2727061D02*
X1951548Y-2746109D01*
X1951548Y-2746109D02*
X1942024Y-2755632D01*
X1942024Y-2755632D02*
X1922976Y-2765156D01*
X1922976Y-2765156D02*
X1865833Y-2765156D01*
X1865833Y-2765156D02*
X1846786Y-2755632D01*
X1846786Y-2755632D02*
X1837262Y-2746109D01*
X2142024Y-2565156D02*
X2046786Y-2565156D01*
X2046786Y-2565156D02*
X2037262Y-2660394D01*
X2037262Y-2660394D02*
X2046786Y-2650870D01*
X2046786Y-2650870D02*
X2065833Y-2641347D01*
X2065833Y-2641347D02*
X2113453Y-2641347D01*
X2113453Y-2641347D02*
X2132500Y-2650870D01*
X2132500Y-2650870D02*
X2142024Y-2660394D01*
X2142024Y-2660394D02*
X2151548Y-2679442D01*
X2151548Y-2679442D02*
X2151548Y-2727061D01*
X2151548Y-2727061D02*
X2142024Y-2746109D01*
X2142024Y-2746109D02*
X2132500Y-2755632D01*
X2132500Y-2755632D02*
X2113453Y-2765156D01*
X2113453Y-2765156D02*
X2065833Y-2765156D01*
X2065833Y-2765156D02*
X2046786Y-2755632D01*
X2046786Y-2755632D02*
X2037262Y-2746109D01*
X2275357Y-2565156D02*
X2294405Y-2565156D01*
X2294405Y-2565156D02*
X2313453Y-2574680D01*
X2313453Y-2574680D02*
X2322976Y-2584204D01*
X2322976Y-2584204D02*
X2332500Y-2603251D01*
X2332500Y-2603251D02*
X2342024Y-2641347D01*
X2342024Y-2641347D02*
X2342024Y-2688966D01*
X2342024Y-2688966D02*
X2332500Y-2727061D01*
X2332500Y-2727061D02*
X2322976Y-2746109D01*
X2322976Y-2746109D02*
X2313453Y-2755632D01*
X2313453Y-2755632D02*
X2294405Y-2765156D01*
X2294405Y-2765156D02*
X2275357Y-2765156D01*
X2275357Y-2765156D02*
X2256310Y-2755632D01*
X2256310Y-2755632D02*
X2246786Y-2746109D01*
X2246786Y-2746109D02*
X2237262Y-2727061D01*
X2237262Y-2727061D02*
X2227738Y-2688966D01*
X2227738Y-2688966D02*
X2227738Y-2641347D01*
X2227738Y-2641347D02*
X2237262Y-2603251D01*
X2237262Y-2603251D02*
X2246786Y-2584204D01*
X2246786Y-2584204D02*
X2256310Y-2574680D01*
X2256310Y-2574680D02*
X2275357Y-2565156D01*
X2418214Y-2565156D02*
X2418214Y-2603251D01*
X2494405Y-2565156D02*
X2494405Y-2603251D01*
X2757262Y-2841347D02*
X2747738Y-2831823D01*
X2747738Y-2831823D02*
X2728691Y-2803251D01*
X2728691Y-2803251D02*
X2719167Y-2784204D01*
X2719167Y-2784204D02*
X2709643Y-2755632D01*
X2709643Y-2755632D02*
X2700119Y-2708013D01*
X2700119Y-2708013D02*
X2700119Y-2669918D01*
X2700119Y-2669918D02*
X2709643Y-2622299D01*
X2709643Y-2622299D02*
X2719167Y-2593728D01*
X2719167Y-2593728D02*
X2728691Y-2574680D01*
X2728691Y-2574680D02*
X2747738Y-2546109D01*
X2747738Y-2546109D02*
X2757262Y-2536585D01*
X2938214Y-2765156D02*
X2823929Y-2765156D01*
X2881071Y-2765156D02*
X2881071Y-2565156D01*
X2881071Y-2565156D02*
X2862024Y-2593728D01*
X2862024Y-2593728D02*
X2842976Y-2612775D01*
X2842976Y-2612775D02*
X2823929Y-2622299D01*
X3119167Y-2565156D02*
X3023929Y-2565156D01*
X3023929Y-2565156D02*
X3014405Y-2660394D01*
X3014405Y-2660394D02*
X3023929Y-2650870D01*
X3023929Y-2650870D02*
X3042976Y-2641347D01*
X3042976Y-2641347D02*
X3090595Y-2641347D01*
X3090595Y-2641347D02*
X3109643Y-2650870D01*
X3109643Y-2650870D02*
X3119167Y-2660394D01*
X3119167Y-2660394D02*
X3128691Y-2679442D01*
X3128691Y-2679442D02*
X3128691Y-2727061D01*
X3128691Y-2727061D02*
X3119167Y-2746109D01*
X3119167Y-2746109D02*
X3109643Y-2755632D01*
X3109643Y-2755632D02*
X3090595Y-2765156D01*
X3090595Y-2765156D02*
X3042976Y-2765156D01*
X3042976Y-2765156D02*
X3023929Y-2755632D01*
X3023929Y-2755632D02*
X3014405Y-2746109D01*
X3334405Y-2765156D02*
X3334405Y-2565156D01*
X3420119Y-2765156D02*
X3420119Y-2660394D01*
X3420119Y-2660394D02*
X3410595Y-2641347D01*
X3410595Y-2641347D02*
X3391548Y-2631823D01*
X3391548Y-2631823D02*
X3362976Y-2631823D01*
X3362976Y-2631823D02*
X3343929Y-2641347D01*
X3343929Y-2641347D02*
X3334405Y-2650870D01*
X3543929Y-2765156D02*
X3524881Y-2755632D01*
X3524881Y-2755632D02*
X3515357Y-2746109D01*
X3515357Y-2746109D02*
X3505833Y-2727061D01*
X3505833Y-2727061D02*
X3505833Y-2669918D01*
X3505833Y-2669918D02*
X3515357Y-2650870D01*
X3515357Y-2650870D02*
X3524881Y-2641347D01*
X3524881Y-2641347D02*
X3543929Y-2631823D01*
X3543929Y-2631823D02*
X3572500Y-2631823D01*
X3572500Y-2631823D02*
X3591548Y-2641347D01*
X3591548Y-2641347D02*
X3601072Y-2650870D01*
X3601072Y-2650870D02*
X3610595Y-2669918D01*
X3610595Y-2669918D02*
X3610595Y-2727061D01*
X3610595Y-2727061D02*
X3601072Y-2746109D01*
X3601072Y-2746109D02*
X3591548Y-2755632D01*
X3591548Y-2755632D02*
X3572500Y-2765156D01*
X3572500Y-2765156D02*
X3543929Y-2765156D01*
X3724881Y-2765156D02*
X3705833Y-2755632D01*
X3705833Y-2755632D02*
X3696310Y-2736585D01*
X3696310Y-2736585D02*
X3696310Y-2565156D01*
X3877262Y-2755632D02*
X3858214Y-2765156D01*
X3858214Y-2765156D02*
X3820119Y-2765156D01*
X3820119Y-2765156D02*
X3801072Y-2755632D01*
X3801072Y-2755632D02*
X3791548Y-2736585D01*
X3791548Y-2736585D02*
X3791548Y-2660394D01*
X3791548Y-2660394D02*
X3801072Y-2641347D01*
X3801072Y-2641347D02*
X3820119Y-2631823D01*
X3820119Y-2631823D02*
X3858214Y-2631823D01*
X3858214Y-2631823D02*
X3877262Y-2641347D01*
X3877262Y-2641347D02*
X3886786Y-2660394D01*
X3886786Y-2660394D02*
X3886786Y-2679442D01*
X3886786Y-2679442D02*
X3791548Y-2698490D01*
X3962976Y-2755632D02*
X3982024Y-2765156D01*
X3982024Y-2765156D02*
X4020119Y-2765156D01*
X4020119Y-2765156D02*
X4039167Y-2755632D01*
X4039167Y-2755632D02*
X4048691Y-2736585D01*
X4048691Y-2736585D02*
X4048691Y-2727061D01*
X4048691Y-2727061D02*
X4039167Y-2708013D01*
X4039167Y-2708013D02*
X4020119Y-2698490D01*
X4020119Y-2698490D02*
X3991548Y-2698490D01*
X3991548Y-2698490D02*
X3972500Y-2688966D01*
X3972500Y-2688966D02*
X3962976Y-2669918D01*
X3962976Y-2669918D02*
X3962976Y-2660394D01*
X3962976Y-2660394D02*
X3972500Y-2641347D01*
X3972500Y-2641347D02*
X3991548Y-2631823D01*
X3991548Y-2631823D02*
X4020119Y-2631823D01*
X4020119Y-2631823D02*
X4039167Y-2641347D01*
X4115357Y-2841347D02*
X4124881Y-2831823D01*
X4124881Y-2831823D02*
X4143929Y-2803251D01*
X4143929Y-2803251D02*
X4153453Y-2784204D01*
X4153453Y-2784204D02*
X4162976Y-2755632D01*
X4162976Y-2755632D02*
X4172500Y-2708013D01*
X4172500Y-2708013D02*
X4172500Y-2669918D01*
X4172500Y-2669918D02*
X4162976Y-2622299D01*
X4162976Y-2622299D02*
X4153453Y-2593728D01*
X4153453Y-2593728D02*
X4143929Y-2574680D01*
X4143929Y-2574680D02*
X4124881Y-2546109D01*
X4124881Y-2546109D02*
X4115357Y-2536585D01*
X4444881Y-2841347D02*
X4435357Y-2831823D01*
X4435357Y-2831823D02*
X4416310Y-2803251D01*
X4416310Y-2803251D02*
X4406786Y-2784204D01*
X4406786Y-2784204D02*
X4397262Y-2755632D01*
X4397262Y-2755632D02*
X4387738Y-2708013D01*
X4387738Y-2708013D02*
X4387738Y-2669918D01*
X4387738Y-2669918D02*
X4397262Y-2622299D01*
X4397262Y-2622299D02*
X4406786Y-2593728D01*
X4406786Y-2593728D02*
X4416310Y-2574680D01*
X4416310Y-2574680D02*
X4435357Y-2546109D01*
X4435357Y-2546109D02*
X4444881Y-2536585D01*
X4521072Y-2631823D02*
X4521072Y-2765156D01*
X4521072Y-2650870D02*
X4530595Y-2641347D01*
X4530595Y-2641347D02*
X4549643Y-2631823D01*
X4549643Y-2631823D02*
X4578215Y-2631823D01*
X4578215Y-2631823D02*
X4597262Y-2641347D01*
X4597262Y-2641347D02*
X4606786Y-2660394D01*
X4606786Y-2660394D02*
X4606786Y-2765156D01*
X4730595Y-2765156D02*
X4711548Y-2755632D01*
X4711548Y-2755632D02*
X4702024Y-2746109D01*
X4702024Y-2746109D02*
X4692500Y-2727061D01*
X4692500Y-2727061D02*
X4692500Y-2669918D01*
X4692500Y-2669918D02*
X4702024Y-2650870D01*
X4702024Y-2650870D02*
X4711548Y-2641347D01*
X4711548Y-2641347D02*
X4730595Y-2631823D01*
X4730595Y-2631823D02*
X4759167Y-2631823D01*
X4759167Y-2631823D02*
X4778215Y-2641347D01*
X4778215Y-2641347D02*
X4787738Y-2650870D01*
X4787738Y-2650870D02*
X4797262Y-2669918D01*
X4797262Y-2669918D02*
X4797262Y-2727061D01*
X4797262Y-2727061D02*
X4787738Y-2746109D01*
X4787738Y-2746109D02*
X4778215Y-2755632D01*
X4778215Y-2755632D02*
X4759167Y-2765156D01*
X4759167Y-2765156D02*
X4730595Y-2765156D01*
X4854405Y-2631823D02*
X4930595Y-2631823D01*
X4882976Y-2565156D02*
X4882976Y-2736585D01*
X4882976Y-2736585D02*
X4892500Y-2755632D01*
X4892500Y-2755632D02*
X4911548Y-2765156D01*
X4911548Y-2765156D02*
X4930595Y-2765156D01*
X5117262Y-2631823D02*
X5117262Y-2831823D01*
X5117262Y-2641347D02*
X5136310Y-2631823D01*
X5136310Y-2631823D02*
X5174405Y-2631823D01*
X5174405Y-2631823D02*
X5193453Y-2641347D01*
X5193453Y-2641347D02*
X5202976Y-2650870D01*
X5202976Y-2650870D02*
X5212500Y-2669918D01*
X5212500Y-2669918D02*
X5212500Y-2727061D01*
X5212500Y-2727061D02*
X5202976Y-2746109D01*
X5202976Y-2746109D02*
X5193453Y-2755632D01*
X5193453Y-2755632D02*
X5174405Y-2765156D01*
X5174405Y-2765156D02*
X5136310Y-2765156D01*
X5136310Y-2765156D02*
X5117262Y-2755632D01*
X5326786Y-2765156D02*
X5307738Y-2755632D01*
X5307738Y-2755632D02*
X5298215Y-2736585D01*
X5298215Y-2736585D02*
X5298215Y-2565156D01*
X5488691Y-2765156D02*
X5488691Y-2660394D01*
X5488691Y-2660394D02*
X5479167Y-2641347D01*
X5479167Y-2641347D02*
X5460119Y-2631823D01*
X5460119Y-2631823D02*
X5422024Y-2631823D01*
X5422024Y-2631823D02*
X5402976Y-2641347D01*
X5488691Y-2755632D02*
X5469643Y-2765156D01*
X5469643Y-2765156D02*
X5422024Y-2765156D01*
X5422024Y-2765156D02*
X5402976Y-2755632D01*
X5402976Y-2755632D02*
X5393453Y-2736585D01*
X5393453Y-2736585D02*
X5393453Y-2717537D01*
X5393453Y-2717537D02*
X5402976Y-2698490D01*
X5402976Y-2698490D02*
X5422024Y-2688966D01*
X5422024Y-2688966D02*
X5469643Y-2688966D01*
X5469643Y-2688966D02*
X5488691Y-2679442D01*
X5555357Y-2631823D02*
X5631548Y-2631823D01*
X5583929Y-2565156D02*
X5583929Y-2736585D01*
X5583929Y-2736585D02*
X5593453Y-2755632D01*
X5593453Y-2755632D02*
X5612500Y-2765156D01*
X5612500Y-2765156D02*
X5631548Y-2765156D01*
X5774405Y-2755632D02*
X5755357Y-2765156D01*
X5755357Y-2765156D02*
X5717262Y-2765156D01*
X5717262Y-2765156D02*
X5698214Y-2755632D01*
X5698214Y-2755632D02*
X5688691Y-2736585D01*
X5688691Y-2736585D02*
X5688691Y-2660394D01*
X5688691Y-2660394D02*
X5698214Y-2641347D01*
X5698214Y-2641347D02*
X5717262Y-2631823D01*
X5717262Y-2631823D02*
X5755357Y-2631823D01*
X5755357Y-2631823D02*
X5774405Y-2641347D01*
X5774405Y-2641347D02*
X5783929Y-2660394D01*
X5783929Y-2660394D02*
X5783929Y-2679442D01*
X5783929Y-2679442D02*
X5688691Y-2698490D01*
X5955357Y-2765156D02*
X5955357Y-2565156D01*
X5955357Y-2755632D02*
X5936310Y-2765156D01*
X5936310Y-2765156D02*
X5898214Y-2765156D01*
X5898214Y-2765156D02*
X5879167Y-2755632D01*
X5879167Y-2755632D02*
X5869643Y-2746109D01*
X5869643Y-2746109D02*
X5860119Y-2727061D01*
X5860119Y-2727061D02*
X5860119Y-2669918D01*
X5860119Y-2669918D02*
X5869643Y-2650870D01*
X5869643Y-2650870D02*
X5879167Y-2641347D01*
X5879167Y-2641347D02*
X5898214Y-2631823D01*
X5898214Y-2631823D02*
X5936310Y-2631823D01*
X5936310Y-2631823D02*
X5955357Y-2641347D01*
X6031548Y-2841347D02*
X6041072Y-2831823D01*
X6041072Y-2831823D02*
X6060119Y-2803251D01*
X6060119Y-2803251D02*
X6069643Y-2784204D01*
X6069643Y-2784204D02*
X6079167Y-2755632D01*
X6079167Y-2755632D02*
X6088691Y-2708013D01*
X6088691Y-2708013D02*
X6088691Y-2669918D01*
X6088691Y-2669918D02*
X6079167Y-2622299D01*
X6079167Y-2622299D02*
X6069643Y-2593728D01*
X6069643Y-2593728D02*
X6060119Y-2574680D01*
X6060119Y-2574680D02*
X6041072Y-2546109D01*
X6041072Y-2546109D02*
X6031548Y-2536585D01*
M02*
