0
SECTION
2
HEADER
9
$INSUNITS
70
4
0
ENDSEC
0
SECTION
2
TABLES
0
TABLE
2
LTYPE
0
LTYPE
72
65
70
64
2
CONTINUOUS
3
______
73
0
40
0
0
ENDTAB
0
TABLE
2
LAYER
0
ENDTAB
0
ENDSEC
0
SECTION
2
ENTITIES
0
LINE
8
0
10
-7
20
-7
11
7
21
-7
0
LINE
8
0
10
7
20
-7
11
7
21
7
0
LINE
8
0
10
7
20
7
11
-7
21
7
0
LINE
8
0
10
-7
20
7
11
-7
21
-7
0
LINE
8
0
10
-7
20
10
11
7
21
10
0
LINE
8
0
10
7
20
10
11
7
21
24
0
LINE
8
0
10
7
20
24
11
-7
21
24
0
LINE
8
0
10
-7
20
24
11
-7
21
10
0
LINE
8
0
10
-7
20
27
11
7
21
27
0
LINE
8
0
10
7
20
27
11
7
21
41
0
LINE
8
0
10
7
20
41
11
-7
21
41
0
LINE
8
0
10
-7
20
41
11
-7
21
27
0
LINE
8
0
10
-7
20
44
11
7
21
44
0
LINE
8
0
10
7
20
44
11
7
21
58
0
LINE
8
0
10
7
20
58
11
-7
21
58
0
LINE
8
0
10
-7
20
58
11
-7
21
44
0
LINE
8
0
10
11
20
-7
11
25
21
-7
0
LINE
8
0
10
25
20
-7
11
25
21
7
0
LINE
8
0
10
25
20
7
11
11
21
7
0
LINE
8
0
10
11
20
7
11
11
21
-7
0
LINE
8
0
10
11
20
10
11
25
21
10
0
LINE
8
0
10
25
20
10
11
25
21
24
0
LINE
8
0
10
25
20
24
11
11
21
24
0
LINE
8
0
10
11
20
24
11
11
21
10
0
LINE
8
0
10
11
20
27
11
25
21
27
0
LINE
8
0
10
25
20
27
11
25
21
41
0
LINE
8
0
10
25
20
41
11
11
21
41
0
LINE
8
0
10
11
20
41
11
11
21
27
0
LINE
8
0
10
11
20
44
11
25
21
44
0
LINE
8
0
10
25
20
44
11
25
21
58
0
LINE
8
0
10
25
20
58
11
11
21
58
0
LINE
8
0
10
11
20
58
11
11
21
44
0
LINE
8
0
10
29
20
-7
11
43
21
-7
0
LINE
8
0
10
43
20
-7
11
43
21
7
0
LINE
8
0
10
43
20
7
11
29
21
7
0
LINE
8
0
10
29
20
7
11
29
21
-7
0
LINE
8
0
10
29
20
10
11
43
21
10
0
LINE
8
0
10
43
20
10
11
43
21
24
0
LINE
8
0
10
43
20
24
11
29
21
24
0
LINE
8
0
10
29
20
24
11
29
21
10
0
LINE
8
0
10
29
20
27
11
43
21
27
0
LINE
8
0
10
43
20
27
11
43
21
41
0
LINE
8
0
10
43
20
41
11
29
21
41
0
LINE
8
0
10
29
20
41
11
29
21
27
0
LINE
8
0
10
29
20
44
11
43
21
44
0
LINE
8
0
10
43
20
44
11
43
21
58
0
LINE
8
0
10
43
20
58
11
29
21
58
0
LINE
8
0
10
29
20
58
11
29
21
44
0
LINE
8
0
10
47
20
-7
11
61
21
-7
0
LINE
8
0
10
61
20
-7
11
61
21
7
0
LINE
8
0
10
61
20
7
11
47
21
7
0
LINE
8
0
10
47
20
7
11
47
21
-7
0
LINE
8
0
10
47
20
10
11
61
21
10
0
LINE
8
0
10
61
20
10
11
61
21
24
0
LINE
8
0
10
61
20
24
11
47
21
24
0
LINE
8
0
10
47
20
24
11
47
21
10
0
LINE
8
0
10
47
20
27
11
61
21
27
0
LINE
8
0
10
61
20
27
11
61
21
41
0
LINE
8
0
10
61
20
41
11
47
21
41
0
LINE
8
0
10
47
20
41
11
47
21
27
0
LINE
8
0
10
47
20
44
11
61
21
44
0
LINE
8
0
10
61
20
44
11
61
21
58
0
LINE
8
0
10
61
20
58
11
47
21
58
0
LINE
8
0
10
47
20
58
11
47
21
44
0
LINE
8
0
10
65
20
-7
11
79
21
-7
0
LINE
8
0
10
79
20
-7
11
79
21
7
0
LINE
8
0
10
79
20
7
11
65
21
7
0
LINE
8
0
10
65
20
7
11
65
21
-7
0
LINE
8
0
10
65
20
10
11
79
21
10
0
LINE
8
0
10
79
20
10
11
79
21
24
0
LINE
8
0
10
79
20
24
11
65
21
24
0
LINE
8
0
10
65
20
24
11
65
21
10
0
LINE
8
0
10
65
20
27
11
79
21
27
0
LINE
8
0
10
79
20
27
11
79
21
41
0
LINE
8
0
10
79
20
41
11
65
21
41
0
LINE
8
0
10
65
20
41
11
65
21
27
0
LINE
8
0
10
65
20
44
11
79
21
44
0
LINE
8
0
10
79
20
44
11
79
21
58
0
LINE
8
0
10
79
20
58
11
65
21
58
0
LINE
8
0
10
65
20
58
11
65
21
44
0
LINE
8
0
10
83
20
-7
11
97
21
-7
0
LINE
8
0
10
97
20
-7
11
97
21
7
0
LINE
8
0
10
97
20
7
11
83
21
7
0
LINE
8
0
10
83
20
7
11
83
21
-7
0
LINE
8
0
10
83
20
10
11
97
21
10
0
LINE
8
0
10
97
20
10
11
97
21
24
0
LINE
8
0
10
97
20
24
11
83
21
24
0
LINE
8
0
10
83
20
24
11
83
21
10
0
LINE
8
0
10
83
20
27
11
97
21
27
0
LINE
8
0
10
97
20
27
11
97
21
41
0
LINE
8
0
10
97
20
41
11
83
21
41
0
LINE
8
0
10
83
20
41
11
83
21
27
0
LINE
8
0
10
83
20
44
11
97
21
44
0
LINE
8
0
10
97
20
44
11
97
21
58
0
LINE
8
0
10
97
20
58
11
83
21
58
0
LINE
8
0
10
83
20
58
11
83
21
44
0
ENDSEC
0
EOF