%TF.GenerationSoftware,KiCad,Pcbnew,(7.0.0-0)*%
%TF.CreationDate,2023-02-20T17:02:08+08:00*%
%TF.ProjectId,test,74657374-2e6b-4696-9361-645f70636258,v1.0.0*%
%TF.SameCoordinates,Original*%
%TF.FileFunction,Legend,Bot*%
%TF.FilePolarity,Positive*%
%FSLAX46Y46*%
G04 Gerber Fmt 4.6, Leading zero omitted, Abs format (unit mm)*
G04 Created by KiCad (PCBNEW (7.0.0-0)) date 2023-02-20 17:02:08*
%MOMM*%
%LPD*%
G01*
G04 APERTURE LIST*
%ADD10C,0.150000*%
%ADD11C,0.120000*%
G04 APERTURE END LIST*
D10*
%TO.C,S1*%
X-1142857Y19727857D02*
X-1190476Y19680238D01*
X-1190476Y19680238D02*
X-1333333Y19632619D01*
X-1333333Y19632619D02*
X-1428571Y19632619D01*
X-1428571Y19632619D02*
X-1571428Y19680238D01*
X-1571428Y19680238D02*
X-1666666Y19775476D01*
X-1666666Y19775476D02*
X-1714285Y19870714D01*
X-1714285Y19870714D02*
X-1761904Y20061190D01*
X-1761904Y20061190D02*
X-1761904Y20204047D01*
X-1761904Y20204047D02*
X-1714285Y20394523D01*
X-1714285Y20394523D02*
X-1666666Y20489761D01*
X-1666666Y20489761D02*
X-1571428Y20585000D01*
X-1571428Y20585000D02*
X-1428571Y20632619D01*
X-1428571Y20632619D02*
X-1333333Y20632619D01*
X-1333333Y20632619D02*
X-1190476Y20585000D01*
X-1190476Y20585000D02*
X-1142857Y20537380D01*
X-523809Y20632619D02*
X-428571Y20632619D01*
X-428571Y20632619D02*
X-333333Y20585000D01*
X-333333Y20585000D02*
X-285714Y20537380D01*
X-285714Y20537380D02*
X-238095Y20442142D01*
X-238095Y20442142D02*
X-190476Y20251666D01*
X-190476Y20251666D02*
X-190476Y20013571D01*
X-190476Y20013571D02*
X-238095Y19823095D01*
X-238095Y19823095D02*
X-285714Y19727857D01*
X-285714Y19727857D02*
X-333333Y19680238D01*
X-333333Y19680238D02*
X-428571Y19632619D01*
X-428571Y19632619D02*
X-523809Y19632619D01*
X-523809Y19632619D02*
X-619047Y19680238D01*
X-619047Y19680238D02*
X-666666Y19727857D01*
X-666666Y19727857D02*
X-714285Y19823095D01*
X-714285Y19823095D02*
X-761904Y20013571D01*
X-761904Y20013571D02*
X-761904Y20251666D01*
X-761904Y20251666D02*
X-714285Y20442142D01*
X-714285Y20442142D02*
X-666666Y20537380D01*
X-666666Y20537380D02*
X-619047Y20585000D01*
X-619047Y20585000D02*
X-523809Y20632619D01*
X809523Y19632619D02*
X476190Y20108809D01*
X238095Y19632619D02*
X238095Y20632619D01*
X238095Y20632619D02*
X619047Y20632619D01*
X619047Y20632619D02*
X714285Y20585000D01*
X714285Y20585000D02*
X761904Y20537380D01*
X761904Y20537380D02*
X809523Y20442142D01*
X809523Y20442142D02*
X809523Y20299285D01*
X809523Y20299285D02*
X761904Y20204047D01*
X761904Y20204047D02*
X714285Y20156428D01*
X714285Y20156428D02*
X619047Y20108809D01*
X619047Y20108809D02*
X238095Y20108809D01*
X1428571Y20632619D02*
X1523809Y20632619D01*
X1523809Y20632619D02*
X1619047Y20585000D01*
X1619047Y20585000D02*
X1666666Y20537380D01*
X1666666Y20537380D02*
X1714285Y20442142D01*
X1714285Y20442142D02*
X1761904Y20251666D01*
X1761904Y20251666D02*
X1761904Y20013571D01*
X1761904Y20013571D02*
X1714285Y19823095D01*
X1714285Y19823095D02*
X1666666Y19727857D01*
X1666666Y19727857D02*
X1619047Y19680238D01*
X1619047Y19680238D02*
X1523809Y19632619D01*
X1523809Y19632619D02*
X1428571Y19632619D01*
X1428571Y19632619D02*
X1333333Y19680238D01*
X1333333Y19680238D02*
X1285714Y19727857D01*
X1285714Y19727857D02*
X1238095Y19823095D01*
X1238095Y19823095D02*
X1190476Y20013571D01*
X1190476Y20013571D02*
X1190476Y20251666D01*
X1190476Y20251666D02*
X1238095Y20442142D01*
X1238095Y20442142D02*
X1285714Y20537380D01*
X1285714Y20537380D02*
X1333333Y20585000D01*
X1333333Y20585000D02*
X1428571Y20632619D01*
%TO.C,S2*%
X16857142Y13727857D02*
X16809523Y13680238D01*
X16809523Y13680238D02*
X16666666Y13632619D01*
X16666666Y13632619D02*
X16571428Y13632619D01*
X16571428Y13632619D02*
X16428571Y13680238D01*
X16428571Y13680238D02*
X16333333Y13775476D01*
X16333333Y13775476D02*
X16285714Y13870714D01*
X16285714Y13870714D02*
X16238095Y14061190D01*
X16238095Y14061190D02*
X16238095Y14204047D01*
X16238095Y14204047D02*
X16285714Y14394523D01*
X16285714Y14394523D02*
X16333333Y14489761D01*
X16333333Y14489761D02*
X16428571Y14585000D01*
X16428571Y14585000D02*
X16571428Y14632619D01*
X16571428Y14632619D02*
X16666666Y14632619D01*
X16666666Y14632619D02*
X16809523Y14585000D01*
X16809523Y14585000D02*
X16857142Y14537380D01*
X17809523Y13632619D02*
X17238095Y13632619D01*
X17523809Y13632619D02*
X17523809Y14632619D01*
X17523809Y14632619D02*
X17428571Y14489761D01*
X17428571Y14489761D02*
X17333333Y14394523D01*
X17333333Y14394523D02*
X17238095Y14346904D01*
X18809523Y13632619D02*
X18476190Y14108809D01*
X18238095Y13632619D02*
X18238095Y14632619D01*
X18238095Y14632619D02*
X18619047Y14632619D01*
X18619047Y14632619D02*
X18714285Y14585000D01*
X18714285Y14585000D02*
X18761904Y14537380D01*
X18761904Y14537380D02*
X18809523Y14442142D01*
X18809523Y14442142D02*
X18809523Y14299285D01*
X18809523Y14299285D02*
X18761904Y14204047D01*
X18761904Y14204047D02*
X18714285Y14156428D01*
X18714285Y14156428D02*
X18619047Y14108809D01*
X18619047Y14108809D02*
X18238095Y14108809D01*
X19428571Y14632619D02*
X19523809Y14632619D01*
X19523809Y14632619D02*
X19619047Y14585000D01*
X19619047Y14585000D02*
X19666666Y14537380D01*
X19666666Y14537380D02*
X19714285Y14442142D01*
X19714285Y14442142D02*
X19761904Y14251666D01*
X19761904Y14251666D02*
X19761904Y14013571D01*
X19761904Y14013571D02*
X19714285Y13823095D01*
X19714285Y13823095D02*
X19666666Y13727857D01*
X19666666Y13727857D02*
X19619047Y13680238D01*
X19619047Y13680238D02*
X19523809Y13632619D01*
X19523809Y13632619D02*
X19428571Y13632619D01*
X19428571Y13632619D02*
X19333333Y13680238D01*
X19333333Y13680238D02*
X19285714Y13727857D01*
X19285714Y13727857D02*
X19238095Y13823095D01*
X19238095Y13823095D02*
X19190476Y14013571D01*
X19190476Y14013571D02*
X19190476Y14251666D01*
X19190476Y14251666D02*
X19238095Y14442142D01*
X19238095Y14442142D02*
X19285714Y14537380D01*
X19285714Y14537380D02*
X19333333Y14585000D01*
X19333333Y14585000D02*
X19428571Y14632619D01*
%TO.C,JC1*%
X-2767380Y-4833333D02*
X-2291190Y-4500000D01*
X-2767380Y-4261905D02*
X-1767380Y-4261905D01*
X-1767380Y-4261905D02*
X-1767380Y-4642857D01*
X-1767380Y-4642857D02*
X-1815000Y-4738095D01*
X-1815000Y-4738095D02*
X-1862619Y-4785714D01*
X-1862619Y-4785714D02*
X-1957857Y-4833333D01*
X-1957857Y-4833333D02*
X-2100714Y-4833333D01*
X-2100714Y-4833333D02*
X-2195952Y-4785714D01*
X-2195952Y-4785714D02*
X-2243571Y-4738095D01*
X-2243571Y-4738095D02*
X-2291190Y-4642857D01*
X-2291190Y-4642857D02*
X-2291190Y-4261905D01*
X-1862619Y-5214286D02*
X-1815000Y-5261905D01*
X-1815000Y-5261905D02*
X-1767380Y-5357143D01*
X-1767380Y-5357143D02*
X-1767380Y-5595238D01*
X-1767380Y-5595238D02*
X-1815000Y-5690476D01*
X-1815000Y-5690476D02*
X-1862619Y-5738095D01*
X-1862619Y-5738095D02*
X-1957857Y-5785714D01*
X-1957857Y-5785714D02*
X-2053095Y-5785714D01*
X-2053095Y-5785714D02*
X-2195952Y-5738095D01*
X-2195952Y-5738095D02*
X-2767380Y-5166667D01*
X-2767380Y-5166667D02*
X-2767380Y-5785714D01*
X-1567380Y-4833333D02*
X-1091190Y-4500000D01*
X-1567380Y-4261905D02*
X-567380Y-4261905D01*
X-567380Y-4261905D02*
X-567380Y-4642857D01*
X-567380Y-4642857D02*
X-615000Y-4738095D01*
X-615000Y-4738095D02*
X-662619Y-4785714D01*
X-662619Y-4785714D02*
X-757857Y-4833333D01*
X-757857Y-4833333D02*
X-900714Y-4833333D01*
X-900714Y-4833333D02*
X-995952Y-4785714D01*
X-995952Y-4785714D02*
X-1043571Y-4738095D01*
X-1043571Y-4738095D02*
X-1091190Y-4642857D01*
X-1091190Y-4642857D02*
X-1091190Y-4261905D01*
X-1567380Y-5785714D02*
X-1567380Y-5214286D01*
X-1567380Y-5500000D02*
X-567380Y-5500000D01*
X-567380Y-5500000D02*
X-710238Y-5404762D01*
X-710238Y-5404762D02*
X-805476Y-5309524D01*
X-805476Y-5309524D02*
X-853095Y-5214286D01*
X-367380Y-4833333D02*
X108809Y-4500000D01*
X-367380Y-4261905D02*
X632619Y-4261905D01*
X632619Y-4261905D02*
X632619Y-4642857D01*
X632619Y-4642857D02*
X585000Y-4738095D01*
X585000Y-4738095D02*
X537380Y-4785714D01*
X537380Y-4785714D02*
X442142Y-4833333D01*
X442142Y-4833333D02*
X299285Y-4833333D01*
X299285Y-4833333D02*
X204047Y-4785714D01*
X204047Y-4785714D02*
X156428Y-4738095D01*
X156428Y-4738095D02*
X108809Y-4642857D01*
X108809Y-4642857D02*
X108809Y-4261905D01*
X632619Y-5452381D02*
X632619Y-5547619D01*
X632619Y-5547619D02*
X585000Y-5642857D01*
X585000Y-5642857D02*
X537380Y-5690476D01*
X537380Y-5690476D02*
X442142Y-5738095D01*
X442142Y-5738095D02*
X251666Y-5785714D01*
X251666Y-5785714D02*
X13571Y-5785714D01*
X13571Y-5785714D02*
X-176904Y-5738095D01*
X-176904Y-5738095D02*
X-272142Y-5690476D01*
X-272142Y-5690476D02*
X-319761Y-5642857D01*
X-319761Y-5642857D02*
X-367380Y-5547619D01*
X-367380Y-5547619D02*
X-367380Y-5452381D01*
X-367380Y-5452381D02*
X-319761Y-5357143D01*
X-319761Y-5357143D02*
X-272142Y-5309524D01*
X-272142Y-5309524D02*
X-176904Y-5261905D01*
X-176904Y-5261905D02*
X13571Y-5214286D01*
X13571Y-5214286D02*
X251666Y-5214286D01*
X251666Y-5214286D02*
X442142Y-5261905D01*
X442142Y-5261905D02*
X537380Y-5309524D01*
X537380Y-5309524D02*
X585000Y-5357143D01*
X585000Y-5357143D02*
X632619Y-5452381D01*
X927857Y-4833333D02*
X880238Y-4785714D01*
X880238Y-4785714D02*
X832619Y-4642857D01*
X832619Y-4642857D02*
X832619Y-4547619D01*
X832619Y-4547619D02*
X880238Y-4404762D01*
X880238Y-4404762D02*
X975476Y-4309524D01*
X975476Y-4309524D02*
X1070714Y-4261905D01*
X1070714Y-4261905D02*
X1261190Y-4214286D01*
X1261190Y-4214286D02*
X1404047Y-4214286D01*
X1404047Y-4214286D02*
X1594523Y-4261905D01*
X1594523Y-4261905D02*
X1689761Y-4309524D01*
X1689761Y-4309524D02*
X1785000Y-4404762D01*
X1785000Y-4404762D02*
X1832619Y-4547619D01*
X1832619Y-4547619D02*
X1832619Y-4642857D01*
X1832619Y-4642857D02*
X1785000Y-4785714D01*
X1785000Y-4785714D02*
X1737380Y-4833333D01*
X1832619Y-5690476D02*
X1832619Y-5500000D01*
X1832619Y-5500000D02*
X1785000Y-5404762D01*
X1785000Y-5404762D02*
X1737380Y-5357143D01*
X1737380Y-5357143D02*
X1594523Y-5261905D01*
X1594523Y-5261905D02*
X1404047Y-5214286D01*
X1404047Y-5214286D02*
X1023095Y-5214286D01*
X1023095Y-5214286D02*
X927857Y-5261905D01*
X927857Y-5261905D02*
X880238Y-5309524D01*
X880238Y-5309524D02*
X832619Y-5404762D01*
X832619Y-5404762D02*
X832619Y-5595238D01*
X832619Y-5595238D02*
X880238Y-5690476D01*
X880238Y-5690476D02*
X927857Y-5738095D01*
X927857Y-5738095D02*
X1023095Y-5785714D01*
X1023095Y-5785714D02*
X1261190Y-5785714D01*
X1261190Y-5785714D02*
X1356428Y-5738095D01*
X1356428Y-5738095D02*
X1404047Y-5690476D01*
X1404047Y-5690476D02*
X1451666Y-5595238D01*
X1451666Y-5595238D02*
X1451666Y-5404762D01*
X1451666Y-5404762D02*
X1404047Y-5309524D01*
X1404047Y-5309524D02*
X1356428Y-5261905D01*
X1356428Y-5261905D02*
X1261190Y-5214286D01*
X2127857Y-4833333D02*
X2080238Y-4785714D01*
X2080238Y-4785714D02*
X2032619Y-4642857D01*
X2032619Y-4642857D02*
X2032619Y-4547619D01*
X2032619Y-4547619D02*
X2080238Y-4404762D01*
X2080238Y-4404762D02*
X2175476Y-4309524D01*
X2175476Y-4309524D02*
X2270714Y-4261905D01*
X2270714Y-4261905D02*
X2461190Y-4214286D01*
X2461190Y-4214286D02*
X2604047Y-4214286D01*
X2604047Y-4214286D02*
X2794523Y-4261905D01*
X2794523Y-4261905D02*
X2889761Y-4309524D01*
X2889761Y-4309524D02*
X2985000Y-4404762D01*
X2985000Y-4404762D02*
X3032619Y-4547619D01*
X3032619Y-4547619D02*
X3032619Y-4642857D01*
X3032619Y-4642857D02*
X2985000Y-4785714D01*
X2985000Y-4785714D02*
X2937380Y-4833333D01*
X3032619Y-5738095D02*
X3032619Y-5261905D01*
X3032619Y-5261905D02*
X2556428Y-5214286D01*
X2556428Y-5214286D02*
X2604047Y-5261905D01*
X2604047Y-5261905D02*
X2651666Y-5357143D01*
X2651666Y-5357143D02*
X2651666Y-5595238D01*
X2651666Y-5595238D02*
X2604047Y-5690476D01*
X2604047Y-5690476D02*
X2556428Y-5738095D01*
X2556428Y-5738095D02*
X2461190Y-5785714D01*
X2461190Y-5785714D02*
X2223095Y-5785714D01*
X2223095Y-5785714D02*
X2127857Y-5738095D01*
X2127857Y-5738095D02*
X2080238Y-5690476D01*
X2080238Y-5690476D02*
X2032619Y-5595238D01*
X2032619Y-5595238D02*
X2032619Y-5357143D01*
X2032619Y-5357143D02*
X2080238Y-5261905D01*
X2080238Y-5261905D02*
X2127857Y-5214286D01*
%TO.C,JB1*%
X16643571Y-4747618D02*
X16691190Y-4604761D01*
X16691190Y-4604761D02*
X16738809Y-4557142D01*
X16738809Y-4557142D02*
X16834047Y-4509523D01*
X16834047Y-4509523D02*
X16976904Y-4509523D01*
X16976904Y-4509523D02*
X17072142Y-4557142D01*
X17072142Y-4557142D02*
X17119761Y-4604761D01*
X17119761Y-4604761D02*
X17167380Y-4699999D01*
X17167380Y-4699999D02*
X17167380Y-5080951D01*
X17167380Y-5080951D02*
X16167380Y-5080951D01*
X16167380Y-5080951D02*
X16167380Y-4747618D01*
X16167380Y-4747618D02*
X16215000Y-4652380D01*
X16215000Y-4652380D02*
X16262619Y-4604761D01*
X16262619Y-4604761D02*
X16357857Y-4557142D01*
X16357857Y-4557142D02*
X16453095Y-4557142D01*
X16453095Y-4557142D02*
X16548333Y-4604761D01*
X16548333Y-4604761D02*
X16595952Y-4652380D01*
X16595952Y-4652380D02*
X16643571Y-4747618D01*
X16643571Y-4747618D02*
X16643571Y-5080951D01*
X16786428Y-4080951D02*
X16786428Y-3319047D01*
X17167380Y-3699999D02*
X16405476Y-3699999D01*
X19043571Y-4747618D02*
X19091190Y-4604761D01*
X19091190Y-4604761D02*
X19138809Y-4557142D01*
X19138809Y-4557142D02*
X19234047Y-4509523D01*
X19234047Y-4509523D02*
X19376904Y-4509523D01*
X19376904Y-4509523D02*
X19472142Y-4557142D01*
X19472142Y-4557142D02*
X19519761Y-4604761D01*
X19519761Y-4604761D02*
X19567380Y-4699999D01*
X19567380Y-4699999D02*
X19567380Y-5080951D01*
X19567380Y-5080951D02*
X18567380Y-5080951D01*
X18567380Y-5080951D02*
X18567380Y-4747618D01*
X18567380Y-4747618D02*
X18615000Y-4652380D01*
X18615000Y-4652380D02*
X18662619Y-4604761D01*
X18662619Y-4604761D02*
X18757857Y-4557142D01*
X18757857Y-4557142D02*
X18853095Y-4557142D01*
X18853095Y-4557142D02*
X18948333Y-4604761D01*
X18948333Y-4604761D02*
X18995952Y-4652380D01*
X18995952Y-4652380D02*
X19043571Y-4747618D01*
X19043571Y-4747618D02*
X19043571Y-5080951D01*
X19186428Y-4080951D02*
X19186428Y-3319047D01*
D11*
%TO.C,D1*%
X2900000Y15000000D02*
X4750000Y15000000D01*
X2900000Y13800000D02*
X4750000Y13800000D01*
X4750000Y13800000D02*
X4750000Y15000000D01*
%TO.C,D2*%
X22300000Y13800000D02*
X20450000Y13800000D01*
X22300000Y15000000D02*
X20450000Y15000000D01*
X20450000Y15000000D02*
X20450000Y13800000D01*
%TD*%
M02*
