0
SECTION
2
HEADER
9
$INSUNITS
70
4
0
ENDSEC
0
SECTION
2
TABLES
0
TABLE
2
LTYPE
0
LTYPE
72
65
70
64
2
CONTINUOUS
3
______
73
0
40
0
0
ENDTAB
0
TABLE
2
LAYER
0
ENDTAB
0
ENDSEC
0
SECTION
2
ENTITIES
0
LINE
8
0
10
-7
20
-7
11
7
21
-7
0
LINE
8
0
10
7
20
-7
11
7
21
7
0
LINE
8
0
10
7
20
7
11
-7
21
7
0
LINE
8
0
10
-7
20
7
11
-7
21
-7
0
LINE
8
0
10
-7
20
10
11
7
21
10
0
LINE
8
0
10
7
20
10
11
7
21
24
0
LINE
8
0
10
7
20
24
11
-7
21
24
0
LINE
8
0
10
-7
20
24
11
-7
21
10
0
LINE
8
0
10
11
20
-7
11
25
21
-7
0
LINE
8
0
10
25
20
-7
11
25
21
7
0
LINE
8
0
10
25
20
7
11
11
21
7
0
LINE
8
0
10
11
20
7
11
11
21
-7
0
LINE
8
0
10
11
20
10
11
25
21
10
0
LINE
8
0
10
25
20
10
11
25
21
24
0
LINE
8
0
10
25
20
24
11
11
21
24
0
LINE
8
0
10
11
20
24
11
11
21
10
0
LINE
8
0
10
29
20
-7
11
43
21
-7
0
LINE
8
0
10
43
20
-7
11
43
21
7
0
LINE
8
0
10
43
20
7
11
29
21
7
0
LINE
8
0
10
29
20
7
11
29
21
-7
0
LINE
8
0
10
29
20
10
11
43
21
10
0
LINE
8
0
10
43
20
10
11
43
21
24
0
LINE
8
0
10
43
20
24
11
29
21
24
0
LINE
8
0
10
29
20
24
11
29
21
10
0
ENDSEC
0
EOF