%TF.GenerationSoftware,KiCad,Pcbnew,(7.0.0-0)*%
%TF.CreationDate,2023-02-20T17:02:08+08:00*%
%TF.ProjectId,test,74657374-2e6b-4696-9361-645f70636258,v1.0.0*%
%TF.SameCoordinates,Original*%
%TF.FileFunction,Copper,L2,Bot*%
%TF.FilePolarity,Positive*%
%FSLAX46Y46*%
G04 Gerber Fmt 4.6, Leading zero omitted, Abs format (unit mm)*
G04 Created by KiCad (PCBNEW (7.0.0-0)) date 2023-02-20 17:02:08*
%MOMM*%
%LPD*%
G01*
G04 APERTURE LIST*
G04 Aperture macros list*
%AMRoundRect*
0 Rectangle with rounded corners*
0 $1 Rounding radius*
0 $2 $3 $4 $5 $6 $7 $8 $9 X,Y pos of 4 corners*
0 Add a 4 corners polygon primitive as box body*
4,1,4,$2,$3,$4,$5,$6,$7,$8,$9,$2,$3,0*
0 Add four circle primitives for the rounded corners*
1,1,$1+$1,$2,$3*
1,1,$1+$1,$4,$5*
1,1,$1+$1,$6,$7*
1,1,$1+$1,$8,$9*
0 Add four rect primitives between the rounded corners*
20,1,$1+$1,$2,$3,$4,$5,0*
20,1,$1+$1,$4,$5,$6,$7,0*
20,1,$1+$1,$6,$7,$8,$9,0*
20,1,$1+$1,$8,$9,$2,$3,0*%
G04 Aperture macros list end*
%TA.AperFunction,SMDPad,CuDef*%
%ADD10R,2.600000X2.600000*%
%TD*%
%TA.AperFunction,ComponentPad*%
%ADD11C,0.600000*%
%TD*%
%TA.AperFunction,SMDPad,CuDef*%
%ADD12R,0.600000X0.700000*%
%TD*%
%TA.AperFunction,SMDPad,CuDef*%
%ADD13RoundRect,0.150000X0.150000X0.625000X-0.150000X0.625000X-0.150000X-0.625000X0.150000X-0.625000X0*%
%TD*%
%TA.AperFunction,SMDPad,CuDef*%
%ADD14RoundRect,0.250000X0.350000X0.650000X-0.350000X0.650000X-0.350000X-0.650000X0.350000X-0.650000X0*%
%TD*%
%TA.AperFunction,SMDPad,CuDef*%
%ADD15R,1.524000X0.600000*%
%TD*%
%TA.AperFunction,SMDPad,CuDef*%
%ADD16R,0.700000X1.200000*%
%TD*%
%TA.AperFunction,SMDPad,CuDef*%
%ADD17RoundRect,0.381000X-0.619000X-0.381000X0.619000X-0.381000X0.619000X0.381000X-0.619000X0.381000X0*%
%TD*%
%TA.AperFunction,SMDPad,CuDef*%
%ADD18RoundRect,0.378000X-0.622000X-0.378000X0.622000X-0.378000X0.622000X0.378000X-0.622000X0.378000X0*%
%TD*%
%TA.AperFunction,Conductor*%
%ADD19C,0.250000*%
%TD*%
G04 APERTURE END LIST*
D10*
%TO.P,S1,1*%
%TO.N,C0R0D*%
X-3274999Y22949999D03*
%TO.P,S1,2*%
%TO.N,C0*%
X8274999Y20749999D03*
D11*
%TO.P,S1,3*%
%TO.N,C0R0D*%
X-3275000Y22950000D03*
%TO.P,S1,4*%
%TO.N,C0*%
X8275000Y20750000D03*
%TD*%
D12*
%TO.P,D1,1*%
%TO.N,R0*%
X4299999Y14399999D03*
%TO.P,D1,2*%
%TO.N,C0R0D*%
X2899999Y14399999D03*
%TD*%
D10*
%TO.P,S2,1*%
%TO.N,C1R0D*%
X21274999Y11049999D03*
%TO.P,S2,2*%
%TO.N,C1*%
X9724999Y13249999D03*
D11*
%TO.P,S2,3*%
%TO.N,C1R0D*%
X21275000Y11050000D03*
%TO.P,S2,4*%
%TO.N,C1*%
X9725000Y13250000D03*
%TD*%
D12*
%TO.P,D2,1*%
%TO.N,R0*%
X20899999Y14399999D03*
%TO.P,D2,2*%
%TO.N,C1R0D*%
X22299999Y14399999D03*
%TD*%
D13*
%TO.P,JC1,5*%
%TO.N,R2*%
X-2000000Y2000000D03*
%TO.P,JC1,4*%
%TO.N,R1*%
X-1000000Y2000000D03*
%TO.P,JC1,3*%
%TO.N,R0*%
X0Y2000000D03*
%TO.P,JC1,2*%
%TO.N,C6*%
X1000000Y2000000D03*
%TO.P,JC1,1*%
%TO.N,C5*%
X2000000Y2000000D03*
D14*
%TO.P,JC1,MP*%
%TO.N,N/C*%
X3300000Y-1875000D03*
X-3300000Y-1875000D03*
%TD*%
D13*
%TO.P,JB1,2*%
%TO.N,BSLI*%
X17500000Y2000000D03*
%TO.P,JB1,1*%
%TO.N,GND*%
X18500000Y2000000D03*
D14*
%TO.P,JB1,MP*%
%TO.N,N/C*%
X16200000Y-1875000D03*
X19800000Y-1875000D03*
%TD*%
D15*
%TO.P,SS1,1*%
%TO.N,RAW*%
X34299999Y2249999D03*
%TO.P,SS1,2*%
%TO.N,BSLI*%
X34299999Y-749999D03*
%TO.P,SS1,3*%
%TO.N,three*%
X34299999Y-2249999D03*
D16*
%TO.P,SS1,4*%
%TO.N,N/C*%
X35399999Y-3599999D03*
X37699999Y-3599999D03*
X35399999Y3599999D03*
X37699999Y3599999D03*
%TD*%
D17*
%TO.P,SB1,1*%
%TO.N,GND*%
X34250000Y17000000D03*
D18*
%TO.P,SB1,2*%
%TO.N,RST*%
X37750000Y17000000D03*
%TD*%
D19*
%TO.N,C0R0D*%
X-354999Y14400000D02*
X-3275000Y17320001D01*
X2900000Y14400000D02*
X-354999Y14400000D01*
X-3275000Y17320001D02*
X-3275000Y22950000D01*
%TO.N,R0*%
X14501650Y14400000D02*
X13776650Y15125000D01*
X5025000Y15125000D02*
X4300000Y14400000D01*
X13776650Y15125000D02*
X5025000Y15125000D01*
X20900000Y14400000D02*
X14501650Y14400000D01*
X0Y2000000D02*
X0Y10100000D01*
X0Y10100000D02*
X4300000Y14400000D01*
%TO.N,C1R0D*%
X22300000Y14400000D02*
X22300000Y12075000D01*
X22300000Y12075000D02*
X21275000Y11050000D01*
%TO.N,BSLI*%
X17500000Y2000000D02*
X17500000Y1200000D01*
X17500000Y1200000D02*
X19350000Y-650000D01*
X33725000Y-650000D02*
X33825000Y-750000D01*
X19350000Y-650000D02*
X33725000Y-650000D01*
%TO.N,GND*%
X18500000Y2000000D02*
X33500000Y17000000D01*
X34250000Y17000000D02*
X33500000Y17000000D01*
%TD*%
%TA.AperFunction,Conductor*%
%TO.N,GND*%
G36*
X43504854Y25424118D02*
G01*
X43713113Y25407727D01*
X43732331Y25404683D01*
X43930705Y25357058D01*
X43949211Y25351045D01*
X44137694Y25272972D01*
X44155031Y25264139D01*
X44328981Y25157543D01*
X44344722Y25146106D01*
X44499859Y25013606D01*
X44513606Y24999859D01*
X44641029Y24850665D01*
X44646106Y24844722D01*
X44657543Y24828981D01*
X44764139Y24655031D01*
X44772972Y24637694D01*
X44851045Y24449211D01*
X44857058Y24430705D01*
X44904683Y24232331D01*
X44907727Y24213113D01*
X44924118Y24004854D01*
X44924500Y23995125D01*
X44924500Y-6995125D01*
X44924118Y-7004854D01*
X44907727Y-7213113D01*
X44904683Y-7232331D01*
X44857058Y-7430705D01*
X44851045Y-7449211D01*
X44772972Y-7637694D01*
X44764139Y-7655031D01*
X44657543Y-7828981D01*
X44646105Y-7844722D01*
X44513606Y-7999859D01*
X44499859Y-8013606D01*
X44350665Y-8141029D01*
X44344722Y-8146106D01*
X44328981Y-8157543D01*
X44155031Y-8264139D01*
X44137694Y-8272972D01*
X43949211Y-8351045D01*
X43930705Y-8357058D01*
X43732331Y-8404683D01*
X43713113Y-8407727D01*
X43504854Y-8424118D01*
X43495125Y-8424500D01*
X-7495125Y-8424500D01*
X-7504854Y-8424118D01*
X-7713113Y-8407727D01*
X-7732331Y-8404683D01*
X-7930705Y-8357058D01*
X-7949211Y-8351045D01*
X-8137694Y-8272972D01*
X-8155031Y-8264138D01*
X-8328977Y-8157543D01*
X-8344719Y-8146106D01*
X-8499852Y-8013610D01*
X-8513610Y-7999852D01*
X-8646106Y-7844719D01*
X-8657543Y-7828977D01*
X-8764138Y-7655031D01*
X-8772972Y-7637694D01*
X-8851045Y-7449211D01*
X-8857058Y-7430705D01*
X-8904683Y-7232331D01*
X-8907727Y-7213113D01*
X-8924118Y-7004854D01*
X-8924500Y-6995125D01*
X-8924500Y-1174455D01*
X-4408500Y-1174455D01*
X-4408499Y-2575544D01*
X-4397887Y-2679426D01*
X-4342115Y-2847738D01*
X-4249030Y-2998652D01*
X-4123652Y-3124030D01*
X-3972738Y-3217115D01*
X-3804426Y-3272887D01*
X-3700545Y-3283500D01*
X-2899456Y-3283499D01*
X-2795574Y-3272887D01*
X-2627262Y-3217115D01*
X-2621114Y-3213323D01*
X-2621112Y-3213322D01*
X-2575419Y-3185137D01*
X-2476348Y-3124030D01*
X-2350970Y-2998652D01*
X-2318992Y-2946809D01*
X-2261677Y-2853887D01*
X-2261674Y-2853881D01*
X-2257885Y-2847738D01*
X-2255612Y-2840880D01*
X-2255611Y-2840877D01*
X-2204241Y-2685850D01*
X-2204239Y-2685844D01*
X-2202113Y-2679426D01*
X-2201424Y-2672686D01*
X-2191819Y-2578674D01*
X-2191818Y-2578660D01*
X-2191500Y-2575545D01*
X-2191500Y-2572414D01*
X2191500Y-2572414D01*
X2191501Y-2575544D01*
X2191819Y-2578657D01*
X2191820Y-2578676D01*
X2201424Y-2672686D01*
X2202113Y-2679426D01*
X2204244Y-2685857D01*
X2255611Y-2840877D01*
X2255612Y-2840880D01*
X2257885Y-2847738D01*
X2261674Y-2853881D01*
X2261677Y-2853887D01*
X2318992Y-2946809D01*
X2350970Y-2998652D01*
X2476348Y-3124030D01*
X2575419Y-3185137D01*
X2621112Y-3213322D01*
X2621114Y-3213323D01*
X2627262Y-3217115D01*
X2795574Y-3272887D01*
X2899455Y-3283500D01*
X3700544Y-3283499D01*
X3804426Y-3272887D01*
X3972738Y-3217115D01*
X4123652Y-3124030D01*
X4249030Y-2998652D01*
X4342115Y-2847738D01*
X4397887Y-2679426D01*
X4408500Y-2575545D01*
X4408500Y-2572414D01*
X15091500Y-2572414D01*
X15091501Y-2575544D01*
X15091819Y-2578657D01*
X15091820Y-2578676D01*
X15101424Y-2672686D01*
X15102113Y-2679426D01*
X15104244Y-2685857D01*
X15155611Y-2840877D01*
X15155612Y-2840880D01*
X15157885Y-2847738D01*
X15161674Y-2853881D01*
X15161677Y-2853887D01*
X15218992Y-2946809D01*
X15250970Y-2998652D01*
X15376348Y-3124030D01*
X15475419Y-3185137D01*
X15521112Y-3213322D01*
X15521114Y-3213323D01*
X15527262Y-3217115D01*
X15695574Y-3272887D01*
X15799455Y-3283500D01*
X16600544Y-3283499D01*
X16704426Y-3272887D01*
X16872738Y-3217115D01*
X17023652Y-3124030D01*
X17149030Y-2998652D01*
X17242115Y-2847738D01*
X17297887Y-2679426D01*
X17308500Y-2575545D01*
X17308499Y-1174456D01*
X17307682Y-1166463D01*
X17306153Y-1151494D01*
X17297887Y-1070574D01*
X17242115Y-902262D01*
X17232628Y-886882D01*
X17189845Y-817520D01*
X17149030Y-751348D01*
X17023652Y-625970D01*
X16971809Y-593992D01*
X16878887Y-536677D01*
X16878881Y-536674D01*
X16872738Y-532885D01*
X16865880Y-530612D01*
X16865877Y-530611D01*
X16710850Y-479241D01*
X16710844Y-479239D01*
X16704426Y-477113D01*
X16697696Y-476425D01*
X16697694Y-476425D01*
X16603674Y-466819D01*
X16603660Y-466818D01*
X16600545Y-466500D01*
X16597397Y-466500D01*
X15802604Y-466500D01*
X15802584Y-466500D01*
X15799456Y-466501D01*
X15796343Y-466818D01*
X15796323Y-466820D01*
X15702313Y-476424D01*
X15702307Y-476425D01*
X15695574Y-477113D01*
X15689144Y-479243D01*
X15689142Y-479244D01*
X15534122Y-530611D01*
X15534115Y-530613D01*
X15527262Y-532885D01*
X15521121Y-536672D01*
X15521112Y-536677D01*
X15382497Y-622177D01*
X15376348Y-625970D01*
X15371240Y-631077D01*
X15371236Y-631081D01*
X15256081Y-746236D01*
X15256077Y-746240D01*
X15250970Y-751348D01*
X15247178Y-757495D01*
X15247177Y-757497D01*
X15161677Y-896112D01*
X15161672Y-896121D01*
X15157885Y-902262D01*
X15155613Y-909115D01*
X15155611Y-909122D01*
X15104241Y-1064149D01*
X15104241Y-1064151D01*
X15102113Y-1070574D01*
X15101425Y-1077302D01*
X15101425Y-1077305D01*
X15091819Y-1171325D01*
X15091818Y-1171340D01*
X15091500Y-1174455D01*
X15091500Y-1177601D01*
X15091500Y-1177602D01*
X15091500Y-2572395D01*
X15091500Y-2572414D01*
X4408500Y-2572414D01*
X4408499Y-1174456D01*
X4407682Y-1166463D01*
X4406153Y-1151494D01*
X4397887Y-1070574D01*
X4342115Y-902262D01*
X4332628Y-886882D01*
X4289845Y-817520D01*
X4249030Y-751348D01*
X4123652Y-625970D01*
X4071809Y-593992D01*
X3978887Y-536677D01*
X3978881Y-536674D01*
X3972738Y-532885D01*
X3965880Y-530612D01*
X3965877Y-530611D01*
X3810850Y-479241D01*
X3810844Y-479239D01*
X3804426Y-477113D01*
X3797696Y-476425D01*
X3797694Y-476425D01*
X3703674Y-466819D01*
X3703660Y-466818D01*
X3700545Y-466500D01*
X3697397Y-466500D01*
X2902604Y-466500D01*
X2902584Y-466500D01*
X2899456Y-466501D01*
X2896343Y-466818D01*
X2896323Y-466820D01*
X2802313Y-476424D01*
X2802307Y-476425D01*
X2795574Y-477113D01*
X2789144Y-479243D01*
X2789142Y-479244D01*
X2634122Y-530611D01*
X2634115Y-530613D01*
X2627262Y-532885D01*
X2621121Y-536672D01*
X2621112Y-536677D01*
X2482497Y-622177D01*
X2476348Y-625970D01*
X2471240Y-631077D01*
X2471236Y-631081D01*
X2356081Y-746236D01*
X2356077Y-746240D01*
X2350970Y-751348D01*
X2347178Y-757495D01*
X2347177Y-757497D01*
X2261677Y-896112D01*
X2261672Y-896121D01*
X2257885Y-902262D01*
X2255613Y-909115D01*
X2255611Y-909122D01*
X2204241Y-1064149D01*
X2204241Y-1064151D01*
X2202113Y-1070574D01*
X2201425Y-1077302D01*
X2201425Y-1077305D01*
X2191819Y-1171325D01*
X2191818Y-1171340D01*
X2191500Y-1174455D01*
X2191500Y-1177601D01*
X2191500Y-1177602D01*
X2191500Y-2572395D01*
X2191500Y-2572414D01*
X-2191500Y-2572414D01*
X-2191500Y-1894208D01*
X-2191500Y-1177604D01*
X-2191500Y-1177584D01*
X-2191501Y-1174456D01*
X-2191818Y-1171343D01*
X-2191820Y-1171323D01*
X-2201424Y-1077313D01*
X-2201425Y-1077307D01*
X-2202113Y-1070574D01*
X-2204244Y-1064142D01*
X-2255611Y-909122D01*
X-2255613Y-909115D01*
X-2257885Y-902262D01*
X-2261672Y-896121D01*
X-2261677Y-896112D01*
X-2347177Y-757497D01*
X-2347178Y-757495D01*
X-2350970Y-751348D01*
X-2356077Y-746240D01*
X-2356081Y-746236D01*
X-2471236Y-631081D01*
X-2471240Y-631077D01*
X-2476348Y-625970D01*
X-2482497Y-622177D01*
X-2621112Y-536677D01*
X-2621121Y-536672D01*
X-2627262Y-532885D01*
X-2634115Y-530613D01*
X-2634122Y-530611D01*
X-2789149Y-479241D01*
X-2789157Y-479239D01*
X-2795574Y-477113D01*
X-2802302Y-476425D01*
X-2802305Y-476425D01*
X-2896325Y-466819D01*
X-2896340Y-466818D01*
X-2899455Y-466500D01*
X-2902601Y-466500D01*
X-2902602Y-466500D01*
X-3697395Y-466500D01*
X-3697414Y-466500D01*
X-3700544Y-466501D01*
X-3703657Y-466819D01*
X-3703676Y-466820D01*
X-3797686Y-476424D01*
X-3797690Y-476424D01*
X-3804426Y-477113D01*
X-3810857Y-479244D01*
X-3965877Y-530611D01*
X-3965880Y-530612D01*
X-3972738Y-532885D01*
X-3978881Y-536674D01*
X-3978887Y-536677D01*
X-4071809Y-593992D01*
X-4123652Y-625970D01*
X-4249030Y-751348D01*
X-4289845Y-817520D01*
X-4332628Y-886882D01*
X-4342115Y-902262D01*
X-4397887Y-1070574D01*
X-4408500Y-1174455D01*
X-8924500Y-1174455D01*
X-8924500Y17052645D01*
X-6605157Y17052645D01*
X-6595148Y16842541D01*
X-6545558Y16638129D01*
X-6543102Y16632751D01*
X-6498580Y16535260D01*
X-6458179Y16446795D01*
X-6336169Y16275456D01*
X-6183937Y16130303D01*
X-6006986Y16016584D01*
X-5811712Y15938407D01*
X-5805908Y15937288D01*
X-5805907Y15937288D01*
X-5610968Y15899717D01*
X-5610965Y15899716D01*
X-5605171Y15898600D01*
X-5450486Y15898600D01*
X-5447532Y15898600D01*
X-5444603Y15898879D01*
X-5444596Y15898880D01*
X-5296491Y15913022D01*
X-5296485Y15913023D01*
X-5290611Y15913584D01*
X-5284943Y15915248D01*
X-5284939Y15915249D01*
X-5094454Y15971180D01*
X-5094448Y15971182D01*
X-5088789Y15972844D01*
X-5083544Y15975547D01*
X-5083539Y15975550D01*
X-4907079Y16066522D01*
X-4907071Y16066526D01*
X-4901830Y16069229D01*
X-4897187Y16072880D01*
X-4741135Y16195599D01*
X-4741128Y16195605D01*
X-4736490Y16199253D01*
X-4732626Y16203711D01*
X-4732621Y16203717D01*
X-4602611Y16353756D01*
X-4602605Y16353763D01*
X-4598745Y16358219D01*
X-4548652Y16444982D01*
X-4496530Y16535260D01*
X-4496527Y16535264D01*
X-4493574Y16540381D01*
X-4491643Y16545960D01*
X-4491639Y16545969D01*
X-4426709Y16733572D01*
X-4426706Y16733581D01*
X-4424778Y16739154D01*
X-4423938Y16744990D01*
X-4423937Y16744998D01*
X-4401404Y16901717D01*
X-4394843Y16947355D01*
X-4395123Y16953239D01*
X-4395123Y16953246D01*
X-4404571Y17151561D01*
X-4404852Y17157459D01*
X-4428516Y17255001D01*
X-4453049Y17356130D01*
X-4453049Y17356132D01*
X-4454442Y17361871D01*
X-4456895Y17367242D01*
X-4456897Y17367248D01*
X-4539363Y17547824D01*
X-4539365Y17547828D01*
X-4541821Y17553205D01*
X-4565399Y17586315D01*
X-4660400Y17719726D01*
X-4663831Y17724544D01*
X-4816063Y17869697D01*
X-4993014Y17983416D01*
X-5188288Y18061593D01*
X-5394829Y18101400D01*
X-5552468Y18101400D01*
X-5709389Y18086416D01*
X-5911211Y18027156D01*
X-6098170Y17930771D01*
X-6263510Y17800747D01*
X-6401255Y17641781D01*
X-6506426Y17459619D01*
X-6575222Y17260846D01*
X-6605157Y17052645D01*
X-8924500Y17052645D01*
X-8924500Y21601362D01*
X-5083500Y21601362D01*
X-5076989Y21540799D01*
X-5025889Y21403796D01*
X-4938261Y21286739D01*
X-4931164Y21281426D01*
X-4919347Y21272580D01*
X-4821204Y21199111D01*
X-4812896Y21196012D01*
X-4812894Y21196011D01*
X-4691463Y21150719D01*
X-4691458Y21150717D01*
X-4684201Y21148011D01*
X-4676497Y21147182D01*
X-4676494Y21147182D01*
X-4626924Y21141853D01*
X-4626918Y21141852D01*
X-4623638Y21141500D01*
X-4032500Y21141500D01*
X-3970500Y21124887D01*
X-3925113Y21079500D01*
X-3908500Y21017500D01*
X-3908500Y17398847D01*
X-3909031Y17387563D01*
X-3910702Y17380092D01*
X-3908561Y17311984D01*
X-3908500Y17308088D01*
X-3908500Y17280145D01*
X-3907982Y17276050D01*
X-3907064Y17264393D01*
X-3905673Y17220112D01*
X-3901551Y17205927D01*
X-3899979Y17200513D01*
X-3896032Y17181456D01*
X-3893474Y17161204D01*
X-3877159Y17119999D01*
X-3873379Y17108956D01*
X-3861018Y17066408D01*
X-3850619Y17048825D01*
X-3842070Y17031372D01*
X-3834552Y17012384D01*
X-3808503Y16976531D01*
X-3802098Y16966780D01*
X-3779542Y16928639D01*
X-3774024Y16923121D01*
X-3765107Y16914204D01*
X-3752470Y16899408D01*
X-3740472Y16882894D01*
X-3734460Y16877921D01*
X-3734457Y16877917D01*
X-3706325Y16854644D01*
X-3697685Y16846782D01*
X-858694Y14007790D01*
X-851102Y13999448D01*
X-846999Y13992982D01*
X-797315Y13946326D01*
X-794549Y13943645D01*
X-774769Y13923865D01*
X-771688Y13921474D01*
X-771686Y13921473D01*
X-771485Y13921317D01*
X-762623Y13913746D01*
X-736008Y13888754D01*
X-736002Y13888749D01*
X-730320Y13883414D01*
X-723487Y13879658D01*
X-723481Y13879653D01*
X-712428Y13873576D01*
X-696173Y13862899D01*
X-686208Y13855170D01*
X-686205Y13855168D01*
X-680040Y13850386D01*
X-672878Y13847287D01*
X-639375Y13832789D01*
X-628884Y13827649D01*
X-590059Y13806305D01*
X-582503Y13804365D01*
X-570285Y13801228D01*
X-551880Y13794926D01*
X-540308Y13789918D01*
X-540300Y13789915D01*
X-533144Y13786819D01*
X-525439Y13785598D01*
X-525437Y13785598D01*
X-489380Y13779887D01*
X-477954Y13777521D01*
X-435029Y13766500D01*
X-414614Y13766500D01*
X-395216Y13764973D01*
X-375056Y13761780D01*
X-367290Y13762514D01*
X-367287Y13762514D01*
X-330941Y13765950D01*
X-319272Y13766500D01*
X2114961Y13766500D01*
X2170465Y13753384D01*
X2214226Y13716812D01*
X2236739Y13686739D01*
X2243835Y13681426D01*
X2243836Y13681426D01*
X2346695Y13604426D01*
X2346698Y13604423D01*
X2353796Y13599111D01*
X2362104Y13596012D01*
X2369890Y13591761D01*
X2368494Y13589205D01*
X2405111Y13563733D01*
X2432516Y13508898D01*
X2430304Y13447637D01*
X2399018Y13394923D01*
X-392217Y10603686D01*
X-400552Y10596102D01*
X-407018Y10592000D01*
X-453691Y10542296D01*
X-456308Y10539595D01*
X-476135Y10519770D01*
X-478658Y10516517D01*
X-486251Y10507624D01*
X-516586Y10475321D01*
X-526423Y10457425D01*
X-537096Y10441177D01*
X-549614Y10425041D01*
X-567215Y10384364D01*
X-572348Y10373887D01*
X-593695Y10335060D01*
X-598774Y10315273D01*
X-605070Y10296885D01*
X-613181Y10278145D01*
X-620111Y10234385D01*
X-622481Y10222942D01*
X-633500Y10180030D01*
X-633500Y10172229D01*
X-633500Y10159615D01*
X-635027Y10140217D01*
X-638220Y10120057D01*
X-635709Y10093492D01*
X-634050Y10075942D01*
X-633500Y10064273D01*
X-633500Y3405838D01*
X-651772Y3341049D01*
X-701203Y3295354D01*
X-767226Y3282220D01*
X-781055Y3283308D01*
X-781062Y3283308D01*
X-783498Y3283500D01*
X-1216502Y3283500D01*
X-1253831Y3280562D01*
X-1413601Y3234145D01*
X-1436876Y3220379D01*
X-1500000Y3203110D01*
X-1563123Y3220379D01*
X-1586399Y3234145D01*
X-1746169Y3280562D01*
X-1783498Y3283500D01*
X-2216502Y3283500D01*
X-2253831Y3280562D01*
X-2413601Y3234145D01*
X-2556807Y3149453D01*
X-2674453Y3031807D01*
X-2759145Y2888601D01*
X-2805562Y2728831D01*
X-2808500Y2691502D01*
X-2808500Y1308498D01*
X-2805562Y1271169D01*
X-2759145Y1111399D01*
X-2674453Y968193D01*
X-2556807Y850547D01*
X-2550089Y846574D01*
X-2420318Y769827D01*
X-2420315Y769825D01*
X-2413601Y765855D01*
X-2406108Y763678D01*
X-2295600Y731572D01*
X-2253831Y719438D01*
X-2247521Y718941D01*
X-2247514Y718940D01*
X-2218936Y716691D01*
X-2218921Y716690D01*
X-2216502Y716500D01*
X-1785943Y716500D01*
X-1783498Y716500D01*
X-1781079Y716690D01*
X-1781063Y716691D01*
X-1752485Y718940D01*
X-1752476Y718941D01*
X-1746169Y719438D01*
X-1740088Y721204D01*
X-1740086Y721205D01*
X-1593888Y763679D01*
X-1593886Y763679D01*
X-1586399Y765855D01*
X-1579686Y769824D01*
X-1579681Y769827D01*
X-1563117Y779623D01*
X-1499999Y796889D01*
X-1436881Y779622D01*
X-1420321Y769828D01*
X-1420313Y769824D01*
X-1413601Y765855D01*
X-1406108Y763678D01*
X-1295600Y731572D01*
X-1253831Y719438D01*
X-1247521Y718941D01*
X-1247514Y718940D01*
X-1218936Y716691D01*
X-1218921Y716690D01*
X-1216502Y716500D01*
X-785943Y716500D01*
X-783498Y716500D01*
X-781079Y716690D01*
X-781063Y716691D01*
X-752485Y718940D01*
X-752476Y718941D01*
X-746169Y719438D01*
X-740088Y721204D01*
X-740086Y721205D01*
X-593891Y763678D01*
X-593888Y763679D01*
X-586399Y765855D01*
X-579689Y769823D01*
X-579678Y769828D01*
X-563119Y779622D01*
X-500000Y796889D01*
X-436881Y779622D01*
X-420321Y769828D01*
X-420313Y769824D01*
X-413601Y765855D01*
X-406108Y763678D01*
X-295600Y731572D01*
X-253831Y719438D01*
X-247521Y718941D01*
X-247514Y718940D01*
X-218936Y716691D01*
X-218921Y716690D01*
X-216502Y716500D01*
X214057Y716500D01*
X216502Y716500D01*
X218921Y716690D01*
X218936Y716691D01*
X247514Y718940D01*
X247521Y718941D01*
X253831Y719438D01*
X295600Y731572D01*
X406108Y763678D01*
X413601Y765855D01*
X420313Y769824D01*
X420321Y769828D01*
X436881Y779622D01*
X500000Y796889D01*
X563119Y779622D01*
X579678Y769828D01*
X579689Y769823D01*
X586399Y765855D01*
X593888Y763679D01*
X593891Y763678D01*
X740086Y721205D01*
X740088Y721204D01*
X746169Y719438D01*
X752476Y718941D01*
X752485Y718940D01*
X781063Y716691D01*
X781079Y716690D01*
X783498Y716500D01*
X1214057Y716500D01*
X1216502Y716500D01*
X1218921Y716690D01*
X1218936Y716691D01*
X1247514Y718940D01*
X1247521Y718941D01*
X1253831Y719438D01*
X1295600Y731572D01*
X1406108Y763678D01*
X1413601Y765855D01*
X1420313Y769824D01*
X1420321Y769828D01*
X1436881Y779622D01*
X1500000Y796889D01*
X1563119Y779622D01*
X1579678Y769828D01*
X1579689Y769823D01*
X1586399Y765855D01*
X1593888Y763679D01*
X1593891Y763678D01*
X1740086Y721205D01*
X1740088Y721204D01*
X1746169Y719438D01*
X1752476Y718941D01*
X1752485Y718940D01*
X1781063Y716691D01*
X1781079Y716690D01*
X1783498Y716500D01*
X2214057Y716500D01*
X2216502Y716500D01*
X2218921Y716690D01*
X2218936Y716691D01*
X2247514Y718940D01*
X2247521Y718941D01*
X2253831Y719438D01*
X2295600Y731572D01*
X2406108Y763678D01*
X2413601Y765855D01*
X2420315Y769825D01*
X2420318Y769827D01*
X2550089Y846574D01*
X2556807Y850547D01*
X2674453Y968193D01*
X2759145Y1111399D01*
X2805562Y1271169D01*
X2808500Y1308498D01*
X16691500Y1308498D01*
X16691690Y1306079D01*
X16691691Y1306063D01*
X16693940Y1277485D01*
X16693941Y1277476D01*
X16694438Y1271169D01*
X16696204Y1265088D01*
X16696205Y1265086D01*
X16737689Y1122294D01*
X16740855Y1111399D01*
X16744824Y1104687D01*
X16744827Y1104681D01*
X16821574Y974910D01*
X16821576Y974906D01*
X16825547Y968193D01*
X16831061Y962678D01*
X16831065Y962674D01*
X16937672Y856067D01*
X16937675Y856065D01*
X16943193Y850547D01*
X16949908Y846575D01*
X16949914Y846571D01*
X16961625Y839645D01*
X16994000Y811103D01*
X16995458Y808638D01*
X17000966Y803128D01*
X17000973Y803121D01*
X17009897Y794197D01*
X17022523Y779414D01*
X17029940Y769206D01*
X17029944Y769200D01*
X17034528Y762893D01*
X17040530Y757926D01*
X17040542Y757915D01*
X17068673Y734643D01*
X17077311Y726783D01*
X18690977Y-886882D01*
X18723953Y-945965D01*
X18721003Y-1013564D01*
X18704244Y-1064142D01*
X18702113Y-1070574D01*
X18701425Y-1077302D01*
X18701425Y-1077305D01*
X18691819Y-1171325D01*
X18691818Y-1171340D01*
X18691500Y-1174455D01*
X18691500Y-1177601D01*
X18691500Y-1177602D01*
X18691500Y-2572395D01*
X18691500Y-2572414D01*
X18691501Y-2575544D01*
X18691819Y-2578657D01*
X18691820Y-2578676D01*
X18701424Y-2672686D01*
X18702113Y-2679426D01*
X18704244Y-2685857D01*
X18755611Y-2840877D01*
X18755612Y-2840880D01*
X18757885Y-2847738D01*
X18761674Y-2853881D01*
X18761677Y-2853887D01*
X18818992Y-2946809D01*
X18850970Y-2998652D01*
X18976348Y-3124030D01*
X19075419Y-3185137D01*
X19121112Y-3213322D01*
X19121114Y-3213323D01*
X19127262Y-3217115D01*
X19295574Y-3272887D01*
X19399455Y-3283500D01*
X20200544Y-3283499D01*
X20304426Y-3272887D01*
X20472738Y-3217115D01*
X20623652Y-3124030D01*
X20749030Y-2998652D01*
X20842115Y-2847738D01*
X20897887Y-2679426D01*
X20908500Y-2575545D01*
X20908499Y-1407499D01*
X20925112Y-1345500D01*
X20970499Y-1300113D01*
X21032499Y-1283500D01*
X33015531Y-1283500D01*
X33071036Y-1296616D01*
X33114798Y-1333190D01*
X33169424Y-1406162D01*
X33169426Y-1406164D01*
X33174739Y-1413261D01*
X33177179Y-1415088D01*
X33207675Y-1467906D01*
X33207675Y-1532094D01*
X33177179Y-1584911D01*
X33174739Y-1586739D01*
X33169429Y-1593831D01*
X33169426Y-1593835D01*
X33092426Y-1696695D01*
X33092423Y-1696698D01*
X33087111Y-1703796D01*
X33084013Y-1712099D01*
X33084011Y-1712105D01*
X33038719Y-1833536D01*
X33038717Y-1833543D01*
X33036011Y-1840799D01*
X33035182Y-1848500D01*
X33035182Y-1848505D01*
X33030269Y-1894208D01*
X33029500Y-1901362D01*
X33029500Y-2598638D01*
X33036011Y-2659201D01*
X33038717Y-2666458D01*
X33038719Y-2666463D01*
X33084011Y-2787894D01*
X33087111Y-2796204D01*
X33174739Y-2913261D01*
X33291796Y-3000889D01*
X33428799Y-3051989D01*
X33489362Y-3058500D01*
X34417500Y-3058500D01*
X34479500Y-3075113D01*
X34524887Y-3120500D01*
X34541500Y-3182500D01*
X34541500Y-4248638D01*
X34548011Y-4309201D01*
X34550717Y-4316458D01*
X34550719Y-4316463D01*
X34596011Y-4437894D01*
X34599111Y-4446204D01*
X34686739Y-4563261D01*
X34803796Y-4650889D01*
X34940799Y-4701989D01*
X35001362Y-4708500D01*
X35795328Y-4708500D01*
X35798638Y-4708500D01*
X35859201Y-4701989D01*
X35996204Y-4650889D01*
X36113261Y-4563261D01*
X36200889Y-4446204D01*
X36251989Y-4309201D01*
X36258500Y-4248638D01*
X36841500Y-4248638D01*
X36848011Y-4309201D01*
X36850717Y-4316458D01*
X36850719Y-4316463D01*
X36896011Y-4437894D01*
X36899111Y-4446204D01*
X36986739Y-4563261D01*
X37103796Y-4650889D01*
X37240799Y-4701989D01*
X37301362Y-4708500D01*
X38095328Y-4708500D01*
X38098638Y-4708500D01*
X38159201Y-4701989D01*
X38296204Y-4650889D01*
X38413261Y-4563261D01*
X38500889Y-4446204D01*
X38551989Y-4309201D01*
X38558500Y-4248638D01*
X38558500Y-2951362D01*
X38551989Y-2890799D01*
X38500889Y-2753796D01*
X38413261Y-2636739D01*
X38335695Y-2578674D01*
X38303304Y-2554426D01*
X38303303Y-2554425D01*
X38296204Y-2549111D01*
X38287896Y-2546012D01*
X38287894Y-2546011D01*
X38166463Y-2500719D01*
X38166458Y-2500717D01*
X38159201Y-2498011D01*
X38151497Y-2497182D01*
X38151494Y-2497182D01*
X38101924Y-2491853D01*
X38101918Y-2491852D01*
X38098638Y-2491500D01*
X37301362Y-2491500D01*
X37298082Y-2491852D01*
X37298075Y-2491853D01*
X37248505Y-2497182D01*
X37248500Y-2497182D01*
X37240799Y-2498011D01*
X37233543Y-2500717D01*
X37233536Y-2500719D01*
X37112105Y-2546011D01*
X37112099Y-2546013D01*
X37103796Y-2549111D01*
X37096698Y-2554423D01*
X37096695Y-2554426D01*
X36993835Y-2631426D01*
X36993831Y-2631429D01*
X36986739Y-2636739D01*
X36981429Y-2643831D01*
X36981426Y-2643835D01*
X36904426Y-2746695D01*
X36904423Y-2746698D01*
X36899111Y-2753796D01*
X36896013Y-2762099D01*
X36896011Y-2762105D01*
X36850719Y-2883536D01*
X36850717Y-2883543D01*
X36848011Y-2890799D01*
X36847182Y-2898500D01*
X36847182Y-2898505D01*
X36846359Y-2906164D01*
X36841500Y-2951362D01*
X36841500Y-4248638D01*
X36258500Y-4248638D01*
X36258500Y-2951362D01*
X36251989Y-2890799D01*
X36200889Y-2753796D01*
X36113261Y-2636739D01*
X36035695Y-2578674D01*
X36003304Y-2554426D01*
X36003303Y-2554425D01*
X35996204Y-2549111D01*
X35987896Y-2546012D01*
X35987894Y-2546011D01*
X35866463Y-2500719D01*
X35866458Y-2500717D01*
X35859201Y-2498011D01*
X35851497Y-2497182D01*
X35851494Y-2497182D01*
X35801924Y-2491853D01*
X35801918Y-2491852D01*
X35798638Y-2491500D01*
X35795328Y-2491500D01*
X35694500Y-2491500D01*
X35632500Y-2474887D01*
X35587113Y-2429500D01*
X35570500Y-2367500D01*
X35570500Y-1904672D01*
X35570500Y-1901362D01*
X35563989Y-1840799D01*
X35512889Y-1703796D01*
X35425261Y-1586739D01*
X35423013Y-1585056D01*
X35849500Y-1585056D01*
X35851293Y-1592332D01*
X35851294Y-1592337D01*
X35877016Y-1696695D01*
X35890210Y-1750225D01*
X35893693Y-1756862D01*
X35893695Y-1756866D01*
X35933935Y-1833536D01*
X35969266Y-1900852D01*
X36082071Y-2028183D01*
X36222070Y-2124818D01*
X36381128Y-2185140D01*
X36507628Y-2200500D01*
X36588623Y-2200500D01*
X36592372Y-2200500D01*
X36718872Y-2185140D01*
X36877930Y-2124818D01*
X37017929Y-2028183D01*
X37130734Y-1900852D01*
X37209790Y-1750225D01*
X37250500Y-1585056D01*
X37250500Y-1414944D01*
X37209790Y-1249775D01*
X37130734Y-1099148D01*
X37017929Y-971817D01*
X37011760Y-967558D01*
X37011758Y-967557D01*
X36884106Y-879445D01*
X36884105Y-879444D01*
X36877930Y-875182D01*
X36870915Y-872521D01*
X36870912Y-872520D01*
X36725888Y-817520D01*
X36725882Y-817518D01*
X36718872Y-814860D01*
X36711427Y-813956D01*
X36711423Y-813955D01*
X36596092Y-799951D01*
X36596080Y-799950D01*
X36592372Y-799500D01*
X36507628Y-799500D01*
X36503920Y-799950D01*
X36503907Y-799951D01*
X36388576Y-813955D01*
X36388570Y-813956D01*
X36381128Y-814860D01*
X36374119Y-817517D01*
X36374111Y-817520D01*
X36229087Y-872520D01*
X36229081Y-872523D01*
X36222070Y-875182D01*
X36215897Y-879442D01*
X36215893Y-879445D01*
X36088241Y-967557D01*
X36088235Y-967562D01*
X36082071Y-971817D01*
X36077099Y-977428D01*
X36077098Y-977430D01*
X35974241Y-1093531D01*
X35974236Y-1093537D01*
X35969266Y-1099148D01*
X35965780Y-1105788D01*
X35965779Y-1105791D01*
X35893695Y-1243133D01*
X35893692Y-1243140D01*
X35890210Y-1249775D01*
X35888416Y-1257050D01*
X35888415Y-1257055D01*
X35851294Y-1407662D01*
X35851293Y-1407668D01*
X35849500Y-1414944D01*
X35849500Y-1585056D01*
X35423013Y-1585056D01*
X35422819Y-1584911D01*
X35392323Y-1532089D01*
X35392326Y-1467899D01*
X35422822Y-1415086D01*
X35425261Y-1413261D01*
X35512889Y-1296204D01*
X35563989Y-1159201D01*
X35570500Y-1098638D01*
X35570500Y-401362D01*
X35563989Y-340799D01*
X35512889Y-203796D01*
X35425261Y-86739D01*
X35308204Y889D01*
X35171201Y51989D01*
X35110638Y58500D01*
X33489362Y58500D01*
X33428799Y51989D01*
X33291796Y889D01*
X33288036Y-1924D01*
X33230935Y-16500D01*
X19663766Y-16500D01*
X19616313Y-7061D01*
X19576085Y19819D01*
X19537404Y58500D01*
X18967924Y627978D01*
X18938295Y675487D01*
X18932588Y731194D01*
X18951970Y783732D01*
X18992489Y822385D01*
X19044839Y853344D01*
X19057074Y862835D01*
X19162164Y967925D01*
X19171655Y980161D01*
X19247310Y1108087D01*
X19253458Y1122294D01*
X19295331Y1266420D01*
X19297597Y1278826D01*
X19299808Y1306923D01*
X19300000Y1311803D01*
X19300000Y1414944D01*
X35849500Y1414944D01*
X35851293Y1407668D01*
X35851294Y1407662D01*
X35888415Y1257055D01*
X35888416Y1257050D01*
X35890210Y1249775D01*
X35893692Y1243140D01*
X35893695Y1243133D01*
X35962836Y1111399D01*
X35969266Y1099148D01*
X35974236Y1093537D01*
X35974241Y1093531D01*
X36074679Y980161D01*
X36082071Y971817D01*
X36088235Y967562D01*
X36088241Y967557D01*
X36215893Y879445D01*
X36215897Y879442D01*
X36222070Y875182D01*
X36229081Y872523D01*
X36229087Y872520D01*
X36374111Y817520D01*
X36374119Y817517D01*
X36381128Y814860D01*
X36388570Y813956D01*
X36388576Y813955D01*
X36503907Y799951D01*
X36503920Y799950D01*
X36507628Y799500D01*
X36588623Y799500D01*
X36592372Y799500D01*
X36596080Y799950D01*
X36596092Y799951D01*
X36711423Y813955D01*
X36711427Y813956D01*
X36718872Y814860D01*
X36725882Y817518D01*
X36725888Y817520D01*
X36870912Y872520D01*
X36870915Y872521D01*
X36877930Y875182D01*
X36884106Y879445D01*
X37011758Y967557D01*
X37011760Y967558D01*
X37017929Y971817D01*
X37130734Y1099148D01*
X37209790Y1249775D01*
X37250500Y1414944D01*
X37250500Y1585056D01*
X37209790Y1750225D01*
X37130734Y1900852D01*
X37017929Y2028183D01*
X36877930Y2124818D01*
X36718872Y2185140D01*
X36592372Y2200500D01*
X36507628Y2200500D01*
X36381128Y2185140D01*
X36222070Y2124818D01*
X36082071Y2028183D01*
X35969266Y1900852D01*
X35965779Y1894208D01*
X35893695Y1756866D01*
X35893693Y1756862D01*
X35890210Y1750225D01*
X35888416Y1742947D01*
X35888415Y1742944D01*
X35851294Y1592337D01*
X35851293Y1592332D01*
X35849500Y1585056D01*
X35849500Y1414944D01*
X19300000Y1414944D01*
X19300000Y1733674D01*
X19296549Y1746549D01*
X19283674Y1750000D01*
X18432500Y1750000D01*
X18370500Y1766613D01*
X18325113Y1812000D01*
X18308500Y1874000D01*
X18308500Y1901362D01*
X33029500Y1901362D01*
X33029852Y1898082D01*
X33029853Y1898075D01*
X33035182Y1848505D01*
X33035182Y1848500D01*
X33036011Y1840799D01*
X33038717Y1833543D01*
X33038719Y1833536D01*
X33084011Y1712105D01*
X33084013Y1712099D01*
X33087111Y1703796D01*
X33092423Y1696698D01*
X33092426Y1696695D01*
X33169426Y1593835D01*
X33169429Y1593831D01*
X33174739Y1586739D01*
X33181831Y1581429D01*
X33181835Y1581426D01*
X33284695Y1504426D01*
X33284698Y1504423D01*
X33291796Y1499111D01*
X33300099Y1496013D01*
X33300105Y1496011D01*
X33421536Y1450719D01*
X33421543Y1450717D01*
X33428799Y1448011D01*
X33436500Y1447182D01*
X33436505Y1447182D01*
X33486075Y1441853D01*
X33486082Y1441852D01*
X33489362Y1441500D01*
X35107328Y1441500D01*
X35110638Y1441500D01*
X35113918Y1441852D01*
X35113924Y1441853D01*
X35163494Y1447182D01*
X35163497Y1447182D01*
X35171201Y1448011D01*
X35178458Y1450717D01*
X35178463Y1450719D01*
X35299894Y1496011D01*
X35299896Y1496012D01*
X35308204Y1499111D01*
X35425261Y1586739D01*
X35512889Y1703796D01*
X35563989Y1840799D01*
X35570500Y1901362D01*
X35570500Y2367500D01*
X35587113Y2429500D01*
X35632500Y2474887D01*
X35694500Y2491500D01*
X35795328Y2491500D01*
X35798638Y2491500D01*
X35801918Y2491852D01*
X35801924Y2491853D01*
X35851494Y2497182D01*
X35851497Y2497182D01*
X35859201Y2498011D01*
X35866458Y2500717D01*
X35866463Y2500719D01*
X35987894Y2546011D01*
X35987896Y2546012D01*
X35996204Y2549111D01*
X36113261Y2636739D01*
X36200889Y2753796D01*
X36251989Y2890799D01*
X36258500Y2951362D01*
X36841500Y2951362D01*
X36841852Y2948082D01*
X36841853Y2948075D01*
X36847182Y2898505D01*
X36847182Y2898500D01*
X36848011Y2890799D01*
X36850717Y2883543D01*
X36850719Y2883536D01*
X36896011Y2762105D01*
X36896013Y2762099D01*
X36899111Y2753796D01*
X36904423Y2746698D01*
X36904426Y2746695D01*
X36981426Y2643835D01*
X36981429Y2643831D01*
X36986739Y2636739D01*
X36993831Y2631429D01*
X36993835Y2631426D01*
X37096695Y2554426D01*
X37096698Y2554423D01*
X37103796Y2549111D01*
X37112099Y2546013D01*
X37112105Y2546011D01*
X37233536Y2500719D01*
X37233543Y2500717D01*
X37240799Y2498011D01*
X37248500Y2497182D01*
X37248505Y2497182D01*
X37298075Y2491853D01*
X37298082Y2491852D01*
X37301362Y2491500D01*
X38095328Y2491500D01*
X38098638Y2491500D01*
X38101918Y2491852D01*
X38101924Y2491853D01*
X38151494Y2497182D01*
X38151497Y2497182D01*
X38159201Y2498011D01*
X38166458Y2500717D01*
X38166463Y2500719D01*
X38287894Y2546011D01*
X38287896Y2546012D01*
X38296204Y2549111D01*
X38413261Y2636739D01*
X38500889Y2753796D01*
X38551989Y2890799D01*
X38558500Y2951362D01*
X38558500Y4248638D01*
X38551989Y4309201D01*
X38500889Y4446204D01*
X38413261Y4563261D01*
X38296204Y4650889D01*
X38159201Y4701989D01*
X38098638Y4708500D01*
X37301362Y4708500D01*
X37240799Y4701989D01*
X37103796Y4650889D01*
X36986739Y4563261D01*
X36899111Y4446204D01*
X36896012Y4437896D01*
X36896011Y4437894D01*
X36850719Y4316463D01*
X36850717Y4316458D01*
X36848011Y4309201D01*
X36841500Y4248638D01*
X36841500Y2951362D01*
X36258500Y2951362D01*
X36258500Y4248638D01*
X36251989Y4309201D01*
X36200889Y4446204D01*
X36113261Y4563261D01*
X35996204Y4650889D01*
X35859201Y4701989D01*
X35798638Y4708500D01*
X35001362Y4708500D01*
X34940799Y4701989D01*
X34803796Y4650889D01*
X34686739Y4563261D01*
X34599111Y4446204D01*
X34596012Y4437896D01*
X34596011Y4437894D01*
X34550719Y4316463D01*
X34550717Y4316458D01*
X34548011Y4309201D01*
X34541500Y4248638D01*
X34541500Y4245328D01*
X34541500Y3182500D01*
X34524887Y3120500D01*
X34479500Y3075113D01*
X34417500Y3058500D01*
X33489362Y3058500D01*
X33428799Y3051989D01*
X33291796Y3000889D01*
X33174739Y2913261D01*
X33169426Y2906164D01*
X33148122Y2877705D01*
X33087111Y2796204D01*
X33084012Y2787896D01*
X33084011Y2787894D01*
X33038719Y2666463D01*
X33038717Y2666458D01*
X33036011Y2659201D01*
X33029500Y2598638D01*
X33029500Y1901362D01*
X18308500Y1901362D01*
X18308500Y2266326D01*
X18750000Y2266326D01*
X18753450Y2253450D01*
X18766326Y2250000D01*
X19283674Y2250000D01*
X19296549Y2253450D01*
X19300000Y2266326D01*
X19300000Y2688197D01*
X19299808Y2693076D01*
X19297597Y2721173D01*
X19295331Y2733579D01*
X19253458Y2877705D01*
X19247310Y2891912D01*
X19171655Y3019838D01*
X19162164Y3032074D01*
X19057074Y3137164D01*
X19044838Y3146655D01*
X18916912Y3222310D01*
X18902705Y3228458D01*
X18760776Y3269692D01*
X18753706Y3268286D01*
X18750000Y3255144D01*
X18750000Y2266326D01*
X18308500Y2266326D01*
X18308500Y2689057D01*
X18308500Y2691502D01*
X18305562Y2728831D01*
X18259145Y2888601D01*
X18259183Y2888612D01*
X18250000Y2932951D01*
X18250000Y3255144D01*
X18246293Y3268286D01*
X18239223Y3269692D01*
X18097297Y3228459D01*
X18083084Y3222309D01*
X18071471Y3215441D01*
X18008348Y3198172D01*
X17945228Y3215441D01*
X17913601Y3234145D01*
X17753831Y3280562D01*
X17716502Y3283500D01*
X17283498Y3283500D01*
X17246169Y3280562D01*
X17086399Y3234145D01*
X17079681Y3230172D01*
X17076783Y3228458D01*
X16943193Y3149453D01*
X16825547Y3031807D01*
X16821574Y3025089D01*
X16751242Y2906164D01*
X16740855Y2888601D01*
X16694438Y2728831D01*
X16693941Y2722521D01*
X16693940Y2722514D01*
X16691691Y2693936D01*
X16691690Y2693921D01*
X16691500Y2691502D01*
X16691500Y1308498D01*
X2808500Y1308498D01*
X2808500Y2691502D01*
X2805562Y2728831D01*
X2759145Y2888601D01*
X2674453Y3031807D01*
X2556807Y3149453D01*
X2413601Y3234145D01*
X2253831Y3280562D01*
X2216502Y3283500D01*
X1783498Y3283500D01*
X1746169Y3280562D01*
X1586399Y3234145D01*
X1563123Y3220379D01*
X1500000Y3203110D01*
X1436876Y3220379D01*
X1413601Y3234145D01*
X1253831Y3280562D01*
X1216502Y3283500D01*
X783498Y3283500D01*
X781062Y3283308D01*
X781055Y3283308D01*
X767226Y3282220D01*
X701203Y3295354D01*
X651772Y3341049D01*
X633500Y3405838D01*
X633500Y9786234D01*
X642939Y9833687D01*
X669819Y9873915D01*
X4301085Y13505181D01*
X4341313Y13532061D01*
X4388766Y13541500D01*
X4645328Y13541500D01*
X4648638Y13541500D01*
X4651918Y13541852D01*
X4651924Y13541853D01*
X4701494Y13547182D01*
X4701497Y13547182D01*
X4709201Y13548011D01*
X4716458Y13550717D01*
X4716463Y13550719D01*
X4837894Y13596011D01*
X4837896Y13596012D01*
X4846204Y13599111D01*
X4901647Y13640615D01*
X4956164Y13681426D01*
X4963261Y13686739D01*
X5050889Y13803796D01*
X5101989Y13940799D01*
X5108500Y14001362D01*
X5108500Y14261233D01*
X5117939Y14308686D01*
X5144819Y14348914D01*
X5251086Y14455181D01*
X5291314Y14482061D01*
X5338767Y14491500D01*
X7792500Y14491500D01*
X7854500Y14474887D01*
X7899887Y14429500D01*
X7916500Y14367500D01*
X7916500Y11901362D01*
X7916852Y11898082D01*
X7916853Y11898075D01*
X7922182Y11848505D01*
X7922182Y11848500D01*
X7923011Y11840799D01*
X7925717Y11833543D01*
X7925719Y11833536D01*
X7971011Y11712105D01*
X7971013Y11712099D01*
X7974111Y11703796D01*
X7979423Y11696698D01*
X7979426Y11696695D01*
X8056426Y11593835D01*
X8056429Y11593831D01*
X8061739Y11586739D01*
X8068831Y11581429D01*
X8068835Y11581426D01*
X8171695Y11504426D01*
X8171698Y11504423D01*
X8178796Y11499111D01*
X8187099Y11496013D01*
X8187105Y11496011D01*
X8308536Y11450719D01*
X8308543Y11450717D01*
X8315799Y11448011D01*
X8323500Y11447182D01*
X8323505Y11447182D01*
X8373075Y11441853D01*
X8373082Y11441852D01*
X8376362Y11441500D01*
X11070328Y11441500D01*
X11073638Y11441500D01*
X11076918Y11441852D01*
X11076924Y11441853D01*
X11126494Y11447182D01*
X11126497Y11447182D01*
X11134201Y11448011D01*
X11141458Y11450717D01*
X11141463Y11450719D01*
X11262894Y11496011D01*
X11262896Y11496012D01*
X11271204Y11499111D01*
X11369347Y11572580D01*
X11381164Y11581426D01*
X11388261Y11586739D01*
X11475889Y11703796D01*
X11526989Y11840799D01*
X11533500Y11901362D01*
X11533500Y11940954D01*
X11547439Y11998074D01*
X11586124Y12042351D01*
X11640855Y12063832D01*
X11699329Y12057686D01*
X11748399Y12025295D01*
X11802863Y11966595D01*
X11802872Y11966586D01*
X11806019Y11963195D01*
X11809641Y11960306D01*
X11809646Y11960302D01*
X12007516Y11802506D01*
X12007519Y11802503D01*
X12011143Y11799614D01*
X12015159Y11797295D01*
X12015161Y11797294D01*
X12234335Y11670753D01*
X12234346Y11670747D01*
X12238357Y11668432D01*
X12242670Y11666739D01*
X12242681Y11666734D01*
X12478261Y11574276D01*
X12478268Y11574273D01*
X12482584Y11572580D01*
X12487102Y11571548D01*
X12487108Y11571547D01*
X12733850Y11515229D01*
X12733858Y11515227D01*
X12738370Y11514198D01*
X12742989Y11513851D01*
X12742995Y11513851D01*
X12932191Y11499673D01*
X12932203Y11499672D01*
X12934506Y11499500D01*
X13063177Y11499500D01*
X13065494Y11499500D01*
X13067797Y11499672D01*
X13067808Y11499673D01*
X13257004Y11513851D01*
X13257008Y11513851D01*
X13261630Y11514198D01*
X13266143Y11515228D01*
X13266149Y11515229D01*
X13512891Y11571547D01*
X13512893Y11571547D01*
X13517416Y11572580D01*
X13521734Y11574275D01*
X13521738Y11574276D01*
X13757318Y11666734D01*
X13757324Y11666737D01*
X13761643Y11668432D01*
X13765658Y11670750D01*
X13765664Y11670753D01*
X13894216Y11744973D01*
X13988857Y11799614D01*
X14193981Y11963195D01*
X14372433Y12155521D01*
X14520228Y12372296D01*
X14634063Y12608677D01*
X14641648Y12633265D01*
X14688805Y12786148D01*
X14711396Y12859385D01*
X14750500Y13118818D01*
X14750500Y13381182D01*
X14748429Y13394921D01*
X14713898Y13624019D01*
X14717359Y13676827D01*
X14742524Y13723384D01*
X14784810Y13755207D01*
X14836513Y13766500D01*
X20114961Y13766500D01*
X20170465Y13753384D01*
X20214226Y13716812D01*
X20236739Y13686739D01*
X20243835Y13681426D01*
X20243836Y13681426D01*
X20346695Y13604426D01*
X20346698Y13604423D01*
X20353796Y13599111D01*
X20362099Y13596013D01*
X20362105Y13596011D01*
X20483536Y13550719D01*
X20483543Y13550717D01*
X20490799Y13548011D01*
X20498500Y13547182D01*
X20498505Y13547182D01*
X20548075Y13541853D01*
X20548082Y13541852D01*
X20551362Y13541500D01*
X21245328Y13541500D01*
X21248638Y13541500D01*
X21251918Y13541852D01*
X21251924Y13541853D01*
X21301494Y13547182D01*
X21301497Y13547182D01*
X21309201Y13548011D01*
X21316458Y13550717D01*
X21316463Y13550719D01*
X21437894Y13596011D01*
X21437896Y13596012D01*
X21446204Y13599111D01*
X21468189Y13615569D01*
X21531447Y13639808D01*
X21598004Y13627186D01*
X21647995Y13581469D01*
X21666500Y13516302D01*
X21666500Y12982500D01*
X21649887Y12920500D01*
X21604500Y12875113D01*
X21542500Y12858500D01*
X19926362Y12858500D01*
X19865799Y12851989D01*
X19728796Y12800889D01*
X19611739Y12713261D01*
X19524111Y12596204D01*
X19521012Y12587896D01*
X19521011Y12587894D01*
X19475719Y12466463D01*
X19475717Y12466458D01*
X19473011Y12459201D01*
X19466500Y12398638D01*
X19466500Y12395328D01*
X19466500Y12359046D01*
X19452561Y12301926D01*
X19413876Y12257649D01*
X19359145Y12236168D01*
X19300671Y12242314D01*
X19251601Y12274705D01*
X19234169Y12293492D01*
X19193981Y12336805D01*
X18988857Y12500386D01*
X18761643Y12631568D01*
X18517416Y12727420D01*
X18261630Y12785802D01*
X18065494Y12800500D01*
X17934506Y12800500D01*
X17738370Y12785802D01*
X17482584Y12727420D01*
X17238357Y12631568D01*
X17011143Y12500386D01*
X16806019Y12336805D01*
X16627567Y12144479D01*
X16479772Y11927704D01*
X16477756Y11923519D01*
X16477756Y11923518D01*
X16371944Y11703796D01*
X16365937Y11691323D01*
X16364573Y11686901D01*
X16364569Y11686891D01*
X16289971Y11445048D01*
X16288604Y11440615D01*
X16287913Y11436035D01*
X16287912Y11436028D01*
X16250190Y11185765D01*
X16250189Y11185754D01*
X16249500Y11181182D01*
X16249500Y10918818D01*
X16250189Y10914246D01*
X16250190Y10914234D01*
X16287912Y10663971D01*
X16287914Y10663961D01*
X16288604Y10659385D01*
X16289968Y10654959D01*
X16289971Y10654951D01*
X16364569Y10413108D01*
X16364574Y10413093D01*
X16365937Y10408677D01*
X16367944Y10404508D01*
X16367949Y10404497D01*
X16477756Y10176481D01*
X16477759Y10176474D01*
X16479772Y10172296D01*
X16482385Y10168463D01*
X16482387Y10168460D01*
X16495070Y10149858D01*
X16627567Y9955521D01*
X16630713Y9952129D01*
X16630719Y9952123D01*
X16773656Y9798074D01*
X16806019Y9763195D01*
X16809641Y9760306D01*
X16809646Y9760302D01*
X17007516Y9602506D01*
X17007519Y9602503D01*
X17011143Y9599614D01*
X17015159Y9597295D01*
X17015161Y9597294D01*
X17234335Y9470753D01*
X17234346Y9470747D01*
X17238357Y9468432D01*
X17242670Y9466739D01*
X17242681Y9466734D01*
X17478261Y9374276D01*
X17478268Y9374273D01*
X17482584Y9372580D01*
X17487102Y9371548D01*
X17487108Y9371547D01*
X17733850Y9315229D01*
X17733858Y9315227D01*
X17738370Y9314198D01*
X17742989Y9313851D01*
X17742995Y9313851D01*
X17932191Y9299673D01*
X17932203Y9299672D01*
X17934506Y9299500D01*
X18063177Y9299500D01*
X18065494Y9299500D01*
X18067797Y9299672D01*
X18067808Y9299673D01*
X18257004Y9313851D01*
X18257008Y9313851D01*
X18261630Y9314198D01*
X18266143Y9315228D01*
X18266149Y9315229D01*
X18512891Y9371547D01*
X18512893Y9371547D01*
X18517416Y9372580D01*
X18521734Y9374275D01*
X18521738Y9374276D01*
X18757318Y9466734D01*
X18757324Y9466737D01*
X18761643Y9468432D01*
X18765658Y9470750D01*
X18765664Y9470753D01*
X18894216Y9544973D01*
X18988857Y9599614D01*
X19193981Y9763195D01*
X19251601Y9825295D01*
X19300671Y9857686D01*
X19359145Y9863832D01*
X19413876Y9842351D01*
X19452561Y9798074D01*
X19466500Y9740954D01*
X19466500Y9701362D01*
X19466852Y9698082D01*
X19466853Y9698075D01*
X19472182Y9648505D01*
X19472182Y9648500D01*
X19473011Y9640799D01*
X19475717Y9633543D01*
X19475719Y9633536D01*
X19521011Y9512105D01*
X19521013Y9512099D01*
X19524111Y9503796D01*
X19529423Y9496698D01*
X19529426Y9496695D01*
X19606426Y9393835D01*
X19606429Y9393831D01*
X19611739Y9386739D01*
X19618831Y9381429D01*
X19618835Y9381426D01*
X19721695Y9304426D01*
X19721698Y9304423D01*
X19728796Y9299111D01*
X19737099Y9296013D01*
X19737105Y9296011D01*
X19858536Y9250719D01*
X19858543Y9250717D01*
X19865799Y9248011D01*
X19873500Y9247182D01*
X19873505Y9247182D01*
X19923075Y9241853D01*
X19923082Y9241852D01*
X19926362Y9241500D01*
X22620328Y9241500D01*
X22623638Y9241500D01*
X22626918Y9241852D01*
X22626924Y9241853D01*
X22676494Y9247182D01*
X22676497Y9247182D01*
X22684201Y9248011D01*
X22691458Y9250717D01*
X22691463Y9250719D01*
X22812894Y9296011D01*
X22812896Y9296012D01*
X22821204Y9299111D01*
X22919347Y9372580D01*
X22931164Y9381426D01*
X22938261Y9386739D01*
X23025889Y9503796D01*
X23076989Y9640799D01*
X23083500Y9701362D01*
X23083500Y12398638D01*
X23076989Y12459201D01*
X23025889Y12596204D01*
X22999416Y12631568D01*
X22958233Y12686583D01*
X22939846Y12721734D01*
X22933500Y12760893D01*
X22933500Y13607400D01*
X22942939Y13654853D01*
X22963916Y13686248D01*
X22963261Y13686739D01*
X23013151Y13753384D01*
X23050889Y13803796D01*
X23101989Y13940799D01*
X23108500Y14001362D01*
X23108500Y14798638D01*
X23101989Y14859201D01*
X23050889Y14996204D01*
X22963261Y15113261D01*
X22846204Y15200889D01*
X22709201Y15251989D01*
X22648638Y15258500D01*
X21951362Y15258500D01*
X21890799Y15251989D01*
X21753796Y15200889D01*
X21746695Y15195573D01*
X21674311Y15141387D01*
X21626358Y15119488D01*
X21573642Y15119488D01*
X21525689Y15141387D01*
X21446204Y15200889D01*
X21309201Y15251989D01*
X21248638Y15258500D01*
X20551362Y15258500D01*
X20490799Y15251989D01*
X20353796Y15200889D01*
X20236739Y15113261D01*
X20224211Y15096525D01*
X20214228Y15083189D01*
X20170465Y15046616D01*
X20114961Y15033500D01*
X18984615Y15033500D01*
X18922105Y15050409D01*
X18876642Y15096525D01*
X18860628Y15159271D01*
X18878428Y15221533D01*
X18925188Y15266332D01*
X19061178Y15340588D01*
X19061179Y15340589D01*
X19065073Y15342715D01*
X19290088Y15511159D01*
X19488841Y15709912D01*
X19657285Y15934927D01*
X19791992Y16181625D01*
X19890219Y16444982D01*
X19949967Y16719637D01*
X19970019Y17000000D01*
X19966254Y17052645D01*
X22394843Y17052645D01*
X22395123Y17046760D01*
X22395123Y17046753D01*
X22403167Y16877917D01*
X22404852Y16842541D01*
X22406243Y16836803D01*
X22406244Y16836803D01*
X22435719Y16715303D01*
X22454442Y16638129D01*
X22456893Y16632760D01*
X22456897Y16632751D01*
X22539363Y16452175D01*
X22539367Y16452166D01*
X22541821Y16446795D01*
X22545247Y16441983D01*
X22545251Y16441977D01*
X22660400Y16280273D01*
X22660404Y16280267D01*
X22663831Y16275456D01*
X22668104Y16271381D01*
X22668109Y16271376D01*
X22811791Y16134376D01*
X22816063Y16130303D01*
X22821026Y16127113D01*
X22821028Y16127112D01*
X22988043Y16019778D01*
X22988048Y16019775D01*
X22993014Y16016584D01*
X22998497Y16014389D01*
X22998501Y16014387D01*
X23182799Y15940604D01*
X23182803Y15940602D01*
X23188288Y15938407D01*
X23194088Y15937289D01*
X23194092Y15937288D01*
X23389031Y15899717D01*
X23389035Y15899716D01*
X23394829Y15898600D01*
X23549514Y15898600D01*
X23552468Y15898600D01*
X23555397Y15898879D01*
X23555403Y15898880D01*
X23703508Y15913022D01*
X23703512Y15913022D01*
X23709389Y15913584D01*
X23715058Y15915248D01*
X23715060Y15915249D01*
X23905545Y15971180D01*
X23905548Y15971181D01*
X23911211Y15972844D01*
X23940914Y15988157D01*
X24092920Y16066522D01*
X24092923Y16066524D01*
X24098170Y16069229D01*
X24198018Y16147750D01*
X24258864Y16195599D01*
X24258866Y16195601D01*
X24263510Y16199253D01*
X24333714Y16280273D01*
X24397388Y16353756D01*
X24397388Y16353757D01*
X24401255Y16358219D01*
X24506426Y16540381D01*
X24507849Y16544493D01*
X32750001Y16544493D01*
X32750143Y16540298D01*
X32752548Y16504812D01*
X32754235Y16494066D01*
X32797543Y16319918D01*
X32802150Y16307379D01*
X32881319Y16147750D01*
X32888521Y16136481D01*
X33000157Y15997601D01*
X33009601Y15988157D01*
X33148481Y15876521D01*
X33159750Y15869319D01*
X33319379Y15790150D01*
X33331918Y15785543D01*
X33506062Y15742236D01*
X33516815Y15740548D01*
X33552302Y15738141D01*
X33556490Y15738000D01*
X33983674Y15738000D01*
X33996549Y15741450D01*
X34000000Y15754326D01*
X34000000Y15754327D01*
X34500000Y15754327D01*
X34503450Y15741451D01*
X34516326Y15738001D01*
X34943507Y15738001D01*
X34947701Y15738143D01*
X34983187Y15740548D01*
X34993933Y15742235D01*
X35168081Y15785543D01*
X35180620Y15790150D01*
X35340249Y15869319D01*
X35351518Y15876521D01*
X35490398Y15988157D01*
X35499842Y15997601D01*
X35611478Y16136481D01*
X35618680Y16147750D01*
X35697849Y16307379D01*
X35702456Y16319918D01*
X35745763Y16494062D01*
X35747451Y16504815D01*
X35749858Y16540302D01*
X35750000Y16544491D01*
X35750000Y16562349D01*
X36241500Y16562349D01*
X36241501Y16559954D01*
X36241689Y16557563D01*
X36241690Y16557541D01*
X36247145Y16488221D01*
X36247591Y16482557D01*
X36249058Y16477081D01*
X36249060Y16477071D01*
X36294140Y16308832D01*
X36294142Y16308826D01*
X36295822Y16302557D01*
X36298767Y16296776D01*
X36298771Y16296767D01*
X36377472Y16142308D01*
X36377475Y16142301D01*
X36380423Y16136518D01*
X36384508Y16131472D01*
X36384513Y16131466D01*
X36493610Y15996743D01*
X36493614Y15996738D01*
X36497697Y15991697D01*
X36502738Y15987614D01*
X36502743Y15987610D01*
X36637466Y15878513D01*
X36637472Y15878508D01*
X36642518Y15874423D01*
X36648301Y15871475D01*
X36648308Y15871472D01*
X36802767Y15792771D01*
X36802776Y15792767D01*
X36808557Y15789822D01*
X36814826Y15788142D01*
X36814832Y15788140D01*
X36983068Y15743061D01*
X36983076Y15743059D01*
X36988557Y15741591D01*
X36994218Y15741145D01*
X36994221Y15741145D01*
X37063518Y15735691D01*
X37063533Y15735690D01*
X37065953Y15735500D01*
X37068397Y15735500D01*
X37068398Y15735500D01*
X38431624Y15735500D01*
X38431649Y15735500D01*
X38434046Y15735501D01*
X38436437Y15735689D01*
X38436458Y15735690D01*
X38505780Y15741145D01*
X38505784Y15741145D01*
X38511443Y15741591D01*
X38516920Y15743058D01*
X38516928Y15743060D01*
X38685167Y15788140D01*
X38685169Y15788141D01*
X38691443Y15789822D01*
X38697226Y15792769D01*
X38697232Y15792771D01*
X38851691Y15871472D01*
X38851693Y15871473D01*
X38857482Y15874423D01*
X38888718Y15899717D01*
X38997256Y15987610D01*
X39002303Y15991697D01*
X39119577Y16136518D01*
X39204178Y16302557D01*
X39252409Y16482557D01*
X39258500Y16559953D01*
X39258499Y17440046D01*
X39252409Y17517443D01*
X39204178Y17697443D01*
X39119577Y17863482D01*
X39002303Y18008303D01*
X38857482Y18125577D01*
X38691443Y18210178D01*
X38511443Y18258409D01*
X38434047Y18264500D01*
X37065954Y18264499D01*
X36988557Y18258409D01*
X36808557Y18210178D01*
X36642518Y18125577D01*
X36497697Y18008303D01*
X36380423Y17863482D01*
X36377473Y17857693D01*
X36377472Y17857691D01*
X36298771Y17703232D01*
X36298769Y17703226D01*
X36295822Y17697443D01*
X36294141Y17691169D01*
X36294140Y17691167D01*
X36249061Y17522931D01*
X36249060Y17522925D01*
X36247591Y17517443D01*
X36247145Y17511780D01*
X36247145Y17511778D01*
X36241691Y17442481D01*
X36241690Y17442467D01*
X36241500Y17440047D01*
X36241500Y17437601D01*
X36241500Y16562375D01*
X36241500Y16562349D01*
X35750000Y16562349D01*
X35750000Y16733674D01*
X35746549Y16746549D01*
X35733674Y16750000D01*
X34516326Y16750000D01*
X34503450Y16746549D01*
X34500000Y16733674D01*
X34500000Y15754327D01*
X34000000Y15754327D01*
X34000000Y16733674D01*
X33996549Y16746549D01*
X33983674Y16750000D01*
X32766327Y16750000D01*
X32753451Y16746549D01*
X32750001Y16733674D01*
X32750001Y16544493D01*
X24507849Y16544493D01*
X24575222Y16739154D01*
X24605157Y16947355D01*
X24595148Y17157459D01*
X24568737Y17266326D01*
X32750000Y17266326D01*
X32753450Y17253450D01*
X32766326Y17250000D01*
X33983674Y17250000D01*
X33996549Y17253450D01*
X34000000Y17266326D01*
X34500000Y17266326D01*
X34503450Y17253450D01*
X34516326Y17250000D01*
X35733673Y17250000D01*
X35746548Y17253450D01*
X35749999Y17266326D01*
X35749999Y17455507D01*
X35749856Y17459701D01*
X35747451Y17495187D01*
X35745764Y17505933D01*
X35702456Y17680081D01*
X35697849Y17692620D01*
X35618680Y17852249D01*
X35611478Y17863518D01*
X35499842Y18002398D01*
X35490398Y18011842D01*
X35351518Y18123478D01*
X35340249Y18130680D01*
X35180620Y18209849D01*
X35168081Y18214456D01*
X34993937Y18257763D01*
X34983184Y18259451D01*
X34947697Y18261858D01*
X34943510Y18262000D01*
X34516326Y18262000D01*
X34503450Y18258549D01*
X34500000Y18245674D01*
X34500000Y17266326D01*
X34000000Y17266326D01*
X34000000Y18245673D01*
X33996549Y18258548D01*
X33983674Y18261999D01*
X33556493Y18261999D01*
X33552298Y18261856D01*
X33516812Y18259451D01*
X33506066Y18257764D01*
X33331918Y18214456D01*
X33319379Y18209849D01*
X33159750Y18130680D01*
X33148481Y18123478D01*
X33009601Y18011842D01*
X33000157Y18002398D01*
X32888521Y17863518D01*
X32881319Y17852249D01*
X32802150Y17692620D01*
X32797543Y17680081D01*
X32754236Y17505937D01*
X32752548Y17495184D01*
X32750141Y17459697D01*
X32750000Y17455510D01*
X32750000Y17266326D01*
X24568737Y17266326D01*
X24545558Y17361871D01*
X24458179Y17553205D01*
X24336169Y17724544D01*
X24183937Y17869697D01*
X24006986Y17983416D01*
X23811712Y18061593D01*
X23605171Y18101400D01*
X23447532Y18101400D01*
X23290611Y18086416D01*
X23088789Y18027156D01*
X22901830Y17930771D01*
X22736490Y17800747D01*
X22732621Y17796282D01*
X22651993Y17703232D01*
X22598745Y17641781D01*
X22493574Y17459619D01*
X22491641Y17454035D01*
X22491639Y17454030D01*
X22426709Y17266427D01*
X22426707Y17266421D01*
X22424778Y17260846D01*
X22423938Y17255007D01*
X22423937Y17255001D01*
X22395682Y17058484D01*
X22395681Y17058478D01*
X22394843Y17052645D01*
X19966254Y17052645D01*
X19949967Y17280363D01*
X19890219Y17555018D01*
X19791992Y17818375D01*
X19657285Y18065073D01*
X19488841Y18290088D01*
X19290088Y18488841D01*
X19065073Y18657285D01*
X18818375Y18791992D01*
X18555018Y18890219D01*
X18280363Y18949967D01*
X18070175Y18965000D01*
X17929825Y18965000D01*
X17719637Y18949967D01*
X17444982Y18890219D01*
X17181625Y18791992D01*
X16934927Y18657285D01*
X16709912Y18488841D01*
X16511159Y18290088D01*
X16342715Y18065073D01*
X16340589Y18061179D01*
X16340588Y18061178D01*
X16210131Y17822264D01*
X16210128Y17822257D01*
X16208008Y17818375D01*
X16206462Y17814232D01*
X16206460Y17814226D01*
X16160562Y17691167D01*
X16109781Y17555018D01*
X16108840Y17550692D01*
X16050975Y17284696D01*
X16050973Y17284687D01*
X16050033Y17280363D01*
X16049717Y17275949D01*
X16049716Y17275940D01*
X16034251Y17059700D01*
X16029981Y17000000D01*
X16030297Y16995582D01*
X16049716Y16724059D01*
X16049717Y16724048D01*
X16050033Y16719637D01*
X16050973Y16715314D01*
X16050975Y16715303D01*
X16099103Y16494066D01*
X16109781Y16444982D01*
X16111323Y16440845D01*
X16111326Y16440838D01*
X16206460Y16185773D01*
X16206464Y16185762D01*
X16208008Y16181625D01*
X16210125Y16177747D01*
X16210131Y16177735D01*
X16340588Y15938821D01*
X16340592Y15938813D01*
X16342715Y15934927D01*
X16345372Y15931377D01*
X16345375Y15931373D01*
X16508500Y15713463D01*
X16508505Y15713456D01*
X16511159Y15709912D01*
X16514289Y15706781D01*
X16514296Y15706774D01*
X16706774Y15514296D01*
X16706781Y15514289D01*
X16709912Y15511159D01*
X16713456Y15508505D01*
X16713463Y15508500D01*
X16931373Y15345375D01*
X16931377Y15345372D01*
X16934927Y15342715D01*
X16938813Y15340592D01*
X16938821Y15340588D01*
X17074812Y15266332D01*
X17121572Y15221533D01*
X17139372Y15159271D01*
X17123358Y15096525D01*
X17077895Y15050409D01*
X17015385Y15033500D01*
X14815416Y15033500D01*
X14767963Y15042939D01*
X14727735Y15069819D01*
X14638283Y15159271D01*
X14280340Y15517212D01*
X14272752Y15525552D01*
X14268650Y15532018D01*
X14218945Y15578691D01*
X14216244Y15581309D01*
X14196420Y15601135D01*
X14193163Y15603660D01*
X14184274Y15611251D01*
X14151971Y15641586D01*
X14134075Y15651423D01*
X14117827Y15662096D01*
X14101691Y15674614D01*
X14061014Y15692215D01*
X14050534Y15697350D01*
X14021717Y15713193D01*
X14011710Y15718695D01*
X13991923Y15723774D01*
X13973535Y15730070D01*
X13954795Y15738181D01*
X13911026Y15745112D01*
X13899592Y15747481D01*
X13856680Y15758500D01*
X13848879Y15758500D01*
X13836265Y15758500D01*
X13816867Y15760027D01*
X13816622Y15760065D01*
X13796707Y15763220D01*
X13758890Y15759645D01*
X13752592Y15759050D01*
X13740923Y15758500D01*
X13006576Y15758500D01*
X12943557Y15775708D01*
X12898028Y15822556D01*
X12882627Y15886041D01*
X12901627Y15948543D01*
X12949755Y15992715D01*
X13092920Y16066522D01*
X13092923Y16066524D01*
X13098170Y16069229D01*
X13198018Y16147750D01*
X13258864Y16195599D01*
X13258866Y16195601D01*
X13263510Y16199253D01*
X13333714Y16280273D01*
X13397388Y16353756D01*
X13397388Y16353757D01*
X13401255Y16358219D01*
X13506426Y16540381D01*
X13575222Y16739154D01*
X13605157Y16947355D01*
X13595148Y17157459D01*
X13545558Y17361871D01*
X13458179Y17553205D01*
X13336169Y17724544D01*
X13183937Y17869697D01*
X13006986Y17983416D01*
X12811712Y18061593D01*
X12605171Y18101400D01*
X12447532Y18101400D01*
X12290611Y18086416D01*
X12088789Y18027156D01*
X11901830Y17930771D01*
X11736490Y17800747D01*
X11732621Y17796282D01*
X11651993Y17703232D01*
X11598745Y17641781D01*
X11493574Y17459619D01*
X11491641Y17454035D01*
X11491639Y17454030D01*
X11426709Y17266427D01*
X11426707Y17266421D01*
X11424778Y17260846D01*
X11423938Y17255007D01*
X11423937Y17255001D01*
X11395682Y17058484D01*
X11395681Y17058478D01*
X11394843Y17052645D01*
X11395123Y17046760D01*
X11395123Y17046753D01*
X11403167Y16877917D01*
X11404852Y16842541D01*
X11406243Y16836803D01*
X11406244Y16836803D01*
X11435719Y16715303D01*
X11454442Y16638129D01*
X11456893Y16632760D01*
X11456897Y16632751D01*
X11539363Y16452175D01*
X11539367Y16452166D01*
X11541821Y16446795D01*
X11545247Y16441983D01*
X11545251Y16441977D01*
X11660400Y16280273D01*
X11660404Y16280267D01*
X11663831Y16275456D01*
X11668104Y16271381D01*
X11668109Y16271376D01*
X11811791Y16134376D01*
X11816063Y16130303D01*
X11821026Y16127113D01*
X11821028Y16127112D01*
X11988043Y16019778D01*
X11988048Y16019775D01*
X11993014Y16016584D01*
X11998488Y16014392D01*
X11998495Y16014389D01*
X12018812Y16006255D01*
X12040392Y15997616D01*
X12093924Y15956337D01*
X12117849Y15893111D01*
X12105055Y15826732D01*
X12059345Y15776927D01*
X11994304Y15758500D01*
X6006576Y15758500D01*
X5943557Y15775708D01*
X5898028Y15822556D01*
X5882627Y15886041D01*
X5901627Y15948543D01*
X5949755Y15992715D01*
X6092920Y16066522D01*
X6092923Y16066524D01*
X6098170Y16069229D01*
X6198018Y16147750D01*
X6258864Y16195599D01*
X6258866Y16195601D01*
X6263510Y16199253D01*
X6333714Y16280273D01*
X6397388Y16353756D01*
X6397388Y16353757D01*
X6401255Y16358219D01*
X6506426Y16540381D01*
X6575222Y16739154D01*
X6605157Y16947355D01*
X6595148Y17157459D01*
X6545558Y17361871D01*
X6458179Y17553205D01*
X6336169Y17724544D01*
X6183937Y17869697D01*
X6006986Y17983416D01*
X5811712Y18061593D01*
X5605171Y18101400D01*
X5447532Y18101400D01*
X5290611Y18086416D01*
X5088789Y18027156D01*
X4901830Y17930771D01*
X4736490Y17800747D01*
X4732621Y17796282D01*
X4651993Y17703232D01*
X4598745Y17641781D01*
X4493574Y17459619D01*
X4491641Y17454035D01*
X4491639Y17454030D01*
X4426709Y17266427D01*
X4426707Y17266421D01*
X4424778Y17260846D01*
X4423938Y17255007D01*
X4423937Y17255001D01*
X4395682Y17058484D01*
X4395681Y17058478D01*
X4394843Y17052645D01*
X4395123Y17046760D01*
X4395123Y17046753D01*
X4403167Y16877917D01*
X4404852Y16842541D01*
X4406243Y16836803D01*
X4406244Y16836803D01*
X4435719Y16715303D01*
X4454442Y16638129D01*
X4456893Y16632760D01*
X4456897Y16632751D01*
X4539363Y16452175D01*
X4539367Y16452166D01*
X4541821Y16446795D01*
X4545247Y16441983D01*
X4545251Y16441977D01*
X4660400Y16280273D01*
X4660404Y16280267D01*
X4663831Y16275456D01*
X4668104Y16271381D01*
X4668109Y16271376D01*
X4811791Y16134376D01*
X4816063Y16130303D01*
X4821026Y16127113D01*
X4821028Y16127112D01*
X4988043Y16019778D01*
X4988048Y16019775D01*
X4993014Y16016584D01*
X4998488Y16014392D01*
X4998495Y16014389D01*
X5018812Y16006255D01*
X5040392Y15997616D01*
X5093924Y15956337D01*
X5117849Y15893111D01*
X5105055Y15826732D01*
X5059345Y15776927D01*
X4994304Y15758500D01*
X4985144Y15758500D01*
X4981058Y15757983D01*
X4969405Y15757065D01*
X4925111Y15755674D01*
X4905494Y15749974D01*
X4886461Y15746033D01*
X4866203Y15743474D01*
X4832367Y15730077D01*
X4825012Y15727165D01*
X4813958Y15723380D01*
X4771407Y15711018D01*
X4753824Y15700619D01*
X4736371Y15692070D01*
X4717383Y15684552D01*
X4681530Y15658503D01*
X4671779Y15652098D01*
X4633638Y15629542D01*
X4628120Y15624024D01*
X4619203Y15615107D01*
X4604407Y15602470D01*
X4587893Y15590472D01*
X4582920Y15584460D01*
X4582916Y15584457D01*
X4559643Y15556325D01*
X4551781Y15547685D01*
X4298915Y15294819D01*
X4258687Y15267939D01*
X4211234Y15258500D01*
X3951362Y15258500D01*
X3890799Y15251989D01*
X3753796Y15200889D01*
X3746695Y15195573D01*
X3674311Y15141387D01*
X3626358Y15119488D01*
X3573642Y15119488D01*
X3525689Y15141387D01*
X3446204Y15200889D01*
X3309201Y15251989D01*
X3248638Y15258500D01*
X2551362Y15258500D01*
X2490799Y15251989D01*
X2353796Y15200889D01*
X2236739Y15113261D01*
X2224211Y15096525D01*
X2214228Y15083189D01*
X2170465Y15046616D01*
X2114961Y15033500D01*
X984615Y15033500D01*
X922105Y15050409D01*
X876642Y15096525D01*
X860628Y15159271D01*
X878428Y15221533D01*
X925188Y15266332D01*
X1061178Y15340588D01*
X1061179Y15340589D01*
X1065073Y15342715D01*
X1290088Y15511159D01*
X1488841Y15709912D01*
X1657285Y15934927D01*
X1791992Y16181625D01*
X1890219Y16444982D01*
X1949967Y16719637D01*
X1970019Y17000000D01*
X1949967Y17280363D01*
X1890219Y17555018D01*
X1791992Y17818375D01*
X1657285Y18065073D01*
X1488841Y18290088D01*
X1290088Y18488841D01*
X1065073Y18657285D01*
X818375Y18791992D01*
X555018Y18890219D01*
X280363Y18949967D01*
X70175Y18965000D01*
X-70175Y18965000D01*
X-280363Y18949967D01*
X-555018Y18890219D01*
X-818375Y18791992D01*
X-1065073Y18657285D01*
X-1290088Y18488841D01*
X-1488841Y18290088D01*
X-1657285Y18065073D01*
X-1791992Y17818375D01*
X-1890219Y17555018D01*
X-1949967Y17280363D01*
X-1953718Y17227906D01*
X-1956594Y17187700D01*
X-1973187Y17134036D01*
X-2011756Y17093199D01*
X-2064385Y17073569D01*
X-2120276Y17079174D01*
X-2167959Y17108865D01*
X-2605181Y17546087D01*
X-2632061Y17586315D01*
X-2641500Y17633768D01*
X-2641500Y20618818D01*
X3249500Y20618818D01*
X3250189Y20614246D01*
X3250190Y20614234D01*
X3287912Y20363971D01*
X3287914Y20363961D01*
X3288604Y20359385D01*
X3289968Y20354959D01*
X3289971Y20354951D01*
X3364569Y20113108D01*
X3364574Y20113093D01*
X3365937Y20108677D01*
X3367944Y20104508D01*
X3367949Y20104497D01*
X3477756Y19876481D01*
X3477759Y19876474D01*
X3479772Y19872296D01*
X3627567Y19655521D01*
X3630713Y19652129D01*
X3630719Y19652123D01*
X3773656Y19498074D01*
X3806019Y19463195D01*
X3809641Y19460306D01*
X3809646Y19460302D01*
X4007516Y19302506D01*
X4007519Y19302503D01*
X4011143Y19299614D01*
X4015159Y19297295D01*
X4015161Y19297294D01*
X4234335Y19170753D01*
X4234346Y19170747D01*
X4238357Y19168432D01*
X4242670Y19166739D01*
X4242681Y19166734D01*
X4478261Y19074276D01*
X4478268Y19074273D01*
X4482584Y19072580D01*
X4487102Y19071548D01*
X4487108Y19071547D01*
X4733850Y19015229D01*
X4733858Y19015227D01*
X4738370Y19014198D01*
X4742989Y19013851D01*
X4742995Y19013851D01*
X4932191Y18999673D01*
X4932203Y18999672D01*
X4934506Y18999500D01*
X5063177Y18999500D01*
X5065494Y18999500D01*
X5067797Y18999672D01*
X5067808Y18999673D01*
X5257004Y19013851D01*
X5257008Y19013851D01*
X5261630Y19014198D01*
X5266143Y19015228D01*
X5266149Y19015229D01*
X5512891Y19071547D01*
X5512893Y19071547D01*
X5517416Y19072580D01*
X5521734Y19074275D01*
X5521738Y19074276D01*
X5757318Y19166734D01*
X5757324Y19166737D01*
X5761643Y19168432D01*
X5765658Y19170750D01*
X5765664Y19170753D01*
X5894216Y19244973D01*
X5988857Y19299614D01*
X6193981Y19463195D01*
X6251601Y19525295D01*
X6300671Y19557686D01*
X6359145Y19563832D01*
X6413876Y19542351D01*
X6452561Y19498074D01*
X6466500Y19440954D01*
X6466500Y19401362D01*
X6466852Y19398082D01*
X6466853Y19398075D01*
X6472182Y19348505D01*
X6472182Y19348500D01*
X6473011Y19340799D01*
X6475717Y19333543D01*
X6475719Y19333536D01*
X6521011Y19212105D01*
X6521013Y19212099D01*
X6524111Y19203796D01*
X6529423Y19196698D01*
X6529426Y19196695D01*
X6606426Y19093835D01*
X6606429Y19093831D01*
X6611739Y19086739D01*
X6618831Y19081429D01*
X6618835Y19081426D01*
X6721695Y19004426D01*
X6721698Y19004423D01*
X6728796Y18999111D01*
X6737099Y18996013D01*
X6737105Y18996011D01*
X6858536Y18950719D01*
X6858543Y18950717D01*
X6865799Y18948011D01*
X6873500Y18947182D01*
X6873505Y18947182D01*
X6923075Y18941853D01*
X6923082Y18941852D01*
X6926362Y18941500D01*
X9620328Y18941500D01*
X9623638Y18941500D01*
X9626918Y18941852D01*
X9626924Y18941853D01*
X9676494Y18947182D01*
X9676497Y18947182D01*
X9684201Y18948011D01*
X9691458Y18950717D01*
X9691463Y18950719D01*
X9812894Y18996011D01*
X9812896Y18996012D01*
X9821204Y18999111D01*
X9919347Y19072580D01*
X9931164Y19081426D01*
X9938261Y19086739D01*
X10025889Y19203796D01*
X10076989Y19340799D01*
X10083500Y19401362D01*
X10083500Y22098638D01*
X10076989Y22159201D01*
X10025889Y22296204D01*
X9938261Y22413261D01*
X9821204Y22500889D01*
X9684201Y22551989D01*
X9623638Y22558500D01*
X6926362Y22558500D01*
X6865799Y22551989D01*
X6728796Y22500889D01*
X6611739Y22413261D01*
X6524111Y22296204D01*
X6521012Y22287896D01*
X6521011Y22287894D01*
X6475719Y22166463D01*
X6475717Y22166458D01*
X6473011Y22159201D01*
X6466500Y22098638D01*
X6466500Y22095328D01*
X6466500Y22059046D01*
X6452561Y22001926D01*
X6413876Y21957649D01*
X6359145Y21936168D01*
X6300671Y21942314D01*
X6251601Y21974705D01*
X6234169Y21993492D01*
X6193981Y22036805D01*
X5988857Y22200386D01*
X5761643Y22331568D01*
X5517416Y22427420D01*
X5261630Y22485802D01*
X5065494Y22500500D01*
X4934506Y22500500D01*
X4738370Y22485802D01*
X4482584Y22427420D01*
X4238357Y22331568D01*
X4011143Y22200386D01*
X3806019Y22036805D01*
X3627567Y21844479D01*
X3479772Y21627704D01*
X3477756Y21623519D01*
X3477756Y21623518D01*
X3371944Y21403796D01*
X3365937Y21391323D01*
X3364573Y21386901D01*
X3364569Y21386891D01*
X3289971Y21145048D01*
X3288604Y21140615D01*
X3287913Y21136035D01*
X3287912Y21136028D01*
X3250190Y20885765D01*
X3250189Y20885754D01*
X3249500Y20881182D01*
X3249500Y20618818D01*
X-2641500Y20618818D01*
X-2641500Y21017500D01*
X-2624887Y21079500D01*
X-2579500Y21124887D01*
X-2517500Y21141500D01*
X-1929672Y21141500D01*
X-1926362Y21141500D01*
X-1923082Y21141852D01*
X-1923075Y21141853D01*
X-1873505Y21147182D01*
X-1873500Y21147182D01*
X-1865799Y21148011D01*
X-1858543Y21150717D01*
X-1858536Y21150719D01*
X-1737105Y21196011D01*
X-1737099Y21196013D01*
X-1728796Y21199111D01*
X-1721698Y21204423D01*
X-1721695Y21204426D01*
X-1618835Y21281426D01*
X-1618831Y21281429D01*
X-1611739Y21286739D01*
X-1606429Y21293831D01*
X-1606426Y21293835D01*
X-1529426Y21396695D01*
X-1529423Y21396698D01*
X-1524111Y21403796D01*
X-1521013Y21412099D01*
X-1521011Y21412105D01*
X-1475719Y21533536D01*
X-1475717Y21533543D01*
X-1473011Y21540799D01*
X-1472182Y21548500D01*
X-1472182Y21548505D01*
X-1466853Y21598075D01*
X-1466852Y21598082D01*
X-1466500Y21601362D01*
X-1466500Y21640954D01*
X-1452561Y21698074D01*
X-1413876Y21742351D01*
X-1359145Y21763832D01*
X-1300671Y21757686D01*
X-1251601Y21725295D01*
X-1193981Y21663195D01*
X-988857Y21499614D01*
X-894216Y21444973D01*
X-765664Y21370753D01*
X-765658Y21370750D01*
X-761643Y21368432D01*
X-757324Y21366737D01*
X-757318Y21366734D01*
X-521738Y21274276D01*
X-521734Y21274275D01*
X-517416Y21272580D01*
X-512893Y21271547D01*
X-512891Y21271547D01*
X-266149Y21215229D01*
X-266143Y21215228D01*
X-261630Y21214198D01*
X-257008Y21213851D01*
X-257004Y21213851D01*
X-67808Y21199673D01*
X-67797Y21199672D01*
X-65494Y21199500D01*
X63177Y21199500D01*
X65494Y21199500D01*
X67797Y21199672D01*
X67808Y21199673D01*
X257004Y21213851D01*
X257008Y21213851D01*
X261630Y21214198D01*
X266143Y21215228D01*
X266149Y21215229D01*
X512891Y21271547D01*
X512893Y21271547D01*
X517416Y21272580D01*
X521734Y21274275D01*
X521738Y21274276D01*
X757318Y21366734D01*
X757324Y21366737D01*
X761643Y21368432D01*
X765658Y21370750D01*
X765664Y21370753D01*
X894216Y21444973D01*
X988857Y21499614D01*
X1193981Y21663195D01*
X1372433Y21855521D01*
X1520228Y22072296D01*
X1634063Y22308677D01*
X1641648Y22333265D01*
X1688805Y22486148D01*
X1711396Y22559385D01*
X1750500Y22818818D01*
X1750500Y23081182D01*
X1711396Y23340615D01*
X1634063Y23591323D01*
X1520228Y23827704D01*
X1372433Y24044479D01*
X1193981Y24236805D01*
X988857Y24400386D01*
X761643Y24531568D01*
X517416Y24627420D01*
X261630Y24685802D01*
X65494Y24700500D01*
X-65494Y24700500D01*
X-261630Y24685802D01*
X-517416Y24627420D01*
X-761643Y24531568D01*
X-988857Y24400386D01*
X-1193981Y24236805D01*
X-1251601Y24174705D01*
X-1300671Y24142314D01*
X-1359145Y24136168D01*
X-1413876Y24157649D01*
X-1452561Y24201926D01*
X-1466500Y24259046D01*
X-1466500Y24295328D01*
X-1466500Y24298638D01*
X-1473011Y24359201D01*
X-1475717Y24366458D01*
X-1475719Y24366463D01*
X-1521011Y24487894D01*
X-1521012Y24487896D01*
X-1524111Y24496204D01*
X-1611739Y24613261D01*
X-1728796Y24700889D01*
X-1865799Y24751989D01*
X-1926362Y24758500D01*
X-4623638Y24758500D01*
X-4684201Y24751989D01*
X-4821204Y24700889D01*
X-4938261Y24613261D01*
X-5025889Y24496204D01*
X-5076989Y24359201D01*
X-5083500Y24298638D01*
X-5083500Y21601362D01*
X-8924500Y21601362D01*
X-8924500Y23995125D01*
X-8924118Y24004854D01*
X-8907727Y24213113D01*
X-8904683Y24232331D01*
X-8857058Y24430705D01*
X-8851045Y24449211D01*
X-8772972Y24637694D01*
X-8764138Y24655031D01*
X-8657543Y24828977D01*
X-8646106Y24844719D01*
X-8513610Y24999852D01*
X-8499852Y25013610D01*
X-8344719Y25146106D01*
X-8328977Y25157543D01*
X-8155031Y25264138D01*
X-8137694Y25272972D01*
X-7949211Y25351045D01*
X-7930705Y25357058D01*
X-7732331Y25404683D01*
X-7713113Y25407727D01*
X-7504854Y25424118D01*
X-7495125Y25424500D01*
X-7475469Y25424500D01*
X43475469Y25424500D01*
X43495125Y25424500D01*
X43504854Y25424118D01*
G37*
%TD.AperFunction*%
%TD*%
M02*
