%TF.GenerationSoftware,KiCad,Pcbnew,(7.0.0-0)*%
%TF.CreationDate,2023-02-22T17:53:02+08:00*%
%TF.ProjectId,thumb,7468756d-622e-46b6-9963-61645f706362,v1.0.0*%
%TF.SameCoordinates,Original*%
%TF.FileFunction,Drillmap*%
%TF.FilePolarity,Positive*%
%FSLAX45Y45*%
G04 Gerber Fmt 4.5, Leading zero omitted, Abs format (unit mm)*
G04 Created by KiCad (PCBNEW (7.0.0-0)) date 2023-02-22 17:53:02*
%MOMM*%
%LPD*%
G01*
G04 APERTURE LIST*
%ADD10C,0.150000*%
%ADD11C,0.200000*%
%ADD12C,0.030000*%
G04 APERTURE END LIST*
D10*
X-750000Y-850000D02*
X2550000Y-850000D01*
X-900000Y-700000D02*
X-900000Y4100000D01*
X-750000Y4250000D02*
X2550000Y4250000D01*
X2700000Y-700000D02*
X2700000Y4100000D01*
X2550000Y-850000D02*
G75*
G03*
X2700000Y-700000I0J150000D01*
G01*
X2700000Y4100000D02*
G75*
G03*
X2550000Y4250000I-150000J0D01*
G01*
X-750000Y4250000D02*
G75*
G03*
X-900000Y4100000I0J-150000D01*
G01*
X-900000Y-700000D02*
G75*
G03*
X-750000Y-850000I150000J0D01*
G01*
D11*
D12*
X-342500Y4010000D02*
X-312500Y3980000D01*
X-312500Y4010000D02*
X-342500Y3980000D01*
X-342500Y2310000D02*
X-312500Y2280000D01*
X-312500Y2310000D02*
X-342500Y2280000D01*
X-342500Y610000D02*
X-312500Y580000D01*
X-312500Y610000D02*
X-342500Y580000D01*
X812500Y3790000D02*
X842500Y3760000D01*
X842500Y3790000D02*
X812500Y3760000D01*
X812500Y2090000D02*
X842500Y2060000D01*
X842500Y2090000D02*
X812500Y2060000D01*
X812500Y390000D02*
X842500Y360000D01*
X842500Y390000D02*
X812500Y360000D01*
X957500Y3040000D02*
X987500Y3010000D01*
X987500Y3040000D02*
X957500Y3010000D01*
X957500Y1340000D02*
X987500Y1310000D01*
X987500Y1340000D02*
X957500Y1310000D01*
X957500Y-360000D02*
X987500Y-390000D01*
X987500Y-360000D02*
X957500Y-390000D01*
X2112500Y2820000D02*
X2142500Y2790000D01*
X2142500Y2820000D02*
X2112500Y2790000D01*
X2112500Y1120000D02*
X2142500Y1090000D01*
X2142500Y1120000D02*
X2112500Y1090000D01*
X2112500Y-580000D02*
X2142500Y-610000D01*
X2142500Y-580000D02*
X2112500Y-610000D01*
D11*
X-659881Y-1150976D02*
X-659881Y-950976D01*
X-659881Y-950976D02*
X-612262Y-950976D01*
X-612262Y-950976D02*
X-583690Y-960500D01*
X-583690Y-960500D02*
X-564643Y-979548D01*
X-564643Y-979548D02*
X-555119Y-998595D01*
X-555119Y-998595D02*
X-545595Y-1036690D01*
X-545595Y-1036690D02*
X-545595Y-1065262D01*
X-545595Y-1065262D02*
X-555119Y-1103357D01*
X-555119Y-1103357D02*
X-564643Y-1122405D01*
X-564643Y-1122405D02*
X-583690Y-1141452D01*
X-583690Y-1141452D02*
X-612262Y-1150976D01*
X-612262Y-1150976D02*
X-659881Y-1150976D01*
X-459881Y-1150976D02*
X-459881Y-1017643D01*
X-459881Y-1055738D02*
X-450357Y-1036690D01*
X-450357Y-1036690D02*
X-440833Y-1027167D01*
X-440833Y-1027167D02*
X-421786Y-1017643D01*
X-421786Y-1017643D02*
X-402738Y-1017643D01*
X-336071Y-1150976D02*
X-336071Y-1017643D01*
X-336071Y-950976D02*
X-345595Y-960500D01*
X-345595Y-960500D02*
X-336071Y-970024D01*
X-336071Y-970024D02*
X-326548Y-960500D01*
X-326548Y-960500D02*
X-336071Y-950976D01*
X-336071Y-950976D02*
X-336071Y-970024D01*
X-212262Y-1150976D02*
X-231309Y-1141452D01*
X-231309Y-1141452D02*
X-240833Y-1122405D01*
X-240833Y-1122405D02*
X-240833Y-950976D01*
X-107500Y-1150976D02*
X-126548Y-1141452D01*
X-126548Y-1141452D02*
X-136071Y-1122405D01*
X-136071Y-1122405D02*
X-136071Y-950976D01*
X88690Y-1150976D02*
X88690Y-950976D01*
X88690Y-950976D02*
X155357Y-1093833D01*
X155357Y-1093833D02*
X222024Y-950976D01*
X222024Y-950976D02*
X222024Y-1150976D01*
X402976Y-1150976D02*
X402976Y-1046214D01*
X402976Y-1046214D02*
X393452Y-1027167D01*
X393452Y-1027167D02*
X374405Y-1017643D01*
X374405Y-1017643D02*
X336309Y-1017643D01*
X336309Y-1017643D02*
X317262Y-1027167D01*
X402976Y-1141452D02*
X383928Y-1150976D01*
X383928Y-1150976D02*
X336309Y-1150976D01*
X336309Y-1150976D02*
X317262Y-1141452D01*
X317262Y-1141452D02*
X307738Y-1122405D01*
X307738Y-1122405D02*
X307738Y-1103357D01*
X307738Y-1103357D02*
X317262Y-1084310D01*
X317262Y-1084310D02*
X336309Y-1074786D01*
X336309Y-1074786D02*
X383928Y-1074786D01*
X383928Y-1074786D02*
X402976Y-1065262D01*
X498214Y-1017643D02*
X498214Y-1217643D01*
X498214Y-1027167D02*
X517262Y-1017643D01*
X517262Y-1017643D02*
X555357Y-1017643D01*
X555357Y-1017643D02*
X574405Y-1027167D01*
X574405Y-1027167D02*
X583929Y-1036690D01*
X583929Y-1036690D02*
X593452Y-1055738D01*
X593452Y-1055738D02*
X593452Y-1112881D01*
X593452Y-1112881D02*
X583929Y-1131929D01*
X583929Y-1131929D02*
X574405Y-1141452D01*
X574405Y-1141452D02*
X555357Y-1150976D01*
X555357Y-1150976D02*
X517262Y-1150976D01*
X517262Y-1150976D02*
X498214Y-1141452D01*
X679167Y-1131929D02*
X688690Y-1141452D01*
X688690Y-1141452D02*
X679167Y-1150976D01*
X679167Y-1150976D02*
X669643Y-1141452D01*
X669643Y-1141452D02*
X679167Y-1131929D01*
X679167Y-1131929D02*
X679167Y-1150976D01*
X679167Y-1027167D02*
X688690Y-1036690D01*
X688690Y-1036690D02*
X679167Y-1046214D01*
X679167Y-1046214D02*
X669643Y-1036690D01*
X669643Y-1036690D02*
X679167Y-1027167D01*
X679167Y-1027167D02*
X679167Y-1046214D01*
D12*
X-937500Y-1482500D02*
X-907500Y-1512500D01*
X-907500Y-1482500D02*
X-937500Y-1512500D01*
D11*
X-621786Y-1370976D02*
X-602738Y-1370976D01*
X-602738Y-1370976D02*
X-583690Y-1380500D01*
X-583690Y-1380500D02*
X-574167Y-1390024D01*
X-574167Y-1390024D02*
X-564643Y-1409071D01*
X-564643Y-1409071D02*
X-555119Y-1447167D01*
X-555119Y-1447167D02*
X-555119Y-1494786D01*
X-555119Y-1494786D02*
X-564643Y-1532881D01*
X-564643Y-1532881D02*
X-574167Y-1551928D01*
X-574167Y-1551928D02*
X-583690Y-1561452D01*
X-583690Y-1561452D02*
X-602738Y-1570976D01*
X-602738Y-1570976D02*
X-621786Y-1570976D01*
X-621786Y-1570976D02*
X-640833Y-1561452D01*
X-640833Y-1561452D02*
X-650357Y-1551928D01*
X-650357Y-1551928D02*
X-659881Y-1532881D01*
X-659881Y-1532881D02*
X-669405Y-1494786D01*
X-669405Y-1494786D02*
X-669405Y-1447167D01*
X-669405Y-1447167D02*
X-659881Y-1409071D01*
X-659881Y-1409071D02*
X-650357Y-1390024D01*
X-650357Y-1390024D02*
X-640833Y-1380500D01*
X-640833Y-1380500D02*
X-621786Y-1370976D01*
X-469405Y-1551928D02*
X-459881Y-1561452D01*
X-459881Y-1561452D02*
X-469405Y-1570976D01*
X-469405Y-1570976D02*
X-478928Y-1561452D01*
X-478928Y-1561452D02*
X-469405Y-1551928D01*
X-469405Y-1551928D02*
X-469405Y-1570976D01*
X-393214Y-1370976D02*
X-269405Y-1370976D01*
X-269405Y-1370976D02*
X-336071Y-1447167D01*
X-336071Y-1447167D02*
X-307500Y-1447167D01*
X-307500Y-1447167D02*
X-288452Y-1456690D01*
X-288452Y-1456690D02*
X-278929Y-1466214D01*
X-278929Y-1466214D02*
X-269405Y-1485262D01*
X-269405Y-1485262D02*
X-269405Y-1532881D01*
X-269405Y-1532881D02*
X-278929Y-1551928D01*
X-278929Y-1551928D02*
X-288452Y-1561452D01*
X-288452Y-1561452D02*
X-307500Y-1570976D01*
X-307500Y-1570976D02*
X-364643Y-1570976D01*
X-364643Y-1570976D02*
X-383690Y-1561452D01*
X-383690Y-1561452D02*
X-393214Y-1551928D01*
X-145595Y-1370976D02*
X-126547Y-1370976D01*
X-126547Y-1370976D02*
X-107500Y-1380500D01*
X-107500Y-1380500D02*
X-97976Y-1390024D01*
X-97976Y-1390024D02*
X-88452Y-1409071D01*
X-88452Y-1409071D02*
X-78929Y-1447167D01*
X-78929Y-1447167D02*
X-78929Y-1494786D01*
X-78929Y-1494786D02*
X-88452Y-1532881D01*
X-88452Y-1532881D02*
X-97976Y-1551928D01*
X-97976Y-1551928D02*
X-107500Y-1561452D01*
X-107500Y-1561452D02*
X-126547Y-1570976D01*
X-126547Y-1570976D02*
X-145595Y-1570976D01*
X-145595Y-1570976D02*
X-164643Y-1561452D01*
X-164643Y-1561452D02*
X-174167Y-1551928D01*
X-174167Y-1551928D02*
X-183690Y-1532881D01*
X-183690Y-1532881D02*
X-193214Y-1494786D01*
X-193214Y-1494786D02*
X-193214Y-1447167D01*
X-193214Y-1447167D02*
X-183690Y-1409071D01*
X-183690Y-1409071D02*
X-174167Y-1390024D01*
X-174167Y-1390024D02*
X-164643Y-1380500D01*
X-164643Y-1380500D02*
X-145595Y-1370976D01*
X44881Y-1370976D02*
X63929Y-1370976D01*
X63929Y-1370976D02*
X82976Y-1380500D01*
X82976Y-1380500D02*
X92500Y-1390024D01*
X92500Y-1390024D02*
X102024Y-1409071D01*
X102024Y-1409071D02*
X111548Y-1447167D01*
X111548Y-1447167D02*
X111548Y-1494786D01*
X111548Y-1494786D02*
X102024Y-1532881D01*
X102024Y-1532881D02*
X92500Y-1551928D01*
X92500Y-1551928D02*
X82976Y-1561452D01*
X82976Y-1561452D02*
X63929Y-1570976D01*
X63929Y-1570976D02*
X44881Y-1570976D01*
X44881Y-1570976D02*
X25833Y-1561452D01*
X25833Y-1561452D02*
X16309Y-1551928D01*
X16309Y-1551928D02*
X6786Y-1532881D01*
X6786Y-1532881D02*
X-2738Y-1494786D01*
X-2738Y-1494786D02*
X-2738Y-1447167D01*
X-2738Y-1447167D02*
X6786Y-1409071D01*
X6786Y-1409071D02*
X16309Y-1390024D01*
X16309Y-1390024D02*
X25833Y-1380500D01*
X25833Y-1380500D02*
X44881Y-1370976D01*
X197262Y-1570976D02*
X197262Y-1437643D01*
X197262Y-1456690D02*
X206786Y-1447167D01*
X206786Y-1447167D02*
X225833Y-1437643D01*
X225833Y-1437643D02*
X254405Y-1437643D01*
X254405Y-1437643D02*
X273452Y-1447167D01*
X273452Y-1447167D02*
X282976Y-1466214D01*
X282976Y-1466214D02*
X282976Y-1570976D01*
X282976Y-1466214D02*
X292500Y-1447167D01*
X292500Y-1447167D02*
X311548Y-1437643D01*
X311548Y-1437643D02*
X340119Y-1437643D01*
X340119Y-1437643D02*
X359167Y-1447167D01*
X359167Y-1447167D02*
X368690Y-1466214D01*
X368690Y-1466214D02*
X368690Y-1570976D01*
X463929Y-1570976D02*
X463929Y-1437643D01*
X463929Y-1456690D02*
X473452Y-1447167D01*
X473452Y-1447167D02*
X492500Y-1437643D01*
X492500Y-1437643D02*
X521071Y-1437643D01*
X521071Y-1437643D02*
X540119Y-1447167D01*
X540119Y-1447167D02*
X549643Y-1466214D01*
X549643Y-1466214D02*
X549643Y-1570976D01*
X549643Y-1466214D02*
X559167Y-1447167D01*
X559167Y-1447167D02*
X578214Y-1437643D01*
X578214Y-1437643D02*
X606786Y-1437643D01*
X606786Y-1437643D02*
X625833Y-1447167D01*
X625833Y-1447167D02*
X635357Y-1466214D01*
X635357Y-1466214D02*
X635357Y-1570976D01*
X993452Y-1361452D02*
X822024Y-1618595D01*
X1218214Y-1370976D02*
X1237262Y-1370976D01*
X1237262Y-1370976D02*
X1256310Y-1380500D01*
X1256310Y-1380500D02*
X1265833Y-1390024D01*
X1265833Y-1390024D02*
X1275357Y-1409071D01*
X1275357Y-1409071D02*
X1284881Y-1447167D01*
X1284881Y-1447167D02*
X1284881Y-1494786D01*
X1284881Y-1494786D02*
X1275357Y-1532881D01*
X1275357Y-1532881D02*
X1265833Y-1551928D01*
X1265833Y-1551928D02*
X1256310Y-1561452D01*
X1256310Y-1561452D02*
X1237262Y-1570976D01*
X1237262Y-1570976D02*
X1218214Y-1570976D01*
X1218214Y-1570976D02*
X1199167Y-1561452D01*
X1199167Y-1561452D02*
X1189643Y-1551928D01*
X1189643Y-1551928D02*
X1180119Y-1532881D01*
X1180119Y-1532881D02*
X1170595Y-1494786D01*
X1170595Y-1494786D02*
X1170595Y-1447167D01*
X1170595Y-1447167D02*
X1180119Y-1409071D01*
X1180119Y-1409071D02*
X1189643Y-1390024D01*
X1189643Y-1390024D02*
X1199167Y-1380500D01*
X1199167Y-1380500D02*
X1218214Y-1370976D01*
X1370595Y-1551928D02*
X1380119Y-1561452D01*
X1380119Y-1561452D02*
X1370595Y-1570976D01*
X1370595Y-1570976D02*
X1361072Y-1561452D01*
X1361072Y-1561452D02*
X1370595Y-1551928D01*
X1370595Y-1551928D02*
X1370595Y-1570976D01*
X1503929Y-1370976D02*
X1522976Y-1370976D01*
X1522976Y-1370976D02*
X1542024Y-1380500D01*
X1542024Y-1380500D02*
X1551548Y-1390024D01*
X1551548Y-1390024D02*
X1561071Y-1409071D01*
X1561071Y-1409071D02*
X1570595Y-1447167D01*
X1570595Y-1447167D02*
X1570595Y-1494786D01*
X1570595Y-1494786D02*
X1561071Y-1532881D01*
X1561071Y-1532881D02*
X1551548Y-1551928D01*
X1551548Y-1551928D02*
X1542024Y-1561452D01*
X1542024Y-1561452D02*
X1522976Y-1570976D01*
X1522976Y-1570976D02*
X1503929Y-1570976D01*
X1503929Y-1570976D02*
X1484881Y-1561452D01*
X1484881Y-1561452D02*
X1475357Y-1551928D01*
X1475357Y-1551928D02*
X1465833Y-1532881D01*
X1465833Y-1532881D02*
X1456310Y-1494786D01*
X1456310Y-1494786D02*
X1456310Y-1447167D01*
X1456310Y-1447167D02*
X1465833Y-1409071D01*
X1465833Y-1409071D02*
X1475357Y-1390024D01*
X1475357Y-1390024D02*
X1484881Y-1380500D01*
X1484881Y-1380500D02*
X1503929Y-1370976D01*
X1761071Y-1570976D02*
X1646786Y-1570976D01*
X1703929Y-1570976D02*
X1703929Y-1370976D01*
X1703929Y-1370976D02*
X1684881Y-1399548D01*
X1684881Y-1399548D02*
X1665833Y-1418595D01*
X1665833Y-1418595D02*
X1646786Y-1428119D01*
X1951548Y-1570976D02*
X1837262Y-1570976D01*
X1894405Y-1570976D02*
X1894405Y-1370976D01*
X1894405Y-1370976D02*
X1875357Y-1399548D01*
X1875357Y-1399548D02*
X1856310Y-1418595D01*
X1856310Y-1418595D02*
X1837262Y-1428119D01*
X2065833Y-1456690D02*
X2046786Y-1447167D01*
X2046786Y-1447167D02*
X2037262Y-1437643D01*
X2037262Y-1437643D02*
X2027738Y-1418595D01*
X2027738Y-1418595D02*
X2027738Y-1409071D01*
X2027738Y-1409071D02*
X2037262Y-1390024D01*
X2037262Y-1390024D02*
X2046786Y-1380500D01*
X2046786Y-1380500D02*
X2065833Y-1370976D01*
X2065833Y-1370976D02*
X2103929Y-1370976D01*
X2103929Y-1370976D02*
X2122976Y-1380500D01*
X2122976Y-1380500D02*
X2132500Y-1390024D01*
X2132500Y-1390024D02*
X2142024Y-1409071D01*
X2142024Y-1409071D02*
X2142024Y-1418595D01*
X2142024Y-1418595D02*
X2132500Y-1437643D01*
X2132500Y-1437643D02*
X2122976Y-1447167D01*
X2122976Y-1447167D02*
X2103929Y-1456690D01*
X2103929Y-1456690D02*
X2065833Y-1456690D01*
X2065833Y-1456690D02*
X2046786Y-1466214D01*
X2046786Y-1466214D02*
X2037262Y-1475738D01*
X2037262Y-1475738D02*
X2027738Y-1494786D01*
X2027738Y-1494786D02*
X2027738Y-1532881D01*
X2027738Y-1532881D02*
X2037262Y-1551928D01*
X2037262Y-1551928D02*
X2046786Y-1561452D01*
X2046786Y-1561452D02*
X2065833Y-1570976D01*
X2065833Y-1570976D02*
X2103929Y-1570976D01*
X2103929Y-1570976D02*
X2122976Y-1561452D01*
X2122976Y-1561452D02*
X2132500Y-1551928D01*
X2132500Y-1551928D02*
X2142024Y-1532881D01*
X2142024Y-1532881D02*
X2142024Y-1494786D01*
X2142024Y-1494786D02*
X2132500Y-1475738D01*
X2132500Y-1475738D02*
X2122976Y-1466214D01*
X2122976Y-1466214D02*
X2103929Y-1456690D01*
X2218214Y-1370976D02*
X2218214Y-1409071D01*
X2294405Y-1370976D02*
X2294405Y-1409071D01*
X2557262Y-1647167D02*
X2547738Y-1637643D01*
X2547738Y-1637643D02*
X2528691Y-1609071D01*
X2528691Y-1609071D02*
X2519167Y-1590024D01*
X2519167Y-1590024D02*
X2509643Y-1561452D01*
X2509643Y-1561452D02*
X2500119Y-1513833D01*
X2500119Y-1513833D02*
X2500119Y-1475738D01*
X2500119Y-1475738D02*
X2509643Y-1428119D01*
X2509643Y-1428119D02*
X2519167Y-1399548D01*
X2519167Y-1399548D02*
X2528691Y-1380500D01*
X2528691Y-1380500D02*
X2547738Y-1351929D01*
X2547738Y-1351929D02*
X2557262Y-1342405D01*
X2738214Y-1570976D02*
X2623929Y-1570976D01*
X2681072Y-1570976D02*
X2681072Y-1370976D01*
X2681072Y-1370976D02*
X2662024Y-1399548D01*
X2662024Y-1399548D02*
X2642976Y-1418595D01*
X2642976Y-1418595D02*
X2623929Y-1428119D01*
X2814405Y-1390024D02*
X2823929Y-1380500D01*
X2823929Y-1380500D02*
X2842976Y-1370976D01*
X2842976Y-1370976D02*
X2890595Y-1370976D01*
X2890595Y-1370976D02*
X2909643Y-1380500D01*
X2909643Y-1380500D02*
X2919167Y-1390024D01*
X2919167Y-1390024D02*
X2928691Y-1409071D01*
X2928691Y-1409071D02*
X2928691Y-1428119D01*
X2928691Y-1428119D02*
X2919167Y-1456690D01*
X2919167Y-1456690D02*
X2804881Y-1570976D01*
X2804881Y-1570976D02*
X2928691Y-1570976D01*
X3134405Y-1570976D02*
X3134405Y-1370976D01*
X3220119Y-1570976D02*
X3220119Y-1466214D01*
X3220119Y-1466214D02*
X3210595Y-1447167D01*
X3210595Y-1447167D02*
X3191548Y-1437643D01*
X3191548Y-1437643D02*
X3162976Y-1437643D01*
X3162976Y-1437643D02*
X3143929Y-1447167D01*
X3143929Y-1447167D02*
X3134405Y-1456690D01*
X3343929Y-1570976D02*
X3324881Y-1561452D01*
X3324881Y-1561452D02*
X3315357Y-1551928D01*
X3315357Y-1551928D02*
X3305833Y-1532881D01*
X3305833Y-1532881D02*
X3305833Y-1475738D01*
X3305833Y-1475738D02*
X3315357Y-1456690D01*
X3315357Y-1456690D02*
X3324881Y-1447167D01*
X3324881Y-1447167D02*
X3343929Y-1437643D01*
X3343929Y-1437643D02*
X3372500Y-1437643D01*
X3372500Y-1437643D02*
X3391548Y-1447167D01*
X3391548Y-1447167D02*
X3401072Y-1456690D01*
X3401072Y-1456690D02*
X3410595Y-1475738D01*
X3410595Y-1475738D02*
X3410595Y-1532881D01*
X3410595Y-1532881D02*
X3401072Y-1551928D01*
X3401072Y-1551928D02*
X3391548Y-1561452D01*
X3391548Y-1561452D02*
X3372500Y-1570976D01*
X3372500Y-1570976D02*
X3343929Y-1570976D01*
X3524881Y-1570976D02*
X3505833Y-1561452D01*
X3505833Y-1561452D02*
X3496310Y-1542405D01*
X3496310Y-1542405D02*
X3496310Y-1370976D01*
X3677262Y-1561452D02*
X3658214Y-1570976D01*
X3658214Y-1570976D02*
X3620119Y-1570976D01*
X3620119Y-1570976D02*
X3601072Y-1561452D01*
X3601072Y-1561452D02*
X3591548Y-1542405D01*
X3591548Y-1542405D02*
X3591548Y-1466214D01*
X3591548Y-1466214D02*
X3601072Y-1447167D01*
X3601072Y-1447167D02*
X3620119Y-1437643D01*
X3620119Y-1437643D02*
X3658214Y-1437643D01*
X3658214Y-1437643D02*
X3677262Y-1447167D01*
X3677262Y-1447167D02*
X3686786Y-1466214D01*
X3686786Y-1466214D02*
X3686786Y-1485262D01*
X3686786Y-1485262D02*
X3591548Y-1504309D01*
X3762976Y-1561452D02*
X3782024Y-1570976D01*
X3782024Y-1570976D02*
X3820119Y-1570976D01*
X3820119Y-1570976D02*
X3839167Y-1561452D01*
X3839167Y-1561452D02*
X3848691Y-1542405D01*
X3848691Y-1542405D02*
X3848691Y-1532881D01*
X3848691Y-1532881D02*
X3839167Y-1513833D01*
X3839167Y-1513833D02*
X3820119Y-1504309D01*
X3820119Y-1504309D02*
X3791548Y-1504309D01*
X3791548Y-1504309D02*
X3772500Y-1494786D01*
X3772500Y-1494786D02*
X3762976Y-1475738D01*
X3762976Y-1475738D02*
X3762976Y-1466214D01*
X3762976Y-1466214D02*
X3772500Y-1447167D01*
X3772500Y-1447167D02*
X3791548Y-1437643D01*
X3791548Y-1437643D02*
X3820119Y-1437643D01*
X3820119Y-1437643D02*
X3839167Y-1447167D01*
X3915357Y-1647167D02*
X3924881Y-1637643D01*
X3924881Y-1637643D02*
X3943929Y-1609071D01*
X3943929Y-1609071D02*
X3953453Y-1590024D01*
X3953453Y-1590024D02*
X3962976Y-1561452D01*
X3962976Y-1561452D02*
X3972500Y-1513833D01*
X3972500Y-1513833D02*
X3972500Y-1475738D01*
X3972500Y-1475738D02*
X3962976Y-1428119D01*
X3962976Y-1428119D02*
X3953453Y-1399548D01*
X3953453Y-1399548D02*
X3943929Y-1380500D01*
X3943929Y-1380500D02*
X3924881Y-1351929D01*
X3924881Y-1351929D02*
X3915357Y-1342405D01*
M02*
