0
SECTION
2
HEADER
9
$INSUNITS
70
4
0
ENDSEC
0
SECTION
2
TABLES
0
TABLE
2
LTYPE
0
LTYPE
72
65
70
64
2
CONTINUOUS
3
______
73
0
40
0
0
ENDTAB
0
TABLE
2
LAYER
0
ENDTAB
0
ENDSEC
0
SECTION
2
ENTITIES
0
LINE
8
0
10
-5.51
20
-8.5
11
9.51
21
-8.5
0
LINE
8
0
10
11
20
-7.01
11
11
21
7.01
0
LINE
8
0
10
-5.51
20
59.5
11
23.51
21
59.5
0
LINE
8
0
10
12.49
20
8.5
11
27.51
21
8.5
0
LINE
8
0
10
29
20
9.99
11
29
21
10.01
0
LINE
8
0
10
30.49
20
11.5
11
41.51
21
11.5
0
LINE
8
0
10
47
20
57.99
11
47
21
61.01
0
LINE
8
0
10
45.51
20
62.5
11
26.49
21
62.5
0
LINE
8
0
10
25
20
61.01
11
25
21
60.99
0
LINE
8
0
10
44.49
20
5.5
11
59.51
21
5.5
0
LINE
8
0
10
43
20
10.01
11
43
21
6.99
0
LINE
8
0
10
65
20
54.99
11
65
21
55.01
0
LINE
8
0
10
63.51
20
56.5
11
48.49
21
56.5
0
LINE
8
0
10
62.49
20
2.5
11
81.51
21
2.5
0
LINE
8
0
10
83
20
3.99
11
83
21
52.01
0
LINE
8
0
10
61
20
4.01
11
61
21
3.99
0
LINE
8
0
10
81.51
20
53.5
11
66.49
21
53.5
0
LINE
8
0
10
-7
20
-7.01
11
-7
21
58.01
0
ARC
8
0
10
9.51
20
-7.01
40
1.49
50
270
51
0
0
ARC
8
0
10
12.49
20
7.01
40
1.49
50
90
51
180
0
ARC
8
0
10
27.51
20
9.99
40
1.49
50
270
51
0
0
ARC
8
0
10
30.49
20
10.01
40
1.49
50
90
51
180
0
ARC
8
0
10
41.51
20
10.01
40
1.49
50
0
51
90
0
ARC
8
0
10
44.49
20
6.99
40
1.49
50
180
51
270
0
ARC
8
0
10
59.51
20
4.01
40
1.49
50
0
51
90
0
ARC
8
0
10
62.49
20
3.99
40
1.49
50
180
51
270
0
ARC
8
0
10
81.51
20
3.99
40
1.49
50
270
51
0
0
ARC
8
0
10
81.51
20
52.01
40
1.49
50
0
51
90
0
ARC
8
0
10
66.49
20
54.99
40
1.49
50
180
51
270
0
ARC
8
0
10
63.51
20
55.01
40
1.49
50
0
51
90
0
ARC
8
0
10
48.49
20
57.99
40
1.49
50
180
51
270
0
ARC
8
0
10
45.51
20
61.01
40
1.49
50
0
51
90
0
ARC
8
0
10
26.49
20
61.01
40
1.49
50
90
51
180
0
ARC
8
0
10
23.51
20
60.99
40
1.49
50
270
51
0
0
ARC
8
0
10
-5.51
20
58.01
40
1.49
50
90
51
180
0
ARC
8
0
10
-5.51
20
-7.01
40
1.49
50
180
51
270
0
ENDSEC
0
EOF