%TF.GenerationSoftware,KiCad,Pcbnew,7.0.6-0*%
%TF.CreationDate,2023-08-01T13:28:46+08:00*%
%TF.ProjectId,left,6c656674-2e6b-4696-9361-645f70636258,v1.0.0*%
%TF.SameCoordinates,Original*%
%TF.FileFunction,Paste,Bot*%
%TF.FilePolarity,Positive*%
%FSLAX46Y46*%
G04 Gerber Fmt 4.6, Leading zero omitted, Abs format (unit mm)*
G04 Created by KiCad (PCBNEW 7.0.6-0) date 2023-08-01 13:28:46*
%MOMM*%
%LPD*%
G01*
G04 APERTURE LIST*
G04 Aperture macros list*
%AMRoundRect*
0 Rectangle with rounded corners*
0 $1 Rounding radius*
0 $2 $3 $4 $5 $6 $7 $8 $9 X,Y pos of 4 corners*
0 Add a 4 corners polygon primitive as box body*
4,1,4,$2,$3,$4,$5,$6,$7,$8,$9,$2,$3,0*
0 Add four circle primitives for the rounded corners*
1,1,$1+$1,$2,$3*
1,1,$1+$1,$4,$5*
1,1,$1+$1,$6,$7*
1,1,$1+$1,$8,$9*
0 Add four rect primitives between the rounded corners*
20,1,$1+$1,$2,$3,$4,$5,0*
20,1,$1+$1,$4,$5,$6,$7,0*
20,1,$1+$1,$6,$7,$8,$9,0*
20,1,$1+$1,$8,$9,$2,$3,0*%
G04 Aperture macros list end*
%ADD10R,0.600000X0.700000*%
%ADD11R,1.200000X1.800000*%
%ADD12RoundRect,0.381000X0.381000X-0.619000X0.381000X0.619000X-0.381000X0.619000X-0.381000X-0.619000X0*%
%ADD13RoundRect,0.378000X0.378000X-0.622000X0.378000X0.622000X-0.378000X0.622000X-0.378000X-0.622000X0*%
%ADD14RoundRect,0.150000X-0.625000X0.150000X-0.625000X-0.150000X0.625000X-0.150000X0.625000X0.150000X0*%
%ADD15RoundRect,0.250000X-0.650000X0.350000X-0.650000X-0.350000X0.650000X-0.350000X0.650000X0.350000X0*%
%ADD16R,2.600000X2.600000*%
G04 APERTURE END LIST*
D10*
%TO.C,D1*%
X74900000Y42400000D03*
X76300000Y42400000D03*
%TD*%
%TO.C,D2*%
X74900000Y25400000D03*
X76300000Y25400000D03*
%TD*%
%TO.C,D3*%
X4700000Y48000000D03*
X3300000Y48000000D03*
%TD*%
D11*
%TO.C,SS1*%
X18000000Y30250000D03*
X20500000Y24250000D03*
X23000000Y30250000D03*
%TD*%
D12*
%TO.C,SB1*%
X13500000Y26750000D03*
D13*
X13500000Y30250000D03*
%TD*%
D14*
%TO.C,JB1*%
X12000000Y12500000D03*
X12000000Y13500000D03*
D15*
X15875000Y11200000D03*
X15875000Y14800000D03*
%TD*%
D14*
%TO.C,JC1*%
X30000000Y29500000D03*
X30000000Y30500000D03*
X30000000Y31500000D03*
X30000000Y32500000D03*
X30000000Y33500000D03*
D15*
X33875000Y34800000D03*
X33875000Y28200000D03*
%TD*%
D16*
%TO.C,S3*%
X-3275000Y39950000D03*
X8275000Y37750000D03*
%TD*%
D10*
%TO.C,D4*%
X-2900000Y36600000D03*
X-4300000Y36600000D03*
%TD*%
D16*
%TO.C,S4*%
X-3275000Y22950000D03*
X8275000Y20750000D03*
%TD*%
D10*
%TO.C,D5*%
X-2900000Y19600000D03*
X-4300000Y19600000D03*
%TD*%
D16*
%TO.C,S5*%
X-3275000Y5950000D03*
X8275000Y3750000D03*
%TD*%
D10*
%TO.C,D6*%
X-2900000Y2600000D03*
X-4300000Y2600000D03*
%TD*%
D16*
%TO.C,S6*%
X14725000Y56950000D03*
X26275000Y54750000D03*
%TD*%
D10*
%TO.C,D7*%
X15100000Y53600000D03*
X13700000Y53600000D03*
%TD*%
D16*
%TO.C,S7*%
X14725000Y39950000D03*
X26275000Y37750000D03*
%TD*%
D10*
%TO.C,D8*%
X15100000Y36600000D03*
X13700000Y36600000D03*
%TD*%
D16*
%TO.C,S8*%
X14725000Y22950000D03*
X26275000Y20750000D03*
%TD*%
D10*
%TO.C,D9*%
X15100000Y19600000D03*
X13700000Y19600000D03*
%TD*%
D16*
%TO.C,S9*%
X39275000Y48050000D03*
X27725000Y50250000D03*
%TD*%
D10*
%TO.C,D10*%
X38900000Y51400000D03*
X40300000Y51400000D03*
%TD*%
D16*
%TO.C,S10*%
X32725000Y42950000D03*
X44275000Y40750000D03*
%TD*%
D10*
%TO.C,D11*%
X33100000Y39600000D03*
X31700000Y39600000D03*
%TD*%
D16*
%TO.C,S11*%
X32725000Y25950000D03*
X44275000Y23750000D03*
%TD*%
D10*
%TO.C,D12*%
X33100000Y22600000D03*
X31700000Y22600000D03*
%TD*%
D16*
%TO.C,S12*%
X57275000Y42050000D03*
X45725000Y44250000D03*
%TD*%
D10*
%TO.C,D13*%
X56900000Y45400000D03*
X58300000Y45400000D03*
%TD*%
D16*
%TO.C,S13*%
X57275000Y25050000D03*
X45725000Y27250000D03*
%TD*%
D10*
%TO.C,D14*%
X56900000Y28400000D03*
X58300000Y28400000D03*
%TD*%
D16*
%TO.C,S14*%
X50725000Y19950000D03*
X62275000Y17750000D03*
%TD*%
D10*
%TO.C,D15*%
X51100000Y16600000D03*
X49700000Y16600000D03*
%TD*%
D16*
%TO.C,S15*%
X68725000Y16950000D03*
X80275000Y14750000D03*
%TD*%
D10*
%TO.C,D16*%
X69100000Y13600000D03*
X67700000Y13600000D03*
%TD*%
M02*
