M48
; DRILL file {KiCad 7.0.6-0} date 2023 August 01, Tuesday 13:28:43
; FORMAT={-:-/ absolute / inch / decimal}
; #@! TF.CreationDate,2023-08-01T13:28:43+08:00
; #@! TF.GenerationSoftware,Kicad,Pcbnew,7.0.6-0
; #@! TF.FileFunction,NonPlated,1,2,NPTH
FMAT,2
INCH
; #@! TA.AperFunction,NonPlated,NPTH,ComponentDrill
T1C0.0670
; #@! TA.AperFunction,NonPlated,NPTH,ComponentDrill
T2C0.0866
; #@! TA.AperFunction,NonPlated,NPTH,ComponentDrill
T3C0.1181
; #@! TA.AperFunction,NonPlated,NPTH,ComponentDrill
T4C0.1350
%
G90
G05
T1
X-0.2165Y1.3386
X-0.2165Y0.6693
X-0.2165Y0.0
X0.2165Y1.3386
X0.2165Y0.6693
X0.2165Y0.0
X0.4921Y2.0079
X0.4921Y1.3386
X0.4921Y0.6693
X0.9252Y2.0079
X0.9252Y1.3386
X0.9252Y0.6693
X1.2008Y2.126
X1.2008Y1.4567
X1.2008Y0.7874
X1.6339Y2.126
X1.6339Y1.4567
X1.6339Y0.7874
X1.9094Y1.8898
X1.9094Y1.2205
X1.9094Y0.5512
X2.3425Y1.8898
X2.3425Y1.2205
X2.3425Y0.5512
X2.6181Y1.7717
X2.6181Y1.1024
X2.6181Y0.4331
X3.0512Y1.7717
X3.0512Y1.1024
X3.0512Y0.4331
T2
X0.3543Y1.6732
X0.3543Y0.3346
X1.063Y1.7913
X1.063Y0.4528
X2.3819Y1.5551
T3
X0.0Y1.5728
X0.0Y0.9035
X0.0Y0.2343
X0.1969Y1.4862
X0.1969Y0.8169
X0.1969Y0.1476
X0.7087Y2.2421
X0.7087Y1.5728
X0.7087Y0.9035
X0.9055Y2.1555
X0.9055Y1.4862
X0.9055Y0.8169
X1.2205Y1.9783
X1.4173Y1.8917
X1.4173Y1.6909
X1.4173Y1.0217
X1.6142Y1.6043
X1.6142Y0.935
X1.9291Y1.7421
X1.9291Y1.0728
X2.126Y1.6555
X2.126Y0.9862
X2.126Y0.7854
X2.3228Y0.6988
X2.8346Y0.6673
X3.0315Y0.5807
T4
X0.0Y2.0079
X0.0Y1.3386
X0.0Y0.6693
X0.0Y0.0
X0.7087Y2.0079
X0.7087Y1.3386
X0.7087Y0.6693
X1.4173Y2.126
X1.4173Y1.4567
X1.4173Y0.7874
X2.126Y1.8898
X2.126Y1.2205
X2.126Y0.5512
X2.8346Y1.7717
X2.8346Y1.1024
X2.8346Y0.4331
T0
M30
