0
SECTION
2
HEADER
9
$INSUNITS
70
4
0
ENDSEC
0
SECTION
2
TABLES
0
TABLE
2
LTYPE
0
LTYPE
72
65
70
64
2
CONTINUOUS
3
______
73
0
40
0
0
ENDTAB
0
TABLE
2
LAYER
0
ENDTAB
0
ENDSEC
0
SECTION
2
ENTITIES
0
LINE
8
0
10
-6.9
20
-6.9
11
6.9
21
-6.9
0
LINE
8
0
10
6.9
20
-6.9
11
6.9
21
6.9
0
LINE
8
0
10
6.9
20
6.9
11
-6.9
21
6.9
0
LINE
8
0
10
-6.9
20
6.9
11
-6.9
21
-6.9
0
LINE
8
0
10
-6.9
20
10.1
11
6.9
21
10.1
0
LINE
8
0
10
6.9
20
10.1
11
6.9
21
23.9
0
LINE
8
0
10
6.9
20
23.9
11
-6.9
21
23.9
0
LINE
8
0
10
-6.9
20
23.9
11
-6.9
21
10.1
0
LINE
8
0
10
-6.9
20
27.1
11
6.9
21
27.1
0
LINE
8
0
10
6.9
20
27.1
11
6.9
21
40.9
0
LINE
8
0
10
6.9
20
40.9
11
-6.9
21
40.9
0
LINE
8
0
10
-6.9
20
40.9
11
-6.9
21
27.1
0
LINE
8
0
10
-6.9
20
44.1
11
6.9
21
44.1
0
LINE
8
0
10
6.9
20
44.1
11
6.9
21
57.9
0
LINE
8
0
10
6.9
20
57.9
11
-6.9
21
57.9
0
LINE
8
0
10
-6.9
20
57.9
11
-6.9
21
44.1
0
LINE
8
0
10
11.1
20
10.1
11
24.9
21
10.1
0
LINE
8
0
10
24.9
20
10.1
11
24.9
21
23.9
0
LINE
8
0
10
24.9
20
23.9
11
11.1
21
23.9
0
LINE
8
0
10
11.1
20
23.9
11
11.1
21
10.1
0
LINE
8
0
10
11.1
20
27.1
11
24.9
21
27.1
0
LINE
8
0
10
24.9
20
27.1
11
24.9
21
40.9
0
LINE
8
0
10
24.9
20
40.9
11
11.1
21
40.9
0
LINE
8
0
10
11.1
20
40.9
11
11.1
21
27.1
0
LINE
8
0
10
11.1
20
44.1
11
24.9
21
44.1
0
LINE
8
0
10
24.9
20
44.1
11
24.9
21
57.9
0
LINE
8
0
10
24.9
20
57.9
11
11.1
21
57.9
0
LINE
8
0
10
11.1
20
57.9
11
11.1
21
44.1
0
LINE
8
0
10
29.1
20
13.1
11
42.9
21
13.1
0
LINE
8
0
10
42.9
20
13.1
11
42.9
21
26.9
0
LINE
8
0
10
42.9
20
26.9
11
29.1
21
26.9
0
LINE
8
0
10
29.1
20
26.9
11
29.1
21
13.1
0
LINE
8
0
10
29.1
20
30.1
11
42.9
21
30.1
0
LINE
8
0
10
42.9
20
30.1
11
42.9
21
43.9
0
LINE
8
0
10
42.9
20
43.9
11
29.1
21
43.9
0
LINE
8
0
10
29.1
20
43.9
11
29.1
21
30.1
0
LINE
8
0
10
29.1
20
47.1
11
42.9
21
47.1
0
LINE
8
0
10
42.9
20
47.1
11
42.9
21
60.9
0
LINE
8
0
10
42.9
20
60.9
11
29.1
21
60.9
0
LINE
8
0
10
29.1
20
60.9
11
29.1
21
47.1
0
LINE
8
0
10
47.1
20
7.1
11
60.9
21
7.1
0
LINE
8
0
10
60.9
20
7.1
11
60.9
21
20.9
0
LINE
8
0
10
60.9
20
20.9
11
47.1
21
20.9
0
LINE
8
0
10
47.1
20
20.9
11
47.1
21
7.1
0
LINE
8
0
10
47.1
20
24.1
11
60.9
21
24.1
0
LINE
8
0
10
60.9
20
24.1
11
60.9
21
37.9
0
LINE
8
0
10
60.9
20
37.9
11
47.1
21
37.9
0
LINE
8
0
10
47.1
20
37.9
11
47.1
21
24.1
0
LINE
8
0
10
47.1
20
41.1
11
60.9
21
41.1
0
LINE
8
0
10
60.9
20
41.1
11
60.9
21
54.9
0
LINE
8
0
10
60.9
20
54.9
11
47.1
21
54.9
0
LINE
8
0
10
47.1
20
54.9
11
47.1
21
41.1
0
LINE
8
0
10
65.1
20
4.1
11
78.9
21
4.1
0
LINE
8
0
10
78.9
20
4.1
11
78.9
21
17.9
0
LINE
8
0
10
78.9
20
17.9
11
65.1
21
17.9
0
LINE
8
0
10
65.1
20
17.9
11
65.1
21
4.1
0
LINE
8
0
10
65.1
20
21.1
11
78.9
21
21.1
0
LINE
8
0
10
78.9
20
21.1
11
78.9
21
34.9
0
LINE
8
0
10
78.9
20
34.9
11
65.1
21
34.9
0
LINE
8
0
10
65.1
20
34.9
11
65.1
21
21.1
0
LINE
8
0
10
65.1
20
38.1
11
78.9
21
38.1
0
LINE
8
0
10
78.9
20
38.1
11
78.9
21
51.9
0
LINE
8
0
10
78.9
20
51.9
11
65.1
21
51.9
0
LINE
8
0
10
65.1
20
51.9
11
65.1
21
38.1
0
ENDSEC
0
EOF