M48
; DRILL file {KiCad 7.0.6-0} date 2023 August 01, Tuesday 13:28:43
; FORMAT={-:-/ absolute / inch / decimal}
; #@! TF.CreationDate,2023-08-01T13:28:43+08:00
; #@! TF.GenerationSoftware,Kicad,Pcbnew,7.0.6-0
; #@! TF.FileFunction,Plated,1,2,PTH
FMAT,2
INCH
; #@! TA.AperFunction,Plated,PTH,ComponentDrill
T1C0.0118
; #@! TA.AperFunction,Plated,PTH,ViaDrill
T2C0.0157
; #@! TA.AperFunction,Plated,PTH,ComponentDrill
T3C0.0394
; #@! TA.AperFunction,Plated,PTH,ComponentDrill
T4C0.0430
; #@! TA.AperFunction,Plated,PTH,ComponentDrill
T5C0.0500
; #@! TA.AperFunction,Plated,PTH,ComponentDrill
T6C0.0670
%
G90
G05
T1
X-0.1289Y1.5728
X-0.1289Y0.9035
X-0.1289Y0.2343
X0.3258Y1.4862
X0.3258Y0.8169
X0.3258Y0.1476
X0.5797Y2.2421
X0.5797Y1.5728
X0.5797Y0.9035
X1.0344Y2.1555
X1.0344Y1.4862
X1.0344Y0.8169
X1.0915Y1.9783
X1.2884Y1.6909
X1.2884Y1.0217
X1.5463Y1.8917
X1.7431Y1.6043
X1.7431Y0.935
X1.8002Y1.7421
X1.8002Y1.0728
X1.997Y0.7854
X2.2549Y1.6555
X2.2549Y0.9862
X2.4518Y0.6988
X2.7057Y0.6673
X3.1604Y0.5807
T2
X-0.1378Y2.0906
X-0.1142Y1.4921
X0.126Y1.063
X0.1299Y1.9606
X0.2109Y1.7345
X0.2559Y1.7677
X0.2953Y1.9094
X0.2992Y2.2677
X0.3027Y2.3115
X0.3858Y0.5394
X0.4449Y1.0276
X0.7835Y2.1496
X0.7874Y1.7913
X0.8071Y1.2717
X0.815Y0.8858
X0.815Y0.5
X0.8228Y2.2953
X0.843Y1.2557
X0.9606Y2.0847
X1.0748Y0.7244
X1.0787Y1.1496
X1.1102Y1.2441
X1.1457Y1.8937
X1.1969Y1.811
X1.2913Y1.1929
X1.3504Y1.5787
X1.5709Y1.2677
X1.5748Y1.0118
X1.6811Y2.2884
X1.7126Y1.9606
X1.7431Y1.311
X1.7559Y2.2441
X1.7638Y2.0157
X1.811Y2.2441
X1.811Y1.9872
X2.0157Y1.1693
X2.0315Y1.1024
X2.1614Y1.7874
X2.2402Y2.0394
X2.2441Y1.8543
X2.3701Y1.7874
X2.437Y2.0669
X2.4488Y1.2913
X2.5315Y2.0827
X2.7717Y1.1811
X2.9134Y0.5079
X2.9449Y1.0472
X2.9488Y1.7165
X2.9488Y1.315
X2.9488Y1.2047
X3.0709Y0.6732
X3.0748Y1.9587
X3.195Y1.9634
X3.2283Y1.9843
T3
X-0.1Y2.2787
X-0.1Y1.7079
X-0.0016Y1.7079
X0.0969Y2.2787
X0.0969Y1.7079
T4
X2.5346Y1.9083
X2.5346Y1.8083
X2.5346Y1.7083
X2.5346Y1.6083
X2.5346Y1.5083
X2.5346Y1.4083
X2.5346Y1.3083
X2.5346Y1.2083
X2.5346Y1.1083
X2.5346Y1.0083
X2.5346Y0.9083
X2.5346Y0.8083
X3.1346Y1.9083
X3.1346Y1.8083
X3.1346Y1.7083
X3.1346Y1.6083
X3.1346Y1.5083
X3.1346Y1.4083
X3.1346Y1.3083
X3.1346Y1.2083
X3.1346Y1.1083
X3.1346Y1.0083
X3.1346Y0.9083
X3.1346Y0.8083
T5
X0.0Y2.2402
X0.1969Y2.1575
X2.6378Y1.622
X2.6378Y0.9528
X2.8346Y1.5394
X2.8346Y0.8701
T6
X-0.2165Y2.0079
X0.2165Y2.0079
T0
M30
