%TF.GenerationSoftware,KiCad,Pcbnew,(7.0.0-0)*%
%TF.CreationDate,2023-02-22T17:52:02+08:00*%
%TF.ProjectId,right,72696768-742e-46b6-9963-61645f706362,v1.0.0*%
%TF.SameCoordinates,Original*%
%TF.FileFunction,Plated,1,2,PTH,Mixed*%
%TF.FilePolarity,Positive*%
%FSLAX46Y46*%
G04 Gerber Fmt 4.6, Leading zero omitted, Abs format (unit mm)*
G04 Created by KiCad (PCBNEW (7.0.0-0)) date 2023-02-22 17:52:02*
%MOMM*%
%LPD*%
G01*
G04 APERTURE LIST*
%TA.AperFunction,ComponentDrill*%
%ADD10C,0.300000*%
%TD*%
%TA.AperFunction,ViaDrill*%
%ADD11C,0.400000*%
%TD*%
%TA.AperFunction,ComponentDrill*%
%ADD12C,1.000000*%
%TD*%
%TA.AperFunction,ComponentDrill*%
%ADD13C,1.092200*%
%TD*%
%TA.AperFunction,ComponentDrill*%
%ADD14C,1.270000*%
%TD*%
G04 aperture for slot hole*
%TA.AperFunction,ComponentDrill*%
%ADD15O,1.500000X2.800000*%
%TD*%
G04 APERTURE END LIST*
D10*
%TO.C,S15*%
X-8275000Y-3750000D03*
X3275000Y-5950000D03*
%TO.C,S10*%
X14725000Y42950000D03*
%TO.C,S11*%
X14725000Y25950000D03*
%TO.C,S12*%
X14725000Y8950000D03*
%TO.C,S10*%
X26275000Y40750000D03*
%TO.C,S11*%
X26275000Y23750000D03*
%TO.C,S12*%
X26275000Y6750000D03*
%TO.C,S7*%
X32725000Y48950000D03*
%TO.C,S8*%
X32725000Y31950000D03*
%TO.C,S9*%
X32725000Y14950000D03*
%TO.C,S7*%
X44275000Y46750000D03*
%TO.C,S8*%
X44275000Y29750000D03*
%TO.C,S9*%
X44275000Y12750000D03*
%TO.C,S4*%
X50725000Y45950000D03*
%TO.C,S5*%
X50725000Y28950000D03*
%TO.C,S6*%
X50725000Y11950000D03*
%TO.C,S4*%
X62275000Y43750000D03*
%TO.C,S5*%
X62275000Y26750000D03*
%TO.C,S6*%
X62275000Y9750000D03*
%TO.C,S1*%
X63725000Y19250000D03*
%TO.C,S2*%
X63725000Y2250000D03*
%TO.C,S3*%
X63725000Y-14750000D03*
%TO.C,S1*%
X75275000Y17050000D03*
%TO.C,S2*%
X75275000Y50000D03*
%TO.C,S3*%
X75275000Y-16950000D03*
%TD*%
D11*
X-4250000Y41250000D03*
X0Y20000000D03*
X3000000Y19750000D03*
X3000000Y15750000D03*
X4200000Y34900000D03*
X5600000Y-2500000D03*
X5600000Y-6500000D03*
X6000000Y6000000D03*
X7100000Y-2200000D03*
X9500000Y33591300D03*
X10087957Y23686671D03*
X10224500Y30326800D03*
X12025000Y44275000D03*
X12400000Y23800000D03*
X15000000Y38250000D03*
X15000000Y33500000D03*
X16900000Y23400000D03*
X20500000Y32250000D03*
X20500000Y29000000D03*
X26275000Y16000000D03*
X29250000Y47500000D03*
X29250000Y18750000D03*
X29700000Y-800000D03*
X30000000Y13250000D03*
X32750000Y27250000D03*
X32750000Y21750000D03*
X38750000Y36750000D03*
X38750000Y31750000D03*
X40100000Y3000000D03*
X40649175Y10449175D03*
X44275000Y17750000D03*
X50100000Y3900000D03*
X51000000Y24000000D03*
X53400000Y-1999500D03*
X57700000Y18000000D03*
X60700000Y33200000D03*
X64475000Y36000000D03*
X69750000Y17750000D03*
X73500000Y-13500000D03*
X74750000Y21750000D03*
X75250000Y8250000D03*
X75500000Y41750000D03*
X76750000Y42750000D03*
X77500000Y-1750000D03*
X78262299Y19262299D03*
D12*
%TO.C,ROT1*%
X69460000Y46880000D03*
X69460000Y32380000D03*
X71960000Y32380000D03*
X74460000Y46880000D03*
X74460000Y32380000D03*
D13*
%TO.C,MCU1*%
X-7620000Y37470000D03*
X-7620000Y34930000D03*
X-7620000Y32390000D03*
X-7620000Y29850000D03*
X-7620000Y27310000D03*
X-7620000Y24770000D03*
X-7620000Y22230000D03*
X-7620000Y19690000D03*
X-7620000Y17150000D03*
X-7620000Y14610000D03*
X-7620000Y12070000D03*
X-7620000Y9530000D03*
X7620000Y37470000D03*
X7620000Y34930000D03*
X7620000Y32390000D03*
X7620000Y29850000D03*
X7620000Y27310000D03*
X7620000Y24770000D03*
X7620000Y22230000D03*
X7620000Y19690000D03*
X7620000Y17150000D03*
X7620000Y14610000D03*
X7620000Y12070000D03*
X7620000Y9530000D03*
D14*
%TO.C,S13*%
X-5000000Y30200000D03*
%TO.C,S14*%
X-5000000Y13200000D03*
%TO.C,S13*%
X0Y28100000D03*
%TO.C,S14*%
X0Y11100000D03*
D15*
%TO.C,ROT1*%
X66359999Y39879999D03*
X77559999Y39879999D03*
M02*
