0
SECTION
2
HEADER
9
$INSUNITS
70
4
0
ENDSEC
0
SECTION
2
TABLES
0
TABLE
2
LTYPE
0
LTYPE
72
65
70
64
2
CONTINUOUS
3
______
73
0
40
0
0
ENDTAB
0
TABLE
2
LAYER
0
ENDTAB
0
ENDSEC
0
SECTION
2
ENTITIES
0
LINE
8
0
10
-7
20
-7
11
7
21
-7
0
LINE
8
0
10
7
20
-7
11
7
21
7
0
LINE
8
0
10
7
20
7
11
-7
21
7
0
LINE
8
0
10
-7
20
7
11
-7
21
-7
0
LINE
8
0
10
-7
20
10
11
7
21
10
0
LINE
8
0
10
7
20
10
11
7
21
24
0
LINE
8
0
10
7
20
24
11
-7
21
24
0
LINE
8
0
10
-7
20
24
11
-7
21
10
0
LINE
8
0
10
-7
20
27
11
7
21
27
0
LINE
8
0
10
7
20
27
11
7
21
41
0
LINE
8
0
10
7
20
41
11
-7
21
41
0
LINE
8
0
10
-7
20
41
11
-7
21
27
0
LINE
8
0
10
11
20
-4
11
25
21
-4
0
LINE
8
0
10
25
20
-4
11
25
21
10
0
LINE
8
0
10
25
20
10
11
11
21
10
0
LINE
8
0
10
11
20
10
11
11
21
-4
0
LINE
8
0
10
11
20
13
11
25
21
13
0
LINE
8
0
10
25
20
13
11
25
21
27
0
LINE
8
0
10
25
20
27
11
11
21
27
0
LINE
8
0
10
11
20
27
11
11
21
13
0
LINE
8
0
10
11
20
30
11
25
21
30
0
LINE
8
0
10
25
20
30
11
25
21
44
0
LINE
8
0
10
25
20
44
11
11
21
44
0
LINE
8
0
10
11
20
44
11
11
21
30
0
LINE
8
0
10
29
20
2
11
43
21
2
0
LINE
8
0
10
43
20
2
11
43
21
16
0
LINE
8
0
10
43
20
16
11
29
21
16
0
LINE
8
0
10
29
20
16
11
29
21
2
0
LINE
8
0
10
29
20
19
11
43
21
19
0
LINE
8
0
10
43
20
19
11
43
21
33
0
LINE
8
0
10
43
20
33
11
29
21
33
0
LINE
8
0
10
29
20
33
11
29
21
19
0
LINE
8
0
10
29
20
36
11
43
21
36
0
LINE
8
0
10
43
20
36
11
43
21
50
0
LINE
8
0
10
43
20
50
11
29
21
50
0
LINE
8
0
10
29
20
50
11
29
21
36
0
LINE
8
0
10
47
20
-1
11
61
21
-1
0
LINE
8
0
10
61
20
-1
11
61
21
13
0
LINE
8
0
10
61
20
13
11
47
21
13
0
LINE
8
0
10
47
20
13
11
47
21
-1
0
LINE
8
0
10
47
20
16
11
61
21
16
0
LINE
8
0
10
61
20
16
11
61
21
30
0
LINE
8
0
10
61
20
30
11
47
21
30
0
LINE
8
0
10
47
20
30
11
47
21
16
0
LINE
8
0
10
47
20
33
11
61
21
33
0
LINE
8
0
10
61
20
33
11
61
21
47
0
LINE
8
0
10
61
20
47
11
47
21
47
0
LINE
8
0
10
47
20
47
11
47
21
33
0
LINE
8
0
10
65
20
-18
11
79
21
-18
0
LINE
8
0
10
79
20
-18
11
79
21
-4
0
LINE
8
0
10
79
20
-4
11
65
21
-4
0
LINE
8
0
10
65
20
-4
11
65
21
-18
0
LINE
8
0
10
65
20
-1
11
79
21
-1
0
LINE
8
0
10
79
20
-1
11
79
21
13
0
LINE
8
0
10
79
20
13
11
65
21
13
0
LINE
8
0
10
65
20
13
11
65
21
-1
0
LINE
8
0
10
65
20
16
11
79
21
16
0
LINE
8
0
10
79
20
16
11
79
21
30
0
LINE
8
0
10
79
20
30
11
65
21
30
0
LINE
8
0
10
65
20
30
11
65
21
16
0
LINE
8
0
10
65
20
33
11
79
21
33
0
LINE
8
0
10
79
20
33
11
79
21
47
0
LINE
8
0
10
79
20
47
11
65
21
47
0
LINE
8
0
10
65
20
47
11
65
21
33
0
ENDSEC
0
EOF