0
SECTION
2
HEADER
9
$INSUNITS
70
4
0
ENDSEC
0
SECTION
2
TABLES
0
TABLE
2
LTYPE
0
LTYPE
72
65
70
64
2
CONTINUOUS
3
______
73
0
40
0
0
ENDTAB
0
TABLE
2
LAYER
0
ENDTAB
0
ENDSEC
0
SECTION
2
ENTITIES
0
LINE
8
0
10
-9.51
20
-8.5
11
59.51
21
-8.5
0
LINE
8
0
10
-11
20
-7.01
11
-11
21
7
0
LINE
8
0
10
23.51
20
45.5
11
10
21
45.5
0
LINE
8
0
10
47
20
49.99
11
47
21
50.01
0
LINE
8
0
10
45.51
20
51.5
11
26.49
21
51.5
0
LINE
8
0
10
25
20
50.01
11
25
21
46.99
0
LINE
8
0
10
48.49
20
48.5
11
77.51
21
48.5
0
LINE
8
0
10
62.49
20
-19.5
11
77.51
21
-19.5
0
LINE
8
0
10
61
20
-9.99
11
61
21
-18.01
0
LINE
8
0
10
79
20
47.01
11
79
21
-18.01
0
ARC
8
0
10
59.51
20
-9.99
40
1.49
50
0
51
90
0
ARC
8
0
10
62.49
20
-18.01
40
1.49
50
180
51
270
0
ARC
8
0
10
77.51
20
-18.01
40
1.49
50
270
51
0
0
ARC
8
0
10
77.51
20
47.01
40
1.49
50
0
51
90
0
ARC
8
0
10
48.49
20
49.99
40
1.49
50
180
51
270
0
ARC
8
0
10
45.51
20
50.01
40
1.49
50
0
51
90
0
ARC
8
0
10
26.49
20
50.01
40
1.49
50
90
51
180
0
ARC
8
0
10
23.51
20
46.99
40
1.49
50
270
51
0
0
ARC
8
0
10
-9.51
20
-7.01
40
1.49
50
180
51
270
0
LINE
8
0
10
-11
20
7
11
10
21
7
0
LINE
8
0
10
10
20
7
11
10
21
45.5
0
LINE
8
0
10
44.5
20
14
11
57.5
21
14
0
LINE
8
0
10
57.5
20
14
11
57.5
21
21
0
LINE
8
0
10
57.5
20
21
11
44.5
21
21
0
LINE
8
0
10
44.5
20
21
11
44.5
21
14
0
LINE
8
0
10
26.5
20
-4
11
39.5
21
-4
0
LINE
8
0
10
39.5
20
-4
11
39.5
21
6
0
LINE
8
0
10
39.5
20
6
11
26.5
21
6
0
LINE
8
0
10
26.5
20
6
11
26.5
21
-4
0
CIRCLE
8
0
10
63
20
-2.5
40
1.1
0
CIRCLE
8
0
10
63
20
31.5
40
1.1
0
CIRCLE
8
0
10
45
20
0.5
40
1.1
0
CIRCLE
8
0
10
45
20
34.5
40
1.1
0
CIRCLE
8
0
10
9
20
3
40
1.1
0
CIRCLE
8
0
10
11.5
20
28.5
40
1.1
0
ENDSEC
0
EOF