%TF.GenerationSoftware,KiCad,Pcbnew,(7.0.0-0)*%
%TF.CreationDate,2023-02-22T17:52:08+08:00*%
%TF.ProjectId,right,72696768-742e-46b6-9963-61645f706362,v1.0.0*%
%TF.SameCoordinates,Original*%
%TF.FileFunction,Paste,Bot*%
%TF.FilePolarity,Positive*%
%FSLAX46Y46*%
G04 Gerber Fmt 4.6, Leading zero omitted, Abs format (unit mm)*
G04 Created by KiCad (PCBNEW (7.0.0-0)) date 2023-02-22 17:52:08*
%MOMM*%
%LPD*%
G01*
G04 APERTURE LIST*
G04 Aperture macros list*
%AMRoundRect*
0 Rectangle with rounded corners*
0 $1 Rounding radius*
0 $2 $3 $4 $5 $6 $7 $8 $9 X,Y pos of 4 corners*
0 Add a 4 corners polygon primitive as box body*
4,1,4,$2,$3,$4,$5,$6,$7,$8,$9,$2,$3,0*
0 Add four circle primitives for the rounded corners*
1,1,$1+$1,$2,$3*
1,1,$1+$1,$4,$5*
1,1,$1+$1,$6,$7*
1,1,$1+$1,$8,$9*
0 Add four rect primitives between the rounded corners*
20,1,$1+$1,$2,$3,$4,$5,0*
20,1,$1+$1,$4,$5,$6,$7,0*
20,1,$1+$1,$6,$7,$8,$9,0*
20,1,$1+$1,$8,$9,$2,$3,0*%
G04 Aperture macros list end*
%ADD10R,2.600000X2.600000*%
%ADD11R,0.600000X0.700000*%
%ADD12R,0.600000X1.524000*%
%ADD13R,1.200000X0.700000*%
%ADD14RoundRect,0.381000X0.619000X0.381000X-0.619000X0.381000X-0.619000X-0.381000X0.619000X-0.381000X0*%
%ADD15RoundRect,0.378000X0.622000X0.378000X-0.622000X0.378000X-0.622000X-0.378000X0.622000X-0.378000X0*%
%ADD16RoundRect,0.150000X0.625000X-0.150000X0.625000X0.150000X-0.625000X0.150000X-0.625000X-0.150000X0*%
%ADD17RoundRect,0.250000X0.650000X-0.350000X0.650000X0.350000X-0.650000X0.350000X-0.650000X-0.350000X0*%
G04 APERTURE END LIST*
D10*
%TO.C,S1*%
X75274999Y17049999D03*
X63724999Y19249999D03*
%TD*%
D11*
%TO.C,D1*%
X74899999Y20399999D03*
X76299999Y20399999D03*
%TD*%
D10*
%TO.C,S2*%
X75274999Y49999D03*
X63724999Y2249999D03*
%TD*%
D11*
%TO.C,D2*%
X74899999Y3399999D03*
X76299999Y3399999D03*
%TD*%
D10*
%TO.C,S3*%
X75274999Y-16949999D03*
X63724999Y-14749999D03*
%TD*%
D11*
%TO.C,D3*%
X74899999Y-13599999D03*
X76299999Y-13599999D03*
%TD*%
D10*
%TO.C,S4*%
X50724999Y45949999D03*
X62274999Y43749999D03*
%TD*%
D11*
%TO.C,D4*%
X51099999Y42599999D03*
X49699999Y42599999D03*
%TD*%
D10*
%TO.C,S5*%
X50724999Y28949999D03*
X62274999Y26749999D03*
%TD*%
D11*
%TO.C,D5*%
X51099999Y25599999D03*
X49699999Y25599999D03*
%TD*%
D10*
%TO.C,S6*%
X50724999Y11949999D03*
X62274999Y9749999D03*
%TD*%
D11*
%TO.C,D6*%
X51099999Y8599999D03*
X49699999Y8599999D03*
%TD*%
D10*
%TO.C,S7*%
X32724999Y48949999D03*
X44274999Y46749999D03*
%TD*%
D11*
%TO.C,D7*%
X33099999Y45599999D03*
X31699999Y45599999D03*
%TD*%
D10*
%TO.C,S8*%
X32724999Y31949999D03*
X44274999Y29749999D03*
%TD*%
D11*
%TO.C,D8*%
X33099999Y28599999D03*
X31699999Y28599999D03*
%TD*%
D10*
%TO.C,S9*%
X32724999Y14949999D03*
X44274999Y12749999D03*
%TD*%
D11*
%TO.C,D9*%
X33099999Y11599999D03*
X31699999Y11599999D03*
%TD*%
D10*
%TO.C,S10*%
X14724999Y42949999D03*
X26274999Y40749999D03*
%TD*%
D11*
%TO.C,D10*%
X15099999Y39599999D03*
X13699999Y39599999D03*
%TD*%
D10*
%TO.C,S11*%
X14724999Y25949999D03*
X26274999Y23749999D03*
%TD*%
D11*
%TO.C,D11*%
X15099999Y22599999D03*
X13699999Y22599999D03*
%TD*%
D10*
%TO.C,S12*%
X14724999Y8949999D03*
X26274999Y6749999D03*
%TD*%
D11*
%TO.C,D12*%
X15099999Y5599999D03*
X13699999Y5599999D03*
%TD*%
%TO.C,D13*%
X2899999Y31399999D03*
X4299999Y31399999D03*
%TD*%
%TO.C,D14*%
X2899999Y14399999D03*
X4299999Y14399999D03*
%TD*%
D10*
%TO.C,S15*%
X3274999Y-5949999D03*
X-8274999Y-3749999D03*
%TD*%
D11*
%TO.C,D15*%
X2899999Y-2599999D03*
X4299999Y-2599999D03*
%TD*%
%TO.C,D16*%
X76699999Y43999999D03*
X75299999Y43999999D03*
%TD*%
D12*
%TO.C,SS1*%
X56249999Y-3679999D03*
X53249999Y-3679999D03*
X51749999Y-3679999D03*
D13*
X57599999Y-7079999D03*
X57599999Y-4779999D03*
X50399999Y-7079999D03*
X50399999Y-4779999D03*
%TD*%
D14*
%TO.C,SB1*%
X29750000Y50000000D03*
D15*
X26250000Y50000000D03*
%TD*%
D16*
%TO.C,JB1*%
X56000000Y18000000D03*
X56000000Y17000000D03*
D17*
X52125000Y19300000D03*
X52125000Y15700000D03*
%TD*%
D16*
%TO.C,JC1*%
X38000000Y3000000D03*
X38000000Y2000000D03*
X38000000Y1000000D03*
X38000000Y0D03*
X38000000Y-1000000D03*
D17*
X34125000Y-2300000D03*
X34125000Y4300000D03*
%TD*%
M02*
