%TF.GenerationSoftware,KiCad,Pcbnew,(7.0.0-0)*%
%TF.CreationDate,2023-02-22T17:52:08+08:00*%
%TF.ProjectId,right,72696768-742e-46b6-9963-61645f706362,v1.0.0*%
%TF.SameCoordinates,Original*%
%TF.FileFunction,Profile,NP*%
%FSLAX46Y46*%
G04 Gerber Fmt 4.6, Leading zero omitted, Abs format (unit mm)*
G04 Created by KiCad (PCBNEW (7.0.0-0)) date 2023-02-22 17:52:08*
%MOMM*%
%LPD*%
G01*
G04 APERTURE LIST*
%TA.AperFunction,Profile*%
%ADD10C,0.150000*%
%TD*%
G04 APERTURE END LIST*
D10*
X-9510000Y-8500000D02*
X59510000Y-8500000D01*
X-11000000Y-7010000D02*
X-11000000Y41010000D01*
X5510000Y42500000D02*
X-9510000Y42500000D01*
X23510000Y45500000D02*
X8490000Y45500000D01*
X7000000Y44010000D02*
X7000000Y43990000D01*
X47000000Y49990000D02*
X47000000Y50010000D01*
X45510000Y51500000D02*
X26490000Y51500000D01*
X25000000Y50010000D02*
X25000000Y46990000D01*
X48490000Y48500000D02*
X77510000Y48500000D01*
X62490000Y-19500000D02*
X77510000Y-19500000D01*
X61000000Y-9990000D02*
X61000000Y-18010000D01*
X79000000Y47010000D02*
X79000000Y-18010000D01*
X61000000Y-9990000D02*
G75*
G03*
X59510000Y-8500000I-1490000J0D01*
G01*
X61000000Y-18010000D02*
G75*
G03*
X62490000Y-19500000I1490000J0D01*
G01*
X77510000Y-19500000D02*
G75*
G03*
X79000000Y-18010000I0J1490000D01*
G01*
X79000000Y47010000D02*
G75*
G03*
X77510000Y48500000I-1490000J0D01*
G01*
X47000000Y49990000D02*
G75*
G03*
X48490000Y48500000I1490000J0D01*
G01*
X47000000Y50010000D02*
G75*
G03*
X45510000Y51500000I-1490000J0D01*
G01*
X26490000Y51500000D02*
G75*
G03*
X25000000Y50010000I0J-1490000D01*
G01*
X23510000Y45500000D02*
G75*
G03*
X25000000Y46990000I0J1490000D01*
G01*
X8490000Y45500000D02*
G75*
G03*
X7000000Y44010000I0J-1490000D01*
G01*
X5510000Y42500000D02*
G75*
G03*
X7000000Y43990000I0J1490000D01*
G01*
X-9510000Y42500000D02*
G75*
G03*
X-11000000Y41010000I0J-1490000D01*
G01*
X-11000000Y-7010000D02*
G75*
G03*
X-9510000Y-8500000I1490000J0D01*
G01*
M02*
