0
SECTION
2
HEADER
9
$INSUNITS
70
4
9
$ACADVER
1
AC1014
9
$HANDSEED
5
FFFF
0
ENDSEC
0
SECTION
2
TABLES
0
TABLE
2
VPORT
5
8
100
AcDbSymbolTable
0
ENDTAB
0
TABLE
2
LTYPE
5
5
100
AcDbSymbolTable
0
LTYPE
5
14
100
AcDbSymbolTableRecord
100
AcDbLinetypeTableRecord
2
BYBLOCK
70
0
0
LTYPE
5
15
100
AcDbSymbolTableRecord
100
AcDbLinetypeTableRecord
2
BYLAYER
70
0
0
ENDTAB
0
TABLE
2
LAYER
5
2
100
AcDbSymbolTable
70
2
0
LAYER
5
50
100
AcDbSymbolTableRecord
100
AcDbLayerTableRecord
2
0
70
0
6
CONTINUOUS
0
ENDTAB
0
TABLE
2
STYLE
5
3
100
AcDbSymbolTable
70
1
0
STYLE
5
11
100
AcDbSymbolTableRecord
100
AcDbTextStyleTableRecord
2
STANDARD
70
0
0
ENDTAB
0
TABLE
2
VIEW
5
6
100
AcDbSymbolTable
70
0
0
ENDTAB
0
TABLE
2
UCS
5
7
100
AcDbSymbolTable
70
0
0
ENDTAB
0
TABLE
2
APPID
5
9
100
AcDbSymbolTable
70
2
0
APPID
5
12
100
AcDbSymbolTableRecord
100
AcDbRegAppTableRecord
2
ACAD
70
0
0
ENDTAB
0
TABLE
2
DIMSTYLE
5
A
100
AcDbSymbolTable
70
1
0
ENDTAB
0
TABLE
2
BLOCK_RECORD
5
1
100
AcDbSymbolTable
70
1
0
BLOCK_RECORD
5
1F
100
AcDbSymbolTableRecord
100
AcDbBlockTableRecord
2
*MODEL_SPACE
0
BLOCK_RECORD
5
1B
100
AcDbSymbolTableRecord
100
AcDbBlockTableRecord
2
*PAPER_SPACE
0
ENDTAB
0
ENDSEC
0
SECTION
2
BLOCKS
0
BLOCK
5
20
100
AcDbEntity
100
AcDbBlockBegin
2
*MODEL_SPACE
0
ENDBLK
5
21
100
AcDbEntity
100
AcDbBlockEnd
0
BLOCK
5
1C
100
AcDbEntity
100
AcDbBlockBegin
2
*PAPER_SPACE
0
ENDBLK
5
1D
100
AcDbEntity
100
AcDbBlockEnd
0
ENDSEC
0
SECTION
2
ENTITIES
0
LWPOLYLINE
5
100
100
AcDbEntity
8
0
100
AcDbPolyline
90
27
70
1
43
0.0
10
59.100000016624115
20
-32.554804442266651
10
59.100000016624115
20
-29.249999952502549
10
58.010468614634078
20
-29.249999952502549
42
0.092625040529588906
10
57.792462120245879
20
-28.931801948466038
10
57.118198051533959
20
-28.257537879754125
42
0.13102440246391742
10
56.650000000004326
20
-27.986452161656288
10
56.650000000004326
20
-26.25
10
53.350000000004307
20
-26.25
10
53.350000000004307
20
-27.986452161653965
42
0.13102440246605887
10
52.881801948466091
20
-28.257537879754114
10
52.207537879754085
20
-28.931801948466092
42
0.19891236737963114
10
51.900000000000006
20
-29.674264068711913
10
51.900000000000006
20
-32.425735931288095
42
0.19891236737965143
10
52.207537879754121
20
-33.168198051533928
10
52.881801948466105
20
-33.842462120245919
42
0.19891236737964066
10
53.624264068711952
20
-34.149999999999999
10
53.759576072637557
20
-34.149999999999999
42
-0.37333963451749425
10
54.149999999992822
20
-34.599999999984753
10
54.149999999992822
20
-37.499999999977199
42
0.38610128825003603
10
55.550000000000011
20
-39.0427248620542
10
55.550000000000011
20
-40.750000000000021
10
58.850000000000023
20
-40.750000000000021
10
58.850000000000023
20
-39.042724862054186
42
0.38610128824863321
10
60.250000000007176
20
-37.499999999984759
10
60.250000000007169
20
-36.901908957365663
42
3.9832404096840195
10
60.250000000007169
20
-36.098091042634351
10
60.250000000007176
20
-34.199999999984755
42
0.31485504202229758
0
LWPOLYLINE
5
101
100
AcDbEntity
8
0
100
AcDbPolyline
90
27
70
1
43
0.0
10
76.100000016624108
20
-32.554804442266636
10
76.100000016624108
20
-29.249999952502549
10
75.010468614634092
20
-29.249999952502549
42
0.092625040529613414
10
74.792462120245887
20
-28.931801948466035
10
74.118198051533938
20
-28.257537879754114
42
0.1310244024639069
10
73.650000000004326
20
-27.986452161656295
10
73.650000000004326
20
-26.25
10
70.350000000004314
20
-26.25
10
70.350000000004314
20
-27.986452161653958
42
0.13102440246607275
10
69.881801948466077
20
-28.257537879754114
10
69.207537879754113
20
-28.931801948466067
42
0.19891236737966225
10
68.90000000000002
20
-29.674264068711921
10
68.900000000000006
20
-32.425735931288095
42
0.19891236737965143
10
69.207537879754128
20
-33.168198051533928
10
69.881801948466091
20
-33.842462120245912
42
0.19891236737964985
10
70.624264068711952
20
-34.149999999999991
10
70.759576072637557
20
-34.149999999999999
42
-0.37333963451749425
10
71.149999999992829
20
-34.599999999984753
10
71.149999999992829
20
-37.499999999977199
42
0.38610128825003837
10
72.550000000000011
20
-39.042724862054193
10
72.550000000000011
20
-40.750000000000021
10
75.850000000000023
20
-40.750000000000021
10
75.850000000000023
20
-39.042724862054186
42
0.38610128824862611
10
77.250000000007176
20
-37.499999999984759
10
77.250000000007176
20
-36.901908957365663
42
3.9832404096839595
10
77.250000000007176
20
-36.098091042634351
10
77.250000000007176
20
-34.199999999984755
42
0.31485504202229875
0
CIRCLE
5
102
100
AcDbEntity
8
0
100
AcDbCircle
10
44
20
-49
30
0
40
1.714500000000001
210
0
220
-0
230
1
0
CIRCLE
5
103
100
AcDbEntity
8
0
100
AcDbCircle
10
61.000000000000007
20
-25.500000000000004
30
0
40
0.8509000000000011
210
0
220
-0
230
1
0
CIRCLE
5
104
100
AcDbEntity
8
0
100
AcDbCircle
10
44
20
-31
30
0
40
1.714500000000001
210
0
220
-0
230
1
0
CIRCLE
5
105
100
AcDbEntity
8
0
100
AcDbCircle
10
44
20
-54.5
30
0
40
0.8509000000000011
210
0
220
-0
230
1
0
CIRCLE
5
106
100
AcDbEntity
8
0
100
AcDbCircle
10
61.000000000000007
20
-31
30
0
40
1.714500000000001
210
0
220
-0
230
1
0
CIRCLE
5
107
100
AcDbEntity
8
0
100
AcDbCircle
10
44
20
-25.500000000000004
30
0
40
0.8509000000000011
210
0
220
-0
230
1
0
CIRCLE
5
108
100
AcDbEntity
8
0
100
AcDbCircle
10
78
20
-54.5
30
0
40
0.8509000000000011
210
0
220
-0
230
1
0
CIRCLE
5
109
100
AcDbEntity
8
0
100
AcDbCircle
10
78
20
-31
30
0
40
1.714500000000001
210
0
220
-0
230
1
0
CIRCLE
5
110
100
AcDbEntity
8
0
100
AcDbCircle
10
69.5
20
-40
30
0
40
1.7499999999999982
210
0
220
-0
230
1
0
CIRCLE
5
111
100
AcDbEntity
8
0
100
AcDbCircle
10
78
20
-25.500000000000004
30
0
40
0.8509000000000011
210
0
220
-0
230
1
0
LWPOLYLINE
5
112
100
AcDbEntity
8
0
100
AcDbPolyline
90
117
70
1
43
0.0
10
60.799999936670062
20
-47.297205172468509
42
-1.1140114574310345
10
60.831227102208736
20
-50.706172898322777
42
0.38855636963302026
10
68.799998641014099
20
-58.000000000000007
10
84.500000053589801
20
-58.000000000000007
42
0.41421355452505587
10
86.5
20
-56.000000000000007
10
86.5
20
-51.360660171779848
10
86.118198051533994
20
-51.742462120245882
42
-0.13102440246609623
10
85.649999999995686
20
-52.013547838346064
10
85.649999999995686
20
-53.75
10
82.349999999995703
20
-53.75
10
82.349999999995703
20
-52.013547838343712
42
-0.13102440246391703
10
81.881801948466077
20
-51.742462120245882
10
81.207537879754156
20
-51.068198051533955
42
-0.022026129507587304
10
81.145097595047872
20
-51.000000062398612
10
79.649999968474731
20
-51.000000062398612
10
79.649999968474731
20
-49.465843701291988
42
-7.2223794357281346
10
79.649999968474731
20
-48.53415629870802
10
79.649999968474731
20
-47.330771768160488
42
-0.27218993782435619
10
78.749999999992838
20
-45.800000000015231
10
78.749999999992838
20
-43.901908957365677
42
-3.9832404096837615
10
78.749999999992838
20
-43.09809104263433
10
78.749999999992824
20
-42.500000000015248
42
-0.38610128824863654
10
80.149999999999991
20
-40.957275137945814
10
80.149999999999991
20
-39.249999999999993
10
83.449999999999989
20
-39.249999999999979
10
83.449999999999989
20
-40.957275137945814
42
-0.38610128825002488
10
84.850000000007171
20
-42.500000000022794
10
84.850000000007171
20
-45.400000000015254
42
0.37333963451748325
10
85.240423927362428
20
-45.850000000000009
10
85.375735931288006
20
-45.850000000000001
42
-0.19891236737965431
10
86.118198051533938
20
-46.157537879754109
10
86.5
20
-46.539339828220179
10
86.5
20
-23.999999985640834
42
0.41421355452505193
10
84.500000039230642
20
-22
10
37.500000039230621
20
-22
42
0.41421355452504999
10
35.5
20
-23.999999907179589
10
35.499999999999993
20
-28.639339828220184
10
35.881801948466062
20
-28.257537879754121
42
-0.13102440246607475
10
36.350000000004314
20
-27.986452161653958
10
36.350000000004314
20
-26.25
10
39.650000000004326
20
-26.25
10
39.650000000004326
20
-27.986452161656295
42
-0.13102440246390676
10
40.11819805153393
20
-28.257537879754103
10
40.792462120245887
20
-28.931801948466038
42
-0.092625040529609182
10
41.010468614634085
20
-29.249999952502549
10
42.100000016624115
20
-29.249999952502549
10
42.100000016624115
20
-32.554804442266636
42
-0.31485504202229753
10
43.250000000007176
20
-34.199999999984755
10
43.250000000007162
20
-36.098091042634344
42
-3.9832404096839595
10
43.250000000007169
20
-36.901908957365663
10
43.250000000007169
20
-37.499999999984759
42
-0.38610128824862922
10
41.850000000000023
20
-39.042724862054186
10
41.850000000000023
20
-40.750000000000021
10
38.550000000000011
20
-40.750000000000021
10
38.550000000000011
20
-39.042724862054186
42
-0.38610128825003909
10
37.149999999992829
20
-37.499999999977199
10
37.149999999992829
20
-34.599999999984753
42
0.37333963451749702
10
36.75957607263755
20
-34.149999999999999
10
36.624264068711959
20
-34.149999999999999
42
-0.19891236737967657
10
35.881801948466034
20
-33.842462120245848
10
35.5
20
-33.460660171779814
10
35.5
20
-55.9999999071796
42
0.41421358381437051
10
37.500000053589787
20
-58.000000000000007
10
43.800000063329932
20
-57.999999950081111
42
0.27754452484714442
10
50.866647049391162
20
-53.75
10
48.349999999995681
20
-53.75
10
48.349999999995681
20
-52.013547838343698
42
-0.13102440246390934
10
47.88180194846607
20
-51.742462120245882
10
47.207537879754042
20
-51.068198051533884
42
-0.092625040529570671
10
46.989531385365936
20
-50.750000047497458
10
45.899999983375892
20
-50.750000047497458
10
45.899999983375892
20
-47.445195557733371
42
-0.31485504202230102
10
44.749999999992831
20
-45.800000000015245
10
44.749999999992831
20
-43.901908957365677
42
-3.9832404096837615
10
44.749999999992831
20
-43.09809104263433
10
44.749999999992831
20
-42.500000000022816
42
-0.38610128825003426
10
46.149999999999984
20
-40.957275137945814
10
46.149999999999984
20
-39.249999999999993
10
49.449999999999996
20
-39.249999999999979
10
49.449999999999996
20
-40.957275137945821
42
-0.38610128824863194
10
50.850000000007178
20
-42.500000000015248
10
50.850000000007185
20
-45.400000000015254
42
0.37333963451748325
10
51.240423927362436
20
-45.850000000000009
10
51.375735931288119
20
-45.850000000000001
42
-0.10436449192313467
10
51.800000063329932
20
-45.939531392359569
10
51.800000063329925
20
-41.60390152087399
42
-2.5265078214462711
10
54.056438224011387
20
-40.800000034272671
10
60.799999936670062
20
-40.800000034272671
10
60.799999936670062
20
-42.672938463796072
42
-0.34144272811256732
10
61.749999999992838
20
-43.098091042634351
10
61.749999999992831
20
-42.500000000022823
42
-0.38610128825003737
10
63.149999999999984
20
-40.957275137945814
10
63.149999999999984
20
-39.249999999999993
10
66.449999999999989
20
-39.249999999999979
10
66.449999999999989
20
-40.957275137945814
42
-0.3861012882486321
10
67.850000000007185
20
-42.500000000015248
10
67.850000000007185
20
-45.400000000015254
42
0.37333963451749425
10
68.240423927362457
20
-45.850000000000009
10
68.375735931288077
20
-45.850000000000016
42
-0.1989123673796549
10
69.118198051533952
20
-46.157537879754138
10
69.792462120245929
20
-46.831801948466101
42
-0.19891236737963722
10
70.100000000000009
20
-47.57426406871194
10
70.100000000000023
20
-50.325735931288172
42
-0.1989123673796242
10
69.792462120245887
20
-51.068198051533969
10
69.11819805153398
20
-51.742462120245847
42
-0.13102440246610433
10
68.6499999999957
20
-52.013547838346057
10
68.6499999999957
20
-53.75
10
65.349999999995688
20
-53.75
10
65.349999999995688
20
-52.013547838343712
42
-0.13102440246391139
10
64.881801948466062
20
-51.742462120245882
10
64.207537879754085
20
-51.068198051533926
42
-0.092625040529583882
10
63.989531385365936
20
-50.750000047497458
10
62.899999983375892
20
-50.750000047497458
10
62.899999983375892
20
-47.445195557733364
42
-0.31485504202230186
10
61.749999999992831
20
-45.800000000015245
10
61.749999999992838
20
-43.901908957365656
42
-0.34144272811256993
10
60.799999936670062
20
-44.327061536203942
0
ENDSEC
0
SECTION
2
OBJECTS
0
DICTIONARY
5
C
100
AcDbDictionary
3
ACAD_GROUP
350
D
3
ACAD_MLINESTYLE
350
17
0
DICTIONARY
5
D
100
AcDbDictionary
0
DICTIONARY
5
1A
330
C
100
AcDbDictionary
0
DICTIONARY
5
17
100
AcDbDictionary
0
ENDSEC
0
EOF
